<?xml version="1.0" encoding="UTF-8" standalone="no"?>
<!DOCTYPE svg PUBLIC "-//W3C//DTD SVG 1.1//EN"
 "http://www.w3.org/Graphics/SVG/1.1/DTD/svg11.dtd">
<!-- Generated by graphviz version 2.40.1 (0)
 -->
<!-- Title: include/travesim_adapters/configurers/configurers_utils.hpp Pages: 1 -->
<svg width="1074pt" height="117pt"
 viewBox="0.00 0.00 1074.00 117.00" xmlns="http://www.w3.org/2000/svg" xmlns:xlink="http://www.w3.org/1999/xlink">
<g id="graph0" class="graph" transform="scale(1 1) rotate(0) translate(4 113)">
<title>include/travesim_adapters/configurers/configurers_utils.hpp</title>
<!-- Node3 -->
<g id="node1" class="node">
<title>Node3</title>
<g id="a_node1"><a xlink:title="Configurers utilitary funtions.">
<polygon fill="#bfbfbf" stroke="#000000" points="401,-67.5 401,-108.5 605,-108.5 605,-67.5 401,-67.5"/>
<text text-anchor="start" x="409" y="-96.5" font-family="Fira Code" font-size="10.00" fill="#000000">include/travesim_adapters</text>
<text text-anchor="start" x="409" y="-85.5" font-family="Fira Code" font-size="10.00" fill="#000000">/configurers/configurers</text>
<text text-anchor="middle" x="503" y="-74.5" font-family="Fira Code" font-size="10.00" fill="#000000">_utils.hpp</text>
</a>
</g>
</g>
<!-- Node4 -->
<g id="node2" class="node">
<title>Node4</title>
<g id="a_node2"><a xlink:href="../../d4/df3/configurers__utils_8cpp.html" target="_top" xlink:title="Configurers utilitary funtions.">
<polygon fill="none" stroke="#000000" points="0,-.5 0,-30.5 182,-30.5 182,-.5 0,-.5"/>
<text text-anchor="start" x="8" y="-18.5" font-family="Fira Code" font-size="10.00" fill="#000000">src/lib/configurers</text>
<text text-anchor="middle" x="91" y="-7.5" font-family="Fira Code" font-size="10.00" fill="#000000">/configurers_utils.cpp</text>
</a>
</g>
</g>
<!-- Node3&#45;&gt;Node4 -->
<g id="edge1" class="edge">
<title>Node3&#45;&gt;Node4</title>
<path fill="none" stroke="#191970" d="M391.0398,-68.2983C323.3791,-56.392 238.485,-41.4531 176.2817,-30.5071"/>
<polygon fill="#191970" stroke="#191970" points="390.4374,-71.746 400.8927,-70.0321 391.6506,-64.8519 390.4374,-71.746"/>
</g>
<!-- Node5 -->
<g id="node3" class="node">
<title>Node5</title>
<g id="a_node3"><a xlink:href="../../d2/d15/replacer__configurer_8cpp.html" target="_top" xlink:title="Configurer for the Replacer.">
<polygon fill="none" stroke="#000000" points="200.5,-.5 200.5,-30.5 397.5,-30.5 397.5,-.5 200.5,-.5"/>
<text text-anchor="start" x="208.5" y="-18.5" font-family="Fira Code" font-size="10.00" fill="#000000">src/lib/configurers</text>
<text text-anchor="middle" x="299" y="-7.5" font-family="Fira Code" font-size="10.00" fill="#000000">/replacer_configurer.cpp</text>
</a>
</g>
</g>
<!-- Node3&#45;&gt;Node5 -->
<g id="edge2" class="edge">
<title>Node3&#45;&gt;Node5</title>
<path fill="none" stroke="#191970" d="M435.6252,-64.0555C404.5854,-53.0242 368.6917,-40.2679 341.4858,-30.5991"/>
<polygon fill="#191970" stroke="#191970" points="434.4927,-67.3675 445.0875,-67.4183 436.8369,-60.7716 434.4927,-67.3675"/>
</g>
<!-- Node6 -->
<g id="node4" class="node">
<title>Node6</title>
<g id="a_node4"><a xlink:href="../../db/da2/teams__configurer_8cpp.html" target="_top" xlink:title="Configurer for the teams.">
<polygon fill="none" stroke="#000000" points="416,-.5 416,-30.5 590,-30.5 590,-.5 416,-.5"/>
<text text-anchor="start" x="424" y="-18.5" font-family="Fira Code" font-size="10.00" fill="#000000">src/lib/configurers</text>
<text text-anchor="middle" x="503" y="-7.5" font-family="Fira Code" font-size="10.00" fill="#000000">/teams_configurer.cpp</text>
</a>
</g>
</g>
<!-- Node3&#45;&gt;Node6 -->
<g id="edge3" class="edge">
<title>Node3&#45;&gt;Node6</title>
<path fill="none" stroke="#191970" d="M503,-57.3279C503,-48.0871 503,-38.3508 503,-30.5991"/>
<polygon fill="#191970" stroke="#191970" points="499.5001,-57.4183 503,-67.4183 506.5001,-57.4184 499.5001,-57.4183"/>
</g>
<!-- Node7 -->
<g id="node5" class="node">
<title>Node7</title>
<g id="a_node5"><a xlink:href="../../d3/dd6/configurers__utils_8test_8cpp.html" target="_top" xlink:title="Test configurers utilitary functions.">
<polygon fill="none" stroke="#000000" points="608.5,-.5 608.5,-30.5 865.5,-30.5 865.5,-.5 608.5,-.5"/>
<text text-anchor="start" x="616.5" y="-18.5" font-family="Fira Code" font-size="10.00" fill="#000000">src/lib/configurers</text>
<text text-anchor="middle" x="737" y="-7.5" font-family="Fira Code" font-size="10.00" fill="#000000">/test/configurers_utils.test.cpp</text>
</a>
</g>
</g>
<!-- Node3&#45;&gt;Node7 -->
<g id="edge4" class="edge">
<title>Node3&#45;&gt;Node7</title>
<path fill="none" stroke="#191970" d="M579.3633,-64.3404C615.1767,-53.2444 656.7905,-40.3512 688.2663,-30.5991"/>
<polygon fill="#191970" stroke="#191970" points="577.9453,-61.1156 569.4291,-67.4183 580.017,-67.802 577.9453,-61.1156"/>
</g>
<!-- Node8 -->
<g id="node6" class="node">
<title>Node8</title>
<g id="a_node6"><a xlink:href="../../d7/d1a/vision__configurer_8cpp.html" target="_top" xlink:title="Configurer for the vision.">
<polygon fill="none" stroke="#000000" points="884,-.5 884,-30.5 1066,-30.5 1066,-.5 884,-.5"/>
<text text-anchor="start" x="892" y="-18.5" font-family="Fira Code" font-size="10.00" fill="#000000">src/lib/configurers</text>
<text text-anchor="middle" x="975" y="-7.5" font-family="Fira Code" font-size="10.00" fill="#000000">/vision_configurer.cpp</text>
</a>
</g>
</g>
<!-- Node3&#45;&gt;Node8 -->
<g id="edge5" class="edge">
<title>Node3&#45;&gt;Node8</title>
<path fill="none" stroke="#191970" d="M615.4873,-70.8159C689.2807,-59.5301 787.8856,-44.4254 875,-31 877.9518,-30.5451 880.9525,-30.0823 883.9827,-29.6145"/>
<polygon fill="#191970" stroke="#191970" points="614.5992,-67.411 605.2432,-72.3825 615.6574,-74.3305 614.5992,-67.411"/>
</g>
</g>
</svg>
