<?xml version="1.0" encoding="UTF-8" standalone="no"?>
<!DOCTYPE svg PUBLIC "-//W3C//DTD SVG 1.1//EN"
 "http://www.w3.org/Graphics/SVG/1.1/DTD/svg11.dtd">
<!-- Generated by graphviz version 2.40.1 (0)
 -->
<!-- Title: travesim::udp::Receiver::open_socket Pages: 1 -->
<svg width="505pt" height="39pt"
 viewBox="0.00 0.00 505.00 39.00" xmlns="http://www.w3.org/2000/svg" xmlns:xlink="http://www.w3.org/1999/xlink">
<g id="graph0" class="graph" transform="scale(1 1) rotate(0) translate(4 35)">
<title>travesim::udp::Receiver::open_socket</title>
<!-- Node16 -->
<g id="node1" class="node">
<title>Node16</title>
<g id="a_node1"><a xlink:title="Open the socket with the desired options.">
<polygon fill="#bfbfbf" stroke="#000000" points="308,-.5 308,-30.5 497,-30.5 497,-.5 308,-.5"/>
<text text-anchor="start" x="316" y="-18.5" font-family="Fira Code" font-size="10.00" fill="#000000">travesim::udp::Receiver</text>
<text text-anchor="middle" x="402.5" y="-7.5" font-family="Fira Code" font-size="10.00" fill="#000000">::open_socket</text>
</a>
</g>
</g>
<!-- Node17 -->
<g id="node2" class="node">
<title>Node17</title>
<g id="a_node2"><a xlink:href="../../d2/db9/classtravesim_1_1udp_1_1Receiver.html#af527c0a1a7c9b711972ac02a10d762a8" target="_top" xlink:title="Reset the receiver.">
<polygon fill="none" stroke="#000000" points="83,-.5 83,-30.5 272,-30.5 272,-.5 83,-.5"/>
<text text-anchor="start" x="91" y="-18.5" font-family="Fira Code" font-size="10.00" fill="#000000">travesim::udp::Receiver</text>
<text text-anchor="middle" x="177.5" y="-7.5" font-family="Fira Code" font-size="10.00" fill="#000000">::reset</text>
</a>
</g>
</g>
<!-- Node16&#45;&gt;Node17 -->
<g id="edge1" class="edge">
<title>Node16&#45;&gt;Node17</title>
<path fill="none" stroke="#191970" d="M297.4716,-15.5C289.0265,-15.5 280.525,-15.5 272.1587,-15.5"/>
<polygon fill="#191970" stroke="#191970" points="297.7319,-19.0001 307.7319,-15.5 297.7318,-12.0001 297.7319,-19.0001"/>
</g>
<!-- Node18 -->
<g id="node3" class="node">
<title>Node18</title>
<g id="a_node3"><a xlink:href="../../d4/dfc/multicast__receiver__reset__example_8cpp.html#a0ddf1224851353fc92bfbff6f499fa97" target="_top" xlink:title=" ">
<polygon fill="none" stroke="#000000" points="0,-6 0,-25 47,-25 47,-6 0,-6"/>
<text text-anchor="middle" x="23.5" y="-13" font-family="Fira Code" font-size="10.00" fill="#000000">main</text>
</a>
</g>
</g>
<!-- Node17&#45;&gt;Node18 -->
<g id="edge2" class="edge">
<title>Node17&#45;&gt;Node18</title>
<path fill="none" stroke="#191970" d="M72.3294,-15.5C63.0644,-15.5 54.4304,-15.5 47.0779,-15.5"/>
<polygon fill="#191970" stroke="#191970" points="72.6,-19.0001 82.6,-15.5 72.6,-12.0001 72.6,-19.0001"/>
</g>
</g>
</svg>
