<?xml version="1.0" encoding="UTF-8" standalone="no"?>
<!DOCTYPE svg PUBLIC "-//W3C//DTD SVG 1.1//EN"
 "http://www.w3.org/Graphics/SVG/1.1/DTD/svg11.dtd">
<!-- Generated by graphviz version 2.40.1 (0)
 -->
<!-- Title: travesim::udp::Receiver::close_socket Pages: 1 -->
<svg width="558pt" height="88pt"
 viewBox="0.00 0.00 558.00 88.00" xmlns="http://www.w3.org/2000/svg" xmlns:xlink="http://www.w3.org/1999/xlink">
<g id="graph0" class="graph" transform="scale(1 1) rotate(0) translate(4 84)">
<title>travesim::udp::Receiver::close_socket</title>
<!-- Node7 -->
<g id="node1" class="node">
<title>Node7</title>
<g id="a_node1"><a xlink:title="Close the socket.">
<polygon fill="#bfbfbf" stroke="#000000" points="361,-24.5 361,-54.5 550,-54.5 550,-24.5 361,-24.5"/>
<text text-anchor="start" x="369" y="-42.5" font-family="Fira Code" font-size="10.00" fill="#000000">travesim::udp::Receiver</text>
<text text-anchor="middle" x="455.5" y="-31.5" font-family="Fira Code" font-size="10.00" fill="#000000">::close_socket</text>
</a>
</g>
</g>
<!-- Node8 -->
<g id="node2" class="node">
<title>Node8</title>
<g id="a_node2"><a xlink:href="../../d2/db9/classtravesim_1_1udp_1_1Receiver.html#af527c0a1a7c9b711972ac02a10d762a8" target="_top" xlink:title="Reset the receiver.">
<polygon fill="none" stroke="#000000" points="109.5,-49.5 109.5,-79.5 298.5,-79.5 298.5,-49.5 109.5,-49.5"/>
<text text-anchor="start" x="117.5" y="-67.5" font-family="Fira Code" font-size="10.00" fill="#000000">travesim::udp::Receiver</text>
<text text-anchor="middle" x="204" y="-56.5" font-family="Fira Code" font-size="10.00" fill="#000000">::reset</text>
</a>
</g>
</g>
<!-- Node7&#45;&gt;Node8 -->
<g id="edge1" class="edge">
<title>Node7&#45;&gt;Node8</title>
<path fill="none" stroke="#191970" d="M350.6881,-49.9187C333.4293,-51.6343 315.6292,-53.4037 298.6376,-55.0927"/>
<polygon fill="#191970" stroke="#191970" points="351.1723,-53.3879 360.777,-48.9158 350.4798,-46.4222 351.1723,-53.3879"/>
</g>
<!-- Node10 -->
<g id="node4" class="node">
<title>Node10</title>
<g id="a_node4"><a xlink:href="../../dc/d9b/classtravesim_1_1udp_1_1UnicastReceiver.html#add5f72c6fa1aa55a582c501ce72b3cc9" target="_top" xlink:title="Destroy the Unicast Receiver object.">
<polygon fill="none" stroke="#000000" points="83,-.5 83,-30.5 325,-30.5 325,-.5 83,-.5"/>
<text text-anchor="start" x="91" y="-18.5" font-family="Fira Code" font-size="10.00" fill="#000000">travesim::udp::UnicastReceiver</text>
<text text-anchor="middle" x="204" y="-7.5" font-family="Fira Code" font-size="10.00" fill="#000000">::~UnicastReceiver</text>
</a>
</g>
</g>
<!-- Node7&#45;&gt;Node10 -->
<g id="edge3" class="edge">
<title>Node7&#45;&gt;Node10</title>
<path fill="none" stroke="#191970" d="M350.6715,-29.4965C342.327,-28.7002 333.856,-27.8918 325.4112,-27.086"/>
<polygon fill="#191970" stroke="#191970" points="350.4897,-32.995 360.777,-30.4608 351.1547,-26.0266 350.4897,-32.995"/>
</g>
<!-- Node9 -->
<g id="node3" class="node">
<title>Node9</title>
<g id="a_node3"><a xlink:href="../../d4/dfc/multicast__receiver__reset__example_8cpp.html#a0ddf1224851353fc92bfbff6f499fa97" target="_top" xlink:title=" ">
<polygon fill="none" stroke="#000000" points="0,-55 0,-74 47,-74 47,-55 0,-55"/>
<text text-anchor="middle" x="23.5" y="-62" font-family="Fira Code" font-size="10.00" fill="#000000">main</text>
</a>
</g>
</g>
<!-- Node8&#45;&gt;Node9 -->
<g id="edge2" class="edge">
<title>Node8&#45;&gt;Node9</title>
<path fill="none" stroke="#191970" d="M98.9934,-64.5C79.4934,-64.5 60.9381,-64.5 47.103,-64.5"/>
<polygon fill="#191970" stroke="#191970" points="99.2568,-68.0001 109.2568,-64.5 99.2567,-61.0001 99.2568,-68.0001"/>
</g>
</g>
</svg>
