<?xml version="1.0" encoding="UTF-8" standalone="no"?>
<!DOCTYPE svg PUBLIC "-//W3C//DTD SVG 1.1//EN"
 "http://www.w3.org/Graphics/SVG/1.1/DTD/svg11.dtd">
<!-- Generated by graphviz version 2.40.1 (0)
 -->
<!-- Title: travesim::udp::Receiver::receive Pages: 1 -->
<svg width="280pt" height="66pt"
 viewBox="0.00 0.00 280.00 66.00" xmlns="http://www.w3.org/2000/svg" xmlns:xlink="http://www.w3.org/1999/xlink">
<g id="graph0" class="graph" transform="scale(1 1) rotate(0) translate(4 62)">
<title>travesim::udp::Receiver::receive</title>
<!-- Node21 -->
<g id="node1" class="node">
<title>Node21</title>
<g id="a_node1"><a xlink:title="Receive data using UDP.">
<polygon fill="#bfbfbf" stroke="#000000" points="83,-14 83,-44 272,-44 272,-14 83,-14"/>
<text text-anchor="start" x="91" y="-32" font-family="Fira Code" font-size="10.00" fill="#000000">travesim::udp::Receiver</text>
<text text-anchor="middle" x="177.5" y="-21" font-family="Fira Code" font-size="10.00" fill="#000000">::receive</text>
</a>
</g>
</g>
<!-- Node22 -->
<g id="node2" class="node">
<title>Node22</title>
<g id="a_node2"><a xlink:href="../../d7/df5/vision__receiver__example_8cpp.html#a0ddf1224851353fc92bfbff6f499fa97" target="_top" xlink:title=" ">
<polygon fill="none" stroke="#000000" points="0,-38.5 0,-57.5 47,-57.5 47,-38.5 0,-38.5"/>
<text text-anchor="middle" x="23.5" y="-45.5" font-family="Fira Code" font-size="10.00" fill="#000000">main</text>
</a>
</g>
</g>
<!-- Node21&#45;&gt;Node22 -->
<g id="edge1" class="edge">
<title>Node21&#45;&gt;Node22</title>
<path fill="none" stroke="#191970" d="M72.6253,-41.9391C63.2482,-43.096 54.5087,-44.1743 47.0779,-45.091"/>
<polygon fill="#191970" stroke="#191970" points="73.1038,-45.4067 82.6,-40.7084 72.2466,-38.4593 73.1038,-45.4067"/>
</g>
<!-- Node23 -->
<g id="node3" class="node">
<title>Node23</title>
<g id="a_node3"><a xlink:href="../../d7/d29/vision__adapter_8test_8cpp.html#a9b9690e1c14b74009327607bbc6519da" target="_top" xlink:title=" ">
<polygon fill="none" stroke="#000000" points="0,-.5 0,-19.5 47,-19.5 47,-.5 0,-.5"/>
<text text-anchor="middle" x="23.5" y="-7.5" font-family="Fira Code" font-size="10.00" fill="#000000">TEST</text>
</a>
</g>
</g>
<!-- Node21&#45;&gt;Node23 -->
<g id="edge2" class="edge">
<title>Node21&#45;&gt;Node23</title>
<path fill="none" stroke="#191970" d="M72.6253,-16.0609C63.2482,-14.904 54.5087,-13.8257 47.0779,-12.909"/>
<polygon fill="#191970" stroke="#191970" points="72.2466,-19.5407 82.6,-17.2916 73.1038,-12.5933 72.2466,-19.5407"/>
</g>
</g>
</svg>
