<?xml version="1.0" encoding="UTF-8" standalone="no"?>
<!DOCTYPE svg PUBLIC "-//W3C//DTD SVG 1.1//EN"
 "http://www.w3.org/Graphics/SVG/1.1/DTD/svg11.dtd">
<!-- Generated by graphviz version 2.40.1 (0)
 -->
<!-- Title: travesim::udp::Receiver::Receiver Pages: 1 -->
<svg width="422pt" height="88pt"
 viewBox="0.00 0.00 422.00 88.00" xmlns="http://www.w3.org/2000/svg" xmlns:xlink="http://www.w3.org/1999/xlink">
<g id="graph0" class="graph" transform="scale(1 1) rotate(0) translate(4 84)">
<title>travesim::udp::Receiver::Receiver</title>
<!-- Node0 -->
<g id="node1" class="node">
<title>Node0</title>
<g id="a_node1"><a xlink:title="Construct a new Receiver object.">
<polygon fill="#bfbfbf" stroke="#000000" points="0,-24.5 0,-54.5 189,-54.5 189,-24.5 0,-24.5"/>
<text text-anchor="start" x="8" y="-42.5" font-family="Fira Code" font-size="10.00" fill="#000000">travesim::udp::Receiver</text>
<text text-anchor="middle" x="94.5" y="-31.5" font-family="Fira Code" font-size="10.00" fill="#000000">::Receiver</text>
</a>
</g>
</g>
<!-- Node1 -->
<g id="node2" class="node">
<title>Node1</title>
<g id="a_node2"><a xlink:href="../../d2/db9/classtravesim_1_1udp_1_1Receiver.html#adc2e4ae64cc3d39424781c9ba4700267" target="_top" xlink:title="Set wheter to enable any source or source specific. True for specific source, false for any source,...">
<polygon fill="none" stroke="#000000" points="225,-49.5 225,-79.5 414,-79.5 414,-49.5 225,-49.5"/>
<text text-anchor="start" x="233" y="-67.5" font-family="Fira Code" font-size="10.00" fill="#000000">travesim::udp::Receiver</text>
<text text-anchor="middle" x="319.5" y="-56.5" font-family="Fira Code" font-size="10.00" fill="#000000">::force_specific_source</text>
</a>
</g>
</g>
<!-- Node0&#45;&gt;Node1 -->
<g id="edge1" class="edge">
<title>Node0&#45;&gt;Node1</title>
<path fill="none" stroke="#191970" d="M189.2681,-50.0298C197.7276,-50.9697 206.3244,-51.9249 214.8604,-52.8734"/>
<polygon fill="#191970" stroke="#191970" points="214.516,-56.3566 224.8413,-53.9824 215.289,-49.3994 214.516,-56.3566"/>
</g>
<!-- Node2 -->
<g id="node3" class="node">
<title>Node2</title>
<g id="a_node3"><a xlink:href="../../d2/db9/classtravesim_1_1udp_1_1Receiver.html#a4e40819c2e3737e33c5f994cbee79f6e" target="_top" xlink:title="Set the receiver endpoint.">
<polygon fill="none" stroke="#000000" points="225,-.5 225,-30.5 414,-30.5 414,-.5 225,-.5"/>
<text text-anchor="start" x="233" y="-18.5" font-family="Fira Code" font-size="10.00" fill="#000000">travesim::udp::Receiver</text>
<text text-anchor="middle" x="319.5" y="-7.5" font-family="Fira Code" font-size="10.00" fill="#000000">::set_receiver_endpoint</text>
</a>
</g>
</g>
<!-- Node0&#45;&gt;Node2 -->
<g id="edge2" class="edge">
<title>Node0&#45;&gt;Node2</title>
<path fill="none" stroke="#191970" d="M189.2681,-29.3914C197.7276,-28.4891 206.3244,-27.5721 214.8604,-26.6616"/>
<polygon fill="#191970" stroke="#191970" points="215.269,-30.1379 224.8413,-25.5969 214.5265,-23.1774 215.269,-30.1379"/>
</g>
</g>
</svg>
