<?xml version="1.0" encoding="UTF-8" standalone="no"?>
<!DOCTYPE svg PUBLIC "-//W3C//DTD SVG 1.1//EN"
 "http://www.w3.org/Graphics/SVG/1.1/DTD/svg11.dtd">
<!-- Generated by graphviz version 2.40.1 (0)
 -->
<!-- Title: travesim::udp::Receiver::force_specific_source Pages: 1 -->
<svg width="422pt" height="78pt"
 viewBox="0.00 0.00 422.00 77.50" xmlns="http://www.w3.org/2000/svg" xmlns:xlink="http://www.w3.org/1999/xlink">
<g id="graph0" class="graph" transform="scale(1 1) rotate(0) translate(4 73.5)">
<title>travesim::udp::Receiver::force_specific_source</title>
<!-- Node12 -->
<g id="node1" class="node">
<title>Node12</title>
<g id="a_node1"><a xlink:title="Set wheter to enable any source or source specific. True for specific source, false for any source,...">
<polygon fill="#bfbfbf" stroke="#000000" points="225,-22.5 225,-52.5 414,-52.5 414,-22.5 225,-22.5"/>
<text text-anchor="start" x="233" y="-40.5" font-family="Fira Code" font-size="10.00" fill="#000000">travesim::udp::Receiver</text>
<text text-anchor="middle" x="319.5" y="-29.5" font-family="Fira Code" font-size="10.00" fill="#000000">::force_specific_source</text>
</a>
</g>
</g>
<!-- Node13 -->
<g id="node2" class="node">
<title>Node13</title>
<g id="a_node2"><a xlink:href="../../d4/dfc/multicast__receiver__reset__example_8cpp.html#a0ddf1224851353fc92bfbff6f499fa97" target="_top" xlink:title=" ">
<polygon fill="none" stroke="#000000" points="71,-50 71,-69 118,-69 118,-50 71,-50"/>
<text text-anchor="middle" x="94.5" y="-57" font-family="Fira Code" font-size="10.00" fill="#000000">main</text>
</a>
</g>
</g>
<!-- Node12&#45;&gt;Node13 -->
<g id="edge1" class="edge">
<title>Node12&#45;&gt;Node13</title>
<path fill="none" stroke="#191970" d="M214.5852,-47.7583C178.4681,-51.2898 141.3037,-54.9236 118.0726,-57.1951"/>
<polygon fill="#191970" stroke="#191970" points="215.12,-51.2228 224.7319,-46.7662 214.4387,-44.2561 215.12,-51.2228"/>
</g>
<!-- Node14 -->
<g id="node3" class="node">
<title>Node14</title>
<g id="a_node3"><a xlink:href="../../d2/db9/classtravesim_1_1udp_1_1Receiver.html#afa94914ff7d59596ecc01d6511945e7d" target="_top" xlink:title="Construct a new Receiver object.">
<polygon fill="none" stroke="#000000" points="0,-.5 0,-30.5 189,-30.5 189,-.5 0,-.5"/>
<text text-anchor="start" x="8" y="-18.5" font-family="Fira Code" font-size="10.00" fill="#000000">travesim::udp::Receiver</text>
<text text-anchor="middle" x="94.5" y="-7.5" font-family="Fira Code" font-size="10.00" fill="#000000">::Receiver</text>
</a>
</g>
</g>
<!-- Node12&#45;&gt;Node14 -->
<g id="edge2" class="edge">
<title>Node12&#45;&gt;Node14</title>
<path fill="none" stroke="#191970" d="M214.75,-27.2578C206.2134,-26.4231 197.617,-25.5825 189.1587,-24.7555"/>
<polygon fill="#191970" stroke="#191970" points="214.4387,-30.7439 224.7319,-28.2338 215.12,-23.7772 214.4387,-30.7439"/>
</g>
</g>
</svg>
