<?xml version="1.0" encoding="UTF-8" standalone="no"?>
<!DOCTYPE svg PUBLIC "-//W3C//DTD SVG 1.1//EN"
 "http://www.w3.org/Graphics/SVG/1.1/DTD/svg11.dtd">
<!-- Generated by graphviz version 2.40.1 (0)
 -->
<!-- Title: travesim::udp::Receiver::validate_sender_endpoint Pages: 1 -->
<svg width="528pt" height="102pt"
 viewBox="0.00 0.00 528.00 101.50" xmlns="http://www.w3.org/2000/svg" xmlns:xlink="http://www.w3.org/1999/xlink">
<g id="graph0" class="graph" transform="scale(1 1) rotate(0) translate(4 97.5)">
<title>travesim::udp::Receiver::validate_sender_endpoint</title>
<!-- Node36 -->
<g id="node1" class="node">
<title>Node36</title>
<g id="a_node1"><a xlink:title="Validate whether the current sender endpoint matches the first sender endpoint when using specific so...">
<polygon fill="#bfbfbf" stroke="#000000" points="308,-24.5 308,-54.5 520,-54.5 520,-24.5 308,-24.5"/>
<text text-anchor="start" x="316" y="-42.5" font-family="Fira Code" font-size="10.00" fill="#000000">travesim::udp::Receiver</text>
<text text-anchor="middle" x="414" y="-31.5" font-family="Fira Code" font-size="10.00" fill="#000000">::validate_sender_endpoint</text>
</a>
</g>
</g>
<!-- Node37 -->
<g id="node2" class="node">
<title>Node37</title>
<g id="a_node2"><a xlink:href="../../d2/db9/classtravesim_1_1udp_1_1Receiver.html#a1f3f4304856a1b7ce6e754fbc7ca1042" target="_top" xlink:title="Receive data using UDP.">
<polygon fill="none" stroke="#000000" points="83,-49.5 83,-79.5 272,-79.5 272,-49.5 83,-49.5"/>
<text text-anchor="start" x="91" y="-67.5" font-family="Fira Code" font-size="10.00" fill="#000000">travesim::udp::Receiver</text>
<text text-anchor="middle" x="177.5" y="-56.5" font-family="Fira Code" font-size="10.00" fill="#000000">::receive</text>
</a>
</g>
</g>
<!-- Node36&#45;&gt;Node37 -->
<g id="edge1" class="edge">
<title>Node36&#45;&gt;Node37</title>
<path fill="none" stroke="#191970" d="M297.7779,-51.7856C289.1776,-52.6948 280.5631,-53.6054 272.1162,-54.4983"/>
<polygon fill="#191970" stroke="#191970" points="298.2797,-55.2522 307.8564,-50.7203 297.5438,-48.291 298.2797,-55.2522"/>
</g>
<!-- Node40 -->
<g id="node5" class="node">
<title>Node40</title>
<g id="a_node5"><a xlink:href="../../d2/db9/classtravesim_1_1udp_1_1Receiver.html#ab3f86790ae1f1b51ae1945d30276f8fc" target="_top" xlink:title="Receive the latest data using UDP.">
<polygon fill="none" stroke="#000000" points="83,-.5 83,-30.5 272,-30.5 272,-.5 83,-.5"/>
<text text-anchor="start" x="91" y="-18.5" font-family="Fira Code" font-size="10.00" fill="#000000">travesim::udp::Receiver</text>
<text text-anchor="middle" x="177.5" y="-7.5" font-family="Fira Code" font-size="10.00" fill="#000000">::receive_latest</text>
</a>
</g>
</g>
<!-- Node36&#45;&gt;Node40 -->
<g id="edge4" class="edge">
<title>Node36&#45;&gt;Node40</title>
<path fill="none" stroke="#191970" d="M297.7779,-27.7058C289.1776,-26.833 280.5631,-25.9588 272.1162,-25.1016"/>
<polygon fill="#191970" stroke="#191970" points="297.5541,-31.201 307.8564,-28.7286 298.2608,-24.2367 297.5541,-31.201"/>
</g>
<!-- Node38 -->
<g id="node3" class="node">
<title>Node38</title>
<g id="a_node3"><a xlink:href="../../d7/df5/vision__receiver__example_8cpp.html#a0ddf1224851353fc92bfbff6f499fa97" target="_top" xlink:title=" ">
<polygon fill="none" stroke="#000000" points="0,-74 0,-93 47,-93 47,-74 0,-74"/>
<text text-anchor="middle" x="23.5" y="-81" font-family="Fira Code" font-size="10.00" fill="#000000">main</text>
</a>
</g>
</g>
<!-- Node37&#45;&gt;Node38 -->
<g id="edge2" class="edge">
<title>Node37&#45;&gt;Node38</title>
<path fill="none" stroke="#191970" d="M72.6253,-77.4391C63.2482,-78.596 54.5087,-79.6743 47.0779,-80.591"/>
<polygon fill="#191970" stroke="#191970" points="73.1038,-80.9067 82.6,-76.2084 72.2466,-73.9593 73.1038,-80.9067"/>
</g>
<!-- Node39 -->
<g id="node4" class="node">
<title>Node39</title>
<g id="a_node4"><a xlink:href="../../d7/d29/vision__adapter_8test_8cpp.html#a9b9690e1c14b74009327607bbc6519da" target="_top" xlink:title=" ">
<polygon fill="none" stroke="#000000" points="0,-36 0,-55 47,-55 47,-36 0,-36"/>
<text text-anchor="middle" x="23.5" y="-43" font-family="Fira Code" font-size="10.00" fill="#000000">TEST</text>
</a>
</g>
</g>
<!-- Node37&#45;&gt;Node39 -->
<g id="edge3" class="edge">
<title>Node37&#45;&gt;Node39</title>
<path fill="none" stroke="#191970" d="M72.6253,-51.5609C63.2482,-50.404 54.5087,-49.3257 47.0779,-48.409"/>
<polygon fill="#191970" stroke="#191970" points="72.2466,-55.0407 82.6,-52.7916 73.1038,-48.0933 72.2466,-55.0407"/>
</g>
</g>
</svg>
