<?xml version="1.0" encoding="UTF-8" standalone="no"?>
<!DOCTYPE svg PUBLIC "-//W3C//DTD SVG 1.1//EN"
 "http://www.w3.org/Graphics/SVG/1.1/DTD/svg11.dtd">
<!-- Generated by graphviz version 2.40.1 (0)
 -->
<!-- Title: src/bin/replacer_adapter.cpp Pages: 1 -->
<!--zoomable 285 -->
<svg id="main" version="1.1" xmlns="http://www.w3.org/2000/svg" xmlns:xlink="http://www.w3.org/1999/xlink" xml:space="preserve" onload="init(evt)">
<style type="text/css"><![CDATA[
.edge:hover path { stroke: red; }
.edge:hover polygon { stroke: red; fill: red; }
]]></style>
<script type="text/javascript"><![CDATA[
var edges = document.getElementsByTagName('g');
if (edges && edges.length) {
  for (var i=0;i<edges.length;i++) {
    if (edges[i].id.substr(0,4)=='edge') {
      edges[i].setAttribute('class','edge');
    }
  }
}
]]></script>
        <defs>
                <circle id="rim" cx="0" cy="0" r="7"/>
                <circle id="rim2" cx="0" cy="0" r="3.5"/>
                <g id="zoomPlus">
                        <use xlink:href="#rim" fill="#404040">
                                <set attributeName="fill" to="#808080" begin="zoomplus.mouseover" end="zoomplus.mouseout"/>
                        </use>
                        <path d="M-4,0h8M0,-4v8" fill="none" stroke="white" stroke-width="1.5" pointer-events="none"/>
                </g>
                <g id="zoomMin">
                        <use xlink:href="#rim" fill="#404040">
                                <set attributeName="fill" to="#808080" begin="zoomminus.mouseover" end="zoomminus.mouseout"/>
                        </use>
                        <path d="M-4,0h8" fill="none" stroke="white" stroke-width="1.5" pointer-events="none"/>
                </g>
                <g id="dirArrow">
                        <path fill="none" stroke="white" stroke-width="1.5" d="M0,-3.0v7 M-2.5,-0.5L0,-3.0L2.5,-0.5"/>
                </g>
               <g id="resetDef">
                       <use xlink:href="#rim2" fill="#404040">
                               <set attributeName="fill" to="#808080" begin="reset.mouseover" end="reset.mouseout"/>
                       </use>
               </g>
        </defs>

<script type="text/javascript">
var viewWidth = 2649;
var viewHeight = 285;
var sectionId = 'dynsection-0';
</script>
<script xlink:href="../../svgpan.js"/>
<svg id="graph" class="graph">
<g id="viewport">
<title>src/bin/replacer_adapter.cpp</title>
<!-- Node0 -->
<g id="node1" class="node">
<title>Node0</title>
<g id="a_node1"><a xlink:title="Replacer adapter execution file.">
<polygon fill="#bfbfbf" stroke="#000000" points="608.3865,-257.5 608.3865,-276.5 835.3865,-276.5 835.3865,-257.5 608.3865,-257.5"/>
<text text-anchor="middle" x="721.8865" y="-264.5" font-family="Fira Code" font-size="10.00" fill="#000000">src/bin/replacer_adapter.cpp</text>
</a>
</g>
</g>
<!-- Node1 -->
<g id="node2" class="node">
<title>Node1</title>
<g id="a_node2"><a xlink:title=" ">
<polygon fill="none" stroke="#bfbfbf" points="291.8865,-129 291.8865,-148 345.8865,-148 345.8865,-129 291.8865,-129"/>
<text text-anchor="middle" x="318.8865" y="-136" font-family="Fira Code" font-size="10.00" fill="#000000">queue</text>
</a>
</g>
</g>
<!-- Node0&#45;&gt;Node1 -->
<g id="edge1" class="edge">
<title>Node0&#45;&gt;Node1</title>
<path fill="none" stroke="#191970" d="M633.7464,-257.4752C585.3236,-250.576 524.742,-239.1826 472.8865,-221 423.5565,-203.703 370.8483,-172.3033 341.669,-153.6294"/>
<polygon fill="#191970" stroke="#191970" points="343.3514,-150.549 333.0561,-148.0477 339.5444,-156.4233 343.3514,-150.549"/>
</g>
<!-- Node2 -->
<g id="node3" class="node">
<title>Node2</title>
<g id="a_node3"><a xlink:title=" ">
<polygon fill="none" stroke="#bfbfbf" points="617.8865,-62 617.8865,-81 679.8865,-81 679.8865,-62 617.8865,-62"/>
<text text-anchor="middle" x="648.8865" y="-69" font-family="Fira Code" font-size="10.00" fill="#000000">memory</text>
</a>
</g>
</g>
<!-- Node0&#45;&gt;Node2 -->
<g id="edge2" class="edge">
<title>Node0&#45;&gt;Node2</title>
<path fill="none" stroke="#191970" d="M720.2114,-257.1878C715.9068,-233.3462 703.2007,-170.8167 680.8865,-123 675.4892,-111.4341 668.0261,-99.2713 661.6648,-89.6716"/>
<polygon fill="#191970" stroke="#191970" points="664.526,-87.6549 656.0068,-81.3562 658.7387,-91.5928 664.526,-87.6549"/>
</g>
<!-- Node3 -->
<g id="node4" class="node">
<title>Node3</title>
<g id="a_node4"><a xlink:title=" ">
<polygon fill="none" stroke="#bfbfbf" points="221.8865,-62 221.8865,-81 305.8865,-81 305.8865,-62 221.8865,-62"/>
<text text-anchor="middle" x="263.8865" y="-69" font-family="Fira Code" font-size="10.00" fill="#000000">ros/ros.h</text>
</a>
</g>
</g>
<!-- Node0&#45;&gt;Node3 -->
<g id="edge3" class="edge">
<title>Node0&#45;&gt;Node3</title>
<path fill="none" stroke="#191970" d="M608.0971,-260.558C546.4102,-254.5939 469.5757,-243.1101 403.8865,-221 345.6265,-201.3904 319.879,-203.095 282.8865,-154 269.1811,-135.8107 265.106,-109.4152 264.0243,-91.4118"/>
<polygon fill="#191970" stroke="#191970" points="267.515,-91.0741 263.6764,-81.1992 260.519,-91.3126 267.515,-91.0741"/>
</g>
<!-- Node4 -->
<g id="node5" class="node">
<title>Node4</title>
<g id="a_node5"><a xlink:title=" ">
<polygon fill="none" stroke="#bfbfbf" points="1825.8865,-196 1825.8865,-215 1939.8865,-215 1939.8865,-196 1825.8865,-196"/>
<text text-anchor="middle" x="1882.8865" y="-203" font-family="Fira Code" font-size="10.00" fill="#000000">ros/console.h</text>
</a>
</g>
</g>
<!-- Node0&#45;&gt;Node4 -->
<g id="edge4" class="edge">
<title>Node0&#45;&gt;Node4</title>
<path fill="none" stroke="#191970" d="M835.7482,-264.6882C1075.5779,-259.4103 1625.9234,-245.0395 1811.8865,-221 1819.4557,-220.0215 1827.4121,-218.64 1835.1501,-217.1006"/>
<polygon fill="#191970" stroke="#191970" points="1836.0759,-220.4827 1845.1457,-215.0064 1834.6405,-213.6314 1836.0759,-220.4827"/>
</g>
<!-- Node5 -->
<g id="node6" class="node">
<title>Node5</title>
<g id="a_node6"><a xlink:title=" ">
<polygon fill="none" stroke="#bfbfbf" points="2436.8865,-129 2436.8865,-148 2640.8865,-148 2640.8865,-129 2436.8865,-129"/>
<text text-anchor="middle" x="2538.8865" y="-136" font-family="Fira Code" font-size="10.00" fill="#000000">gazebo_msgs/ModelStates.h</text>
</a>
</g>
</g>
<!-- Node0&#45;&gt;Node5 -->
<g id="edge5" class="edge">
<title>Node0&#45;&gt;Node5</title>
<path fill="none" stroke="#191970" d="M835.8209,-266.0866C1090.9635,-263.4612 1692.6846,-253.8304 1778.8865,-221 1799.2552,-213.2425 1796.5863,-197.9349 1816.8865,-190 1939.2276,-142.1796 2276.0505,-165.6641 2406.8865,-154 2422.1576,-152.6386 2438.3939,-150.9397 2454.0656,-149.1702"/>
<polygon fill="#191970" stroke="#191970" points="2454.7308,-152.617 2464.2668,-148.0001 2453.933,-145.6626 2454.7308,-152.617"/>
</g>
<!-- Node6 -->
<g id="node7" class="node">
<title>Node6</title>
<g id="a_node7"><a xlink:href="../../d9/d9f/replacer__sender_8hpp.html" target="_top" xlink:title=" ">
<polygon fill="none" stroke="#000000" points="38.8865,-190.5 38.8865,-220.5 212.8865,-220.5 212.8865,-190.5 38.8865,-190.5"/>
<text text-anchor="start" x="46.8865" y="-208.5" font-family="Fira Code" font-size="10.00" fill="#000000">travesim_adapters/ros</text>
<text text-anchor="middle" x="125.8865" y="-197.5" font-family="Fira Code" font-size="10.00" fill="#000000">/replacer_sender.hpp</text>
</a>
</g>
</g>
<!-- Node0&#45;&gt;Node6 -->
<g id="edge6" class="edge">
<title>Node0&#45;&gt;Node6</title>
<path fill="none" stroke="#191970" d="M615.4178,-257.4571C519.6974,-248.6793 375.2883,-234.9457 249.8865,-221 241.1917,-220.0331 232.1594,-218.9862 223.1116,-217.9085"/>
<polygon fill="#191970" stroke="#191970" points="223.2535,-214.4004 212.9071,-216.6813 222.4176,-221.3503 223.2535,-214.4004"/>
</g>
<!-- Node8 -->
<g id="node9" class="node">
<title>Node8</title>
<g id="a_node9"><a xlink:href="../../d4/d4c/replacer__receiver_8hpp.html" target="_top" xlink:title="Replacer receiver with UDP and protobuf.">
<polygon fill="none" stroke="#000000" points="481.8865,-190.5 481.8865,-220.5 693.8865,-220.5 693.8865,-190.5 481.8865,-190.5"/>
<text text-anchor="start" x="489.8865" y="-208.5" font-family="Fira Code" font-size="10.00" fill="#000000">travesim_adapters/protobuf</text>
<text text-anchor="middle" x="587.8865" y="-197.5" font-family="Fira Code" font-size="10.00" fill="#000000">/replacer_receiver.hpp</text>
</a>
</g>
</g>
<!-- Node0&#45;&gt;Node8 -->
<g id="edge9" class="edge">
<title>Node0&#45;&gt;Node8</title>
<path fill="none" stroke="#191970" d="M700.949,-257.3906C681.9742,-248.682 653.4459,-235.5888 629.794,-224.7336"/>
<polygon fill="#191970" stroke="#191970" points="631.2151,-221.5349 620.6666,-220.5446 628.2952,-227.8968 631.2151,-221.5349"/>
</g>
<!-- Node17 -->
<g id="node18" class="node">
<title>Node17</title>
<g id="a_node18"><a xlink:href="../../d2/d46/ros__side_8hpp.html" target="_top" xlink:title="Collection of data converters between ROS and local formats.">
<polygon fill="none" stroke="#000000" points="1580.3865,-190.5 1580.3865,-220.5 1769.3865,-220.5 1769.3865,-190.5 1580.3865,-190.5"/>
<text text-anchor="start" x="1588.3865" y="-208.5" font-family="Fira Code" font-size="10.00" fill="#000000">travesim_adapters/data</text>
<text text-anchor="middle" x="1674.8865" y="-197.5" font-family="Fira Code" font-size="10.00" fill="#000000">/converter/ros_side.hpp</text>
</a>
</g>
</g>
<!-- Node0&#45;&gt;Node17 -->
<g id="edge22" class="edge">
<title>Node0&#45;&gt;Node17</title>
<path fill="none" stroke="#191970" d="M835.4219,-259.6732C1021.7928,-247.6461 1389.8754,-223.8926 1570.2629,-212.2517"/>
<polygon fill="#191970" stroke="#191970" points="1570.5362,-215.7414 1580.29,-211.6046 1570.0854,-208.756 1570.5362,-215.7414"/>
</g>
<!-- Node24 -->
<g id="node25" class="node">
<title>Node24</title>
<g id="a_node25"><a xlink:href="../../d0/d46/replacer__configurer_8hpp.html" target="_top" xlink:title="Configurer for the Replacer.">
<polygon fill="none" stroke="#000000" points="841.8865,-190.5 841.8865,-220.5 1075.8865,-220.5 1075.8865,-190.5 841.8865,-190.5"/>
<text text-anchor="start" x="849.8865" y="-208.5" font-family="Fira Code" font-size="10.00" fill="#000000">travesim_adapters/configurers</text>
<text text-anchor="middle" x="958.8865" y="-197.5" font-family="Fira Code" font-size="10.00" fill="#000000">/replacer_configurer.hpp</text>
</a>
</g>
</g>
<!-- Node0&#45;&gt;Node24 -->
<g id="edge36" class="edge">
<title>Node0&#45;&gt;Node24</title>
<path fill="none" stroke="#191970" d="M758.6577,-257.4581C793.8792,-248.3183 847.8826,-234.3048 890.9327,-223.1336"/>
<polygon fill="#191970" stroke="#191970" points="891.9792,-226.478 900.7794,-220.5784 890.2209,-219.7024 891.9792,-226.478"/>
</g>
<!-- Node6&#45;&gt;Node3 -->
<g id="edge7" class="edge">
<title>Node6&#45;&gt;Node3</title>
<path fill="none" stroke="#191970" d="M71.3451,-190.4891C29.4666,-176.2527 -17.4132,-152.6522 6.8865,-123 32.2637,-92.033 144.1807,-79.305 211.6775,-74.3733"/>
<polygon fill="#191970" stroke="#191970" points="211.9712,-77.8614 221.7034,-73.674 211.4841,-70.8784 211.9712,-77.8614"/>
</g>
<!-- Node7 -->
<g id="node8" class="node">
<title>Node7</title>
<g id="a_node8"><a xlink:title=" ">
<polygon fill="none" stroke="#bfbfbf" points="16.3865,-129 16.3865,-148 235.3865,-148 235.3865,-129 16.3865,-129"/>
<text text-anchor="middle" x="125.8865" y="-136" font-family="Fira Code" font-size="10.00" fill="#000000">gazebo_msgs/SetModelState.h</text>
</a>
</g>
</g>
<!-- Node6&#45;&gt;Node7 -->
<g id="edge8" class="edge">
<title>Node6&#45;&gt;Node7</title>
<path fill="none" stroke="#191970" d="M125.8865,-190.2967C125.8865,-180.7699 125.8865,-168.3954 125.8865,-158.1306"/>
<polygon fill="#191970" stroke="#191970" points="129.3866,-158.0549 125.8865,-148.055 122.3866,-158.055 129.3866,-158.0549"/>
</g>
<!-- Node8&#45;&gt;Node1 -->
<g id="edge10" class="edge">
<title>Node8&#45;&gt;Node1</title>
<path fill="none" stroke="#191970" d="M501.6399,-190.479C457.2553,-181.7366 402.5932,-169.3897 354.8865,-154 352.7818,-153.321 350.6313,-152.5647 348.4805,-151.7615"/>
<polygon fill="#191970" stroke="#191970" points="349.7748,-148.5096 339.1906,-148.0352 347.1689,-155.0065 349.7748,-148.5096"/>
</g>
<!-- Node8&#45;&gt;Node2 -->
<g id="edge11" class="edge">
<title>Node8&#45;&gt;Node2</title>
<path fill="none" stroke="#191970" d="M624.7037,-190.4687C640.0333,-182.1524 656.2476,-170.1711 664.8865,-154 675.6331,-133.8838 667.2895,-107.5732 659.1627,-90.1338"/>
<polygon fill="#191970" stroke="#191970" points="662.1833,-88.3508 654.5488,-81.0047 655.9359,-91.5084 662.1833,-88.3508"/>
</g>
<!-- Node9 -->
<g id="node10" class="node">
<title>Node9</title>
<g id="a_node10"><a xlink:href="../../de/d4a/unicast__receiver_8hpp.html" target="_top" xlink:title="Receiver data using UDP in unicast mode.">
<polygon fill="none" stroke="#000000" points="363.8865,-123.5 363.8865,-153.5 537.8865,-153.5 537.8865,-123.5 363.8865,-123.5"/>
<text text-anchor="start" x="371.8865" y="-141.5" font-family="Fira Code" font-size="10.00" fill="#000000">travesim_adapters/udp</text>
<text text-anchor="middle" x="450.8865" y="-130.5" font-family="Fira Code" font-size="10.00" fill="#000000">/unicast_receiver.hpp</text>
</a>
</g>
</g>
<!-- Node8&#45;&gt;Node9 -->
<g id="edge12" class="edge">
<title>Node8&#45;&gt;Node9</title>
<path fill="none" stroke="#191970" d="M557.1411,-190.4639C537.6242,-180.9191 512.1608,-168.4663 491.0541,-158.144"/>
<polygon fill="#191970" stroke="#191970" points="492.5243,-154.9669 482.0034,-153.7177 489.449,-161.2552 492.5243,-154.9669"/>
</g>
<!-- Node13 -->
<g id="node14" class="node">
<title>Node13</title>
<g id="a_node14"><a xlink:href="../../de/d28/entity__state_8hpp.html" target="_top" xlink:title="Entity state data structure.">
<polygon fill="none" stroke="#000000" points="1307.8865,-56.5 1307.8865,-86.5 1489.8865,-86.5 1489.8865,-56.5 1307.8865,-56.5"/>
<text text-anchor="start" x="1315.8865" y="-74.5" font-family="Fira Code" font-size="10.00" fill="#000000">travesim_adapters/data</text>
<text text-anchor="middle" x="1398.8865" y="-63.5" font-family="Fira Code" font-size="10.00" fill="#000000">/entity_state.hpp</text>
</a>
</g>
</g>
<!-- Node8&#45;&gt;Node13 -->
<g id="edge16" class="edge">
<title>Node8&#45;&gt;Node13</title>
<path fill="none" stroke="#191970" d="M694.2184,-199.5772C776.7562,-193.166 893.4849,-180.112 992.8865,-154 1028.1691,-144.7316 1033.7388,-132.7673 1068.8865,-123 1144.2127,-102.0675 1231.7315,-88.8988 1297.7054,-81.1224"/>
<polygon fill="#191970" stroke="#191970" points="1298.1593,-84.5933 1307.6907,-79.9671 1297.3547,-77.6397 1298.1593,-84.5933"/>
</g>
<!-- Node15 -->
<g id="node16" class="node">
<title>Node15</title>
<g id="a_node16"><a xlink:href="../../dc/d09/robot__state_8hpp.html" target="_top" xlink:title="Robot state data structure.">
<polygon fill="none" stroke="#000000" points="1077.8865,-123.5 1077.8865,-153.5 1259.8865,-153.5 1259.8865,-123.5 1077.8865,-123.5"/>
<text text-anchor="start" x="1085.8865" y="-141.5" font-family="Fira Code" font-size="10.00" fill="#000000">travesim_adapters/data</text>
<text text-anchor="middle" x="1168.8865" y="-130.5" font-family="Fira Code" font-size="10.00" fill="#000000">/robot_state.hpp</text>
</a>
</g>
</g>
<!-- Node8&#45;&gt;Node15 -->
<g id="edge18" class="edge">
<title>Node8&#45;&gt;Node15</title>
<path fill="none" stroke="#191970" d="M694.1129,-193.2501C800.5399,-180.9772 963.1657,-162.2234 1067.7543,-150.1624"/>
<polygon fill="#191970" stroke="#191970" points="1068.1575,-153.6392 1077.6907,-149.0166 1067.3556,-146.6853 1068.1575,-153.6392"/>
</g>
<!-- Node16 -->
<g id="node17" class="node">
<title>Node16</title>
<g id="a_node17"><a xlink:title=" ">
<polygon fill="none" stroke="#bfbfbf" points="556.3865,-129 556.3865,-148 655.3865,-148 655.3865,-129 556.3865,-129"/>
<text text-anchor="middle" x="605.8865" y="-136" font-family="Fira Code" font-size="10.00" fill="#000000">packet.pb.h</text>
</a>
</g>
</g>
<!-- Node8&#45;&gt;Node16 -->
<g id="edge21" class="edge">
<title>Node8&#45;&gt;Node16</title>
<path fill="none" stroke="#191970" d="M591.971,-190.2967C594.5577,-180.6685 597.9258,-168.1318 600.7004,-157.8038"/>
<polygon fill="#191970" stroke="#191970" points="604.105,-158.6206 603.3195,-148.055 597.3447,-156.8044 604.105,-158.6206"/>
</g>
<!-- Node10 -->
<g id="node11" class="node">
<title>Node10</title>
<g id="a_node11"><a xlink:href="../../df/d3c/receiver_8hpp.html" target="_top" xlink:title="Receiver data using UDP.">
<polygon fill="none" stroke="#000000" points="363.8865,-56.5 363.8865,-86.5 537.8865,-86.5 537.8865,-56.5 363.8865,-56.5"/>
<text text-anchor="start" x="371.8865" y="-74.5" font-family="Fira Code" font-size="10.00" fill="#000000">travesim_adapters/udp</text>
<text text-anchor="middle" x="450.8865" y="-63.5" font-family="Fira Code" font-size="10.00" fill="#000000">/receiver.hpp</text>
</a>
</g>
</g>
<!-- Node9&#45;&gt;Node10 -->
<g id="edge13" class="edge">
<title>Node9&#45;&gt;Node10</title>
<path fill="none" stroke="#191970" d="M450.8865,-123.2967C450.8865,-115.5013 450.8865,-105.7991 450.8865,-96.9064"/>
<polygon fill="#191970" stroke="#191970" points="454.3866,-96.6431 450.8865,-86.6432 447.3866,-96.6432 454.3866,-96.6431"/>
</g>
<!-- Node11 -->
<g id="node12" class="node">
<title>Node11</title>
<g id="a_node12"><a xlink:title=" ">
<polygon fill="none" stroke="#bfbfbf" points="444.8865,-.5 444.8865,-19.5 566.8865,-19.5 566.8865,-.5 444.8865,-.5"/>
<text text-anchor="middle" x="505.8865" y="-7.5" font-family="Fira Code" font-size="10.00" fill="#000000">boost/asio.hpp</text>
</a>
</g>
</g>
<!-- Node10&#45;&gt;Node11 -->
<g id="edge14" class="edge">
<title>Node10&#45;&gt;Node11</title>
<path fill="none" stroke="#191970" d="M464.482,-56.2977C472.2757,-47.5831 482.0912,-36.6075 490.2091,-27.5302"/>
<polygon fill="#191970" stroke="#191970" points="493.023,-29.6341 497.0803,-19.8469 487.8052,-24.9678 493.023,-29.6341"/>
</g>
<!-- Node12 -->
<g id="node13" class="node">
<title>Node12</title>
<g id="a_node13"><a xlink:title=" ">
<polygon fill="none" stroke="#bfbfbf" points="364.8865,-.5 364.8865,-19.5 426.8865,-19.5 426.8865,-.5 364.8865,-.5"/>
<text text-anchor="middle" x="395.8865" y="-7.5" font-family="Fira Code" font-size="10.00" fill="#000000">string</text>
</a>
</g>
</g>
<!-- Node10&#45;&gt;Node12 -->
<g id="edge15" class="edge">
<title>Node10&#45;&gt;Node12</title>
<path fill="none" stroke="#191970" d="M437.291,-56.2977C429.4974,-47.5831 419.6818,-36.6075 411.564,-27.5302"/>
<polygon fill="#191970" stroke="#191970" points="413.9678,-24.9678 404.6927,-19.8469 408.75,-29.6341 413.9678,-24.9678"/>
</g>
<!-- Node14 -->
<g id="node15" class="node">
<title>Node14</title>
<g id="a_node15"><a xlink:title=" ">
<polygon fill="none" stroke="#bfbfbf" points="1360.3865,-.5 1360.3865,-19.5 1437.3865,-19.5 1437.3865,-.5 1360.3865,-.5"/>
<text text-anchor="middle" x="1398.8865" y="-7.5" font-family="Fira Code" font-size="10.00" fill="#000000">iostream</text>
</a>
</g>
</g>
<!-- Node13&#45;&gt;Node14 -->
<g id="edge17" class="edge">
<title>Node13&#45;&gt;Node14</title>
<path fill="none" stroke="#191970" d="M1398.8865,-56.2977C1398.8865,-48.3834 1398.8865,-38.6043 1398.8865,-30.0759"/>
<polygon fill="#191970" stroke="#191970" points="1402.3866,-29.8469 1398.8865,-19.8469 1395.3866,-29.847 1402.3866,-29.8469"/>
</g>
<!-- Node15&#45;&gt;Node13 -->
<g id="edge20" class="edge">
<title>Node15&#45;&gt;Node13</title>
<path fill="none" stroke="#191970" d="M1220.503,-123.4639C1255.0059,-113.4131 1300.5786,-100.1375 1337.0242,-89.5208"/>
<polygon fill="#191970" stroke="#191970" points="1338.4229,-92.7589 1347.0449,-86.6017 1336.4651,-86.0382 1338.4229,-92.7589"/>
</g>
<!-- Node15&#45;&gt;Node14 -->
<g id="edge19" class="edge">
<title>Node15&#45;&gt;Node14</title>
<path fill="none" stroke="#191970" d="M1190.8809,-123.2553C1216.3005,-105.9429 1259.6751,-77.3354 1298.8865,-56 1320.9574,-43.991 1346.7362,-32.1833 1366.5919,-23.538"/>
<polygon fill="#191970" stroke="#191970" points="1368.0226,-26.7327 1375.8212,-19.561 1365.2524,-20.3041 1368.0226,-26.7327"/>
</g>
<!-- Node17&#45;&gt;Node5 -->
<g id="edge27" class="edge">
<title>Node17&#45;&gt;Node5</title>
<path fill="none" stroke="#191970" d="M1769.6502,-191.5316C1774.46,-190.9771 1779.2264,-190.4618 1783.8865,-190 2066.9506,-161.9514 2139.7069,-180.8565 2422.8865,-154 2436.1843,-152.7389 2450.3022,-151.1032 2463.9422,-149.3687"/>
<polygon fill="#191970" stroke="#191970" points="2464.7928,-152.7876 2474.258,-148.0275 2463.8902,-145.846 2464.7928,-152.7876"/>
</g>
<!-- Node17&#45;&gt;Node13 -->
<g id="edge30" class="edge">
<title>Node17&#45;&gt;Node13</title>
<path fill="none" stroke="#191970" d="M1627.4212,-190.4385C1601.4398,-181.3827 1569.0925,-168.7582 1541.8865,-154 1521.1775,-142.7662 1518.9705,-135.3165 1498.8865,-123 1480.0882,-111.4719 1458.4168,-100.0936 1440.0646,-90.9759"/>
<polygon fill="#191970" stroke="#191970" points="1441.5953,-87.8284 1431.0768,-86.5584 1438.5075,-94.1106 1441.5953,-87.8284"/>
</g>
<!-- Node17&#45;&gt;Node14 -->
<g id="edge23" class="edge">
<title>Node17&#45;&gt;Node14</title>
<path fill="none" stroke="#191970" d="M1636.4344,-190.4567C1616.7798,-181.637 1593.2097,-169.227 1574.8865,-154 1532.4953,-118.772 1542.0499,-90.2775 1498.8865,-56 1480.9636,-41.7668 1457.9237,-30.7832 1438.4774,-23.1238"/>
<polygon fill="#191970" stroke="#191970" points="1439.5623,-19.7922 1428.9707,-19.5267 1437.085,-26.3392 1439.5623,-19.7922"/>
</g>
<!-- Node17&#45;&gt;Node15 -->
<g id="edge29" class="edge">
<title>Node17&#45;&gt;Node15</title>
<path fill="none" stroke="#191970" d="M1580.0376,-194.2196C1500.1053,-184.5391 1382.4371,-169.8825 1270.0495,-154.1425"/>
<polygon fill="#191970" stroke="#191970" points="1270.279,-150.6404 1259.8891,-152.7145 1269.3046,-157.5723 1270.279,-150.6404"/>
</g>
<!-- Node18 -->
<g id="node19" class="node">
<title>Node18</title>
<g id="a_node19"><a xlink:title=" ">
<polygon fill="none" stroke="#bfbfbf" points="1783.8865,-129 1783.8865,-148 1957.8865,-148 1957.8865,-129 1783.8865,-129"/>
<text text-anchor="middle" x="1870.8865" y="-136" font-family="Fira Code" font-size="10.00" fill="#000000">geometry_msgs/Point.h</text>
</a>
</g>
</g>
<!-- Node17&#45;&gt;Node18 -->
<g id="edge24" class="edge">
<title>Node17&#45;&gt;Node18</title>
<path fill="none" stroke="#191970" d="M1718.8728,-190.4639C1753.3427,-178.6808 1800.778,-162.4657 1833.4463,-151.2984"/>
<polygon fill="#191970" stroke="#191970" points="1834.7497,-154.5518 1843.08,-148.0053 1832.4855,-147.9281 1834.7497,-154.5518"/>
</g>
<!-- Node19 -->
<g id="node20" class="node">
<title>Node19</title>
<g id="a_node20"><a xlink:title=" ">
<polygon fill="none" stroke="#bfbfbf" points="1976.3865,-129 1976.3865,-148 2165.3865,-148 2165.3865,-129 1976.3865,-129"/>
<text text-anchor="middle" x="2070.8865" y="-136" font-family="Fira Code" font-size="10.00" fill="#000000">geometry_msgs/Vector3.h</text>
</a>
</g>
</g>
<!-- Node17&#45;&gt;Node19 -->
<g id="edge25" class="edge">
<title>Node17&#45;&gt;Node19</title>
<path fill="none" stroke="#191970" d="M1763.7567,-190.4639C1836.8522,-178.0967 1938.8042,-160.8473 2004.8305,-149.6761"/>
<polygon fill="#191970" stroke="#191970" points="2005.4301,-153.1245 2014.706,-148.0053 2004.2623,-146.2226 2005.4301,-153.1245"/>
</g>
<!-- Node20 -->
<g id="node21" class="node">
<title>Node20</title>
<g id="a_node21"><a xlink:title=" ">
<polygon fill="none" stroke="#bfbfbf" points="2183.3865,-129 2183.3865,-148 2380.3865,-148 2380.3865,-129 2183.3865,-129"/>
<text text-anchor="middle" x="2281.8865" y="-136" font-family="Fira Code" font-size="10.00" fill="#000000">gazebo_msgs/ModelState.h</text>
</a>
</g>
</g>
<!-- Node17&#45;&gt;Node20 -->
<g id="edge26" class="edge">
<title>Node17&#45;&gt;Node20</title>
<path fill="none" stroke="#191970" d="M1769.6721,-191.7345C1774.4761,-191.1267 1779.2354,-190.5445 1783.8865,-190 1957.2157,-169.7094 2001.5839,-174.5163 2174.8865,-154 2186.2039,-152.6602 2198.1715,-151.0841 2209.8445,-149.4591"/>
<polygon fill="#191970" stroke="#191970" points="2210.5913,-152.8884 2220.003,-148.0232 2209.6116,-145.9573 2210.5913,-152.8884"/>
</g>
<!-- Node21 -->
<g id="node22" class="node">
<title>Node21</title>
<g id="a_node22"><a xlink:href="../../d9/d46/data__common_8hpp.html" target="_top" xlink:title="Common constants and types for the data structures.">
<polygon fill="none" stroke="#000000" points="2020.8865,-56.5 2020.8865,-86.5 2202.8865,-86.5 2202.8865,-56.5 2020.8865,-56.5"/>
<text text-anchor="start" x="2028.8865" y="-74.5" font-family="Fira Code" font-size="10.00" fill="#000000">travesim_adapters/data</text>
<text text-anchor="middle" x="2111.8865" y="-63.5" font-family="Fira Code" font-size="10.00" fill="#000000">/data_common.hpp</text>
</a>
</g>
</g>
<!-- Node17&#45;&gt;Node21 -->
<g id="edge28" class="edge">
<title>Node17&#45;&gt;Node21</title>
<path fill="none" stroke="#191970" d="M1769.6519,-191.549C1774.4612,-190.99 1779.2271,-190.4689 1783.8865,-190 1850.9996,-183.2462 2343.6266,-203.0896 2389.8865,-154 2399.3356,-143.9729 2398.697,-133.5926 2389.8865,-123 2367.4113,-95.9787 2283.0866,-83.0731 2213.1431,-76.9461"/>
<polygon fill="#191970" stroke="#191970" points="2213.1945,-73.4383 2202.937,-76.0905 2212.6096,-80.4138 2213.1945,-73.4383"/>
</g>
<!-- Node22 -->
<g id="node23" class="node">
<title>Node22</title>
<g id="a_node23"><a xlink:href="../../de/d1e/field__state_8hpp.html" target="_top" xlink:title=" ">
<polygon fill="none" stroke="#000000" points="1583.8865,-123.5 1583.8865,-153.5 1765.8865,-153.5 1765.8865,-123.5 1583.8865,-123.5"/>
<text text-anchor="start" x="1591.8865" y="-141.5" font-family="Fira Code" font-size="10.00" fill="#000000">travesim_adapters/data</text>
<text text-anchor="middle" x="1674.8865" y="-130.5" font-family="Fira Code" font-size="10.00" fill="#000000">/field_state.hpp</text>
</a>
</g>
</g>
<!-- Node17&#45;&gt;Node22 -->
<g id="edge31" class="edge">
<title>Node17&#45;&gt;Node22</title>
<path fill="none" stroke="#191970" d="M1674.8865,-190.2967C1674.8865,-182.5013 1674.8865,-172.7991 1674.8865,-163.9064"/>
<polygon fill="#191970" stroke="#191970" points="1678.3866,-163.6431 1674.8865,-153.6432 1671.3866,-163.6432 1678.3866,-163.6431"/>
</g>
<!-- Node22&#45;&gt;Node13 -->
<g id="edge35" class="edge">
<title>Node22&#45;&gt;Node13</title>
<path fill="none" stroke="#191970" d="M1612.9467,-123.4639C1570.8356,-113.2412 1514.9825,-99.6827 1470.8882,-88.9787"/>
<polygon fill="#191970" stroke="#191970" points="1471.6399,-85.5596 1461.0965,-86.6017 1469.9886,-92.362 1471.6399,-85.5596"/>
</g>
<!-- Node22&#45;&gt;Node14 -->
<g id="edge33" class="edge">
<title>Node22&#45;&gt;Node14</title>
<path fill="none" stroke="#191970" d="M1659.9061,-123.45C1640.6818,-104.9615 1605.5385,-73.8585 1569.8865,-56 1530.984,-36.5133 1482.8312,-24.5134 1447.5463,-17.6782"/>
<polygon fill="#191970" stroke="#191970" points="1447.9669,-14.1964 1437.4946,-15.8028 1446.683,-21.0776 1447.9669,-14.1964"/>
</g>
<!-- Node22&#45;&gt;Node21 -->
<g id="edge34" class="edge">
<title>Node22&#45;&gt;Node21</title>
<path fill="none" stroke="#191970" d="M1765.9036,-124.3839C1768.9338,-123.9167 1771.9347,-123.4543 1774.8865,-123 1854.036,-110.8182 1943.659,-97.127 2010.5743,-86.9249"/>
<polygon fill="#191970" stroke="#191970" points="2011.3372,-90.3491 2020.6955,-85.382 2010.2822,-83.4291 2011.3372,-90.3491"/>
</g>
<!-- Node23 -->
<g id="node24" class="node">
<title>Node23</title>
<g id="a_node24"><a xlink:title=" ">
<polygon fill="none" stroke="#bfbfbf" points="1643.8865,-62 1643.8865,-81 1705.8865,-81 1705.8865,-62 1643.8865,-62"/>
<text text-anchor="middle" x="1674.8865" y="-69" font-family="Fira Code" font-size="10.00" fill="#000000">vector</text>
</a>
</g>
</g>
<!-- Node22&#45;&gt;Node23 -->
<g id="edge32" class="edge">
<title>Node22&#45;&gt;Node23</title>
<path fill="none" stroke="#191970" d="M1674.8865,-123.2967C1674.8865,-113.7699 1674.8865,-101.3954 1674.8865,-91.1306"/>
<polygon fill="#191970" stroke="#191970" points="1678.3866,-91.0549 1674.8865,-81.055 1671.3866,-91.055 1678.3866,-91.0549"/>
</g>
<!-- Node24&#45;&gt;Node14 -->
<g id="edge37" class="edge">
<title>Node24&#45;&gt;Node14</title>
<path fill="none" stroke="#191970" d="M975.7669,-190.4777C996.5235,-172.5848 1033.381,-142.6525 1068.8865,-123 1162.4966,-71.1864 1284.0799,-37.068 1350.4365,-20.8996"/>
<polygon fill="#191970" stroke="#191970" points="1351.3024,-24.2913 1360.2078,-18.5516 1349.6668,-17.485 1351.3024,-24.2913"/>
</g>
<!-- Node25 -->
<g id="node26" class="node">
<title>Node25</title>
<g id="a_node26"><a xlink:title=" ">
<polygon fill="none" stroke="#bfbfbf" points="1277.8865,-123.5 1277.8865,-153.5 1489.8865,-153.5 1489.8865,-123.5 1277.8865,-123.5"/>
<text text-anchor="start" x="1285.8865" y="-141.5" font-family="Fira Code" font-size="10.00" fill="#000000">travesim_adapters/Replacer</text>
<text text-anchor="middle" x="1383.8865" y="-130.5" font-family="Fira Code" font-size="10.00" fill="#000000">Config.h</text>
</a>
</g>
</g>
<!-- Node24&#45;&gt;Node25 -->
<g id="edge38" class="edge">
<title>Node24&#45;&gt;Node25</title>
<path fill="none" stroke="#191970" d="M1054.2648,-190.4639C1120.8613,-179.9651 1209.7767,-165.9479 1278.4755,-155.1177"/>
<polygon fill="#191970" stroke="#191970" points="1279.1267,-158.5584 1288.4596,-153.5438 1278.0366,-151.6438 1279.1267,-158.5584"/>
</g>
<!-- Node26 -->
<g id="node27" class="node">
<title>Node26</title>
<g id="a_node27"><a xlink:href="../../d1/d79/adapter__configurer_8hpp.html" target="_top" xlink:title="Template configurer for an adapter.">
<polygon fill="none" stroke="#000000" points="749.8865,-123.5 749.8865,-153.5 983.8865,-153.5 983.8865,-123.5 749.8865,-123.5"/>
<text text-anchor="start" x="757.8865" y="-141.5" font-family="Fira Code" font-size="10.00" fill="#000000">travesim_adapters/configurers</text>
<text text-anchor="middle" x="866.8865" y="-130.5" font-family="Fira Code" font-size="10.00" fill="#000000">/adapter_configurer.hpp</text>
</a>
</g>
</g>
<!-- Node24&#45;&gt;Node26 -->
<g id="edge39" class="edge">
<title>Node24&#45;&gt;Node26</title>
<path fill="none" stroke="#191970" d="M938.0103,-190.2967C925.5418,-181.2163 909.5208,-169.5488 895.8418,-159.587"/>
<polygon fill="#191970" stroke="#191970" points="897.8242,-156.7009 887.6801,-153.6432 893.7033,-162.3594 897.8242,-156.7009"/>
</g>
<!-- Node26&#45;&gt;Node2 -->
<g id="edge40" class="edge">
<title>Node26&#45;&gt;Node2</title>
<path fill="none" stroke="#191970" d="M811.1338,-123.485C776.1098,-113.7553 730.1078,-100.4313 689.8865,-87 687.6332,-86.2475 685.3197,-85.4481 682.9942,-84.6243"/>
<polygon fill="#191970" stroke="#191970" points="684.0846,-81.2965 673.4906,-81.1588 681.6865,-87.8729 684.0846,-81.2965"/>
</g>
<!-- Node26&#45;&gt;Node3 -->
<g id="edge41" class="edge">
<title>Node26&#45;&gt;Node3</title>
<path fill="none" stroke="#191970" d="M749.6933,-129.01C645.7438,-120.0454 489.896,-105.2663 354.8865,-87 342.2298,-85.2876 328.6342,-83.1392 315.9109,-80.9922"/>
<polygon fill="#191970" stroke="#191970" points="316.3767,-77.5211 305.9288,-79.2791 315.1926,-84.4202 316.3767,-77.5211"/>
</g>
<!-- Node27 -->
<g id="node28" class="node">
<title>Node27</title>
<g id="a_node28"><a xlink:title=" ">
<polygon fill="none" stroke="#bfbfbf" points="698.3865,-56.5 698.3865,-86.5 857.3865,-86.5 857.3865,-56.5 698.3865,-56.5"/>
<text text-anchor="start" x="706.3865" y="-74.5" font-family="Fira Code" font-size="10.00" fill="#000000">dynamic_reconfigure</text>
<text text-anchor="middle" x="777.8865" y="-63.5" font-family="Fira Code" font-size="10.00" fill="#000000">/server.h</text>
</a>
</g>
</g>
<!-- Node26&#45;&gt;Node27 -->
<g id="edge42" class="edge">
<title>Node26&#45;&gt;Node27</title>
<path fill="none" stroke="#191970" d="M846.6911,-123.2967C834.7429,-114.302 819.4226,-102.7687 806.2728,-92.8694"/>
<polygon fill="#191970" stroke="#191970" points="808.0964,-89.8613 798.0021,-86.6432 803.8863,-95.4538 808.0964,-89.8613"/>
</g>
<!-- Node28 -->
<g id="node29" class="node">
<title>Node28</title>
<g id="a_node29"><a xlink:title=" ">
<polygon fill="none" stroke="#bfbfbf" points="875.8865,-56.5 875.8865,-86.5 1057.8865,-86.5 1057.8865,-56.5 875.8865,-56.5"/>
<text text-anchor="start" x="883.8865" y="-74.5" font-family="Fira Code" font-size="10.00" fill="#000000">boost/thread/recursive</text>
<text text-anchor="middle" x="966.8865" y="-63.5" font-family="Fira Code" font-size="10.00" fill="#000000">_mutex.hpp</text>
</a>
</g>
</g>
<!-- Node26&#45;&gt;Node28 -->
<g id="edge43" class="edge">
<title>Node26&#45;&gt;Node28</title>
<path fill="none" stroke="#191970" d="M889.5781,-123.2967C903.2587,-114.1306 920.8739,-102.3285 935.8335,-92.3055"/>
<polygon fill="#191970" stroke="#191970" points="937.9252,-95.1171 944.2848,-86.6432 934.0289,-89.3017 937.9252,-95.1171"/>
</g>
</g>
</svg>
        <g id="navigator" transform="translate(0 0)" fill="#404254">
                <rect fill="#f2f5e9" fill-opacity="0.5" stroke="#606060" stroke-width=".5" x="0" y="0" width="60" height="60"/>
                <use id="zoomplus" xlink:href="#zoomPlus" x="17" y="9" onmousedown="handleZoom(evt,'in')"/>
                <use id="zoomminus" xlink:href="#zoomMin" x="42" y="9" onmousedown="handleZoom(evt,'out')"/>
                <use id="reset" xlink:href="#resetDef" x="30" y="36" onmousedown="handleReset()"/>
                <g id="arrowUp" xlink:href="#dirArrow" transform="translate(30 24)" onmousedown="handlePan(0,-1)">
                  <use xlink:href="#rim" fill="#404040">
                        <set attributeName="fill" to="#808080" begin="arrowUp.mouseover" end="arrowUp.mouseout"/>
                  </use>
                  <path fill="none" stroke="white" stroke-width="1.5" d="M0,-3.0v7 M-2.5,-0.5L0,-3.0L2.5,-0.5"/>
                </g>
                <g id="arrowRight" xlink:href="#dirArrow" transform="rotate(90) translate(36 -43)" onmousedown="handlePan(1,0)">
                  <use xlink:href="#rim" fill="#404040">
                        <set attributeName="fill" to="#808080" begin="arrowRight.mouseover" end="arrowRight.mouseout"/>
                  </use>
                  <path fill="none" stroke="white" stroke-width="1.5" d="M0,-3.0v7 M-2.5,-0.5L0,-3.0L2.5,-0.5"/>
                </g>
                <g id="arrowDown" xlink:href="#dirArrow" transform="rotate(180) translate(-30 -48)" onmousedown="handlePan(0,1)">
                  <use xlink:href="#rim" fill="#404040">
                        <set attributeName="fill" to="#808080" begin="arrowDown.mouseover" end="arrowDown.mouseout"/>
                  </use>
                  <path fill="none" stroke="white" stroke-width="1.5" d="M0,-3.0v7 M-2.5,-0.5L0,-3.0L2.5,-0.5"/>
                </g>
                <g id="arrowLeft" xlink:href="#dirArrow" transform="rotate(270) translate(-36 17)" onmousedown="handlePan(-1,0)">
                  <use xlink:href="#rim" fill="#404040">
                        <set attributeName="fill" to="#808080" begin="arrowLeft.mouseover" end="arrowLeft.mouseout"/>
                  </use>
                  <path fill="none" stroke="white" stroke-width="1.5" d="M0,-3.0v7 M-2.5,-0.5L0,-3.0L2.5,-0.5"/>
                </g>
        </g>
        <svg viewBox="0 0 15 15" width="100%" height="30px" preserveAspectRatio="xMaxYMin meet">
         <g id="arrow_out" transform="scale(0.3 0.3)">
          <a xlink:href="replacer__adapter_8cpp__incl_org.svg" target="_base">
           <rect id="button" ry="5" rx="5" y="6" x="6" height="38" width="38"
                fill="#f2f5e9" fill-opacity="0.5" stroke="#606060" stroke-width="1.0"/>
           <path id="arrow"
             d="M 11.500037,31.436501 C 11.940474,20.09759 22.043105,11.32322 32.158766,21.979434 L 37.068811,17.246167 C 37.068811,17.246167 37.088388,32 37.088388,32 L 22.160133,31.978069 C 22.160133,31.978069 26.997745,27.140456 26.997745,27.140456 C 18.528582,18.264221 13.291696,25.230495 11.500037,31.436501 z"
             style="fill:#404040;"/>
          </a>
         </g>
        </svg>
</svg>
