<?xml version="1.0" encoding="UTF-8" standalone="no"?>
<!DOCTYPE svg PUBLIC "-//W3C//DTD SVG 1.1//EN"
 "http://www.w3.org/Graphics/SVG/1.1/DTD/svg11.dtd">
<!-- Generated by graphviz version 2.40.1 (0)
 -->
<!-- Title: include/travesim_adapters/data/data_common.hpp Pages: 1 -->
<!--zoomable 240 -->
<svg id="main" version="1.1" xmlns="http://www.w3.org/2000/svg" xmlns:xlink="http://www.w3.org/1999/xlink" xml:space="preserve" onload="init(evt)">
<style type="text/css"><![CDATA[
.edge:hover path { stroke: red; }
.edge:hover polygon { stroke: red; fill: red; }
]]></style>
<script type="text/javascript"><![CDATA[
var edges = document.getElementsByTagName('g');
if (edges && edges.length) {
  for (var i=0;i<edges.length;i++) {
    if (edges[i].id.substr(0,4)=='edge') {
      edges[i].setAttribute('class','edge');
    }
  }
}
]]></script>
        <defs>
                <circle id="rim" cx="0" cy="0" r="7"/>
                <circle id="rim2" cx="0" cy="0" r="3.5"/>
                <g id="zoomPlus">
                        <use xlink:href="#rim" fill="#404040">
                                <set attributeName="fill" to="#808080" begin="zoomplus.mouseover" end="zoomplus.mouseout"/>
                        </use>
                        <path d="M-4,0h8M0,-4v8" fill="none" stroke="white" stroke-width="1.5" pointer-events="none"/>
                </g>
                <g id="zoomMin">
                        <use xlink:href="#rim" fill="#404040">
                                <set attributeName="fill" to="#808080" begin="zoomminus.mouseover" end="zoomminus.mouseout"/>
                        </use>
                        <path d="M-4,0h8" fill="none" stroke="white" stroke-width="1.5" pointer-events="none"/>
                </g>
                <g id="dirArrow">
                        <path fill="none" stroke="white" stroke-width="1.5" d="M0,-3.0v7 M-2.5,-0.5L0,-3.0L2.5,-0.5"/>
                </g>
               <g id="resetDef">
                       <use xlink:href="#rim2" fill="#404040">
                               <set attributeName="fill" to="#808080" begin="reset.mouseover" end="reset.mouseout"/>
                       </use>
               </g>
        </defs>

<script type="text/javascript">
var viewWidth = 2348;
var viewHeight = 240;
var sectionId = 'dynsection-0';
</script>
<script xlink:href="../../svgpan.js"/>
<svg id="graph" class="graph">
<g id="viewport">
<title>include/travesim_adapters/data/data_common.hpp</title>
<!-- Node1 -->
<g id="node1" class="node">
<title>Node1</title>
<g id="a_node1"><a xlink:title="Common constants and types for the data structures.">
<polygon fill="#bfbfbf" stroke="#000000" points="1715.5,-201.5 1715.5,-231.5 1919.5,-231.5 1919.5,-201.5 1715.5,-201.5"/>
<text text-anchor="start" x="1723.5" y="-219.5" font-family="Fira Code" font-size="10.00" fill="#000000">include/travesim_adapters</text>
<text text-anchor="middle" x="1817.5" y="-208.5" font-family="Fira Code" font-size="10.00" fill="#000000">/data/data_common.hpp</text>
</a>
</g>
</g>
<!-- Node2 -->
<g id="node2" class="node">
<title>Node2</title>
<g id="a_node2"><a xlink:href="../../d2/d46/ros__side_8hpp.html" target="_top" xlink:title="Collection of data converters between ROS and local formats.">
<polygon fill="none" stroke="#000000" points="607,-67.5 607,-97.5 834,-97.5 834,-67.5 607,-67.5"/>
<text text-anchor="start" x="615" y="-85.5" font-family="Fira Code" font-size="10.00" fill="#000000">include/travesim_adapters</text>
<text text-anchor="middle" x="720.5" y="-74.5" font-family="Fira Code" font-size="10.00" fill="#000000">/data/converter/ros_side.hpp</text>
</a>
</g>
</g>
<!-- Node1&#45;&gt;Node2 -->
<g id="edge1" class="edge">
<title>Node1&#45;&gt;Node2</title>
<path fill="none" stroke="#191970" d="M1704.8765,-214.6685C1498.4689,-210.5428 1067.3676,-198.1473 921.5,-165 857.1295,-150.3723 786.8382,-117.1911 748.8013,-97.6581"/>
<polygon fill="#191970" stroke="#191970" points="1705.0686,-218.1729 1715.1356,-214.8705 1705.2064,-211.1742 1705.0686,-218.1729"/>
</g>
<!-- Node8 -->
<g id="node8" class="node">
<title>Node8</title>
<g id="a_node8"><a xlink:href="../../de/d1e/field__state_8hpp.html" target="_top" xlink:title=" ">
<polygon fill="none" stroke="#000000" points="930.5,-134.5 930.5,-164.5 1134.5,-164.5 1134.5,-134.5 930.5,-134.5"/>
<text text-anchor="start" x="938.5" y="-152.5" font-family="Fira Code" font-size="10.00" fill="#000000">include/travesim_adapters</text>
<text text-anchor="middle" x="1032.5" y="-141.5" font-family="Fira Code" font-size="10.00" fill="#000000">/data/field_state.hpp</text>
</a>
</g>
</g>
<!-- Node1&#45;&gt;Node8 -->
<g id="edge7" class="edge">
<title>Node1&#45;&gt;Node8</title>
<path fill="none" stroke="#191970" d="M1704.9428,-206.8932C1552.2632,-193.862 1281.7385,-170.7726 1134.6449,-158.2181"/>
<polygon fill="#191970" stroke="#191970" points="1705.0162,-210.4121 1715.2777,-207.7753 1705.6116,-203.4375 1705.0162,-210.4121"/>
</g>
<!-- Node13 -->
<g id="node13" class="node">
<title>Node13</title>
<g id="a_node13"><a xlink:href="../../d7/d05/team__command_8hpp.html" target="_top" xlink:title="Team command data structure.">
<polygon fill="none" stroke="#000000" points="1650.5,-134.5 1650.5,-164.5 1854.5,-164.5 1854.5,-134.5 1650.5,-134.5"/>
<text text-anchor="start" x="1658.5" y="-152.5" font-family="Fira Code" font-size="10.00" fill="#000000">include/travesim_adapters</text>
<text text-anchor="middle" x="1752.5" y="-141.5" font-family="Fira Code" font-size="10.00" fill="#000000">/data/team_command.hpp</text>
</a>
</g>
</g>
<!-- Node1&#45;&gt;Node13 -->
<g id="edge15" class="edge">
<title>Node1&#45;&gt;Node13</title>
<path fill="none" stroke="#191970" d="M1795.5992,-193.9253C1786.2445,-184.2828 1775.5743,-173.2843 1767.1911,-164.6432"/>
<polygon fill="#191970" stroke="#191970" points="1793.2752,-196.5564 1802.7505,-201.2967 1798.2994,-191.6821 1793.2752,-196.5564"/>
</g>
<!-- Node18 -->
<g id="node18" class="node">
<title>Node18</title>
<g id="a_node18"><a xlink:href="../../d3/d35/teams__sender_8hpp.html" target="_top" xlink:title="ROS teams commands sender class definition.">
<polygon fill="none" stroke="#000000" points="1918.5,-67.5 1918.5,-97.5 2122.5,-97.5 2122.5,-67.5 1918.5,-67.5"/>
<text text-anchor="start" x="1926.5" y="-85.5" font-family="Fira Code" font-size="10.00" fill="#000000">include/travesim_adapters</text>
<text text-anchor="middle" x="2020.5" y="-74.5" font-family="Fira Code" font-size="10.00" fill="#000000">/ros/teams_sender.hpp</text>
</a>
</g>
</g>
<!-- Node1&#45;&gt;Node18 -->
<g id="edge25" class="edge">
<title>Node1&#45;&gt;Node18</title>
<path fill="none" stroke="#191970" d="M1838.2948,-194.0036C1858.1849,-172.8319 1887.078,-143.0625 1900.5,-134 1923.2347,-118.6496 1951.2865,-106.3048 1974.55,-97.5537"/>
<polygon fill="#191970" stroke="#191970" points="1835.6903,-191.6645 1831.4196,-201.3604 1840.8047,-196.444 1835.6903,-191.6645"/>
</g>
<!-- Node21 -->
<g id="node21" class="node">
<title>Node21</title>
<g id="a_node21"><a xlink:href="../../d7/d71/entity__state_8cpp.html" target="_top" xlink:title="Entity state data structure.">
<polygon fill="none" stroke="#000000" points="1910,-134.5 1910,-164.5 2069,-164.5 2069,-134.5 1910,-134.5"/>
<text text-anchor="start" x="1918" y="-152.5" font-family="Fira Code" font-size="10.00" fill="#000000">src/lib/data/entity</text>
<text text-anchor="middle" x="1989.5" y="-141.5" font-family="Fira Code" font-size="10.00" fill="#000000">_state.cpp</text>
</a>
</g>
</g>
<!-- Node1&#45;&gt;Node21 -->
<g id="edge26" class="edge">
<title>Node1&#45;&gt;Node21</title>
<path fill="none" stroke="#191970" d="M1865.6922,-197.7275C1892.5523,-187.2645 1925.5559,-174.4084 1950.7315,-164.6017"/>
<polygon fill="#191970" stroke="#191970" points="1864.1478,-194.5728 1856.1002,-201.4639 1866.6886,-201.0954 1864.1478,-194.5728"/>
</g>
<!-- Node22 -->
<g id="node22" class="node">
<title>Node22</title>
<g id="a_node22"><a xlink:href="../../da/dc2/robot__state_8cpp.html" target="_top" xlink:title="Robot state data structure.">
<polygon fill="none" stroke="#000000" points="2087.5,-134.5 2087.5,-164.5 2239.5,-164.5 2239.5,-134.5 2087.5,-134.5"/>
<text text-anchor="start" x="2095.5" y="-152.5" font-family="Fira Code" font-size="10.00" fill="#000000">src/lib/data/robot</text>
<text text-anchor="middle" x="2163.5" y="-141.5" font-family="Fira Code" font-size="10.00" fill="#000000">_state.cpp</text>
</a>
</g>
</g>
<!-- Node1&#45;&gt;Node22 -->
<g id="edge27" class="edge">
<title>Node1&#45;&gt;Node22</title>
<path fill="none" stroke="#191970" d="M1905.088,-199.5393C1961.2706,-188.66 2033.4967,-174.674 2087.3012,-164.2553"/>
<polygon fill="#191970" stroke="#191970" points="1904.3014,-196.1265 1895.1492,-201.4639 1905.6322,-202.9989 1904.3014,-196.1265"/>
</g>
<!-- Node3 -->
<g id="node3" class="node">
<title>Node3</title>
<g id="a_node3"><a xlink:href="../../da/d85/replacer__adapter_8cpp.html" target="_top" xlink:title="Replacer adapter execution file.">
<polygon fill="none" stroke="#000000" points="400,-6 400,-25 627,-25 627,-6 400,-6"/>
<text text-anchor="middle" x="513.5" y="-13" font-family="Fira Code" font-size="10.00" fill="#000000">src/bin/replacer_adapter.cpp</text>
</a>
</g>
</g>
<!-- Node2&#45;&gt;Node3 -->
<g id="edge2" class="edge">
<title>Node2&#45;&gt;Node3</title>
<path fill="none" stroke="#191970" d="M664.3437,-64.3238C625.1314,-51.6319 574.3626,-35.1995 542.8671,-25.0053"/>
<polygon fill="#191970" stroke="#191970" points="663.4533,-67.7143 674.0452,-67.4639 665.6089,-61.0545 663.4533,-67.7143"/>
</g>
<!-- Node4 -->
<g id="node4" class="node">
<title>Node4</title>
<g id="a_node4"><a xlink:href="../../df/ddf/vision__adapter_8cpp.html" target="_top" xlink:title="Vision adapter executable file.">
<polygon fill="none" stroke="#000000" points="845.5,-6 845.5,-25 1057.5,-25 1057.5,-6 845.5,-6"/>
<text text-anchor="middle" x="951.5" y="-13" font-family="Fira Code" font-size="10.00" fill="#000000">src/bin/vision_adapter.cpp</text>
</a>
</g>
</g>
<!-- Node2&#45;&gt;Node4 -->
<g id="edge3" class="edge">
<title>Node2&#45;&gt;Node4</title>
<path fill="none" stroke="#191970" d="M782.0575,-64.6457C825.964,-51.9109 883.283,-35.2859 918.728,-25.0053"/>
<polygon fill="#191970" stroke="#191970" points="780.9701,-61.3167 772.3409,-67.4639 782.9201,-68.0397 780.9701,-61.3167"/>
</g>
<!-- Node5 -->
<g id="node5" class="node">
<title>Node5</title>
<g id="a_node5"><a xlink:href="../../de/d8d/ros__side_8cpp.html" target="_top" xlink:title="Collection of data converters between ROS and local formats.">
<polygon fill="none" stroke="#000000" points="645.5,-.5 645.5,-30.5 827.5,-30.5 827.5,-.5 645.5,-.5"/>
<text text-anchor="start" x="653.5" y="-18.5" font-family="Fira Code" font-size="10.00" fill="#000000">src/lib/data/converter</text>
<text text-anchor="middle" x="736.5" y="-7.5" font-family="Fira Code" font-size="10.00" fill="#000000">/ros_side.cpp</text>
</a>
</g>
</g>
<!-- Node2&#45;&gt;Node5 -->
<g id="edge4" class="edge">
<title>Node2&#45;&gt;Node5</title>
<path fill="none" stroke="#191970" d="M726.5136,-57.3179C728.6573,-48.3414 731.0041,-38.5143 732.8837,-30.6432"/>
<polygon fill="#191970" stroke="#191970" points="723.0492,-56.7572 724.1306,-67.2967 729.8577,-58.3831 723.0492,-56.7572"/>
</g>
<!-- Node6 -->
<g id="node6" class="node">
<title>Node6</title>
<g id="a_node6"><a xlink:href="../../d3/d2c/ros__side_8test_8cpp.html" target="_top" xlink:title=" ">
<polygon fill="none" stroke="#000000" points="0,-.5 0,-30.5 189,-30.5 189,-.5 0,-.5"/>
<text text-anchor="start" x="8" y="-18.5" font-family="Fira Code" font-size="10.00" fill="#000000">src/lib/data/converter</text>
<text text-anchor="middle" x="94.5" y="-7.5" font-family="Fira Code" font-size="10.00" fill="#000000">/test/ros_side.test.cpp</text>
</a>
</g>
</g>
<!-- Node2&#45;&gt;Node6 -->
<g id="edge5" class="edge">
<title>Node2&#45;&gt;Node6</title>
<path fill="none" stroke="#191970" d="M596.695,-72.028C490.8061,-62.6547 334.4231,-47.8234 198.5,-31 195.4202,-30.6188 192.2907,-30.2199 189.1319,-29.8073"/>
<polygon fill="#191970" stroke="#191970" points="596.5134,-75.5255 606.7823,-72.9179 597.1287,-68.5526 596.5134,-75.5255"/>
</g>
<!-- Node7 -->
<g id="node7" class="node">
<title>Node7</title>
<g id="a_node7"><a xlink:href="../../da/db5/gazebo__services_8mock_8cpp.html" target="_top" xlink:title=" ">
<polygon fill="none" stroke="#000000" points="207.5,-.5 207.5,-30.5 381.5,-30.5 381.5,-.5 207.5,-.5"/>
<text text-anchor="start" x="215.5" y="-18.5" font-family="Fira Code" font-size="10.00" fill="#000000">test/mocks/bin/gazebo</text>
<text text-anchor="middle" x="294.5" y="-7.5" font-family="Fira Code" font-size="10.00" fill="#000000">_services.mock.cpp</text>
</a>
</g>
</g>
<!-- Node2&#45;&gt;Node7 -->
<g id="edge6" class="edge">
<title>Node2&#45;&gt;Node7</title>
<path fill="none" stroke="#191970" d="M613.1821,-65.8981C548.6324,-55.876 464.837,-42.8016 390.5,-31 387.5821,-30.5368 384.6145,-30.0644 381.6177,-29.5864"/>
<polygon fill="#191970" stroke="#191970" points="612.9537,-69.4045 623.3723,-67.4797 614.0274,-62.4873 612.9537,-69.4045"/>
</g>
<!-- Node8&#45;&gt;Node2 -->
<g id="edge8" class="edge">
<title>Node8&#45;&gt;Node2</title>
<path fill="none" stroke="#191970" d="M952.6609,-132.3551C902.5912,-121.6029 838.6506,-107.8721 790.5546,-97.5438"/>
<polygon fill="#191970" stroke="#191970" points="951.9691,-135.7862 962.4811,-134.4639 953.4389,-128.9423 951.9691,-135.7862"/>
</g>
<!-- Node8&#45;&gt;Node4 -->
<g id="edge13" class="edge">
<title>Node8&#45;&gt;Node4</title>
<path fill="none" stroke="#191970" d="M1030.882,-124.0121C1028.8137,-106.8333 1024.1218,-84.2471 1013.5,-67 1002.3466,-48.8897 982.5804,-34.1296 968.3612,-25.126"/>
<polygon fill="#191970" stroke="#191970" points="1027.442,-124.7976 1031.8983,-134.4097 1034.4089,-124.1166 1027.442,-124.7976"/>
</g>
<!-- Node9 -->
<g id="node9" class="node">
<title>Node9</title>
<g id="a_node9"><a xlink:href="../../db/da8/vision__sender_8hpp.html" target="_top" xlink:title="Vision data sender with UDP and protobuf.">
<polygon fill="none" stroke="#000000" points="1061,-67.5 1061,-97.5 1280,-97.5 1280,-67.5 1061,-67.5"/>
<text text-anchor="start" x="1069" y="-85.5" font-family="Fira Code" font-size="10.00" fill="#000000">include/travesim_adapters</text>
<text text-anchor="middle" x="1170.5" y="-74.5" font-family="Fira Code" font-size="10.00" fill="#000000">/protobuf/vision_sender.hpp</text>
</a>
</g>
</g>
<!-- Node8&#45;&gt;Node9 -->
<g id="edge9" class="edge">
<title>Node8&#45;&gt;Node9</title>
<path fill="none" stroke="#191970" d="M1072.5575,-130.0518C1093.7623,-119.7567 1119.4212,-107.2991 1139.156,-97.7177"/>
<polygon fill="#191970" stroke="#191970" points="1070.9371,-126.9478 1063.4699,-134.4639 1073.9944,-133.2448 1070.9371,-126.9478"/>
</g>
<!-- Node12 -->
<g id="node12" class="node">
<title>Node12</title>
<g id="a_node12"><a xlink:href="../../d2/dbb/field__state_8cpp.html" target="_top" xlink:title=" ">
<polygon fill="none" stroke="#000000" points="852.5,-67.5 852.5,-97.5 1004.5,-97.5 1004.5,-67.5 852.5,-67.5"/>
<text text-anchor="start" x="860.5" y="-85.5" font-family="Fira Code" font-size="10.00" fill="#000000">src/lib/data/field</text>
<text text-anchor="middle" x="928.5" y="-74.5" font-family="Fira Code" font-size="10.00" fill="#000000">_state.cpp</text>
</a>
</g>
</g>
<!-- Node8&#45;&gt;Node12 -->
<g id="edge14" class="edge">
<title>Node8&#45;&gt;Node12</title>
<path fill="none" stroke="#191970" d="M1000.361,-128.7951C984.7777,-118.7558 966.3939,-106.9124 952.1216,-97.7177"/>
<polygon fill="#191970" stroke="#191970" points="998.8583,-131.9904 1009.1604,-134.4639 1002.6494,-126.1058 998.8583,-131.9904"/>
</g>
<!-- Node9&#45;&gt;Node4 -->
<g id="edge11" class="edge">
<title>Node9&#45;&gt;Node4</title>
<path fill="none" stroke="#191970" d="M1111.6149,-64.4849C1070.0583,-51.7713 1016.032,-35.2427 982.5695,-25.0053"/>
<polygon fill="#191970" stroke="#191970" points="1110.7657,-67.8852 1121.3521,-67.4639 1112.8136,-61.1914 1110.7657,-67.8852"/>
</g>
<!-- Node10 -->
<g id="node10" class="node">
<title>Node10</title>
<g id="a_node10"><a xlink:href="../../de/d50/vision__sender__example_8cpp.html" target="_top" xlink:title="Example on how to use the VisionSender with protobuf.">
<polygon fill="none" stroke="#000000" points="1283,-.5 1283,-30.5 1480,-30.5 1480,-.5 1283,-.5"/>
<text text-anchor="start" x="1291" y="-18.5" font-family="Fira Code" font-size="10.00" fill="#000000">examples/protobuf/vision</text>
<text text-anchor="middle" x="1381.5" y="-7.5" font-family="Fira Code" font-size="10.00" fill="#000000">_sender_example.cpp</text>
</a>
</g>
</g>
<!-- Node9&#45;&gt;Node10 -->
<g id="edge10" class="edge">
<title>Node9&#45;&gt;Node10</title>
<path fill="none" stroke="#191970" d="M1227.4627,-64.4123C1260.7897,-53.8298 1302.3797,-40.6235 1333.941,-30.6017"/>
<polygon fill="#191970" stroke="#191970" points="1226.3243,-61.1015 1217.8525,-67.4639 1228.4428,-67.7732 1226.3243,-61.1015"/>
</g>
<!-- Node11 -->
<g id="node11" class="node">
<title>Node11</title>
<g id="a_node11"><a xlink:href="../../d0/d19/vision__sender_8cpp.html" target="_top" xlink:title="Vision data sender with UDP and protobuf.">
<polygon fill="none" stroke="#000000" points="1076,-.5 1076,-30.5 1265,-30.5 1265,-.5 1076,-.5"/>
<text text-anchor="start" x="1084" y="-18.5" font-family="Fira Code" font-size="10.00" fill="#000000">src/lib/protobuf/vision</text>
<text text-anchor="middle" x="1170.5" y="-7.5" font-family="Fira Code" font-size="10.00" fill="#000000">_sender.cpp</text>
</a>
</g>
</g>
<!-- Node9&#45;&gt;Node11 -->
<g id="edge12" class="edge">
<title>Node9&#45;&gt;Node11</title>
<path fill="none" stroke="#191970" d="M1170.5,-57.0249C1170.5,-48.128 1170.5,-38.4287 1170.5,-30.6432"/>
<polygon fill="#191970" stroke="#191970" points="1167.0001,-57.2966 1170.5,-67.2967 1174.0001,-57.2967 1167.0001,-57.2966"/>
</g>
<!-- Node14 -->
<g id="node14" class="node">
<title>Node14</title>
<g id="a_node14"><a xlink:href="../../de/db1/team__receiver_8hpp.html" target="_top" xlink:title="Team control data receiver with UDP and protobuf.">
<polygon fill="none" stroke="#000000" points="1643,-67.5 1643,-97.5 1862,-97.5 1862,-67.5 1643,-67.5"/>
<text text-anchor="start" x="1651" y="-85.5" font-family="Fira Code" font-size="10.00" fill="#000000">include/travesim_adapters</text>
<text text-anchor="middle" x="1752.5" y="-74.5" font-family="Fira Code" font-size="10.00" fill="#000000">/protobuf/team_receiver.hpp</text>
</a>
</g>
</g>
<!-- Node13&#45;&gt;Node14 -->
<g id="edge16" class="edge">
<title>Node13&#45;&gt;Node14</title>
<path fill="none" stroke="#191970" d="M1752.5,-124.0249C1752.5,-115.128 1752.5,-105.4287 1752.5,-97.6432"/>
<polygon fill="#191970" stroke="#191970" points="1749.0001,-124.2966 1752.5,-134.2967 1756.0001,-124.2967 1749.0001,-124.2966"/>
</g>
<!-- Node16 -->
<g id="node16" class="node">
<title>Node16</title>
<g id="a_node16"><a xlink:href="../../dd/dcd/teams__adapter_8cpp.html" target="_top" xlink:title="Teams commands adapter execution file.">
<polygon fill="none" stroke="#000000" points="1890.5,-6 1890.5,-25 2094.5,-25 2094.5,-6 1890.5,-6"/>
<text text-anchor="middle" x="1992.5" y="-13" font-family="Fira Code" font-size="10.00" fill="#000000">src/bin/teams_adapter.cpp</text>
</a>
</g>
</g>
<!-- Node13&#45;&gt;Node16 -->
<g id="edge23" class="edge">
<title>Node13&#45;&gt;Node16</title>
<path fill="none" stroke="#191970" d="M1803.4802,-130.6494C1824.8169,-121.9033 1849.4885,-110.6396 1870.5,-98 1889.4736,-86.5863 1891.3955,-79.7475 1909.5,-67 1931.8241,-51.2815 1958.8971,-34.9645 1975.9161,-25.0188"/>
<polygon fill="#191970" stroke="#191970" points="1801.909,-127.5087 1793.9366,-134.4866 1804.5204,-134.0034 1801.909,-127.5087"/>
</g>
<!-- Node13&#45;&gt;Node18 -->
<g id="edge20" class="edge">
<title>Node13&#45;&gt;Node18</title>
<path fill="none" stroke="#191970" d="M1822.4101,-132.0225C1865.1355,-121.3411 1919.2318,-107.8171 1960.0932,-97.6017"/>
<polygon fill="#191970" stroke="#191970" points="1821.497,-128.643 1812.6444,-134.4639 1823.1948,-135.434 1821.497,-128.643"/>
</g>
<!-- Node20 -->
<g id="node20" class="node">
<title>Node20</title>
<g id="a_node20"><a xlink:href="../../dd/dc9/team__command_8cpp.html" target="_top" xlink:title="Team command data structure.">
<polygon fill="none" stroke="#000000" points="1390.5,-73 1390.5,-92 1624.5,-92 1624.5,-73 1390.5,-73"/>
<text text-anchor="middle" x="1507.5" y="-80" font-family="Fira Code" font-size="10.00" fill="#000000">src/lib/data/team_command.cpp</text>
</a>
</g>
</g>
<!-- Node13&#45;&gt;Node20 -->
<g id="edge24" class="edge">
<title>Node13&#45;&gt;Node20</title>
<path fill="none" stroke="#191970" d="M1687.798,-131.806C1641.1555,-119.0507 1580.0093,-102.3291 1542.2581,-92.0053"/>
<polygon fill="#191970" stroke="#191970" points="1686.9481,-135.202 1697.5172,-134.4639 1688.7947,-128.4499 1686.9481,-135.202"/>
</g>
<!-- Node15 -->
<g id="node15" class="node">
<title>Node15</title>
<g id="a_node15"><a xlink:href="../../da/d15/team__receiver__example_8cpp.html" target="_top" xlink:title="Example to read data published from a team.">
<polygon fill="none" stroke="#000000" points="1690.5,-.5 1690.5,-30.5 1872.5,-30.5 1872.5,-.5 1690.5,-.5"/>
<text text-anchor="start" x="1698.5" y="-18.5" font-family="Fira Code" font-size="10.00" fill="#000000">examples/protobuf/team</text>
<text text-anchor="middle" x="1781.5" y="-7.5" font-family="Fira Code" font-size="10.00" fill="#000000">_receiver_example.cpp</text>
</a>
</g>
</g>
<!-- Node14&#45;&gt;Node15 -->
<g id="edge17" class="edge">
<title>Node14&#45;&gt;Node15</title>
<path fill="none" stroke="#191970" d="M1763.1468,-57.9021C1767.0997,-48.7696 1771.4645,-38.6854 1774.9455,-30.6432"/>
<polygon fill="#191970" stroke="#191970" points="1759.8408,-56.7291 1759.0805,-67.2967 1766.2649,-59.5097 1759.8408,-56.7291"/>
</g>
<!-- Node14&#45;&gt;Node16 -->
<g id="edge18" class="edge">
<title>Node14&#45;&gt;Node16</title>
<path fill="none" stroke="#191970" d="M1816.1685,-64.7259C1861.8227,-51.9807 1921.5479,-35.3075 1958.4512,-25.0053"/>
<polygon fill="#191970" stroke="#191970" points="1815.0513,-61.4039 1806.3607,-67.4639 1816.9335,-68.1461 1815.0513,-61.4039"/>
</g>
<!-- Node17 -->
<g id="node17" class="node">
<title>Node17</title>
<g id="a_node17"><a xlink:href="../../d6/d4c/team__receiver_8cpp.html" target="_top" xlink:title="Team control data receiver with UDP and protobuf.">
<polygon fill="none" stroke="#000000" points="1498.5,-.5 1498.5,-30.5 1672.5,-30.5 1672.5,-.5 1498.5,-.5"/>
<text text-anchor="start" x="1506.5" y="-18.5" font-family="Fira Code" font-size="10.00" fill="#000000">src/lib/protobuf/team</text>
<text text-anchor="middle" x="1585.5" y="-7.5" font-family="Fira Code" font-size="10.00" fill="#000000">_receiver.cpp</text>
</a>
</g>
</g>
<!-- Node14&#45;&gt;Node17 -->
<g id="edge19" class="edge">
<title>Node14&#45;&gt;Node17</title>
<path fill="none" stroke="#191970" d="M1705.7088,-63.7275C1679.6294,-53.2645 1647.5852,-40.4084 1623.1415,-30.6017"/>
<polygon fill="#191970" stroke="#191970" points="1704.4378,-66.9887 1715.0219,-67.4639 1707.0442,-60.492 1704.4378,-66.9887"/>
</g>
<!-- Node18&#45;&gt;Node16 -->
<g id="edge21" class="edge">
<title>Node18&#45;&gt;Node16</title>
<path fill="none" stroke="#191970" d="M2010.1825,-57.8118C2005.4237,-46.4246 2000.0538,-33.5752 1996.4931,-25.055"/>
<polygon fill="#191970" stroke="#191970" points="2007.061,-59.4196 2014.1464,-67.2967 2013.5197,-56.7204 2007.061,-59.4196"/>
</g>
<!-- Node19 -->
<g id="node19" class="node">
<title>Node19</title>
<g id="a_node19"><a xlink:href="../../d1/d4e/teams__sender_8cpp.html" target="_top" xlink:title="ROS teams commands sender class definition.">
<polygon fill="none" stroke="#000000" points="2113,-6 2113,-25 2340,-25 2340,-6 2113,-6"/>
<text text-anchor="middle" x="2226.5" y="-13" font-family="Fira Code" font-size="10.00" fill="#000000">src/lib/ros/teams_sender.cpp</text>
</a>
</g>
</g>
<!-- Node18&#45;&gt;Node19 -->
<g id="edge22" class="edge">
<title>Node18&#45;&gt;Node19</title>
<path fill="none" stroke="#191970" d="M2076.385,-64.3238C2115.4079,-51.6319 2165.9314,-35.1995 2197.2748,-25.0053"/>
<polygon fill="#191970" stroke="#191970" points="2075.1575,-61.0425 2066.7304,-67.4639 2077.3226,-67.6993 2075.1575,-61.0425"/>
</g>
</g>
</svg>
        <g id="navigator" transform="translate(0 0)" fill="#404254">
                <rect fill="#f2f5e9" fill-opacity="0.5" stroke="#606060" stroke-width=".5" x="0" y="0" width="60" height="60"/>
                <use id="zoomplus" xlink:href="#zoomPlus" x="17" y="9" onmousedown="handleZoom(evt,'in')"/>
                <use id="zoomminus" xlink:href="#zoomMin" x="42" y="9" onmousedown="handleZoom(evt,'out')"/>
                <use id="reset" xlink:href="#resetDef" x="30" y="36" onmousedown="handleReset()"/>
                <g id="arrowUp" xlink:href="#dirArrow" transform="translate(30 24)" onmousedown="handlePan(0,-1)">
                  <use xlink:href="#rim" fill="#404040">
                        <set attributeName="fill" to="#808080" begin="arrowUp.mouseover" end="arrowUp.mouseout"/>
                  </use>
                  <path fill="none" stroke="white" stroke-width="1.5" d="M0,-3.0v7 M-2.5,-0.5L0,-3.0L2.5,-0.5"/>
                </g>
                <g id="arrowRight" xlink:href="#dirArrow" transform="rotate(90) translate(36 -43)" onmousedown="handlePan(1,0)">
                  <use xlink:href="#rim" fill="#404040">
                        <set attributeName="fill" to="#808080" begin="arrowRight.mouseover" end="arrowRight.mouseout"/>
                  </use>
                  <path fill="none" stroke="white" stroke-width="1.5" d="M0,-3.0v7 M-2.5,-0.5L0,-3.0L2.5,-0.5"/>
                </g>
                <g id="arrowDown" xlink:href="#dirArrow" transform="rotate(180) translate(-30 -48)" onmousedown="handlePan(0,1)">
                  <use xlink:href="#rim" fill="#404040">
                        <set attributeName="fill" to="#808080" begin="arrowDown.mouseover" end="arrowDown.mouseout"/>
                  </use>
                  <path fill="none" stroke="white" stroke-width="1.5" d="M0,-3.0v7 M-2.5,-0.5L0,-3.0L2.5,-0.5"/>
                </g>
                <g id="arrowLeft" xlink:href="#dirArrow" transform="rotate(270) translate(-36 17)" onmousedown="handlePan(-1,0)">
                  <use xlink:href="#rim" fill="#404040">
                        <set attributeName="fill" to="#808080" begin="arrowLeft.mouseover" end="arrowLeft.mouseout"/>
                  </use>
                  <path fill="none" stroke="white" stroke-width="1.5" d="M0,-3.0v7 M-2.5,-0.5L0,-3.0L2.5,-0.5"/>
                </g>
        </g>
        <svg viewBox="0 0 15 15" width="100%" height="30px" preserveAspectRatio="xMaxYMin meet">
         <g id="arrow_out" transform="scale(0.3 0.3)">
          <a xlink:href="data__common_8hpp__dep__incl_org.svg" target="_base">
           <rect id="button" ry="5" rx="5" y="6" x="6" height="38" width="38"
                fill="#f2f5e9" fill-opacity="0.5" stroke="#606060" stroke-width="1.0"/>
           <path id="arrow"
             d="M 11.500037,31.436501 C 11.940474,20.09759 22.043105,11.32322 32.158766,21.979434 L 37.068811,17.246167 C 37.068811,17.246167 37.088388,32 37.088388,32 L 22.160133,31.978069 C 22.160133,31.978069 26.997745,27.140456 26.997745,27.140456 C 18.528582,18.264221 13.291696,25.230495 11.500037,31.436501 z"
             style="fill:#404040;"/>
          </a>
         </g>
        </svg>
</svg>
