<?xml version="1.0" encoding="UTF-8" standalone="no"?>
<!DOCTYPE svg PUBLIC "-//W3C//DTD SVG 1.1//EN"
 "http://www.w3.org/Graphics/SVG/1.1/DTD/svg11.dtd">
<!-- Generated by graphviz version 2.40.1 (0)
 -->
<!-- Title: travesim::TeamsConfigurer::get_address Pages: 1 -->
<svg width="655pt" height="72pt"
 viewBox="0.00 0.00 655.00 71.50" xmlns="http://www.w3.org/2000/svg" xmlns:xlink="http://www.w3.org/1999/xlink">
<g id="graph0" class="graph" transform="scale(1 1) rotate(0) translate(4 67.5)">
<title>travesim::TeamsConfigurer::get_address</title>
<!-- Node2 -->
<g id="node1" class="node">
<title>Node2</title>
<g id="a_node1"><a xlink:title="Get the configured address of a team.">
<polygon fill="#bfbfbf" stroke="#000000" points="0,-14 0,-44 204,-44 204,-14 0,-14"/>
<text text-anchor="start" x="8" y="-32" font-family="Fira Code" font-size="10.00" fill="#000000">travesim::TeamsConfigurer</text>
<text text-anchor="middle" x="102" y="-21" font-family="Fira Code" font-size="10.00" fill="#000000">::get_address</text>
</a>
</g>
</g>
<!-- Node3 -->
<g id="node2" class="node">
<title>Node3</title>
<g id="a_node2"><a xlink:href="../../d1/d4b/namespacetravesim.html#a05f869547c07b49b722c2afb6c1967ef" target="_top" xlink:title="Checks if a IP is valid and is in the specified range.">
<polygon fill="none" stroke="#000000" points="240,-38.5 240,-57.5 437,-57.5 437,-38.5 240,-38.5"/>
<text text-anchor="middle" x="338.5" y="-45.5" font-family="Fira Code" font-size="10.00" fill="#000000">travesim::check_valid_ip</text>
</a>
</g>
</g>
<!-- Node2&#45;&gt;Node3 -->
<g id="edge1" class="edge">
<title>Node2&#45;&gt;Node3</title>
<path fill="none" stroke="#191970" d="M204.0133,-37.1956C212.5496,-37.8814 221.2009,-38.5764 229.7848,-39.266"/>
<polygon fill="#191970" stroke="#191970" points="229.5715,-42.7601 239.8197,-40.0722 230.1321,-35.7825 229.5715,-42.7601"/>
</g>
<!-- Node5 -->
<g id="node4" class="node">
<title>Node5</title>
<g id="a_node4"><a xlink:href="../../d1/d4b/namespacetravesim.html#a32624f8212a09572f8587ea017f67d30" target="_top" xlink:title="Get the error msg based on the validation type.">
<polygon fill="none" stroke="#000000" points="244,-.5 244,-19.5 433,-19.5 433,-.5 244,-.5"/>
<text text-anchor="middle" x="338.5" y="-7.5" font-family="Fira Code" font-size="10.00" fill="#000000">travesim::get_error_msg</text>
</a>
</g>
</g>
<!-- Node2&#45;&gt;Node5 -->
<g id="edge3" class="edge">
<title>Node2&#45;&gt;Node5</title>
<path fill="none" stroke="#191970" d="M204.0133,-20.8044C213.8486,-20.0143 223.8366,-19.2119 233.6982,-18.4196"/>
<polygon fill="#191970" stroke="#191970" points="234.2301,-21.8882 243.9177,-17.5986 233.6695,-14.9107 234.2301,-21.8882"/>
</g>
<!-- Node4 -->
<g id="node3" class="node">
<title>Node4</title>
<g id="a_node3"><a xlink:href="../../d1/d4b/namespacetravesim.html#ad051590d1f7aa8c749f82ed36c4b2cba" target="_top" xlink:title="Converts a IPv4 in a string to a array of unsigned integers, where the most significant byte of the I...">
<polygon fill="none" stroke="#000000" points="473,-33 473,-63 647,-63 647,-33 473,-33"/>
<text text-anchor="start" x="481" y="-51" font-family="Fira Code" font-size="10.00" fill="#000000">travesim::ipv4_string</text>
<text text-anchor="middle" x="560" y="-40" font-family="Fira Code" font-size="10.00" fill="#000000">_to_uint</text>
</a>
</g>
</g>
<!-- Node3&#45;&gt;Node4 -->
<g id="edge2" class="edge">
<title>Node3&#45;&gt;Node4</title>
<path fill="none" stroke="#191970" d="M437.2658,-48C445.7135,-48 454.2554,-48 462.6916,-48"/>
<polygon fill="#191970" stroke="#191970" points="462.9162,-51.5001 472.9162,-48 462.9162,-44.5001 462.9162,-51.5001"/>
</g>
</g>
</svg>
