<?xml version="1.0" encoding="UTF-8" standalone="no"?>
<!DOCTYPE svg PUBLIC "-//W3C//DTD SVG 1.1//EN"
 "http://www.w3.org/Graphics/SVG/1.1/DTD/svg11.dtd">
<!-- Generated by graphviz version 2.40.1 (0)
 -->
<!-- Title: include/travesim_adapters/udp/multicast_sender.hpp Pages: 1 -->
<svg width="643pt" height="173pt"
 viewBox="0.00 0.00 643.00 173.00" xmlns="http://www.w3.org/2000/svg" xmlns:xlink="http://www.w3.org/1999/xlink">
<g id="graph0" class="graph" transform="scale(1 1) rotate(0) translate(4 169)">
<title>include/travesim_adapters/udp/multicast_sender.hpp</title>
<!-- Node4 -->
<g id="node1" class="node">
<title>Node4</title>
<g id="a_node1"><a xlink:title="Send data using UDP in multicast mode.">
<polygon fill="#bfbfbf" stroke="#000000" points="219.5,-134.5 219.5,-164.5 423.5,-164.5 423.5,-134.5 219.5,-134.5"/>
<text text-anchor="start" x="227.5" y="-152.5" font-family="Fira Code" font-size="10.00" fill="#000000">include/travesim_adapters</text>
<text text-anchor="middle" x="321.5" y="-141.5" font-family="Fira Code" font-size="10.00" fill="#000000">/udp/multicast_sender.hpp</text>
</a>
</g>
</g>
<!-- Node5 -->
<g id="node2" class="node">
<title>Node5</title>
<g id="a_node2"><a xlink:href="../../d1/d23/multicast__sender__example_8cpp.html" target="_top" xlink:title="Example on how to use the MulticastSender.">
<polygon fill="none" stroke="#000000" points="11.5,-67.5 11.5,-97.5 193.5,-97.5 193.5,-67.5 11.5,-67.5"/>
<text text-anchor="start" x="19.5" y="-85.5" font-family="Fira Code" font-size="10.00" fill="#000000">examples/udp/multicast</text>
<text text-anchor="middle" x="102.5" y="-74.5" font-family="Fira Code" font-size="10.00" fill="#000000">_sender_example.cpp</text>
</a>
</g>
</g>
<!-- Node4&#45;&gt;Node5 -->
<g id="edge1" class="edge">
<title>Node4&#45;&gt;Node5</title>
<path fill="none" stroke="#191970" d="M262.3776,-131.4123C227.787,-120.8298 184.6201,-107.6235 151.8622,-97.6017"/>
<polygon fill="#191970" stroke="#191970" points="261.7657,-134.8852 272.3521,-134.4639 263.8136,-128.1914 261.7657,-134.8852"/>
</g>
<!-- Node6 -->
<g id="node3" class="node">
<title>Node6</title>
<g id="a_node3"><a xlink:href="../../db/da8/vision__sender_8hpp.html" target="_top" xlink:title="Vision data sender with UDP and protobuf.">
<polygon fill="none" stroke="#000000" points="212,-67.5 212,-97.5 431,-97.5 431,-67.5 212,-67.5"/>
<text text-anchor="start" x="220" y="-85.5" font-family="Fira Code" font-size="10.00" fill="#000000">include/travesim_adapters</text>
<text text-anchor="middle" x="321.5" y="-74.5" font-family="Fira Code" font-size="10.00" fill="#000000">/protobuf/vision_sender.hpp</text>
</a>
</g>
</g>
<!-- Node4&#45;&gt;Node6 -->
<g id="edge2" class="edge">
<title>Node4&#45;&gt;Node6</title>
<path fill="none" stroke="#191970" d="M321.5,-124.0249C321.5,-115.128 321.5,-105.4287 321.5,-97.6432"/>
<polygon fill="#191970" stroke="#191970" points="318.0001,-124.2966 321.5,-134.2967 325.0001,-124.2967 318.0001,-124.2966"/>
</g>
<!-- Node10 -->
<g id="node7" class="node">
<title>Node10</title>
<g id="a_node7"><a xlink:href="../../de/d82/multicast__sender_8cpp.html" target="_top" xlink:title="Send data using UDP in multicast mode.">
<polygon fill="none" stroke="#000000" points="449.5,-67.5 449.5,-97.5 623.5,-97.5 623.5,-67.5 449.5,-67.5"/>
<text text-anchor="start" x="457.5" y="-85.5" font-family="Fira Code" font-size="10.00" fill="#000000">src/lib/udp/multicast</text>
<text text-anchor="middle" x="536.5" y="-74.5" font-family="Fira Code" font-size="10.00" fill="#000000">_sender.cpp</text>
</a>
</g>
</g>
<!-- Node4&#45;&gt;Node10 -->
<g id="edge6" class="edge">
<title>Node4&#45;&gt;Node10</title>
<path fill="none" stroke="#191970" d="M379.5426,-131.4123C413.5013,-120.8298 455.8798,-107.6235 488.0394,-97.6017"/>
<polygon fill="#191970" stroke="#191970" points="378.256,-128.1471 369.7502,-134.4639 380.3387,-134.8302 378.256,-128.1471"/>
</g>
<!-- Node7 -->
<g id="node4" class="node">
<title>Node7</title>
<g id="a_node4"><a xlink:href="../../de/d50/vision__sender__example_8cpp.html" target="_top" xlink:title="Example on how to use the VisionSender with protobuf.">
<polygon fill="none" stroke="#000000" points="0,-.5 0,-30.5 197,-30.5 197,-.5 0,-.5"/>
<text text-anchor="start" x="8" y="-18.5" font-family="Fira Code" font-size="10.00" fill="#000000">examples/protobuf/vision</text>
<text text-anchor="middle" x="98.5" y="-7.5" font-family="Fira Code" font-size="10.00" fill="#000000">_sender_example.cpp</text>
</a>
</g>
</g>
<!-- Node6&#45;&gt;Node7 -->
<g id="edge3" class="edge">
<title>Node6&#45;&gt;Node7</title>
<path fill="none" stroke="#191970" d="M261.7507,-64.5484C226.4529,-53.9432 182.2632,-40.6665 148.7638,-30.6017"/>
<polygon fill="#191970" stroke="#191970" points="260.8702,-67.9384 271.4544,-67.4639 262.8845,-61.2344 260.8702,-67.9384"/>
</g>
<!-- Node8 -->
<g id="node5" class="node">
<title>Node8</title>
<g id="a_node5"><a xlink:href="../../df/ddf/vision__adapter_8cpp.html" target="_top" xlink:title="Vision adapter executable file.">
<polygon fill="none" stroke="#000000" points="215.5,-6 215.5,-25 427.5,-25 427.5,-6 215.5,-6"/>
<text text-anchor="middle" x="321.5" y="-13" font-family="Fira Code" font-size="10.00" fill="#000000">src/bin/vision_adapter.cpp</text>
</a>
</g>
</g>
<!-- Node6&#45;&gt;Node8 -->
<g id="edge4" class="edge">
<title>Node6&#45;&gt;Node8</title>
<path fill="none" stroke="#191970" d="M321.5,-57.1199C321.5,-45.9072 321.5,-33.4031 321.5,-25.055"/>
<polygon fill="#191970" stroke="#191970" points="318.0001,-57.2966 321.5,-67.2967 325.0001,-57.2967 318.0001,-57.2966"/>
</g>
<!-- Node9 -->
<g id="node6" class="node">
<title>Node9</title>
<g id="a_node6"><a xlink:href="../../d0/d19/vision__sender_8cpp.html" target="_top" xlink:title="Vision data sender with UDP and protobuf.">
<polygon fill="none" stroke="#000000" points="446,-.5 446,-30.5 635,-30.5 635,-.5 446,-.5"/>
<text text-anchor="start" x="454" y="-18.5" font-family="Fira Code" font-size="10.00" fill="#000000">src/lib/protobuf/vision</text>
<text text-anchor="middle" x="540.5" y="-7.5" font-family="Fira Code" font-size="10.00" fill="#000000">_sender.cpp</text>
</a>
</g>
</g>
<!-- Node6&#45;&gt;Node9 -->
<g id="edge5" class="edge">
<title>Node6&#45;&gt;Node9</title>
<path fill="none" stroke="#191970" d="M380.6224,-64.4123C415.213,-53.8298 458.3799,-40.6235 491.1378,-30.6017"/>
<polygon fill="#191970" stroke="#191970" points="379.1864,-61.1914 370.6479,-67.4639 381.2343,-67.8852 379.1864,-61.1914"/>
</g>
</g>
</svg>
