<?xml version="1.0" encoding="UTF-8" standalone="no"?>
<!DOCTYPE svg PUBLIC "-//W3C//DTD SVG 1.1//EN"
 "http://www.w3.org/Graphics/SVG/1.1/DTD/svg11.dtd">
<!-- Generated by graphviz version 2.40.1 (0)
 -->
<!-- Title: travesim::proto::ReplacerReceiver::receive Pages: 1 -->
<svg width="452pt" height="110pt"
 viewBox="0.00 0.00 452.00 110.00" xmlns="http://www.w3.org/2000/svg" xmlns:xlink="http://www.w3.org/1999/xlink">
<g id="graph0" class="graph" transform="scale(1 1) rotate(0) translate(4 106)">
<title>travesim::proto::ReplacerReceiver::receive</title>
<!-- Node9 -->
<g id="node1" class="node">
<title>Node9</title>
<g id="a_node1"><a xlink:title="Receive the replacement commands.">
<polygon fill="#bfbfbf" stroke="#000000" points="0,-36 0,-66 204,-66 204,-36 0,-36"/>
<text text-anchor="start" x="8" y="-54" font-family="Fira Code" font-size="10.00" fill="#000000">travesim::proto::Replacer</text>
<text text-anchor="middle" x="102" y="-43" font-family="Fira Code" font-size="10.00" fill="#000000">Receiver::receive</text>
</a>
</g>
</g>
<!-- Node10 -->
<g id="node2" class="node">
<title>Node10</title>
<g id="a_node2"><a xlink:href="../../d5/d4a/classtravesim_1_1proto_1_1ReplacerReceiver.html#a92a11afe21eaf8c2d3ed511007b82953" target="_top" xlink:title="Convert a BallReplacement protobuf message to a EntityState.">
<polygon fill="none" stroke="#000000" points="240,-60.5 240,-101.5 444,-101.5 444,-60.5 240,-60.5"/>
<text text-anchor="start" x="248" y="-89.5" font-family="Fira Code" font-size="10.00" fill="#000000">travesim::proto::Replacer</text>
<text text-anchor="start" x="248" y="-78.5" font-family="Fira Code" font-size="10.00" fill="#000000">Receiver::ball_rplcmt_pb</text>
<text text-anchor="middle" x="342" y="-67.5" font-family="Fira Code" font-size="10.00" fill="#000000">_to_entity_state</text>
</a>
</g>
</g>
<!-- Node9&#45;&gt;Node10 -->
<g id="edge1" class="edge">
<title>Node9&#45;&gt;Node10</title>
<path fill="none" stroke="#191970" d="M204.1296,-63.7662C212.6577,-64.8322 221.3089,-65.9136 229.9058,-66.9882"/>
<polygon fill="#191970" stroke="#191970" points="229.6052,-70.4778 239.9622,-68.2453 230.4735,-63.5319 229.6052,-70.4778"/>
</g>
<!-- Node11 -->
<g id="node3" class="node">
<title>Node11</title>
<g id="a_node3"><a xlink:href="../../d5/d4a/classtravesim_1_1proto_1_1ReplacerReceiver.html#a95c3ca946b4aedf5c98803e7c832cf1c" target="_top" xlink:title="Convert a RobotReplacement protobuf message to a RobotState.">
<polygon fill="none" stroke="#000000" points="240,-.5 240,-41.5 444,-41.5 444,-.5 240,-.5"/>
<text text-anchor="start" x="248" y="-29.5" font-family="Fira Code" font-size="10.00" fill="#000000">travesim::proto::Replacer</text>
<text text-anchor="start" x="248" y="-18.5" font-family="Fira Code" font-size="10.00" fill="#000000">Receiver::robot_rplcmt</text>
<text text-anchor="middle" x="342" y="-7.5" font-family="Fira Code" font-size="10.00" fill="#000000">_pb_to_robot_state</text>
</a>
</g>
</g>
<!-- Node9&#45;&gt;Node11 -->
<g id="edge2" class="edge">
<title>Node9&#45;&gt;Node11</title>
<path fill="none" stroke="#191970" d="M204.1296,-38.2338C212.6577,-37.1678 221.3089,-36.0864 229.9058,-35.0118"/>
<polygon fill="#191970" stroke="#191970" points="230.4735,-38.4681 239.9622,-33.7547 229.6052,-31.5222 230.4735,-38.4681"/>
</g>
</g>
</svg>
