<?xml version="1.0" encoding="UTF-8" standalone="no"?>
<!DOCTYPE svg PUBLIC "-//W3C//DTD SVG 1.1//EN"
 "http://www.w3.org/Graphics/SVG/1.1/DTD/svg11.dtd">
<!-- Generated by graphviz version 2.40.1 (0)
 -->
<!-- Title: travesim::proto::ReplacerReceiver::robot_rplcmt_pb_to_robot_state Pages: 1 -->
<svg width="535pt" height="50pt"
 viewBox="0.00 0.00 535.00 50.00" xmlns="http://www.w3.org/2000/svg" xmlns:xlink="http://www.w3.org/1999/xlink">
<g id="graph0" class="graph" transform="scale(1 1) rotate(0) translate(4 46)">
<title>travesim::proto::ReplacerReceiver::robot_rplcmt_pb_to_robot_state</title>
<!-- Node18 -->
<g id="node1" class="node">
<title>Node18</title>
<g id="a_node1"><a xlink:title="Convert a RobotReplacement protobuf message to a RobotState.">
<polygon fill="#bfbfbf" stroke="#000000" points="323,-.5 323,-41.5 527,-41.5 527,-.5 323,-.5"/>
<text text-anchor="start" x="331" y="-29.5" font-family="Fira Code" font-size="10.00" fill="#000000">travesim::proto::Replacer</text>
<text text-anchor="start" x="331" y="-18.5" font-family="Fira Code" font-size="10.00" fill="#000000">Receiver::robot_rplcmt</text>
<text text-anchor="middle" x="425" y="-7.5" font-family="Fira Code" font-size="10.00" fill="#000000">_pb_to_robot_state</text>
</a>
</g>
</g>
<!-- Node19 -->
<g id="node2" class="node">
<title>Node19</title>
<g id="a_node2"><a xlink:href="../../d5/d4a/classtravesim_1_1proto_1_1ReplacerReceiver.html#abacb36956126510b9bae3d305e1ed1ad" target="_top" xlink:title="Receive the replacement commands.">
<polygon fill="none" stroke="#000000" points="83,-6 83,-36 287,-36 287,-6 83,-6"/>
<text text-anchor="start" x="91" y="-24" font-family="Fira Code" font-size="10.00" fill="#000000">travesim::proto::Replacer</text>
<text text-anchor="middle" x="185" y="-13" font-family="Fira Code" font-size="10.00" fill="#000000">Receiver::receive</text>
</a>
</g>
</g>
<!-- Node18&#45;&gt;Node19 -->
<g id="edge1" class="edge">
<title>Node18&#45;&gt;Node19</title>
<path fill="none" stroke="#191970" d="M312.8133,-21C304.216,-21 295.565,-21 287.0378,-21"/>
<polygon fill="#191970" stroke="#191970" points="312.8704,-24.5001 322.8704,-21 312.8704,-17.5001 312.8704,-24.5001"/>
</g>
<!-- Node20 -->
<g id="node3" class="node">
<title>Node20</title>
<g id="a_node3"><a xlink:href="../../d8/d50/replacer__receiver__example_8cpp.html#a0ddf1224851353fc92bfbff6f499fa97" target="_top" xlink:title=" ">
<polygon fill="none" stroke="#000000" points="0,-11.5 0,-30.5 47,-30.5 47,-11.5 0,-11.5"/>
<text text-anchor="middle" x="23.5" y="-18.5" font-family="Fira Code" font-size="10.00" fill="#000000">main</text>
</a>
</g>
</g>
<!-- Node19&#45;&gt;Node20 -->
<g id="edge2" class="edge">
<title>Node19&#45;&gt;Node20</title>
<path fill="none" stroke="#191970" d="M72.4467,-21C63.1928,-21 54.6022,-21 47.2838,-21"/>
<polygon fill="#191970" stroke="#191970" points="72.7196,-24.5001 82.7196,-21 72.7196,-17.5001 72.7196,-24.5001"/>
</g>
</g>
</svg>
