<?xml version="1.0" encoding="UTF-8" standalone="no"?>
<!DOCTYPE svg PUBLIC "-//W3C//DTD SVG 1.1//EN"
 "http://www.w3.org/Graphics/SVG/1.1/DTD/svg11.dtd">
<!-- Generated by graphviz version 2.40.1 (0)
 -->
<!-- Title: src/lib/data/converter/ros_side.cpp Pages: 1 -->
<svg width="1323pt" height="296pt"
 viewBox="0.00 0.00 1323.29 296.00" xmlns="http://www.w3.org/2000/svg" xmlns:xlink="http://www.w3.org/1999/xlink">
<g id="graph0" class="graph" transform="scale(1 1) rotate(0) translate(4 292)">
<title>src/lib/data/converter/ros_side.cpp</title>
<!-- Node0 -->
<g id="node1" class="node">
<title>Node0</title>
<g id="a_node1"><a xlink:title="Collection of data converters between ROS and local formats.">
<polygon fill="#bfbfbf" stroke="#000000" points="292.2876,-257.5 292.2876,-287.5 474.2876,-287.5 474.2876,-257.5 292.2876,-257.5"/>
<text text-anchor="start" x="300.2876" y="-275.5" font-family="Fira Code" font-size="10.00" fill="#000000">src/lib/data/converter</text>
<text text-anchor="middle" x="383.2876" y="-264.5" font-family="Fira Code" font-size="10.00" fill="#000000">/ros_side.cpp</text>
</a>
</g>
</g>
<!-- Node1 -->
<g id="node2" class="node">
<title>Node1</title>
<g id="a_node2"><a xlink:title=" ">
<polygon fill="none" stroke="#bfbfbf" points="241.2876,-196 241.2876,-215 355.2876,-215 355.2876,-196 241.2876,-196"/>
<text text-anchor="middle" x="298.2876" y="-203" font-family="Fira Code" font-size="10.00" fill="#000000">unordered_map</text>
</a>
</g>
</g>
<!-- Node0&#45;&gt;Node1 -->
<g id="edge1" class="edge">
<title>Node0&#45;&gt;Node1</title>
<path fill="none" stroke="#191970" d="M363.9998,-257.2967C350.3706,-246.5537 332.1474,-232.1895 318.3488,-221.3129"/>
<polygon fill="#191970" stroke="#191970" points="320.4298,-218.4967 310.4096,-215.055 316.0965,-223.9942 320.4298,-218.4967"/>
</g>
<!-- Node2 -->
<g id="node3" class="node">
<title>Node2</title>
<g id="a_node3"><a xlink:href="../../d2/d46/ros__side_8hpp.html" target="_top" xlink:title="Collection of data converters between ROS and local formats.">
<polygon fill="none" stroke="#000000" points="373.7876,-190.5 373.7876,-220.5 562.7876,-220.5 562.7876,-190.5 373.7876,-190.5"/>
<text text-anchor="start" x="381.7876" y="-208.5" font-family="Fira Code" font-size="10.00" fill="#000000">travesim_adapters/data</text>
<text text-anchor="middle" x="468.2876" y="-197.5" font-family="Fira Code" font-size="10.00" fill="#000000">/converter/ros_side.hpp</text>
</a>
</g>
</g>
<!-- Node0&#45;&gt;Node2 -->
<g id="edge2" class="edge">
<title>Node0&#45;&gt;Node2</title>
<path fill="none" stroke="#191970" d="M402.5754,-257.2967C413.9866,-248.302 428.6183,-236.7687 441.1771,-226.8694"/>
<polygon fill="#191970" stroke="#191970" points="443.3892,-229.5824 449.0761,-220.6432 439.0558,-224.0849 443.3892,-229.5824"/>
</g>
<!-- Node3 -->
<g id="node4" class="node">
<title>Node3</title>
<g id="a_node4"><a xlink:title=" ">
<polygon fill="none" stroke="#bfbfbf" points="72.7876,-.5 72.7876,-19.5 149.7876,-19.5 149.7876,-.5 72.7876,-.5"/>
<text text-anchor="middle" x="111.2876" y="-7.5" font-family="Fira Code" font-size="10.00" fill="#000000">iostream</text>
</a>
</g>
</g>
<!-- Node2&#45;&gt;Node3 -->
<g id="edge3" class="edge">
<title>Node2&#45;&gt;Node3</title>
<path fill="none" stroke="#191970" d="M373.654,-191.206C370.4957,-190.7896 367.3668,-190.3863 364.2876,-190 325.1685,-185.0928 37.7137,-183.2582 11.2876,-154 -27.4994,-111.0562 46.4792,-52.4753 87.123,-25.1688"/>
<polygon fill="#191970" stroke="#191970" points="89.2719,-27.945 95.7095,-19.5302 85.4295,-22.0938 89.2719,-27.945"/>
</g>
<!-- Node4 -->
<g id="node5" class="node">
<title>Node4</title>
<g id="a_node5"><a xlink:title=" ">
<polygon fill="none" stroke="#bfbfbf" points="496.2876,-129 496.2876,-148 670.2876,-148 670.2876,-129 496.2876,-129"/>
<text text-anchor="middle" x="583.2876" y="-136" font-family="Fira Code" font-size="10.00" fill="#000000">geometry_msgs/Point.h</text>
</a>
</g>
</g>
<!-- Node2&#45;&gt;Node4 -->
<g id="edge4" class="edge">
<title>Node2&#45;&gt;Node4</title>
<path fill="none" stroke="#191970" d="M494.0958,-190.4639C513.2175,-179.3234 539.1393,-164.2212 558.1093,-153.1691"/>
<polygon fill="#191970" stroke="#191970" points="559.9246,-156.1622 566.8032,-148.1039 556.4008,-150.1138 559.9246,-156.1622"/>
</g>
<!-- Node5 -->
<g id="node6" class="node">
<title>Node5</title>
<g id="a_node6"><a xlink:title=" ">
<polygon fill="none" stroke="#bfbfbf" points="688.7876,-129 688.7876,-148 877.7876,-148 877.7876,-129 688.7876,-129"/>
<text text-anchor="middle" x="783.2876" y="-136" font-family="Fira Code" font-size="10.00" fill="#000000">geometry_msgs/Vector3.h</text>
</a>
</g>
</g>
<!-- Node2&#45;&gt;Node5 -->
<g id="edge5" class="edge">
<title>Node2&#45;&gt;Node5</title>
<path fill="none" stroke="#191970" d="M538.9797,-190.4639C596.4075,-178.2491 676.2273,-161.2716 728.7889,-150.0918"/>
<polygon fill="#191970" stroke="#191970" points="729.5455,-153.5092 738.5985,-148.0053 728.0892,-146.6624 729.5455,-153.5092"/>
</g>
<!-- Node6 -->
<g id="node7" class="node">
<title>Node6</title>
<g id="a_node7"><a xlink:title=" ">
<polygon fill="none" stroke="#bfbfbf" points="895.7876,-129 895.7876,-148 1092.7876,-148 1092.7876,-129 895.7876,-129"/>
<text text-anchor="middle" x="994.2876" y="-136" font-family="Fira Code" font-size="10.00" fill="#000000">gazebo_msgs/ModelState.h</text>
</a>
</g>
</g>
<!-- Node2&#45;&gt;Node6 -->
<g id="edge6" class="edge">
<title>Node2&#45;&gt;Node6</title>
<path fill="none" stroke="#191970" d="M562.7993,-194.473C647.7702,-184.4188 775.963,-168.903 887.2876,-154 897.8993,-152.5794 909.0941,-151.0224 920.0854,-149.4602"/>
<polygon fill="#191970" stroke="#191970" points="920.696,-152.9086 930.0997,-148.0279 919.7049,-145.9791 920.696,-152.9086"/>
</g>
<!-- Node7 -->
<g id="node8" class="node">
<title>Node7</title>
<g id="a_node8"><a xlink:title=" ">
<polygon fill="none" stroke="#bfbfbf" points="1111.2876,-129 1111.2876,-148 1315.2876,-148 1315.2876,-129 1111.2876,-129"/>
<text text-anchor="middle" x="1213.2876" y="-136" font-family="Fira Code" font-size="10.00" fill="#000000">gazebo_msgs/ModelStates.h</text>
</a>
</g>
</g>
<!-- Node2&#45;&gt;Node7 -->
<g id="edge7" class="edge">
<title>Node2&#45;&gt;Node7</title>
<path fill="none" stroke="#191970" d="M562.9737,-199.52C687.0408,-191.2926 911.2951,-175.0745 1102.2876,-154 1114.4199,-152.6613 1127.2714,-151.048 1139.7611,-149.375"/>
<polygon fill="#191970" stroke="#191970" points="1140.2431,-152.8418 1149.6794,-148.0246 1139.2987,-145.9057 1140.2431,-152.8418"/>
</g>
<!-- Node8 -->
<g id="node9" class="node">
<title>Node8</title>
<g id="a_node9"><a xlink:href="../../d9/d46/data__common_8hpp.html" target="_top" xlink:title="Common constants and types for the data structures.">
<polygon fill="none" stroke="#000000" points="398.2876,-56.5 398.2876,-86.5 580.2876,-86.5 580.2876,-56.5 398.2876,-56.5"/>
<text text-anchor="start" x="406.2876" y="-74.5" font-family="Fira Code" font-size="10.00" fill="#000000">travesim_adapters/data</text>
<text text-anchor="middle" x="489.2876" y="-63.5" font-family="Fira Code" font-size="10.00" fill="#000000">/data_common.hpp</text>
</a>
</g>
</g>
<!-- Node2&#45;&gt;Node8 -->
<g id="edge8" class="edge">
<title>Node2&#45;&gt;Node8</title>
<path fill="none" stroke="#191970" d="M470.6557,-190.389C474.2163,-167.6691 480.9913,-124.438 485.3163,-96.8405"/>
<polygon fill="#191970" stroke="#191970" points="488.8053,-97.1827 486.8959,-86.7614 481.8897,-96.0989 488.8053,-97.1827"/>
</g>
<!-- Node9 -->
<g id="node10" class="node">
<title>Node9</title>
<g id="a_node10"><a xlink:href="../../dc/d09/robot__state_8hpp.html" target="_top" xlink:title="Robot state data structure.">
<polygon fill="none" stroke="#000000" points="20.2876,-123.5 20.2876,-153.5 202.2876,-153.5 202.2876,-123.5 20.2876,-123.5"/>
<text text-anchor="start" x="28.2876" y="-141.5" font-family="Fira Code" font-size="10.00" fill="#000000">travesim_adapters/data</text>
<text text-anchor="middle" x="111.2876" y="-130.5" font-family="Fira Code" font-size="10.00" fill="#000000">/robot_state.hpp</text>
</a>
</g>
</g>
<!-- Node2&#45;&gt;Node9 -->
<g id="edge9" class="edge">
<title>Node2&#45;&gt;Node9</title>
<path fill="none" stroke="#191970" d="M388.1698,-190.4639C332.8019,-180.0727 259.0683,-166.2348 201.6119,-155.4516"/>
<polygon fill="#191970" stroke="#191970" points="201.9202,-151.9485 191.4462,-153.5438 200.629,-158.8283 201.9202,-151.9485"/>
</g>
<!-- Node10 -->
<g id="node11" class="node">
<title>Node10</title>
<g id="a_node11"><a xlink:href="../../de/d28/entity__state_8hpp.html" target="_top" xlink:title="Entity state data structure.">
<polygon fill="none" stroke="#000000" points="80.2876,-56.5 80.2876,-86.5 262.2876,-86.5 262.2876,-56.5 80.2876,-56.5"/>
<text text-anchor="start" x="88.2876" y="-74.5" font-family="Fira Code" font-size="10.00" fill="#000000">travesim_adapters/data</text>
<text text-anchor="middle" x="171.2876" y="-63.5" font-family="Fira Code" font-size="10.00" fill="#000000">/entity_state.hpp</text>
</a>
</g>
</g>
<!-- Node2&#45;&gt;Node10 -->
<g id="edge13" class="edge">
<title>Node2&#45;&gt;Node10</title>
<path fill="none" stroke="#191970" d="M381.9347,-190.4524C330.9087,-180.5511 271.9688,-167.0526 249.2876,-154 235.6537,-146.154 208.7004,-116.0221 190.3361,-94.4437"/>
<polygon fill="#191970" stroke="#191970" points="192.8885,-92.0413 183.764,-86.6566 187.539,-96.5561 192.8885,-92.0413"/>
</g>
<!-- Node11 -->
<g id="node12" class="node">
<title>Node11</title>
<g id="a_node12"><a xlink:href="../../de/d1e/field__state_8hpp.html" target="_top" xlink:title=" ">
<polygon fill="none" stroke="#000000" points="258.2876,-123.5 258.2876,-153.5 440.2876,-153.5 440.2876,-123.5 258.2876,-123.5"/>
<text text-anchor="start" x="266.2876" y="-141.5" font-family="Fira Code" font-size="10.00" fill="#000000">travesim_adapters/data</text>
<text text-anchor="middle" x="349.2876" y="-130.5" font-family="Fira Code" font-size="10.00" fill="#000000">/field_state.hpp</text>
</a>
</g>
</g>
<!-- Node2&#45;&gt;Node11 -->
<g id="edge14" class="edge">
<title>Node2&#45;&gt;Node11</title>
<path fill="none" stroke="#191970" d="M441.5817,-190.4639C425.0091,-181.1332 403.5005,-169.0232 385.4164,-158.8415"/>
<polygon fill="#191970" stroke="#191970" points="386.747,-155.574 376.3161,-153.7177 383.3128,-161.6737 386.747,-155.574"/>
</g>
<!-- Node9&#45;&gt;Node3 -->
<g id="edge10" class="edge">
<title>Node9&#45;&gt;Node3</title>
<path fill="none" stroke="#191970" d="M95.2241,-123.4715C86.2996,-113.9853 76.0592,-100.9224 71.2876,-87 66.8206,-73.9665 66.4615,-68.9049 71.2876,-56 75.4024,-44.9969 83.4691,-34.8874 91.287,-26.9652"/>
<polygon fill="#191970" stroke="#191970" points="93.9908,-29.2264 98.8664,-19.82 89.1891,-24.1329 93.9908,-29.2264"/>
</g>
<!-- Node9&#45;&gt;Node10 -->
<g id="edge11" class="edge">
<title>Node9&#45;&gt;Node10</title>
<path fill="none" stroke="#191970" d="M124.9025,-123.2967C132.5739,-114.7303 142.3072,-103.8614 150.8748,-94.2943"/>
<polygon fill="#191970" stroke="#191970" points="153.6626,-96.4276 157.7265,-86.6432 148.448,-91.7578 153.6626,-96.4276"/>
</g>
<!-- Node10&#45;&gt;Node3 -->
<g id="edge12" class="edge">
<title>Node10&#45;&gt;Node3</title>
<path fill="none" stroke="#191970" d="M156.4561,-56.2977C147.8672,-47.4941 137.0273,-36.3833 128.1197,-27.2529"/>
<polygon fill="#191970" stroke="#191970" points="130.3828,-24.5606 120.8943,-19.8469 125.3724,-29.4489 130.3828,-24.5606"/>
</g>
<!-- Node11&#45;&gt;Node3 -->
<g id="edge16" class="edge">
<title>Node11&#45;&gt;Node3</title>
<path fill="none" stroke="#191970" d="M338.9594,-123.3745C325.504,-104.8081 300.2491,-73.6248 271.2876,-56 237.0528,-35.1661 192.9655,-23.4061 159.7415,-17.0024"/>
<polygon fill="#191970" stroke="#191970" points="160.2692,-13.5409 149.8024,-15.1829 159.0086,-20.4265 160.2692,-13.5409"/>
</g>
<!-- Node11&#45;&gt;Node8 -->
<g id="edge17" class="edge">
<title>Node11&#45;&gt;Node8</title>
<path fill="none" stroke="#191970" d="M380.7063,-123.4639C400.6506,-113.9191 426.6715,-101.4663 448.2405,-91.144"/>
<polygon fill="#191970" stroke="#191970" points="449.98,-94.1917 457.4893,-86.7177 446.9581,-87.8775 449.98,-94.1917"/>
</g>
<!-- Node11&#45;&gt;Node10 -->
<g id="edge18" class="edge">
<title>Node11&#45;&gt;Node10</title>
<path fill="none" stroke="#191970" d="M309.3409,-123.4639C283.2092,-113.6278 248.8727,-100.7034 220.9812,-90.2049"/>
<polygon fill="#191970" stroke="#191970" points="222.0004,-86.8489 211.4085,-86.6017 219.5345,-93.4001 222.0004,-86.8489"/>
</g>
<!-- Node12 -->
<g id="node13" class="node">
<title>Node12</title>
<g id="a_node13"><a xlink:title=" ">
<polygon fill="none" stroke="#bfbfbf" points="318.2876,-62 318.2876,-81 380.2876,-81 380.2876,-62 318.2876,-62"/>
<text text-anchor="middle" x="349.2876" y="-69" font-family="Fira Code" font-size="10.00" fill="#000000">vector</text>
</a>
</g>
</g>
<!-- Node11&#45;&gt;Node12 -->
<g id="edge15" class="edge">
<title>Node11&#45;&gt;Node12</title>
<path fill="none" stroke="#191970" d="M349.2876,-123.2967C349.2876,-113.7699 349.2876,-101.3954 349.2876,-91.1306"/>
<polygon fill="#191970" stroke="#191970" points="352.7877,-91.0549 349.2876,-81.055 345.7877,-91.055 352.7877,-91.0549"/>
</g>
</g>
</svg>
