<?xml version="1.0" encoding="UTF-8" standalone="no"?>
<!DOCTYPE svg PUBLIC "-//W3C//DTD SVG 1.1//EN"
 "http://www.w3.org/Graphics/SVG/1.1/DTD/svg11.dtd">
<!-- Generated by graphviz version 2.40.1 (0)
 -->
<!-- Title: examples/udp/multicast_receiver_reset_example.cpp Pages: 1 -->
<!--zoomable 229 -->
<svg id="main" version="1.1" xmlns="http://www.w3.org/2000/svg" xmlns:xlink="http://www.w3.org/1999/xlink" xml:space="preserve" onload="init(evt)">
<style type="text/css"><![CDATA[
.edge:hover path { stroke: red; }
.edge:hover polygon { stroke: red; fill: red; }
]]></style>
<script type="text/javascript"><![CDATA[
var edges = document.getElementsByTagName('g');
if (edges && edges.length) {
  for (var i=0;i<edges.length;i++) {
    if (edges[i].id.substr(0,4)=='edge') {
      edges[i].setAttribute('class','edge');
    }
  }
}
]]></script>
        <defs>
                <circle id="rim" cx="0" cy="0" r="7"/>
                <circle id="rim2" cx="0" cy="0" r="3.5"/>
                <g id="zoomPlus">
                        <use xlink:href="#rim" fill="#404040">
                                <set attributeName="fill" to="#808080" begin="zoomplus.mouseover" end="zoomplus.mouseout"/>
                        </use>
                        <path d="M-4,0h8M0,-4v8" fill="none" stroke="white" stroke-width="1.5" pointer-events="none"/>
                </g>
                <g id="zoomMin">
                        <use xlink:href="#rim" fill="#404040">
                                <set attributeName="fill" to="#808080" begin="zoomminus.mouseover" end="zoomminus.mouseout"/>
                        </use>
                        <path d="M-4,0h8" fill="none" stroke="white" stroke-width="1.5" pointer-events="none"/>
                </g>
                <g id="dirArrow">
                        <path fill="none" stroke="white" stroke-width="1.5" d="M0,-3.0v7 M-2.5,-0.5L0,-3.0L2.5,-0.5"/>
                </g>
               <g id="resetDef">
                       <use xlink:href="#rim2" fill="#404040">
                               <set attributeName="fill" to="#808080" begin="reset.mouseover" end="reset.mouseout"/>
                       </use>
               </g>
        </defs>

<script type="text/javascript">
var viewWidth = 595;
var viewHeight = 229;
var sectionId = 'dynsection-0';
</script>
<script xlink:href="../../svgpan.js"/>
<svg id="graph" class="graph">
<g id="viewport">
<title>examples/udp/multicast_receiver_reset_example.cpp</title>
<!-- Node0 -->
<g id="node1" class="node">
<title>Node0</title>
<g id="a_node1"><a xlink:title=" ">
<polygon fill="#bfbfbf" stroke="#000000" points="159.5,-190.5 159.5,-220.5 378.5,-220.5 378.5,-190.5 159.5,-190.5"/>
<text text-anchor="start" x="167.5" y="-208.5" font-family="Fira Code" font-size="10.00" fill="#000000">examples/udp/multicast</text>
<text text-anchor="middle" x="269" y="-197.5" font-family="Fira Code" font-size="10.00" fill="#000000">_receiver_reset_example.cpp</text>
</a>
</g>
</g>
<!-- Node1 -->
<g id="node2" class="node">
<title>Node1</title>
<g id="a_node2"><a xlink:title=" ">
<polygon fill="none" stroke="#bfbfbf" points="0,-129 0,-148 84,-148 84,-129 0,-129"/>
<text text-anchor="middle" x="42" y="-136" font-family="Fira Code" font-size="10.00" fill="#000000">ros/ros.h</text>
</a>
</g>
</g>
<!-- Node0&#45;&gt;Node1 -->
<g id="edge1" class="edge">
<title>Node0&#45;&gt;Node1</title>
<path fill="none" stroke="#191970" d="M216.9756,-190.4306C181.9167,-180.2377 134.6444,-166.4208 93,-154 89.7077,-153.0181 86.2978,-151.9949 82.8736,-150.9632"/>
<polygon fill="#191970" stroke="#191970" points="83.8562,-147.6039 73.2712,-148.06 81.8304,-154.3044 83.8562,-147.6039"/>
</g>
<!-- Node2 -->
<g id="node3" class="node">
<title>Node2</title>
<g id="a_node3"><a xlink:title=" ">
<polygon fill="none" stroke="#bfbfbf" points="102.5,-129 102.5,-148 179.5,-148 179.5,-129 102.5,-129"/>
<text text-anchor="middle" x="141" y="-136" font-family="Fira Code" font-size="10.00" fill="#000000">iostream</text>
</a>
</g>
</g>
<!-- Node0&#45;&gt;Node2 -->
<g id="edge2" class="edge">
<title>Node0&#45;&gt;Node2</title>
<path fill="none" stroke="#191970" d="M240.2743,-190.4639C218.7975,-179.2222 189.6138,-163.9463 168.4505,-152.8686"/>
<polygon fill="#191970" stroke="#191970" points="169.8306,-149.6406 159.3478,-148.1039 166.5843,-155.8423 169.8306,-149.6406"/>
</g>
<!-- Node3 -->
<g id="node4" class="node">
<title>Node3</title>
<g id="a_node4"><a xlink:title=" ">
<polygon fill="none" stroke="#bfbfbf" points="242,-.5 242,-19.5 304,-19.5 304,-.5 242,-.5"/>
<text text-anchor="middle" x="273" y="-7.5" font-family="Fira Code" font-size="10.00" fill="#000000">string</text>
</a>
</g>
</g>
<!-- Node0&#45;&gt;Node3 -->
<g id="edge3" class="edge">
<title>Node0&#45;&gt;Node3</title>
<path fill="none" stroke="#191970" d="M251.7153,-190.1841C242.4537,-180.7871 231.9537,-167.9121 227,-154 219.7693,-133.6929 231.5615,-64.0287 235,-56 239.5879,-45.2876 247.4819,-35.107 254.8904,-27.0594"/>
<polygon fill="#191970" stroke="#191970" points="257.5141,-29.3822 261.9965,-19.7823 252.5059,-24.4917 257.5141,-29.3822"/>
</g>
<!-- Node4 -->
<g id="node5" class="node">
<title>Node4</title>
<g id="a_node5"><a xlink:title=" ">
<polygon fill="none" stroke="#bfbfbf" points="328,-.5 328,-19.5 450,-19.5 450,-.5 328,-.5"/>
<text text-anchor="middle" x="389" y="-7.5" font-family="Fira Code" font-size="10.00" fill="#000000">boost/asio.hpp</text>
</a>
</g>
</g>
<!-- Node0&#45;&gt;Node4 -->
<g id="edge4" class="edge">
<title>Node0&#45;&gt;Node4</title>
<path fill="none" stroke="#191970" d="M378.7261,-193.9614C461.187,-184.1543 562.0846,-169.2707 575,-154 624.5803,-95.378 501.0228,-45.1955 431.8889,-22.6732"/>
<polygon fill="#191970" stroke="#191970" points="432.7015,-19.2587 422.1107,-19.5533 430.5736,-25.9275 432.7015,-19.2587"/>
</g>
<!-- Node5 -->
<g id="node6" class="node">
<title>Node5</title>
<g id="a_node6"><a xlink:title=" ">
<polygon fill="none" stroke="#bfbfbf" points="444,-129 444,-148 566,-148 566,-129 444,-129"/>
<text text-anchor="middle" x="505" y="-136" font-family="Fira Code" font-size="10.00" fill="#000000">boost/bind.hpp</text>
</a>
</g>
</g>
<!-- Node0&#45;&gt;Node5 -->
<g id="edge5" class="edge">
<title>Node0&#45;&gt;Node5</title>
<path fill="none" stroke="#191970" d="M321.963,-190.4639C364.0938,-178.503 422.3105,-161.9754 461.687,-150.7965"/>
<polygon fill="#191970" stroke="#191970" points="462.8547,-154.1034 471.5187,-148.0053 460.943,-147.3695 462.8547,-154.1034"/>
</g>
<!-- Node6 -->
<g id="node7" class="node">
<title>Node6</title>
<g id="a_node7"><a xlink:href="../../d2/d4b/multicast__receiver_8hpp.html" target="_top" xlink:title="Receiver data using UDP in multicast mode.">
<polygon fill="none" stroke="#000000" points="236.5,-123.5 236.5,-153.5 425.5,-153.5 425.5,-123.5 236.5,-123.5"/>
<text text-anchor="start" x="244.5" y="-141.5" font-family="Fira Code" font-size="10.00" fill="#000000">travesim_adapters/udp</text>
<text text-anchor="middle" x="331" y="-130.5" font-family="Fira Code" font-size="10.00" fill="#000000">/multicast_receiver.hpp</text>
</a>
</g>
</g>
<!-- Node0&#45;&gt;Node6 -->
<g id="edge6" class="edge">
<title>Node0&#45;&gt;Node6</title>
<path fill="none" stroke="#191970" d="M283.0688,-190.2967C291.0751,-181.6446 301.255,-170.6438 310.172,-161.0076"/>
<polygon fill="#191970" stroke="#191970" points="312.7639,-163.36 316.9869,-153.6432 307.6261,-158.6057 312.7639,-163.36"/>
</g>
<!-- Node7 -->
<g id="node8" class="node">
<title>Node7</title>
<g id="a_node8"><a xlink:href="../../df/d3c/receiver_8hpp.html" target="_top" xlink:title="Receiver data using UDP.">
<polygon fill="none" stroke="#000000" points="244,-56.5 244,-86.5 418,-86.5 418,-56.5 244,-56.5"/>
<text text-anchor="start" x="252" y="-74.5" font-family="Fira Code" font-size="10.00" fill="#000000">travesim_adapters/udp</text>
<text text-anchor="middle" x="331" y="-63.5" font-family="Fira Code" font-size="10.00" fill="#000000">/receiver.hpp</text>
</a>
</g>
</g>
<!-- Node6&#45;&gt;Node7 -->
<g id="edge7" class="edge">
<title>Node6&#45;&gt;Node7</title>
<path fill="none" stroke="#191970" d="M331,-123.2967C331,-115.5013 331,-105.7991 331,-96.9064"/>
<polygon fill="#191970" stroke="#191970" points="334.5001,-96.6431 331,-86.6432 327.5001,-96.6432 334.5001,-96.6431"/>
</g>
<!-- Node7&#45;&gt;Node3 -->
<g id="edge9" class="edge">
<title>Node7&#45;&gt;Node3</title>
<path fill="none" stroke="#191970" d="M316.6629,-56.2977C308.3603,-47.4941 297.8818,-36.3833 289.2711,-27.2529"/>
<polygon fill="#191970" stroke="#191970" points="291.6939,-24.7206 282.2865,-19.8469 286.6013,-29.5234 291.6939,-24.7206"/>
</g>
<!-- Node7&#45;&gt;Node4 -->
<g id="edge8" class="edge">
<title>Node7&#45;&gt;Node4</title>
<path fill="none" stroke="#191970" d="M345.3371,-56.2977C353.6397,-47.4941 364.1182,-36.3833 372.7289,-27.2529"/>
<polygon fill="#191970" stroke="#191970" points="375.3987,-29.5234 379.7135,-19.8469 370.3061,-24.7206 375.3987,-29.5234"/>
</g>
</g>
</svg>
        <g id="navigator" transform="translate(0 0)" fill="#404254">
                <rect fill="#f2f5e9" fill-opacity="0.5" stroke="#606060" stroke-width=".5" x="0" y="0" width="60" height="60"/>
                <use id="zoomplus" xlink:href="#zoomPlus" x="17" y="9" onmousedown="handleZoom(evt,'in')"/>
                <use id="zoomminus" xlink:href="#zoomMin" x="42" y="9" onmousedown="handleZoom(evt,'out')"/>
                <use id="reset" xlink:href="#resetDef" x="30" y="36" onmousedown="handleReset()"/>
                <g id="arrowUp" xlink:href="#dirArrow" transform="translate(30 24)" onmousedown="handlePan(0,-1)">
                  <use xlink:href="#rim" fill="#404040">
                        <set attributeName="fill" to="#808080" begin="arrowUp.mouseover" end="arrowUp.mouseout"/>
                  </use>
                  <path fill="none" stroke="white" stroke-width="1.5" d="M0,-3.0v7 M-2.5,-0.5L0,-3.0L2.5,-0.5"/>
                </g>
                <g id="arrowRight" xlink:href="#dirArrow" transform="rotate(90) translate(36 -43)" onmousedown="handlePan(1,0)">
                  <use xlink:href="#rim" fill="#404040">
                        <set attributeName="fill" to="#808080" begin="arrowRight.mouseover" end="arrowRight.mouseout"/>
                  </use>
                  <path fill="none" stroke="white" stroke-width="1.5" d="M0,-3.0v7 M-2.5,-0.5L0,-3.0L2.5,-0.5"/>
                </g>
                <g id="arrowDown" xlink:href="#dirArrow" transform="rotate(180) translate(-30 -48)" onmousedown="handlePan(0,1)">
                  <use xlink:href="#rim" fill="#404040">
                        <set attributeName="fill" to="#808080" begin="arrowDown.mouseover" end="arrowDown.mouseout"/>
                  </use>
                  <path fill="none" stroke="white" stroke-width="1.5" d="M0,-3.0v7 M-2.5,-0.5L0,-3.0L2.5,-0.5"/>
                </g>
                <g id="arrowLeft" xlink:href="#dirArrow" transform="rotate(270) translate(-36 17)" onmousedown="handlePan(-1,0)">
                  <use xlink:href="#rim" fill="#404040">
                        <set attributeName="fill" to="#808080" begin="arrowLeft.mouseover" end="arrowLeft.mouseout"/>
                  </use>
                  <path fill="none" stroke="white" stroke-width="1.5" d="M0,-3.0v7 M-2.5,-0.5L0,-3.0L2.5,-0.5"/>
                </g>
        </g>
        <svg viewBox="0 0 15 15" width="100%" height="30px" preserveAspectRatio="xMaxYMin meet">
         <g id="arrow_out" transform="scale(0.3 0.3)">
          <a xlink:href="multicast__receiver__reset__example_8cpp__incl_org.svg" target="_base">
           <rect id="button" ry="5" rx="5" y="6" x="6" height="38" width="38"
                fill="#f2f5e9" fill-opacity="0.5" stroke="#606060" stroke-width="1.0"/>
           <path id="arrow"
             d="M 11.500037,31.436501 C 11.940474,20.09759 22.043105,11.32322 32.158766,21.979434 L 37.068811,17.246167 C 37.068811,17.246167 37.088388,32 37.088388,32 L 22.160133,31.978069 C 22.160133,31.978069 26.997745,27.140456 26.997745,27.140456 C 18.528582,18.264221 13.291696,25.230495 11.500037,31.436501 z"
             style="fill:#404040;"/>
          </a>
         </g>
        </svg>
</svg>
