<?xml version="1.0" encoding="UTF-8" standalone="no"?>
<!DOCTYPE svg PUBLIC "-//W3C//DTD SVG 1.1//EN"
 "http://www.w3.org/Graphics/SVG/1.1/DTD/svg11.dtd">
<!-- Generated by graphviz version 2.40.1 (0)
 -->
<!-- Title: src/lib/udp/sender.cpp Pages: 1 -->
<svg width="449pt" height="151pt"
 viewBox="0.00 0.00 448.50 151.00" xmlns="http://www.w3.org/2000/svg" xmlns:xlink="http://www.w3.org/1999/xlink">
<g id="graph0" class="graph" transform="scale(1 1) rotate(0) translate(4 147)">
<title>src/lib/udp/sender.cpp</title>
<!-- Node0 -->
<g id="node1" class="node">
<title>Node0</title>
<g id="a_node1"><a xlink:title="Send data using UDP.">
<polygon fill="#bfbfbf" stroke="#000000" points="84.5,-123.5 84.5,-142.5 266.5,-142.5 266.5,-123.5 84.5,-123.5"/>
<text text-anchor="middle" x="175.5" y="-130.5" font-family="Fira Code" font-size="10.00" fill="#000000">src/lib/udp/sender.cpp</text>
</a>
</g>
</g>
<!-- Node1 -->
<g id="node2" class="node">
<title>Node1</title>
<g id="a_node2"><a xlink:title=" ">
<polygon fill="none" stroke="#bfbfbf" points="0,-62 0,-81 77,-81 77,-62 0,-62"/>
<text text-anchor="middle" x="38.5" y="-69" font-family="Fira Code" font-size="10.00" fill="#000000">iostream</text>
</a>
</g>
</g>
<!-- Node0&#45;&gt;Node1 -->
<g id="edge1" class="edge">
<title>Node0&#45;&gt;Node1</title>
<path fill="none" stroke="#191970" d="M154.0938,-123.3906C131.2717,-113.1457 94.9321,-96.8326 69.0943,-85.2339"/>
<polygon fill="#191970" stroke="#191970" points="70.3123,-81.9443 59.7559,-81.0419 67.4455,-88.3303 70.3123,-81.9443"/>
</g>
<!-- Node2 -->
<g id="node3" class="node">
<title>Node2</title>
<g id="a_node3"><a xlink:title=" ">
<polygon fill="none" stroke="#bfbfbf" points="185.5,-.5 185.5,-19.5 247.5,-19.5 247.5,-.5 185.5,-.5"/>
<text text-anchor="middle" x="216.5" y="-7.5" font-family="Fira Code" font-size="10.00" fill="#000000">string</text>
</a>
</g>
</g>
<!-- Node0&#45;&gt;Node2 -->
<g id="edge2" class="edge">
<title>Node0&#45;&gt;Node2</title>
<path fill="none" stroke="#191970" d="M158.7627,-123.2988C146.7416,-115.2823 131.477,-102.6887 124.5,-87 118.9015,-74.411 117.2566,-67.7201 124.5,-56 135.7725,-37.7607 156.7094,-26.5115 175.7652,-19.7077"/>
<polygon fill="#191970" stroke="#191970" points="177.0709,-22.9636 185.4975,-16.5415 174.9053,-16.307 177.0709,-22.9636"/>
</g>
<!-- Node3 -->
<g id="node4" class="node">
<title>Node3</title>
<g id="a_node4"><a xlink:title=" ">
<polygon fill="none" stroke="#bfbfbf" points="133.5,-62 133.5,-81 217.5,-81 217.5,-62 133.5,-62"/>
<text text-anchor="middle" x="175.5" y="-69" font-family="Fira Code" font-size="10.00" fill="#000000">exception</text>
</a>
</g>
</g>
<!-- Node0&#45;&gt;Node3 -->
<g id="edge3" class="edge">
<title>Node0&#45;&gt;Node3</title>
<path fill="none" stroke="#191970" d="M175.5,-123.3906C175.5,-114.8657 175.5,-102.1392 175.5,-91.4235"/>
<polygon fill="#191970" stroke="#191970" points="179.0001,-91.2448 175.5,-81.2449 172.0001,-91.2449 179.0001,-91.2448"/>
</g>
<!-- Node4 -->
<g id="node5" class="node">
<title>Node4</title>
<g id="a_node5"><a xlink:title=" ">
<polygon fill="none" stroke="#bfbfbf" points="318.5,-.5 318.5,-19.5 440.5,-19.5 440.5,-.5 318.5,-.5"/>
<text text-anchor="middle" x="379.5" y="-7.5" font-family="Fira Code" font-size="10.00" fill="#000000">boost/asio.hpp</text>
</a>
</g>
</g>
<!-- Node0&#45;&gt;Node4 -->
<g id="edge4" class="edge">
<title>Node0&#45;&gt;Node4</title>
<path fill="none" stroke="#191970" d="M266.5408,-127.6339C327.1787,-121.9383 399.1543,-110.3515 418.5,-87 433.6988,-68.6542 414.9781,-43.3976 398.6062,-26.8895"/>
<polygon fill="#191970" stroke="#191970" points="400.5692,-23.9251 390.9168,-19.5569 395.7384,-28.991 400.5692,-23.9251"/>
</g>
<!-- Node5 -->
<g id="node6" class="node">
<title>Node5</title>
<g id="a_node6"><a xlink:href="../../db/d61/sender_8hpp.html" target="_top" xlink:title="Send data using UDP.">
<polygon fill="none" stroke="#000000" points="235.5,-56.5 235.5,-86.5 409.5,-86.5 409.5,-56.5 235.5,-56.5"/>
<text text-anchor="start" x="243.5" y="-74.5" font-family="Fira Code" font-size="10.00" fill="#000000">travesim_adapters/udp</text>
<text text-anchor="middle" x="322.5" y="-63.5" font-family="Fira Code" font-size="10.00" fill="#000000">/sender.hpp</text>
</a>
</g>
</g>
<!-- Node0&#45;&gt;Node5 -->
<g id="edge5" class="edge">
<title>Node0&#45;&gt;Node5</title>
<path fill="none" stroke="#191970" d="M198.4688,-123.3906C219.4687,-114.6049 251.1352,-101.3567 277.2145,-90.446"/>
<polygon fill="#191970" stroke="#191970" points="278.6654,-93.633 286.5398,-86.5446 275.9637,-87.1754 278.6654,-93.633"/>
</g>
<!-- Node5&#45;&gt;Node2 -->
<g id="edge7" class="edge">
<title>Node5&#45;&gt;Node2</title>
<path fill="none" stroke="#191970" d="M296.5695,-56.4554C279.9691,-46.8241 258.5256,-34.3828 242.0083,-24.7996"/>
<polygon fill="#191970" stroke="#191970" points="243.3323,-21.5214 232.9262,-19.5303 239.8194,-27.5761 243.3323,-21.5214"/>
</g>
<!-- Node5&#45;&gt;Node4 -->
<g id="edge6" class="edge">
<title>Node5&#45;&gt;Node4</title>
<path fill="none" stroke="#191970" d="M336.5899,-56.2977C344.7493,-47.4941 355.0472,-36.3833 363.5095,-27.2529"/>
<polygon fill="#191970" stroke="#191970" points="366.1429,-29.5604 370.3736,-19.8469 361.0089,-24.8021 366.1429,-29.5604"/>
</g>
</g>
</svg>
