<?xml version="1.0" encoding="UTF-8" standalone="no"?>
<!DOCTYPE svg PUBLIC "-//W3C//DTD SVG 1.1//EN"
 "http://www.w3.org/Graphics/SVG/1.1/DTD/svg11.dtd">
<!-- Generated by graphviz version 2.40.1 (0)
 -->
<!-- Title: examples/configurers/teams_configurer_example.cpp Pages: 1 -->
<svg width="841pt" height="240pt"
 viewBox="0.00 0.00 841.00 240.00" xmlns="http://www.w3.org/2000/svg" xmlns:xlink="http://www.w3.org/1999/xlink">
<g id="graph0" class="graph" transform="scale(1 1) rotate(0) translate(4 236)">
<title>examples/configurers/teams_configurer_example.cpp</title>
<!-- Node0 -->
<g id="node1" class="node">
<title>Node0</title>
<g id="a_node1"><a xlink:title="Example on how to use the TeamsConfigurer.">
<polygon fill="#bfbfbf" stroke="#000000" points="0,-201.5 0,-231.5 234,-231.5 234,-201.5 0,-201.5"/>
<text text-anchor="start" x="8" y="-219.5" font-family="Fira Code" font-size="10.00" fill="#000000">examples/configurers</text>
<text text-anchor="middle" x="117" y="-208.5" font-family="Fira Code" font-size="10.00" fill="#000000">/teams_configurer_example.cpp</text>
</a>
</g>
</g>
<!-- Node1 -->
<g id="node2" class="node">
<title>Node1</title>
<g id="a_node2"><a xlink:title=" ">
<polygon fill="none" stroke="#bfbfbf" points="147,-6 147,-25 231,-25 231,-6 147,-6"/>
<text text-anchor="middle" x="189" y="-13" font-family="Fira Code" font-size="10.00" fill="#000000">ros/ros.h</text>
</a>
</g>
</g>
<!-- Node0&#45;&gt;Node1 -->
<g id="edge1" class="edge">
<title>Node0&#45;&gt;Node1</title>
<path fill="none" stroke="#191970" d="M103.2033,-201.3782C79.1046,-173.0607 34.5842,-110.9339 64,-67 80.2685,-42.7022 110.307,-29.8568 136.86,-23.0716"/>
<polygon fill="#191970" stroke="#191970" points="137.8808,-26.4277 146.83,-20.7565 136.2975,-19.6091 137.8808,-26.4277"/>
</g>
<!-- Node2 -->
<g id="node3" class="node">
<title>Node2</title>
<g id="a_node3"><a xlink:href="../../d0/d61/teams__configurer_8hpp.html" target="_top" xlink:title="Configurer for the teams.">
<polygon fill="none" stroke="#000000" points="124,-134.5 124,-164.5 358,-164.5 358,-134.5 124,-134.5"/>
<text text-anchor="start" x="132" y="-152.5" font-family="Fira Code" font-size="10.00" fill="#000000">travesim_adapters/configurers</text>
<text text-anchor="middle" x="241" y="-141.5" font-family="Fira Code" font-size="10.00" fill="#000000">/teams_configurer.hpp</text>
</a>
</g>
</g>
<!-- Node0&#45;&gt;Node2 -->
<g id="edge2" class="edge">
<title>Node0&#45;&gt;Node2</title>
<path fill="none" stroke="#191970" d="M144.828,-201.4639C162.2553,-192.0475 184.9209,-179.8008 203.8709,-169.5617"/>
<polygon fill="#191970" stroke="#191970" points="205.7018,-172.5507 212.8358,-164.7177 202.3741,-166.3922 205.7018,-172.5507"/>
</g>
<!-- Node3 -->
<g id="node4" class="node">
<title>Node3</title>
<g id="a_node4"><a xlink:title=" ">
<polygon fill="none" stroke="#bfbfbf" points="73.5,-73 73.5,-92 150.5,-92 150.5,-73 73.5,-73"/>
<text text-anchor="middle" x="112" y="-80" font-family="Fira Code" font-size="10.00" fill="#000000">iostream</text>
</a>
</g>
</g>
<!-- Node2&#45;&gt;Node3 -->
<g id="edge3" class="edge">
<title>Node2&#45;&gt;Node3</title>
<path fill="none" stroke="#191970" d="M212.0499,-134.4639C190.3078,-123.1715 160.7284,-107.8086 139.3773,-96.7192"/>
<polygon fill="#191970" stroke="#191970" points="140.9788,-93.6071 130.4911,-92.1039 137.7523,-99.8192 140.9788,-93.6071"/>
</g>
<!-- Node4 -->
<g id="node5" class="node">
<title>Node4</title>
<g id="a_node5"><a xlink:title=" ">
<polygon fill="none" stroke="#bfbfbf" points="168.5,-73 168.5,-92 417.5,-92 417.5,-73 168.5,-73"/>
<text text-anchor="middle" x="293" y="-80" font-family="Fira Code" font-size="10.00" fill="#000000">travesim_adapters/TeamsConfig.h</text>
</a>
</g>
</g>
<!-- Node2&#45;&gt;Node4 -->
<g id="edge4" class="edge">
<title>Node2&#45;&gt;Node4</title>
<path fill="none" stroke="#191970" d="M252.7996,-134.2967C260.6655,-124.1618 271.0327,-110.804 279.2688,-100.1921"/>
<polygon fill="#191970" stroke="#191970" points="282.2179,-102.1008 285.5842,-92.055 276.688,-97.8089 282.2179,-102.1008"/>
</g>
<!-- Node5 -->
<g id="node6" class="node">
<title>Node5</title>
<g id="a_node6"><a xlink:href="../../d1/d79/adapter__configurer_8hpp.html" target="_top" xlink:title="Template configurer for an adapter.">
<polygon fill="none" stroke="#000000" points="436,-67.5 436,-97.5 670,-97.5 670,-67.5 436,-67.5"/>
<text text-anchor="start" x="444" y="-85.5" font-family="Fira Code" font-size="10.00" fill="#000000">travesim_adapters/configurers</text>
<text text-anchor="middle" x="553" y="-74.5" font-family="Fira Code" font-size="10.00" fill="#000000">/adapter_configurer.hpp</text>
</a>
</g>
</g>
<!-- Node2&#45;&gt;Node5 -->
<g id="edge5" class="edge">
<title>Node2&#45;&gt;Node5</title>
<path fill="none" stroke="#191970" d="M311.0189,-134.4639C359.1071,-124.1373 423.0472,-110.4065 473.1238,-99.6529"/>
<polygon fill="#191970" stroke="#191970" points="473.9032,-103.0654 482.9454,-97.5438 472.4334,-96.2214 473.9032,-103.0654"/>
</g>
<!-- Node5&#45;&gt;Node1 -->
<g id="edge7" class="edge">
<title>Node5&#45;&gt;Node1</title>
<path fill="none" stroke="#191970" d="M471.3113,-67.4639C400.9698,-54.5164 301.5559,-36.2177 241.399,-25.1449"/>
<polygon fill="#191970" stroke="#191970" points="241.8344,-21.6663 231.366,-23.2981 240.5671,-28.5506 241.8344,-21.6663"/>
</g>
<!-- Node6 -->
<g id="node7" class="node">
<title>Node6</title>
<g id="a_node7"><a xlink:title=" ">
<polygon fill="none" stroke="#bfbfbf" points="393,-6 393,-25 455,-25 455,-6 393,-6"/>
<text text-anchor="middle" x="424" y="-13" font-family="Fira Code" font-size="10.00" fill="#000000">memory</text>
</a>
</g>
</g>
<!-- Node5&#45;&gt;Node6 -->
<g id="edge6" class="edge">
<title>Node5&#45;&gt;Node6</title>
<path fill="none" stroke="#191970" d="M524.0499,-67.4639C502.3078,-56.1715 472.7284,-40.8086 451.3773,-29.7192"/>
<polygon fill="#191970" stroke="#191970" points="452.9788,-26.6071 442.4911,-25.1039 449.7523,-32.8192 452.9788,-26.6071"/>
</g>
<!-- Node7 -->
<g id="node8" class="node">
<title>Node7</title>
<g id="a_node8"><a xlink:title=" ">
<polygon fill="none" stroke="#bfbfbf" points="473.5,-.5 473.5,-30.5 632.5,-30.5 632.5,-.5 473.5,-.5"/>
<text text-anchor="start" x="481.5" y="-18.5" font-family="Fira Code" font-size="10.00" fill="#000000">dynamic_reconfigure</text>
<text text-anchor="middle" x="553" y="-7.5" font-family="Fira Code" font-size="10.00" fill="#000000">/server.h</text>
</a>
</g>
</g>
<!-- Node5&#45;&gt;Node7 -->
<g id="edge8" class="edge">
<title>Node5&#45;&gt;Node7</title>
<path fill="none" stroke="#191970" d="M553,-67.2967C553,-59.5013 553,-49.7991 553,-40.9064"/>
<polygon fill="#191970" stroke="#191970" points="556.5001,-40.6431 553,-30.6432 549.5001,-40.6432 556.5001,-40.6431"/>
</g>
<!-- Node8 -->
<g id="node9" class="node">
<title>Node8</title>
<g id="a_node9"><a xlink:title=" ">
<polygon fill="none" stroke="#bfbfbf" points="651,-.5 651,-30.5 833,-30.5 833,-.5 651,-.5"/>
<text text-anchor="start" x="659" y="-18.5" font-family="Fira Code" font-size="10.00" fill="#000000">boost/thread/recursive</text>
<text text-anchor="middle" x="742" y="-7.5" font-family="Fira Code" font-size="10.00" fill="#000000">_mutex.hpp</text>
</a>
</g>
</g>
<!-- Node5&#45;&gt;Node8 -->
<g id="edge9" class="edge">
<title>Node5&#45;&gt;Node8</title>
<path fill="none" stroke="#191970" d="M595.4153,-67.4639C623.283,-57.5849 659.9389,-44.5905 689.623,-34.0675"/>
<polygon fill="#191970" stroke="#191970" points="691.1439,-37.2418 699.3997,-30.6017 688.805,-30.6441 691.1439,-37.2418"/>
</g>
</g>
</svg>
