<?xml version="1.0" encoding="UTF-8" standalone="no"?>
<!DOCTYPE svg PUBLIC "-//W3C//DTD SVG 1.1//EN"
 "http://www.w3.org/Graphics/SVG/1.1/DTD/svg11.dtd">
<!-- Generated by graphviz version 2.40.1 (0)
 -->
<!-- Title: src/lib Pages: 1 -->
<!--zoomable 159 -->
<svg id="main" version="1.1" xmlns="http://www.w3.org/2000/svg" xmlns:xlink="http://www.w3.org/1999/xlink" xml:space="preserve" onload="init(evt)">
<style type="text/css"><![CDATA[
.edge:hover path { stroke: red; }
.edge:hover polygon { stroke: red; fill: red; }
]]></style>
<script type="text/javascript"><![CDATA[
var edges = document.getElementsByTagName('g');
if (edges && edges.length) {
  for (var i=0;i<edges.length;i++) {
    if (edges[i].id.substr(0,4)=='edge') {
      edges[i].setAttribute('class','edge');
    }
  }
}
]]></script>
        <defs>
                <circle id="rim" cx="0" cy="0" r="7"/>
                <circle id="rim2" cx="0" cy="0" r="3.5"/>
                <g id="zoomPlus">
                        <use xlink:href="#rim" fill="#404040">
                                <set attributeName="fill" to="#808080" begin="zoomplus.mouseover" end="zoomplus.mouseout"/>
                        </use>
                        <path d="M-4,0h8M0,-4v8" fill="none" stroke="white" stroke-width="1.5" pointer-events="none"/>
                </g>
                <g id="zoomMin">
                        <use xlink:href="#rim" fill="#404040">
                                <set attributeName="fill" to="#808080" begin="zoomminus.mouseover" end="zoomminus.mouseout"/>
                        </use>
                        <path d="M-4,0h8" fill="none" stroke="white" stroke-width="1.5" pointer-events="none"/>
                </g>
                <g id="dirArrow">
                        <path fill="none" stroke="white" stroke-width="1.5" d="M0,-3.0v7 M-2.5,-0.5L0,-3.0L2.5,-0.5"/>
                </g>
               <g id="resetDef">
                       <use xlink:href="#rim2" fill="#404040">
                               <set attributeName="fill" to="#808080" begin="reset.mouseover" end="reset.mouseout"/>
                       </use>
               </g>
        </defs>

<script type="text/javascript">
var viewWidth = 540;
var viewHeight = 159;
var sectionId = 'dynsection-0';
</script>
<script xlink:href="svgpan.js"/>
<svg id="graph" class="graph">
<g id="viewport">
<title>src/lib</title>
<g id="clust1" class="cluster">
<title>clusterdir_68267d1309a1af8e8297ef4c3efbcdba</title>
<g id="a_clust1"><a xlink:href="dir_68267d1309a1af8e8297ef4c3efbcdba.html" target="_top" xlink:title="src">
<polygon fill="#ddddee" stroke="#000000" points="8,-56 8,-143 524,-143 524,-56 8,-56"/>
<text text-anchor="middle" x="266" y="-131" font-family="Fira Code" font-size="10.00" fill="#000000">src</text>
</a>
</g>
</g>
<g id="clust2" class="cluster">
<title>clusterdir_c85d3e3c5052e9ad9ce18c6863244a25</title>
<g id="a_clust2"><a xlink:href="dir_c85d3e3c5052e9ad9ce18c6863244a25.html" target="_top">
<polygon fill="#eeeeff" stroke="#000000" points="16,-64 16,-116 516,-116 516,-64 16,-64"/>
</a>
</g>
</g>
<!-- dir_c85d3e3c5052e9ad9ce18c6863244a25 -->
<g id="node1" class="node">
<title>dir_c85d3e3c5052e9ad9ce18c6863244a25</title>
<text text-anchor="middle" x="481" y="-87.5" font-family="Fira Code" font-size="10.00" fill="#000000">lib</text>
</g>
<!-- dir_8adc1deb7a394f71e976b749b69166f5 -->
<g id="node2" class="node">
<title>dir_8adc1deb7a394f71e976b749b69166f5</title>
<g id="a_node2"><a xlink:href="dir_8adc1deb7a394f71e976b749b69166f5.html" target="_top" xlink:title="configurers">
<polygon fill="#ffffff" stroke="#ff0000" points="435.5,-108 336.5,-108 336.5,-72 435.5,-72 435.5,-108"/>
<text text-anchor="middle" x="386" y="-87.5" font-family="Fira Code" font-size="10.00" fill="#000000">configurers</text>
</a>
</g>
</g>
<!-- dir_d44c64559bbebec7f509842c48db8b23 -->
<g id="node7" class="node">
<title>dir_d44c64559bbebec7f509842c48db8b23</title>
<g id="a_node7"><a xlink:href="dir_d44c64559bbebec7f509842c48db8b23.html" target="_top" xlink:title="include">
<polygon fill="none" stroke="#ff0000" points="241.5,-36 172.5,-36 172.5,0 241.5,0 241.5,-36"/>
<text text-anchor="middle" x="207" y="-15.5" font-family="Fira Code" font-size="10.00" fill="#000000">include</text>
</a>
</g>
</g>
<!-- dir_8adc1deb7a394f71e976b749b69166f5&#45;&gt;dir_d44c64559bbebec7f509842c48db8b23 -->
<g id="edge5" class="edge">
<title>dir_8adc1deb7a394f71e976b749b69166f5&#45;&gt;dir_d44c64559bbebec7f509842c48db8b23</title>
<path fill="none" stroke="#000000" d="M357.5412,-71.9412C348.0539,-66.3744 337.2789,-60.5255 327,-56 302.6961,-45.2997 274.4269,-36.1957 251.4331,-29.5835"/>
<polygon fill="#000000" stroke="#000000" points="252.176,-26.1566 241.6016,-26.8146 250.2783,-32.8945 252.176,-26.1566"/>
<g id="a_edge5&#45;headlabel"><a xlink:href="dir_000017_000004.html" target="_top" xlink:title="8">
<text text-anchor="middle" x="256.4056" y="-21.898" font-family="Fira Code" font-size="10.00" fill="#000000">8</text>
</a>
</g>
</g>
<!-- dir_868a85b1ada935d5cbde51d7e297cf7d -->
<g id="node3" class="node">
<title>dir_868a85b1ada935d5cbde51d7e297cf7d</title>
<g id="a_node3"><a xlink:href="dir_868a85b1ada935d5cbde51d7e297cf7d.html" target="_top" xlink:title="data">
<polygon fill="#ffffff" stroke="#ff0000" points="318,-108 264,-108 264,-72 318,-72 318,-108"/>
<text text-anchor="middle" x="291" y="-87.5" font-family="Fira Code" font-size="10.00" fill="#000000">data</text>
</a>
</g>
</g>
<!-- dir_868a85b1ada935d5cbde51d7e297cf7d&#45;&gt;dir_d44c64559bbebec7f509842c48db8b23 -->
<g id="edge3" class="edge">
<title>dir_868a85b1ada935d5cbde51d7e297cf7d&#45;&gt;dir_d44c64559bbebec7f509842c48db8b23</title>
<path fill="none" stroke="#000000" d="M272.2289,-71.6857C266.7629,-66.5142 260.7212,-60.9498 255,-56 249.8156,-51.5146 244.1965,-46.8771 238.691,-42.449"/>
<polygon fill="#000000" stroke="#000000" points="240.7761,-39.6354 230.7699,-36.1531 236.4206,-45.1153 240.7761,-39.6354"/>
<g id="a_edge3&#45;headlabel"><a xlink:href="dir_000019_000004.html" target="_top" xlink:title="10">
<text text-anchor="middle" x="245.3568" y="-37.1493" font-family="Fira Code" font-size="10.00" fill="#000000">10</text>
</a>
</g>
</g>
<!-- dir_816d15aa7fd93e603ea478ab74a7e882 -->
<g id="node4" class="node">
<title>dir_816d15aa7fd93e603ea478ab74a7e882</title>
<g id="a_node4"><a xlink:href="dir_816d15aa7fd93e603ea478ab74a7e882.html" target="_top" xlink:title="protobuf">
<polygon fill="#ffffff" stroke="#000000" points="245.5,-108 168.5,-108 168.5,-72 245.5,-72 245.5,-108"/>
<text text-anchor="middle" x="207" y="-87.5" font-family="Fira Code" font-size="10.00" fill="#000000">protobuf</text>
</a>
</g>
</g>
<!-- dir_816d15aa7fd93e603ea478ab74a7e882&#45;&gt;dir_d44c64559bbebec7f509842c48db8b23 -->
<g id="edge1" class="edge">
<title>dir_816d15aa7fd93e603ea478ab74a7e882&#45;&gt;dir_d44c64559bbebec7f509842c48db8b23</title>
<path fill="none" stroke="#000000" d="M207,-71.8314C207,-64.131 207,-54.9743 207,-46.4166"/>
<polygon fill="#000000" stroke="#000000" points="210.5001,-46.4132 207,-36.4133 203.5001,-46.4133 210.5001,-46.4132"/>
<g id="a_edge1&#45;headlabel"><a xlink:href="dir_000022_000004.html" target="_top" xlink:title="3">
<text text-anchor="middle" x="213.3393" y="-47.5079" font-family="Fira Code" font-size="10.00" fill="#000000">3</text>
</a>
</g>
</g>
<!-- dir_d035839c8640f6b92f6a24c5fe236dcb -->
<g id="node5" class="node">
<title>dir_d035839c8640f6b92f6a24c5fe236dcb</title>
<g id="a_node5"><a xlink:href="dir_d035839c8640f6b92f6a24c5fe236dcb.html" target="_top" xlink:title="ros">
<polygon fill="#ffffff" stroke="#ff0000" points="150,-108 96,-108 96,-72 150,-72 150,-108"/>
<text text-anchor="middle" x="123" y="-87.5" font-family="Fira Code" font-size="10.00" fill="#000000">ros</text>
</a>
</g>
</g>
<!-- dir_d035839c8640f6b92f6a24c5fe236dcb&#45;&gt;dir_d44c64559bbebec7f509842c48db8b23 -->
<g id="edge2" class="edge">
<title>dir_d035839c8640f6b92f6a24c5fe236dcb&#45;&gt;dir_d44c64559bbebec7f509842c48db8b23</title>
<path fill="none" stroke="#000000" d="M142.3777,-71.7675C147.9968,-66.5972 154.1858,-61.0131 160,-56 165.0066,-51.6833 170.3955,-47.1898 175.6752,-42.868"/>
<polygon fill="#000000" stroke="#000000" points="178.2502,-45.286 183.8115,-36.2681 173.8404,-39.8497 178.2502,-45.286"/>
<g id="a_edge2&#45;headlabel"><a xlink:href="dir_000023_000004.html" target="_top" xlink:title="4">
<text text-anchor="middle" x="177.2472" y="-47.2555" font-family="Fira Code" font-size="10.00" fill="#000000">4</text>
</a>
</g>
</g>
<!-- dir_3f4a378d6ed9429ca9ee2d7eaeb39e26 -->
<g id="node6" class="node">
<title>dir_3f4a378d6ed9429ca9ee2d7eaeb39e26</title>
<g id="a_node6"><a xlink:href="dir_3f4a378d6ed9429ca9ee2d7eaeb39e26.html" target="_top" xlink:title="udp">
<polygon fill="#ffffff" stroke="#000000" points="78,-108 24,-108 24,-72 78,-72 78,-108"/>
<text text-anchor="middle" x="51" y="-87.5" font-family="Fira Code" font-size="10.00" fill="#000000">udp</text>
</a>
</g>
</g>
<!-- dir_3f4a378d6ed9429ca9ee2d7eaeb39e26&#45;&gt;dir_d44c64559bbebec7f509842c48db8b23 -->
<g id="edge4" class="edge">
<title>dir_3f4a378d6ed9429ca9ee2d7eaeb39e26&#45;&gt;dir_d44c64559bbebec7f509842c48db8b23</title>
<path fill="none" stroke="#000000" d="M67.2734,-71.6617C73.0458,-66.012 79.8866,-60.1846 87,-56 110.3206,-42.281 139.1528,-32.9436 162.7103,-26.9585"/>
<polygon fill="#000000" stroke="#000000" points="163.5588,-30.3543 172.452,-24.5958 161.9088,-23.5515 163.5588,-30.3543"/>
<g id="a_edge4&#45;headlabel"><a xlink:href="dir_000025_000004.html" target="_top" xlink:title="6">
<text text-anchor="middle" x="160.7347" y="-31.4608" font-family="Fira Code" font-size="10.00" fill="#000000">6</text>
</a>
</g>
</g>
</g>
</svg>
        <g id="navigator" transform="translate(0 0)" fill="#404254">
                <rect fill="#f2f5e9" fill-opacity="0.5" stroke="#606060" stroke-width=".5" x="0" y="0" width="60" height="60"/>
                <use id="zoomplus" xlink:href="#zoomPlus" x="17" y="9" onmousedown="handleZoom(evt,'in')"/>
                <use id="zoomminus" xlink:href="#zoomMin" x="42" y="9" onmousedown="handleZoom(evt,'out')"/>
                <use id="reset" xlink:href="#resetDef" x="30" y="36" onmousedown="handleReset()"/>
                <g id="arrowUp" xlink:href="#dirArrow" transform="translate(30 24)" onmousedown="handlePan(0,-1)">
                  <use xlink:href="#rim" fill="#404040">
                        <set attributeName="fill" to="#808080" begin="arrowUp.mouseover" end="arrowUp.mouseout"/>
                  </use>
                  <path fill="none" stroke="white" stroke-width="1.5" d="M0,-3.0v7 M-2.5,-0.5L0,-3.0L2.5,-0.5"/>
                </g>
                <g id="arrowRight" xlink:href="#dirArrow" transform="rotate(90) translate(36 -43)" onmousedown="handlePan(1,0)">
                  <use xlink:href="#rim" fill="#404040">
                        <set attributeName="fill" to="#808080" begin="arrowRight.mouseover" end="arrowRight.mouseout"/>
                  </use>
                  <path fill="none" stroke="white" stroke-width="1.5" d="M0,-3.0v7 M-2.5,-0.5L0,-3.0L2.5,-0.5"/>
                </g>
                <g id="arrowDown" xlink:href="#dirArrow" transform="rotate(180) translate(-30 -48)" onmousedown="handlePan(0,1)">
                  <use xlink:href="#rim" fill="#404040">
                        <set attributeName="fill" to="#808080" begin="arrowDown.mouseover" end="arrowDown.mouseout"/>
                  </use>
                  <path fill="none" stroke="white" stroke-width="1.5" d="M0,-3.0v7 M-2.5,-0.5L0,-3.0L2.5,-0.5"/>
                </g>
                <g id="arrowLeft" xlink:href="#dirArrow" transform="rotate(270) translate(-36 17)" onmousedown="handlePan(-1,0)">
                  <use xlink:href="#rim" fill="#404040">
                        <set attributeName="fill" to="#808080" begin="arrowLeft.mouseover" end="arrowLeft.mouseout"/>
                  </use>
                  <path fill="none" stroke="white" stroke-width="1.5" d="M0,-3.0v7 M-2.5,-0.5L0,-3.0L2.5,-0.5"/>
                </g>
        </g>
        <svg viewBox="0 0 15 15" width="100%" height="30px" preserveAspectRatio="xMaxYMin meet">
         <g id="arrow_out" transform="scale(0.3 0.3)">
          <a xlink:href="dir_c85d3e3c5052e9ad9ce18c6863244a25_dep_org.svg" target="_base">
           <rect id="button" ry="5" rx="5" y="6" x="6" height="38" width="38"
                fill="#f2f5e9" fill-opacity="0.5" stroke="#606060" stroke-width="1.0"/>
           <path id="arrow"
             d="M 11.500037,31.436501 C 11.940474,20.09759 22.043105,11.32322 32.158766,21.979434 L 37.068811,17.246167 C 37.068811,17.246167 37.088388,32 37.088388,32 L 22.160133,31.978069 C 22.160133,31.978069 26.997745,27.140456 26.997745,27.140456 C 18.528582,18.264221 13.291696,25.230495 11.500037,31.436501 z"
             style="fill:#404040;"/>
          </a>
         </g>
        </svg>
</svg>
