<?xml version="1.0" encoding="UTF-8" standalone="no"?>
<!DOCTYPE svg PUBLIC "-//W3C//DTD SVG 1.1//EN"
 "http://www.w3.org/Graphics/SVG/1.1/DTD/svg11.dtd">
<!-- Generated by graphviz version 2.40.1 (0)
 -->
<!-- Title: Graph Legend Pages: 1 -->
<svg width="665pt" height="159pt"
 viewBox="0.00 0.00 664.50 159.00" xmlns="http://www.w3.org/2000/svg" xmlns:xlink="http://www.w3.org/1999/xlink">
<g id="graph0" class="graph" transform="scale(1 1) rotate(0) translate(4 155)">
<title>Graph Legend</title>
<!-- Node9 -->
<g id="node1" class="node">
<title>Node9</title>
<polygon fill="#bfbfbf" stroke="#000000" points="394,-19 310,-19 310,0 394,0 394,-19"/>
<text text-anchor="middle" x="352" y="-7" font-family="Fira Code" font-size="10.00" fill="#000000">Inherited</text>
</g>
<!-- Node10 -->
<g id="node2" class="node">
<title>Node10</title>
<g id="a_node2"><a xlink:href="$classPublicBase.html" xlink:title="PublicBase">
<polygon fill="none" stroke="#000000" points="92,-85 0,-85 0,-66 92,-66 92,-85"/>
<text text-anchor="middle" x="46" y="-73" font-family="Fira Code" font-size="10.00" fill="#000000">PublicBase</text>
</a>
</g>
</g>
<!-- Node10&#45;&gt;Node9 -->
<g id="edge1" class="edge">
<title>Node10&#45;&gt;Node9</title>
<path fill="none" stroke="#191970" d="M100.1915,-63.8116C160.0706,-50.8965 255.2345,-30.371 309.814,-18.5989"/>
<polygon fill="#191970" stroke="#191970" points="99.2055,-60.4437 90.1682,-65.9735 100.6814,-67.2864 99.2055,-60.4437"/>
</g>
<!-- Node11 -->
<g id="node3" class="node">
<title>Node11</title>
<g id="a_node3"><a xlink:href="$classTruncated.html" xlink:title="Truncated">
<polygon fill="none" stroke="#ff0000" points="88,-151 4,-151 4,-132 88,-132 88,-151"/>
<text text-anchor="middle" x="46" y="-139" font-family="Fira Code" font-size="10.00" fill="#000000">Truncated</text>
</a>
</g>
</g>
<!-- Node11&#45;&gt;Node10 -->
<g id="edge2" class="edge">
<title>Node11&#45;&gt;Node10</title>
<path fill="none" stroke="#191970" d="M46,-121.732C46,-109.6966 46,-94.847 46,-85.2785"/>
<polygon fill="#191970" stroke="#191970" points="42.5001,-121.7614 46,-131.7615 49.5001,-121.7615 42.5001,-121.7614"/>
</g>
<!-- Node13 -->
<g id="node4" class="node">
<title>Node13</title>
<g id="a_node4"><a xlink:href="$classProtectedBase.html" xlink:title="ProtectedBase">
<polygon fill="none" stroke="#000000" points="224,-85 110,-85 110,-66 224,-66 224,-85"/>
<text text-anchor="middle" x="167" y="-73" font-family="Fira Code" font-size="10.00" fill="#000000">ProtectedBase</text>
</a>
</g>
</g>
<!-- Node13&#45;&gt;Node9 -->
<g id="edge3" class="edge">
<title>Node13&#45;&gt;Node9</title>
<path fill="none" stroke="#006400" d="M203.5136,-62.4735C239.4092,-49.6675 293.3364,-30.4286 325.3671,-19.0015"/>
<polygon fill="#006400" stroke="#006400" points="202.1431,-59.2463 193.9006,-65.903 204.4952,-65.8393 202.1431,-59.2463"/>
</g>
<!-- Node14 -->
<g id="node5" class="node">
<title>Node14</title>
<g id="a_node5"><a xlink:href="$classPrivateBase.html" xlink:title="PrivateBase">
<polygon fill="none" stroke="#000000" points="341.5,-85 242.5,-85 242.5,-66 341.5,-66 341.5,-85"/>
<text text-anchor="middle" x="292" y="-73" font-family="Fira Code" font-size="10.00" fill="#000000">PrivateBase</text>
</a>
</g>
</g>
<!-- Node14&#45;&gt;Node9 -->
<g id="edge4" class="edge">
<title>Node14&#45;&gt;Node9</title>
<path fill="none" stroke="#8b1a1a" d="M307.6682,-58.265C318.9592,-45.8449 333.7905,-29.5304 343.1105,-19.2785"/>
<polygon fill="#8b1a1a" stroke="#8b1a1a" points="304.9902,-56.0077 300.8532,-65.7615 310.1698,-60.7164 304.9902,-56.0077"/>
</g>
<!-- Node15 -->
<g id="node6" class="node">
<title>Node15</title>
<polygon fill="none" stroke="#bfbfbf" points="466.5,-85 359.5,-85 359.5,-66 466.5,-66 466.5,-85"/>
<text text-anchor="middle" x="413" y="-73" font-family="Fira Code" font-size="10.00" fill="#000000">Undocumented</text>
</g>
<!-- Node15&#45;&gt;Node9 -->
<g id="edge5" class="edge">
<title>Node15&#45;&gt;Node9</title>
<path fill="none" stroke="#191970" d="M397.0706,-58.265C385.5915,-45.8449 370.513,-29.5304 361.0377,-19.2785"/>
<polygon fill="#191970" stroke="#191970" points="394.6415,-60.7933 403.9992,-65.7615 399.7821,-56.0421 394.6415,-60.7933"/>
</g>
<!-- Node16 -->
<g id="node7" class="node">
<title>Node16</title>
<g id="a_node7"><a xlink:href="$classTempl.html" xlink:title="Templ&lt; int &gt;">
<polygon fill="none" stroke="#000000" points="591.5,-85 484.5,-85 484.5,-66 591.5,-66 591.5,-85"/>
<text text-anchor="middle" x="538" y="-73" font-family="Fira Code" font-size="10.00" fill="#000000">Templ&lt; int &gt;</text>
</a>
</g>
</g>
<!-- Node16&#45;&gt;Node9 -->
<g id="edge6" class="edge">
<title>Node16&#45;&gt;Node9</title>
<path fill="none" stroke="#191970" d="M501.289,-62.4735C465.1994,-49.6675 410.9807,-30.4286 378.7769,-19.0015"/>
<polygon fill="#191970" stroke="#191970" points="500.3593,-65.8574 510.954,-65.903 502.7002,-59.2604 500.3593,-65.8574"/>
</g>
<!-- Node17 -->
<g id="node8" class="node">
<title>Node17</title>
<g id="a_node8"><a xlink:href="$classTempl.html" xlink:title="Templ&lt; T &gt;">
<polygon fill="none" stroke="#000000" points="584,-151 492,-151 492,-132 584,-132 584,-151"/>
<text text-anchor="middle" x="538" y="-139" font-family="Fira Code" font-size="10.00" fill="#000000">Templ&lt; T &gt;</text>
</a>
</g>
</g>
<!-- Node17&#45;&gt;Node16 -->
<g id="edge7" class="edge">
<title>Node17&#45;&gt;Node16</title>
<path fill="none" stroke="#ffa500" stroke-dasharray="5,2" d="M538,-121.732C538,-109.6966 538,-94.847 538,-85.2785"/>
<polygon fill="#ffa500" stroke="#ffa500" points="534.5001,-121.7614 538,-131.7615 541.5001,-121.7615 534.5001,-121.7614"/>
<text text-anchor="middle" x="564.5" y="-106" font-family="Fira Code" font-size="10.00" fill="#000000">&lt; int &gt;</text>
</g>
<!-- Node18 -->
<g id="node9" class="node">
<title>Node18</title>
<g id="a_node9"><a xlink:href="$classUsed.html" xlink:title="Used">
<polygon fill="none" stroke="#000000" points="656.5,-85 609.5,-85 609.5,-66 656.5,-66 656.5,-85"/>
<text text-anchor="middle" x="633" y="-73" font-family="Fira Code" font-size="10.00" fill="#000000">Used</text>
</a>
</g>
</g>
<!-- Node18&#45;&gt;Node9 -->
<g id="edge8" class="edge">
<title>Node18&#45;&gt;Node9</title>
<path fill="none" stroke="#9a32cd" stroke-dasharray="5,2" d="M599.3524,-65.6794C521.8246,-45.5933 441.6908,-28.1725 394.0572,-18.1647"/>
<polygon fill="#9a32cd" stroke="#9a32cd" points="598.7231,-69.1324 609.2829,-68.2709 600.4907,-62.3592 598.7231,-69.1324"/>
<text text-anchor="middle" x="567.5" y="-40" font-family="Fira Code" font-size="10.00" fill="#000000">m_usedClass</text>
</g>
</g>
</svg>
