<?xml version="1.0" encoding="UTF-8" standalone="no"?>
<!DOCTYPE svg PUBLIC "-//W3C//DTD SVG 1.1//EN"
 "http://www.w3.org/Graphics/SVG/1.1/DTD/svg11.dtd">
<!-- Generated by graphviz version 2.40.1 (0)
 -->
<!-- Title: Graphical Class Hierarchy Pages: 1 -->
<svg width="445pt" height="78pt"
 viewBox="0.00 0.00 445.00 77.50" xmlns="http://www.w3.org/2000/svg" xmlns:xlink="http://www.w3.org/1999/xlink">
<g id="graph0" class="graph" transform="scale(1 1) rotate(0) translate(4 73.5)">
<title>Graphical Class Hierarchy</title>
<!-- Node0 -->
<g id="node1" class="node">
<title>Node0</title>
<g id="a_node1"><a xlink:href="d9/ddb/classtravesim_1_1udp_1_1Sender.html" target="_top" xlink:title="Sender class using UDP.">
<polygon fill="none" stroke="#000000" points="0,-22.5 0,-41.5 174,-41.5 174,-22.5 0,-22.5"/>
<text text-anchor="middle" x="87" y="-29.5" font-family="Fira Code" font-size="10.00" fill="#000000">travesim::udp::Sender</text>
</a>
</g>
</g>
<!-- Node1 -->
<g id="node2" class="node">
<title>Node1</title>
<g id="a_node2"><a xlink:href="d8/dbb/classtravesim_1_1udp_1_1MulticastSender.html" target="_top" xlink:title="Sender class using UDP in multicast mode.">
<polygon fill="none" stroke="#000000" points="225,-39 225,-69 422,-69 422,-39 225,-39"/>
<text text-anchor="start" x="233" y="-57" font-family="Fira Code" font-size="10.00" fill="#000000">travesim::udp::Multicast</text>
<text text-anchor="middle" x="323.5" y="-46" font-family="Fira Code" font-size="10.00" fill="#000000">Sender</text>
</a>
</g>
</g>
<!-- Node0&#45;&gt;Node1 -->
<g id="edge1" class="edge">
<title>Node0&#45;&gt;Node1</title>
<path fill="none" stroke="#191970" d="M184.1844,-41.0404C197.5387,-42.2827 211.2634,-43.5594 224.6472,-44.8044"/>
<polygon fill="#191970" stroke="#191970" points="184.3376,-37.5396 174.0563,-40.0983 183.6891,-44.5095 184.3376,-37.5396"/>
</g>
<!-- Node2 -->
<g id="node3" class="node">
<title>Node2</title>
<g id="a_node3"><a xlink:href="d6/d3a/classtravesim_1_1udp_1_1UnicastSender.html" target="_top" xlink:title="Sender class using UDP in unicast mode.">
<polygon fill="none" stroke="#000000" points="210,-.5 210,-19.5 437,-19.5 437,-.5 210,-.5"/>
<text text-anchor="middle" x="323.5" y="-7.5" font-family="Fira Code" font-size="10.00" fill="#000000">travesim::udp::UnicastSender</text>
</a>
</g>
</g>
<!-- Node0&#45;&gt;Node2 -->
<g id="edge2" class="edge">
<title>Node0&#45;&gt;Node2</title>
<path fill="none" stroke="#191970" d="M184.1782,-22.9602C196.3278,-21.83 208.7842,-20.6712 221.0116,-19.5338"/>
<polygon fill="#191970" stroke="#191970" points="183.6891,-19.4905 174.0563,-23.9017 184.3376,-26.4604 183.6891,-19.4905"/>
</g>
</g>
</svg>
