<?xml version="1.0" encoding="UTF-8" standalone="no"?>
<!DOCTYPE svg PUBLIC "-//W3C//DTD SVG 1.1//EN"
 "http://www.w3.org/Graphics/SVG/1.1/DTD/svg11.dtd">
<!-- Generated by graphviz version 2.40.1 (0)
 -->
<!-- Title: Graphical Class Hierarchy Pages: 1 -->
<svg width="475pt" height="78pt"
 viewBox="0.00 0.00 475.00 77.50" xmlns="http://www.w3.org/2000/svg" xmlns:xlink="http://www.w3.org/1999/xlink">
<g id="graph0" class="graph" transform="scale(1 1) rotate(0) translate(4 73.5)">
<title>Graphical Class Hierarchy</title>
<!-- Node0 -->
<g id="node1" class="node">
<title>Node0</title>
<g id="a_node1"><a xlink:href="d2/db9/classtravesim_1_1udp_1_1Receiver.html" target="_top" xlink:title="Receiver class using UDP.">
<polygon fill="none" stroke="#000000" points="0,-22.5 0,-41.5 189,-41.5 189,-22.5 0,-22.5"/>
<text text-anchor="middle" x="94.5" y="-29.5" font-family="Fira Code" font-size="10.00" fill="#000000">travesim::udp::Receiver</text>
</a>
</g>
</g>
<!-- Node1 -->
<g id="node2" class="node">
<title>Node1</title>
<g id="a_node2"><a xlink:href="d2/d4f/classtravesim_1_1udp_1_1MulticastReceiver.html" target="_top" xlink:title="Receiver class using UDP in multicast mode.">
<polygon fill="none" stroke="#000000" points="247.5,-39 247.5,-69 444.5,-69 444.5,-39 247.5,-39"/>
<text text-anchor="start" x="255.5" y="-57" font-family="Fira Code" font-size="10.00" fill="#000000">travesim::udp::Multicast</text>
<text text-anchor="middle" x="346" y="-46" font-family="Fira Code" font-size="10.00" fill="#000000">Receiver</text>
</a>
</g>
</g>
<!-- Node0&#45;&gt;Node1 -->
<g id="edge1" class="edge">
<title>Node0&#45;&gt;Node1</title>
<path fill="none" stroke="#191970" d="M199.5174,-41.1864C215.2975,-42.5668 231.5255,-43.9863 247.1702,-45.3548"/>
<polygon fill="#191970" stroke="#191970" points="199.49,-37.6707 189.223,-40.2859 198.8799,-44.6441 199.49,-37.6707"/>
</g>
<!-- Node2 -->
<g id="node3" class="node">
<title>Node2</title>
<g id="a_node3"><a xlink:href="dc/d9b/classtravesim_1_1udp_1_1UnicastReceiver.html" target="_top" xlink:title="Receiver class using UDP in unicast mode.">
<polygon fill="none" stroke="#000000" points="225,-.5 225,-19.5 467,-19.5 467,-.5 225,-.5"/>
<text text-anchor="middle" x="346" y="-7.5" font-family="Fira Code" font-size="10.00" fill="#000000">travesim::udp::UnicastReceiver</text>
</a>
</g>
</g>
<!-- Node0&#45;&gt;Node2 -->
<g id="edge2" class="edge">
<title>Node0&#45;&gt;Node2</title>
<path fill="none" stroke="#191970" d="M199.544,-22.8113C211.9209,-21.7286 224.5729,-20.6218 237.0027,-19.5346"/>
<polygon fill="#191970" stroke="#191970" points="198.8799,-19.3559 189.223,-23.7141 199.49,-26.3293 198.8799,-19.3559"/>
</g>
</g>
</svg>
