<?xml version="1.0" encoding="UTF-8" standalone="no"?>
<!DOCTYPE svg PUBLIC "-//W3C//DTD SVG 1.1//EN"
 "http://www.w3.org/Graphics/SVG/1.1/DTD/svg11.dtd">
<!-- Generated by graphviz version 2.40.1 (0)
 -->
<!-- Title: examples/configurers/replacer_configurer_example.cpp Pages: 1 -->
<svg width="771pt" height="251pt"
 viewBox="0.00 0.00 770.50 251.00" xmlns="http://www.w3.org/2000/svg" xmlns:xlink="http://www.w3.org/1999/xlink">
<g id="graph0" class="graph" transform="scale(1 1) rotate(0) translate(4 247)">
<title>examples/configurers/replacer_configurer_example.cpp</title>
<!-- Node0 -->
<g id="node1" class="node">
<title>Node0</title>
<g id="a_node1"><a xlink:title="Example on how to use the ReplacerConfigurer.">
<polygon fill="#bfbfbf" stroke="#000000" points="0,-201.5 0,-242.5 167,-242.5 167,-201.5 0,-201.5"/>
<text text-anchor="start" x="8" y="-230.5" font-family="Fira Code" font-size="10.00" fill="#000000">examples/configurers</text>
<text text-anchor="start" x="8" y="-219.5" font-family="Fira Code" font-size="10.00" fill="#000000">/replacer_configurer</text>
<text text-anchor="middle" x="83.5" y="-208.5" font-family="Fira Code" font-size="10.00" fill="#000000">_example.cpp</text>
</a>
</g>
</g>
<!-- Node1 -->
<g id="node2" class="node">
<title>Node1</title>
<g id="a_node2"><a xlink:title=" ">
<polygon fill="none" stroke="#bfbfbf" points="95.5,-6 95.5,-25 179.5,-25 179.5,-6 95.5,-6"/>
<text text-anchor="middle" x="137.5" y="-13" font-family="Fira Code" font-size="10.00" fill="#000000">ros/ros.h</text>
</a>
</g>
</g>
<!-- Node0&#45;&gt;Node1 -->
<g id="edge1" class="edge">
<title>Node0&#45;&gt;Node1</title>
<path fill="none" stroke="#191970" d="M65.6682,-201.363C41.1543,-170.3485 3.0331,-110.7028 30.5,-67 42.8197,-47.3979 64.9214,-35.0833 85.852,-27.4346"/>
<polygon fill="#191970" stroke="#191970" points="86.9857,-30.7461 95.347,-24.2393 84.753,-24.1117 86.9857,-30.7461"/>
</g>
<!-- Node2 -->
<g id="node3" class="node">
<title>Node2</title>
<g id="a_node3"><a xlink:href="../../d0/d46/replacer__configurer_8hpp.html" target="_top" xlink:title="Configurer for the Replacer.">
<polygon fill="none" stroke="#000000" points="81.5,-134.5 81.5,-164.5 315.5,-164.5 315.5,-134.5 81.5,-134.5"/>
<text text-anchor="start" x="89.5" y="-152.5" font-family="Fira Code" font-size="10.00" fill="#000000">travesim_adapters/configurers</text>
<text text-anchor="middle" x="198.5" y="-141.5" font-family="Fira Code" font-size="10.00" fill="#000000">/replacer_configurer.hpp</text>
</a>
</g>
</g>
<!-- Node0&#45;&gt;Node2 -->
<g id="edge2" class="edge">
<title>Node0&#45;&gt;Node2</title>
<path fill="none" stroke="#191970" d="M116.1468,-201.4183C131.6895,-191.6196 150.2324,-179.9296 165.7841,-170.1253"/>
<polygon fill="#191970" stroke="#191970" points="167.957,-172.8929 174.5497,-164.5991 164.2239,-166.9714 167.957,-172.8929"/>
</g>
<!-- Node3 -->
<g id="node4" class="node">
<title>Node3</title>
<g id="a_node4"><a xlink:title=" ">
<polygon fill="none" stroke="#bfbfbf" points="40,-73 40,-92 117,-92 117,-73 40,-73"/>
<text text-anchor="middle" x="78.5" y="-80" font-family="Fira Code" font-size="10.00" fill="#000000">iostream</text>
</a>
</g>
</g>
<!-- Node2&#45;&gt;Node3 -->
<g id="edge3" class="edge">
<title>Node2&#45;&gt;Node3</title>
<path fill="none" stroke="#191970" d="M171.5697,-134.4639C151.5259,-123.2728 124.3217,-108.0838 104.5035,-97.0186"/>
<polygon fill="#191970" stroke="#191970" points="106.1386,-93.923 95.7011,-92.1039 102.7261,-100.0349 106.1386,-93.923"/>
</g>
<!-- Node4 -->
<g id="node5" class="node">
<title>Node4</title>
<g id="a_node5"><a xlink:title=" ">
<polygon fill="none" stroke="#bfbfbf" points="135.5,-67.5 135.5,-97.5 347.5,-97.5 347.5,-67.5 135.5,-67.5"/>
<text text-anchor="start" x="143.5" y="-85.5" font-family="Fira Code" font-size="10.00" fill="#000000">travesim_adapters/Replacer</text>
<text text-anchor="middle" x="241.5" y="-74.5" font-family="Fira Code" font-size="10.00" fill="#000000">Config.h</text>
</a>
</g>
</g>
<!-- Node2&#45;&gt;Node4 -->
<g id="edge4" class="edge">
<title>Node2&#45;&gt;Node4</title>
<path fill="none" stroke="#191970" d="M208.2574,-134.2967C213.5903,-125.9873 220.3135,-115.5115 226.316,-106.1587"/>
<polygon fill="#191970" stroke="#191970" points="229.3255,-107.9495 231.7812,-97.6432 223.4344,-104.1686 229.3255,-107.9495"/>
</g>
<!-- Node5 -->
<g id="node6" class="node">
<title>Node5</title>
<g id="a_node6"><a xlink:href="../../d1/d79/adapter__configurer_8hpp.html" target="_top" xlink:title="Template configurer for an adapter.">
<polygon fill="none" stroke="#000000" points="365.5,-67.5 365.5,-97.5 599.5,-97.5 599.5,-67.5 365.5,-67.5"/>
<text text-anchor="start" x="373.5" y="-85.5" font-family="Fira Code" font-size="10.00" fill="#000000">travesim_adapters/configurers</text>
<text text-anchor="middle" x="482.5" y="-74.5" font-family="Fira Code" font-size="10.00" fill="#000000">/adapter_configurer.hpp</text>
</a>
</g>
</g>
<!-- Node2&#45;&gt;Node5 -->
<g id="edge5" class="edge">
<title>Node2&#45;&gt;Node5</title>
<path fill="none" stroke="#191970" d="M262.2351,-134.4639C305.658,-124.2198 363.2804,-110.6257 408.6971,-99.9113"/>
<polygon fill="#191970" stroke="#191970" points="409.5577,-103.3044 418.4869,-97.6017 407.9504,-96.4914 409.5577,-103.3044"/>
</g>
<!-- Node5&#45;&gt;Node1 -->
<g id="edge7" class="edge">
<title>Node5&#45;&gt;Node1</title>
<path fill="none" stroke="#191970" d="M405.0753,-67.4639C339.2928,-54.6888 246.6842,-36.7039 189.4603,-25.5908"/>
<polygon fill="#191970" stroke="#191970" points="190.0329,-22.1367 179.549,-23.666 188.6983,-29.0083 190.0329,-22.1367"/>
</g>
<!-- Node6 -->
<g id="node7" class="node">
<title>Node6</title>
<g id="a_node7"><a xlink:title=" ">
<polygon fill="none" stroke="#bfbfbf" points="322.5,-6 322.5,-25 384.5,-25 384.5,-6 322.5,-6"/>
<text text-anchor="middle" x="353.5" y="-13" font-family="Fira Code" font-size="10.00" fill="#000000">memory</text>
</a>
</g>
</g>
<!-- Node5&#45;&gt;Node6 -->
<g id="edge6" class="edge">
<title>Node5&#45;&gt;Node6</title>
<path fill="none" stroke="#191970" d="M453.5499,-67.4639C431.8078,-56.1715 402.2284,-40.8086 380.8773,-29.7192"/>
<polygon fill="#191970" stroke="#191970" points="382.4788,-26.6071 371.9911,-25.1039 379.2523,-32.8192 382.4788,-26.6071"/>
</g>
<!-- Node7 -->
<g id="node8" class="node">
<title>Node7</title>
<g id="a_node8"><a xlink:title=" ">
<polygon fill="none" stroke="#bfbfbf" points="403,-.5 403,-30.5 562,-30.5 562,-.5 403,-.5"/>
<text text-anchor="start" x="411" y="-18.5" font-family="Fira Code" font-size="10.00" fill="#000000">dynamic_reconfigure</text>
<text text-anchor="middle" x="482.5" y="-7.5" font-family="Fira Code" font-size="10.00" fill="#000000">/server.h</text>
</a>
</g>
</g>
<!-- Node5&#45;&gt;Node7 -->
<g id="edge8" class="edge">
<title>Node5&#45;&gt;Node7</title>
<path fill="none" stroke="#191970" d="M482.5,-67.2967C482.5,-59.5013 482.5,-49.7991 482.5,-40.9064"/>
<polygon fill="#191970" stroke="#191970" points="486.0001,-40.6431 482.5,-30.6432 479.0001,-40.6432 486.0001,-40.6431"/>
</g>
<!-- Node8 -->
<g id="node9" class="node">
<title>Node8</title>
<g id="a_node9"><a xlink:title=" ">
<polygon fill="none" stroke="#bfbfbf" points="580.5,-.5 580.5,-30.5 762.5,-30.5 762.5,-.5 580.5,-.5"/>
<text text-anchor="start" x="588.5" y="-18.5" font-family="Fira Code" font-size="10.00" fill="#000000">boost/thread/recursive</text>
<text text-anchor="middle" x="671.5" y="-7.5" font-family="Fira Code" font-size="10.00" fill="#000000">_mutex.hpp</text>
</a>
</g>
</g>
<!-- Node5&#45;&gt;Node8 -->
<g id="edge9" class="edge">
<title>Node5&#45;&gt;Node8</title>
<path fill="none" stroke="#191970" d="M524.9153,-67.4639C552.783,-57.5849 589.4389,-44.5905 619.123,-34.0675"/>
<polygon fill="#191970" stroke="#191970" points="620.6439,-37.2418 628.8997,-30.6017 618.305,-30.6441 620.6439,-37.2418"/>
</g>
</g>
</svg>
