<?xml version="1.0" encoding="UTF-8" standalone="no"?>
<!DOCTYPE svg PUBLIC "-//W3C//DTD SVG 1.1//EN"
 "http://www.w3.org/Graphics/SVG/1.1/DTD/svg11.dtd">
<!-- Generated by graphviz version 2.40.1 (0)
 -->
<!-- Title: travesim::ipv4_string_to_uint Pages: 1 -->
<svg width="761pt" height="176pt"
 viewBox="0.00 0.00 761.00 176.00" xmlns="http://www.w3.org/2000/svg" xmlns:xlink="http://www.w3.org/1999/xlink">
<g id="graph0" class="graph" transform="scale(1 1) rotate(0) translate(4 172)">
<title>travesim::ipv4_string_to_uint</title>
<!-- Node20 -->
<g id="node1" class="node">
<title>Node20</title>
<g id="a_node1"><a xlink:title="Converts a IPv4 in a string to a array of unsigned integers, where the most significant byte of the I...">
<polygon fill="#bfbfbf" stroke="#000000" points="579,-47.5 579,-77.5 753,-77.5 753,-47.5 579,-47.5"/>
<text text-anchor="start" x="587" y="-65.5" font-family="Fira Code" font-size="10.00" fill="#000000">travesim::ipv4_string</text>
<text text-anchor="middle" x="666" y="-54.5" font-family="Fira Code" font-size="10.00" fill="#000000">_to_uint</text>
</a>
</g>
</g>
<!-- Node21 -->
<g id="node2" class="node">
<title>Node21</title>
<g id="a_node2"><a xlink:href="../../d1/d4b/namespacetravesim.html#a05f869547c07b49b722c2afb6c1967ef" target="_top" xlink:title="Checks if a IP is valid and is in the specified range.">
<polygon fill="none" stroke="#000000" points="346,-72 346,-91 543,-91 543,-72 346,-72"/>
<text text-anchor="middle" x="444.5" y="-79" font-family="Fira Code" font-size="10.00" fill="#000000">travesim::check_valid_ip</text>
</a>
</g>
</g>
<!-- Node20&#45;&gt;Node21 -->
<g id="edge1" class="edge">
<title>Node20&#45;&gt;Node21</title>
<path fill="none" stroke="#191970" d="M568.6191,-70.8532C560.24,-71.572 551.7573,-72.2996 543.3666,-73.0193"/>
<polygon fill="#191970" stroke="#191970" points="569.111,-74.324 578.7753,-69.982 568.5127,-67.3496 569.111,-74.324"/>
</g>
<!-- Node29 -->
<g id="node10" class="node">
<title>Node29</title>
<g id="a_node10"><a xlink:href="../../d3/dd6/configurers__utils_8test_8cpp.html#a06bdee2de1cb8f56cfaf20c469dafa4c" target="_top" xlink:title=" ">
<polygon fill="none" stroke="#000000" points="421,-34 421,-53 468,-53 468,-34 421,-34"/>
<text text-anchor="middle" x="444.5" y="-41" font-family="Fira Code" font-size="10.00" fill="#000000">TEST</text>
</a>
</g>
</g>
<!-- Node20&#45;&gt;Node29 -->
<g id="edge9" class="edge">
<title>Node20&#45;&gt;Node29</title>
<path fill="none" stroke="#191970" d="M568.3947,-54.1275C531.3539,-50.9502 492.3235,-47.6022 468.1937,-45.5324"/>
<polygon fill="#191970" stroke="#191970" points="568.5127,-57.6504 578.7753,-55.018 569.111,-50.676 568.5127,-57.6504"/>
</g>
<!-- Node22 -->
<g id="node3" class="node">
<title>Node22</title>
<g id="a_node3"><a xlink:href="../../d3/df0/classtravesim_1_1ReplacerConfigurer.html#aeaaa46b3e10fba23cb2dd2efc0c4c6fb" target="_top" xlink:title="Get the replacer configured address.">
<polygon fill="none" stroke="#000000" points="83,-137.5 83,-167.5 310,-167.5 310,-137.5 83,-137.5"/>
<text text-anchor="start" x="91" y="-155.5" font-family="Fira Code" font-size="10.00" fill="#000000">travesim::ReplacerConfigurer</text>
<text text-anchor="middle" x="196.5" y="-144.5" font-family="Fira Code" font-size="10.00" fill="#000000">::get_address</text>
</a>
</g>
</g>
<!-- Node21&#45;&gt;Node22 -->
<g id="edge2" class="edge">
<title>Node21&#45;&gt;Node22</title>
<path fill="none" stroke="#191970" d="M410.6428,-94.6832C383.672,-104.8548 344.798,-118.7839 310,-128.5 298.4578,-131.7228 286.1497,-134.7439 274.0552,-137.4831"/>
<polygon fill="#191970" stroke="#191970" points="411.9084,-97.9465 420.0113,-91.1205 409.4203,-91.4036 411.9084,-97.9465"/>
</g>
<!-- Node24 -->
<g id="node5" class="node">
<title>Node24</title>
<g id="a_node5"><a xlink:href="../../de/d8e/classtravesim_1_1TeamsConfigurer.html#a037f5024d67489ba12a3509f8735b55c" target="_top" xlink:title="Get the configured address of a team.">
<polygon fill="none" stroke="#000000" points="94.5,-88.5 94.5,-118.5 298.5,-118.5 298.5,-88.5 94.5,-88.5"/>
<text text-anchor="start" x="102.5" y="-106.5" font-family="Fira Code" font-size="10.00" fill="#000000">travesim::TeamsConfigurer</text>
<text text-anchor="middle" x="196.5" y="-95.5" font-family="Fira Code" font-size="10.00" fill="#000000">::get_address</text>
</a>
</g>
</g>
<!-- Node21&#45;&gt;Node24 -->
<g id="edge4" class="edge">
<title>Node21&#45;&gt;Node24</title>
<path fill="none" stroke="#191970" d="M335.5087,-91.1686C323.2226,-92.2585 310.737,-93.3661 298.544,-94.4477"/>
<polygon fill="#191970" stroke="#191970" points="336.1197,-94.6282 345.7712,-90.2582 335.5011,-87.6556 336.1197,-94.6282"/>
</g>
<!-- Node26 -->
<g id="node7" class="node">
<title>Node26</title>
<g id="a_node7"><a xlink:href="../../d3/dd6/configurers__utils_8test_8cpp.html#a974c56d18603b644a6bd020eeff20292" target="_top" xlink:title=" ">
<polygon fill="none" stroke="#000000" points="173,-50 173,-69 220,-69 220,-50 173,-50"/>
<text text-anchor="middle" x="196.5" y="-57" font-family="Fira Code" font-size="10.00" fill="#000000">TEST</text>
</a>
</g>
</g>
<!-- Node21&#45;&gt;Node26 -->
<g id="edge6" class="edge">
<title>Node21&#45;&gt;Node26</title>
<path fill="none" stroke="#191970" d="M335.749,-71.8527C292.6234,-68.0271 246.9994,-63.9798 220.1704,-61.5998"/>
<polygon fill="#191970" stroke="#191970" points="335.5011,-75.3444 345.7712,-72.7418 336.1197,-68.3718 335.5011,-75.3444"/>
</g>
<!-- Node27 -->
<g id="node8" class="node">
<title>Node27</title>
<g id="a_node8"><a xlink:href="../../d1/d51/classtravesim_1_1VisionConfigurer.html#a03e304ac5b9b5867eb5c4a03730fef07" target="_top" xlink:title="Get the vision configured address.">
<polygon fill="none" stroke="#000000" points="90.5,-.5 90.5,-30.5 302.5,-30.5 302.5,-.5 90.5,-.5"/>
<text text-anchor="start" x="98.5" y="-18.5" font-family="Fira Code" font-size="10.00" fill="#000000">travesim::VisionConfigurer</text>
<text text-anchor="middle" x="196.5" y="-7.5" font-family="Fira Code" font-size="10.00" fill="#000000">::get_address</text>
</a>
</g>
</g>
<!-- Node21&#45;&gt;Node27 -->
<g id="edge7" class="edge">
<title>Node21&#45;&gt;Node27</title>
<path fill="none" stroke="#191970" d="M367.7818,-69.5124C360.3175,-67.5114 352.9446,-65.19 346,-62.5 328.5148,-55.7271 327.3948,-47.5018 310,-40.5 300.4539,-36.6575 290.2068,-33.3538 279.9168,-30.5268"/>
<polygon fill="#191970" stroke="#191970" points="367.0693,-72.9418 377.6188,-71.9623 368.7611,-66.1493 367.0693,-72.9418"/>
</g>
<!-- Node23 -->
<g id="node4" class="node">
<title>Node23</title>
<g id="a_node4"><a xlink:href="../../dd/d3a/replacer__configurer__example_8cpp.html#a3c04138a5bfe5d72780bb7e82a18e627" target="_top" xlink:title=" ">
<polygon fill="none" stroke="#000000" points="0,-143 0,-162 47,-162 47,-143 0,-143"/>
<text text-anchor="middle" x="23.5" y="-150" font-family="Fira Code" font-size="10.00" fill="#000000">main</text>
</a>
</g>
</g>
<!-- Node22&#45;&gt;Node23 -->
<g id="edge3" class="edge">
<title>Node22&#45;&gt;Node23</title>
<path fill="none" stroke="#191970" d="M72.4946,-152.5C63.0745,-152.5 54.3904,-152.5 47.0327,-152.5"/>
<polygon fill="#191970" stroke="#191970" points="72.553,-156.0001 82.5529,-152.5 72.5529,-149.0001 72.553,-156.0001"/>
</g>
<!-- Node25 -->
<g id="node6" class="node">
<title>Node25</title>
<g id="a_node6"><a xlink:href="../../de/d50/teams__configurer__example_8cpp.html#a3c04138a5bfe5d72780bb7e82a18e627" target="_top" xlink:title=" ">
<polygon fill="none" stroke="#000000" points="0,-94 0,-113 47,-113 47,-94 0,-94"/>
<text text-anchor="middle" x="23.5" y="-101" font-family="Fira Code" font-size="10.00" fill="#000000">main</text>
</a>
</g>
</g>
<!-- Node24&#45;&gt;Node25 -->
<g id="edge5" class="edge">
<title>Node24&#45;&gt;Node25</title>
<path fill="none" stroke="#191970" d="M84.1183,-103.5C70.2518,-103.5 57.3627,-103.5 47.0666,-103.5"/>
<polygon fill="#191970" stroke="#191970" points="84.3649,-107.0001 94.3649,-103.5 84.3649,-100.0001 84.3649,-107.0001"/>
</g>
<!-- Node28 -->
<g id="node9" class="node">
<title>Node28</title>
<g id="a_node9"><a xlink:href="../../df/dfd/vision__configurer__example_8cpp.html#a3c04138a5bfe5d72780bb7e82a18e627" target="_top" xlink:title=" ">
<polygon fill="none" stroke="#000000" points="0,-6 0,-25 47,-25 47,-6 0,-6"/>
<text text-anchor="middle" x="23.5" y="-13" font-family="Fira Code" font-size="10.00" fill="#000000">main</text>
</a>
</g>
</g>
<!-- Node27&#45;&gt;Node28 -->
<g id="edge8" class="edge">
<title>Node27&#45;&gt;Node28</title>
<path fill="none" stroke="#191970" d="M80.2707,-15.5C67.8766,-15.5 56.4095,-15.5 47.0736,-15.5"/>
<polygon fill="#191970" stroke="#191970" points="80.3864,-19.0001 90.3863,-15.5 80.3863,-12.0001 80.3864,-19.0001"/>
</g>
</g>
</svg>
