<?xml version="1.0" encoding="UTF-8" standalone="no"?>
<!DOCTYPE svg PUBLIC "-//W3C//DTD SVG 1.1//EN"
 "http://www.w3.org/Graphics/SVG/1.1/DTD/svg11.dtd">
<!-- Generated by graphviz version 2.40.1 (0)
 -->
<!-- Title: travesim::get_error_msg Pages: 1 -->
<svg width="543pt" height="176pt"
 viewBox="0.00 0.00 543.00 176.00" xmlns="http://www.w3.org/2000/svg" xmlns:xlink="http://www.w3.org/1999/xlink">
<g id="graph0" class="graph" transform="scale(1 1) rotate(0) translate(4 172)">
<title>travesim::get_error_msg</title>
<!-- Node11 -->
<g id="node1" class="node">
<title>Node11</title>
<g id="a_node1"><a xlink:title="Get the error msg based on the validation type.">
<polygon fill="#bfbfbf" stroke="#000000" points="346,-72 346,-91 535,-91 535,-72 346,-72"/>
<text text-anchor="middle" x="440.5" y="-79" font-family="Fira Code" font-size="10.00" fill="#000000">travesim::get_error_msg</text>
</a>
</g>
</g>
<!-- Node12 -->
<g id="node2" class="node">
<title>Node12</title>
<g id="a_node2"><a xlink:href="../../d3/df0/classtravesim_1_1ReplacerConfigurer.html#aeaaa46b3e10fba23cb2dd2efc0c4c6fb" target="_top" xlink:title="Get the replacer configured address.">
<polygon fill="none" stroke="#000000" points="83,-137.5 83,-167.5 310,-167.5 310,-137.5 83,-137.5"/>
<text text-anchor="start" x="91" y="-155.5" font-family="Fira Code" font-size="10.00" fill="#000000">travesim::ReplacerConfigurer</text>
<text text-anchor="middle" x="196.5" y="-144.5" font-family="Fira Code" font-size="10.00" fill="#000000">::get_address</text>
</a>
</g>
</g>
<!-- Node11&#45;&gt;Node12 -->
<g id="edge1" class="edge">
<title>Node11&#45;&gt;Node12</title>
<path fill="none" stroke="#191970" d="M407.3431,-94.8708C381.2094,-105.0595 343.6835,-118.9221 310,-128.5 298.667,-131.7225 286.5867,-134.7255 274.6923,-137.441"/>
<polygon fill="#191970" stroke="#191970" points="408.7451,-98.0804 416.7695,-91.1623 406.1824,-91.5663 408.7451,-98.0804"/>
</g>
<!-- Node14 -->
<g id="node4" class="node">
<title>Node14</title>
<g id="a_node4"><a xlink:href="../../de/d8e/classtravesim_1_1TeamsConfigurer.html#a037f5024d67489ba12a3509f8735b55c" target="_top" xlink:title="Get the configured address of a team.">
<polygon fill="none" stroke="#000000" points="94.5,-88.5 94.5,-118.5 298.5,-118.5 298.5,-88.5 94.5,-88.5"/>
<text text-anchor="start" x="102.5" y="-106.5" font-family="Fira Code" font-size="10.00" fill="#000000">travesim::TeamsConfigurer</text>
<text text-anchor="middle" x="196.5" y="-95.5" font-family="Fira Code" font-size="10.00" fill="#000000">::get_address</text>
</a>
</g>
</g>
<!-- Node11&#45;&gt;Node14 -->
<g id="edge3" class="edge">
<title>Node11&#45;&gt;Node14</title>
<path fill="none" stroke="#191970" d="M335.6274,-90.9557C323.4221,-92.0562 310.9834,-93.1777 298.8132,-94.275"/>
<polygon fill="#191970" stroke="#191970" points="336.1687,-94.4212 345.814,-90.0373 335.5401,-87.4495 336.1687,-94.4212"/>
</g>
<!-- Node16 -->
<g id="node6" class="node">
<title>Node16</title>
<g id="a_node6"><a xlink:href="../../d3/dd6/configurers__utils_8test_8cpp.html#a5737c0e964d2a27cdb7b6a7a3cb556a5" target="_top" xlink:title=" ">
<polygon fill="none" stroke="#000000" points="173,-50 173,-69 220,-69 220,-50 173,-50"/>
<text text-anchor="middle" x="196.5" y="-57" font-family="Fira Code" font-size="10.00" fill="#000000">TEST</text>
</a>
</g>
</g>
<!-- Node11&#45;&gt;Node16 -->
<g id="edge5" class="edge">
<title>Node11&#45;&gt;Node16</title>
<path fill="none" stroke="#191970" d="M335.8367,-72.0631C292.8688,-68.189 246.9723,-64.0508 220.0546,-61.6238"/>
<polygon fill="#191970" stroke="#191970" points="335.5401,-75.5505 345.814,-72.9627 336.1687,-68.5788 335.5401,-75.5505"/>
</g>
<!-- Node17 -->
<g id="node7" class="node">
<title>Node17</title>
<g id="a_node7"><a xlink:href="../../d1/d51/classtravesim_1_1VisionConfigurer.html#a03e304ac5b9b5867eb5c4a03730fef07" target="_top" xlink:title="Get the vision configured address.">
<polygon fill="none" stroke="#000000" points="90.5,-.5 90.5,-30.5 302.5,-30.5 302.5,-.5 90.5,-.5"/>
<text text-anchor="start" x="98.5" y="-18.5" font-family="Fira Code" font-size="10.00" fill="#000000">travesim::VisionConfigurer</text>
<text text-anchor="middle" x="196.5" y="-7.5" font-family="Fira Code" font-size="10.00" fill="#000000">::get_address</text>
</a>
</g>
</g>
<!-- Node11&#45;&gt;Node17 -->
<g id="edge6" class="edge">
<title>Node11&#45;&gt;Node17</title>
<path fill="none" stroke="#191970" d="M402.9056,-68.7273C376.9692,-60.1529 341.6012,-48.9271 310,-40.5 296.9377,-37.0167 282.9384,-33.6442 269.3872,-30.5632"/>
<polygon fill="#191970" stroke="#191970" points="402.1112,-72.1516 412.7048,-71.989 404.322,-65.5099 402.1112,-72.1516"/>
</g>
<!-- Node13 -->
<g id="node3" class="node">
<title>Node13</title>
<g id="a_node3"><a xlink:href="../../dd/d3a/replacer__configurer__example_8cpp.html#a3c04138a5bfe5d72780bb7e82a18e627" target="_top" xlink:title=" ">
<polygon fill="none" stroke="#000000" points="0,-143 0,-162 47,-162 47,-143 0,-143"/>
<text text-anchor="middle" x="23.5" y="-150" font-family="Fira Code" font-size="10.00" fill="#000000">main</text>
</a>
</g>
</g>
<!-- Node12&#45;&gt;Node13 -->
<g id="edge2" class="edge">
<title>Node12&#45;&gt;Node13</title>
<path fill="none" stroke="#191970" d="M72.4946,-152.5C63.0745,-152.5 54.3904,-152.5 47.0327,-152.5"/>
<polygon fill="#191970" stroke="#191970" points="72.553,-156.0001 82.5529,-152.5 72.5529,-149.0001 72.553,-156.0001"/>
</g>
<!-- Node15 -->
<g id="node5" class="node">
<title>Node15</title>
<g id="a_node5"><a xlink:href="../../de/d50/teams__configurer__example_8cpp.html#a3c04138a5bfe5d72780bb7e82a18e627" target="_top" xlink:title=" ">
<polygon fill="none" stroke="#000000" points="0,-94 0,-113 47,-113 47,-94 0,-94"/>
<text text-anchor="middle" x="23.5" y="-101" font-family="Fira Code" font-size="10.00" fill="#000000">main</text>
</a>
</g>
</g>
<!-- Node14&#45;&gt;Node15 -->
<g id="edge4" class="edge">
<title>Node14&#45;&gt;Node15</title>
<path fill="none" stroke="#191970" d="M84.1183,-103.5C70.2518,-103.5 57.3627,-103.5 47.0666,-103.5"/>
<polygon fill="#191970" stroke="#191970" points="84.3649,-107.0001 94.3649,-103.5 84.3649,-100.0001 84.3649,-107.0001"/>
</g>
<!-- Node18 -->
<g id="node8" class="node">
<title>Node18</title>
<g id="a_node8"><a xlink:href="../../df/dfd/vision__configurer__example_8cpp.html#a3c04138a5bfe5d72780bb7e82a18e627" target="_top" xlink:title=" ">
<polygon fill="none" stroke="#000000" points="0,-6 0,-25 47,-25 47,-6 0,-6"/>
<text text-anchor="middle" x="23.5" y="-13" font-family="Fira Code" font-size="10.00" fill="#000000">main</text>
</a>
</g>
</g>
<!-- Node17&#45;&gt;Node18 -->
<g id="edge7" class="edge">
<title>Node17&#45;&gt;Node18</title>
<path fill="none" stroke="#191970" d="M80.2707,-15.5C67.8766,-15.5 56.4095,-15.5 47.0736,-15.5"/>
<polygon fill="#191970" stroke="#191970" points="80.3864,-19.0001 90.3863,-15.5 80.3863,-12.0001 80.3864,-19.0001"/>
</g>
</g>
</svg>
