<?xml version="1.0" encoding="UTF-8" standalone="no"?>
<!DOCTYPE svg PUBLIC "-//W3C//DTD SVG 1.1//EN"
 "http://www.w3.org/Graphics/SVG/1.1/DTD/svg11.dtd">
<!-- Generated by graphviz version 2.40.1 (0)
 -->
<!-- Title: include/travesim_adapters/configurers/teams_configurer.hpp Pages: 1 -->
<svg width="656pt" height="106pt"
 viewBox="0.00 0.00 656.00 106.00" xmlns="http://www.w3.org/2000/svg" xmlns:xlink="http://www.w3.org/1999/xlink">
<g id="graph0" class="graph" transform="scale(1 1) rotate(0) translate(4 102)">
<title>include/travesim_adapters/configurers/teams_configurer.hpp</title>
<!-- Node8 -->
<g id="node1" class="node">
<title>Node8</title>
<g id="a_node1"><a xlink:title="Configurer for the teams.">
<polygon fill="#bfbfbf" stroke="#000000" points="222,-67.5 222,-97.5 486,-97.5 486,-67.5 222,-67.5"/>
<text text-anchor="start" x="230" y="-85.5" font-family="Fira Code" font-size="10.00" fill="#000000">include/travesim_adapters</text>
<text text-anchor="middle" x="354" y="-74.5" font-family="Fira Code" font-size="10.00" fill="#000000">/configurers/teams_configurer.hpp</text>
</a>
</g>
</g>
<!-- Node9 -->
<g id="node2" class="node">
<title>Node9</title>
<g id="a_node2"><a xlink:href="../../de/d50/teams__configurer__example_8cpp.html" target="_top" xlink:title="Example on how to use the TeamsConfigurer.">
<polygon fill="none" stroke="#000000" points="0,-.5 0,-30.5 234,-30.5 234,-.5 0,-.5"/>
<text text-anchor="start" x="8" y="-18.5" font-family="Fira Code" font-size="10.00" fill="#000000">examples/configurers</text>
<text text-anchor="middle" x="117" y="-7.5" font-family="Fira Code" font-size="10.00" fill="#000000">/teams_configurer_example.cpp</text>
</a>
</g>
</g>
<!-- Node8&#45;&gt;Node9 -->
<g id="edge1" class="edge">
<title>Node8&#45;&gt;Node9</title>
<path fill="none" stroke="#191970" d="M290.9801,-64.6842C253.3874,-54.0568 206.174,-40.7095 170.4194,-30.6017"/>
<polygon fill="#191970" stroke="#191970" points="290.2375,-68.1114 300.8126,-67.4639 292.1419,-61.3754 290.2375,-68.1114"/>
</g>
<!-- Node10 -->
<g id="node3" class="node">
<title>Node10</title>
<g id="a_node3"><a xlink:href="../../dd/dcd/teams__adapter_8cpp.html" target="_top" xlink:title="Teams commands adapter execution file.">
<polygon fill="none" stroke="#000000" points="252,-6 252,-25 456,-25 456,-6 252,-6"/>
<text text-anchor="middle" x="354" y="-13" font-family="Fira Code" font-size="10.00" fill="#000000">src/bin/teams_adapter.cpp</text>
</a>
</g>
</g>
<!-- Node8&#45;&gt;Node10 -->
<g id="edge2" class="edge">
<title>Node8&#45;&gt;Node10</title>
<path fill="none" stroke="#191970" d="M354,-57.1199C354,-45.9072 354,-33.4031 354,-25.055"/>
<polygon fill="#191970" stroke="#191970" points="350.5001,-57.2966 354,-67.2967 357.5001,-57.2967 350.5001,-57.2966"/>
</g>
<!-- Node11 -->
<g id="node4" class="node">
<title>Node11</title>
<g id="a_node4"><a xlink:href="../../db/da2/teams__configurer_8cpp.html" target="_top" xlink:title="Configurer for the teams.">
<polygon fill="none" stroke="#000000" points="474,-.5 474,-30.5 648,-30.5 648,-.5 474,-.5"/>
<text text-anchor="start" x="482" y="-18.5" font-family="Fira Code" font-size="10.00" fill="#000000">src/lib/configurers</text>
<text text-anchor="middle" x="561" y="-7.5" font-family="Fira Code" font-size="10.00" fill="#000000">/teams_configurer.cpp</text>
</a>
</g>
</g>
<!-- Node8&#45;&gt;Node11 -->
<g id="edge3" class="edge">
<title>Node8&#45;&gt;Node11</title>
<path fill="none" stroke="#191970" d="M410.3043,-64.2759C442.9281,-53.7165 483.5125,-40.5805 514.3425,-30.6017"/>
<polygon fill="#191970" stroke="#191970" points="408.8911,-61.0545 400.4548,-67.4639 411.0467,-67.7143 408.8911,-61.0545"/>
</g>
</g>
</svg>
