<?xml version="1.0" encoding="UTF-8" standalone="no"?>
<!DOCTYPE svg PUBLIC "-//W3C//DTD SVG 1.1//EN"
 "http://www.w3.org/Graphics/SVG/1.1/DTD/svg11.dtd">
<!-- Generated by graphviz version 2.40.1 (0)
 -->
<!-- Title: travesim::ReplacerConfigurer Pages: 1 -->
<svg width="306pt" height="580pt"
 viewBox="0.00 0.00 306.00 580.00" xmlns="http://www.w3.org/2000/svg" xmlns:xlink="http://www.w3.org/1999/xlink">
<g id="graph0" class="graph" transform="scale(1 1) rotate(0) translate(4 576)">
<title>travesim::ReplacerConfigurer</title>
<!-- Node3 -->
<g id="node1" class="node">
<title>Node3</title>
<g id="a_node1"><a xlink:title="ReplacerConfigurer class definition.">
<polygon fill="#bfbfbf" stroke="#000000" points="33.5,-.5 33.5,-90.5 260.5,-90.5 260.5,-.5 33.5,-.5"/>
<text text-anchor="middle" x="147" y="-78.5" font-family="Fira Code" font-size="10.00" fill="#000000">travesim::ReplacerConfigurer</text>
<polyline fill="none" stroke="#000000" points="33.5,-71.5 260.5,-71.5 "/>
<text text-anchor="middle" x="147" y="-59.5" font-family="Fira Code" font-size="10.00" fill="#000000"> </text>
<polyline fill="none" stroke="#000000" points="33.5,-52.5 260.5,-52.5 "/>
<text text-anchor="start" x="41.5" y="-40.5" font-family="Fira Code" font-size="10.00" fill="#000000">+ ReplacerConfigurer()</text>
<text text-anchor="start" x="41.5" y="-29.5" font-family="Fira Code" font-size="10.00" fill="#000000">+ get_address()</text>
<text text-anchor="start" x="41.5" y="-18.5" font-family="Fira Code" font-size="10.00" fill="#000000">+ get_port()</text>
<text text-anchor="start" x="41.5" y="-7.5" font-family="Fira Code" font-size="10.00" fill="#000000">+ get_specific_source()</text>
</a>
</g>
</g>
<!-- Node4 -->
<g id="node2" class="node">
<title>Node4</title>
<g id="a_node2"><a xlink:href="../../dd/d5b/classtravesim_1_1AdapterConfigurer.html" target="_top" xlink:title=" ">
<polygon fill="none" stroke="#000000" points="0,-128.5 0,-273.5 294,-273.5 294,-128.5 0,-128.5"/>
<text text-anchor="start" x="8" y="-261.5" font-family="Fira Code" font-size="10.00" fill="#000000">travesim::AdapterConfigurer</text>
<text text-anchor="middle" x="147" y="-250.5" font-family="Fira Code" font-size="10.00" fill="#000000">&lt; travesim_adapters::ReplacerConfig &gt;</text>
<polyline fill="none" stroke="#000000" points="0,-243.5 294,-243.5 "/>
<text text-anchor="start" x="8" y="-231.5" font-family="Fira Code" font-size="10.00" fill="#000000"># reconfigured</text>
<text text-anchor="start" x="8" y="-220.5" font-family="Fira Code" font-size="10.00" fill="#000000"># config</text>
<text text-anchor="start" x="8" y="-209.5" font-family="Fira Code" font-size="10.00" fill="#000000"># mutex</text>
<text text-anchor="start" x="8" y="-198.5" font-family="Fira Code" font-size="10.00" fill="#000000">&#45; node_handle</text>
<text text-anchor="start" x="8" y="-187.5" font-family="Fira Code" font-size="10.00" fill="#000000">&#45; server</text>
<polyline fill="none" stroke="#000000" points="0,-180.5 294,-180.5 "/>
<text text-anchor="start" x="8" y="-168.5" font-family="Fira Code" font-size="10.00" fill="#000000">+ AdapterConfigurer()</text>
<text text-anchor="start" x="8" y="-157.5" font-family="Fira Code" font-size="10.00" fill="#000000">+ AdapterConfigurer()</text>
<text text-anchor="start" x="8" y="-146.5" font-family="Fira Code" font-size="10.00" fill="#000000">+ get_reset()</text>
<text text-anchor="start" x="8" y="-135.5" font-family="Fira Code" font-size="10.00" fill="#000000">&#45; callback()</text>
</a>
</g>
</g>
<!-- Node4&#45;&gt;Node3 -->
<g id="edge1" class="edge">
<title>Node4&#45;&gt;Node3</title>
<path fill="none" stroke="#191970" d="M147,-118.0417C147,-108.6394 147,-99.3391 147,-90.6941"/>
<polygon fill="none" stroke="#191970" points="143.5001,-118.2581 147,-128.2581 150.5001,-118.2582 143.5001,-118.2581"/>
</g>
<!-- Node5 -->
<g id="node3" class="node">
<title>Node5</title>
<g id="a_node3"><a xlink:href="../../dd/d5b/classtravesim_1_1AdapterConfigurer.html" target="_top" xlink:title=" ">
<polygon fill="none" stroke="#000000" points="37.5,-332.5 37.5,-466.5 256.5,-466.5 256.5,-332.5 37.5,-332.5"/>
<text text-anchor="start" x="45.5" y="-454.5" font-family="Fira Code" font-size="10.00" fill="#000000">travesim::AdapterConfigurer</text>
<text text-anchor="middle" x="147" y="-443.5" font-family="Fira Code" font-size="10.00" fill="#000000">&lt; AdapterConfigType &gt;</text>
<polyline fill="none" stroke="#000000" points="37.5,-436.5 256.5,-436.5 "/>
<text text-anchor="start" x="45.5" y="-424.5" font-family="Fira Code" font-size="10.00" fill="#000000"># reconfigured</text>
<text text-anchor="start" x="45.5" y="-413.5" font-family="Fira Code" font-size="10.00" fill="#000000"># mutex</text>
<text text-anchor="start" x="45.5" y="-402.5" font-family="Fira Code" font-size="10.00" fill="#000000">&#45; node_handle</text>
<text text-anchor="start" x="45.5" y="-391.5" font-family="Fira Code" font-size="10.00" fill="#000000">&#45; server</text>
<polyline fill="none" stroke="#000000" points="37.5,-384.5 256.5,-384.5 "/>
<text text-anchor="start" x="45.5" y="-372.5" font-family="Fira Code" font-size="10.00" fill="#000000">+ AdapterConfigurer()</text>
<text text-anchor="start" x="45.5" y="-361.5" font-family="Fira Code" font-size="10.00" fill="#000000">+ AdapterConfigurer()</text>
<text text-anchor="start" x="45.5" y="-350.5" font-family="Fira Code" font-size="10.00" fill="#000000">+ get_reset()</text>
<text text-anchor="start" x="45.5" y="-339.5" font-family="Fira Code" font-size="10.00" fill="#000000">&#45; callback()</text>
</a>
</g>
</g>
<!-- Node5&#45;&gt;Node4 -->
<g id="edge2" class="edge">
<title>Node5&#45;&gt;Node4</title>
<path fill="none" stroke="#ffa500" d="M147,-321.9613C147,-306.0334 147,-289.321 147,-273.576"/>
<polygon fill="#ffa500" stroke="#ffa500" points="143.5001,-322.2969 147,-332.297 150.5001,-322.297 143.5001,-322.2969"/>
<text text-anchor="start" x="147" y="-306" font-family="Fira Code" font-size="10.00" fill="#000000"> &lt; travesim_adapters</text>
<text text-anchor="middle" x="222.5" y="-295" font-family="Fira Code" font-size="10.00" fill="#000000">::ReplacerConfig &gt;</text>
</g>
<!-- Node6 -->
<g id="node4" class="node">
<title>Node6</title>
<g id="a_node4"><a xlink:title=" ">
<polygon fill="none" stroke="#bfbfbf" points="75,-514.5 75,-571.5 219,-571.5 219,-514.5 75,-514.5"/>
<text text-anchor="middle" x="147" y="-559.5" font-family="Fira Code" font-size="10.00" fill="#000000">AdapterConfigType</text>
<polyline fill="none" stroke="#bfbfbf" points="75,-552.5 219,-552.5 "/>
<text text-anchor="middle" x="147" y="-540.5" font-family="Fira Code" font-size="10.00" fill="#000000"> </text>
<polyline fill="none" stroke="#bfbfbf" points="75,-533.5 219,-533.5 "/>
<text text-anchor="middle" x="147" y="-521.5" font-family="Fira Code" font-size="10.00" fill="#000000"> </text>
</a>
</g>
</g>
<!-- Node6&#45;&gt;Node5 -->
<g id="edge3" class="edge">
<title>Node6&#45;&gt;Node5</title>
<path fill="none" stroke="#404040" d="M147,-514.3055C147,-503.8925 147,-491.5596 147,-478.9054"/>
<polygon fill="none" stroke="#404040" points="147.0001,-478.7267 143,-472.7267 147,-466.7267 151,-472.7267 147.0001,-478.7267"/>
<text text-anchor="middle" x="177.5" y="-488" font-family="Fira Code" font-size="10.00" fill="#000000"> #config</text>
</g>
</g>
</svg>
