<?xml version="1.0" encoding="UTF-8" standalone="no"?>
<!DOCTYPE svg PUBLIC "-//W3C//DTD SVG 1.1//EN"
 "http://www.w3.org/Graphics/SVG/1.1/DTD/svg11.dtd">
<!-- Generated by graphviz version 2.40.1 (0)
 -->
<!-- Title: include/travesim_adapters/data/entity_state.hpp Pages: 1 -->
<!--zoomable 240 -->
<svg id="main" version="1.1" xmlns="http://www.w3.org/2000/svg" xmlns:xlink="http://www.w3.org/1999/xlink" xml:space="preserve" onload="init(evt)">
<style type="text/css"><![CDATA[
.edge:hover path { stroke: red; }
.edge:hover polygon { stroke: red; fill: red; }
]]></style>
<script type="text/javascript"><![CDATA[
var edges = document.getElementsByTagName('g');
if (edges && edges.length) {
  for (var i=0;i<edges.length;i++) {
    if (edges[i].id.substr(0,4)=='edge') {
      edges[i].setAttribute('class','edge');
    }
  }
}
]]></script>
        <defs>
                <circle id="rim" cx="0" cy="0" r="7"/>
                <circle id="rim2" cx="0" cy="0" r="3.5"/>
                <g id="zoomPlus">
                        <use xlink:href="#rim" fill="#404040">
                                <set attributeName="fill" to="#808080" begin="zoomplus.mouseover" end="zoomplus.mouseout"/>
                        </use>
                        <path d="M-4,0h8M0,-4v8" fill="none" stroke="white" stroke-width="1.5" pointer-events="none"/>
                </g>
                <g id="zoomMin">
                        <use xlink:href="#rim" fill="#404040">
                                <set attributeName="fill" to="#808080" begin="zoomminus.mouseover" end="zoomminus.mouseout"/>
                        </use>
                        <path d="M-4,0h8" fill="none" stroke="white" stroke-width="1.5" pointer-events="none"/>
                </g>
                <g id="dirArrow">
                        <path fill="none" stroke="white" stroke-width="1.5" d="M0,-3.0v7 M-2.5,-0.5L0,-3.0L2.5,-0.5"/>
                </g>
               <g id="resetDef">
                       <use xlink:href="#rim2" fill="#404040">
                               <set attributeName="fill" to="#808080" begin="reset.mouseover" end="reset.mouseout"/>
                       </use>
               </g>
        </defs>

<script type="text/javascript">
var viewWidth = 1940;
var viewHeight = 240;
var sectionId = 'dynsection-1';
</script>
<script xlink:href="../../svgpan.js"/>
<svg id="graph" class="graph">
<g id="viewport">
<title>include/travesim_adapters/data/entity_state.hpp</title>
<!-- Node2 -->
<g id="node1" class="node">
<title>Node2</title>
<g id="a_node1"><a xlink:title="Entity state data structure.">
<polygon fill="#bfbfbf" stroke="#000000" points="890.5,-201.5 890.5,-231.5 1094.5,-231.5 1094.5,-201.5 890.5,-201.5"/>
<text text-anchor="start" x="898.5" y="-219.5" font-family="Fira Code" font-size="10.00" fill="#000000">include/travesim_adapters</text>
<text text-anchor="middle" x="992.5" y="-208.5" font-family="Fira Code" font-size="10.00" fill="#000000">/data/entity_state.hpp</text>
</a>
</g>
</g>
<!-- Node3 -->
<g id="node2" class="node">
<title>Node3</title>
<g id="a_node2"><a xlink:href="../../d2/d46/ros__side_8hpp.html" target="_top" xlink:title="Collection of data converters between ROS and local formats.">
<polygon fill="none" stroke="#000000" points="814,-67.5 814,-97.5 1041,-97.5 1041,-67.5 814,-67.5"/>
<text text-anchor="start" x="822" y="-85.5" font-family="Fira Code" font-size="10.00" fill="#000000">include/travesim_adapters</text>
<text text-anchor="middle" x="927.5" y="-74.5" font-family="Fira Code" font-size="10.00" fill="#000000">/data/converter/ros_side.hpp</text>
</a>
</g>
</g>
<!-- Node2&#45;&gt;Node3 -->
<g id="edge1" class="edge">
<title>Node2&#45;&gt;Node3</title>
<path fill="none" stroke="#191970" d="M968.1012,-194.1765C960.1591,-185.7379 951.9857,-175.5963 946.5,-165 935.2155,-143.2024 930.5683,-114.7358 928.7009,-97.5771"/>
<polygon fill="#191970" stroke="#191970" points="965.7292,-196.7557 975.2461,-201.4117 970.7099,-191.8371 965.7292,-196.7557"/>
</g>
<!-- Node5 -->
<g id="node4" class="node">
<title>Node5</title>
<g id="a_node4"><a xlink:href="../../df/ddf/vision__adapter_8cpp.html" target="_top" xlink:title="Vision adapter executable file.">
<polygon fill="none" stroke="#000000" points="422.5,-6 422.5,-25 634.5,-25 634.5,-6 422.5,-6"/>
<text text-anchor="middle" x="528.5" y="-13" font-family="Fira Code" font-size="10.00" fill="#000000">src/bin/vision_adapter.cpp</text>
</a>
</g>
</g>
<!-- Node2&#45;&gt;Node5 -->
<g id="edge25" class="edge">
<title>Node2&#45;&gt;Node5</title>
<path fill="none" stroke="#191970" d="M950.315,-197.0516C903.2626,-174.8601 825.3679,-136.6217 761.5,-98 741.03,-85.6216 739.1442,-77.187 717.5,-67 674.2667,-46.6519 621.5596,-33.1266 582.8,-25.0641"/>
<polygon fill="#191970" stroke="#191970" points="949.0466,-200.3226 959.586,-201.4045 952.0217,-193.9862 949.0466,-200.3226"/>
</g>
<!-- Node9 -->
<g id="node8" class="node">
<title>Node9</title>
<g id="a_node8"><a xlink:href="../../de/d1e/field__state_8hpp.html" target="_top" xlink:title=" ">
<polygon fill="none" stroke="#000000" points="515.5,-134.5 515.5,-164.5 719.5,-164.5 719.5,-134.5 515.5,-134.5"/>
<text text-anchor="start" x="523.5" y="-152.5" font-family="Fira Code" font-size="10.00" fill="#000000">include/travesim_adapters</text>
<text text-anchor="middle" x="617.5" y="-141.5" font-family="Fira Code" font-size="10.00" fill="#000000">/data/field_state.hpp</text>
</a>
</g>
</g>
<!-- Node2&#45;&gt;Node9 -->
<g id="edge7" class="edge">
<title>Node2&#45;&gt;Node9</title>
<path fill="none" stroke="#191970" d="M898.4147,-199.6901C837.9628,-188.8893 760.1101,-174.9797 701.7002,-164.5438"/>
<polygon fill="#191970" stroke="#191970" points="897.883,-203.1504 908.3427,-201.4639 899.1142,-196.2596 897.883,-203.1504"/>
</g>
<!-- Node14 -->
<g id="node13" class="node">
<title>Node14</title>
<g id="a_node13"><a xlink:href="../../dc/d09/robot__state_8hpp.html" target="_top" xlink:title="Robot state data structure.">
<polygon fill="none" stroke="#000000" points="955.5,-134.5 955.5,-164.5 1159.5,-164.5 1159.5,-134.5 955.5,-134.5"/>
<text text-anchor="start" x="963.5" y="-152.5" font-family="Fira Code" font-size="10.00" fill="#000000">include/travesim_adapters</text>
<text text-anchor="middle" x="1057.5" y="-141.5" font-family="Fira Code" font-size="10.00" fill="#000000">/data/robot_state.hpp</text>
</a>
</g>
</g>
<!-- Node2&#45;&gt;Node14 -->
<g id="edge15" class="edge">
<title>Node2&#45;&gt;Node14</title>
<path fill="none" stroke="#191970" d="M1014.4008,-193.9253C1023.7555,-184.2828 1034.4257,-173.2843 1042.8089,-164.6432"/>
<polygon fill="#191970" stroke="#191970" points="1011.7006,-191.6821 1007.2495,-201.2967 1016.7248,-196.5564 1011.7006,-191.6821"/>
</g>
<!-- Node15 -->
<g id="node14" class="node">
<title>Node15</title>
<g id="a_node14"><a xlink:href="../../d4/d4c/replacer__receiver_8hpp.html" target="_top" xlink:title="Replacer receiver with UDP and protobuf.">
<polygon fill="none" stroke="#000000" points="1268,-67.5 1268,-97.5 1517,-97.5 1517,-67.5 1268,-67.5"/>
<text text-anchor="start" x="1276" y="-85.5" font-family="Fira Code" font-size="10.00" fill="#000000">include/travesim_adapters</text>
<text text-anchor="middle" x="1392.5" y="-74.5" font-family="Fira Code" font-size="10.00" fill="#000000">/protobuf/replacer_receiver.hpp</text>
</a>
</g>
</g>
<!-- Node2&#45;&gt;Node15 -->
<g id="edge24" class="edge">
<title>Node2&#45;&gt;Node15</title>
<path fill="none" stroke="#191970" d="M1077.7737,-198.8882C1107.4893,-190.8691 1140.4041,-179.7874 1168.5,-165 1187.7876,-154.8486 1187.1391,-144.0108 1206.5,-134 1238.6444,-117.3793 1276.771,-105.6164 1310.1112,-97.5707"/>
<polygon fill="#191970" stroke="#191970" points="1076.6181,-195.5727 1067.8305,-201.4912 1078.3909,-202.3445 1076.6181,-195.5727"/>
</g>
<!-- Node19 -->
<g id="node18" class="node">
<title>Node19</title>
<g id="a_node18"><a xlink:href="../../d7/d71/entity__state_8cpp.html" target="_top" xlink:title="Entity state data structure.">
<polygon fill="none" stroke="#000000" points="1215,-134.5 1215,-164.5 1374,-164.5 1374,-134.5 1215,-134.5"/>
<text text-anchor="start" x="1223" y="-152.5" font-family="Fira Code" font-size="10.00" fill="#000000">src/lib/data/entity</text>
<text text-anchor="middle" x="1294.5" y="-141.5" font-family="Fira Code" font-size="10.00" fill="#000000">_state.cpp</text>
</a>
</g>
</g>
<!-- Node2&#45;&gt;Node19 -->
<g id="edge26" class="edge">
<title>Node2&#45;&gt;Node19</title>
<path fill="none" stroke="#191970" d="M1070.0832,-199.2878C1118.5029,-188.5457 1180.2333,-174.8506 1226.6908,-164.5438"/>
<polygon fill="#191970" stroke="#191970" points="1069.2792,-195.881 1060.2747,-201.4639 1070.7954,-202.7149 1069.2792,-195.881"/>
</g>
<!-- Node4 -->
<g id="node3" class="node">
<title>Node4</title>
<g id="a_node3"><a xlink:href="../../da/d85/replacer__adapter_8cpp.html" target="_top" xlink:title="Replacer adapter execution file.">
<polygon fill="none" stroke="#000000" points="1252,-6 1252,-25 1479,-25 1479,-6 1252,-6"/>
<text text-anchor="middle" x="1365.5" y="-13" font-family="Fira Code" font-size="10.00" fill="#000000">src/bin/replacer_adapter.cpp</text>
</a>
</g>
</g>
<!-- Node3&#45;&gt;Node4 -->
<g id="edge2" class="edge">
<title>Node3&#45;&gt;Node4</title>
<path fill="none" stroke="#191970" d="M1035.913,-65.9163C1120.1175,-53.0357 1233.8945,-35.6314 1303.361,-25.0053"/>
<polygon fill="#191970" stroke="#191970" points="1035.1515,-62.492 1025.7957,-67.4639 1036.21,-69.4115 1035.1515,-62.492"/>
</g>
<!-- Node3&#45;&gt;Node5 -->
<g id="edge3" class="edge">
<title>Node3&#45;&gt;Node5</title>
<path fill="none" stroke="#191970" d="M827.8034,-65.759C751.1914,-52.8943 648.13,-35.5882 585.1061,-25.0053"/>
<polygon fill="#191970" stroke="#191970" points="827.515,-69.2595 837.9566,-67.4639 828.6743,-62.3561 827.515,-69.2595"/>
</g>
<!-- Node6 -->
<g id="node5" class="node">
<title>Node6</title>
<g id="a_node5"><a xlink:href="../../de/d8d/ros__side_8cpp.html" target="_top" xlink:title="Collection of data converters between ROS and local formats.">
<polygon fill="none" stroke="#000000" points="652.5,-.5 652.5,-30.5 834.5,-30.5 834.5,-.5 652.5,-.5"/>
<text text-anchor="start" x="660.5" y="-18.5" font-family="Fira Code" font-size="10.00" fill="#000000">src/lib/data/converter</text>
<text text-anchor="middle" x="743.5" y="-7.5" font-family="Fira Code" font-size="10.00" fill="#000000">/ros_side.cpp</text>
</a>
</g>
</g>
<!-- Node3&#45;&gt;Node6 -->
<g id="edge4" class="edge">
<title>Node3&#45;&gt;Node6</title>
<path fill="none" stroke="#191970" d="M876.7002,-64.0023C847.8315,-53.4903 812.1415,-40.4945 784.9733,-30.6017"/>
<polygon fill="#191970" stroke="#191970" points="875.6128,-67.3311 886.2068,-67.4639 878.0079,-60.7535 875.6128,-67.3311"/>
</g>
<!-- Node7 -->
<g id="node6" class="node">
<title>Node7</title>
<g id="a_node6"><a xlink:href="../../d3/d2c/ros__side_8test_8cpp.html" target="_top" xlink:title=" ">
<polygon fill="none" stroke="#000000" points="1045,-.5 1045,-30.5 1234,-30.5 1234,-.5 1045,-.5"/>
<text text-anchor="start" x="1053" y="-18.5" font-family="Fira Code" font-size="10.00" fill="#000000">src/lib/data/converter</text>
<text text-anchor="middle" x="1139.5" y="-7.5" font-family="Fira Code" font-size="10.00" fill="#000000">/test/ros_side.test.cpp</text>
</a>
</g>
</g>
<!-- Node3&#45;&gt;Node7 -->
<g id="edge5" class="edge">
<title>Node3&#45;&gt;Node7</title>
<path fill="none" stroke="#191970" d="M984.7327,-64.4123C1018.2176,-53.8298 1060.0048,-40.6235 1091.7156,-30.6017"/>
<polygon fill="#191970" stroke="#191970" points="983.5574,-61.1131 975.0769,-67.4639 985.6668,-67.7877 983.5574,-61.1131"/>
</g>
<!-- Node8 -->
<g id="node7" class="node">
<title>Node8</title>
<g id="a_node7"><a xlink:href="../../da/db5/gazebo__services_8mock_8cpp.html" target="_top" xlink:title=" ">
<polygon fill="none" stroke="#000000" points="852.5,-.5 852.5,-30.5 1026.5,-30.5 1026.5,-.5 852.5,-.5"/>
<text text-anchor="start" x="860.5" y="-18.5" font-family="Fira Code" font-size="10.00" fill="#000000">test/mocks/bin/gazebo</text>
<text text-anchor="middle" x="939.5" y="-7.5" font-family="Fira Code" font-size="10.00" fill="#000000">_services.mock.cpp</text>
</a>
</g>
</g>
<!-- Node3&#45;&gt;Node8 -->
<g id="edge6" class="edge">
<title>Node3&#45;&gt;Node8</title>
<path fill="none" stroke="#191970" d="M932.0102,-57.3179C933.618,-48.3414 935.378,-38.5143 936.7878,-30.6432"/>
<polygon fill="#191970" stroke="#191970" points="928.5409,-56.8362 930.223,-67.2967 935.4312,-58.0704 928.5409,-56.8362"/>
</g>
<!-- Node9&#45;&gt;Node3 -->
<g id="edge8" class="edge">
<title>Node9&#45;&gt;Node3</title>
<path fill="none" stroke="#191970" d="M697.1384,-132.2878C746.8407,-121.5457 810.2063,-107.8506 857.8945,-97.5438"/>
<polygon fill="#191970" stroke="#191970" points="696.105,-128.9303 687.0701,-134.4639 697.5838,-135.7723 696.105,-128.9303"/>
</g>
<!-- Node9&#45;&gt;Node5 -->
<g id="edge13" class="edge">
<title>Node9&#45;&gt;Node5</title>
<path fill="none" stroke="#191970" d="M579.4696,-128.8243C567.6251,-120.6642 555.5681,-110.2763 547.5,-98 532.4047,-75.0314 529.2246,-41.5978 528.6069,-25.2435"/>
<polygon fill="#191970" stroke="#191970" points="577.7048,-131.8515 587.9966,-134.3675 581.5201,-125.9826 577.7048,-131.8515"/>
</g>
<!-- Node10 -->
<g id="node9" class="node">
<title>Node10</title>
<g id="a_node9"><a xlink:href="../../db/da8/vision__sender_8hpp.html" target="_top" xlink:title="Vision data sender with UDP and protobuf.">
<polygon fill="none" stroke="#000000" points="241,-67.5 241,-97.5 460,-97.5 460,-67.5 241,-67.5"/>
<text text-anchor="start" x="249" y="-85.5" font-family="Fira Code" font-size="10.00" fill="#000000">include/travesim_adapters</text>
<text text-anchor="middle" x="350.5" y="-74.5" font-family="Fira Code" font-size="10.00" fill="#000000">/protobuf/vision_sender.hpp</text>
</a>
</g>
</g>
<!-- Node9&#45;&gt;Node10 -->
<g id="edge9" class="edge">
<title>Node9&#45;&gt;Node10</title>
<path fill="none" stroke="#191970" d="M547.8508,-132.0225C505.2848,-121.3411 451.3903,-107.8171 410.6814,-97.6017"/>
<polygon fill="#191970" stroke="#191970" points="547.0288,-135.4247 557.58,-134.4639 548.7326,-128.6352 547.0288,-135.4247"/>
</g>
<!-- Node13 -->
<g id="node12" class="node">
<title>Node13</title>
<g id="a_node12"><a xlink:href="../../d2/dbb/field__state_8cpp.html" target="_top" xlink:title=" ">
<polygon fill="none" stroke="#000000" points="556.5,-67.5 556.5,-97.5 708.5,-97.5 708.5,-67.5 556.5,-67.5"/>
<text text-anchor="start" x="564.5" y="-85.5" font-family="Fira Code" font-size="10.00" fill="#000000">src/lib/data/field</text>
<text text-anchor="middle" x="632.5" y="-74.5" font-family="Fira Code" font-size="10.00" fill="#000000">_state.cpp</text>
</a>
</g>
</g>
<!-- Node9&#45;&gt;Node13 -->
<g id="edge14" class="edge">
<title>Node9&#45;&gt;Node13</title>
<path fill="none" stroke="#191970" d="M623.1378,-124.3179C625.1474,-115.3414 627.3475,-105.5143 629.1097,-97.6432"/>
<polygon fill="#191970" stroke="#191970" points="619.6731,-123.7735 620.9037,-134.2967 626.504,-125.3029 619.6731,-123.7735"/>
</g>
<!-- Node10&#45;&gt;Node5 -->
<g id="edge11" class="edge">
<title>Node10&#45;&gt;Node5</title>
<path fill="none" stroke="#191970" d="M400.0797,-63.838C433.615,-51.2151 476.5083,-35.0699 503.2471,-25.0053"/>
<polygon fill="#191970" stroke="#191970" points="398.5727,-60.6654 390.4467,-67.4639 401.0386,-67.2167 398.5727,-60.6654"/>
</g>
<!-- Node11 -->
<g id="node10" class="node">
<title>Node11</title>
<g id="a_node10"><a xlink:href="../../de/d50/vision__sender__example_8cpp.html" target="_top" xlink:title="Example on how to use the VisionSender with protobuf.">
<polygon fill="none" stroke="#000000" points="0,-.5 0,-30.5 197,-30.5 197,-.5 0,-.5"/>
<text text-anchor="start" x="8" y="-18.5" font-family="Fira Code" font-size="10.00" fill="#000000">examples/protobuf/vision</text>
<text text-anchor="middle" x="98.5" y="-7.5" font-family="Fira Code" font-size="10.00" fill="#000000">_sender_example.cpp</text>
</a>
</g>
</g>
<!-- Node10&#45;&gt;Node11 -->
<g id="edge10" class="edge">
<title>Node10&#45;&gt;Node11</title>
<path fill="none" stroke="#191970" d="M284.2556,-64.8874C244.1609,-54.2273 193.5606,-40.774 155.3004,-30.6017"/>
<polygon fill="#191970" stroke="#191970" points="283.3827,-68.2768 293.9463,-67.4639 285.1814,-61.5119 283.3827,-68.2768"/>
</g>
<!-- Node12 -->
<g id="node11" class="node">
<title>Node12</title>
<g id="a_node11"><a xlink:href="../../d0/d19/vision__sender_8cpp.html" target="_top" xlink:title="Vision data sender with UDP and protobuf.">
<polygon fill="none" stroke="#000000" points="215,-.5 215,-30.5 404,-30.5 404,-.5 215,-.5"/>
<text text-anchor="start" x="223" y="-18.5" font-family="Fira Code" font-size="10.00" fill="#000000">src/lib/protobuf/vision</text>
<text text-anchor="middle" x="309.5" y="-7.5" font-family="Fira Code" font-size="10.00" fill="#000000">_sender.cpp</text>
</a>
</g>
</g>
<!-- Node10&#45;&gt;Node12 -->
<g id="edge12" class="edge">
<title>Node10&#45;&gt;Node12</title>
<path fill="none" stroke="#191970" d="M335.8035,-58.4837C330.1222,-49.1996 323.7928,-38.8565 318.7667,-30.6432"/>
<polygon fill="#191970" stroke="#191970" points="332.9914,-60.5939 341.1965,-67.2967 338.9622,-56.9401 332.9914,-60.5939"/>
</g>
<!-- Node14&#45;&gt;Node3 -->
<g id="edge16" class="edge">
<title>Node14&#45;&gt;Node3</title>
<path fill="none" stroke="#191970" d="M1019.2262,-129.7743C999.356,-119.5335 975.4509,-107.2132 957.027,-97.7177"/>
<polygon fill="#191970" stroke="#191970" points="1017.8331,-132.9938 1028.3255,-134.4639 1021.04,-126.7715 1017.8331,-132.9938"/>
</g>
<!-- Node14&#45;&gt;Node5 -->
<g id="edge21" class="edge">
<title>Node14&#45;&gt;Node5</title>
<path fill="none" stroke="#191970" d="M945.2408,-136.7037C900.5022,-129.0293 849.3289,-116.9286 805.5,-98 783.5389,-88.5155 783.3848,-76.6592 761.5,-67 712.6086,-45.421 653.8269,-32.5126 607.537,-25.0159"/>
<polygon fill="#191970" stroke="#191970" points="944.837,-140.1845 955.2753,-138.3701 945.9837,-133.2791 944.837,-140.1845"/>
</g>
<!-- Node14&#45;&gt;Node7 -->
<g id="edge22" class="edge">
<title>Node14&#45;&gt;Node7</title>
<path fill="none" stroke="#191970" d="M1063.8923,-124.5149C1068.9531,-107.4589 1077.0816,-84.8152 1088.5,-67 1097.3271,-53.2278 1110.3407,-40.1625 1121.0127,-30.6377"/>
<polygon fill="#191970" stroke="#191970" points="1060.473,-123.7455 1061.1357,-134.3195 1067.2117,-125.6401 1060.473,-123.7455"/>
</g>
<!-- Node14&#45;&gt;Node15 -->
<g id="edge17" class="edge">
<title>Node14&#45;&gt;Node15</title>
<path fill="none" stroke="#191970" d="M1142.5534,-132.4893C1196.413,-121.7174 1265.4244,-107.9151 1317.2811,-97.5438"/>
<polygon fill="#191970" stroke="#191970" points="1141.7999,-129.0706 1132.6805,-134.4639 1143.1728,-135.9347 1141.7999,-129.0706"/>
</g>
<!-- Node18 -->
<g id="node17" class="node">
<title>Node18</title>
<g id="a_node17"><a xlink:href="../../da/dc2/robot__state_8cpp.html" target="_top" xlink:title="Robot state data structure.">
<polygon fill="none" stroke="#000000" points="1097.5,-67.5 1097.5,-97.5 1249.5,-97.5 1249.5,-67.5 1097.5,-67.5"/>
<text text-anchor="start" x="1105.5" y="-85.5" font-family="Fira Code" font-size="10.00" fill="#000000">src/lib/data/robot</text>
<text text-anchor="middle" x="1173.5" y="-74.5" font-family="Fira Code" font-size="10.00" fill="#000000">_state.cpp</text>
</a>
</g>
</g>
<!-- Node14&#45;&gt;Node18 -->
<g id="edge23" class="edge">
<title>Node14&#45;&gt;Node18</title>
<path fill="none" stroke="#191970" d="M1092.376,-129.3561C1109.9605,-119.1995 1130.9362,-107.0843 1147.1529,-97.7177"/>
<polygon fill="#191970" stroke="#191970" points="1090.4415,-126.4315 1083.5327,-134.4639 1093.9426,-132.4931 1090.4415,-126.4315"/>
</g>
<!-- Node15&#45;&gt;Node4 -->
<g id="edge19" class="edge">
<title>Node15&#45;&gt;Node4</title>
<path fill="none" stroke="#191970" d="M1382.551,-57.8118C1377.9622,-46.4246 1372.784,-33.5752 1369.3505,-25.055"/>
<polygon fill="#191970" stroke="#191970" points="1379.3891,-59.3297 1386.3733,-67.2967 1385.8818,-56.7132 1379.3891,-59.3297"/>
</g>
<!-- Node16 -->
<g id="node15" class="node">
<title>Node16</title>
<g id="a_node15"><a xlink:href="../../d8/d50/replacer__receiver__example_8cpp.html" target="_top" xlink:title="Example to read data published from VSSReplacer.">
<polygon fill="none" stroke="#000000" points="1719.5,-.5 1719.5,-30.5 1931.5,-30.5 1931.5,-.5 1719.5,-.5"/>
<text text-anchor="start" x="1727.5" y="-18.5" font-family="Fira Code" font-size="10.00" fill="#000000">examples/protobuf/replacer</text>
<text text-anchor="middle" x="1825.5" y="-7.5" font-family="Fira Code" font-size="10.00" fill="#000000">_receiver_example.cpp</text>
</a>
</g>
</g>
<!-- Node15&#45;&gt;Node16 -->
<g id="edge18" class="edge">
<title>Node15&#45;&gt;Node16</title>
<path fill="none" stroke="#191970" d="M1499.8442,-65.8902C1569.8261,-55.0616 1660.4157,-41.0442 1728.2768,-30.5438"/>
<polygon fill="#191970" stroke="#191970" points="1499.0208,-62.4758 1489.6737,-67.4639 1500.0913,-69.3935 1499.0208,-62.4758"/>
</g>
<!-- Node17 -->
<g id="node16" class="node">
<title>Node17</title>
<g id="a_node16"><a xlink:href="../../d2/d5a/replacer__receiver_8cpp.html" target="_top" xlink:title="Replacer receiver with UDP and protobuf.">
<polygon fill="none" stroke="#000000" points="1497.5,-.5 1497.5,-30.5 1701.5,-30.5 1701.5,-.5 1497.5,-.5"/>
<text text-anchor="start" x="1505.5" y="-18.5" font-family="Fira Code" font-size="10.00" fill="#000000">src/lib/protobuf/replacer</text>
<text text-anchor="middle" x="1599.5" y="-7.5" font-family="Fira Code" font-size="10.00" fill="#000000">_receiver.cpp</text>
</a>
</g>
</g>
<!-- Node15&#45;&gt;Node17 -->
<g id="edge20" class="edge">
<title>Node15&#45;&gt;Node17</title>
<path fill="none" stroke="#191970" d="M1448.8043,-64.2759C1481.4281,-53.7165 1522.0125,-40.5805 1552.8425,-30.6017"/>
<polygon fill="#191970" stroke="#191970" points="1447.3911,-61.0545 1438.9548,-67.4639 1449.5467,-67.7143 1447.3911,-61.0545"/>
</g>
</g>
</svg>
        <g id="navigator" transform="translate(0 0)" fill="#404254">
                <rect fill="#f2f5e9" fill-opacity="0.5" stroke="#606060" stroke-width=".5" x="0" y="0" width="60" height="60"/>
                <use id="zoomplus" xlink:href="#zoomPlus" x="17" y="9" onmousedown="handleZoom(evt,'in')"/>
                <use id="zoomminus" xlink:href="#zoomMin" x="42" y="9" onmousedown="handleZoom(evt,'out')"/>
                <use id="reset" xlink:href="#resetDef" x="30" y="36" onmousedown="handleReset()"/>
                <g id="arrowUp" xlink:href="#dirArrow" transform="translate(30 24)" onmousedown="handlePan(0,-1)">
                  <use xlink:href="#rim" fill="#404040">
                        <set attributeName="fill" to="#808080" begin="arrowUp.mouseover" end="arrowUp.mouseout"/>
                  </use>
                  <path fill="none" stroke="white" stroke-width="1.5" d="M0,-3.0v7 M-2.5,-0.5L0,-3.0L2.5,-0.5"/>
                </g>
                <g id="arrowRight" xlink:href="#dirArrow" transform="rotate(90) translate(36 -43)" onmousedown="handlePan(1,0)">
                  <use xlink:href="#rim" fill="#404040">
                        <set attributeName="fill" to="#808080" begin="arrowRight.mouseover" end="arrowRight.mouseout"/>
                  </use>
                  <path fill="none" stroke="white" stroke-width="1.5" d="M0,-3.0v7 M-2.5,-0.5L0,-3.0L2.5,-0.5"/>
                </g>
                <g id="arrowDown" xlink:href="#dirArrow" transform="rotate(180) translate(-30 -48)" onmousedown="handlePan(0,1)">
                  <use xlink:href="#rim" fill="#404040">
                        <set attributeName="fill" to="#808080" begin="arrowDown.mouseover" end="arrowDown.mouseout"/>
                  </use>
                  <path fill="none" stroke="white" stroke-width="1.5" d="M0,-3.0v7 M-2.5,-0.5L0,-3.0L2.5,-0.5"/>
                </g>
                <g id="arrowLeft" xlink:href="#dirArrow" transform="rotate(270) translate(-36 17)" onmousedown="handlePan(-1,0)">
                  <use xlink:href="#rim" fill="#404040">
                        <set attributeName="fill" to="#808080" begin="arrowLeft.mouseover" end="arrowLeft.mouseout"/>
                  </use>
                  <path fill="none" stroke="white" stroke-width="1.5" d="M0,-3.0v7 M-2.5,-0.5L0,-3.0L2.5,-0.5"/>
                </g>
        </g>
        <svg viewBox="0 0 15 15" width="100%" height="30px" preserveAspectRatio="xMaxYMin meet">
         <g id="arrow_out" transform="scale(0.3 0.3)">
          <a xlink:href="entity__state_8hpp__dep__incl_org.svg" target="_base">
           <rect id="button" ry="5" rx="5" y="6" x="6" height="38" width="38"
                fill="#f2f5e9" fill-opacity="0.5" stroke="#606060" stroke-width="1.0"/>
           <path id="arrow"
             d="M 11.500037,31.436501 C 11.940474,20.09759 22.043105,11.32322 32.158766,21.979434 L 37.068811,17.246167 C 37.068811,17.246167 37.088388,32 37.088388,32 L 22.160133,31.978069 C 22.160133,31.978069 26.997745,27.140456 26.997745,27.140456 C 18.528582,18.264221 13.291696,25.230495 11.500037,31.436501 z"
             style="fill:#404040;"/>
          </a>
         </g>
        </svg>
</svg>
