<?xml version="1.0" encoding="UTF-8" standalone="no"?>
<!DOCTYPE svg PUBLIC "-//W3C//DTD SVG 1.1//EN"
 "http://www.w3.org/Graphics/SVG/1.1/DTD/svg11.dtd">
<!-- Generated by graphviz version 2.40.1 (0)
 -->
<!-- Title: src/lib/ros/teams_sender.cpp Pages: 1 -->
<svg width="536pt" height="229pt"
 viewBox="0.00 0.00 535.50 229.00" xmlns="http://www.w3.org/2000/svg" xmlns:xlink="http://www.w3.org/1999/xlink">
<g id="graph0" class="graph" transform="scale(1 1) rotate(0) translate(4 225)">
<title>src/lib/ros/teams_sender.cpp</title>
<!-- Node0 -->
<g id="node1" class="node">
<title>Node0</title>
<g id="a_node1"><a xlink:title="ROS teams commands sender class definition.">
<polygon fill="#bfbfbf" stroke="#000000" points="117.5,-201.5 117.5,-220.5 344.5,-220.5 344.5,-201.5 117.5,-201.5"/>
<text text-anchor="middle" x="231" y="-208.5" font-family="Fira Code" font-size="10.00" fill="#000000">src/lib/ros/teams_sender.cpp</text>
</a>
</g>
</g>
<!-- Node1 -->
<g id="node2" class="node">
<title>Node1</title>
<g id="a_node2"><a xlink:title=" ">
<polygon fill="none" stroke="#bfbfbf" points="0,-73 0,-92 84,-92 84,-73 0,-73"/>
<text text-anchor="middle" x="42" y="-80" font-family="Fira Code" font-size="10.00" fill="#000000">ros/ros.h</text>
</a>
</g>
</g>
<!-- Node0&#45;&gt;Node1 -->
<g id="edge1" class="edge">
<title>Node0&#45;&gt;Node1</title>
<path fill="none" stroke="#191970" d="M206.3242,-201.4264C186.3109,-193.1423 157.7851,-180.1322 135,-165 105.688,-145.5332 75.9925,-117.4017 58.2899,-99.5366"/>
<polygon fill="#191970" stroke="#191970" points="60.5359,-96.827 51.0447,-92.1188 55.5282,-101.7182 60.5359,-96.827"/>
</g>
<!-- Node2 -->
<g id="node3" class="node">
<title>Node2</title>
<g id="a_node3"><a xlink:title=" ">
<polygon fill="none" stroke="#bfbfbf" points="336,-140 336,-159 488,-159 488,-140 336,-140"/>
<text text-anchor="middle" x="412" y="-147" font-family="Fira Code" font-size="10.00" fill="#000000">std_msgs/Float64.h</text>
</a>
</g>
</g>
<!-- Node0&#45;&gt;Node2 -->
<g id="edge2" class="edge">
<title>Node0&#45;&gt;Node2</title>
<path fill="none" stroke="#191970" d="M259.2813,-201.3906C290.23,-190.8749 339.9942,-173.966 374.257,-162.3243"/>
<polygon fill="#191970" stroke="#191970" points="375.575,-165.573 383.9173,-159.0419 373.3229,-158.9452 375.575,-165.573"/>
</g>
<!-- Node3 -->
<g id="node4" class="node">
<title>Node3</title>
<g id="a_node4"><a xlink:href="../../d3/d35/teams__sender_8hpp.html" target="_top" xlink:title="ROS teams commands sender class definition.">
<polygon fill="none" stroke="#000000" points="144,-134.5 144,-164.5 318,-164.5 318,-134.5 144,-134.5"/>
<text text-anchor="start" x="152" y="-152.5" font-family="Fira Code" font-size="10.00" fill="#000000">travesim_adapters/ros</text>
<text text-anchor="middle" x="231" y="-141.5" font-family="Fira Code" font-size="10.00" fill="#000000">/teams_sender.hpp</text>
</a>
</g>
</g>
<!-- Node0&#45;&gt;Node3 -->
<g id="edge3" class="edge">
<title>Node0&#45;&gt;Node3</title>
<path fill="none" stroke="#191970" d="M231,-201.3906C231,-194.2234 231,-184.0862 231,-174.671"/>
<polygon fill="#191970" stroke="#191970" points="234.5001,-174.5446 231,-164.5446 227.5001,-174.5446 234.5001,-174.5446"/>
</g>
<!-- Node3&#45;&gt;Node1 -->
<g id="edge4" class="edge">
<title>Node3&#45;&gt;Node1</title>
<path fill="none" stroke="#191970" d="M188.5847,-134.4639C155.4891,-122.7316 109.9988,-106.6054 78.5112,-95.4431"/>
<polygon fill="#191970" stroke="#191970" points="79.4082,-92.0477 68.8134,-92.0053 77.0693,-98.6454 79.4082,-92.0477"/>
</g>
<!-- Node4 -->
<g id="node5" class="node">
<title>Node4</title>
<g id="a_node5"><a xlink:title=" ">
<polygon fill="none" stroke="#bfbfbf" points="340,-73 340,-92 454,-92 454,-73 340,-73"/>
<text text-anchor="middle" x="397" y="-80" font-family="Fira Code" font-size="10.00" fill="#000000">ros/console.h</text>
</a>
</g>
</g>
<!-- Node3&#45;&gt;Node4 -->
<g id="edge5" class="edge">
<title>Node3&#45;&gt;Node4</title>
<path fill="none" stroke="#191970" d="M268.2536,-134.4639C296.8591,-122.9183 336.0072,-107.1176 363.6022,-95.9798"/>
<polygon fill="#191970" stroke="#191970" points="365.242,-99.0924 373.2052,-92.1039 362.622,-92.6012 365.242,-99.0924"/>
</g>
<!-- Node5 -->
<g id="node6" class="node">
<title>Node5</title>
<g id="a_node6"><a xlink:href="../../d7/d05/team__command_8hpp.html" target="_top" xlink:title="Team command data structure.">
<polygon fill="none" stroke="#000000" points="140,-67.5 140,-97.5 322,-97.5 322,-67.5 140,-67.5"/>
<text text-anchor="start" x="148" y="-85.5" font-family="Fira Code" font-size="10.00" fill="#000000">travesim_adapters/data</text>
<text text-anchor="middle" x="231" y="-74.5" font-family="Fira Code" font-size="10.00" fill="#000000">/team_command.hpp</text>
</a>
</g>
</g>
<!-- Node3&#45;&gt;Node5 -->
<g id="edge6" class="edge">
<title>Node3&#45;&gt;Node5</title>
<path fill="none" stroke="#191970" d="M231,-134.2967C231,-126.5013 231,-116.7991 231,-107.9064"/>
<polygon fill="#191970" stroke="#191970" points="234.5001,-107.6431 231,-97.6432 227.5001,-107.6432 234.5001,-107.6431"/>
</g>
<!-- Node6 -->
<g id="node7" class="node">
<title>Node6</title>
<g id="a_node7"><a xlink:title=" ">
<polygon fill="none" stroke="#bfbfbf" points="340,-6 340,-25 402,-25 402,-6 340,-6"/>
<text text-anchor="middle" x="371" y="-13" font-family="Fira Code" font-size="10.00" fill="#000000">vector</text>
</a>
</g>
</g>
<!-- Node3&#45;&gt;Node6 -->
<g id="edge11" class="edge">
<title>Node3&#45;&gt;Node6</title>
<path fill="none" stroke="#191970" d="M318.1096,-135.5406C379.9485,-124.7413 453.608,-109.7055 463,-98 485.09,-70.4687 440.7837,-44.2484 406.3023,-29.0261"/>
<polygon fill="#191970" stroke="#191970" points="407.4731,-25.7208 396.9007,-25.0323 404.7362,-32.1636 407.4731,-25.7208"/>
</g>
<!-- Node7 -->
<g id="node8" class="node">
<title>Node7</title>
<g id="a_node8"><a xlink:title=" ">
<polygon fill="none" stroke="#bfbfbf" points="450.5,-6 450.5,-25 527.5,-25 527.5,-6 450.5,-6"/>
<text text-anchor="middle" x="489" y="-13" font-family="Fira Code" font-size="10.00" fill="#000000">iostream</text>
</a>
</g>
</g>
<!-- Node3&#45;&gt;Node7 -->
<g id="edge12" class="edge">
<title>Node3&#45;&gt;Node7</title>
<path fill="none" stroke="#191970" d="M315.01,-134.4559C384.6894,-121.6029 473.2713,-104.2321 479,-98 494.4354,-81.2082 494.6207,-53.6949 492.5044,-35.105"/>
<polygon fill="#191970" stroke="#191970" points="495.952,-34.4904 491.0479,-25.0989 489.025,-35.4988 495.952,-34.4904"/>
</g>
<!-- Node8 -->
<g id="node9" class="node">
<title>Node8</title>
<g id="a_node9"><a xlink:href="../../d9/d46/data__common_8hpp.html" target="_top" xlink:title="Common constants and types for the data structures.">
<polygon fill="none" stroke="#000000" points="80,-.5 80,-30.5 262,-30.5 262,-.5 80,-.5"/>
<text text-anchor="start" x="88" y="-18.5" font-family="Fira Code" font-size="10.00" fill="#000000">travesim_adapters/data</text>
<text text-anchor="middle" x="171" y="-7.5" font-family="Fira Code" font-size="10.00" fill="#000000">/data_common.hpp</text>
</a>
</g>
</g>
<!-- Node3&#45;&gt;Node8 -->
<g id="edge10" class="edge">
<title>Node3&#45;&gt;Node8</title>
<path fill="none" stroke="#191970" d="M177.2339,-134.4745C159.3524,-126.6361 141.3707,-115.006 131,-98 119.1774,-78.613 132.9522,-55.2142 147.4674,-38.295"/>
<polygon fill="#191970" stroke="#191970" points="150.3788,-40.2977 154.5436,-30.5557 145.2127,-35.5742 150.3788,-40.2977"/>
</g>
<!-- Node5&#45;&gt;Node6 -->
<g id="edge7" class="edge">
<title>Node5&#45;&gt;Node6</title>
<path fill="none" stroke="#191970" d="M262.4187,-67.4639C286.2264,-56.0702 318.6929,-40.5327 341.9095,-29.4219"/>
<polygon fill="#191970" stroke="#191970" points="343.4228,-32.5779 350.9321,-25.1039 340.4009,-26.2637 343.4228,-32.5779"/>
</g>
<!-- Node5&#45;&gt;Node7 -->
<g id="edge8" class="edge">
<title>Node5&#45;&gt;Node7</title>
<path fill="none" stroke="#191970" d="M288.9002,-67.4639C335.2518,-55.4269 399.4136,-38.7647 442.4694,-27.5835"/>
<polygon fill="#191970" stroke="#191970" points="443.5984,-30.9065 452.3976,-25.0053 441.8388,-24.1313 443.5984,-30.9065"/>
</g>
<!-- Node5&#45;&gt;Node8 -->
<g id="edge9" class="edge">
<title>Node5&#45;&gt;Node8</title>
<path fill="none" stroke="#191970" d="M217.3851,-67.2967C209.7137,-58.7303 199.9804,-47.8614 191.4128,-38.2943"/>
<polygon fill="#191970" stroke="#191970" points="193.8396,-35.7578 184.561,-30.6432 188.6249,-40.4276 193.8396,-35.7578"/>
</g>
</g>
</svg>
