<?xml version="1.0" encoding="UTF-8" standalone="no"?>
<!DOCTYPE svg PUBLIC "-//W3C//DTD SVG 1.1//EN"
 "http://www.w3.org/Graphics/SVG/1.1/DTD/svg11.dtd">
<!-- Generated by graphviz version 2.40.1 (0)
 -->
<!-- Title: include/travesim_adapters/configurers/replacer_configurer.hpp Pages: 1 -->
<svg width="635pt" height="117pt"
 viewBox="0.00 0.00 635.00 117.00" xmlns="http://www.w3.org/2000/svg" xmlns:xlink="http://www.w3.org/1999/xlink">
<g id="graph0" class="graph" transform="scale(1 1) rotate(0) translate(4 113)">
<title>include/travesim_adapters/configurers/replacer_configurer.hpp</title>
<!-- Node8 -->
<g id="node1" class="node">
<title>Node8</title>
<g id="a_node1"><a xlink:title="Configurer for the Replacer.">
<polygon fill="#bfbfbf" stroke="#000000" points="155,-78.5 155,-108.5 442,-108.5 442,-78.5 155,-78.5"/>
<text text-anchor="start" x="163" y="-96.5" font-family="Fira Code" font-size="10.00" fill="#000000">include/travesim_adapters</text>
<text text-anchor="middle" x="298.5" y="-85.5" font-family="Fira Code" font-size="10.00" fill="#000000">/configurers/replacer_configurer.hpp</text>
</a>
</g>
</g>
<!-- Node9 -->
<g id="node2" class="node">
<title>Node9</title>
<g id="a_node2"><a xlink:href="../../dd/d3a/replacer__configurer__example_8cpp.html" target="_top" xlink:title="Example on how to use the ReplacerConfigurer.">
<polygon fill="none" stroke="#000000" points="0,-.5 0,-41.5 167,-41.5 167,-.5 0,-.5"/>
<text text-anchor="start" x="8" y="-29.5" font-family="Fira Code" font-size="10.00" fill="#000000">examples/configurers</text>
<text text-anchor="start" x="8" y="-18.5" font-family="Fira Code" font-size="10.00" fill="#000000">/replacer_configurer</text>
<text text-anchor="middle" x="83.5" y="-7.5" font-family="Fira Code" font-size="10.00" fill="#000000">_example.cpp</text>
</a>
</g>
</g>
<!-- Node8&#45;&gt;Node9 -->
<g id="edge1" class="edge">
<title>Node8&#45;&gt;Node9</title>
<path fill="none" stroke="#191970" d="M244.3498,-75.24C213.8912,-64.9691 175.778,-52.117 144.2976,-41.5015"/>
<polygon fill="#191970" stroke="#191970" points="243.3577,-78.5991 253.9519,-78.478 245.5945,-71.9661 243.3577,-78.5991"/>
</g>
<!-- Node10 -->
<g id="node3" class="node">
<title>Node10</title>
<g id="a_node3"><a xlink:href="../../da/d85/replacer__adapter_8cpp.html" target="_top" xlink:title="Replacer adapter execution file.">
<polygon fill="none" stroke="#000000" points="185,-11.5 185,-30.5 412,-30.5 412,-11.5 185,-11.5"/>
<text text-anchor="middle" x="298.5" y="-18.5" font-family="Fira Code" font-size="10.00" fill="#000000">src/bin/replacer_adapter.cpp</text>
</a>
</g>
</g>
<!-- Node8&#45;&gt;Node10 -->
<g id="edge2" class="edge">
<title>Node8&#45;&gt;Node10</title>
<path fill="none" stroke="#191970" d="M298.5,-68.305C298.5,-55.424 298.5,-40.4836 298.5,-30.8957"/>
<polygon fill="#191970" stroke="#191970" points="295.0001,-68.4779 298.5,-78.478 302.0001,-68.478 295.0001,-68.4779"/>
</g>
<!-- Node11 -->
<g id="node4" class="node">
<title>Node11</title>
<g id="a_node4"><a xlink:href="../../d2/d15/replacer__configurer_8cpp.html" target="_top" xlink:title="Configurer for the Replacer.">
<polygon fill="none" stroke="#000000" points="430,-6 430,-36 627,-36 627,-6 430,-6"/>
<text text-anchor="start" x="438" y="-24" font-family="Fira Code" font-size="10.00" fill="#000000">src/lib/configurers</text>
<text text-anchor="middle" x="528.5" y="-13" font-family="Fira Code" font-size="10.00" fill="#000000">/replacer_configurer.cpp</text>
</a>
</g>
</g>
<!-- Node8&#45;&gt;Node11 -->
<g id="edge3" class="edge">
<title>Node8&#45;&gt;Node11</title>
<path fill="none" stroke="#191970" d="M356.1823,-75.3175C394.6774,-63.1832 444.6848,-47.42 480.9049,-36.0028"/>
<polygon fill="#191970" stroke="#191970" points="354.6413,-72.1334 346.1561,-78.478 356.7458,-78.8096 354.6413,-72.1334"/>
</g>
</g>
</svg>
