<?xml version="1.0" encoding="UTF-8" standalone="no"?>
<!DOCTYPE svg PUBLIC "-//W3C//DTD SVG 1.1//EN"
 "http://www.w3.org/Graphics/SVG/1.1/DTD/svg11.dtd">
<!-- Generated by graphviz version 2.40.1 (0)
 -->
<!-- Title: src/lib/protobuf/team_receiver.cpp Pages: 1 -->
<svg width="624pt" height="296pt"
 viewBox="0.00 0.00 624.00 296.00" xmlns="http://www.w3.org/2000/svg" xmlns:xlink="http://www.w3.org/1999/xlink">
<g id="graph0" class="graph" transform="scale(1 1) rotate(0) translate(4 292)">
<title>src/lib/protobuf/team_receiver.cpp</title>
<!-- Node0 -->
<g id="node1" class="node">
<title>Node0</title>
<g id="a_node1"><a xlink:title="Team control data receiver with UDP and protobuf.">
<polygon fill="#bfbfbf" stroke="#000000" points="87,-257.5 87,-287.5 261,-287.5 261,-257.5 87,-257.5"/>
<text text-anchor="start" x="95" y="-275.5" font-family="Fira Code" font-size="10.00" fill="#000000">src/lib/protobuf/team</text>
<text text-anchor="middle" x="174" y="-264.5" font-family="Fira Code" font-size="10.00" fill="#000000">_receiver.cpp</text>
</a>
</g>
</g>
<!-- Node1 -->
<g id="node2" class="node">
<title>Node1</title>
<g id="a_node2"><a xlink:title=" ">
<polygon fill="none" stroke="#bfbfbf" points="27,-196 27,-215 141,-215 141,-196 27,-196"/>
<text text-anchor="middle" x="84" y="-203" font-family="Fira Code" font-size="10.00" fill="#000000">ros/console.h</text>
</a>
</g>
</g>
<!-- Node0&#45;&gt;Node1 -->
<g id="edge1" class="edge">
<title>Node0&#45;&gt;Node1</title>
<path fill="none" stroke="#191970" d="M153.5776,-257.2967C139.1468,-246.5537 119.8516,-232.1895 105.2412,-221.3129"/>
<polygon fill="#191970" stroke="#191970" points="106.9464,-218.219 96.835,-215.055 102.7664,-223.8339 106.9464,-218.219"/>
</g>
<!-- Node2 -->
<g id="node3" class="node">
<title>Node2</title>
<g id="a_node3"><a xlink:href="../../de/db1/team__receiver_8hpp.html" target="_top" xlink:title="Team control data receiver with UDP and protobuf.">
<polygon fill="none" stroke="#000000" points="159,-190.5 159,-220.5 371,-220.5 371,-190.5 159,-190.5"/>
<text text-anchor="start" x="167" y="-208.5" font-family="Fira Code" font-size="10.00" fill="#000000">travesim_adapters/protobuf</text>
<text text-anchor="middle" x="265" y="-197.5" font-family="Fira Code" font-size="10.00" fill="#000000">/team_receiver.hpp</text>
</a>
</g>
</g>
<!-- Node0&#45;&gt;Node2 -->
<g id="edge2" class="edge">
<title>Node0&#45;&gt;Node2</title>
<path fill="none" stroke="#191970" d="M194.6493,-257.2967C206.9823,-248.2163 222.8292,-236.5488 236.3594,-226.587"/>
<polygon fill="#191970" stroke="#191970" points="238.4548,-229.3907 244.4324,-220.6432 234.3045,-223.7537 238.4548,-229.3907"/>
</g>
<!-- Node3 -->
<g id="node4" class="node">
<title>Node3</title>
<g id="a_node4"><a xlink:title=" ">
<polygon fill="none" stroke="#bfbfbf" points="0,-129 0,-148 62,-148 62,-129 0,-129"/>
<text text-anchor="middle" x="31" y="-136" font-family="Fira Code" font-size="10.00" fill="#000000">memory</text>
</a>
</g>
</g>
<!-- Node2&#45;&gt;Node3 -->
<g id="edge3" class="edge">
<title>Node2&#45;&gt;Node3</title>
<path fill="none" stroke="#191970" d="M201.1394,-190.431C163.0529,-180.978 113.9124,-167.9631 71,-154 68.7293,-153.2611 66.3999,-152.4642 64.0622,-151.6354"/>
<polygon fill="#191970" stroke="#191970" points="65.1274,-148.2977 54.5341,-148.1153 62.7015,-154.864 65.1274,-148.2977"/>
</g>
<!-- Node4 -->
<g id="node5" class="node">
<title>Node4</title>
<g id="a_node5"><a xlink:href="../../de/d4a/unicast__receiver_8hpp.html" target="_top" xlink:title="Receiver data using UDP in unicast mode.">
<polygon fill="none" stroke="#000000" points="80,-123.5 80,-153.5 254,-153.5 254,-123.5 80,-123.5"/>
<text text-anchor="start" x="88" y="-141.5" font-family="Fira Code" font-size="10.00" fill="#000000">travesim_adapters/udp</text>
<text text-anchor="middle" x="167" y="-130.5" font-family="Fira Code" font-size="10.00" fill="#000000">/unicast_receiver.hpp</text>
</a>
</g>
</g>
<!-- Node2&#45;&gt;Node4 -->
<g id="edge4" class="edge">
<title>Node2&#45;&gt;Node4</title>
<path fill="none" stroke="#191970" d="M242.7623,-190.2967C229.3553,-181.1306 212.0924,-169.3285 197.432,-159.3055"/>
<polygon fill="#191970" stroke="#191970" points="199.3802,-156.3977 189.1497,-153.6432 195.4295,-162.1763 199.3802,-156.3977"/>
</g>
<!-- Node8 -->
<g id="node9" class="node">
<title>Node8</title>
<g id="a_node9"><a xlink:href="../../d7/d05/team__command_8hpp.html" target="_top" xlink:title="Team command data structure.">
<polygon fill="none" stroke="#000000" points="272,-123.5 272,-153.5 454,-153.5 454,-123.5 272,-123.5"/>
<text text-anchor="start" x="280" y="-141.5" font-family="Fira Code" font-size="10.00" fill="#000000">travesim_adapters/data</text>
<text text-anchor="middle" x="363" y="-130.5" font-family="Fira Code" font-size="10.00" fill="#000000">/team_command.hpp</text>
</a>
</g>
</g>
<!-- Node2&#45;&gt;Node8 -->
<g id="edge8" class="edge">
<title>Node2&#45;&gt;Node8</title>
<path fill="none" stroke="#191970" d="M287.2377,-190.2967C300.6447,-181.1306 317.9076,-169.3285 332.568,-159.3055"/>
<polygon fill="#191970" stroke="#191970" points="334.5705,-162.1763 340.8503,-153.6432 330.6198,-156.3977 334.5705,-162.1763"/>
</g>
<!-- Node12 -->
<g id="node13" class="node">
<title>Node12</title>
<g id="a_node13"><a xlink:title=" ">
<polygon fill="none" stroke="#bfbfbf" points="472.5,-129 472.5,-148 571.5,-148 571.5,-129 472.5,-129"/>
<text text-anchor="middle" x="522" y="-136" font-family="Fira Code" font-size="10.00" fill="#000000">packet.pb.h</text>
</a>
</g>
</g>
<!-- Node2&#45;&gt;Node12 -->
<g id="edge12" class="edge">
<title>Node2&#45;&gt;Node12</title>
<path fill="none" stroke="#191970" d="M323.0575,-190.439C362.5258,-180.1906 415.9213,-166.3067 463,-154 467.1498,-152.9152 471.4632,-151.7857 475.7846,-150.6528"/>
<polygon fill="#191970" stroke="#191970" points="477.0249,-153.946 485.8093,-148.0227 475.2484,-147.1751 477.0249,-153.946"/>
</g>
<!-- Node5 -->
<g id="node6" class="node">
<title>Node5</title>
<g id="a_node6"><a xlink:href="../../df/d3c/receiver_8hpp.html" target="_top" xlink:title="Receiver data using UDP.">
<polygon fill="none" stroke="#000000" points="66,-56.5 66,-86.5 240,-86.5 240,-56.5 66,-56.5"/>
<text text-anchor="start" x="74" y="-74.5" font-family="Fira Code" font-size="10.00" fill="#000000">travesim_adapters/udp</text>
<text text-anchor="middle" x="153" y="-63.5" font-family="Fira Code" font-size="10.00" fill="#000000">/receiver.hpp</text>
</a>
</g>
</g>
<!-- Node4&#45;&gt;Node5 -->
<g id="edge5" class="edge">
<title>Node4&#45;&gt;Node5</title>
<path fill="none" stroke="#191970" d="M163.8232,-123.2967C162.1764,-115.4156 160.1224,-105.5857 158.2476,-96.6135"/>
<polygon fill="#191970" stroke="#191970" points="161.6357,-95.7159 156.1642,-86.6432 154.7837,-97.1477 161.6357,-95.7159"/>
</g>
<!-- Node6 -->
<g id="node7" class="node">
<title>Node6</title>
<g id="a_node7"><a xlink:title=" ">
<polygon fill="none" stroke="#bfbfbf" points="37,-.5 37,-19.5 159,-19.5 159,-.5 37,-.5"/>
<text text-anchor="middle" x="98" y="-7.5" font-family="Fira Code" font-size="10.00" fill="#000000">boost/asio.hpp</text>
</a>
</g>
</g>
<!-- Node5&#45;&gt;Node6 -->
<g id="edge6" class="edge">
<title>Node5&#45;&gt;Node6</title>
<path fill="none" stroke="#191970" d="M139.4045,-56.2977C131.6109,-47.5831 121.7953,-36.6075 113.6774,-27.5302"/>
<polygon fill="#191970" stroke="#191970" points="116.0813,-24.9678 106.8062,-19.8469 110.8635,-29.6341 116.0813,-24.9678"/>
</g>
<!-- Node7 -->
<g id="node8" class="node">
<title>Node7</title>
<g id="a_node8"><a xlink:title=" ">
<polygon fill="none" stroke="#bfbfbf" points="177,-.5 177,-19.5 239,-19.5 239,-.5 177,-.5"/>
<text text-anchor="middle" x="208" y="-7.5" font-family="Fira Code" font-size="10.00" fill="#000000">string</text>
</a>
</g>
</g>
<!-- Node5&#45;&gt;Node7 -->
<g id="edge7" class="edge">
<title>Node5&#45;&gt;Node7</title>
<path fill="none" stroke="#191970" d="M166.5955,-56.2977C174.3891,-47.5831 184.2047,-36.6075 192.3226,-27.5302"/>
<polygon fill="#191970" stroke="#191970" points="195.1365,-29.6341 199.1938,-19.8469 189.9187,-24.9678 195.1365,-29.6341"/>
</g>
<!-- Node9 -->
<g id="node10" class="node">
<title>Node9</title>
<g id="a_node10"><a xlink:title=" ">
<polygon fill="none" stroke="#bfbfbf" points="258,-62 258,-81 320,-81 320,-62 258,-62"/>
<text text-anchor="middle" x="289" y="-69" font-family="Fira Code" font-size="10.00" fill="#000000">vector</text>
</a>
</g>
</g>
<!-- Node8&#45;&gt;Node9 -->
<g id="edge9" class="edge">
<title>Node8&#45;&gt;Node9</title>
<path fill="none" stroke="#191970" d="M346.2083,-123.2967C334.5668,-112.7564 319.0752,-98.7303 307.1491,-87.9323"/>
<polygon fill="#191970" stroke="#191970" points="309.3154,-85.1722 299.5533,-81.055 304.6171,-90.3613 309.3154,-85.1722"/>
</g>
<!-- Node10 -->
<g id="node11" class="node">
<title>Node10</title>
<g id="a_node11"><a xlink:title=" ">
<polygon fill="none" stroke="#bfbfbf" points="338.5,-62 338.5,-81 415.5,-81 415.5,-62 338.5,-62"/>
<text text-anchor="middle" x="377" y="-69" font-family="Fira Code" font-size="10.00" fill="#000000">iostream</text>
</a>
</g>
</g>
<!-- Node8&#45;&gt;Node10 -->
<g id="edge10" class="edge">
<title>Node8&#45;&gt;Node10</title>
<path fill="none" stroke="#191970" d="M366.1768,-123.2967C368.1675,-113.7699 370.7532,-101.3954 372.8981,-91.1306"/>
<polygon fill="#191970" stroke="#191970" points="376.384,-91.5595 375.0034,-81.055 369.532,-90.1277 376.384,-91.5595"/>
</g>
<!-- Node11 -->
<g id="node12" class="node">
<title>Node11</title>
<g id="a_node12"><a xlink:href="../../d9/d46/data__common_8hpp.html" target="_top" xlink:title="Common constants and types for the data structures.">
<polygon fill="none" stroke="#000000" points="434,-56.5 434,-86.5 616,-86.5 616,-56.5 434,-56.5"/>
<text text-anchor="start" x="442" y="-74.5" font-family="Fira Code" font-size="10.00" fill="#000000">travesim_adapters/data</text>
<text text-anchor="middle" x="525" y="-63.5" font-family="Fira Code" font-size="10.00" fill="#000000">/data_common.hpp</text>
</a>
</g>
</g>
<!-- Node8&#45;&gt;Node11 -->
<g id="edge11" class="edge">
<title>Node8&#45;&gt;Node11</title>
<path fill="none" stroke="#191970" d="M399.356,-123.4639C422.931,-113.7137 453.8435,-100.9289 479.1068,-90.4805"/>
<polygon fill="#191970" stroke="#191970" points="480.5823,-93.6579 488.4855,-86.6017 477.9069,-87.1893 480.5823,-93.6579"/>
</g>
</g>
</svg>
