<?xml version="1.0" encoding="UTF-8" standalone="no"?>
<!DOCTYPE svg PUBLIC "-//W3C//DTD SVG 1.1//EN"
 "http://www.w3.org/Graphics/SVG/1.1/DTD/svg11.dtd">
<!-- Generated by graphviz version 2.40.1 (0)
 -->
<!-- Title: include/travesim_adapters/protobuf/replacer_receiver.hpp Pages: 1 -->
<svg width="688pt" height="106pt"
 viewBox="0.00 0.00 688.00 106.00" xmlns="http://www.w3.org/2000/svg" xmlns:xlink="http://www.w3.org/1999/xlink">
<g id="graph0" class="graph" transform="scale(1 1) rotate(0) translate(4 102)">
<title>include/travesim_adapters/protobuf/replacer_receiver.hpp</title>
<!-- Node11 -->
<g id="node1" class="node">
<title>Node11</title>
<g id="a_node1"><a xlink:title="Replacer receiver with UDP and protobuf.">
<polygon fill="#bfbfbf" stroke="#000000" points="219.5,-67.5 219.5,-97.5 468.5,-97.5 468.5,-67.5 219.5,-67.5"/>
<text text-anchor="start" x="227.5" y="-85.5" font-family="Fira Code" font-size="10.00" fill="#000000">include/travesim_adapters</text>
<text text-anchor="middle" x="344" y="-74.5" font-family="Fira Code" font-size="10.00" fill="#000000">/protobuf/replacer_receiver.hpp</text>
</a>
</g>
</g>
<!-- Node12 -->
<g id="node2" class="node">
<title>Node12</title>
<g id="a_node2"><a xlink:href="../../d8/d50/replacer__receiver__example_8cpp.html" target="_top" xlink:title="Example to read data published from VSSReplacer.">
<polygon fill="none" stroke="#000000" points="0,-.5 0,-30.5 212,-30.5 212,-.5 0,-.5"/>
<text text-anchor="start" x="8" y="-18.5" font-family="Fira Code" font-size="10.00" fill="#000000">examples/protobuf/replacer</text>
<text text-anchor="middle" x="106" y="-7.5" font-family="Fira Code" font-size="10.00" fill="#000000">_receiver_example.cpp</text>
</a>
</g>
</g>
<!-- Node11&#45;&gt;Node12 -->
<g id="edge1" class="edge">
<title>Node11&#45;&gt;Node12</title>
<path fill="none" stroke="#191970" d="M280.7142,-64.6842C242.9629,-54.0568 195.5502,-40.7095 159.6448,-30.6017"/>
<polygon fill="#191970" stroke="#191970" points="280.0138,-68.1231 290.5882,-67.4639 281.9108,-61.385 280.0138,-68.1231"/>
</g>
<!-- Node13 -->
<g id="node3" class="node">
<title>Node13</title>
<g id="a_node3"><a xlink:href="../../da/d85/replacer__adapter_8cpp.html" target="_top" xlink:title="Replacer adapter execution file.">
<polygon fill="none" stroke="#000000" points="230.5,-6 230.5,-25 457.5,-25 457.5,-6 230.5,-6"/>
<text text-anchor="middle" x="344" y="-13" font-family="Fira Code" font-size="10.00" fill="#000000">src/bin/replacer_adapter.cpp</text>
</a>
</g>
</g>
<!-- Node11&#45;&gt;Node13 -->
<g id="edge2" class="edge">
<title>Node11&#45;&gt;Node13</title>
<path fill="none" stroke="#191970" d="M344,-57.1199C344,-45.9072 344,-33.4031 344,-25.055"/>
<polygon fill="#191970" stroke="#191970" points="340.5001,-57.2966 344,-67.2967 347.5001,-57.2967 340.5001,-57.2966"/>
</g>
<!-- Node14 -->
<g id="node4" class="node">
<title>Node14</title>
<g id="a_node4"><a xlink:href="../../d2/d5a/replacer__receiver_8cpp.html" target="_top" xlink:title="Replacer receiver with UDP and protobuf.">
<polygon fill="none" stroke="#000000" points="476,-.5 476,-30.5 680,-30.5 680,-.5 476,-.5"/>
<text text-anchor="start" x="484" y="-18.5" font-family="Fira Code" font-size="10.00" fill="#000000">src/lib/protobuf/replacer</text>
<text text-anchor="middle" x="578" y="-7.5" font-family="Fira Code" font-size="10.00" fill="#000000">_receiver.cpp</text>
</a>
</g>
</g>
<!-- Node11&#45;&gt;Node14 -->
<g id="edge3" class="edge">
<title>Node11&#45;&gt;Node14</title>
<path fill="none" stroke="#191970" d="M406.2222,-64.6842C443.339,-54.0568 489.9548,-40.7095 525.2568,-30.6017"/>
<polygon fill="#191970" stroke="#191970" points="405.1644,-61.3464 396.5142,-67.4639 407.0913,-68.076 405.1644,-61.3464"/>
</g>
</g>
</svg>
