<?xml version="1.0" encoding="UTF-8" standalone="no"?>
<!DOCTYPE svg PUBLIC "-//W3C//DTD SVG 1.1//EN"
 "http://www.w3.org/Graphics/SVG/1.1/DTD/svg11.dtd">
<!-- Generated by graphviz version 2.40.1 (0)
 -->
<!-- Title: main Pages: 1 -->
<svg width="220pt" height="66pt"
 viewBox="0.00 0.00 220.00 66.00" xmlns="http://www.w3.org/2000/svg" xmlns:xlink="http://www.w3.org/1999/xlink">
<g id="graph0" class="graph" transform="scale(1 1) rotate(0) translate(4 62)">
<title>main</title>
<!-- Node4 -->
<g id="node1" class="node">
<title>Node4</title>
<g id="a_node1"><a xlink:title=" ">
<polygon fill="#bfbfbf" stroke="#000000" points="0,-19.5 0,-38.5 47,-38.5 47,-19.5 0,-19.5"/>
<text text-anchor="middle" x="23.5" y="-26.5" font-family="Fira Code" font-size="10.00" fill="#000000">main</text>
</a>
</g>
</g>
<!-- Node5 -->
<g id="node2" class="node">
<title>Node5</title>
<g id="a_node2"><a xlink:href="../../da/db5/gazebo__services_8mock_8cpp.html#a8fd9dcbc82a3926997ba745bdb460ac3" target="_top" xlink:title=" ">
<polygon fill="none" stroke="#000000" points="83,-38.5 83,-57.5 212,-57.5 212,-38.5 83,-38.5"/>
<text text-anchor="middle" x="147.5" y="-45.5" font-family="Fira Code" font-size="10.00" fill="#000000">get_model_state</text>
</a>
</g>
</g>
<!-- Node4&#45;&gt;Node5 -->
<g id="edge1" class="edge">
<title>Node4&#45;&gt;Node5</title>
<path fill="none" stroke="#191970" d="M47.1153,-32.6185C55.3367,-33.8782 65.0427,-35.3654 75.1255,-36.9104"/>
<polygon fill="#191970" stroke="#191970" points="74.878,-40.4132 85.2928,-38.4683 75.9383,-33.494 74.878,-40.4132"/>
</g>
<!-- Node6 -->
<g id="node3" class="node">
<title>Node6</title>
<g id="a_node3"><a xlink:href="../../da/db5/gazebo__services_8mock_8cpp.html#a89923ed6a096d89f610503b12100d890" target="_top" xlink:title=" ">
<polygon fill="none" stroke="#000000" points="83,-.5 83,-19.5 212,-19.5 212,-.5 83,-.5"/>
<text text-anchor="middle" x="147.5" y="-7.5" font-family="Fira Code" font-size="10.00" fill="#000000">set_model_state</text>
</a>
</g>
</g>
<!-- Node4&#45;&gt;Node6 -->
<g id="edge2" class="edge">
<title>Node4&#45;&gt;Node6</title>
<path fill="none" stroke="#191970" d="M47.1153,-25.3815C55.3367,-24.1218 65.0427,-22.6346 75.1255,-21.0896"/>
<polygon fill="#191970" stroke="#191970" points="75.9383,-24.506 85.2928,-19.5317 74.878,-17.5868 75.9383,-24.506"/>
</g>
</g>
</svg>
