<?xml version="1.0" encoding="UTF-8" standalone="no"?>
<!DOCTYPE svg PUBLIC "-//W3C//DTD SVG 1.1//EN"
 "http://www.w3.org/Graphics/SVG/1.1/DTD/svg11.dtd">
<!-- Generated by graphviz version 2.40.1 (0)
 -->
<!-- Title: examples/protobuf/vision_sender_example.cpp Pages: 1 -->
<!--zoomable 296 -->
<svg id="main" version="1.1" xmlns="http://www.w3.org/2000/svg" xmlns:xlink="http://www.w3.org/1999/xlink" xml:space="preserve" onload="init(evt)">
<style type="text/css"><![CDATA[
.edge:hover path { stroke: red; }
.edge:hover polygon { stroke: red; fill: red; }
]]></style>
<script type="text/javascript"><![CDATA[
var edges = document.getElementsByTagName('g');
if (edges && edges.length) {
  for (var i=0;i<edges.length;i++) {
    if (edges[i].id.substr(0,4)=='edge') {
      edges[i].setAttribute('class','edge');
    }
  }
}
]]></script>
        <defs>
                <circle id="rim" cx="0" cy="0" r="7"/>
                <circle id="rim2" cx="0" cy="0" r="3.5"/>
                <g id="zoomPlus">
                        <use xlink:href="#rim" fill="#404040">
                                <set attributeName="fill" to="#808080" begin="zoomplus.mouseover" end="zoomplus.mouseout"/>
                        </use>
                        <path d="M-4,0h8M0,-4v8" fill="none" stroke="white" stroke-width="1.5" pointer-events="none"/>
                </g>
                <g id="zoomMin">
                        <use xlink:href="#rim" fill="#404040">
                                <set attributeName="fill" to="#808080" begin="zoomminus.mouseover" end="zoomminus.mouseout"/>
                        </use>
                        <path d="M-4,0h8" fill="none" stroke="white" stroke-width="1.5" pointer-events="none"/>
                </g>
                <g id="dirArrow">
                        <path fill="none" stroke="white" stroke-width="1.5" d="M0,-3.0v7 M-2.5,-0.5L0,-3.0L2.5,-0.5"/>
                </g>
               <g id="resetDef">
                       <use xlink:href="#rim2" fill="#404040">
                               <set attributeName="fill" to="#808080" begin="reset.mouseover" end="reset.mouseout"/>
                       </use>
               </g>
        </defs>

<script type="text/javascript">
var viewWidth = 1122;
var viewHeight = 296;
var sectionId = 'dynsection-0';
</script>
<script xlink:href="../../svgpan.js"/>
<svg id="graph" class="graph">
<g id="viewport">
<title>examples/protobuf/vision_sender_example.cpp</title>
<!-- Node0 -->
<g id="node1" class="node">
<title>Node0</title>
<g id="a_node1"><a xlink:title="Example on how to use the VisionSender with protobuf.">
<polygon fill="#bfbfbf" stroke="#000000" points="636.4786,-257.5 636.4786,-287.5 833.4786,-287.5 833.4786,-257.5 636.4786,-257.5"/>
<text text-anchor="start" x="644.4786" y="-275.5" font-family="Fira Code" font-size="10.00" fill="#000000">examples/protobuf/vision</text>
<text text-anchor="middle" x="734.9786" y="-264.5" font-family="Fira Code" font-size="10.00" fill="#000000">_sender_example.cpp</text>
</a>
</g>
</g>
<!-- Node1 -->
<g id="node2" class="node">
<title>Node1</title>
<g id="a_node2"><a xlink:title=" ">
<polygon fill="none" stroke="#bfbfbf" points="186.4786,-.5 186.4786,-19.5 263.4786,-19.5 263.4786,-.5 186.4786,-.5"/>
<text text-anchor="middle" x="224.9786" y="-7.5" font-family="Fira Code" font-size="10.00" fill="#000000">iostream</text>
</a>
</g>
</g>
<!-- Node0&#45;&gt;Node1 -->
<g id="edge1" class="edge">
<title>Node0&#45;&gt;Node1</title>
<path fill="none" stroke="#191970" d="M636.2074,-264.1083C452.2179,-245.9918 69.8154,-195.7552 5.9786,-87 -.9959,-75.1179 -2.7049,-66.6969 5.9786,-56 26.9985,-30.1063 118.3292,-18.2541 176.2055,-13.256"/>
<polygon fill="#191970" stroke="#191970" points="176.5675,-16.7381 186.2461,-12.4283 175.9923,-9.7618 176.5675,-16.7381"/>
</g>
<!-- Node2 -->
<g id="node3" class="node">
<title>Node2</title>
<g id="a_node3"><a xlink:title=" ">
<polygon fill="none" stroke="#bfbfbf" points="700.9786,-.5 700.9786,-19.5 762.9786,-19.5 762.9786,-.5 700.9786,-.5"/>
<text text-anchor="middle" x="731.9786" y="-7.5" font-family="Fira Code" font-size="10.00" fill="#000000">string</text>
</a>
</g>
</g>
<!-- Node0&#45;&gt;Node2 -->
<g id="edge2" class="edge">
<title>Node0&#45;&gt;Node2</title>
<path fill="none" stroke="#191970" d="M734.8043,-257.2523C734.2903,-212.2814 732.7808,-80.193 732.2051,-29.8234"/>
<polygon fill="#191970" stroke="#191970" points="735.7027,-29.5795 732.0885,-19.6202 728.7031,-29.6595 735.7027,-29.5795"/>
</g>
<!-- Node3 -->
<g id="node4" class="node">
<title>Node3</title>
<g id="a_node4"><a xlink:title=" ">
<polygon fill="none" stroke="#bfbfbf" points="762.4786,-190.5 762.4786,-220.5 929.4786,-220.5 929.4786,-190.5 762.4786,-190.5"/>
<text text-anchor="start" x="770.4786" y="-208.5" font-family="Fira Code" font-size="10.00" fill="#000000">google/protobuf/util</text>
<text text-anchor="middle" x="845.9786" y="-197.5" font-family="Fira Code" font-size="10.00" fill="#000000">/json_util.h</text>
</a>
</g>
</g>
<!-- Node0&#45;&gt;Node3 -->
<g id="edge3" class="edge">
<title>Node0&#45;&gt;Node3</title>
<path fill="none" stroke="#191970" d="M759.8891,-257.4639C775.2057,-248.2188 795.0425,-236.2452 811.8135,-226.1222"/>
<polygon fill="#191970" stroke="#191970" points="814.0145,-228.8819 820.7671,-220.7177 810.3971,-222.889 814.0145,-228.8819"/>
</g>
<!-- Node4 -->
<g id="node5" class="node">
<title>Node4</title>
<g id="a_node5"><a xlink:title=" ">
<polygon fill="none" stroke="#bfbfbf" points="947.4786,-190.5 947.4786,-220.5 1114.4786,-220.5 1114.4786,-190.5 947.4786,-190.5"/>
<text text-anchor="start" x="955.4786" y="-208.5" font-family="Fira Code" font-size="10.00" fill="#000000">google/protobuf/text</text>
<text text-anchor="middle" x="1030.9786" y="-197.5" font-family="Fira Code" font-size="10.00" fill="#000000">_format.h</text>
</a>
</g>
</g>
<!-- Node0&#45;&gt;Node4 -->
<g id="edge4" class="edge">
<title>Node0&#45;&gt;Node4</title>
<path fill="none" stroke="#191970" d="M801.4067,-257.4639C846.8388,-247.1803 907.1847,-233.5209 954.604,-222.7875"/>
<polygon fill="#191970" stroke="#191970" points="955.536,-226.1652 964.5165,-220.5438 953.9906,-219.3379 955.536,-226.1652"/>
</g>
<!-- Node5 -->
<g id="node6" class="node">
<title>Node5</title>
<g id="a_node6"><a xlink:href="../../db/da8/vision__sender_8hpp.html" target="_top" xlink:title="Vision data sender with UDP and protobuf.">
<polygon fill="none" stroke="#000000" points="470.9786,-190.5 470.9786,-220.5 682.9786,-220.5 682.9786,-190.5 470.9786,-190.5"/>
<text text-anchor="start" x="478.9786" y="-208.5" font-family="Fira Code" font-size="10.00" fill="#000000">travesim_adapters/protobuf</text>
<text text-anchor="middle" x="576.9786" y="-197.5" font-family="Fira Code" font-size="10.00" fill="#000000">/vision_sender.hpp</text>
</a>
</g>
</g>
<!-- Node0&#45;&gt;Node5 -->
<g id="edge5" class="edge">
<title>Node0&#45;&gt;Node5</title>
<path fill="none" stroke="#191970" d="M699.5203,-257.4639C676.6286,-247.7567 646.6436,-235.0415 622.0646,-224.6188"/>
<polygon fill="#191970" stroke="#191970" points="623.1644,-221.2835 612.5915,-220.6017 620.4315,-227.728 623.1644,-221.2835"/>
</g>
<!-- Node6 -->
<g id="node7" class="node">
<title>Node6</title>
<g id="a_node7"><a xlink:title=" ">
<polygon fill="none" stroke="#bfbfbf" points="644.9786,-129 644.9786,-148 706.9786,-148 706.9786,-129 644.9786,-129"/>
<text text-anchor="middle" x="675.9786" y="-136" font-family="Fira Code" font-size="10.00" fill="#000000">memory</text>
</a>
</g>
</g>
<!-- Node5&#45;&gt;Node6 -->
<g id="edge6" class="edge">
<title>Node5&#45;&gt;Node6</title>
<path fill="none" stroke="#191970" d="M599.4432,-190.2967C615.6166,-179.351 637.3447,-164.6462 653.5173,-153.701"/>
<polygon fill="#191970" stroke="#191970" points="655.54,-156.5584 661.86,-148.055 651.6166,-150.7612 655.54,-156.5584"/>
</g>
<!-- Node7 -->
<g id="node8" class="node">
<title>Node7</title>
<g id="a_node8"><a xlink:href="../../df/de3/multicast__sender_8hpp.html" target="_top" xlink:title="Send data using UDP in multicast mode.">
<polygon fill="none" stroke="#000000" points="334.9786,-123.5 334.9786,-153.5 508.9786,-153.5 508.9786,-123.5 334.9786,-123.5"/>
<text text-anchor="start" x="342.9786" y="-141.5" font-family="Fira Code" font-size="10.00" fill="#000000">travesim_adapters/udp</text>
<text text-anchor="middle" x="421.9786" y="-130.5" font-family="Fira Code" font-size="10.00" fill="#000000">/multicast_sender.hpp</text>
</a>
</g>
</g>
<!-- Node5&#45;&gt;Node7 -->
<g id="edge7" class="edge">
<title>Node5&#45;&gt;Node7</title>
<path fill="none" stroke="#191970" d="M542.1935,-190.4639C519.7365,-180.7567 490.3208,-168.0415 466.2085,-157.6188"/>
<polygon fill="#191970" stroke="#191970" points="467.4832,-154.3568 456.9153,-153.6017 464.7057,-160.7822 467.4832,-154.3568"/>
</g>
<!-- Node10 -->
<g id="node11" class="node">
<title>Node10</title>
<g id="a_node11"><a xlink:href="../../de/d1e/field__state_8hpp.html" target="_top" xlink:title=" ">
<polygon fill="none" stroke="#000000" points="134.9786,-123.5 134.9786,-153.5 316.9786,-153.5 316.9786,-123.5 134.9786,-123.5"/>
<text text-anchor="start" x="142.9786" y="-141.5" font-family="Fira Code" font-size="10.00" fill="#000000">travesim_adapters/data</text>
<text text-anchor="middle" x="225.9786" y="-130.5" font-family="Fira Code" font-size="10.00" fill="#000000">/field_state.hpp</text>
</a>
</g>
</g>
<!-- Node5&#45;&gt;Node10 -->
<g id="edge11" class="edge">
<title>Node5&#45;&gt;Node10</title>
<path fill="none" stroke="#191970" d="M498.2073,-190.4639C443.77,-180.0727 371.2756,-166.2348 314.7849,-155.4516"/>
<polygon fill="#191970" stroke="#191970" points="315.2689,-151.9809 304.79,-153.5438 313.9563,-158.8568 315.2689,-151.9809"/>
</g>
<!-- Node14 -->
<g id="node15" class="node">
<title>Node14</title>
<g id="a_node15"><a xlink:title=" ">
<polygon fill="none" stroke="#bfbfbf" points="527.4786,-129 527.4786,-148 626.4786,-148 626.4786,-129 527.4786,-129"/>
<text text-anchor="middle" x="576.9786" y="-136" font-family="Fira Code" font-size="10.00" fill="#000000">packet.pb.h</text>
</a>
</g>
</g>
<!-- Node5&#45;&gt;Node14 -->
<g id="edge17" class="edge">
<title>Node5&#45;&gt;Node14</title>
<path fill="none" stroke="#191970" d="M576.9786,-190.2967C576.9786,-180.7699 576.9786,-168.3954 576.9786,-158.1306"/>
<polygon fill="#191970" stroke="#191970" points="580.4787,-158.0549 576.9786,-148.055 573.4787,-158.055 580.4787,-158.0549"/>
</g>
<!-- Node8 -->
<g id="node9" class="node">
<title>Node8</title>
<g id="a_node9"><a xlink:href="../../db/d61/sender_8hpp.html" target="_top" xlink:title="Send data using UDP.">
<polygon fill="none" stroke="#000000" points="532.9786,-56.5 532.9786,-86.5 706.9786,-86.5 706.9786,-56.5 532.9786,-56.5"/>
<text text-anchor="start" x="540.9786" y="-74.5" font-family="Fira Code" font-size="10.00" fill="#000000">travesim_adapters/udp</text>
<text text-anchor="middle" x="619.9786" y="-63.5" font-family="Fira Code" font-size="10.00" fill="#000000">/sender.hpp</text>
</a>
</g>
</g>
<!-- Node7&#45;&gt;Node8 -->
<g id="edge8" class="edge">
<title>Node7&#45;&gt;Node8</title>
<path fill="none" stroke="#191970" d="M466.4136,-123.4639C495.7353,-113.5419 534.3439,-100.4774 565.5126,-89.9304"/>
<polygon fill="#191970" stroke="#191970" points="566.9992,-93.1224 575.3497,-86.6017 564.7554,-86.4917 566.9992,-93.1224"/>
</g>
<!-- Node8&#45;&gt;Node2 -->
<g id="edge10" class="edge">
<title>Node8&#45;&gt;Node2</title>
<path fill="none" stroke="#191970" d="M647.3768,-56.4554C665.0808,-46.734 687.9981,-34.15 705.5143,-24.5317"/>
<polygon fill="#191970" stroke="#191970" points="707.5417,-27.4115 714.6225,-19.5303 704.1724,-21.2756 707.5417,-27.4115"/>
</g>
<!-- Node9 -->
<g id="node10" class="node">
<title>Node9</title>
<g id="a_node10"><a xlink:title=" ">
<polygon fill="none" stroke="#bfbfbf" points="558.9786,-.5 558.9786,-19.5 680.9786,-19.5 680.9786,-.5 558.9786,-.5"/>
<text text-anchor="middle" x="619.9786" y="-7.5" font-family="Fira Code" font-size="10.00" fill="#000000">boost/asio.hpp</text>
</a>
</g>
</g>
<!-- Node8&#45;&gt;Node9 -->
<g id="edge9" class="edge">
<title>Node8&#45;&gt;Node9</title>
<path fill="none" stroke="#191970" d="M619.9786,-56.2977C619.9786,-48.3834 619.9786,-38.6043 619.9786,-30.0759"/>
<polygon fill="#191970" stroke="#191970" points="623.4787,-29.8469 619.9786,-19.8469 616.4787,-29.847 623.4787,-29.8469"/>
</g>
<!-- Node10&#45;&gt;Node1 -->
<g id="edge13" class="edge">
<title>Node10&#45;&gt;Node1</title>
<path fill="none" stroke="#191970" d="M225.8599,-123.2548C225.6788,-99.9744 225.3331,-55.5607 225.1327,-29.8117"/>
<polygon fill="#191970" stroke="#191970" points="228.6321,-29.7082 225.0543,-19.7358 221.6324,-29.7628 228.6321,-29.7082"/>
</g>
<!-- Node11 -->
<g id="node12" class="node">
<title>Node11</title>
<g id="a_node12"><a xlink:title=" ">
<polygon fill="none" stroke="#bfbfbf" points="452.9786,-62 452.9786,-81 514.9786,-81 514.9786,-62 452.9786,-62"/>
<text text-anchor="middle" x="483.9786" y="-69" font-family="Fira Code" font-size="10.00" fill="#000000">vector</text>
</a>
</g>
</g>
<!-- Node10&#45;&gt;Node11 -->
<g id="edge12" class="edge">
<title>Node10&#45;&gt;Node11</title>
<path fill="none" stroke="#191970" d="M300.8248,-123.488C343.2126,-114.3231 396.9934,-101.5772 443.9786,-87 446.4059,-86.2469 448.8969,-85.4192 451.3914,-84.5501"/>
<polygon fill="#191970" stroke="#191970" points="452.7185,-87.7914 460.9029,-81.0634 450.3092,-81.2191 452.7185,-87.7914"/>
</g>
<!-- Node12 -->
<g id="node13" class="node">
<title>Node12</title>
<g id="a_node13"><a xlink:href="../../d9/d46/data__common_8hpp.html" target="_top" xlink:title="Common constants and types for the data structures.">
<polygon fill="none" stroke="#000000" points="14.9786,-56.5 14.9786,-86.5 196.9786,-86.5 196.9786,-56.5 14.9786,-56.5"/>
<text text-anchor="start" x="22.9786" y="-74.5" font-family="Fira Code" font-size="10.00" fill="#000000">travesim_adapters/data</text>
<text text-anchor="middle" x="105.9786" y="-63.5" font-family="Fira Code" font-size="10.00" fill="#000000">/data_common.hpp</text>
</a>
</g>
</g>
<!-- Node10&#45;&gt;Node12 -->
<g id="edge14" class="edge">
<title>Node10&#45;&gt;Node12</title>
<path fill="none" stroke="#191970" d="M199.0482,-123.4639C182.2598,-114.0903 160.4479,-101.9121 142.1603,-91.7015"/>
<polygon fill="#191970" stroke="#191970" points="143.6717,-88.5368 133.2342,-86.7177 140.2592,-94.6487 143.6717,-88.5368"/>
</g>
<!-- Node13 -->
<g id="node14" class="node">
<title>Node13</title>
<g id="a_node14"><a xlink:href="../../de/d28/entity__state_8hpp.html" target="_top" xlink:title="Entity state data structure.">
<polygon fill="none" stroke="#000000" points="252.9786,-56.5 252.9786,-86.5 434.9786,-86.5 434.9786,-56.5 252.9786,-56.5"/>
<text text-anchor="start" x="260.9786" y="-74.5" font-family="Fira Code" font-size="10.00" fill="#000000">travesim_adapters/data</text>
<text text-anchor="middle" x="343.9786" y="-63.5" font-family="Fira Code" font-size="10.00" fill="#000000">/entity_state.hpp</text>
</a>
</g>
</g>
<!-- Node10&#45;&gt;Node13 -->
<g id="edge15" class="edge">
<title>Node10&#45;&gt;Node13</title>
<path fill="none" stroke="#191970" d="M252.4601,-123.4639C268.8933,-114.1332 290.2212,-102.0232 308.1533,-91.8415"/>
<polygon fill="#191970" stroke="#191970" points="310.2093,-94.699 317.1772,-86.7177 306.753,-88.6117 310.2093,-94.699"/>
</g>
<!-- Node13&#45;&gt;Node1 -->
<g id="edge16" class="edge">
<title>Node13&#45;&gt;Node1</title>
<path fill="none" stroke="#191970" d="M314.8679,-56.4554C295.7962,-46.599 271.0304,-33.7999 252.3247,-24.1327"/>
<polygon fill="#191970" stroke="#191970" points="253.91,-21.0122 243.4193,-19.5303 250.6962,-27.2309 253.91,-21.0122"/>
</g>
</g>
</svg>
        <g id="navigator" transform="translate(0 0)" fill="#404254">
                <rect fill="#f2f5e9" fill-opacity="0.5" stroke="#606060" stroke-width=".5" x="0" y="0" width="60" height="60"/>
                <use id="zoomplus" xlink:href="#zoomPlus" x="17" y="9" onmousedown="handleZoom(evt,'in')"/>
                <use id="zoomminus" xlink:href="#zoomMin" x="42" y="9" onmousedown="handleZoom(evt,'out')"/>
                <use id="reset" xlink:href="#resetDef" x="30" y="36" onmousedown="handleReset()"/>
                <g id="arrowUp" xlink:href="#dirArrow" transform="translate(30 24)" onmousedown="handlePan(0,-1)">
                  <use xlink:href="#rim" fill="#404040">
                        <set attributeName="fill" to="#808080" begin="arrowUp.mouseover" end="arrowUp.mouseout"/>
                  </use>
                  <path fill="none" stroke="white" stroke-width="1.5" d="M0,-3.0v7 M-2.5,-0.5L0,-3.0L2.5,-0.5"/>
                </g>
                <g id="arrowRight" xlink:href="#dirArrow" transform="rotate(90) translate(36 -43)" onmousedown="handlePan(1,0)">
                  <use xlink:href="#rim" fill="#404040">
                        <set attributeName="fill" to="#808080" begin="arrowRight.mouseover" end="arrowRight.mouseout"/>
                  </use>
                  <path fill="none" stroke="white" stroke-width="1.5" d="M0,-3.0v7 M-2.5,-0.5L0,-3.0L2.5,-0.5"/>
                </g>
                <g id="arrowDown" xlink:href="#dirArrow" transform="rotate(180) translate(-30 -48)" onmousedown="handlePan(0,1)">
                  <use xlink:href="#rim" fill="#404040">
                        <set attributeName="fill" to="#808080" begin="arrowDown.mouseover" end="arrowDown.mouseout"/>
                  </use>
                  <path fill="none" stroke="white" stroke-width="1.5" d="M0,-3.0v7 M-2.5,-0.5L0,-3.0L2.5,-0.5"/>
                </g>
                <g id="arrowLeft" xlink:href="#dirArrow" transform="rotate(270) translate(-36 17)" onmousedown="handlePan(-1,0)">
                  <use xlink:href="#rim" fill="#404040">
                        <set attributeName="fill" to="#808080" begin="arrowLeft.mouseover" end="arrowLeft.mouseout"/>
                  </use>
                  <path fill="none" stroke="white" stroke-width="1.5" d="M0,-3.0v7 M-2.5,-0.5L0,-3.0L2.5,-0.5"/>
                </g>
        </g>
        <svg viewBox="0 0 15 15" width="100%" height="30px" preserveAspectRatio="xMaxYMin meet">
         <g id="arrow_out" transform="scale(0.3 0.3)">
          <a xlink:href="vision__sender__example_8cpp__incl_org.svg" target="_base">
           <rect id="button" ry="5" rx="5" y="6" x="6" height="38" width="38"
                fill="#f2f5e9" fill-opacity="0.5" stroke="#606060" stroke-width="1.0"/>
           <path id="arrow"
             d="M 11.500037,31.436501 C 11.940474,20.09759 22.043105,11.32322 32.158766,21.979434 L 37.068811,17.246167 C 37.068811,17.246167 37.088388,32 37.088388,32 L 22.160133,31.978069 C 22.160133,31.978069 26.997745,27.140456 26.997745,27.140456 C 18.528582,18.264221 13.291696,25.230495 11.500037,31.436501 z"
             style="fill:#404040;"/>
          </a>
         </g>
        </svg>
</svg>
