<?xml version="1.0" encoding="UTF-8" standalone="no"?>
<!DOCTYPE svg PUBLIC "-//W3C//DTD SVG 1.1//EN"
 "http://www.w3.org/Graphics/SVG/1.1/DTD/svg11.dtd">
<!-- Generated by graphviz version 2.40.1 (0)
 -->
<!-- Title: include/travesim_adapters/configurers/teams_configurer.hpp Pages: 1 -->
<!--zoomable 173 -->
<svg id="main" version="1.1" xmlns="http://www.w3.org/2000/svg" xmlns:xlink="http://www.w3.org/1999/xlink" xml:space="preserve" onload="init(evt)">
<style type="text/css"><![CDATA[
.edge:hover path { stroke: red; }
.edge:hover polygon { stroke: red; fill: red; }
]]></style>
<script type="text/javascript"><![CDATA[
var edges = document.getElementsByTagName('g');
if (edges && edges.length) {
  for (var i=0;i<edges.length;i++) {
    if (edges[i].id.substr(0,4)=='edge') {
      edges[i].setAttribute('class','edge');
    }
  }
}
]]></script>
        <defs>
                <circle id="rim" cx="0" cy="0" r="7"/>
                <circle id="rim2" cx="0" cy="0" r="3.5"/>
                <g id="zoomPlus">
                        <use xlink:href="#rim" fill="#404040">
                                <set attributeName="fill" to="#808080" begin="zoomplus.mouseover" end="zoomplus.mouseout"/>
                        </use>
                        <path d="M-4,0h8M0,-4v8" fill="none" stroke="white" stroke-width="1.5" pointer-events="none"/>
                </g>
                <g id="zoomMin">
                        <use xlink:href="#rim" fill="#404040">
                                <set attributeName="fill" to="#808080" begin="zoomminus.mouseover" end="zoomminus.mouseout"/>
                        </use>
                        <path d="M-4,0h8" fill="none" stroke="white" stroke-width="1.5" pointer-events="none"/>
                </g>
                <g id="dirArrow">
                        <path fill="none" stroke="white" stroke-width="1.5" d="M0,-3.0v7 M-2.5,-0.5L0,-3.0L2.5,-0.5"/>
                </g>
               <g id="resetDef">
                       <use xlink:href="#rim2" fill="#404040">
                               <set attributeName="fill" to="#808080" begin="reset.mouseover" end="reset.mouseout"/>
                       </use>
               </g>
        </defs>

<script type="text/javascript">
var viewWidth = 837;
var viewHeight = 173;
var sectionId = 'dynsection-0';
</script>
<script xlink:href="../../svgpan.js"/>
<svg id="graph" class="graph">
<g id="viewport">
<title>include/travesim_adapters/configurers/teams_configurer.hpp</title>
<!-- Node0 -->
<g id="node1" class="node">
<title>Node0</title>
<g id="a_node1"><a xlink:title="Configurer for the teams.">
<polygon fill="#bfbfbf" stroke="#000000" points="87.5,-134.5 87.5,-164.5 351.5,-164.5 351.5,-134.5 87.5,-134.5"/>
<text text-anchor="start" x="95.5" y="-152.5" font-family="Fira Code" font-size="10.00" fill="#000000">include/travesim_adapters</text>
<text text-anchor="middle" x="219.5" y="-141.5" font-family="Fira Code" font-size="10.00" fill="#000000">/configurers/teams_configurer.hpp</text>
</a>
</g>
</g>
<!-- Node1 -->
<g id="node2" class="node">
<title>Node1</title>
<g id="a_node2"><a xlink:title=" ">
<polygon fill="none" stroke="#bfbfbf" points="0,-73 0,-92 77,-92 77,-73 0,-73"/>
<text text-anchor="middle" x="38.5" y="-80" font-family="Fira Code" font-size="10.00" fill="#000000">iostream</text>
</a>
</g>
</g>
<!-- Node0&#45;&gt;Node1 -->
<g id="edge1" class="edge">
<title>Node0&#45;&gt;Node1</title>
<path fill="none" stroke="#191970" d="M178.8801,-134.4639C147.3225,-122.7824 103.9975,-106.7449 73.8581,-95.5884"/>
<polygon fill="#191970" stroke="#191970" points="74.7716,-92.1945 64.1785,-92.0053 72.3415,-98.7591 74.7716,-92.1945"/>
</g>
<!-- Node2 -->
<g id="node3" class="node">
<title>Node2</title>
<g id="a_node3"><a xlink:title=" ">
<polygon fill="none" stroke="#bfbfbf" points="95,-73 95,-92 344,-92 344,-73 95,-73"/>
<text text-anchor="middle" x="219.5" y="-80" font-family="Fira Code" font-size="10.00" fill="#000000">travesim_adapters/TeamsConfig.h</text>
</a>
</g>
</g>
<!-- Node0&#45;&gt;Node2 -->
<g id="edge2" class="edge">
<title>Node0&#45;&gt;Node2</title>
<path fill="none" stroke="#191970" d="M219.5,-134.2967C219.5,-124.7699 219.5,-112.3954 219.5,-102.1306"/>
<polygon fill="#191970" stroke="#191970" points="223.0001,-102.0549 219.5,-92.055 216.0001,-102.055 223.0001,-102.0549"/>
</g>
<!-- Node3 -->
<g id="node4" class="node">
<title>Node3</title>
<g id="a_node4"><a xlink:href="../../d1/d79/adapter__configurer_8hpp.html" target="_top" xlink:title="Template configurer for an adapter.">
<polygon fill="none" stroke="#000000" points="362.5,-67.5 362.5,-97.5 596.5,-97.5 596.5,-67.5 362.5,-67.5"/>
<text text-anchor="start" x="370.5" y="-85.5" font-family="Fira Code" font-size="10.00" fill="#000000">travesim_adapters/configurers</text>
<text text-anchor="middle" x="479.5" y="-74.5" font-family="Fira Code" font-size="10.00" fill="#000000">/adapter_configurer.hpp</text>
</a>
</g>
</g>
<!-- Node0&#45;&gt;Node3 -->
<g id="edge3" class="edge">
<title>Node0&#45;&gt;Node3</title>
<path fill="none" stroke="#191970" d="M277.8491,-134.4639C317.3523,-124.2842 369.6923,-110.7966 411.1481,-100.1138"/>
<polygon fill="#191970" stroke="#191970" points="412.0862,-103.4864 420.8964,-97.6017 410.3394,-96.7079 412.0862,-103.4864"/>
</g>
<!-- Node4 -->
<g id="node5" class="node">
<title>Node4</title>
<g id="a_node5"><a xlink:title=" ">
<polygon fill="none" stroke="#bfbfbf" points="287.5,-6 287.5,-25 349.5,-25 349.5,-6 287.5,-6"/>
<text text-anchor="middle" x="318.5" y="-13" font-family="Fira Code" font-size="10.00" fill="#000000">memory</text>
</a>
</g>
</g>
<!-- Node3&#45;&gt;Node4 -->
<g id="edge4" class="edge">
<title>Node3&#45;&gt;Node4</title>
<path fill="none" stroke="#191970" d="M443.3685,-67.4639C415.6246,-55.9183 377.6557,-40.1176 350.8918,-28.9798"/>
<polygon fill="#191970" stroke="#191970" points="352.1553,-25.7147 341.5781,-25.1039 349.4658,-32.1774 352.1553,-25.7147"/>
</g>
<!-- Node5 -->
<g id="node6" class="node">
<title>Node5</title>
<g id="a_node6"><a xlink:title=" ">
<polygon fill="none" stroke="#bfbfbf" points="367.5,-6 367.5,-25 451.5,-25 451.5,-6 367.5,-6"/>
<text text-anchor="middle" x="409.5" y="-13" font-family="Fira Code" font-size="10.00" fill="#000000">ros/ros.h</text>
</a>
</g>
</g>
<!-- Node3&#45;&gt;Node5 -->
<g id="edge5" class="edge">
<title>Node3&#45;&gt;Node5</title>
<path fill="none" stroke="#191970" d="M463.6159,-67.2967C452.7096,-56.8578 438.231,-42.9997 426.9944,-32.2446"/>
<polygon fill="#191970" stroke="#191970" points="429.1271,-29.4411 419.4828,-25.055 424.2869,-34.498 429.1271,-29.4411"/>
</g>
<!-- Node6 -->
<g id="node7" class="node">
<title>Node6</title>
<g id="a_node7"><a xlink:title=" ">
<polygon fill="none" stroke="#bfbfbf" points="469,-.5 469,-30.5 628,-30.5 628,-.5 469,-.5"/>
<text text-anchor="start" x="477" y="-18.5" font-family="Fira Code" font-size="10.00" fill="#000000">dynamic_reconfigure</text>
<text text-anchor="middle" x="548.5" y="-7.5" font-family="Fira Code" font-size="10.00" fill="#000000">/server.h</text>
</a>
</g>
</g>
<!-- Node3&#45;&gt;Node6 -->
<g id="edge6" class="edge">
<title>Node3&#45;&gt;Node6</title>
<path fill="none" stroke="#191970" d="M495.1572,-67.2967C504.1557,-58.559 515.6213,-47.4257 525.6148,-37.7218"/>
<polygon fill="#191970" stroke="#191970" points="528.1687,-40.1205 532.9048,-30.6432 523.2923,-35.0985 528.1687,-40.1205"/>
</g>
<!-- Node7 -->
<g id="node8" class="node">
<title>Node7</title>
<g id="a_node8"><a xlink:title=" ">
<polygon fill="none" stroke="#bfbfbf" points="646.5,-.5 646.5,-30.5 828.5,-30.5 828.5,-.5 646.5,-.5"/>
<text text-anchor="start" x="654.5" y="-18.5" font-family="Fira Code" font-size="10.00" fill="#000000">boost/thread/recursive</text>
<text text-anchor="middle" x="737.5" y="-7.5" font-family="Fira Code" font-size="10.00" fill="#000000">_mutex.hpp</text>
</a>
</g>
</g>
<!-- Node3&#45;&gt;Node7 -->
<g id="edge7" class="edge">
<title>Node3&#45;&gt;Node7</title>
<path fill="none" stroke="#191970" d="M537.4002,-67.4639C576.5169,-57.3057 628.3179,-43.8535 669.4134,-33.1814"/>
<polygon fill="#191970" stroke="#191970" points="670.548,-36.5029 679.3472,-30.6017 668.7885,-29.7277 670.548,-36.5029"/>
</g>
</g>
</svg>
        <g id="navigator" transform="translate(0 0)" fill="#404254">
                <rect fill="#f2f5e9" fill-opacity="0.5" stroke="#606060" stroke-width=".5" x="0" y="0" width="60" height="60"/>
                <use id="zoomplus" xlink:href="#zoomPlus" x="17" y="9" onmousedown="handleZoom(evt,'in')"/>
                <use id="zoomminus" xlink:href="#zoomMin" x="42" y="9" onmousedown="handleZoom(evt,'out')"/>
                <use id="reset" xlink:href="#resetDef" x="30" y="36" onmousedown="handleReset()"/>
                <g id="arrowUp" xlink:href="#dirArrow" transform="translate(30 24)" onmousedown="handlePan(0,-1)">
                  <use xlink:href="#rim" fill="#404040">
                        <set attributeName="fill" to="#808080" begin="arrowUp.mouseover" end="arrowUp.mouseout"/>
                  </use>
                  <path fill="none" stroke="white" stroke-width="1.5" d="M0,-3.0v7 M-2.5,-0.5L0,-3.0L2.5,-0.5"/>
                </g>
                <g id="arrowRight" xlink:href="#dirArrow" transform="rotate(90) translate(36 -43)" onmousedown="handlePan(1,0)">
                  <use xlink:href="#rim" fill="#404040">
                        <set attributeName="fill" to="#808080" begin="arrowRight.mouseover" end="arrowRight.mouseout"/>
                  </use>
                  <path fill="none" stroke="white" stroke-width="1.5" d="M0,-3.0v7 M-2.5,-0.5L0,-3.0L2.5,-0.5"/>
                </g>
                <g id="arrowDown" xlink:href="#dirArrow" transform="rotate(180) translate(-30 -48)" onmousedown="handlePan(0,1)">
                  <use xlink:href="#rim" fill="#404040">
                        <set attributeName="fill" to="#808080" begin="arrowDown.mouseover" end="arrowDown.mouseout"/>
                  </use>
                  <path fill="none" stroke="white" stroke-width="1.5" d="M0,-3.0v7 M-2.5,-0.5L0,-3.0L2.5,-0.5"/>
                </g>
                <g id="arrowLeft" xlink:href="#dirArrow" transform="rotate(270) translate(-36 17)" onmousedown="handlePan(-1,0)">
                  <use xlink:href="#rim" fill="#404040">
                        <set attributeName="fill" to="#808080" begin="arrowLeft.mouseover" end="arrowLeft.mouseout"/>
                  </use>
                  <path fill="none" stroke="white" stroke-width="1.5" d="M0,-3.0v7 M-2.5,-0.5L0,-3.0L2.5,-0.5"/>
                </g>
        </g>
        <svg viewBox="0 0 15 15" width="100%" height="30px" preserveAspectRatio="xMaxYMin meet">
         <g id="arrow_out" transform="scale(0.3 0.3)">
          <a xlink:href="teams__configurer_8hpp__incl_org.svg" target="_base">
           <rect id="button" ry="5" rx="5" y="6" x="6" height="38" width="38"
                fill="#f2f5e9" fill-opacity="0.5" stroke="#606060" stroke-width="1.0"/>
           <path id="arrow"
             d="M 11.500037,31.436501 C 11.940474,20.09759 22.043105,11.32322 32.158766,21.979434 L 37.068811,17.246167 C 37.068811,17.246167 37.088388,32 37.088388,32 L 22.160133,31.978069 C 22.160133,31.978069 26.997745,27.140456 26.997745,27.140456 C 18.528582,18.264221 13.291696,25.230495 11.500037,31.436501 z"
             style="fill:#404040;"/>
          </a>
         </g>
        </svg>
</svg>
