<?xml version="1.0" encoding="UTF-8" standalone="no"?>
<!DOCTYPE svg PUBLIC "-//W3C//DTD SVG 1.1//EN"
 "http://www.w3.org/Graphics/SVG/1.1/DTD/svg11.dtd">
<!-- Generated by graphviz version 2.40.1 (0)
 -->
<!-- Title: include/travesim_adapters/ros/teams_sender.hpp Pages: 1 -->
<svg width="458pt" height="95pt"
 viewBox="0.00 0.00 457.50 95.00" xmlns="http://www.w3.org/2000/svg" xmlns:xlink="http://www.w3.org/1999/xlink">
<g id="graph0" class="graph" transform="scale(1 1) rotate(0) translate(4 91)">
<title>include/travesim_adapters/ros/teams_sender.hpp</title>
<!-- Node7 -->
<g id="node1" class="node">
<title>Node7</title>
<g id="a_node1"><a xlink:title="ROS teams commands sender class definition.">
<polygon fill="#bfbfbf" stroke="#000000" points="117,-56.5 117,-86.5 321,-86.5 321,-56.5 117,-56.5"/>
<text text-anchor="start" x="125" y="-74.5" font-family="Fira Code" font-size="10.00" fill="#000000">include/travesim_adapters</text>
<text text-anchor="middle" x="219" y="-63.5" font-family="Fira Code" font-size="10.00" fill="#000000">/ros/teams_sender.hpp</text>
</a>
</g>
</g>
<!-- Node8 -->
<g id="node2" class="node">
<title>Node8</title>
<g id="a_node2"><a xlink:href="../../dd/dcd/teams__adapter_8cpp.html" target="_top" xlink:title="Teams commands adapter execution file.">
<polygon fill="none" stroke="#000000" points="0,-.5 0,-19.5 204,-19.5 204,-.5 0,-.5"/>
<text text-anchor="middle" x="102" y="-7.5" font-family="Fira Code" font-size="10.00" fill="#000000">src/bin/teams_adapter.cpp</text>
</a>
</g>
</g>
<!-- Node7&#45;&gt;Node8 -->
<g id="edge1" class="edge">
<title>Node7&#45;&gt;Node8</title>
<path fill="none" stroke="#191970" d="M181.2836,-51.6747C160.7958,-40.9055 136.3989,-28.0814 120.1308,-19.5303"/>
<polygon fill="#191970" stroke="#191970" points="179.8984,-54.9006 190.3786,-56.4554 183.1554,-48.7045 179.8984,-54.9006"/>
</g>
<!-- Node9 -->
<g id="node3" class="node">
<title>Node9</title>
<g id="a_node3"><a xlink:href="../../d1/d4e/teams__sender_8cpp.html" target="_top" xlink:title="ROS teams commands sender class definition.">
<polygon fill="none" stroke="#000000" points="222.5,-.5 222.5,-19.5 449.5,-19.5 449.5,-.5 222.5,-.5"/>
<text text-anchor="middle" x="336" y="-7.5" font-family="Fira Code" font-size="10.00" fill="#000000">src/lib/ros/teams_sender.cpp</text>
</a>
</g>
</g>
<!-- Node7&#45;&gt;Node9 -->
<g id="edge2" class="edge">
<title>Node7&#45;&gt;Node9</title>
<path fill="none" stroke="#191970" d="M256.7164,-51.6747C277.2042,-40.9055 301.6011,-28.0814 317.8692,-19.5303"/>
<polygon fill="#191970" stroke="#191970" points="254.8446,-48.7045 247.6214,-56.4554 258.1016,-54.9006 254.8446,-48.7045"/>
</g>
</g>
</svg>
