<?xml version="1.0" encoding="UTF-8" standalone="no"?>
<!DOCTYPE svg PUBLIC "-//W3C//DTD SVG 1.1//EN"
 "http://www.w3.org/Graphics/SVG/1.1/DTD/svg11.dtd">
<!-- Generated by graphviz version 2.40.1 (0)
 -->
<!-- Title: main Pages: 1 -->
<!--zoomable 352 -->
<svg id="main" version="1.1" xmlns="http://www.w3.org/2000/svg" xmlns:xlink="http://www.w3.org/1999/xlink" xml:space="preserve" onload="init(evt)">
<style type="text/css"><![CDATA[
.edge:hover path { stroke: red; }
.edge:hover polygon { stroke: red; fill: red; }
]]></style>
<script type="text/javascript"><![CDATA[
var edges = document.getElementsByTagName('g');
if (edges && edges.length) {
  for (var i=0;i<edges.length;i++) {
    if (edges[i].id.substr(0,4)=='edge') {
      edges[i].setAttribute('class','edge');
    }
  }
}
]]></script>
        <defs>
                <circle id="rim" cx="0" cy="0" r="7"/>
                <circle id="rim2" cx="0" cy="0" r="3.5"/>
                <g id="zoomPlus">
                        <use xlink:href="#rim" fill="#404040">
                                <set attributeName="fill" to="#808080" begin="zoomplus.mouseover" end="zoomplus.mouseout"/>
                        </use>
                        <path d="M-4,0h8M0,-4v8" fill="none" stroke="white" stroke-width="1.5" pointer-events="none"/>
                </g>
                <g id="zoomMin">
                        <use xlink:href="#rim" fill="#404040">
                                <set attributeName="fill" to="#808080" begin="zoomminus.mouseover" end="zoomminus.mouseout"/>
                        </use>
                        <path d="M-4,0h8" fill="none" stroke="white" stroke-width="1.5" pointer-events="none"/>
                </g>
                <g id="dirArrow">
                        <path fill="none" stroke="white" stroke-width="1.5" d="M0,-3.0v7 M-2.5,-0.5L0,-3.0L2.5,-0.5"/>
                </g>
               <g id="resetDef">
                       <use xlink:href="#rim2" fill="#404040">
                               <set attributeName="fill" to="#808080" begin="reset.mouseover" end="reset.mouseout"/>
                       </use>
               </g>
        </defs>

<script type="text/javascript">
var viewWidth = 805;
var viewHeight = 352;
var sectionId = 'dynsection-1';
</script>
<script xlink:href="../../svgpan.js"/>
<svg id="graph" class="graph">
<g id="viewport">
<title>main</title>
<!-- Node0 -->
<g id="node1" class="node">
<title>Node0</title>
<g id="a_node1"><a xlink:title=" ">
<polygon fill="#bfbfbf" stroke="#000000" points="0,-153 0,-172 47,-172 47,-153 0,-153"/>
<text text-anchor="middle" x="23.5" y="-160" font-family="Fira Code" font-size="10.00" fill="#000000">main</text>
</a>
</g>
</g>
<!-- Node1 -->
<g id="node2" class="node">
<title>Node1</title>
<g id="a_node2"><a xlink:href="../../d1/d51/classtravesim_1_1VisionConfigurer.html#a03e304ac5b9b5867eb5c4a03730fef07" target="_top" xlink:title="Get the vision configured address.">
<polygon fill="none" stroke="#000000" points="94,-294.5 94,-324.5 306,-324.5 306,-294.5 94,-294.5"/>
<text text-anchor="start" x="102" y="-312.5" font-family="Fira Code" font-size="10.00" fill="#000000">travesim::VisionConfigurer</text>
<text text-anchor="middle" x="200" y="-301.5" font-family="Fira Code" font-size="10.00" fill="#000000">::get_address</text>
</a>
</g>
</g>
<!-- Node0&#45;&gt;Node1 -->
<g id="edge1" class="edge">
<title>Node0&#45;&gt;Node1</title>
<path fill="none" stroke="#191970" d="M25.2081,-172.3304C29.8505,-195.9126 44.9962,-255.9269 83,-285.5 84.795,-286.8968 86.6509,-288.2179 88.5594,-289.4674"/>
<polygon fill="#191970" stroke="#191970" points="86.8299,-292.5103 97.2366,-294.4983 90.341,-286.4546 86.8299,-292.5103"/>
</g>
<!-- Node5 -->
<g id="node6" class="node">
<title>Node5</title>
<g id="a_node6"><a xlink:href="../../d1/d51/classtravesim_1_1VisionConfigurer.html#a5f6f6a9bc57fca4405385c866a1b0525" target="_top" xlink:title="Get the vision configured port.">
<polygon fill="none" stroke="#000000" points="94,-245.5 94,-275.5 306,-275.5 306,-245.5 94,-245.5"/>
<text text-anchor="start" x="102" y="-263.5" font-family="Fira Code" font-size="10.00" fill="#000000">travesim::VisionConfigurer</text>
<text text-anchor="middle" x="200" y="-252.5" font-family="Fira Code" font-size="10.00" fill="#000000">::get_port</text>
</a>
</g>
</g>
<!-- Node0&#45;&gt;Node5 -->
<g id="edge5" class="edge">
<title>Node0&#45;&gt;Node5</title>
<path fill="none" stroke="#191970" d="M28.4026,-172.2298C37.067,-188.3579 56.6863,-220.4409 83,-236.5 85.8319,-238.2283 88.7669,-239.8343 91.781,-241.3266"/>
<polygon fill="#191970" stroke="#191970" points="90.4793,-244.5786 101.0366,-245.4707 93.3399,-238.1897 90.4793,-244.5786"/>
</g>
<!-- Node6 -->
<g id="node7" class="node">
<title>Node6</title>
<g id="a_node7"><a xlink:href="../../dd/d5b/classtravesim_1_1AdapterConfigurer.html#a036c5ec113755fcbb96bfed6943ab174" target="_top" xlink:title="Get the reset config.">
<polygon fill="none" stroke="#000000" points="90.5,-196.5 90.5,-226.5 309.5,-226.5 309.5,-196.5 90.5,-196.5"/>
<text text-anchor="start" x="98.5" y="-214.5" font-family="Fira Code" font-size="10.00" fill="#000000">travesim::AdapterConfigurer</text>
<text text-anchor="middle" x="200" y="-203.5" font-family="Fira Code" font-size="10.00" fill="#000000">::get_reset</text>
</a>
</g>
</g>
<!-- Node0&#45;&gt;Node6 -->
<g id="edge6" class="edge">
<title>Node0&#45;&gt;Node6</title>
<path fill="none" stroke="#191970" d="M43.5133,-172.0648C54.8884,-177.2059 69.5129,-183.3273 83,-187.5 90.6048,-189.8528 98.56,-192.0397 106.5893,-194.0575"/>
<polygon fill="#191970" stroke="#191970" points="105.8587,-197.4817 116.4017,-196.4347 107.5069,-190.6785 105.8587,-197.4817"/>
</g>
<!-- Node7 -->
<g id="node8" class="node">
<title>Node7</title>
<g id="a_node8"><a xlink:href="../../d6/d3d/namespacetravesim_1_1converter.html#a3fb6e91bc430b97fd2d0333591a997c9" target="_top" xlink:title="Function to convert gazebo_msgs::ModelStates to travesim::FieldState.">
<polygon fill="none" stroke="#000000" points="90.5,-147.5 90.5,-177.5 309.5,-177.5 309.5,-147.5 90.5,-147.5"/>
<text text-anchor="start" x="98.5" y="-165.5" font-family="Fira Code" font-size="10.00" fill="#000000">travesim::converter</text>
<text text-anchor="middle" x="200" y="-154.5" font-family="Fira Code" font-size="10.00" fill="#000000">::ModelStates_to_FieldState</text>
</a>
</g>
</g>
<!-- Node0&#45;&gt;Node7 -->
<g id="edge7" class="edge">
<title>Node0&#45;&gt;Node7</title>
<path fill="none" stroke="#191970" d="M47.3036,-162.5C56.5845,-162.5 67.9563,-162.5 80.2691,-162.5"/>
<polygon fill="#191970" stroke="#191970" points="80.3234,-166.0001 90.3234,-162.5 80.3234,-159.0001 80.3234,-166.0001"/>
</g>
<!-- Node11 -->
<g id="node12" class="node">
<title>Node11</title>
<g id="a_node12"><a xlink:href="../../d0/d64/classtravesim_1_1ros__side_1_1VisionReceiver.html#a44c3fc45dbca506e18e3759a4f60ab44" target="_top" xlink:title="Get last received message.">
<polygon fill="none" stroke="#000000" points="98,-98.5 98,-128.5 302,-128.5 302,-98.5 98,-98.5"/>
<text text-anchor="start" x="106" y="-116.5" font-family="Fira Code" font-size="10.00" fill="#000000">travesim::ros_side</text>
<text text-anchor="middle" x="200" y="-105.5" font-family="Fira Code" font-size="10.00" fill="#000000">::VisionReceiver::receive</text>
</a>
</g>
</g>
<!-- Node0&#45;&gt;Node11 -->
<g id="edge11" class="edge">
<title>Node0&#45;&gt;Node11</title>
<path fill="none" stroke="#191970" d="M44.6595,-152.9252C55.8835,-148.1134 70.0057,-142.4763 83,-138.5 91.9185,-135.7709 101.3079,-133.2301 110.7286,-130.8954"/>
<polygon fill="#191970" stroke="#191970" points="111.6336,-134.2776 120.5389,-128.5378 109.9979,-127.4714 111.6336,-134.2776"/>
</g>
<!-- Node12 -->
<g id="node13" class="node">
<title>Node12</title>
<g id="a_node13"><a xlink:href="../../d2/d61/classtravesim_1_1proto_1_1VisionSender.html#a00c7138b541042be8da8dfff0a8e53b9" target="_top" xlink:title="Send vision data with UDP and protobuf.">
<polygon fill="none" stroke="#000000" points="83,-49.5 83,-79.5 317,-79.5 317,-49.5 83,-49.5"/>
<text text-anchor="start" x="91" y="-67.5" font-family="Fira Code" font-size="10.00" fill="#000000">travesim::proto::VisionSender</text>
<text text-anchor="middle" x="200" y="-56.5" font-family="Fira Code" font-size="10.00" fill="#000000">::send</text>
</a>
</g>
</g>
<!-- Node0&#45;&gt;Node12 -->
<g id="edge12" class="edge">
<title>Node0&#45;&gt;Node12</title>
<path fill="none" stroke="#191970" d="M28.4522,-152.9247C37.1897,-137.0485 56.9139,-105.4477 83,-89.5 86.5886,-87.3061 90.3416,-85.3028 94.2105,-83.4738"/>
<polygon fill="#191970" stroke="#191970" points="95.6192,-86.678 103.4254,-79.5145 92.8558,-80.2465 95.6192,-86.678"/>
</g>
<!-- Node14 -->
<g id="node15" class="node">
<title>Node14</title>
<g id="a_node15"><a xlink:href="../../d2/d61/classtravesim_1_1proto_1_1VisionSender.html#aa2b42cf53f26e5a4c981fc6f2229eeb2" target="_top" xlink:title="Set the multicast endpoint.">
<polygon fill="none" stroke="#000000" points="83,-.5 83,-30.5 317,-30.5 317,-.5 83,-.5"/>
<text text-anchor="start" x="91" y="-18.5" font-family="Fira Code" font-size="10.00" fill="#000000">travesim::proto::VisionSender</text>
<text text-anchor="middle" x="200" y="-7.5" font-family="Fira Code" font-size="10.00" fill="#000000">::set_multicast_endpoint</text>
</a>
</g>
</g>
<!-- Node0&#45;&gt;Node14 -->
<g id="edge14" class="edge">
<title>Node0&#45;&gt;Node14</title>
<path fill="none" stroke="#191970" d="M25.2081,-152.6696C29.8505,-129.0874 44.9962,-69.0731 83,-39.5 84.795,-38.1032 86.6509,-36.7821 88.5594,-35.5326"/>
<polygon fill="#191970" stroke="#191970" points="90.341,-38.5454 97.2366,-30.5017 86.8299,-32.4897 90.341,-38.5454"/>
</g>
<!-- Node2 -->
<g id="node3" class="node">
<title>Node2</title>
<g id="a_node3"><a xlink:href="../../d1/d4b/namespacetravesim.html#a05f869547c07b49b722c2afb6c1967ef" target="_top" xlink:title="Checks if a IP is valid and is in the specified range.">
<polygon fill="none" stroke="#000000" points="371.5,-319 371.5,-338 568.5,-338 568.5,-319 371.5,-319"/>
<text text-anchor="middle" x="470" y="-326" font-family="Fira Code" font-size="10.00" fill="#000000">travesim::check_valid_ip</text>
</a>
</g>
</g>
<!-- Node1&#45;&gt;Node2 -->
<g id="edge2" class="edge">
<title>Node1&#45;&gt;Node2</title>
<path fill="none" stroke="#191970" d="M306.3236,-316.982C324.3779,-318.2525 343.1497,-319.5735 361.2651,-320.8483"/>
<polygon fill="#191970" stroke="#191970" points="361.0319,-324.3404 371.2529,-321.5511 361.5233,-317.3577 361.0319,-324.3404"/>
</g>
<!-- Node4 -->
<g id="node5" class="node">
<title>Node4</title>
<g id="a_node5"><a xlink:href="../../d1/d4b/namespacetravesim.html#a32624f8212a09572f8587ea017f67d30" target="_top" xlink:title="Get the error msg based on the validation type.">
<polygon fill="none" stroke="#000000" points="375.5,-281 375.5,-300 564.5,-300 564.5,-281 375.5,-281"/>
<text text-anchor="middle" x="470" y="-288" font-family="Fira Code" font-size="10.00" fill="#000000">travesim::get_error_msg</text>
</a>
</g>
</g>
<!-- Node1&#45;&gt;Node4 -->
<g id="edge4" class="edge">
<title>Node1&#45;&gt;Node4</title>
<path fill="none" stroke="#191970" d="M306.3236,-302.018C325.6761,-300.6561 345.8529,-299.2363 365.162,-297.8775"/>
<polygon fill="#191970" stroke="#191970" points="365.4418,-301.3665 375.1714,-297.1731 364.9504,-294.3838 365.4418,-301.3665"/>
</g>
<!-- Node3 -->
<g id="node4" class="node">
<title>Node3</title>
<g id="a_node4"><a xlink:href="../../d1/d4b/namespacetravesim.html#ad051590d1f7aa8c749f82ed36c4b2cba" target="_top" xlink:title="Converts a IPv4 in a string to a array of unsigned integers, where the most significant byte of the I...">
<polygon fill="none" stroke="#000000" points="623,-313.5 623,-343.5 797,-343.5 797,-313.5 623,-313.5"/>
<text text-anchor="start" x="631" y="-331.5" font-family="Fira Code" font-size="10.00" fill="#000000">travesim::ipv4_string</text>
<text text-anchor="middle" x="710" y="-320.5" font-family="Fira Code" font-size="10.00" fill="#000000">_to_uint</text>
</a>
</g>
</g>
<!-- Node2&#45;&gt;Node3 -->
<g id="edge3" class="edge">
<title>Node2&#45;&gt;Node3</title>
<path fill="none" stroke="#191970" d="M568.6562,-328.5C583.2576,-328.5 598.2946,-328.5 612.8647,-328.5"/>
<polygon fill="#191970" stroke="#191970" points="612.866,-332.0001 622.866,-328.5 612.8659,-325.0001 612.866,-332.0001"/>
</g>
<!-- Node8 -->
<g id="node9" class="node">
<title>Node8</title>
<g id="a_node9"><a xlink:href="../../d6/d3d/namespacetravesim_1_1converter.html#aedf89b45b5636a0f772c62a984478c57" target="_top" xlink:title="Function to convert gazebo_msgs::ModelState to travesim::EntityState.">
<polygon fill="none" stroke="#000000" points="360.5,-147.5 360.5,-177.5 579.5,-177.5 579.5,-147.5 360.5,-147.5"/>
<text text-anchor="start" x="368.5" y="-165.5" font-family="Fira Code" font-size="10.00" fill="#000000">travesim::converter</text>
<text text-anchor="middle" x="470" y="-154.5" font-family="Fira Code" font-size="10.00" fill="#000000">::ModelState_to_EntityState</text>
</a>
</g>
</g>
<!-- Node7&#45;&gt;Node8 -->
<g id="edge8" class="edge">
<title>Node7&#45;&gt;Node8</title>
<path fill="none" stroke="#191970" d="M309.8193,-162.5C323.0823,-162.5 336.6815,-162.5 350.0801,-162.5"/>
<polygon fill="#191970" stroke="#191970" points="350.278,-166.0001 360.278,-162.5 350.278,-159.0001 350.278,-166.0001"/>
</g>
<!-- Node9 -->
<g id="node10" class="node">
<title>Node9</title>
<g id="a_node10"><a xlink:href="../../d6/d3d/namespacetravesim_1_1converter.html#a8b5c76ee2a1ed97cdf46ec41c5f54b68" target="_top" xlink:title="Function to convert geometry_msgs::Point to travesim::Vector2D.">
<polygon fill="none" stroke="#000000" points="630.5,-171.5 630.5,-201.5 789.5,-201.5 789.5,-171.5 630.5,-171.5"/>
<text text-anchor="start" x="638.5" y="-189.5" font-family="Fira Code" font-size="10.00" fill="#000000">travesim::converter</text>
<text text-anchor="middle" x="710" y="-178.5" font-family="Fira Code" font-size="10.00" fill="#000000">::Point_to_Vector2D</text>
</a>
</g>
</g>
<!-- Node8&#45;&gt;Node9 -->
<g id="edge9" class="edge">
<title>Node8&#45;&gt;Node9</title>
<path fill="none" stroke="#191970" d="M579.8156,-173.4816C593.3888,-174.8389 607.137,-176.2137 620.359,-177.5359"/>
<polygon fill="#191970" stroke="#191970" points="620.057,-181.0231 630.3557,-178.5356 620.7536,-174.0578 620.057,-181.0231"/>
</g>
<!-- Node10 -->
<g id="node11" class="node">
<title>Node10</title>
<g id="a_node11"><a xlink:href="../../d6/d3d/namespacetravesim_1_1converter.html#a6e075638ef35b4c6d5926d65bc5d79e6" target="_top" xlink:title="Function to convert geometry_msgs::Vector3 to travesim::Vector2D.">
<polygon fill="none" stroke="#000000" points="623,-122.5 623,-152.5 797,-152.5 797,-122.5 623,-122.5"/>
<text text-anchor="start" x="631" y="-140.5" font-family="Fira Code" font-size="10.00" fill="#000000">travesim::converter</text>
<text text-anchor="middle" x="710" y="-129.5" font-family="Fira Code" font-size="10.00" fill="#000000">::Vector3_to_Vector2D</text>
</a>
</g>
</g>
<!-- Node8&#45;&gt;Node10 -->
<g id="edge10" class="edge">
<title>Node8&#45;&gt;Node10</title>
<path fill="none" stroke="#191970" d="M579.8156,-151.0609C590.7592,-149.9209 601.8166,-148.7691 612.6202,-147.6437"/>
<polygon fill="#191970" stroke="#191970" points="613.305,-151.0914 622.8885,-146.5741 612.5797,-144.1291 613.305,-151.0914"/>
</g>
<!-- Node13 -->
<g id="node14" class="node">
<title>Node13</title>
<g id="a_node14"><a xlink:href="../../d2/d61/classtravesim_1_1proto_1_1VisionSender.html#a154be6562f93161fbadc55c07c97af87" target="_top" xlink:title="Convert a FieldState object to a Environment protobuf message object.">
<polygon fill="none" stroke="#000000" points="353,-49.5 353,-79.5 587,-79.5 587,-49.5 353,-49.5"/>
<text text-anchor="start" x="361" y="-67.5" font-family="Fira Code" font-size="10.00" fill="#000000">travesim::proto::VisionSender</text>
<text text-anchor="middle" x="470" y="-56.5" font-family="Fira Code" font-size="10.00" fill="#000000">::field_state_to_env_pb_msg</text>
</a>
</g>
</g>
<!-- Node12&#45;&gt;Node13 -->
<g id="edge13" class="edge">
<title>Node12&#45;&gt;Node13</title>
<path fill="none" stroke="#191970" d="M317.248,-64.5C325.738,-64.5 334.3233,-64.5 342.8664,-64.5"/>
<polygon fill="#191970" stroke="#191970" points="342.8678,-68.0001 352.8678,-64.5 342.8677,-61.0001 342.8678,-68.0001"/>
</g>
</g>
</svg>
        <g id="navigator" transform="translate(0 0)" fill="#404254">
                <rect fill="#f2f5e9" fill-opacity="0.5" stroke="#606060" stroke-width=".5" x="0" y="0" width="60" height="60"/>
                <use id="zoomplus" xlink:href="#zoomPlus" x="17" y="9" onmousedown="handleZoom(evt,'in')"/>
                <use id="zoomminus" xlink:href="#zoomMin" x="42" y="9" onmousedown="handleZoom(evt,'out')"/>
                <use id="reset" xlink:href="#resetDef" x="30" y="36" onmousedown="handleReset()"/>
                <g id="arrowUp" xlink:href="#dirArrow" transform="translate(30 24)" onmousedown="handlePan(0,-1)">
                  <use xlink:href="#rim" fill="#404040">
                        <set attributeName="fill" to="#808080" begin="arrowUp.mouseover" end="arrowUp.mouseout"/>
                  </use>
                  <path fill="none" stroke="white" stroke-width="1.5" d="M0,-3.0v7 M-2.5,-0.5L0,-3.0L2.5,-0.5"/>
                </g>
                <g id="arrowRight" xlink:href="#dirArrow" transform="rotate(90) translate(36 -43)" onmousedown="handlePan(1,0)">
                  <use xlink:href="#rim" fill="#404040">
                        <set attributeName="fill" to="#808080" begin="arrowRight.mouseover" end="arrowRight.mouseout"/>
                  </use>
                  <path fill="none" stroke="white" stroke-width="1.5" d="M0,-3.0v7 M-2.5,-0.5L0,-3.0L2.5,-0.5"/>
                </g>
                <g id="arrowDown" xlink:href="#dirArrow" transform="rotate(180) translate(-30 -48)" onmousedown="handlePan(0,1)">
                  <use xlink:href="#rim" fill="#404040">
                        <set attributeName="fill" to="#808080" begin="arrowDown.mouseover" end="arrowDown.mouseout"/>
                  </use>
                  <path fill="none" stroke="white" stroke-width="1.5" d="M0,-3.0v7 M-2.5,-0.5L0,-3.0L2.5,-0.5"/>
                </g>
                <g id="arrowLeft" xlink:href="#dirArrow" transform="rotate(270) translate(-36 17)" onmousedown="handlePan(-1,0)">
                  <use xlink:href="#rim" fill="#404040">
                        <set attributeName="fill" to="#808080" begin="arrowLeft.mouseover" end="arrowLeft.mouseout"/>
                  </use>
                  <path fill="none" stroke="white" stroke-width="1.5" d="M0,-3.0v7 M-2.5,-0.5L0,-3.0L2.5,-0.5"/>
                </g>
        </g>
        <svg viewBox="0 0 15 15" width="100%" height="30px" preserveAspectRatio="xMaxYMin meet">
         <g id="arrow_out" transform="scale(0.3 0.3)">
          <a xlink:href="vision__adapter_8cpp_a3c04138a5bfe5d72780bb7e82a18e627_cgraph_org.svg" target="_base">
           <rect id="button" ry="5" rx="5" y="6" x="6" height="38" width="38"
                fill="#f2f5e9" fill-opacity="0.5" stroke="#606060" stroke-width="1.0"/>
           <path id="arrow"
             d="M 11.500037,31.436501 C 11.940474,20.09759 22.043105,11.32322 32.158766,21.979434 L 37.068811,17.246167 C 37.068811,17.246167 37.088388,32 37.088388,32 L 22.160133,31.978069 C 22.160133,31.978069 26.997745,27.140456 26.997745,27.140456 C 18.528582,18.264221 13.291696,25.230495 11.500037,31.436501 z"
             style="fill:#404040;"/>
          </a>
         </g>
        </svg>
</svg>
