<?xml version="1.0" encoding="UTF-8" standalone="no"?>
<!DOCTYPE svg PUBLIC "-//W3C//DTD SVG 1.1//EN"
 "http://www.w3.org/Graphics/SVG/1.1/DTD/svg11.dtd">
<!-- Generated by graphviz version 2.40.1 (0)
 -->
<!-- Title: travesim::udp::MulticastSender Pages: 1 -->
<svg width="212pt" height="226pt"
 viewBox="0.00 0.00 212.00 226.00" xmlns="http://www.w3.org/2000/svg" xmlns:xlink="http://www.w3.org/1999/xlink">
<g id="graph0" class="graph" transform="scale(1 1) rotate(0) translate(4 222)">
<title>travesim::udp::MulticastSender</title>
<!-- Node2 -->
<g id="node1" class="node">
<title>Node2</title>
<g id="a_node1"><a xlink:title="Sender class using UDP in multicast mode.">
<polygon fill="#bfbfbf" stroke="#000000" points="3.5,-.5 3.5,-68.5 200.5,-68.5 200.5,-.5 3.5,-.5"/>
<text text-anchor="start" x="11.5" y="-56.5" font-family="Fira Code" font-size="10.00" fill="#000000">travesim::udp::Multicast</text>
<text text-anchor="middle" x="102" y="-45.5" font-family="Fira Code" font-size="10.00" fill="#000000">Sender</text>
<polyline fill="none" stroke="#000000" points="3.5,-38.5 200.5,-38.5 "/>
<text text-anchor="middle" x="102" y="-26.5" font-family="Fira Code" font-size="10.00" fill="#000000"> </text>
<polyline fill="none" stroke="#000000" points="3.5,-19.5 200.5,-19.5 "/>
<text text-anchor="start" x="11.5" y="-7.5" font-family="Fira Code" font-size="10.00" fill="#000000">+ MulticastSender()</text>
</a>
</g>
</g>
<!-- Node3 -->
<g id="node2" class="node">
<title>Node3</title>
<g id="a_node2"><a xlink:href="../../d9/ddb/classtravesim_1_1udp_1_1Sender.html" target="_top" xlink:title="Sender class using UDP.">
<polygon fill="none" stroke="#000000" points="0,-105.5 0,-217.5 204,-217.5 204,-105.5 0,-105.5"/>
<text text-anchor="middle" x="102" y="-205.5" font-family="Fira Code" font-size="10.00" fill="#000000">travesim::udp::Sender</text>
<polyline fill="none" stroke="#000000" points="0,-198.5 204,-198.5 "/>
<text text-anchor="start" x="8" y="-186.5" font-family="Fira Code" font-size="10.00" fill="#000000"># socket</text>
<text text-anchor="start" x="8" y="-175.5" font-family="Fira Code" font-size="10.00" fill="#000000"># endpoint</text>
<text text-anchor="start" x="8" y="-164.5" font-family="Fira Code" font-size="10.00" fill="#000000">&#45; io_context</text>
<polyline fill="none" stroke="#000000" points="0,-157.5 204,-157.5 "/>
<text text-anchor="start" x="8" y="-145.5" font-family="Fira Code" font-size="10.00" fill="#000000">+ Sender()</text>
<text text-anchor="start" x="8" y="-134.5" font-family="Fira Code" font-size="10.00" fill="#000000">+ ~Sender()</text>
<text text-anchor="start" x="8" y="-123.5" font-family="Fira Code" font-size="10.00" fill="#000000">+ send()</text>
<text text-anchor="start" x="8" y="-112.5" font-family="Fira Code" font-size="10.00" fill="#000000">+ set_receiver_endpoint()</text>
</a>
</g>
</g>
<!-- Node3&#45;&gt;Node2 -->
<g id="edge1" class="edge">
<title>Node3&#45;&gt;Node2</title>
<path fill="none" stroke="#191970" d="M102,-95.4261C102,-86.2025 102,-77.0514 102,-68.753"/>
<polygon fill="none" stroke="#191970" points="98.5001,-95.4262 102,-105.4263 105.5001,-95.4263 98.5001,-95.4262"/>
</g>
</g>
</svg>
