<?xml version="1.0" encoding="UTF-8" standalone="no"?>
<!DOCTYPE svg PUBLIC "-//W3C//DTD SVG 1.1//EN"
 "http://www.w3.org/Graphics/SVG/1.1/DTD/svg11.dtd">
<!-- Generated by graphviz version 2.40.1 (0)
 -->
<!-- Title: src/lib/configurers/replacer_configurer.cpp Pages: 1 -->
<svg width="800pt" height="240pt"
 viewBox="0.00 0.00 799.50 240.00" xmlns="http://www.w3.org/2000/svg" xmlns:xlink="http://www.w3.org/1999/xlink">
<g id="graph0" class="graph" transform="scale(1 1) rotate(0) translate(4 236)">
<title>src/lib/configurers/replacer_configurer.cpp</title>
<!-- Node0 -->
<g id="node1" class="node">
<title>Node0</title>
<g id="a_node1"><a xlink:title="Configurer for the Replacer.">
<polygon fill="#bfbfbf" stroke="#000000" points="307,-201.5 307,-231.5 504,-231.5 504,-201.5 307,-201.5"/>
<text text-anchor="start" x="315" y="-219.5" font-family="Fira Code" font-size="10.00" fill="#000000">src/lib/configurers</text>
<text text-anchor="middle" x="405.5" y="-208.5" font-family="Fira Code" font-size="10.00" fill="#000000">/replacer_configurer.cpp</text>
</a>
</g>
</g>
<!-- Node1 -->
<g id="node2" class="node">
<title>Node1</title>
<g id="a_node2"><a xlink:href="../../d0/d46/replacer__configurer_8hpp.html" target="_top" xlink:title="Configurer for the Replacer.">
<polygon fill="none" stroke="#000000" points="162.5,-134.5 162.5,-164.5 396.5,-164.5 396.5,-134.5 162.5,-134.5"/>
<text text-anchor="start" x="170.5" y="-152.5" font-family="Fira Code" font-size="10.00" fill="#000000">travesim_adapters/configurers</text>
<text text-anchor="middle" x="279.5" y="-141.5" font-family="Fira Code" font-size="10.00" fill="#000000">/replacer_configurer.hpp</text>
</a>
</g>
</g>
<!-- Node0&#45;&gt;Node1 -->
<g id="edge1" class="edge">
<title>Node0&#45;&gt;Node1</title>
<path fill="none" stroke="#191970" d="M377.2231,-201.4639C359.4343,-192.0047 336.2741,-179.6894 316.9657,-169.4222"/>
<polygon fill="#191970" stroke="#191970" points="318.591,-166.3225 308.1184,-164.7177 315.3045,-172.503 318.591,-166.3225"/>
</g>
<!-- Node9 -->
<g id="node10" class="node">
<title>Node9</title>
<g id="a_node10"><a xlink:href="../../d4/d00/configurers__utils_8hpp.html" target="_top" xlink:title="Configurers utilitary funtions.">
<polygon fill="none" stroke="#000000" points="491.5,-134.5 491.5,-164.5 725.5,-164.5 725.5,-134.5 491.5,-134.5"/>
<text text-anchor="start" x="499.5" y="-152.5" font-family="Fira Code" font-size="10.00" fill="#000000">travesim_adapters/configurers</text>
<text text-anchor="middle" x="608.5" y="-141.5" font-family="Fira Code" font-size="10.00" fill="#000000">/configurers_utils.hpp</text>
</a>
</g>
</g>
<!-- Node0&#45;&gt;Node9 -->
<g id="edge9" class="edge">
<title>Node0&#45;&gt;Node9</title>
<path fill="none" stroke="#191970" d="M451.0572,-201.4639C481.2494,-191.499 521.0457,-178.3642 553.0732,-167.7936"/>
<polygon fill="#191970" stroke="#191970" points="554.345,-171.0596 562.7441,-164.6017 552.151,-164.4123 554.345,-171.0596"/>
</g>
<!-- Node2 -->
<g id="node3" class="node">
<title>Node2</title>
<g id="a_node3"><a xlink:title=" ">
<polygon fill="none" stroke="#bfbfbf" points="0,-73 0,-92 77,-92 77,-73 0,-73"/>
<text text-anchor="middle" x="38.5" y="-80" font-family="Fira Code" font-size="10.00" fill="#000000">iostream</text>
</a>
</g>
</g>
<!-- Node1&#45;&gt;Node2 -->
<g id="edge2" class="edge">
<title>Node1&#45;&gt;Node2</title>
<path fill="none" stroke="#191970" d="M219.7219,-134.3977C181.4864,-124.5287 130.9091,-111.0858 86.5,-98 83.35,-97.0718 80.0929,-96.083 76.8277,-95.0711"/>
<polygon fill="#191970" stroke="#191970" points="77.6962,-91.6751 67.1064,-92.0044 75.5902,-98.3508 77.6962,-91.6751"/>
</g>
<!-- Node3 -->
<g id="node4" class="node">
<title>Node3</title>
<g id="a_node4"><a xlink:title=" ">
<polygon fill="none" stroke="#bfbfbf" points="95.5,-67.5 95.5,-97.5 307.5,-97.5 307.5,-67.5 95.5,-67.5"/>
<text text-anchor="start" x="103.5" y="-85.5" font-family="Fira Code" font-size="10.00" fill="#000000">travesim_adapters/Replacer</text>
<text text-anchor="middle" x="201.5" y="-74.5" font-family="Fira Code" font-size="10.00" fill="#000000">Config.h</text>
</a>
</g>
</g>
<!-- Node1&#45;&gt;Node3 -->
<g id="edge3" class="edge">
<title>Node1&#45;&gt;Node3</title>
<path fill="none" stroke="#191970" d="M261.8006,-134.2967C251.5286,-125.4733 238.4128,-114.2072 227.0384,-104.4368"/>
<polygon fill="#191970" stroke="#191970" points="228.9957,-101.5041 219.1294,-97.6432 224.4345,-106.8141 228.9957,-101.5041"/>
</g>
<!-- Node4 -->
<g id="node5" class="node">
<title>Node4</title>
<g id="a_node5"><a xlink:href="../../d1/d79/adapter__configurer_8hpp.html" target="_top" xlink:title="Template configurer for an adapter.">
<polygon fill="none" stroke="#000000" points="325.5,-67.5 325.5,-97.5 559.5,-97.5 559.5,-67.5 325.5,-67.5"/>
<text text-anchor="start" x="333.5" y="-85.5" font-family="Fira Code" font-size="10.00" fill="#000000">travesim_adapters/configurers</text>
<text text-anchor="middle" x="442.5" y="-74.5" font-family="Fira Code" font-size="10.00" fill="#000000">/adapter_configurer.hpp</text>
</a>
</g>
</g>
<!-- Node1&#45;&gt;Node4 -->
<g id="edge4" class="edge">
<title>Node1&#45;&gt;Node4</title>
<path fill="none" stroke="#191970" d="M316.0804,-134.4639C339.8009,-124.7137 370.9043,-111.9289 396.3235,-101.4805"/>
<polygon fill="#191970" stroke="#191970" points="397.8416,-104.6407 405.7601,-97.6017 395.1803,-98.1663 397.8416,-104.6407"/>
</g>
<!-- Node5 -->
<g id="node6" class="node">
<title>Node5</title>
<g id="a_node6"><a xlink:title=" ">
<polygon fill="none" stroke="#bfbfbf" points="250.5,-6 250.5,-25 312.5,-25 312.5,-6 250.5,-6"/>
<text text-anchor="middle" x="281.5" y="-13" font-family="Fira Code" font-size="10.00" fill="#000000">memory</text>
</a>
</g>
</g>
<!-- Node4&#45;&gt;Node5 -->
<g id="edge5" class="edge">
<title>Node4&#45;&gt;Node5</title>
<path fill="none" stroke="#191970" d="M406.3685,-67.4639C378.6246,-55.9183 340.6557,-40.1176 313.8918,-28.9798"/>
<polygon fill="#191970" stroke="#191970" points="315.1553,-25.7147 304.5781,-25.1039 312.4658,-32.1774 315.1553,-25.7147"/>
</g>
<!-- Node6 -->
<g id="node7" class="node">
<title>Node6</title>
<g id="a_node7"><a xlink:title=" ">
<polygon fill="none" stroke="#bfbfbf" points="330.5,-6 330.5,-25 414.5,-25 414.5,-6 330.5,-6"/>
<text text-anchor="middle" x="372.5" y="-13" font-family="Fira Code" font-size="10.00" fill="#000000">ros/ros.h</text>
</a>
</g>
</g>
<!-- Node4&#45;&gt;Node6 -->
<g id="edge6" class="edge">
<title>Node4&#45;&gt;Node6</title>
<path fill="none" stroke="#191970" d="M426.6159,-67.2967C415.7096,-56.8578 401.231,-42.9997 389.9944,-32.2446"/>
<polygon fill="#191970" stroke="#191970" points="392.1271,-29.4411 382.4828,-25.055 387.2869,-34.498 392.1271,-29.4411"/>
</g>
<!-- Node7 -->
<g id="node8" class="node">
<title>Node7</title>
<g id="a_node8"><a xlink:title=" ">
<polygon fill="none" stroke="#bfbfbf" points="432,-.5 432,-30.5 591,-30.5 591,-.5 432,-.5"/>
<text text-anchor="start" x="440" y="-18.5" font-family="Fira Code" font-size="10.00" fill="#000000">dynamic_reconfigure</text>
<text text-anchor="middle" x="511.5" y="-7.5" font-family="Fira Code" font-size="10.00" fill="#000000">/server.h</text>
</a>
</g>
</g>
<!-- Node4&#45;&gt;Node7 -->
<g id="edge7" class="edge">
<title>Node4&#45;&gt;Node7</title>
<path fill="none" stroke="#191970" d="M458.1572,-67.2967C467.1557,-58.559 478.6213,-47.4257 488.6148,-37.7218"/>
<polygon fill="#191970" stroke="#191970" points="491.1687,-40.1205 495.9048,-30.6432 486.2923,-35.0985 491.1687,-40.1205"/>
</g>
<!-- Node8 -->
<g id="node9" class="node">
<title>Node8</title>
<g id="a_node9"><a xlink:title=" ">
<polygon fill="none" stroke="#bfbfbf" points="609.5,-.5 609.5,-30.5 791.5,-30.5 791.5,-.5 609.5,-.5"/>
<text text-anchor="start" x="617.5" y="-18.5" font-family="Fira Code" font-size="10.00" fill="#000000">boost/thread/recursive</text>
<text text-anchor="middle" x="700.5" y="-7.5" font-family="Fira Code" font-size="10.00" fill="#000000">_mutex.hpp</text>
</a>
</g>
</g>
<!-- Node4&#45;&gt;Node8 -->
<g id="edge8" class="edge">
<title>Node4&#45;&gt;Node8</title>
<path fill="none" stroke="#191970" d="M500.4002,-67.4639C539.5169,-57.3057 591.3179,-43.8535 632.4134,-33.1814"/>
<polygon fill="#191970" stroke="#191970" points="633.548,-36.5029 642.3472,-30.6017 631.7885,-29.7277 633.548,-36.5029"/>
</g>
<!-- Node10 -->
<g id="node11" class="node">
<title>Node10</title>
<g id="a_node11"><a xlink:title=" ">
<polygon fill="none" stroke="#bfbfbf" points="577.5,-73 577.5,-92 639.5,-92 639.5,-73 577.5,-73"/>
<text text-anchor="middle" x="608.5" y="-80" font-family="Fira Code" font-size="10.00" fill="#000000">string</text>
</a>
</g>
</g>
<!-- Node9&#45;&gt;Node10 -->
<g id="edge10" class="edge">
<title>Node9&#45;&gt;Node10</title>
<path fill="none" stroke="#191970" d="M608.5,-134.2967C608.5,-124.7699 608.5,-112.3954 608.5,-102.1306"/>
<polygon fill="#191970" stroke="#191970" points="612.0001,-102.0549 608.5,-92.055 605.0001,-102.055 612.0001,-102.0549"/>
</g>
<!-- Node11 -->
<g id="node12" class="node">
<title>Node11</title>
<g id="a_node12"><a xlink:title=" ">
<polygon fill="none" stroke="#bfbfbf" points="658,-73 658,-92 727,-92 727,-73 658,-73"/>
<text text-anchor="middle" x="692.5" y="-80" font-family="Fira Code" font-size="10.00" fill="#000000">sstream</text>
</a>
</g>
</g>
<!-- Node9&#45;&gt;Node11 -->
<g id="edge11" class="edge">
<title>Node9&#45;&gt;Node11</title>
<path fill="none" stroke="#191970" d="M627.5609,-134.2967C641.0297,-123.5537 659.0385,-109.1895 672.6748,-98.3129"/>
<polygon fill="#191970" stroke="#191970" points="674.8853,-101.0268 680.5206,-92.055 670.5204,-95.5544 674.8853,-101.0268"/>
</g>
</g>
</svg>
