<?xml version="1.0" encoding="UTF-8" standalone="no"?>
<!DOCTYPE svg PUBLIC "-//W3C//DTD SVG 1.1//EN"
 "http://www.w3.org/Graphics/SVG/1.1/DTD/svg11.dtd">
<!-- Generated by graphviz version 2.40.1 (0)
 -->
<!-- Title: main Pages: 1 -->
<svg width="535pt" height="110pt"
 viewBox="0.00 0.00 535.00 110.00" xmlns="http://www.w3.org/2000/svg" xmlns:xlink="http://www.w3.org/1999/xlink">
<g id="graph0" class="graph" transform="scale(1 1) rotate(0) translate(4 106)">
<title>main</title>
<!-- Node0 -->
<g id="node1" class="node">
<title>Node0</title>
<g id="a_node1"><a xlink:title=" ">
<polygon fill="#bfbfbf" stroke="#000000" points="0,-41.5 0,-60.5 47,-60.5 47,-41.5 0,-41.5"/>
<text text-anchor="middle" x="23.5" y="-48.5" font-family="Fira Code" font-size="10.00" fill="#000000">main</text>
</a>
</g>
</g>
<!-- Node1 -->
<g id="node2" class="node">
<title>Node1</title>
<g id="a_node2"><a xlink:href="../../d5/d4a/classtravesim_1_1proto_1_1ReplacerReceiver.html#abacb36956126510b9bae3d305e1ed1ad" target="_top" xlink:title="Receive the replacement commands.">
<polygon fill="none" stroke="#000000" points="83,-36 83,-66 287,-66 287,-36 83,-36"/>
<text text-anchor="start" x="91" y="-54" font-family="Fira Code" font-size="10.00" fill="#000000">travesim::proto::Replacer</text>
<text text-anchor="middle" x="185" y="-43" font-family="Fira Code" font-size="10.00" fill="#000000">Receiver::receive</text>
</a>
</g>
</g>
<!-- Node0&#45;&gt;Node1 -->
<g id="edge1" class="edge">
<title>Node0&#45;&gt;Node1</title>
<path fill="none" stroke="#191970" d="M47.3299,-51C54.7537,-51 63.4834,-51 72.8848,-51"/>
<polygon fill="#191970" stroke="#191970" points="72.8985,-54.5001 82.8985,-51 72.8985,-47.5001 72.8985,-54.5001"/>
</g>
<!-- Node2 -->
<g id="node3" class="node">
<title>Node2</title>
<g id="a_node3"><a xlink:href="../../d5/d4a/classtravesim_1_1proto_1_1ReplacerReceiver.html#a95c3ca946b4aedf5c98803e7c832cf1c" target="_top" xlink:title="Convert a RobotReplacement protobuf message to a RobotState.">
<polygon fill="none" stroke="#000000" points="323,-60.5 323,-101.5 527,-101.5 527,-60.5 323,-60.5"/>
<text text-anchor="start" x="331" y="-89.5" font-family="Fira Code" font-size="10.00" fill="#000000">travesim::proto::Replacer</text>
<text text-anchor="start" x="331" y="-78.5" font-family="Fira Code" font-size="10.00" fill="#000000">Receiver::robot_rplcmt</text>
<text text-anchor="middle" x="425" y="-67.5" font-family="Fira Code" font-size="10.00" fill="#000000">_pb_to_robot_state</text>
</a>
</g>
</g>
<!-- Node1&#45;&gt;Node2 -->
<g id="edge2" class="edge">
<title>Node1&#45;&gt;Node2</title>
<path fill="none" stroke="#191970" d="M287.1296,-63.7662C295.6577,-64.8322 304.3089,-65.9136 312.9058,-66.9882"/>
<polygon fill="#191970" stroke="#191970" points="312.6052,-70.4778 322.9622,-68.2453 313.4735,-63.5319 312.6052,-70.4778"/>
</g>
<!-- Node3 -->
<g id="node4" class="node">
<title>Node3</title>
<g id="a_node4"><a xlink:href="../../d5/d4a/classtravesim_1_1proto_1_1ReplacerReceiver.html#a92a11afe21eaf8c2d3ed511007b82953" target="_top" xlink:title="Convert a BallReplacement protobuf message to a EntityState.">
<polygon fill="none" stroke="#000000" points="323,-.5 323,-41.5 527,-41.5 527,-.5 323,-.5"/>
<text text-anchor="start" x="331" y="-29.5" font-family="Fira Code" font-size="10.00" fill="#000000">travesim::proto::Replacer</text>
<text text-anchor="start" x="331" y="-18.5" font-family="Fira Code" font-size="10.00" fill="#000000">Receiver::ball_rplcmt_pb</text>
<text text-anchor="middle" x="425" y="-7.5" font-family="Fira Code" font-size="10.00" fill="#000000">_to_entity_state</text>
</a>
</g>
</g>
<!-- Node1&#45;&gt;Node3 -->
<g id="edge3" class="edge">
<title>Node1&#45;&gt;Node3</title>
<path fill="none" stroke="#191970" d="M287.1296,-38.2338C295.6577,-37.1678 304.3089,-36.0864 312.9058,-35.0118"/>
<polygon fill="#191970" stroke="#191970" points="313.4735,-38.4681 322.9622,-33.7547 312.6052,-31.5222 313.4735,-38.4681"/>
</g>
</g>
</svg>
