<?xml version="1.0" encoding="UTF-8" standalone="no"?>
<!DOCTYPE svg PUBLIC "-//W3C//DTD SVG 1.1//EN"
 "http://www.w3.org/Graphics/SVG/1.1/DTD/svg11.dtd">
<!-- Generated by graphviz version 2.40.1 (0)
 -->
<!-- Title: src/bin/teams_adapter.cpp Pages: 1 -->
<!--zoomable 285 -->
<svg id="main" version="1.1" xmlns="http://www.w3.org/2000/svg" xmlns:xlink="http://www.w3.org/1999/xlink" xml:space="preserve" onload="init(evt)">
<style type="text/css"><![CDATA[
.edge:hover path { stroke: red; }
.edge:hover polygon { stroke: red; fill: red; }
]]></style>
<script type="text/javascript"><![CDATA[
var edges = document.getElementsByTagName('g');
if (edges && edges.length) {
  for (var i=0;i<edges.length;i++) {
    if (edges[i].id.substr(0,4)=='edge') {
      edges[i].setAttribute('class','edge');
    }
  }
}
]]></script>
        <defs>
                <circle id="rim" cx="0" cy="0" r="7"/>
                <circle id="rim2" cx="0" cy="0" r="3.5"/>
                <g id="zoomPlus">
                        <use xlink:href="#rim" fill="#404040">
                                <set attributeName="fill" to="#808080" begin="zoomplus.mouseover" end="zoomplus.mouseout"/>
                        </use>
                        <path d="M-4,0h8M0,-4v8" fill="none" stroke="white" stroke-width="1.5" pointer-events="none"/>
                </g>
                <g id="zoomMin">
                        <use xlink:href="#rim" fill="#404040">
                                <set attributeName="fill" to="#808080" begin="zoomminus.mouseover" end="zoomminus.mouseout"/>
                        </use>
                        <path d="M-4,0h8" fill="none" stroke="white" stroke-width="1.5" pointer-events="none"/>
                </g>
                <g id="dirArrow">
                        <path fill="none" stroke="white" stroke-width="1.5" d="M0,-3.0v7 M-2.5,-0.5L0,-3.0L2.5,-0.5"/>
                </g>
               <g id="resetDef">
                       <use xlink:href="#rim2" fill="#404040">
                               <set attributeName="fill" to="#808080" begin="reset.mouseover" end="reset.mouseout"/>
                       </use>
               </g>
        </defs>

<script type="text/javascript">
var viewWidth = 1418;
var viewHeight = 285;
var sectionId = 'dynsection-0';
</script>
<script xlink:href="../../svgpan.js"/>
<svg id="graph" class="graph">
<g id="viewport">
<title>src/bin/teams_adapter.cpp</title>
<!-- Node0 -->
<g id="node1" class="node">
<title>Node0</title>
<g id="a_node1"><a xlink:title="Teams commands adapter execution file.">
<polygon fill="#bfbfbf" stroke="#000000" points="400,-257.5 400,-276.5 604,-276.5 604,-257.5 400,-257.5"/>
<text text-anchor="middle" x="502" y="-264.5" font-family="Fira Code" font-size="10.00" fill="#000000">src/bin/teams_adapter.cpp</text>
</a>
</g>
</g>
<!-- Node1 -->
<g id="node2" class="node">
<title>Node1</title>
<g id="a_node2"><a xlink:title=" ">
<polygon fill="none" stroke="#bfbfbf" points="490,-62 490,-81 574,-81 574,-62 490,-62"/>
<text text-anchor="middle" x="532" y="-69" font-family="Fira Code" font-size="10.00" fill="#000000">ros/ros.h</text>
</a>
</g>
</g>
<!-- Node0&#45;&gt;Node1 -->
<g id="edge1" class="edge">
<title>Node0&#45;&gt;Node1</title>
<path fill="none" stroke="#191970" d="M503.4877,-257.3051C508.1663,-226.8163 522.6448,-132.4646 528.98,-91.1804"/>
<polygon fill="#191970" stroke="#191970" points="532.446,-91.6686 530.5033,-81.2534 525.527,-90.6068 532.446,-91.6686"/>
</g>
<!-- Node2 -->
<g id="node3" class="node">
<title>Node2</title>
<g id="a_node3"><a xlink:title=" ">
<polygon fill="none" stroke="#bfbfbf" points="0,-129 0,-148 114,-148 114,-129 0,-129"/>
<text text-anchor="middle" x="57" y="-136" font-family="Fira Code" font-size="10.00" fill="#000000">ros/console.h</text>
</a>
</g>
</g>
<!-- Node0&#45;&gt;Node2 -->
<g id="edge2" class="edge">
<title>Node0&#45;&gt;Node2</title>
<path fill="none" stroke="#191970" d="M399.7966,-260.4695C340.9804,-254.4613 266.3982,-242.9633 203,-221 155.7924,-204.6457 106.2713,-173.1471 78.75,-154.1557"/>
<polygon fill="#191970" stroke="#191970" points="80.494,-151.1041 70.2951,-148.2345 76.4784,-156.8378 80.494,-151.1041"/>
</g>
<!-- Node3 -->
<g id="node4" class="node">
<title>Node3</title>
<g id="a_node4"><a xlink:href="../../d3/d35/teams__sender_8hpp.html" target="_top" xlink:title="ROS teams commands sender class definition.">
<polygon fill="none" stroke="#000000" points="212,-190.5 212,-220.5 386,-220.5 386,-190.5 212,-190.5"/>
<text text-anchor="start" x="220" y="-208.5" font-family="Fira Code" font-size="10.00" fill="#000000">travesim_adapters/ros</text>
<text text-anchor="middle" x="299" y="-197.5" font-family="Fira Code" font-size="10.00" fill="#000000">/teams_sender.hpp</text>
</a>
</g>
</g>
<!-- Node0&#45;&gt;Node3 -->
<g id="edge3" class="edge">
<title>Node0&#45;&gt;Node3</title>
<path fill="none" stroke="#191970" d="M470.2813,-257.3906C440.391,-248.3352 394.8524,-234.539 358.2425,-223.4479"/>
<polygon fill="#191970" stroke="#191970" points="359.2447,-220.0944 348.6594,-220.5446 357.215,-226.7937 359.2447,-220.0944"/>
</g>
<!-- Node4 -->
<g id="node5" class="node">
<title>Node4</title>
<g id="a_node5"><a xlink:href="../../d7/d05/team__command_8hpp.html" target="_top" xlink:title="Team command data structure.">
<polygon fill="none" stroke="#000000" points="208,-123.5 208,-153.5 390,-153.5 390,-123.5 208,-123.5"/>
<text text-anchor="start" x="216" y="-141.5" font-family="Fira Code" font-size="10.00" fill="#000000">travesim_adapters/data</text>
<text text-anchor="middle" x="299" y="-130.5" font-family="Fira Code" font-size="10.00" fill="#000000">/team_command.hpp</text>
</a>
</g>
</g>
<!-- Node0&#45;&gt;Node4 -->
<g id="edge13" class="edge">
<title>Node0&#45;&gt;Node4</title>
<path fill="none" stroke="#191970" d="M489.8462,-257.4456C470.3698,-242.3222 430.7216,-212.3003 395,-190 376.8292,-178.6563 355.9464,-167.2697 338.3077,-158.0985"/>
<polygon fill="#191970" stroke="#191970" points="339.9039,-154.9837 329.4111,-153.5165 336.6987,-161.2069 339.9039,-154.9837"/>
</g>
<!-- Node8 -->
<g id="node9" class="node">
<title>Node8</title>
<g id="a_node9"><a xlink:href="../../de/db1/team__receiver_8hpp.html" target="_top" xlink:title="Team control data receiver with UDP and protobuf.">
<polygon fill="none" stroke="#000000" points="984,-190.5 984,-220.5 1196,-220.5 1196,-190.5 984,-190.5"/>
<text text-anchor="start" x="992" y="-208.5" font-family="Fira Code" font-size="10.00" fill="#000000">travesim_adapters/protobuf</text>
<text text-anchor="middle" x="1090" y="-197.5" font-family="Fira Code" font-size="10.00" fill="#000000">/team_receiver.hpp</text>
</a>
</g>
</g>
<!-- Node0&#45;&gt;Node8 -->
<g id="edge14" class="edge">
<title>Node0&#45;&gt;Node8</title>
<path fill="none" stroke="#191970" d="M592.9079,-257.4918C695.3099,-246.7814 861.9947,-229.3475 973.7771,-217.656"/>
<polygon fill="#191970" stroke="#191970" points="974.1633,-221.1348 983.745,-216.6134 973.4351,-214.1727 974.1633,-221.1348"/>
</g>
<!-- Node15 -->
<g id="node16" class="node">
<title>Node15</title>
<g id="a_node16"><a xlink:href="../../d0/d61/teams__configurer_8hpp.html" target="_top" xlink:title="Configurer for the teams.">
<polygon fill="none" stroke="#000000" points="564,-190.5 564,-220.5 798,-220.5 798,-190.5 564,-190.5"/>
<text text-anchor="start" x="572" y="-208.5" font-family="Fira Code" font-size="10.00" fill="#000000">travesim_adapters/configurers</text>
<text text-anchor="middle" x="681" y="-197.5" font-family="Fira Code" font-size="10.00" fill="#000000">/teams_configurer.hpp</text>
</a>
</g>
</g>
<!-- Node0&#45;&gt;Node15 -->
<g id="edge22" class="edge">
<title>Node0&#45;&gt;Node15</title>
<path fill="none" stroke="#191970" d="M529.9688,-257.3906C555.9887,-248.4508 595.457,-234.8905 627.5214,-223.8739"/>
<polygon fill="#191970" stroke="#191970" points="628.8916,-227.1041 637.2117,-220.5446 626.617,-220.4839 628.8916,-227.1041"/>
</g>
<!-- Node3&#45;&gt;Node1 -->
<g id="edge4" class="edge">
<title>Node3&#45;&gt;Node1</title>
<path fill="none" stroke="#191970" d="M341.4052,-190.4863C365.4281,-181.2779 395.6515,-168.4901 421,-154 455.5966,-134.2234 491.9889,-105.414 513.3072,-87.5963"/>
<polygon fill="#191970" stroke="#191970" points="515.5816,-90.2566 520.9604,-81.1286 511.0634,-84.91 515.5816,-90.2566"/>
</g>
<!-- Node3&#45;&gt;Node2 -->
<g id="edge5" class="edge">
<title>Node3&#45;&gt;Node2</title>
<path fill="none" stroke="#191970" d="M244.6905,-190.4639C201.3969,-178.4776 141.5383,-161.9052 101.1573,-150.7254"/>
<polygon fill="#191970" stroke="#191970" points="101.9039,-147.3005 91.3325,-148.0053 100.0361,-154.0467 101.9039,-147.3005"/>
</g>
<!-- Node3&#45;&gt;Node4 -->
<g id="edge6" class="edge">
<title>Node3&#45;&gt;Node4</title>
<path fill="none" stroke="#191970" d="M299,-190.2967C299,-182.5013 299,-172.7991 299,-163.9064"/>
<polygon fill="#191970" stroke="#191970" points="302.5001,-163.6431 299,-153.6432 295.5001,-163.6432 302.5001,-163.6431"/>
</g>
<!-- Node5 -->
<g id="node6" class="node">
<title>Node5</title>
<g id="a_node6"><a xlink:title=" ">
<polygon fill="none" stroke="#bfbfbf" points="264,-62 264,-81 326,-81 326,-62 264,-62"/>
<text text-anchor="middle" x="295" y="-69" font-family="Fira Code" font-size="10.00" fill="#000000">vector</text>
</a>
</g>
</g>
<!-- Node3&#45;&gt;Node5 -->
<g id="edge11" class="edge">
<title>Node3&#45;&gt;Node5</title>
<path fill="none" stroke="#191970" d="M245.2339,-190.4745C227.3524,-182.6361 209.3707,-171.006 199,-154 191.8266,-142.2369 191.9258,-134.823 199,-123 206.1157,-111.1077 236.5436,-95.9545 261.2619,-85.1708"/>
<polygon fill="#191970" stroke="#191970" points="262.9136,-88.2713 270.7357,-81.1252 260.1646,-81.8336 262.9136,-88.2713"/>
</g>
<!-- Node6 -->
<g id="node7" class="node">
<title>Node6</title>
<g id="a_node7"><a xlink:title=" ">
<polygon fill="none" stroke="#bfbfbf" points="379.5,-62 379.5,-81 456.5,-81 456.5,-62 379.5,-62"/>
<text text-anchor="middle" x="418" y="-69" font-family="Fira Code" font-size="10.00" fill="#000000">iostream</text>
</a>
</g>
</g>
<!-- Node3&#45;&gt;Node6 -->
<g id="edge12" class="edge">
<title>Node3&#45;&gt;Node6</title>
<path fill="none" stroke="#191970" d="M347.6446,-190.4597C366.2356,-182.4187 386.056,-170.6511 399,-154 413.044,-135.9339 417.0334,-109.329 418.0034,-91.2529"/>
<polygon fill="#191970" stroke="#191970" points="421.5021,-91.3457 418.2801,-81.2527 414.5048,-91.152 421.5021,-91.3457"/>
</g>
<!-- Node7 -->
<g id="node8" class="node">
<title>Node7</title>
<g id="a_node8"><a xlink:href="../../d9/d46/data__common_8hpp.html" target="_top" xlink:title="Common constants and types for the data structures.">
<polygon fill="none" stroke="#000000" points="56,-56.5 56,-86.5 238,-86.5 238,-56.5 56,-56.5"/>
<text text-anchor="start" x="64" y="-74.5" font-family="Fira Code" font-size="10.00" fill="#000000">travesim_adapters/data</text>
<text text-anchor="middle" x="147" y="-63.5" font-family="Fira Code" font-size="10.00" fill="#000000">/data_common.hpp</text>
</a>
</g>
</g>
<!-- Node3&#45;&gt;Node7 -->
<g id="edge10" class="edge">
<title>Node3&#45;&gt;Node7</title>
<path fill="none" stroke="#191970" d="M250.6469,-190.4802C230.0766,-182.2428 206.9715,-170.3208 190,-154 173.3784,-138.0157 161.9221,-114.1998 155.0397,-96.2596"/>
<polygon fill="#191970" stroke="#191970" points="158.2872,-94.9477 151.5972,-86.7322 151.7038,-97.3265 158.2872,-94.9477"/>
</g>
<!-- Node4&#45;&gt;Node5 -->
<g id="edge7" class="edge">
<title>Node4&#45;&gt;Node5</title>
<path fill="none" stroke="#191970" d="M298.0923,-123.2967C297.5236,-113.7699 296.7848,-101.3954 296.172,-91.1306"/>
<polygon fill="#191970" stroke="#191970" points="299.6603,-90.8286 295.5704,-81.055 292.6727,-91.2458 299.6603,-90.8286"/>
</g>
<!-- Node4&#45;&gt;Node6 -->
<g id="edge8" class="edge">
<title>Node4&#45;&gt;Node6</title>
<path fill="none" stroke="#191970" d="M325.7059,-123.4639C345.5827,-112.2728 372.5601,-97.0838 392.2132,-86.0186"/>
<polygon fill="#191970" stroke="#191970" points="393.9456,-89.0599 400.9423,-81.1039 390.5113,-82.9602 393.9456,-89.0599"/>
</g>
<!-- Node4&#45;&gt;Node7 -->
<g id="edge9" class="edge">
<title>Node4&#45;&gt;Node7</title>
<path fill="none" stroke="#191970" d="M264.8882,-123.4639C242.9633,-113.7996 214.2746,-101.154 190.6881,-90.7572"/>
<polygon fill="#191970" stroke="#191970" points="191.8228,-87.4325 181.2605,-86.6017 188.9993,-93.8379 191.8228,-87.4325"/>
</g>
<!-- Node8&#45;&gt;Node4 -->
<g id="edge20" class="edge">
<title>Node8&#45;&gt;Node4</title>
<path fill="none" stroke="#191970" d="M983.7329,-196.4989C830.7215,-183.5384 550.2861,-159.7847 400.166,-147.0691"/>
<polygon fill="#191970" stroke="#191970" points="400.2874,-143.5669 390.0276,-146.2103 399.6965,-150.5419 400.2874,-143.5669"/>
</g>
<!-- Node9 -->
<g id="node10" class="node">
<title>Node9</title>
<g id="a_node10"><a xlink:title=" ">
<polygon fill="none" stroke="#bfbfbf" points="1057,-62 1057,-81 1119,-81 1119,-62 1057,-62"/>
<text text-anchor="middle" x="1088" y="-69" font-family="Fira Code" font-size="10.00" fill="#000000">memory</text>
</a>
</g>
</g>
<!-- Node8&#45;&gt;Node9 -->
<g id="edge15" class="edge">
<title>Node8&#45;&gt;Node9</title>
<path fill="none" stroke="#191970" d="M1089.7745,-190.389C1089.4115,-166.0735 1088.698,-118.2644 1088.2951,-91.2698"/>
<polygon fill="#191970" stroke="#191970" points="1091.7923,-91.0508 1088.1433,-81.1042 1084.7931,-91.1553 1091.7923,-91.0508"/>
</g>
<!-- Node10 -->
<g id="node11" class="node">
<title>Node10</title>
<g id="a_node11"><a xlink:href="../../de/d4a/unicast__receiver_8hpp.html" target="_top" xlink:title="Receiver data using UDP in unicast mode.">
<polygon fill="none" stroke="#000000" points="1236,-123.5 1236,-153.5 1410,-153.5 1410,-123.5 1236,-123.5"/>
<text text-anchor="start" x="1244" y="-141.5" font-family="Fira Code" font-size="10.00" fill="#000000">travesim_adapters/udp</text>
<text text-anchor="middle" x="1323" y="-130.5" font-family="Fira Code" font-size="10.00" fill="#000000">/unicast_receiver.hpp</text>
</a>
</g>
</g>
<!-- Node8&#45;&gt;Node10 -->
<g id="edge16" class="edge">
<title>Node8&#45;&gt;Node10</title>
<path fill="none" stroke="#191970" d="M1142.2897,-190.4639C1177.392,-180.3701 1223.8046,-167.024 1260.8036,-156.3848"/>
<polygon fill="#191970" stroke="#191970" points="1261.8389,-159.729 1270.4822,-153.6017 1259.9044,-153.0016 1261.8389,-159.729"/>
</g>
<!-- Node14 -->
<g id="node15" class="node">
<title>Node14</title>
<g id="a_node15"><a xlink:title=" ">
<polygon fill="none" stroke="#bfbfbf" points="1118.5,-129 1118.5,-148 1217.5,-148 1217.5,-129 1118.5,-129"/>
<text text-anchor="middle" x="1168" y="-136" font-family="Fira Code" font-size="10.00" fill="#000000">packet.pb.h</text>
</a>
</g>
</g>
<!-- Node8&#45;&gt;Node14 -->
<g id="edge21" class="edge">
<title>Node8&#45;&gt;Node14</title>
<path fill="none" stroke="#191970" d="M1107.6994,-190.2967C1120.0881,-179.6551 1136.6135,-165.4602 1149.2315,-154.6217"/>
<polygon fill="#191970" stroke="#191970" points="1151.5712,-157.2259 1156.8763,-148.055 1147.01,-151.9159 1151.5712,-157.2259"/>
</g>
<!-- Node11 -->
<g id="node12" class="node">
<title>Node11</title>
<g id="a_node12"><a xlink:href="../../df/d3c/receiver_8hpp.html" target="_top" xlink:title="Receiver data using UDP.">
<polygon fill="none" stroke="#000000" points="1236,-56.5 1236,-86.5 1410,-86.5 1410,-56.5 1236,-56.5"/>
<text text-anchor="start" x="1244" y="-74.5" font-family="Fira Code" font-size="10.00" fill="#000000">travesim_adapters/udp</text>
<text text-anchor="middle" x="1323" y="-63.5" font-family="Fira Code" font-size="10.00" fill="#000000">/receiver.hpp</text>
</a>
</g>
</g>
<!-- Node10&#45;&gt;Node11 -->
<g id="edge17" class="edge">
<title>Node10&#45;&gt;Node11</title>
<path fill="none" stroke="#191970" d="M1323,-123.2967C1323,-115.5013 1323,-105.7991 1323,-96.9064"/>
<polygon fill="#191970" stroke="#191970" points="1326.5001,-96.6431 1323,-86.6432 1319.5001,-96.6432 1326.5001,-96.6431"/>
</g>
<!-- Node12 -->
<g id="node13" class="node">
<title>Node12</title>
<g id="a_node13"><a xlink:title=" ">
<polygon fill="none" stroke="#bfbfbf" points="1207,-.5 1207,-19.5 1329,-19.5 1329,-.5 1207,-.5"/>
<text text-anchor="middle" x="1268" y="-7.5" font-family="Fira Code" font-size="10.00" fill="#000000">boost/asio.hpp</text>
</a>
</g>
</g>
<!-- Node11&#45;&gt;Node12 -->
<g id="edge18" class="edge">
<title>Node11&#45;&gt;Node12</title>
<path fill="none" stroke="#191970" d="M1309.4045,-56.2977C1301.6109,-47.5831 1291.7953,-36.6075 1283.6774,-27.5302"/>
<polygon fill="#191970" stroke="#191970" points="1286.0813,-24.9678 1276.8062,-19.8469 1280.8635,-29.6341 1286.0813,-24.9678"/>
</g>
<!-- Node13 -->
<g id="node14" class="node">
<title>Node13</title>
<g id="a_node14"><a xlink:title=" ">
<polygon fill="none" stroke="#bfbfbf" points="1347,-.5 1347,-19.5 1409,-19.5 1409,-.5 1347,-.5"/>
<text text-anchor="middle" x="1378" y="-7.5" font-family="Fira Code" font-size="10.00" fill="#000000">string</text>
</a>
</g>
</g>
<!-- Node11&#45;&gt;Node13 -->
<g id="edge19" class="edge">
<title>Node11&#45;&gt;Node13</title>
<path fill="none" stroke="#191970" d="M1336.5955,-56.2977C1344.3891,-47.5831 1354.2047,-36.6075 1362.3226,-27.5302"/>
<polygon fill="#191970" stroke="#191970" points="1365.1365,-29.6341 1369.1938,-19.8469 1359.9187,-24.9678 1365.1365,-29.6341"/>
</g>
<!-- Node15&#45;&gt;Node6 -->
<g id="edge23" class="edge">
<title>Node15&#45;&gt;Node6</title>
<path fill="none" stroke="#191970" d="M637.4157,-190.4447C611.7653,-181.0433 578.974,-168.0764 551,-154 510.1811,-133.4602 465.5963,-104.3039 439.8085,-86.7158"/>
<polygon fill="#191970" stroke="#191970" points="441.7315,-83.7905 431.508,-81.0101 437.7663,-89.5591 441.7315,-83.7905"/>
</g>
<!-- Node16 -->
<g id="node17" class="node">
<title>Node16</title>
<g id="a_node17"><a xlink:title=" ">
<polygon fill="none" stroke="#bfbfbf" points="560.5,-129 560.5,-148 809.5,-148 809.5,-129 560.5,-129"/>
<text text-anchor="middle" x="685" y="-136" font-family="Fira Code" font-size="10.00" fill="#000000">travesim_adapters/TeamsConfig.h</text>
</a>
</g>
</g>
<!-- Node15&#45;&gt;Node16 -->
<g id="edge24" class="edge">
<title>Node15&#45;&gt;Node16</title>
<path fill="none" stroke="#191970" d="M681.9077,-190.2967C682.4764,-180.7699 683.2152,-168.3954 683.828,-158.1306"/>
<polygon fill="#191970" stroke="#191970" points="687.3273,-158.2458 684.4296,-148.055 680.3397,-157.8286 687.3273,-158.2458"/>
</g>
<!-- Node17 -->
<g id="node18" class="node">
<title>Node17</title>
<g id="a_node18"><a xlink:href="../../d1/d79/adapter__configurer_8hpp.html" target="_top" xlink:title="Template configurer for an adapter.">
<polygon fill="none" stroke="#000000" points="828,-123.5 828,-153.5 1062,-153.5 1062,-123.5 828,-123.5"/>
<text text-anchor="start" x="836" y="-141.5" font-family="Fira Code" font-size="10.00" fill="#000000">travesim_adapters/configurers</text>
<text text-anchor="middle" x="945" y="-130.5" font-family="Fira Code" font-size="10.00" fill="#000000">/adapter_configurer.hpp</text>
</a>
</g>
</g>
<!-- Node15&#45;&gt;Node17 -->
<g id="edge25" class="edge">
<title>Node15&#45;&gt;Node17</title>
<path fill="none" stroke="#191970" d="M740.2468,-190.4639C780.3578,-180.2842 833.5029,-166.7966 875.5966,-156.1138"/>
<polygon fill="#191970" stroke="#191970" points="876.6631,-159.4541 885.4948,-153.6017 874.9411,-152.6692 876.6631,-159.4541"/>
</g>
<!-- Node17&#45;&gt;Node1 -->
<g id="edge27" class="edge">
<title>Node17&#45;&gt;Node1</title>
<path fill="none" stroke="#191970" d="M852.3147,-123.4639C769.5212,-110.0325 651.2297,-90.8424 583.9901,-79.9342"/>
<polygon fill="#191970" stroke="#191970" points="584.4817,-76.4683 574.0502,-78.3217 583.3607,-83.378 584.4817,-76.4683"/>
</g>
<!-- Node17&#45;&gt;Node9 -->
<g id="edge26" class="edge">
<title>Node17&#45;&gt;Node9</title>
<path fill="none" stroke="#191970" d="M977.092,-123.4639C1001.4098,-112.0702 1034.5721,-96.5327 1058.2862,-85.4219"/>
<polygon fill="#191970" stroke="#191970" points="1059.9317,-88.5161 1067.5021,-81.1039 1056.9618,-82.1773 1059.9317,-88.5161"/>
</g>
<!-- Node18 -->
<g id="node19" class="node">
<title>Node18</title>
<g id="a_node19"><a xlink:title=" ">
<polygon fill="none" stroke="#bfbfbf" points="677.5,-56.5 677.5,-86.5 836.5,-86.5 836.5,-56.5 677.5,-56.5"/>
<text text-anchor="start" x="685.5" y="-74.5" font-family="Fira Code" font-size="10.00" fill="#000000">dynamic_reconfigure</text>
<text text-anchor="middle" x="757" y="-63.5" font-family="Fira Code" font-size="10.00" fill="#000000">/server.h</text>
</a>
</g>
</g>
<!-- Node17&#45;&gt;Node18 -->
<g id="edge28" class="edge">
<title>Node17&#45;&gt;Node18</title>
<path fill="none" stroke="#191970" d="M902.8091,-123.4639C875.0889,-113.5849 838.6269,-100.5905 809.0999,-90.0675"/>
<polygon fill="#191970" stroke="#191970" points="809.9696,-86.6619 799.3749,-86.6017 807.6196,-93.2557 809.9696,-86.6619"/>
</g>
<!-- Node19 -->
<g id="node20" class="node">
<title>Node19</title>
<g id="a_node20"><a xlink:title=" ">
<polygon fill="none" stroke="#bfbfbf" points="855,-56.5 855,-86.5 1037,-86.5 1037,-56.5 855,-56.5"/>
<text text-anchor="start" x="863" y="-74.5" font-family="Fira Code" font-size="10.00" fill="#000000">boost/thread/recursive</text>
<text text-anchor="middle" x="946" y="-63.5" font-family="Fira Code" font-size="10.00" fill="#000000">_mutex.hpp</text>
</a>
</g>
</g>
<!-- Node17&#45;&gt;Node19 -->
<g id="edge29" class="edge">
<title>Node17&#45;&gt;Node19</title>
<path fill="none" stroke="#191970" d="M945.2269,-123.2967C945.3433,-115.5013 945.4881,-105.7991 945.6208,-96.9064"/>
<polygon fill="#191970" stroke="#191970" points="949.1243,-96.6943 945.774,-86.6432 942.125,-96.5898 949.1243,-96.6943"/>
</g>
</g>
</svg>
        <g id="navigator" transform="translate(0 0)" fill="#404254">
                <rect fill="#f2f5e9" fill-opacity="0.5" stroke="#606060" stroke-width=".5" x="0" y="0" width="60" height="60"/>
                <use id="zoomplus" xlink:href="#zoomPlus" x="17" y="9" onmousedown="handleZoom(evt,'in')"/>
                <use id="zoomminus" xlink:href="#zoomMin" x="42" y="9" onmousedown="handleZoom(evt,'out')"/>
                <use id="reset" xlink:href="#resetDef" x="30" y="36" onmousedown="handleReset()"/>
                <g id="arrowUp" xlink:href="#dirArrow" transform="translate(30 24)" onmousedown="handlePan(0,-1)">
                  <use xlink:href="#rim" fill="#404040">
                        <set attributeName="fill" to="#808080" begin="arrowUp.mouseover" end="arrowUp.mouseout"/>
                  </use>
                  <path fill="none" stroke="white" stroke-width="1.5" d="M0,-3.0v7 M-2.5,-0.5L0,-3.0L2.5,-0.5"/>
                </g>
                <g id="arrowRight" xlink:href="#dirArrow" transform="rotate(90) translate(36 -43)" onmousedown="handlePan(1,0)">
                  <use xlink:href="#rim" fill="#404040">
                        <set attributeName="fill" to="#808080" begin="arrowRight.mouseover" end="arrowRight.mouseout"/>
                  </use>
                  <path fill="none" stroke="white" stroke-width="1.5" d="M0,-3.0v7 M-2.5,-0.5L0,-3.0L2.5,-0.5"/>
                </g>
                <g id="arrowDown" xlink:href="#dirArrow" transform="rotate(180) translate(-30 -48)" onmousedown="handlePan(0,1)">
                  <use xlink:href="#rim" fill="#404040">
                        <set attributeName="fill" to="#808080" begin="arrowDown.mouseover" end="arrowDown.mouseout"/>
                  </use>
                  <path fill="none" stroke="white" stroke-width="1.5" d="M0,-3.0v7 M-2.5,-0.5L0,-3.0L2.5,-0.5"/>
                </g>
                <g id="arrowLeft" xlink:href="#dirArrow" transform="rotate(270) translate(-36 17)" onmousedown="handlePan(-1,0)">
                  <use xlink:href="#rim" fill="#404040">
                        <set attributeName="fill" to="#808080" begin="arrowLeft.mouseover" end="arrowLeft.mouseout"/>
                  </use>
                  <path fill="none" stroke="white" stroke-width="1.5" d="M0,-3.0v7 M-2.5,-0.5L0,-3.0L2.5,-0.5"/>
                </g>
        </g>
        <svg viewBox="0 0 15 15" width="100%" height="30px" preserveAspectRatio="xMaxYMin meet">
         <g id="arrow_out" transform="scale(0.3 0.3)">
          <a xlink:href="teams__adapter_8cpp__incl_org.svg" target="_base">
           <rect id="button" ry="5" rx="5" y="6" x="6" height="38" width="38"
                fill="#f2f5e9" fill-opacity="0.5" stroke="#606060" stroke-width="1.0"/>
           <path id="arrow"
             d="M 11.500037,31.436501 C 11.940474,20.09759 22.043105,11.32322 32.158766,21.979434 L 37.068811,17.246167 C 37.068811,17.246167 37.088388,32 37.088388,32 L 22.160133,31.978069 C 22.160133,31.978069 26.997745,27.140456 26.997745,27.140456 C 18.528582,18.264221 13.291696,25.230495 11.500037,31.436501 z"
             style="fill:#404040;"/>
          </a>
         </g>
        </svg>
</svg>
