<?xml version="1.0" encoding="UTF-8" standalone="no"?>
<!DOCTYPE svg PUBLIC "-//W3C//DTD SVG 1.1//EN"
 "http://www.w3.org/Graphics/SVG/1.1/DTD/svg11.dtd">
<!-- Generated by graphviz version 2.40.1 (0)
 -->
<!-- Title: include/travesim_adapters/udp/unicast_sender.hpp Pages: 1 -->
<svg width="352pt" height="106pt"
 viewBox="0.00 0.00 352.00 106.00" xmlns="http://www.w3.org/2000/svg" xmlns:xlink="http://www.w3.org/1999/xlink">
<g id="graph0" class="graph" transform="scale(1 1) rotate(0) translate(4 102)">
<title>include/travesim_adapters/udp/unicast_sender.hpp</title>
<!-- Node4 -->
<g id="node1" class="node">
<title>Node4</title>
<g id="a_node1"><a xlink:title="Send data using UDP in unicast mode.">
<polygon fill="#bfbfbf" stroke="#000000" points="71.5,-67.5 71.5,-97.5 275.5,-97.5 275.5,-67.5 71.5,-67.5"/>
<text text-anchor="start" x="79.5" y="-85.5" font-family="Fira Code" font-size="10.00" fill="#000000">include/travesim_adapters</text>
<text text-anchor="middle" x="173.5" y="-74.5" font-family="Fira Code" font-size="10.00" fill="#000000">/udp/unicast_sender.hpp</text>
</a>
</g>
</g>
<!-- Node5 -->
<g id="node2" class="node">
<title>Node5</title>
<g id="a_node2"><a xlink:href="../../de/d05/unicast__sender__example_8cpp.html" target="_top" xlink:title="Example on how to use the UnicastSender.">
<polygon fill="none" stroke="#000000" points="0,-.5 0,-30.5 167,-30.5 167,-.5 0,-.5"/>
<text text-anchor="start" x="8" y="-18.5" font-family="Fira Code" font-size="10.00" fill="#000000">examples/udp/unicast</text>
<text text-anchor="middle" x="83.5" y="-7.5" font-family="Fira Code" font-size="10.00" fill="#000000">_sender_example.cpp</text>
</a>
</g>
</g>
<!-- Node4&#45;&gt;Node5 -->
<g id="edge1" class="edge">
<title>Node4&#45;&gt;Node5</title>
<path fill="none" stroke="#191970" d="M144.7058,-61.0643C131.3984,-51.1577 115.9087,-39.6265 103.8416,-30.6432"/>
<polygon fill="#191970" stroke="#191970" points="142.9662,-64.1327 153.0776,-67.2967 147.1463,-58.5177 142.9662,-64.1327"/>
</g>
<!-- Node6 -->
<g id="node3" class="node">
<title>Node6</title>
<g id="a_node3"><a xlink:href="../../d6/d70/unicast__sender_8cpp.html" target="_top" xlink:title="Send data using UDP in unicast mode.">
<polygon fill="none" stroke="#000000" points="185,-.5 185,-30.5 344,-30.5 344,-.5 185,-.5"/>
<text text-anchor="start" x="193" y="-18.5" font-family="Fira Code" font-size="10.00" fill="#000000">src/lib/udp/unicast</text>
<text text-anchor="middle" x="264.5" y="-7.5" font-family="Fira Code" font-size="10.00" fill="#000000">_sender.cpp</text>
</a>
</g>
</g>
<!-- Node4&#45;&gt;Node6 -->
<g id="edge2" class="edge">
<title>Node4&#45;&gt;Node6</title>
<path fill="none" stroke="#191970" d="M202.2303,-61.3469C215.7708,-51.3776 231.615,-39.7121 243.9324,-30.6432"/>
<polygon fill="#191970" stroke="#191970" points="200.127,-58.5492 194.1493,-67.2967 204.2773,-64.1861 200.127,-58.5492"/>
</g>
</g>
</svg>
