<?xml version="1.0" encoding="UTF-8" standalone="no"?>
<!DOCTYPE svg PUBLIC "-//W3C//DTD SVG 1.1//EN"
 "http://www.w3.org/Graphics/SVG/1.1/DTD/svg11.dtd">
<!-- Generated by graphviz version 2.40.1 (0)
 -->
<!-- Title: include/travesim_adapters/udp/multicast_sender.hpp Pages: 1 -->
<svg width="226pt" height="162pt"
 viewBox="0.00 0.00 226.00 162.00" xmlns="http://www.w3.org/2000/svg" xmlns:xlink="http://www.w3.org/1999/xlink">
<g id="graph0" class="graph" transform="scale(1 1) rotate(0) translate(4 158)">
<title>include/travesim_adapters/udp/multicast_sender.hpp</title>
<!-- Node0 -->
<g id="node1" class="node">
<title>Node0</title>
<g id="a_node1"><a xlink:title="Send data using UDP in multicast mode.">
<polygon fill="#bfbfbf" stroke="#000000" points="14,-123.5 14,-153.5 218,-153.5 218,-123.5 14,-123.5"/>
<text text-anchor="start" x="22" y="-141.5" font-family="Fira Code" font-size="10.00" fill="#000000">include/travesim_adapters</text>
<text text-anchor="middle" x="116" y="-130.5" font-family="Fira Code" font-size="10.00" fill="#000000">/udp/multicast_sender.hpp</text>
</a>
</g>
</g>
<!-- Node1 -->
<g id="node2" class="node">
<title>Node1</title>
<g id="a_node2"><a xlink:href="../../db/d61/sender_8hpp.html" target="_top" xlink:title="Send data using UDP.">
<polygon fill="none" stroke="#000000" points="29,-56.5 29,-86.5 203,-86.5 203,-56.5 29,-56.5"/>
<text text-anchor="start" x="37" y="-74.5" font-family="Fira Code" font-size="10.00" fill="#000000">travesim_adapters/udp</text>
<text text-anchor="middle" x="116" y="-63.5" font-family="Fira Code" font-size="10.00" fill="#000000">/sender.hpp</text>
</a>
</g>
</g>
<!-- Node0&#45;&gt;Node1 -->
<g id="edge1" class="edge">
<title>Node0&#45;&gt;Node1</title>
<path fill="none" stroke="#191970" d="M116,-123.2967C116,-115.5013 116,-105.7991 116,-96.9064"/>
<polygon fill="#191970" stroke="#191970" points="119.5001,-96.6431 116,-86.6432 112.5001,-96.6432 119.5001,-96.6431"/>
</g>
<!-- Node2 -->
<g id="node3" class="node">
<title>Node2</title>
<g id="a_node3"><a xlink:title=" ">
<polygon fill="none" stroke="#bfbfbf" points="0,-.5 0,-19.5 122,-19.5 122,-.5 0,-.5"/>
<text text-anchor="middle" x="61" y="-7.5" font-family="Fira Code" font-size="10.00" fill="#000000">boost/asio.hpp</text>
</a>
</g>
</g>
<!-- Node1&#45;&gt;Node2 -->
<g id="edge2" class="edge">
<title>Node1&#45;&gt;Node2</title>
<path fill="none" stroke="#191970" d="M102.4045,-56.2977C94.6109,-47.5831 84.7953,-36.6075 76.6774,-27.5302"/>
<polygon fill="#191970" stroke="#191970" points="79.0813,-24.9678 69.8062,-19.8469 73.8635,-29.6341 79.0813,-24.9678"/>
</g>
<!-- Node3 -->
<g id="node4" class="node">
<title>Node3</title>
<g id="a_node4"><a xlink:title=" ">
<polygon fill="none" stroke="#bfbfbf" points="140,-.5 140,-19.5 202,-19.5 202,-.5 140,-.5"/>
<text text-anchor="middle" x="171" y="-7.5" font-family="Fira Code" font-size="10.00" fill="#000000">string</text>
</a>
</g>
</g>
<!-- Node1&#45;&gt;Node3 -->
<g id="edge3" class="edge">
<title>Node1&#45;&gt;Node3</title>
<path fill="none" stroke="#191970" d="M129.5955,-56.2977C137.3891,-47.5831 147.2047,-36.6075 155.3226,-27.5302"/>
<polygon fill="#191970" stroke="#191970" points="158.1365,-29.6341 162.1938,-19.8469 152.9187,-24.9678 158.1365,-29.6341"/>
</g>
</g>
</svg>
