<?xml version="1.0" encoding="UTF-8" standalone="no"?>
<!DOCTYPE svg PUBLIC "-//W3C//DTD SVG 1.1//EN"
 "http://www.w3.org/Graphics/SVG/1.1/DTD/svg11.dtd">
<!-- Generated by graphviz version 2.40.1 (0)
 -->
<!-- Title: src/lib/configurers/configurers_utils.cpp Pages: 1 -->
<svg width="242pt" height="162pt"
 viewBox="0.00 0.00 242.00 162.00" xmlns="http://www.w3.org/2000/svg" xmlns:xlink="http://www.w3.org/1999/xlink">
<g id="graph0" class="graph" transform="scale(1 1) rotate(0) translate(4 158)">
<title>src/lib/configurers/configurers_utils.cpp</title>
<!-- Node0 -->
<g id="node1" class="node">
<title>Node0</title>
<g id="a_node1"><a xlink:title="Configurers utilitary funtions.">
<polygon fill="#bfbfbf" stroke="#000000" points="26,-123.5 26,-153.5 208,-153.5 208,-123.5 26,-123.5"/>
<text text-anchor="start" x="34" y="-141.5" font-family="Fira Code" font-size="10.00" fill="#000000">src/lib/configurers</text>
<text text-anchor="middle" x="117" y="-130.5" font-family="Fira Code" font-size="10.00" fill="#000000">/configurers_utils.cpp</text>
</a>
</g>
</g>
<!-- Node1 -->
<g id="node2" class="node">
<title>Node1</title>
<g id="a_node2"><a xlink:href="../../d4/d00/configurers__utils_8hpp.html" target="_top" xlink:title="Configurers utilitary funtions.">
<polygon fill="none" stroke="#000000" points="0,-56.5 0,-86.5 234,-86.5 234,-56.5 0,-56.5"/>
<text text-anchor="start" x="8" y="-74.5" font-family="Fira Code" font-size="10.00" fill="#000000">travesim_adapters/configurers</text>
<text text-anchor="middle" x="117" y="-63.5" font-family="Fira Code" font-size="10.00" fill="#000000">/configurers_utils.hpp</text>
</a>
</g>
</g>
<!-- Node0&#45;&gt;Node1 -->
<g id="edge1" class="edge">
<title>Node0&#45;&gt;Node1</title>
<path fill="none" stroke="#191970" d="M117,-123.2967C117,-115.5013 117,-105.7991 117,-96.9064"/>
<polygon fill="#191970" stroke="#191970" points="120.5001,-96.6431 117,-86.6432 113.5001,-96.6432 120.5001,-96.6431"/>
</g>
<!-- Node2 -->
<g id="node3" class="node">
<title>Node2</title>
<g id="a_node3"><a xlink:title=" ">
<polygon fill="none" stroke="#bfbfbf" points="44,-.5 44,-19.5 106,-19.5 106,-.5 44,-.5"/>
<text text-anchor="middle" x="75" y="-7.5" font-family="Fira Code" font-size="10.00" fill="#000000">string</text>
</a>
</g>
</g>
<!-- Node1&#45;&gt;Node2 -->
<g id="edge2" class="edge">
<title>Node1&#45;&gt;Node2</title>
<path fill="none" stroke="#191970" d="M106.618,-56.2977C100.8487,-47.8498 93.6284,-37.2773 87.5447,-28.369"/>
<polygon fill="#191970" stroke="#191970" points="90.2547,-26.1311 81.7247,-19.8469 84.4741,-30.0788 90.2547,-26.1311"/>
</g>
<!-- Node3 -->
<g id="node4" class="node">
<title>Node3</title>
<g id="a_node4"><a xlink:title=" ">
<polygon fill="none" stroke="#bfbfbf" points="124.5,-.5 124.5,-19.5 193.5,-19.5 193.5,-.5 124.5,-.5"/>
<text text-anchor="middle" x="159" y="-7.5" font-family="Fira Code" font-size="10.00" fill="#000000">sstream</text>
</a>
</g>
</g>
<!-- Node1&#45;&gt;Node3 -->
<g id="edge3" class="edge">
<title>Node1&#45;&gt;Node3</title>
<path fill="none" stroke="#191970" d="M127.382,-56.2977C133.1513,-47.8498 140.3716,-37.2773 146.4553,-28.369"/>
<polygon fill="#191970" stroke="#191970" points="149.5259,-30.0788 152.2753,-19.8469 143.7453,-26.1311 149.5259,-30.0788"/>
</g>
</g>
</svg>
