<?xml version="1.0" encoding="UTF-8" standalone="no"?>
<!DOCTYPE svg PUBLIC "-//W3C//DTD SVG 1.1//EN"
 "http://www.w3.org/Graphics/SVG/1.1/DTD/svg11.dtd">
<!-- Generated by graphviz version 2.40.1 (0)
 -->
<!-- Title: travesim::AdapterConfigurer&lt; AdapterConfigType &gt; Pages: 1 -->
<!--zoomable 486 -->
<svg id="main" version="1.1" xmlns="http://www.w3.org/2000/svg" xmlns:xlink="http://www.w3.org/1999/xlink" xml:space="preserve" onload="init(evt)">
<style type="text/css"><![CDATA[
.edge:hover path { stroke: red; }
.edge:hover polygon { stroke: red; fill: red; }
]]></style>
<script type="text/javascript"><![CDATA[
var edges = document.getElementsByTagName('g');
if (edges && edges.length) {
  for (var i=0;i<edges.length;i++) {
    if (edges[i].id.substr(0,4)=='edge') {
      edges[i].setAttribute('class','edge');
    }
  }
}
]]></script>
        <defs>
                <circle id="rim" cx="0" cy="0" r="7"/>
                <circle id="rim2" cx="0" cy="0" r="3.5"/>
                <g id="zoomPlus">
                        <use xlink:href="#rim" fill="#404040">
                                <set attributeName="fill" to="#808080" begin="zoomplus.mouseover" end="zoomplus.mouseout"/>
                        </use>
                        <path d="M-4,0h8M0,-4v8" fill="none" stroke="white" stroke-width="1.5" pointer-events="none"/>
                </g>
                <g id="zoomMin">
                        <use xlink:href="#rim" fill="#404040">
                                <set attributeName="fill" to="#808080" begin="zoomminus.mouseover" end="zoomminus.mouseout"/>
                        </use>
                        <path d="M-4,0h8" fill="none" stroke="white" stroke-width="1.5" pointer-events="none"/>
                </g>
                <g id="dirArrow">
                        <path fill="none" stroke="white" stroke-width="1.5" d="M0,-3.0v7 M-2.5,-0.5L0,-3.0L2.5,-0.5"/>
                </g>
               <g id="resetDef">
                       <use xlink:href="#rim2" fill="#404040">
                               <set attributeName="fill" to="#808080" begin="reset.mouseover" end="reset.mouseout"/>
                       </use>
               </g>
        </defs>

<script type="text/javascript">
var viewWidth = 890;
var viewHeight = 486;
var sectionId = 'dynsection-0';
</script>
<script xlink:href="../../svgpan.js"/>
<svg id="graph" class="graph">
<g id="viewport">
<title>travesim::AdapterConfigurer&lt; AdapterConfigType &gt;</title>
<!-- Node0 -->
<g id="node1" class="node">
<title>Node0</title>
<g id="a_node1"><a xlink:title=" ">
<polygon fill="#bfbfbf" stroke="#000000" points="327.5,-332.5 327.5,-477.5 546.5,-477.5 546.5,-332.5 327.5,-332.5"/>
<text text-anchor="start" x="335.5" y="-465.5" font-family="Fira Code" font-size="10.00" fill="#000000">travesim::AdapterConfigurer</text>
<text text-anchor="middle" x="437" y="-454.5" font-family="Fira Code" font-size="10.00" fill="#000000">&lt; AdapterConfigType &gt;</text>
<polyline fill="none" stroke="#000000" points="327.5,-447.5 546.5,-447.5 "/>
<text text-anchor="start" x="335.5" y="-435.5" font-family="Fira Code" font-size="10.00" fill="#000000"># reconfigured</text>
<text text-anchor="start" x="335.5" y="-424.5" font-family="Fira Code" font-size="10.00" fill="#000000"># config</text>
<text text-anchor="start" x="335.5" y="-413.5" font-family="Fira Code" font-size="10.00" fill="#000000"># mutex</text>
<text text-anchor="start" x="335.5" y="-402.5" font-family="Fira Code" font-size="10.00" fill="#000000">&#45; node_handle</text>
<text text-anchor="start" x="335.5" y="-391.5" font-family="Fira Code" font-size="10.00" fill="#000000">&#45; server</text>
<polyline fill="none" stroke="#000000" points="327.5,-384.5 546.5,-384.5 "/>
<text text-anchor="start" x="335.5" y="-372.5" font-family="Fira Code" font-size="10.00" fill="#000000">+ AdapterConfigurer()</text>
<text text-anchor="start" x="335.5" y="-361.5" font-family="Fira Code" font-size="10.00" fill="#000000">+ AdapterConfigurer()</text>
<text text-anchor="start" x="335.5" y="-350.5" font-family="Fira Code" font-size="10.00" fill="#000000">+ get_reset()</text>
<text text-anchor="start" x="335.5" y="-339.5" font-family="Fira Code" font-size="10.00" fill="#000000">&#45; callback()</text>
</a>
</g>
</g>
<!-- Node1 -->
<g id="node2" class="node">
<title>Node1</title>
<g id="a_node2"><a xlink:href="../../dd/d5b/classtravesim_1_1AdapterConfigurer.html" target="_top" xlink:title=" ">
<polygon fill="none" stroke="#000000" points="0,-128.5 0,-273.5 272,-273.5 272,-128.5 0,-128.5"/>
<text text-anchor="start" x="8" y="-261.5" font-family="Fira Code" font-size="10.00" fill="#000000">travesim::AdapterConfigurer</text>
<text text-anchor="middle" x="136" y="-250.5" font-family="Fira Code" font-size="10.00" fill="#000000">&lt; travesim_adapters::TeamsConfig &gt;</text>
<polyline fill="none" stroke="#000000" points="0,-243.5 272,-243.5 "/>
<text text-anchor="start" x="8" y="-231.5" font-family="Fira Code" font-size="10.00" fill="#000000"># reconfigured</text>
<text text-anchor="start" x="8" y="-220.5" font-family="Fira Code" font-size="10.00" fill="#000000"># config</text>
<text text-anchor="start" x="8" y="-209.5" font-family="Fira Code" font-size="10.00" fill="#000000"># mutex</text>
<text text-anchor="start" x="8" y="-198.5" font-family="Fira Code" font-size="10.00" fill="#000000">&#45; node_handle</text>
<text text-anchor="start" x="8" y="-187.5" font-family="Fira Code" font-size="10.00" fill="#000000">&#45; server</text>
<polyline fill="none" stroke="#000000" points="0,-180.5 272,-180.5 "/>
<text text-anchor="start" x="8" y="-168.5" font-family="Fira Code" font-size="10.00" fill="#000000">+ AdapterConfigurer()</text>
<text text-anchor="start" x="8" y="-157.5" font-family="Fira Code" font-size="10.00" fill="#000000">+ AdapterConfigurer()</text>
<text text-anchor="start" x="8" y="-146.5" font-family="Fira Code" font-size="10.00" fill="#000000">+ get_reset()</text>
<text text-anchor="start" x="8" y="-135.5" font-family="Fira Code" font-size="10.00" fill="#000000">&#45; callback()</text>
</a>
</g>
</g>
<!-- Node0&#45;&gt;Node1 -->
<g id="edge1" class="edge">
<title>Node0&#45;&gt;Node1</title>
<path fill="none" stroke="#ffa500" d="M318.4655,-337.5302C306.0133,-329.8148 293.655,-321.8845 282,-314 263.549,-301.5181 244.3556,-287.485 226.1828,-273.6628"/>
<polygon fill="#ffa500" stroke="#ffa500" points="316.7417,-340.579 327.0938,-342.8341 320.4075,-334.6156 316.7417,-340.579"/>
<text text-anchor="start" x="282" y="-306" font-family="Fira Code" font-size="10.00" fill="#000000"> &lt; travesim_adapters</text>
<text text-anchor="middle" x="357.5" y="-295" font-family="Fira Code" font-size="10.00" fill="#000000">::TeamsConfig &gt;</text>
</g>
<!-- Node3 -->
<g id="node4" class="node">
<title>Node3</title>
<g id="a_node4"><a xlink:href="../../dd/d5b/classtravesim_1_1AdapterConfigurer.html" target="_top" xlink:title=" ">
<polygon fill="none" stroke="#000000" points="290,-128.5 290,-273.5 584,-273.5 584,-128.5 290,-128.5"/>
<text text-anchor="start" x="298" y="-261.5" font-family="Fira Code" font-size="10.00" fill="#000000">travesim::AdapterConfigurer</text>
<text text-anchor="middle" x="437" y="-250.5" font-family="Fira Code" font-size="10.00" fill="#000000">&lt; travesim_adapters::ReplacerConfig &gt;</text>
<polyline fill="none" stroke="#000000" points="290,-243.5 584,-243.5 "/>
<text text-anchor="start" x="298" y="-231.5" font-family="Fira Code" font-size="10.00" fill="#000000"># reconfigured</text>
<text text-anchor="start" x="298" y="-220.5" font-family="Fira Code" font-size="10.00" fill="#000000"># config</text>
<text text-anchor="start" x="298" y="-209.5" font-family="Fira Code" font-size="10.00" fill="#000000"># mutex</text>
<text text-anchor="start" x="298" y="-198.5" font-family="Fira Code" font-size="10.00" fill="#000000">&#45; node_handle</text>
<text text-anchor="start" x="298" y="-187.5" font-family="Fira Code" font-size="10.00" fill="#000000">&#45; server</text>
<polyline fill="none" stroke="#000000" points="290,-180.5 584,-180.5 "/>
<text text-anchor="start" x="298" y="-168.5" font-family="Fira Code" font-size="10.00" fill="#000000">+ AdapterConfigurer()</text>
<text text-anchor="start" x="298" y="-157.5" font-family="Fira Code" font-size="10.00" fill="#000000">+ AdapterConfigurer()</text>
<text text-anchor="start" x="298" y="-146.5" font-family="Fira Code" font-size="10.00" fill="#000000">+ get_reset()</text>
<text text-anchor="start" x="298" y="-135.5" font-family="Fira Code" font-size="10.00" fill="#000000">&#45; callback()</text>
</a>
</g>
</g>
<!-- Node0&#45;&gt;Node3 -->
<g id="edge3" class="edge">
<title>Node0&#45;&gt;Node3</title>
<path fill="none" stroke="#ffa500" d="M437,-321.8501C437,-305.9117 437,-289.337 437,-273.7566"/>
<polygon fill="#ffa500" stroke="#ffa500" points="433.5001,-322.2153 437,-332.2153 440.5001,-322.2153 433.5001,-322.2153"/>
<text text-anchor="start" x="437" y="-306" font-family="Fira Code" font-size="10.00" fill="#000000"> &lt; travesim_adapters</text>
<text text-anchor="middle" x="512.5" y="-295" font-family="Fira Code" font-size="10.00" fill="#000000">::ReplacerConfig &gt;</text>
</g>
<!-- Node5 -->
<g id="node6" class="node">
<title>Node5</title>
<g id="a_node6"><a xlink:href="../../dd/d5b/classtravesim_1_1AdapterConfigurer.html" target="_top" xlink:title=" ">
<polygon fill="none" stroke="#000000" points="602.5,-128.5 602.5,-273.5 881.5,-273.5 881.5,-128.5 602.5,-128.5"/>
<text text-anchor="start" x="610.5" y="-261.5" font-family="Fira Code" font-size="10.00" fill="#000000">travesim::AdapterConfigurer</text>
<text text-anchor="middle" x="742" y="-250.5" font-family="Fira Code" font-size="10.00" fill="#000000">&lt; travesim_adapters::VisionConfig &gt;</text>
<polyline fill="none" stroke="#000000" points="602.5,-243.5 881.5,-243.5 "/>
<text text-anchor="start" x="610.5" y="-231.5" font-family="Fira Code" font-size="10.00" fill="#000000"># reconfigured</text>
<text text-anchor="start" x="610.5" y="-220.5" font-family="Fira Code" font-size="10.00" fill="#000000"># config</text>
<text text-anchor="start" x="610.5" y="-209.5" font-family="Fira Code" font-size="10.00" fill="#000000"># mutex</text>
<text text-anchor="start" x="610.5" y="-198.5" font-family="Fira Code" font-size="10.00" fill="#000000">&#45; node_handle</text>
<text text-anchor="start" x="610.5" y="-187.5" font-family="Fira Code" font-size="10.00" fill="#000000">&#45; server</text>
<polyline fill="none" stroke="#000000" points="602.5,-180.5 881.5,-180.5 "/>
<text text-anchor="start" x="610.5" y="-168.5" font-family="Fira Code" font-size="10.00" fill="#000000">+ AdapterConfigurer()</text>
<text text-anchor="start" x="610.5" y="-157.5" font-family="Fira Code" font-size="10.00" fill="#000000">+ AdapterConfigurer()</text>
<text text-anchor="start" x="610.5" y="-146.5" font-family="Fira Code" font-size="10.00" fill="#000000">+ get_reset()</text>
<text text-anchor="start" x="610.5" y="-135.5" font-family="Fira Code" font-size="10.00" fill="#000000">&#45; callback()</text>
</a>
</g>
</g>
<!-- Node0&#45;&gt;Node5 -->
<g id="edge5" class="edge">
<title>Node0&#45;&gt;Node5</title>
<path fill="none" stroke="#ffa500" d="M555.4304,-337.3752C567.9025,-329.6894 580.2939,-321.8083 592,-314 610.851,-301.4258 630.5221,-287.3504 649.1786,-273.5158"/>
<polygon fill="#ffa500" stroke="#ffa500" points="553.4936,-334.457 546.7904,-342.6617 557.1471,-340.428 553.4936,-334.457"/>
<text text-anchor="start" x="622" y="-306" font-family="Fira Code" font-size="10.00" fill="#000000"> &lt; travesim_adapters</text>
<text text-anchor="middle" x="697.5" y="-295" font-family="Fira Code" font-size="10.00" fill="#000000">::VisionConfig &gt;</text>
</g>
<!-- Node2 -->
<g id="node3" class="node">
<title>Node2</title>
<g id="a_node3"><a xlink:href="../../de/d8e/classtravesim_1_1TeamsConfigurer.html" target="_top" xlink:title="TeamsConfigurer class definition.">
<polygon fill="none" stroke="#000000" points="34,-.5 34,-90.5 238,-90.5 238,-.5 34,-.5"/>
<text text-anchor="middle" x="136" y="-78.5" font-family="Fira Code" font-size="10.00" fill="#000000">travesim::TeamsConfigurer</text>
<polyline fill="none" stroke="#000000" points="34,-71.5 238,-71.5 "/>
<text text-anchor="middle" x="136" y="-59.5" font-family="Fira Code" font-size="10.00" fill="#000000"> </text>
<polyline fill="none" stroke="#000000" points="34,-52.5 238,-52.5 "/>
<text text-anchor="start" x="42" y="-40.5" font-family="Fira Code" font-size="10.00" fill="#000000">+ TeamsConfigurer()</text>
<text text-anchor="start" x="42" y="-29.5" font-family="Fira Code" font-size="10.00" fill="#000000">+ get_address()</text>
<text text-anchor="start" x="42" y="-18.5" font-family="Fira Code" font-size="10.00" fill="#000000">+ get_port()</text>
<text text-anchor="start" x="42" y="-7.5" font-family="Fira Code" font-size="10.00" fill="#000000">+ get_specific_source()</text>
</a>
</g>
</g>
<!-- Node1&#45;&gt;Node2 -->
<g id="edge2" class="edge">
<title>Node1&#45;&gt;Node2</title>
<path fill="none" stroke="#191970" d="M136,-118.0417C136,-108.6394 136,-99.3391 136,-90.6941"/>
<polygon fill="none" stroke="#191970" points="132.5001,-118.2581 136,-128.2581 139.5001,-118.2582 132.5001,-118.2581"/>
</g>
<!-- Node4 -->
<g id="node5" class="node">
<title>Node4</title>
<g id="a_node5"><a xlink:href="../../d3/df0/classtravesim_1_1ReplacerConfigurer.html" target="_top" xlink:title="ReplacerConfigurer class definition.">
<polygon fill="none" stroke="#000000" points="323.5,-.5 323.5,-90.5 550.5,-90.5 550.5,-.5 323.5,-.5"/>
<text text-anchor="middle" x="437" y="-78.5" font-family="Fira Code" font-size="10.00" fill="#000000">travesim::ReplacerConfigurer</text>
<polyline fill="none" stroke="#000000" points="323.5,-71.5 550.5,-71.5 "/>
<text text-anchor="middle" x="437" y="-59.5" font-family="Fira Code" font-size="10.00" fill="#000000"> </text>
<polyline fill="none" stroke="#000000" points="323.5,-52.5 550.5,-52.5 "/>
<text text-anchor="start" x="331.5" y="-40.5" font-family="Fira Code" font-size="10.00" fill="#000000">+ ReplacerConfigurer()</text>
<text text-anchor="start" x="331.5" y="-29.5" font-family="Fira Code" font-size="10.00" fill="#000000">+ get_address()</text>
<text text-anchor="start" x="331.5" y="-18.5" font-family="Fira Code" font-size="10.00" fill="#000000">+ get_port()</text>
<text text-anchor="start" x="331.5" y="-7.5" font-family="Fira Code" font-size="10.00" fill="#000000">+ get_specific_source()</text>
</a>
</g>
</g>
<!-- Node3&#45;&gt;Node4 -->
<g id="edge4" class="edge">
<title>Node3&#45;&gt;Node4</title>
<path fill="none" stroke="#191970" d="M437,-118.0417C437,-108.6394 437,-99.3391 437,-90.6941"/>
<polygon fill="none" stroke="#191970" points="433.5001,-118.2581 437,-128.2581 440.5001,-118.2582 433.5001,-118.2581"/>
</g>
<!-- Node6 -->
<g id="node7" class="node">
<title>Node6</title>
<g id="a_node7"><a xlink:href="../../d1/d51/classtravesim_1_1VisionConfigurer.html" target="_top" xlink:title="VisionConfigurer class definition.">
<polygon fill="none" stroke="#000000" points="636,-6 636,-85 848,-85 848,-6 636,-6"/>
<text text-anchor="middle" x="742" y="-73" font-family="Fira Code" font-size="10.00" fill="#000000">travesim::VisionConfigurer</text>
<polyline fill="none" stroke="#000000" points="636,-66 848,-66 "/>
<text text-anchor="middle" x="742" y="-54" font-family="Fira Code" font-size="10.00" fill="#000000"> </text>
<polyline fill="none" stroke="#000000" points="636,-47 848,-47 "/>
<text text-anchor="start" x="644" y="-35" font-family="Fira Code" font-size="10.00" fill="#000000">+ VisionConfigurer()</text>
<text text-anchor="start" x="644" y="-24" font-family="Fira Code" font-size="10.00" fill="#000000">+ get_address()</text>
<text text-anchor="start" x="644" y="-13" font-family="Fira Code" font-size="10.00" fill="#000000">+ get_port()</text>
</a>
</g>
</g>
<!-- Node5&#45;&gt;Node6 -->
<g id="edge6" class="edge">
<title>Node5&#45;&gt;Node6</title>
<path fill="none" stroke="#191970" d="M742,-118.1455C742,-106.6528 742,-95.3095 742,-85.1258"/>
<polygon fill="none" stroke="#191970" points="738.5001,-118.2581 742,-128.2581 745.5001,-118.2582 738.5001,-118.2581"/>
</g>
</g>
</svg>
        <g id="navigator" transform="translate(0 0)" fill="#404254">
                <rect fill="#f2f5e9" fill-opacity="0.5" stroke="#606060" stroke-width=".5" x="0" y="0" width="60" height="60"/>
                <use id="zoomplus" xlink:href="#zoomPlus" x="17" y="9" onmousedown="handleZoom(evt,'in')"/>
                <use id="zoomminus" xlink:href="#zoomMin" x="42" y="9" onmousedown="handleZoom(evt,'out')"/>
                <use id="reset" xlink:href="#resetDef" x="30" y="36" onmousedown="handleReset()"/>
                <g id="arrowUp" xlink:href="#dirArrow" transform="translate(30 24)" onmousedown="handlePan(0,-1)">
                  <use xlink:href="#rim" fill="#404040">
                        <set attributeName="fill" to="#808080" begin="arrowUp.mouseover" end="arrowUp.mouseout"/>
                  </use>
                  <path fill="none" stroke="white" stroke-width="1.5" d="M0,-3.0v7 M-2.5,-0.5L0,-3.0L2.5,-0.5"/>
                </g>
                <g id="arrowRight" xlink:href="#dirArrow" transform="rotate(90) translate(36 -43)" onmousedown="handlePan(1,0)">
                  <use xlink:href="#rim" fill="#404040">
                        <set attributeName="fill" to="#808080" begin="arrowRight.mouseover" end="arrowRight.mouseout"/>
                  </use>
                  <path fill="none" stroke="white" stroke-width="1.5" d="M0,-3.0v7 M-2.5,-0.5L0,-3.0L2.5,-0.5"/>
                </g>
                <g id="arrowDown" xlink:href="#dirArrow" transform="rotate(180) translate(-30 -48)" onmousedown="handlePan(0,1)">
                  <use xlink:href="#rim" fill="#404040">
                        <set attributeName="fill" to="#808080" begin="arrowDown.mouseover" end="arrowDown.mouseout"/>
                  </use>
                  <path fill="none" stroke="white" stroke-width="1.5" d="M0,-3.0v7 M-2.5,-0.5L0,-3.0L2.5,-0.5"/>
                </g>
                <g id="arrowLeft" xlink:href="#dirArrow" transform="rotate(270) translate(-36 17)" onmousedown="handlePan(-1,0)">
                  <use xlink:href="#rim" fill="#404040">
                        <set attributeName="fill" to="#808080" begin="arrowLeft.mouseover" end="arrowLeft.mouseout"/>
                  </use>
                  <path fill="none" stroke="white" stroke-width="1.5" d="M0,-3.0v7 M-2.5,-0.5L0,-3.0L2.5,-0.5"/>
                </g>
        </g>
        <svg viewBox="0 0 15 15" width="100%" height="30px" preserveAspectRatio="xMaxYMin meet">
         <g id="arrow_out" transform="scale(0.3 0.3)">
          <a xlink:href="classtravesim_1_1AdapterConfigurer__inherit__graph_org.svg" target="_base">
           <rect id="button" ry="5" rx="5" y="6" x="6" height="38" width="38"
                fill="#f2f5e9" fill-opacity="0.5" stroke="#606060" stroke-width="1.0"/>
           <path id="arrow"
             d="M 11.500037,31.436501 C 11.940474,20.09759 22.043105,11.32322 32.158766,21.979434 L 37.068811,17.246167 C 37.068811,17.246167 37.088388,32 37.088388,32 L 22.160133,31.978069 C 22.160133,31.978069 26.997745,27.140456 26.997745,27.140456 C 18.528582,18.264221 13.291696,25.230495 11.500037,31.436501 z"
             style="fill:#404040;"/>
          </a>
         </g>
        </svg>
</svg>
