<?xml version="1.0" encoding="UTF-8" standalone="no"?>
<!DOCTYPE svg PUBLIC "-//W3C//DTD SVG 1.1//EN"
 "http://www.w3.org/Graphics/SVG/1.1/DTD/svg11.dtd">
<!-- Generated by graphviz version 2.40.1 (0)
 -->
<!-- Title: src/bin/vision_adapter.cpp Pages: 1 -->
<!--zoomable 285 -->
<svg id="main" version="1.1" xmlns="http://www.w3.org/2000/svg" xmlns:xlink="http://www.w3.org/1999/xlink" xml:space="preserve" onload="init(evt)">
<style type="text/css"><![CDATA[
.edge:hover path { stroke: red; }
.edge:hover polygon { stroke: red; fill: red; }
]]></style>
<script type="text/javascript"><![CDATA[
var edges = document.getElementsByTagName('g');
if (edges && edges.length) {
  for (var i=0;i<edges.length;i++) {
    if (edges[i].id.substr(0,4)=='edge') {
      edges[i].setAttribute('class','edge');
    }
  }
}
]]></script>
        <defs>
                <circle id="rim" cx="0" cy="0" r="7"/>
                <circle id="rim2" cx="0" cy="0" r="3.5"/>
                <g id="zoomPlus">
                        <use xlink:href="#rim" fill="#404040">
                                <set attributeName="fill" to="#808080" begin="zoomplus.mouseover" end="zoomplus.mouseout"/>
                        </use>
                        <path d="M-4,0h8M0,-4v8" fill="none" stroke="white" stroke-width="1.5" pointer-events="none"/>
                </g>
                <g id="zoomMin">
                        <use xlink:href="#rim" fill="#404040">
                                <set attributeName="fill" to="#808080" begin="zoomminus.mouseover" end="zoomminus.mouseout"/>
                        </use>
                        <path d="M-4,0h8" fill="none" stroke="white" stroke-width="1.5" pointer-events="none"/>
                </g>
                <g id="dirArrow">
                        <path fill="none" stroke="white" stroke-width="1.5" d="M0,-3.0v7 M-2.5,-0.5L0,-3.0L2.5,-0.5"/>
                </g>
               <g id="resetDef">
                       <use xlink:href="#rim2" fill="#404040">
                               <set attributeName="fill" to="#808080" begin="reset.mouseover" end="reset.mouseout"/>
                       </use>
               </g>
        </defs>

<script type="text/javascript">
var viewWidth = 2676;
var viewHeight = 285;
var sectionId = 'dynsection-0';
</script>
<script xlink:href="../../svgpan.js"/>
<svg id="graph" class="graph">
<g id="viewport">
<title>src/bin/vision_adapter.cpp</title>
<!-- Node0 -->
<g id="node1" class="node">
<title>Node0</title>
<g id="a_node1"><a xlink:title="Vision adapter executable file.">
<polygon fill="#bfbfbf" stroke="#000000" points="510.201,-257.5 510.201,-276.5 722.201,-276.5 722.201,-257.5 510.201,-257.5"/>
<text text-anchor="middle" x="616.201" y="-264.5" font-family="Fira Code" font-size="10.00" fill="#000000">src/bin/vision_adapter.cpp</text>
</a>
</g>
</g>
<!-- Node1 -->
<g id="node2" class="node">
<title>Node1</title>
<g id="a_node2"><a xlink:title=" ">
<polygon fill="none" stroke="#bfbfbf" points="114.201,-62 114.201,-81 198.201,-81 198.201,-62 114.201,-62"/>
<text text-anchor="middle" x="156.201" y="-69" font-family="Fira Code" font-size="10.00" fill="#000000">ros/ros.h</text>
</a>
</g>
</g>
<!-- Node0&#45;&gt;Node1 -->
<g id="edge1" class="edge">
<title>Node0&#45;&gt;Node1</title>
<path fill="none" stroke="#191970" d="M510.0372,-262.8085C385.4403,-256.9157 186.8549,-244.2105 116.201,-221 61.4556,-203.0156 33.5258,-204.1817 5.201,-154 -19.1469,-110.864 51.3944,-88.9962 104.1184,-78.9421"/>
<polygon fill="#191970" stroke="#191970" points="104.8434,-82.3678 114.0603,-77.1428 103.5968,-75.4797 104.8434,-82.3678"/>
</g>
<!-- Node2 -->
<g id="node3" class="node">
<title>Node2</title>
<g id="a_node3"><a xlink:title=" ">
<polygon fill="none" stroke="#bfbfbf" points="14.201,-129 14.201,-148 128.201,-148 128.201,-129 14.201,-129"/>
<text text-anchor="middle" x="71.201" y="-136" font-family="Fira Code" font-size="10.00" fill="#000000">ros/console.h</text>
</a>
</g>
</g>
<!-- Node0&#45;&gt;Node2 -->
<g id="edge2" class="edge">
<title>Node0&#45;&gt;Node2</title>
<path fill="none" stroke="#191970" d="M510.1172,-263.6071C396.6815,-258.6747 225.041,-247.0788 165.201,-221 131.9095,-206.4913 101.9963,-175.727 85.2568,-156.14"/>
<polygon fill="#191970" stroke="#191970" points="87.8026,-153.7271 78.7226,-148.2677 82.4163,-158.1978 87.8026,-153.7271"/>
</g>
<!-- Node3 -->
<g id="node4" class="node">
<title>Node3</title>
<g id="a_node4"><a xlink:title=" ">
<polygon fill="none" stroke="#bfbfbf" points="184.201,-129 184.201,-148 388.201,-148 388.201,-129 184.201,-129"/>
<text text-anchor="middle" x="286.201" y="-136" font-family="Fira Code" font-size="10.00" fill="#000000">gazebo_msgs/ModelStates.h</text>
</a>
</g>
</g>
<!-- Node0&#45;&gt;Node3 -->
<g id="edge3" class="edge">
<title>Node0&#45;&gt;Node3</title>
<path fill="none" stroke="#191970" d="M591.667,-257.4466C533.557,-234.8189 387.3987,-177.9058 320.543,-151.8726"/>
<polygon fill="#191970" stroke="#191970" points="321.485,-148.4834 310.8965,-148.1163 318.945,-155.0064 321.485,-148.4834"/>
</g>
<!-- Node4 -->
<g id="node5" class="node">
<title>Node4</title>
<g id="a_node5"><a xlink:href="../../dc/d02/vision__receiver_8hpp.html" target="_top" xlink:title="ROS vision receiver class definition.">
<polygon fill="none" stroke="#000000" points="174.201,-190.5 174.201,-220.5 348.201,-220.5 348.201,-190.5 174.201,-190.5"/>
<text text-anchor="start" x="182.201" y="-208.5" font-family="Fira Code" font-size="10.00" fill="#000000">travesim_adapters/ros</text>
<text text-anchor="middle" x="261.201" y="-197.5" font-family="Fira Code" font-size="10.00" fill="#000000">/vision_receiver.hpp</text>
</a>
</g>
</g>
<!-- Node0&#45;&gt;Node4 -->
<g id="edge4" class="edge">
<title>Node0&#45;&gt;Node4</title>
<path fill="none" stroke="#191970" d="M561.1217,-257.4581C506.9383,-248.0714 423.0811,-233.544 357.7983,-222.2345"/>
<polygon fill="#191970" stroke="#191970" points="358.3485,-218.7777 347.8978,-220.5193 357.1536,-225.675 358.3485,-218.7777"/>
</g>
<!-- Node5 -->
<g id="node6" class="node">
<title>Node5</title>
<g id="a_node6"><a xlink:href="../../d2/d46/ros__side_8hpp.html" target="_top" xlink:title="Collection of data converters between ROS and local formats.">
<polygon fill="none" stroke="#000000" points="644.701,-190.5 644.701,-220.5 833.701,-220.5 833.701,-190.5 644.701,-190.5"/>
<text text-anchor="start" x="652.701" y="-208.5" font-family="Fira Code" font-size="10.00" fill="#000000">travesim_adapters/data</text>
<text text-anchor="middle" x="739.201" y="-197.5" font-family="Fira Code" font-size="10.00" fill="#000000">/converter/ros_side.hpp</text>
</a>
</g>
</g>
<!-- Node0&#45;&gt;Node5 -->
<g id="edge8" class="edge">
<title>Node0&#45;&gt;Node5</title>
<path fill="none" stroke="#191970" d="M635.4197,-257.3906C652.6828,-248.7591 678.5606,-235.8202 700.1563,-225.0224"/>
<polygon fill="#191970" stroke="#191970" points="701.7328,-228.1473 709.1118,-220.5446 698.6023,-221.8863 701.7328,-228.1473"/>
</g>
<!-- Node6 -->
<g id="node7" class="node">
<title>Node6</title>
<g id="a_node7"><a xlink:title=" ">
<polygon fill="none" stroke="#bfbfbf" points="923.701,-.5 923.701,-19.5 1000.701,-19.5 1000.701,-.5 923.701,-.5"/>
<text text-anchor="middle" x="962.201" y="-7.5" font-family="Fira Code" font-size="10.00" fill="#000000">iostream</text>
</a>
</g>
</g>
<!-- Node0&#45;&gt;Node6 -->
<g id="edge44" class="edge">
<title>Node0&#45;&gt;Node6</title>
<path fill="none" stroke="#191970" d="M722.4217,-265.611C1054.4409,-261.0342 2059.2281,-245.317 2204.201,-221 2302.4915,-204.5132 2359.188,-234.3138 2418.201,-154 2476.0677,-75.2463 2484.8133,-103.8232 2121.201,-56 1901.383,-27.089 1202.2212,-13.8801 1010.9659,-10.751"/>
<polygon fill="#191970" stroke="#191970" points="1010.9867,-7.251 1000.9313,-10.5885 1010.8732,-14.2501 1010.9867,-7.251"/>
</g>
<!-- Node11 -->
<g id="node12" class="node">
<title>Node11</title>
<g id="a_node12"><a xlink:href="../../dc/d09/robot__state_8hpp.html" target="_top" xlink:title="Robot state data structure.">
<polygon fill="none" stroke="#000000" points="406.201,-123.5 406.201,-153.5 588.201,-153.5 588.201,-123.5 406.201,-123.5"/>
<text text-anchor="start" x="414.201" y="-141.5" font-family="Fira Code" font-size="10.00" fill="#000000">travesim_adapters/data</text>
<text text-anchor="middle" x="497.201" y="-130.5" font-family="Fira Code" font-size="10.00" fill="#000000">/robot_state.hpp</text>
</a>
</g>
</g>
<!-- Node0&#45;&gt;Node11 -->
<g id="edge26" class="edge">
<title>Node0&#45;&gt;Node11</title>
<path fill="none" stroke="#191970" d="M607.2567,-257.3416C588.4819,-237.068 544.5295,-189.6069 518.2016,-161.1772"/>
<polygon fill="#191970" stroke="#191970" points="520.6414,-158.6606 511.2788,-153.7016 515.5054,-163.4169 520.6414,-158.6606"/>
</g>
<!-- Node12 -->
<g id="node13" class="node">
<title>Node12</title>
<g id="a_node13"><a xlink:href="../../de/d28/entity__state_8hpp.html" target="_top" xlink:title="Entity state data structure.">
<polygon fill="none" stroke="#000000" points="525.201,-56.5 525.201,-86.5 707.201,-86.5 707.201,-56.5 525.201,-56.5"/>
<text text-anchor="start" x="533.201" y="-74.5" font-family="Fira Code" font-size="10.00" fill="#000000">travesim_adapters/data</text>
<text text-anchor="middle" x="616.201" y="-63.5" font-family="Fira Code" font-size="10.00" fill="#000000">/entity_state.hpp</text>
</a>
</g>
</g>
<!-- Node0&#45;&gt;Node12 -->
<g id="edge27" class="edge">
<title>Node0&#45;&gt;Node12</title>
<path fill="none" stroke="#191970" d="M616.201,-257.3051C616.201,-228.1129 616.201,-140.3738 616.201,-96.7262"/>
<polygon fill="#191970" stroke="#191970" points="619.7011,-96.6417 616.201,-86.6418 612.7011,-96.6418 619.7011,-96.6417"/>
</g>
<!-- Node13 -->
<g id="node14" class="node">
<title>Node13</title>
<g id="a_node14"><a xlink:href="../../de/d1e/field__state_8hpp.html" target="_top" xlink:title=" ">
<polygon fill="none" stroke="#000000" points="1373.201,-123.5 1373.201,-153.5 1555.201,-153.5 1555.201,-123.5 1373.201,-123.5"/>
<text text-anchor="start" x="1381.201" y="-141.5" font-family="Fira Code" font-size="10.00" fill="#000000">travesim_adapters/data</text>
<text text-anchor="middle" x="1464.201" y="-130.5" font-family="Fira Code" font-size="10.00" fill="#000000">/field_state.hpp</text>
</a>
</g>
</g>
<!-- Node0&#45;&gt;Node13 -->
<g id="edge25" class="edge">
<title>Node0&#45;&gt;Node13</title>
<path fill="none" stroke="#191970" d="M679.7538,-257.4832C807.1443,-238.3887 1103.0826,-193.9384 1363.1701,-154.155"/>
<polygon fill="#191970" stroke="#191970" points="1363.8293,-157.5949 1373.1849,-152.6227 1362.7706,-150.6754 1363.8293,-157.5949"/>
</g>
<!-- Node15 -->
<g id="node16" class="node">
<title>Node15</title>
<g id="a_node16"><a xlink:href="../../db/da8/vision__sender_8hpp.html" target="_top" xlink:title="Vision data sender with UDP and protobuf.">
<polygon fill="none" stroke="#000000" points="1983.201,-190.5 1983.201,-220.5 2195.201,-220.5 2195.201,-190.5 1983.201,-190.5"/>
<text text-anchor="start" x="1991.201" y="-208.5" font-family="Fira Code" font-size="10.00" fill="#000000">travesim_adapters/protobuf</text>
<text text-anchor="middle" x="2089.201" y="-197.5" font-family="Fira Code" font-size="10.00" fill="#000000">/vision_sender.hpp</text>
</a>
</g>
</g>
<!-- Node0&#45;&gt;Node15 -->
<g id="edge28" class="edge">
<title>Node0&#45;&gt;Node15</title>
<path fill="none" stroke="#191970" d="M722.2022,-263.1043C925.7449,-255.5522 1385.4364,-238.1504 1772.201,-221 1838.677,-218.0522 1912.9778,-214.4363 1972.928,-211.4386"/>
<polygon fill="#191970" stroke="#191970" points="1973.3718,-214.9209 1983.1842,-210.9248 1973.0215,-207.9297 1973.3718,-214.9209"/>
</g>
<!-- Node22 -->
<g id="node23" class="node">
<title>Node22</title>
<g id="a_node23"><a xlink:href="../../d0/d78/vision__configurer_8hpp.html" target="_top" xlink:title="Configurer for the vision.">
<polygon fill="none" stroke="#000000" points="1529.201,-190.5 1529.201,-220.5 1763.201,-220.5 1763.201,-190.5 1529.201,-190.5"/>
<text text-anchor="start" x="1537.201" y="-208.5" font-family="Fira Code" font-size="10.00" fill="#000000">travesim_adapters/configurers</text>
<text text-anchor="middle" x="1646.201" y="-197.5" font-family="Fira Code" font-size="10.00" fill="#000000">/vision_configurer.hpp</text>
</a>
</g>
</g>
<!-- Node0&#45;&gt;Node22 -->
<g id="edge36" class="edge">
<title>Node0&#45;&gt;Node22</title>
<path fill="none" stroke="#191970" d="M722.5496,-260.6501C913.4863,-249.2495 1313.5806,-225.3603 1518.8143,-213.1061"/>
<polygon fill="#191970" stroke="#191970" points="1519.2663,-216.5854 1529.0399,-212.4955 1518.8491,-209.5979 1519.2663,-216.5854"/>
</g>
<!-- Node4&#45;&gt;Node1 -->
<g id="edge5" class="edge">
<title>Node4&#45;&gt;Node1</title>
<path fill="none" stroke="#191970" d="M221.9452,-190.3522C205.2003,-182.0123 186.8699,-170.0448 175.201,-154 161.8056,-135.5812 157.6652,-109.2341 156.4837,-91.3046"/>
<polygon fill="#191970" stroke="#191970" points="159.9739,-90.9897 156.0704,-81.1402 152.9797,-91.2742 159.9739,-90.9897"/>
</g>
<!-- Node4&#45;&gt;Node2 -->
<g id="edge6" class="edge">
<title>Node4&#45;&gt;Node2</title>
<path fill="none" stroke="#191970" d="M218.5613,-190.4639C185.2906,-178.7316 139.5595,-162.6054 107.9053,-151.4431"/>
<polygon fill="#191970" stroke="#191970" points="108.7511,-148.0302 98.1563,-148.0053 106.4231,-154.6317 108.7511,-148.0302"/>
</g>
<!-- Node4&#45;&gt;Node3 -->
<g id="edge7" class="edge">
<title>Node4&#45;&gt;Node3</title>
<path fill="none" stroke="#191970" d="M266.8739,-190.2967C270.5043,-180.5672 275.243,-167.8675 279.1195,-157.4784"/>
<polygon fill="#191970" stroke="#191970" points="282.4189,-158.6476 282.6357,-148.055 275.8606,-156.2004 282.4189,-158.6476"/>
</g>
<!-- Node5&#45;&gt;Node3 -->
<g id="edge13" class="edge">
<title>Node5&#45;&gt;Node3</title>
<path fill="none" stroke="#191970" d="M644.5132,-191.4954C560.1163,-179.0129 438.2716,-160.9917 360.665,-149.5134"/>
<polygon fill="#191970" stroke="#191970" points="360.8913,-146.0089 350.4868,-148.0081 359.8671,-152.9336 360.8913,-146.0089"/>
</g>
<!-- Node5&#45;&gt;Node6 -->
<g id="edge9" class="edge">
<title>Node5&#45;&gt;Node6</title>
<path fill="none" stroke="#191970" d="M732.8322,-190.266C726.5738,-172.7058 719.631,-143.6196 732.201,-123 771.2243,-58.9868 858.5306,-30.2849 913.6469,-18.1434"/>
<polygon fill="#191970" stroke="#191970" points="914.478,-21.5453 923.5449,-16.0643 913.0389,-14.6948 914.478,-21.5453"/>
</g>
<!-- Node7 -->
<g id="node8" class="node">
<title>Node7</title>
<g id="a_node8"><a xlink:title=" ">
<polygon fill="none" stroke="#bfbfbf" points="758.201,-129 758.201,-148 932.201,-148 932.201,-129 758.201,-129"/>
<text text-anchor="middle" x="845.201" y="-136" font-family="Fira Code" font-size="10.00" fill="#000000">geometry_msgs/Point.h</text>
</a>
</g>
</g>
<!-- Node5&#45;&gt;Node7 -->
<g id="edge10" class="edge">
<title>Node5&#45;&gt;Node7</title>
<path fill="none" stroke="#191970" d="M762.9895,-190.4639C780.4544,-179.4247 804.0739,-164.4954 821.5148,-153.4715"/>
<polygon fill="#191970" stroke="#191970" points="823.4238,-156.4054 830.0067,-148.1039 819.6837,-150.4883 823.4238,-156.4054"/>
</g>
<!-- Node8 -->
<g id="node9" class="node">
<title>Node8</title>
<g id="a_node9"><a xlink:title=" ">
<polygon fill="none" stroke="#bfbfbf" points="950.701,-129 950.701,-148 1139.701,-148 1139.701,-129 950.701,-129"/>
<text text-anchor="middle" x="1045.201" y="-136" font-family="Fira Code" font-size="10.00" fill="#000000">geometry_msgs/Vector3.h</text>
</a>
</g>
</g>
<!-- Node5&#45;&gt;Node8 -->
<g id="edge11" class="edge">
<title>Node5&#45;&gt;Node8</title>
<path fill="none" stroke="#191970" d="M807.8734,-190.4639C863.5444,-178.2745 940.8773,-161.3421 991.9406,-150.1616"/>
<polygon fill="#191970" stroke="#191970" points="992.7688,-153.5632 1001.7888,-148.0053 991.2716,-146.7252 992.7688,-153.5632"/>
</g>
<!-- Node9 -->
<g id="node10" class="node">
<title>Node9</title>
<g id="a_node10"><a xlink:title=" ">
<polygon fill="none" stroke="#bfbfbf" points="1157.701,-129 1157.701,-148 1354.701,-148 1354.701,-129 1157.701,-129"/>
<text text-anchor="middle" x="1256.201" y="-136" font-family="Fira Code" font-size="10.00" fill="#000000">gazebo_msgs/ModelState.h</text>
</a>
</g>
</g>
<!-- Node5&#45;&gt;Node9 -->
<g id="edge12" class="edge">
<title>Node5&#45;&gt;Node9</title>
<path fill="none" stroke="#191970" d="M833.7175,-194.1421C916.8603,-184.0283 1041.1398,-168.6123 1149.201,-154 1159.8108,-152.5653 1171.0046,-151.0005 1181.9954,-149.4347"/>
<polygon fill="#191970" stroke="#191970" points="1182.6068,-152.8829 1192.0094,-148.0002 1181.6141,-145.9537 1182.6068,-152.8829"/>
</g>
<!-- Node10 -->
<g id="node11" class="node">
<title>Node10</title>
<g id="a_node11"><a xlink:href="../../d9/d46/data__common_8hpp.html" target="_top" xlink:title="Common constants and types for the data structures.">
<polygon fill="none" stroke="#000000" points="871.201,-56.5 871.201,-86.5 1053.201,-86.5 1053.201,-56.5 871.201,-56.5"/>
<text text-anchor="start" x="879.201" y="-74.5" font-family="Fira Code" font-size="10.00" fill="#000000">travesim_adapters/data</text>
<text text-anchor="middle" x="962.201" y="-63.5" font-family="Fira Code" font-size="10.00" fill="#000000">/data_common.hpp</text>
</a>
</g>
</g>
<!-- Node5&#45;&gt;Node10 -->
<g id="edge14" class="edge">
<title>Node5&#45;&gt;Node10</title>
<path fill="none" stroke="#191970" d="M736.3525,-190.3504C733.8491,-172.0502 732.8018,-141.4323 749.201,-123 764.6354,-105.6521 813.7791,-93.1388 860.9758,-84.794"/>
<polygon fill="#191970" stroke="#191970" points="861.7391,-88.2143 871.0047,-83.0763 860.5574,-81.3147 861.7391,-88.2143"/>
</g>
<!-- Node5&#45;&gt;Node11 -->
<g id="edge15" class="edge">
<title>Node5&#45;&gt;Node11</title>
<path fill="none" stroke="#191970" d="M684.8915,-190.4639C648.4333,-180.3701 600.228,-167.024 561.7998,-156.3848"/>
<polygon fill="#191970" stroke="#191970" points="562.3188,-152.8969 551.7474,-153.6017 560.4509,-159.6431 562.3188,-152.8969"/>
</g>
<!-- Node5&#45;&gt;Node12 -->
<g id="edge19" class="edge">
<title>Node5&#45;&gt;Node12</title>
<path fill="none" stroke="#191970" d="M718.974,-190.3165C706.5911,-180.5746 690.7657,-167.2979 678.201,-154 660.7021,-135.48 643.5121,-112.0772 631.6879,-94.9317"/>
<polygon fill="#191970" stroke="#191970" points="634.5371,-92.8973 626.0204,-86.595 628.7481,-96.8328 634.5371,-92.8973"/>
</g>
<!-- Node5&#45;&gt;Node13 -->
<g id="edge20" class="edge">
<title>Node5&#45;&gt;Node13</title>
<path fill="none" stroke="#191970" d="M833.9135,-199.8131C954.4417,-192.0993 1169.2537,-176.7571 1362.8727,-154.1072"/>
<polygon fill="#191970" stroke="#191970" points="1363.4307,-157.5657 1372.9523,-152.9191 1362.6113,-150.6138 1363.4307,-157.5657"/>
</g>
<!-- Node11&#45;&gt;Node6 -->
<g id="edge16" class="edge">
<title>Node11&#45;&gt;Node6</title>
<path fill="none" stroke="#191970" d="M495.8883,-123.4158C495.1676,-104.5927 497.1452,-72.8352 516.201,-56 545.5171,-30.1001 803.7827,-16.5122 913.3723,-11.8702"/>
<polygon fill="#191970" stroke="#191970" points="913.6551,-15.3615 923.5009,-11.4488 913.364,-8.3676 913.6551,-15.3615"/>
</g>
<!-- Node11&#45;&gt;Node12 -->
<g id="edge17" class="edge">
<title>Node11&#45;&gt;Node12</title>
<path fill="none" stroke="#191970" d="M523.9069,-123.4639C540.4794,-114.1332 561.9881,-102.0232 580.0721,-91.8415"/>
<polygon fill="#191970" stroke="#191970" points="582.1758,-94.6737 589.1725,-86.7177 578.7415,-88.574 582.1758,-94.6737"/>
</g>
<!-- Node12&#45;&gt;Node6 -->
<g id="edge18" class="edge">
<title>Node12&#45;&gt;Node6</title>
<path fill="none" stroke="#191970" d="M700.8421,-56.4554C767.7034,-44.5711 858.6342,-28.4086 913.7256,-18.6163"/>
<polygon fill="#191970" stroke="#191970" points="914.3483,-22.0606 923.5814,-16.8645 913.1232,-15.1686 914.3483,-22.0606"/>
</g>
<!-- Node13&#45;&gt;Node6 -->
<g id="edge22" class="edge">
<title>Node13&#45;&gt;Node6</title>
<path fill="none" stroke="#191970" d="M1405.139,-123.3816C1304.339,-97.5792 1101.0978,-45.5543 1009.2085,-22.0328"/>
<polygon fill="#191970" stroke="#191970" points="1009.9108,-18.5998 999.3552,-19.5106 1008.1749,-25.3811 1009.9108,-18.5998"/>
</g>
<!-- Node13&#45;&gt;Node10 -->
<g id="edge23" class="edge">
<title>Node13&#45;&gt;Node10</title>
<path fill="none" stroke="#191970" d="M1373.1977,-124.2903C1370.1635,-123.8498 1367.1582,-123.4185 1364.201,-123 1261.9812,-108.5329 1144.8804,-93.7318 1063.5349,-83.732"/>
<polygon fill="#191970" stroke="#191970" points="1063.6496,-80.2199 1053.2977,-82.4757 1062.7969,-87.1678 1063.6496,-80.2199"/>
</g>
<!-- Node13&#45;&gt;Node12 -->
<g id="edge24" class="edge">
<title>Node13&#45;&gt;Node12</title>
<path fill="none" stroke="#191970" d="M1372.9581,-124.03C1370.0068,-123.6666 1367.0819,-123.3219 1364.201,-123 1301.6801,-116.0151 907.0372,-90.2116 717.5282,-77.9943"/>
<polygon fill="#191970" stroke="#191970" points="717.484,-74.4843 707.2797,-77.334 717.0339,-81.4698 717.484,-74.4843"/>
</g>
<!-- Node14 -->
<g id="node15" class="node">
<title>Node14</title>
<g id="a_node15"><a xlink:title=" ">
<polygon fill="none" stroke="#bfbfbf" points="1433.201,-62 1433.201,-81 1495.201,-81 1495.201,-62 1433.201,-62"/>
<text text-anchor="middle" x="1464.201" y="-69" font-family="Fira Code" font-size="10.00" fill="#000000">vector</text>
</a>
</g>
</g>
<!-- Node13&#45;&gt;Node14 -->
<g id="edge21" class="edge">
<title>Node13&#45;&gt;Node14</title>
<path fill="none" stroke="#191970" d="M1464.201,-123.2967C1464.201,-113.7699 1464.201,-101.3954 1464.201,-91.1306"/>
<polygon fill="#191970" stroke="#191970" points="1467.7011,-91.0549 1464.201,-81.055 1460.7011,-91.055 1467.7011,-91.0549"/>
</g>
<!-- Node15&#45;&gt;Node13 -->
<g id="edge34" class="edge">
<title>Node15&#45;&gt;Node13</title>
<path fill="none" stroke="#191970" d="M1982.9996,-194.4153C1884.5291,-184.0974 1733.9438,-168.2167 1603.201,-154 1591.0107,-152.6744 1578.2208,-151.2687 1565.5423,-149.866"/>
<polygon fill="#191970" stroke="#191970" points="1565.7366,-146.3662 1555.4119,-148.7433 1564.9655,-153.3236 1565.7366,-146.3662"/>
</g>
<!-- Node16 -->
<g id="node17" class="node">
<title>Node16</title>
<g id="a_node17"><a xlink:title=" ">
<polygon fill="none" stroke="#bfbfbf" points="2050.201,-62 2050.201,-81 2112.201,-81 2112.201,-62 2050.201,-62"/>
<text text-anchor="middle" x="2081.201" y="-69" font-family="Fira Code" font-size="10.00" fill="#000000">memory</text>
</a>
</g>
</g>
<!-- Node15&#45;&gt;Node16 -->
<g id="edge29" class="edge">
<title>Node15&#45;&gt;Node16</title>
<path fill="none" stroke="#191970" d="M2088.2988,-190.389C2086.8472,-166.0735 2083.9929,-118.2644 2082.3813,-91.2698"/>
<polygon fill="#191970" stroke="#191970" points="2085.8642,-90.8778 2081.7744,-81.1042 2078.8766,-91.295 2085.8642,-90.8778"/>
</g>
<!-- Node17 -->
<g id="node18" class="node">
<title>Node17</title>
<g id="a_node18"><a xlink:href="../../df/de3/multicast__sender_8hpp.html" target="_top" xlink:title="Send data using UDP in multicast mode.">
<polygon fill="none" stroke="#000000" points="2235.201,-123.5 2235.201,-153.5 2409.201,-153.5 2409.201,-123.5 2235.201,-123.5"/>
<text text-anchor="start" x="2243.201" y="-141.5" font-family="Fira Code" font-size="10.00" fill="#000000">travesim_adapters/udp</text>
<text text-anchor="middle" x="2322.201" y="-130.5" font-family="Fira Code" font-size="10.00" fill="#000000">/multicast_sender.hpp</text>
</a>
</g>
</g>
<!-- Node15&#45;&gt;Node17 -->
<g id="edge30" class="edge">
<title>Node15&#45;&gt;Node17</title>
<path fill="none" stroke="#191970" d="M2141.4907,-190.4639C2176.593,-180.3701 2223.0056,-167.024 2260.0046,-156.3848"/>
<polygon fill="#191970" stroke="#191970" points="2261.0399,-159.729 2269.6832,-153.6017 2259.1054,-153.0016 2261.0399,-159.729"/>
</g>
<!-- Node21 -->
<g id="node22" class="node">
<title>Node21</title>
<g id="a_node22"><a xlink:title=" ">
<polygon fill="none" stroke="#bfbfbf" points="2117.701,-129 2117.701,-148 2216.701,-148 2216.701,-129 2117.701,-129"/>
<text text-anchor="middle" x="2167.201" y="-136" font-family="Fira Code" font-size="10.00" fill="#000000">packet.pb.h</text>
</a>
</g>
</g>
<!-- Node15&#45;&gt;Node21 -->
<g id="edge35" class="edge">
<title>Node15&#45;&gt;Node21</title>
<path fill="none" stroke="#191970" d="M2106.9004,-190.2967C2119.2891,-179.6551 2135.8145,-165.4602 2148.4325,-154.6217"/>
<polygon fill="#191970" stroke="#191970" points="2150.7722,-157.2259 2156.0773,-148.055 2146.211,-151.9159 2150.7722,-157.2259"/>
</g>
<!-- Node18 -->
<g id="node19" class="node">
<title>Node18</title>
<g id="a_node19"><a xlink:href="../../db/d61/sender_8hpp.html" target="_top" xlink:title="Send data using UDP.">
<polygon fill="none" stroke="#000000" points="2465.201,-56.5 2465.201,-86.5 2639.201,-86.5 2639.201,-56.5 2465.201,-56.5"/>
<text text-anchor="start" x="2473.201" y="-74.5" font-family="Fira Code" font-size="10.00" fill="#000000">travesim_adapters/udp</text>
<text text-anchor="middle" x="2552.201" y="-63.5" font-family="Fira Code" font-size="10.00" fill="#000000">/sender.hpp</text>
</a>
</g>
</g>
<!-- Node17&#45;&gt;Node18 -->
<g id="edge31" class="edge">
<title>Node17&#45;&gt;Node18</title>
<path fill="none" stroke="#191970" d="M2373.8175,-123.4639C2408.3203,-113.4131 2453.893,-100.1375 2490.3387,-89.5208"/>
<polygon fill="#191970" stroke="#191970" points="2491.7373,-92.7589 2500.3594,-86.6017 2489.7795,-86.0382 2491.7373,-92.7589"/>
</g>
<!-- Node19 -->
<g id="node20" class="node">
<title>Node19</title>
<g id="a_node20"><a xlink:title=" ">
<polygon fill="none" stroke="#bfbfbf" points="2546.201,-.5 2546.201,-19.5 2668.201,-19.5 2668.201,-.5 2546.201,-.5"/>
<text text-anchor="middle" x="2607.201" y="-7.5" font-family="Fira Code" font-size="10.00" fill="#000000">boost/asio.hpp</text>
</a>
</g>
</g>
<!-- Node18&#45;&gt;Node19 -->
<g id="edge32" class="edge">
<title>Node18&#45;&gt;Node19</title>
<path fill="none" stroke="#191970" d="M2565.7965,-56.2977C2573.5901,-47.5831 2583.4057,-36.6075 2591.5236,-27.5302"/>
<polygon fill="#191970" stroke="#191970" points="2594.3375,-29.6341 2598.3948,-19.8469 2589.1197,-24.9678 2594.3375,-29.6341"/>
</g>
<!-- Node20 -->
<g id="node21" class="node">
<title>Node20</title>
<g id="a_node21"><a xlink:title=" ">
<polygon fill="none" stroke="#bfbfbf" points="2466.201,-.5 2466.201,-19.5 2528.201,-19.5 2528.201,-.5 2466.201,-.5"/>
<text text-anchor="middle" x="2497.201" y="-7.5" font-family="Fira Code" font-size="10.00" fill="#000000">string</text>
</a>
</g>
</g>
<!-- Node18&#45;&gt;Node20 -->
<g id="edge33" class="edge">
<title>Node18&#45;&gt;Node20</title>
<path fill="none" stroke="#191970" d="M2538.6055,-56.2977C2530.8119,-47.5831 2520.9963,-36.6075 2512.8784,-27.5302"/>
<polygon fill="#191970" stroke="#191970" points="2515.2823,-24.9678 2506.0072,-19.8469 2510.0645,-29.6341 2515.2823,-24.9678"/>
</g>
<!-- Node22&#45;&gt;Node6 -->
<g id="edge37" class="edge">
<title>Node22&#45;&gt;Node6</title>
<path fill="none" stroke="#191970" d="M1633.0414,-190.4795C1601.0575,-154.1459 1520.6566,-63.9063 1504.201,-56 1460.3207,-34.9172 1135.4805,-17.9532 1010.7656,-12.1513"/>
<polygon fill="#191970" stroke="#191970" points="1010.8834,-8.6531 1000.7327,-11.6886 1010.5608,-15.6457 1010.8834,-8.6531"/>
</g>
<!-- Node23 -->
<g id="node24" class="node">
<title>Node23</title>
<g id="a_node24"><a xlink:title=" ">
<polygon fill="none" stroke="#bfbfbf" points="1611.701,-123.5 1611.701,-153.5 1808.701,-153.5 1808.701,-123.5 1611.701,-123.5"/>
<text text-anchor="start" x="1619.701" y="-141.5" font-family="Fira Code" font-size="10.00" fill="#000000">travesim_adapters/Vision</text>
<text text-anchor="middle" x="1710.201" y="-130.5" font-family="Fira Code" font-size="10.00" fill="#000000">Config.h</text>
</a>
</g>
</g>
<!-- Node22&#45;&gt;Node23 -->
<g id="edge38" class="edge">
<title>Node22&#45;&gt;Node23</title>
<path fill="none" stroke="#191970" d="M1660.7236,-190.2967C1668.9882,-181.6446 1679.4965,-170.6438 1688.7012,-161.0076"/>
<polygon fill="#191970" stroke="#191970" points="1691.3594,-163.2919 1695.7359,-153.6432 1686.2976,-158.4567 1691.3594,-163.2919"/>
</g>
<!-- Node24 -->
<g id="node25" class="node">
<title>Node24</title>
<g id="a_node25"><a xlink:href="../../d1/d79/adapter__configurer_8hpp.html" target="_top" xlink:title="Template configurer for an adapter.">
<polygon fill="none" stroke="#000000" points="1827.201,-123.5 1827.201,-153.5 2061.201,-153.5 2061.201,-123.5 1827.201,-123.5"/>
<text text-anchor="start" x="1835.201" y="-141.5" font-family="Fira Code" font-size="10.00" fill="#000000">travesim_adapters/configurers</text>
<text text-anchor="middle" x="1944.201" y="-130.5" font-family="Fira Code" font-size="10.00" fill="#000000">/adapter_configurer.hpp</text>
</a>
</g>
</g>
<!-- Node22&#45;&gt;Node24 -->
<g id="edge39" class="edge">
<title>Node22&#45;&gt;Node24</title>
<path fill="none" stroke="#191970" d="M1713.078,-190.4639C1758.817,-180.1803 1819.5707,-166.5209 1867.3104,-155.7875"/>
<polygon fill="#191970" stroke="#191970" points="1868.3012,-159.1522 1877.2899,-153.5438 1866.7657,-152.3227 1868.3012,-159.1522"/>
</g>
<!-- Node24&#45;&gt;Node1 -->
<g id="edge41" class="edge">
<title>Node24&#45;&gt;Node1</title>
<path fill="none" stroke="#191970" d="M1826.8657,-123.6963C1823.95,-123.4477 1821.0581,-123.2147 1818.201,-123 1240.9415,-79.6115 1094.7274,-107.4512 516.201,-87 406.7832,-83.132 278.7152,-77.3083 208.6377,-74.0108"/>
<polygon fill="#191970" stroke="#191970" points="208.4683,-70.499 198.3143,-73.5235 208.1382,-77.4912 208.4683,-70.499"/>
</g>
<!-- Node24&#45;&gt;Node16 -->
<g id="edge40" class="edge">
<title>Node24&#45;&gt;Node16</title>
<path fill="none" stroke="#191970" d="M1974.9465,-123.4639C1998.1404,-112.1209 2029.7326,-96.6707 2052.4304,-85.5703"/>
<polygon fill="#191970" stroke="#191970" points="2054.1175,-88.6414 2061.5631,-81.1039 2051.0422,-82.3531 2054.1175,-88.6414"/>
</g>
<!-- Node25 -->
<g id="node26" class="node">
<title>Node25</title>
<g id="a_node26"><a xlink:title=" ">
<polygon fill="none" stroke="#bfbfbf" points="1868.701,-56.5 1868.701,-86.5 2027.701,-86.5 2027.701,-56.5 1868.701,-56.5"/>
<text text-anchor="start" x="1876.701" y="-74.5" font-family="Fira Code" font-size="10.00" fill="#000000">dynamic_reconfigure</text>
<text text-anchor="middle" x="1948.201" y="-63.5" font-family="Fira Code" font-size="10.00" fill="#000000">/server.h</text>
</a>
</g>
</g>
<!-- Node24&#45;&gt;Node25 -->
<g id="edge42" class="edge">
<title>Node24&#45;&gt;Node25</title>
<path fill="none" stroke="#191970" d="M1945.1087,-123.2967C1945.5741,-115.5013 1946.1533,-105.7991 1946.6842,-96.9064"/>
<polygon fill="#191970" stroke="#191970" points="1950.1947,-96.834 1947.2969,-86.6432 1943.2071,-96.4168 1950.1947,-96.834"/>
</g>
<!-- Node26 -->
<g id="node27" class="node">
<title>Node26</title>
<g id="a_node27"><a xlink:title=" ">
<polygon fill="none" stroke="#bfbfbf" points="1668.201,-56.5 1668.201,-86.5 1850.201,-86.5 1850.201,-56.5 1668.201,-56.5"/>
<text text-anchor="start" x="1676.201" y="-74.5" font-family="Fira Code" font-size="10.00" fill="#000000">boost/thread/recursive</text>
<text text-anchor="middle" x="1759.201" y="-63.5" font-family="Fira Code" font-size="10.00" fill="#000000">_mutex.hpp</text>
</a>
</g>
</g>
<!-- Node24&#45;&gt;Node26 -->
<g id="edge43" class="edge">
<title>Node24&#45;&gt;Node26</title>
<path fill="none" stroke="#191970" d="M1902.6834,-123.4639C1875.4055,-113.5849 1839.5254,-100.5905 1810.4695,-90.0675"/>
<polygon fill="#191970" stroke="#191970" points="1811.4939,-86.7161 1800.8997,-86.6017 1809.1102,-93.2978 1811.4939,-86.7161"/>
</g>
</g>
</svg>
        <g id="navigator" transform="translate(0 0)" fill="#404254">
                <rect fill="#f2f5e9" fill-opacity="0.5" stroke="#606060" stroke-width=".5" x="0" y="0" width="60" height="60"/>
                <use id="zoomplus" xlink:href="#zoomPlus" x="17" y="9" onmousedown="handleZoom(evt,'in')"/>
                <use id="zoomminus" xlink:href="#zoomMin" x="42" y="9" onmousedown="handleZoom(evt,'out')"/>
                <use id="reset" xlink:href="#resetDef" x="30" y="36" onmousedown="handleReset()"/>
                <g id="arrowUp" xlink:href="#dirArrow" transform="translate(30 24)" onmousedown="handlePan(0,-1)">
                  <use xlink:href="#rim" fill="#404040">
                        <set attributeName="fill" to="#808080" begin="arrowUp.mouseover" end="arrowUp.mouseout"/>
                  </use>
                  <path fill="none" stroke="white" stroke-width="1.5" d="M0,-3.0v7 M-2.5,-0.5L0,-3.0L2.5,-0.5"/>
                </g>
                <g id="arrowRight" xlink:href="#dirArrow" transform="rotate(90) translate(36 -43)" onmousedown="handlePan(1,0)">
                  <use xlink:href="#rim" fill="#404040">
                        <set attributeName="fill" to="#808080" begin="arrowRight.mouseover" end="arrowRight.mouseout"/>
                  </use>
                  <path fill="none" stroke="white" stroke-width="1.5" d="M0,-3.0v7 M-2.5,-0.5L0,-3.0L2.5,-0.5"/>
                </g>
                <g id="arrowDown" xlink:href="#dirArrow" transform="rotate(180) translate(-30 -48)" onmousedown="handlePan(0,1)">
                  <use xlink:href="#rim" fill="#404040">
                        <set attributeName="fill" to="#808080" begin="arrowDown.mouseover" end="arrowDown.mouseout"/>
                  </use>
                  <path fill="none" stroke="white" stroke-width="1.5" d="M0,-3.0v7 M-2.5,-0.5L0,-3.0L2.5,-0.5"/>
                </g>
                <g id="arrowLeft" xlink:href="#dirArrow" transform="rotate(270) translate(-36 17)" onmousedown="handlePan(-1,0)">
                  <use xlink:href="#rim" fill="#404040">
                        <set attributeName="fill" to="#808080" begin="arrowLeft.mouseover" end="arrowLeft.mouseout"/>
                  </use>
                  <path fill="none" stroke="white" stroke-width="1.5" d="M0,-3.0v7 M-2.5,-0.5L0,-3.0L2.5,-0.5"/>
                </g>
        </g>
        <svg viewBox="0 0 15 15" width="100%" height="30px" preserveAspectRatio="xMaxYMin meet">
         <g id="arrow_out" transform="scale(0.3 0.3)">
          <a xlink:href="vision__adapter_8cpp__incl_org.svg" target="_base">
           <rect id="button" ry="5" rx="5" y="6" x="6" height="38" width="38"
                fill="#f2f5e9" fill-opacity="0.5" stroke="#606060" stroke-width="1.0"/>
           <path id="arrow"
             d="M 11.500037,31.436501 C 11.940474,20.09759 22.043105,11.32322 32.158766,21.979434 L 37.068811,17.246167 C 37.068811,17.246167 37.088388,32 37.088388,32 L 22.160133,31.978069 C 22.160133,31.978069 26.997745,27.140456 26.997745,27.140456 C 18.528582,18.264221 13.291696,25.230495 11.500037,31.436501 z"
             style="fill:#404040;"/>
          </a>
         </g>
        </svg>
</svg>
