<?xml version="1.0" encoding="UTF-8" standalone="no"?>
<!DOCTYPE svg PUBLIC "-//W3C//DTD SVG 1.1//EN"
 "http://www.w3.org/Graphics/SVG/1.1/DTD/svg11.dtd">
<!-- Generated by graphviz version 2.40.1 (0)
 -->
<!-- Title: src/lib/data/team_command.cpp Pages: 1 -->
<svg width="436pt" height="162pt"
 viewBox="0.00 0.00 436.00 162.00" xmlns="http://www.w3.org/2000/svg" xmlns:xlink="http://www.w3.org/1999/xlink">
<g id="graph0" class="graph" transform="scale(1 1) rotate(0) translate(4 158)">
<title>src/lib/data/team_command.cpp</title>
<!-- Node0 -->
<g id="node1" class="node">
<title>Node0</title>
<g id="a_node1"><a xlink:title="Team command data structure.">
<polygon fill="#bfbfbf" stroke="#000000" points="0,-134.5 0,-153.5 234,-153.5 234,-134.5 0,-134.5"/>
<text text-anchor="middle" x="117" y="-141.5" font-family="Fira Code" font-size="10.00" fill="#000000">src/lib/data/team_command.cpp</text>
</a>
</g>
</g>
<!-- Node1 -->
<g id="node2" class="node">
<title>Node1</title>
<g id="a_node2"><a xlink:title=" ">
<polygon fill="none" stroke="#bfbfbf" points="10.5,-73 10.5,-92 79.5,-92 79.5,-73 10.5,-73"/>
<text text-anchor="middle" x="45" y="-80" font-family="Fira Code" font-size="10.00" fill="#000000">iomanip</text>
</a>
</g>
</g>
<!-- Node0&#45;&gt;Node1 -->
<g id="edge1" class="edge">
<title>Node0&#45;&gt;Node1</title>
<path fill="none" stroke="#191970" d="M105.75,-134.3906C94.614,-124.8786 77.354,-110.1357 64.0732,-98.7917"/>
<polygon fill="#191970" stroke="#191970" points="66.2856,-96.0784 56.4086,-92.2449 61.7392,-101.4011 66.2856,-96.0784"/>
</g>
<!-- Node2 -->
<g id="node3" class="node">
<title>Node2</title>
<g id="a_node3"><a xlink:href="../../d7/d05/team__command_8hpp.html" target="_top" xlink:title="Team command data structure.">
<polygon fill="none" stroke="#000000" points="98,-67.5 98,-97.5 280,-97.5 280,-67.5 98,-67.5"/>
<text text-anchor="start" x="106" y="-85.5" font-family="Fira Code" font-size="10.00" fill="#000000">travesim_adapters/data</text>
<text text-anchor="middle" x="189" y="-74.5" font-family="Fira Code" font-size="10.00" fill="#000000">/team_command.hpp</text>
</a>
</g>
</g>
<!-- Node0&#45;&gt;Node2 -->
<g id="edge2" class="edge">
<title>Node0&#45;&gt;Node2</title>
<path fill="none" stroke="#191970" d="M128.25,-134.3906C137.7236,-126.2986 151.6294,-114.4207 163.7468,-104.0705"/>
<polygon fill="#191970" stroke="#191970" points="166.0563,-106.7008 171.3868,-97.5446 161.5098,-101.3782 166.0563,-106.7008"/>
</g>
<!-- Node3 -->
<g id="node4" class="node">
<title>Node3</title>
<g id="a_node4"><a xlink:title=" ">
<polygon fill="none" stroke="#bfbfbf" points="70,-6 70,-25 132,-25 132,-6 70,-6"/>
<text text-anchor="middle" x="101" y="-13" font-family="Fira Code" font-size="10.00" fill="#000000">vector</text>
</a>
</g>
</g>
<!-- Node2&#45;&gt;Node3 -->
<g id="edge3" class="edge">
<title>Node2&#45;&gt;Node3</title>
<path fill="none" stroke="#191970" d="M169.0314,-67.2967C154.9213,-56.5537 136.0549,-42.1895 121.7692,-31.3129"/>
<polygon fill="#191970" stroke="#191970" points="123.6264,-28.328 113.5498,-25.055 119.386,-33.8975 123.6264,-28.328"/>
</g>
<!-- Node4 -->
<g id="node5" class="node">
<title>Node4</title>
<g id="a_node5"><a xlink:title=" ">
<polygon fill="none" stroke="#bfbfbf" points="150.5,-6 150.5,-25 227.5,-25 227.5,-6 150.5,-6"/>
<text text-anchor="middle" x="189" y="-13" font-family="Fira Code" font-size="10.00" fill="#000000">iostream</text>
</a>
</g>
</g>
<!-- Node2&#45;&gt;Node4 -->
<g id="edge4" class="edge">
<title>Node2&#45;&gt;Node4</title>
<path fill="none" stroke="#191970" d="M189,-67.2967C189,-57.7699 189,-45.3954 189,-35.1306"/>
<polygon fill="#191970" stroke="#191970" points="192.5001,-35.0549 189,-25.055 185.5001,-35.055 192.5001,-35.0549"/>
</g>
<!-- Node5 -->
<g id="node6" class="node">
<title>Node5</title>
<g id="a_node6"><a xlink:href="../../d9/d46/data__common_8hpp.html" target="_top" xlink:title="Common constants and types for the data structures.">
<polygon fill="none" stroke="#000000" points="246,-.5 246,-30.5 428,-30.5 428,-.5 246,-.5"/>
<text text-anchor="start" x="254" y="-18.5" font-family="Fira Code" font-size="10.00" fill="#000000">travesim_adapters/data</text>
<text text-anchor="middle" x="337" y="-7.5" font-family="Fira Code" font-size="10.00" fill="#000000">/data_common.hpp</text>
</a>
</g>
</g>
<!-- Node2&#45;&gt;Node5 -->
<g id="edge5" class="edge">
<title>Node2&#45;&gt;Node5</title>
<path fill="none" stroke="#191970" d="M222.2141,-67.4639C243.562,-57.7996 271.4957,-45.154 294.4616,-34.7572"/>
<polygon fill="#191970" stroke="#191970" points="295.9745,-37.9144 303.641,-30.6017 293.0876,-31.5374 295.9745,-37.9144"/>
</g>
</g>
</svg>
