<?xml version="1.0" encoding="UTF-8" standalone="no"?>
<!DOCTYPE svg PUBLIC "-//W3C//DTD SVG 1.1//EN"
 "http://www.w3.org/Graphics/SVG/1.1/DTD/svg11.dtd">
<!-- Generated by graphviz version 2.40.1 (0)
 -->
<!-- Title: travesim::RobotState Pages: 1 -->
<svg width="182pt" height="365pt"
 viewBox="0.00 0.00 182.00 365.00" xmlns="http://www.w3.org/2000/svg" xmlns:xlink="http://www.w3.org/1999/xlink">
<g id="graph0" class="graph" transform="scale(1 1) rotate(0) translate(4 361)">
<title>travesim::RobotState</title>
<!-- Node2 -->
<g id="node1" class="node">
<title>Node2</title>
<g id="a_node1"><a xlink:title="Data structure to hold the state of a robot in the simulation.">
<polygon fill="#bfbfbf" stroke="#000000" points="3.5,-.5 3.5,-90.5 170.5,-90.5 170.5,-.5 3.5,-.5"/>
<text text-anchor="middle" x="87" y="-78.5" font-family="Fira Code" font-size="10.00" fill="#000000">travesim::RobotState</text>
<polyline fill="none" stroke="#000000" points="3.5,-71.5 170.5,-71.5 "/>
<text text-anchor="start" x="11.5" y="-59.5" font-family="Fira Code" font-size="10.00" fill="#000000">+ is_yellow</text>
<text text-anchor="start" x="11.5" y="-48.5" font-family="Fira Code" font-size="10.00" fill="#000000">+ id</text>
<polyline fill="none" stroke="#000000" points="3.5,-41.5 170.5,-41.5 "/>
<text text-anchor="start" x="11.5" y="-29.5" font-family="Fira Code" font-size="10.00" fill="#000000">+ RobotState()</text>
<text text-anchor="start" x="11.5" y="-18.5" font-family="Fira Code" font-size="10.00" fill="#000000">+ RobotState()</text>
<text text-anchor="start" x="11.5" y="-7.5" font-family="Fira Code" font-size="10.00" fill="#000000">+ RobotState()</text>
</a>
</g>
</g>
<!-- Node3 -->
<g id="node2" class="node">
<title>Node3</title>
<g id="a_node2"><a xlink:href="../../d9/d12/classtravesim_1_1EntityState.html" target="_top" xlink:title="Data structure to hold the state of a entity in the simulation.">
<polygon fill="none" stroke="#000000" points="0,-128.5 0,-218.5 174,-218.5 174,-128.5 0,-128.5"/>
<text text-anchor="middle" x="87" y="-206.5" font-family="Fira Code" font-size="10.00" fill="#000000">travesim::EntityState</text>
<polyline fill="none" stroke="#000000" points="0,-199.5 174,-199.5 "/>
<text text-anchor="start" x="8" y="-187.5" font-family="Fira Code" font-size="10.00" fill="#000000">+ angular_position</text>
<text text-anchor="start" x="8" y="-176.5" font-family="Fira Code" font-size="10.00" fill="#000000">+ angular_velocity</text>
<polyline fill="none" stroke="#000000" points="0,-169.5 174,-169.5 "/>
<text text-anchor="start" x="8" y="-157.5" font-family="Fira Code" font-size="10.00" fill="#000000">+ EntityState()</text>
<text text-anchor="start" x="8" y="-146.5" font-family="Fira Code" font-size="10.00" fill="#000000">+ EntityState()</text>
<text text-anchor="start" x="8" y="-135.5" font-family="Fira Code" font-size="10.00" fill="#000000">+ ~EntityState()</text>
</a>
</g>
</g>
<!-- Node3&#45;&gt;Node2 -->
<g id="edge1" class="edge">
<title>Node3&#45;&gt;Node2</title>
<path fill="none" stroke="#191970" d="M87,-118.1492C87,-108.9671 87,-99.5431 87,-90.6519"/>
<polygon fill="none" stroke="#191970" points="83.5001,-118.372 87,-128.372 90.5001,-118.372 83.5001,-118.372"/>
</g>
<!-- Node4 -->
<g id="node3" class="node">
<title>Node4</title>
<g id="a_node3"><a xlink:href="../../d9/d2b/classtravesim_1_1Vector2D.html" target="_top" xlink:title="Data structure to hold a two dimensional vector.">
<polygon fill="none" stroke="#000000" points="11,-277.5 11,-356.5 163,-356.5 163,-277.5 11,-277.5"/>
<text text-anchor="middle" x="87" y="-344.5" font-family="Fira Code" font-size="10.00" fill="#000000">travesim::Vector2D</text>
<polyline fill="none" stroke="#000000" points="11,-337.5 163,-337.5 "/>
<text text-anchor="start" x="19" y="-325.5" font-family="Fira Code" font-size="10.00" fill="#000000">+ x</text>
<text text-anchor="start" x="19" y="-314.5" font-family="Fira Code" font-size="10.00" fill="#000000">+ y</text>
<polyline fill="none" stroke="#000000" points="11,-307.5 163,-307.5 "/>
<text text-anchor="start" x="19" y="-295.5" font-family="Fira Code" font-size="10.00" fill="#000000">+ Vector2D()</text>
<text text-anchor="start" x="19" y="-284.5" font-family="Fira Code" font-size="10.00" fill="#000000">+ rotate()</text>
</a>
</g>
</g>
<!-- Node4&#45;&gt;Node3 -->
<g id="edge2" class="edge">
<title>Node4&#45;&gt;Node3</title>
<path fill="none" stroke="#404040" d="M87,-277.4081C87,-263.0069 87,-246.4264 87,-230.7999"/>
<polygon fill="none" stroke="#404040" points="87.0001,-230.5321 83,-224.5321 87,-218.5321 91,-224.5321 87.0001,-230.5321"/>
<text text-anchor="middle" x="125" y="-251" font-family="Fira Code" font-size="10.00" fill="#000000"> +velocity</text>
<text text-anchor="middle" x="125" y="-240" font-family="Fira Code" font-size="10.00" fill="#000000">+position</text>
</g>
</g>
</svg>
