<?xml version="1.0" encoding="UTF-8" standalone="no"?>
<!DOCTYPE svg PUBLIC "-//W3C//DTD SVG 1.1//EN"
 "http://www.w3.org/Graphics/SVG/1.1/DTD/svg11.dtd">
<!-- Generated by graphviz version 2.40.1 (0)
 -->
<!-- Title: examples/protobuf/team_receiver_example.cpp Pages: 1 -->
<!--zoomable 296 -->
<svg id="main" version="1.1" xmlns="http://www.w3.org/2000/svg" xmlns:xlink="http://www.w3.org/1999/xlink" xml:space="preserve" onload="init(evt)">
<style type="text/css"><![CDATA[
.edge:hover path { stroke: red; }
.edge:hover polygon { stroke: red; fill: red; }
]]></style>
<script type="text/javascript"><![CDATA[
var edges = document.getElementsByTagName('g');
if (edges && edges.length) {
  for (var i=0;i<edges.length;i++) {
    if (edges[i].id.substr(0,4)=='edge') {
      edges[i].setAttribute('class','edge');
    }
  }
}
]]></script>
        <defs>
                <circle id="rim" cx="0" cy="0" r="7"/>
                <circle id="rim2" cx="0" cy="0" r="3.5"/>
                <g id="zoomPlus">
                        <use xlink:href="#rim" fill="#404040">
                                <set attributeName="fill" to="#808080" begin="zoomplus.mouseover" end="zoomplus.mouseout"/>
                        </use>
                        <path d="M-4,0h8M0,-4v8" fill="none" stroke="white" stroke-width="1.5" pointer-events="none"/>
                </g>
                <g id="zoomMin">
                        <use xlink:href="#rim" fill="#404040">
                                <set attributeName="fill" to="#808080" begin="zoomminus.mouseover" end="zoomminus.mouseout"/>
                        </use>
                        <path d="M-4,0h8" fill="none" stroke="white" stroke-width="1.5" pointer-events="none"/>
                </g>
                <g id="dirArrow">
                        <path fill="none" stroke="white" stroke-width="1.5" d="M0,-3.0v7 M-2.5,-0.5L0,-3.0L2.5,-0.5"/>
                </g>
               <g id="resetDef">
                       <use xlink:href="#rim2" fill="#404040">
                               <set attributeName="fill" to="#808080" begin="reset.mouseover" end="reset.mouseout"/>
                       </use>
               </g>
        </defs>

<script type="text/javascript">
var viewWidth = 699;
var viewHeight = 296;
var sectionId = 'dynsection-0';
</script>
<script xlink:href="../../svgpan.js"/>
<svg id="graph" class="graph">
<g id="viewport">
<title>examples/protobuf/team_receiver_example.cpp</title>
<!-- Node0 -->
<g id="node1" class="node">
<title>Node0</title>
<g id="a_node1"><a xlink:title="Example to read data published from a team.">
<polygon fill="#bfbfbf" stroke="#000000" points="0,-257.5 0,-287.5 182,-287.5 182,-257.5 0,-257.5"/>
<text text-anchor="start" x="8" y="-275.5" font-family="Fira Code" font-size="10.00" fill="#000000">examples/protobuf/team</text>
<text text-anchor="middle" x="91" y="-264.5" font-family="Fira Code" font-size="10.00" fill="#000000">_receiver_example.cpp</text>
</a>
</g>
</g>
<!-- Node1 -->
<g id="node2" class="node">
<title>Node1</title>
<g id="a_node2"><a xlink:title=" ">
<polygon fill="none" stroke="#bfbfbf" points="82.5,-62 82.5,-81 159.5,-81 159.5,-62 82.5,-62"/>
<text text-anchor="middle" x="121" y="-69" font-family="Fira Code" font-size="10.00" fill="#000000">iostream</text>
</a>
</g>
</g>
<!-- Node0&#45;&gt;Node1 -->
<g id="edge1" class="edge">
<title>Node0&#45;&gt;Node1</title>
<path fill="none" stroke="#191970" d="M92.5198,-257.1569C95.3051,-230.0037 101.711,-171.7496 110,-123 111.7845,-112.5052 114.2213,-100.9031 116.3478,-91.3722"/>
<polygon fill="#191970" stroke="#191970" points="119.8279,-91.854 118.6441,-81.3255 113.0039,-90.2943 119.8279,-91.854"/>
</g>
<!-- Node2 -->
<g id="node3" class="node">
<title>Node2</title>
<g id="a_node3"><a xlink:title=" ">
<polygon fill="none" stroke="#bfbfbf" points="213,-.5 213,-19.5 335,-19.5 335,-.5 213,-.5"/>
<text text-anchor="middle" x="274" y="-7.5" font-family="Fira Code" font-size="10.00" fill="#000000">boost/asio.hpp</text>
</a>
</g>
</g>
<!-- Node0&#45;&gt;Node2 -->
<g id="edge2" class="edge">
<title>Node0&#45;&gt;Node2</title>
<path fill="none" stroke="#191970" d="M83.4038,-257.3453C65.3418,-218.922 24.8101,-116.4643 73,-56 89.2107,-35.6602 151.7804,-23.5901 202.8568,-16.9549"/>
<polygon fill="#191970" stroke="#191970" points="203.413,-20.4127 212.9017,-15.6994 202.5448,-13.4667 203.413,-20.4127"/>
</g>
<!-- Node3 -->
<g id="node4" class="node">
<title>Node3</title>
<g id="a_node4"><a xlink:href="../../de/db1/team__receiver_8hpp.html" target="_top" xlink:title="Team control data receiver with UDP and protobuf.">
<polygon fill="none" stroke="#000000" points="263,-190.5 263,-220.5 475,-220.5 475,-190.5 263,-190.5"/>
<text text-anchor="start" x="271" y="-208.5" font-family="Fira Code" font-size="10.00" fill="#000000">travesim_adapters/protobuf</text>
<text text-anchor="middle" x="369" y="-197.5" font-family="Fira Code" font-size="10.00" fill="#000000">/team_receiver.hpp</text>
</a>
</g>
</g>
<!-- Node0&#45;&gt;Node3 -->
<g id="edge3" class="edge">
<title>Node0&#45;&gt;Node3</title>
<path fill="none" stroke="#191970" d="M153.3886,-257.4639C195.805,-247.2412 252.0627,-233.6827 296.4765,-222.9787"/>
<polygon fill="#191970" stroke="#191970" points="297.4377,-226.3473 306.3393,-220.6017 295.7975,-219.5422 297.4377,-226.3473"/>
</g>
<!-- Node4 -->
<g id="node5" class="node">
<title>Node4</title>
<g id="a_node5"><a xlink:title=" ">
<polygon fill="none" stroke="#bfbfbf" points="437,-129 437,-148 499,-148 499,-129 437,-129"/>
<text text-anchor="middle" x="468" y="-136" font-family="Fira Code" font-size="10.00" fill="#000000">memory</text>
</a>
</g>
</g>
<!-- Node3&#45;&gt;Node4 -->
<g id="edge4" class="edge">
<title>Node3&#45;&gt;Node4</title>
<path fill="none" stroke="#191970" d="M391.4646,-190.2967C407.6381,-179.351 429.3661,-164.6462 445.5388,-153.701"/>
<polygon fill="#191970" stroke="#191970" points="447.5614,-156.5584 453.8815,-148.055 443.6381,-150.7612 447.5614,-156.5584"/>
</g>
<!-- Node5 -->
<g id="node6" class="node">
<title>Node5</title>
<g id="a_node6"><a xlink:href="../../de/d4a/unicast__receiver_8hpp.html" target="_top" xlink:title="Receiver data using UDP in unicast mode.">
<polygon fill="none" stroke="#000000" points="517,-123.5 517,-153.5 691,-153.5 691,-123.5 517,-123.5"/>
<text text-anchor="start" x="525" y="-141.5" font-family="Fira Code" font-size="10.00" fill="#000000">travesim_adapters/udp</text>
<text text-anchor="middle" x="604" y="-130.5" font-family="Fira Code" font-size="10.00" fill="#000000">/unicast_receiver.hpp</text>
</a>
</g>
</g>
<!-- Node3&#45;&gt;Node5 -->
<g id="edge5" class="edge">
<title>Node3&#45;&gt;Node5</title>
<path fill="none" stroke="#191970" d="M421.7386,-190.4639C457.1422,-180.3701 503.9531,-167.024 541.2697,-156.3848"/>
<polygon fill="#191970" stroke="#191970" points="542.3743,-159.7094 551.0314,-153.6017 540.4549,-152.9777 542.3743,-159.7094"/>
</g>
<!-- Node8 -->
<g id="node9" class="node">
<title>Node8</title>
<g id="a_node9"><a xlink:href="../../d7/d05/team__command_8hpp.html" target="_top" xlink:title="Team command data structure.">
<polygon fill="none" stroke="#000000" points="119,-123.5 119,-153.5 301,-153.5 301,-123.5 119,-123.5"/>
<text text-anchor="start" x="127" y="-141.5" font-family="Fira Code" font-size="10.00" fill="#000000">travesim_adapters/data</text>
<text text-anchor="middle" x="210" y="-130.5" font-family="Fira Code" font-size="10.00" fill="#000000">/team_command.hpp</text>
</a>
</g>
</g>
<!-- Node3&#45;&gt;Node8 -->
<g id="edge9" class="edge">
<title>Node3&#45;&gt;Node8</title>
<path fill="none" stroke="#191970" d="M333.3173,-190.4639C310.2808,-180.7567 280.1059,-168.0415 255.3714,-157.6188"/>
<polygon fill="#191970" stroke="#191970" points="256.4127,-154.2596 245.8383,-153.6017 253.6945,-160.7103 256.4127,-154.2596"/>
</g>
<!-- Node11 -->
<g id="node12" class="node">
<title>Node11</title>
<g id="a_node12"><a xlink:title=" ">
<polygon fill="none" stroke="#bfbfbf" points="319.5,-129 319.5,-148 418.5,-148 418.5,-129 319.5,-129"/>
<text text-anchor="middle" x="369" y="-136" font-family="Fira Code" font-size="10.00" fill="#000000">packet.pb.h</text>
</a>
</g>
</g>
<!-- Node3&#45;&gt;Node11 -->
<g id="edge13" class="edge">
<title>Node3&#45;&gt;Node11</title>
<path fill="none" stroke="#191970" d="M369,-190.2967C369,-180.7699 369,-168.3954 369,-158.1306"/>
<polygon fill="#191970" stroke="#191970" points="372.5001,-158.0549 369,-148.055 365.5001,-158.055 372.5001,-158.0549"/>
</g>
<!-- Node6 -->
<g id="node7" class="node">
<title>Node6</title>
<g id="a_node7"><a xlink:href="../../df/d3c/receiver_8hpp.html" target="_top" xlink:title="Receiver data using UDP.">
<polygon fill="none" stroke="#000000" points="487,-56.5 487,-86.5 661,-86.5 661,-56.5 487,-56.5"/>
<text text-anchor="start" x="495" y="-74.5" font-family="Fira Code" font-size="10.00" fill="#000000">travesim_adapters/udp</text>
<text text-anchor="middle" x="574" y="-63.5" font-family="Fira Code" font-size="10.00" fill="#000000">/receiver.hpp</text>
</a>
</g>
</g>
<!-- Node5&#45;&gt;Node6 -->
<g id="edge6" class="edge">
<title>Node5&#45;&gt;Node6</title>
<path fill="none" stroke="#191970" d="M597.1925,-123.2967C593.587,-115.2443 589.0705,-105.1574 584.9834,-96.0296"/>
<polygon fill="#191970" stroke="#191970" points="588.0616,-94.3397 580.7805,-86.6432 581.6728,-97.2004 588.0616,-94.3397"/>
</g>
<!-- Node6&#45;&gt;Node2 -->
<g id="edge7" class="edge">
<title>Node6&#45;&gt;Node2</title>
<path fill="none" stroke="#191970" d="M500.6117,-56.4554C448.141,-45.6989 378.5737,-31.4376 330.4248,-21.5671"/>
<polygon fill="#191970" stroke="#191970" points="330.9885,-18.1099 320.4894,-19.5303 329.5827,-24.9673 330.9885,-18.1099"/>
</g>
<!-- Node7 -->
<g id="node8" class="node">
<title>Node7</title>
<g id="a_node8"><a xlink:title=" ">
<polygon fill="none" stroke="#bfbfbf" points="543,-.5 543,-19.5 605,-19.5 605,-.5 543,-.5"/>
<text text-anchor="middle" x="574" y="-7.5" font-family="Fira Code" font-size="10.00" fill="#000000">string</text>
</a>
</g>
</g>
<!-- Node6&#45;&gt;Node7 -->
<g id="edge8" class="edge">
<title>Node6&#45;&gt;Node7</title>
<path fill="none" stroke="#191970" d="M574,-56.2977C574,-48.3834 574,-38.6043 574,-30.0759"/>
<polygon fill="#191970" stroke="#191970" points="577.5001,-29.8469 574,-19.8469 570.5001,-29.847 577.5001,-29.8469"/>
</g>
<!-- Node8&#45;&gt;Node1 -->
<g id="edge11" class="edge">
<title>Node8&#45;&gt;Node1</title>
<path fill="none" stroke="#191970" d="M189.8045,-123.2967C175.534,-112.5537 156.4532,-98.1895 142.0052,-87.3129"/>
<polygon fill="#191970" stroke="#191970" points="143.7867,-84.2731 133.6924,-81.055 139.5766,-89.8656 143.7867,-84.2731"/>
</g>
<!-- Node9 -->
<g id="node10" class="node">
<title>Node9</title>
<g id="a_node10"><a xlink:title=" ">
<polygon fill="none" stroke="#bfbfbf" points="178,-62 178,-81 240,-81 240,-62 178,-62"/>
<text text-anchor="middle" x="209" y="-69" font-family="Fira Code" font-size="10.00" fill="#000000">vector</text>
</a>
</g>
</g>
<!-- Node8&#45;&gt;Node9 -->
<g id="edge10" class="edge">
<title>Node8&#45;&gt;Node9</title>
<path fill="none" stroke="#191970" d="M209.7731,-123.2967C209.6309,-113.7699 209.4462,-101.3954 209.293,-91.1306"/>
<polygon fill="#191970" stroke="#191970" points="212.7916,-91.0016 209.1426,-81.055 205.7923,-91.1061 212.7916,-91.0016"/>
</g>
<!-- Node10 -->
<g id="node11" class="node">
<title>Node10</title>
<g id="a_node11"><a xlink:href="../../d9/d46/data__common_8hpp.html" target="_top" xlink:title="Common constants and types for the data structures.">
<polygon fill="none" stroke="#000000" points="258,-56.5 258,-86.5 440,-86.5 440,-56.5 258,-56.5"/>
<text text-anchor="start" x="266" y="-74.5" font-family="Fira Code" font-size="10.00" fill="#000000">travesim_adapters/data</text>
<text text-anchor="middle" x="349" y="-63.5" font-family="Fira Code" font-size="10.00" fill="#000000">/data_common.hpp</text>
</a>
</g>
</g>
<!-- Node8&#45;&gt;Node10 -->
<g id="edge12" class="edge">
<title>Node8&#45;&gt;Node10</title>
<path fill="none" stroke="#191970" d="M241.1943,-123.4639C260.9961,-113.9191 286.8312,-101.4663 308.2461,-91.144"/>
<polygon fill="#191970" stroke="#191970" points="309.9405,-94.2127 317.4289,-86.7177 306.901,-87.907 309.9405,-94.2127"/>
</g>
</g>
</svg>
        <g id="navigator" transform="translate(0 0)" fill="#404254">
                <rect fill="#f2f5e9" fill-opacity="0.5" stroke="#606060" stroke-width=".5" x="0" y="0" width="60" height="60"/>
                <use id="zoomplus" xlink:href="#zoomPlus" x="17" y="9" onmousedown="handleZoom(evt,'in')"/>
                <use id="zoomminus" xlink:href="#zoomMin" x="42" y="9" onmousedown="handleZoom(evt,'out')"/>
                <use id="reset" xlink:href="#resetDef" x="30" y="36" onmousedown="handleReset()"/>
                <g id="arrowUp" xlink:href="#dirArrow" transform="translate(30 24)" onmousedown="handlePan(0,-1)">
                  <use xlink:href="#rim" fill="#404040">
                        <set attributeName="fill" to="#808080" begin="arrowUp.mouseover" end="arrowUp.mouseout"/>
                  </use>
                  <path fill="none" stroke="white" stroke-width="1.5" d="M0,-3.0v7 M-2.5,-0.5L0,-3.0L2.5,-0.5"/>
                </g>
                <g id="arrowRight" xlink:href="#dirArrow" transform="rotate(90) translate(36 -43)" onmousedown="handlePan(1,0)">
                  <use xlink:href="#rim" fill="#404040">
                        <set attributeName="fill" to="#808080" begin="arrowRight.mouseover" end="arrowRight.mouseout"/>
                  </use>
                  <path fill="none" stroke="white" stroke-width="1.5" d="M0,-3.0v7 M-2.5,-0.5L0,-3.0L2.5,-0.5"/>
                </g>
                <g id="arrowDown" xlink:href="#dirArrow" transform="rotate(180) translate(-30 -48)" onmousedown="handlePan(0,1)">
                  <use xlink:href="#rim" fill="#404040">
                        <set attributeName="fill" to="#808080" begin="arrowDown.mouseover" end="arrowDown.mouseout"/>
                  </use>
                  <path fill="none" stroke="white" stroke-width="1.5" d="M0,-3.0v7 M-2.5,-0.5L0,-3.0L2.5,-0.5"/>
                </g>
                <g id="arrowLeft" xlink:href="#dirArrow" transform="rotate(270) translate(-36 17)" onmousedown="handlePan(-1,0)">
                  <use xlink:href="#rim" fill="#404040">
                        <set attributeName="fill" to="#808080" begin="arrowLeft.mouseover" end="arrowLeft.mouseout"/>
                  </use>
                  <path fill="none" stroke="white" stroke-width="1.5" d="M0,-3.0v7 M-2.5,-0.5L0,-3.0L2.5,-0.5"/>
                </g>
        </g>
        <svg viewBox="0 0 15 15" width="100%" height="30px" preserveAspectRatio="xMaxYMin meet">
         <g id="arrow_out" transform="scale(0.3 0.3)">
          <a xlink:href="team__receiver__example_8cpp__incl_org.svg" target="_base">
           <rect id="button" ry="5" rx="5" y="6" x="6" height="38" width="38"
                fill="#f2f5e9" fill-opacity="0.5" stroke="#606060" stroke-width="1.0"/>
           <path id="arrow"
             d="M 11.500037,31.436501 C 11.940474,20.09759 22.043105,11.32322 32.158766,21.979434 L 37.068811,17.246167 C 37.068811,17.246167 37.088388,32 37.088388,32 L 22.160133,31.978069 C 22.160133,31.978069 26.997745,27.140456 26.997745,27.140456 C 18.528582,18.264221 13.291696,25.230495 11.500037,31.436501 z"
             style="fill:#404040;"/>
          </a>
         </g>
        </svg>
</svg>
