<?xml version="1.0" encoding="UTF-8" standalone="no"?>
<!DOCTYPE svg PUBLIC "-//W3C//DTD SVG 1.1//EN"
 "http://www.w3.org/Graphics/SVG/1.1/DTD/svg11.dtd">
<!-- Generated by graphviz version 2.40.1 (0)
 -->
<!-- Title: include/travesim_adapters/configurers/vision_configurer.hpp Pages: 1 -->
<svg width="785pt" height="173pt"
 viewBox="0.00 0.00 784.50 173.00" xmlns="http://www.w3.org/2000/svg" xmlns:xlink="http://www.w3.org/1999/xlink">
<g id="graph0" class="graph" transform="scale(1 1) rotate(0) translate(4 169)">
<title>include/travesim_adapters/configurers/vision_configurer.hpp</title>
<!-- Node0 -->
<g id="node1" class="node">
<title>Node0</title>
<g id="a_node1"><a xlink:title="Configurer for the vision.">
<polygon fill="#bfbfbf" stroke="#000000" points="57.5,-134.5 57.5,-164.5 329.5,-164.5 329.5,-134.5 57.5,-134.5"/>
<text text-anchor="start" x="65.5" y="-152.5" font-family="Fira Code" font-size="10.00" fill="#000000">include/travesim_adapters</text>
<text text-anchor="middle" x="193.5" y="-141.5" font-family="Fira Code" font-size="10.00" fill="#000000">/configurers/vision_configurer.hpp</text>
</a>
</g>
</g>
<!-- Node1 -->
<g id="node2" class="node">
<title>Node1</title>
<g id="a_node2"><a xlink:title=" ">
<polygon fill="none" stroke="#bfbfbf" points="0,-73 0,-92 77,-92 77,-73 0,-73"/>
<text text-anchor="middle" x="38.5" y="-80" font-family="Fira Code" font-size="10.00" fill="#000000">iostream</text>
</a>
</g>
</g>
<!-- Node0&#45;&gt;Node1 -->
<g id="edge1" class="edge">
<title>Node0&#45;&gt;Node1</title>
<path fill="none" stroke="#191970" d="M158.715,-134.4639C132.1222,-122.969 95.7716,-107.2561 70.0243,-96.1266"/>
<polygon fill="#191970" stroke="#191970" points="71.2859,-92.859 60.718,-92.1039 68.5084,-99.2844 71.2859,-92.859"/>
</g>
<!-- Node2 -->
<g id="node3" class="node">
<title>Node2</title>
<g id="a_node3"><a xlink:title=" ">
<polygon fill="none" stroke="#bfbfbf" points="95,-67.5 95,-97.5 292,-97.5 292,-67.5 95,-67.5"/>
<text text-anchor="start" x="103" y="-85.5" font-family="Fira Code" font-size="10.00" fill="#000000">travesim_adapters/Vision</text>
<text text-anchor="middle" x="193.5" y="-74.5" font-family="Fira Code" font-size="10.00" fill="#000000">Config.h</text>
</a>
</g>
</g>
<!-- Node0&#45;&gt;Node2 -->
<g id="edge2" class="edge">
<title>Node0&#45;&gt;Node2</title>
<path fill="none" stroke="#191970" d="M193.5,-134.2967C193.5,-126.5013 193.5,-116.7991 193.5,-107.9064"/>
<polygon fill="#191970" stroke="#191970" points="197.0001,-107.6431 193.5,-97.6432 190.0001,-107.6432 197.0001,-107.6431"/>
</g>
<!-- Node3 -->
<g id="node4" class="node">
<title>Node3</title>
<g id="a_node4"><a xlink:href="../../d1/d79/adapter__configurer_8hpp.html" target="_top" xlink:title="Template configurer for an adapter.">
<polygon fill="none" stroke="#000000" points="310.5,-67.5 310.5,-97.5 544.5,-97.5 544.5,-67.5 310.5,-67.5"/>
<text text-anchor="start" x="318.5" y="-85.5" font-family="Fira Code" font-size="10.00" fill="#000000">travesim_adapters/configurers</text>
<text text-anchor="middle" x="427.5" y="-74.5" font-family="Fira Code" font-size="10.00" fill="#000000">/adapter_configurer.hpp</text>
</a>
</g>
</g>
<!-- Node0&#45;&gt;Node3 -->
<g id="edge3" class="edge">
<title>Node0&#45;&gt;Node3</title>
<path fill="none" stroke="#191970" d="M246.0142,-134.4639C281.2671,-124.3701 327.8788,-111.024 365.0367,-100.3848"/>
<polygon fill="#191970" stroke="#191970" points="366.1065,-103.7192 374.7568,-97.6017 364.1797,-96.9896 366.1065,-103.7192"/>
</g>
<!-- Node4 -->
<g id="node5" class="node">
<title>Node4</title>
<g id="a_node5"><a xlink:title=" ">
<polygon fill="none" stroke="#bfbfbf" points="235.5,-6 235.5,-25 297.5,-25 297.5,-6 235.5,-6"/>
<text text-anchor="middle" x="266.5" y="-13" font-family="Fira Code" font-size="10.00" fill="#000000">memory</text>
</a>
</g>
</g>
<!-- Node3&#45;&gt;Node4 -->
<g id="edge4" class="edge">
<title>Node3&#45;&gt;Node4</title>
<path fill="none" stroke="#191970" d="M391.3685,-67.4639C363.6246,-55.9183 325.6557,-40.1176 298.8918,-28.9798"/>
<polygon fill="#191970" stroke="#191970" points="300.1553,-25.7147 289.5781,-25.1039 297.4658,-32.1774 300.1553,-25.7147"/>
</g>
<!-- Node5 -->
<g id="node6" class="node">
<title>Node5</title>
<g id="a_node6"><a xlink:title=" ">
<polygon fill="none" stroke="#bfbfbf" points="315.5,-6 315.5,-25 399.5,-25 399.5,-6 315.5,-6"/>
<text text-anchor="middle" x="357.5" y="-13" font-family="Fira Code" font-size="10.00" fill="#000000">ros/ros.h</text>
</a>
</g>
</g>
<!-- Node3&#45;&gt;Node5 -->
<g id="edge5" class="edge">
<title>Node3&#45;&gt;Node5</title>
<path fill="none" stroke="#191970" d="M411.6159,-67.2967C400.7096,-56.8578 386.231,-42.9997 374.9944,-32.2446"/>
<polygon fill="#191970" stroke="#191970" points="377.1271,-29.4411 367.4828,-25.055 372.2869,-34.498 377.1271,-29.4411"/>
</g>
<!-- Node6 -->
<g id="node7" class="node">
<title>Node6</title>
<g id="a_node7"><a xlink:title=" ">
<polygon fill="none" stroke="#bfbfbf" points="417,-.5 417,-30.5 576,-30.5 576,-.5 417,-.5"/>
<text text-anchor="start" x="425" y="-18.5" font-family="Fira Code" font-size="10.00" fill="#000000">dynamic_reconfigure</text>
<text text-anchor="middle" x="496.5" y="-7.5" font-family="Fira Code" font-size="10.00" fill="#000000">/server.h</text>
</a>
</g>
</g>
<!-- Node3&#45;&gt;Node6 -->
<g id="edge6" class="edge">
<title>Node3&#45;&gt;Node6</title>
<path fill="none" stroke="#191970" d="M443.1572,-67.2967C452.1557,-58.559 463.6213,-47.4257 473.6148,-37.7218"/>
<polygon fill="#191970" stroke="#191970" points="476.1687,-40.1205 480.9048,-30.6432 471.2923,-35.0985 476.1687,-40.1205"/>
</g>
<!-- Node7 -->
<g id="node8" class="node">
<title>Node7</title>
<g id="a_node8"><a xlink:title=" ">
<polygon fill="none" stroke="#bfbfbf" points="594.5,-.5 594.5,-30.5 776.5,-30.5 776.5,-.5 594.5,-.5"/>
<text text-anchor="start" x="602.5" y="-18.5" font-family="Fira Code" font-size="10.00" fill="#000000">boost/thread/recursive</text>
<text text-anchor="middle" x="685.5" y="-7.5" font-family="Fira Code" font-size="10.00" fill="#000000">_mutex.hpp</text>
</a>
</g>
</g>
<!-- Node3&#45;&gt;Node7 -->
<g id="edge7" class="edge">
<title>Node3&#45;&gt;Node7</title>
<path fill="none" stroke="#191970" d="M485.4002,-67.4639C524.5169,-57.3057 576.3179,-43.8535 617.4134,-33.1814"/>
<polygon fill="#191970" stroke="#191970" points="618.548,-36.5029 627.3472,-30.6017 616.7885,-29.7277 618.548,-36.5029"/>
</g>
</g>
</svg>
