<?xml version="1.0" encoding="UTF-8" standalone="no"?>
<!DOCTYPE svg PUBLIC "-//W3C//DTD SVG 1.1//EN"
 "http://www.w3.org/Graphics/SVG/1.1/DTD/svg11.dtd">
<!-- Generated by graphviz version 2.40.1 (0)
 -->
<!-- Title: include/travesim_adapters/configurers/vision_configurer.hpp Pages: 1 -->
<!--zoomable 173 -->
<svg id="main" version="1.1" xmlns="http://www.w3.org/2000/svg" xmlns:xlink="http://www.w3.org/1999/xlink" xml:space="preserve" onload="init(evt)">
<style type="text/css"><![CDATA[
.edge:hover path { stroke: red; }
.edge:hover polygon { stroke: red; fill: red; }
]]></style>
<script type="text/javascript"><![CDATA[
var edges = document.getElementsByTagName('g');
if (edges && edges.length) {
  for (var i=0;i<edges.length;i++) {
    if (edges[i].id.substr(0,4)=='edge') {
      edges[i].setAttribute('class','edge');
    }
  }
}
]]></script>
        <defs>
                <circle id="rim" cx="0" cy="0" r="7"/>
                <circle id="rim2" cx="0" cy="0" r="3.5"/>
                <g id="zoomPlus">
                        <use xlink:href="#rim" fill="#404040">
                                <set attributeName="fill" to="#808080" begin="zoomplus.mouseover" end="zoomplus.mouseout"/>
                        </use>
                        <path d="M-4,0h8M0,-4v8" fill="none" stroke="white" stroke-width="1.5" pointer-events="none"/>
                </g>
                <g id="zoomMin">
                        <use xlink:href="#rim" fill="#404040">
                                <set attributeName="fill" to="#808080" begin="zoomminus.mouseover" end="zoomminus.mouseout"/>
                        </use>
                        <path d="M-4,0h8" fill="none" stroke="white" stroke-width="1.5" pointer-events="none"/>
                </g>
                <g id="dirArrow">
                        <path fill="none" stroke="white" stroke-width="1.5" d="M0,-3.0v7 M-2.5,-0.5L0,-3.0L2.5,-0.5"/>
                </g>
               <g id="resetDef">
                       <use xlink:href="#rim2" fill="#404040">
                               <set attributeName="fill" to="#808080" begin="reset.mouseover" end="reset.mouseout"/>
                       </use>
               </g>
        </defs>

<script type="text/javascript">
var viewWidth = 785;
var viewHeight = 173;
var sectionId = 'dynsection-0';
</script>
<script xlink:href="../../svgpan.js"/>
<svg id="graph" class="graph">
<g id="viewport">
<title>include/travesim_adapters/configurers/vision_configurer.hpp</title>
<!-- Node0 -->
<g id="node1" class="node">
<title>Node0</title>
<g id="a_node1"><a xlink:title="Configurer for the vision.">
<polygon fill="#bfbfbf" stroke="#000000" points="57.5,-134.5 57.5,-164.5 329.5,-164.5 329.5,-134.5 57.5,-134.5"/>
<text text-anchor="start" x="65.5" y="-152.5" font-family="Fira Code" font-size="10.00" fill="#000000">include/travesim_adapters</text>
<text text-anchor="middle" x="193.5" y="-141.5" font-family="Fira Code" font-size="10.00" fill="#000000">/configurers/vision_configurer.hpp</text>
</a>
</g>
</g>
<!-- Node1 -->
<g id="node2" class="node">
<title>Node1</title>
<g id="a_node2"><a xlink:title=" ">
<polygon fill="none" stroke="#bfbfbf" points="0,-73 0,-92 77,-92 77,-73 0,-73"/>
<text text-anchor="middle" x="38.5" y="-80" font-family="Fira Code" font-size="10.00" fill="#000000">iostream</text>
</a>
</g>
</g>
<!-- Node0&#45;&gt;Node1 -->
<g id="edge1" class="edge">
<title>Node0&#45;&gt;Node1</title>
<path fill="none" stroke="#191970" d="M158.715,-134.4639C132.1222,-122.969 95.7716,-107.2561 70.0243,-96.1266"/>
<polygon fill="#191970" stroke="#191970" points="71.2859,-92.859 60.718,-92.1039 68.5084,-99.2844 71.2859,-92.859"/>
</g>
<!-- Node2 -->
<g id="node3" class="node">
<title>Node2</title>
<g id="a_node3"><a xlink:title=" ">
<polygon fill="none" stroke="#bfbfbf" points="95,-67.5 95,-97.5 292,-97.5 292,-67.5 95,-67.5"/>
<text text-anchor="start" x="103" y="-85.5" font-family="Fira Code" font-size="10.00" fill="#000000">travesim_adapters/Vision</text>
<text text-anchor="middle" x="193.5" y="-74.5" font-family="Fira Code" font-size="10.00" fill="#000000">Config.h</text>
</a>
</g>
</g>
<!-- Node0&#45;&gt;Node2 -->
<g id="edge2" class="edge">
<title>Node0&#45;&gt;Node2</title>
<path fill="none" stroke="#191970" d="M193.5,-134.2967C193.5,-126.5013 193.5,-116.7991 193.5,-107.9064"/>
<polygon fill="#191970" stroke="#191970" points="197.0001,-107.6431 193.5,-97.6432 190.0001,-107.6432 197.0001,-107.6431"/>
</g>
<!-- Node3 -->
<g id="node4" class="node">
<title>Node3</title>
<g id="a_node4"><a xlink:href="../../d1/d79/adapter__configurer_8hpp.html" target="_top" xlink:title="Template configurer for an adapter.">
<polygon fill="none" stroke="#000000" points="310.5,-67.5 310.5,-97.5 544.5,-97.5 544.5,-67.5 310.5,-67.5"/>
<text text-anchor="start" x="318.5" y="-85.5" font-family="Fira Code" font-size="10.00" fill="#000000">travesim_adapters/configurers</text>
<text text-anchor="middle" x="427.5" y="-74.5" font-family="Fira Code" font-size="10.00" fill="#000000">/adapter_configurer.hpp</text>
</a>
</g>
</g>
<!-- Node0&#45;&gt;Node3 -->
<g id="edge3" class="edge">
<title>Node0&#45;&gt;Node3</title>
<path fill="none" stroke="#191970" d="M246.0142,-134.4639C281.2671,-124.3701 327.8788,-111.024 365.0367,-100.3848"/>
<polygon fill="#191970" stroke="#191970" points="366.1065,-103.7192 374.7568,-97.6017 364.1797,-96.9896 366.1065,-103.7192"/>
</g>
<!-- Node4 -->
<g id="node5" class="node">
<title>Node4</title>
<g id="a_node5"><a xlink:title=" ">
<polygon fill="none" stroke="#bfbfbf" points="235.5,-6 235.5,-25 297.5,-25 297.5,-6 235.5,-6"/>
<text text-anchor="middle" x="266.5" y="-13" font-family="Fira Code" font-size="10.00" fill="#000000">memory</text>
</a>
</g>
</g>
<!-- Node3&#45;&gt;Node4 -->
<g id="edge4" class="edge">
<title>Node3&#45;&gt;Node4</title>
<path fill="none" stroke="#191970" d="M391.3685,-67.4639C363.6246,-55.9183 325.6557,-40.1176 298.8918,-28.9798"/>
<polygon fill="#191970" stroke="#191970" points="300.1553,-25.7147 289.5781,-25.1039 297.4658,-32.1774 300.1553,-25.7147"/>
</g>
<!-- Node5 -->
<g id="node6" class="node">
<title>Node5</title>
<g id="a_node6"><a xlink:title=" ">
<polygon fill="none" stroke="#bfbfbf" points="315.5,-6 315.5,-25 399.5,-25 399.5,-6 315.5,-6"/>
<text text-anchor="middle" x="357.5" y="-13" font-family="Fira Code" font-size="10.00" fill="#000000">ros/ros.h</text>
</a>
</g>
</g>
<!-- Node3&#45;&gt;Node5 -->
<g id="edge5" class="edge">
<title>Node3&#45;&gt;Node5</title>
<path fill="none" stroke="#191970" d="M411.6159,-67.2967C400.7096,-56.8578 386.231,-42.9997 374.9944,-32.2446"/>
<polygon fill="#191970" stroke="#191970" points="377.1271,-29.4411 367.4828,-25.055 372.2869,-34.498 377.1271,-29.4411"/>
</g>
<!-- Node6 -->
<g id="node7" class="node">
<title>Node6</title>
<g id="a_node7"><a xlink:title=" ">
<polygon fill="none" stroke="#bfbfbf" points="417,-.5 417,-30.5 576,-30.5 576,-.5 417,-.5"/>
<text text-anchor="start" x="425" y="-18.5" font-family="Fira Code" font-size="10.00" fill="#000000">dynamic_reconfigure</text>
<text text-anchor="middle" x="496.5" y="-7.5" font-family="Fira Code" font-size="10.00" fill="#000000">/server.h</text>
</a>
</g>
</g>
<!-- Node3&#45;&gt;Node6 -->
<g id="edge6" class="edge">
<title>Node3&#45;&gt;Node6</title>
<path fill="none" stroke="#191970" d="M443.1572,-67.2967C452.1557,-58.559 463.6213,-47.4257 473.6148,-37.7218"/>
<polygon fill="#191970" stroke="#191970" points="476.1687,-40.1205 480.9048,-30.6432 471.2923,-35.0985 476.1687,-40.1205"/>
</g>
<!-- Node7 -->
<g id="node8" class="node">
<title>Node7</title>
<g id="a_node8"><a xlink:title=" ">
<polygon fill="none" stroke="#bfbfbf" points="594.5,-.5 594.5,-30.5 776.5,-30.5 776.5,-.5 594.5,-.5"/>
<text text-anchor="start" x="602.5" y="-18.5" font-family="Fira Code" font-size="10.00" fill="#000000">boost/thread/recursive</text>
<text text-anchor="middle" x="685.5" y="-7.5" font-family="Fira Code" font-size="10.00" fill="#000000">_mutex.hpp</text>
</a>
</g>
</g>
<!-- Node3&#45;&gt;Node7 -->
<g id="edge7" class="edge">
<title>Node3&#45;&gt;Node7</title>
<path fill="none" stroke="#191970" d="M485.4002,-67.4639C524.5169,-57.3057 576.3179,-43.8535 617.4134,-33.1814"/>
<polygon fill="#191970" stroke="#191970" points="618.548,-36.5029 627.3472,-30.6017 616.7885,-29.7277 618.548,-36.5029"/>
</g>
</g>
</svg>
        <g id="navigator" transform="translate(0 0)" fill="#404254">
                <rect fill="#f2f5e9" fill-opacity="0.5" stroke="#606060" stroke-width=".5" x="0" y="0" width="60" height="60"/>
                <use id="zoomplus" xlink:href="#zoomPlus" x="17" y="9" onmousedown="handleZoom(evt,'in')"/>
                <use id="zoomminus" xlink:href="#zoomMin" x="42" y="9" onmousedown="handleZoom(evt,'out')"/>
                <use id="reset" xlink:href="#resetDef" x="30" y="36" onmousedown="handleReset()"/>
                <g id="arrowUp" xlink:href="#dirArrow" transform="translate(30 24)" onmousedown="handlePan(0,-1)">
                  <use xlink:href="#rim" fill="#404040">
                        <set attributeName="fill" to="#808080" begin="arrowUp.mouseover" end="arrowUp.mouseout"/>
                  </use>
                  <path fill="none" stroke="white" stroke-width="1.5" d="M0,-3.0v7 M-2.5,-0.5L0,-3.0L2.5,-0.5"/>
                </g>
                <g id="arrowRight" xlink:href="#dirArrow" transform="rotate(90) translate(36 -43)" onmousedown="handlePan(1,0)">
                  <use xlink:href="#rim" fill="#404040">
                        <set attributeName="fill" to="#808080" begin="arrowRight.mouseover" end="arrowRight.mouseout"/>
                  </use>
                  <path fill="none" stroke="white" stroke-width="1.5" d="M0,-3.0v7 M-2.5,-0.5L0,-3.0L2.5,-0.5"/>
                </g>
                <g id="arrowDown" xlink:href="#dirArrow" transform="rotate(180) translate(-30 -48)" onmousedown="handlePan(0,1)">
                  <use xlink:href="#rim" fill="#404040">
                        <set attributeName="fill" to="#808080" begin="arrowDown.mouseover" end="arrowDown.mouseout"/>
                  </use>
                  <path fill="none" stroke="white" stroke-width="1.5" d="M0,-3.0v7 M-2.5,-0.5L0,-3.0L2.5,-0.5"/>
                </g>
                <g id="arrowLeft" xlink:href="#dirArrow" transform="rotate(270) translate(-36 17)" onmousedown="handlePan(-1,0)">
                  <use xlink:href="#rim" fill="#404040">
                        <set attributeName="fill" to="#808080" begin="arrowLeft.mouseover" end="arrowLeft.mouseout"/>
                  </use>
                  <path fill="none" stroke="white" stroke-width="1.5" d="M0,-3.0v7 M-2.5,-0.5L0,-3.0L2.5,-0.5"/>
                </g>
        </g>
        <svg viewBox="0 0 15 15" width="100%" height="30px" preserveAspectRatio="xMaxYMin meet">
         <g id="arrow_out" transform="scale(0.3 0.3)">
          <a xlink:href="vision__configurer_8hpp__incl_org.svg" target="_base">
           <rect id="button" ry="5" rx="5" y="6" x="6" height="38" width="38"
                fill="#f2f5e9" fill-opacity="0.5" stroke="#606060" stroke-width="1.0"/>
           <path id="arrow"
             d="M 11.500037,31.436501 C 11.940474,20.09759 22.043105,11.32322 32.158766,21.979434 L 37.068811,17.246167 C 37.068811,17.246167 37.088388,32 37.088388,32 L 22.160133,31.978069 C 22.160133,31.978069 26.997745,27.140456 26.997745,27.140456 C 18.528582,18.264221 13.291696,25.230495 11.500037,31.436501 z"
             style="fill:#404040;"/>
          </a>
         </g>
        </svg>
</svg>
