<?xml version="1.0" encoding="UTF-8" standalone="no"?>
<!DOCTYPE svg PUBLIC "-//W3C//DTD SVG 1.1//EN"
 "http://www.w3.org/Graphics/SVG/1.1/DTD/svg11.dtd">
<!-- Generated by graphviz version 2.40.1 (0)
 -->
<!-- Title: include/travesim_adapters/udp/receiver.hpp Pages: 1 -->
<svg width="2084pt" height="240pt"
 viewBox="0.00 0.00 2083.50 240.00" xmlns="http://www.w3.org/2000/svg" xmlns:xlink="http://www.w3.org/1999/xlink">
<g id="graph0" class="graph" transform="scale(1 1) rotate(0) translate(4 236)">
<title>include/travesim_adapters/udp/receiver.hpp</title>
<!-- Node3 -->
<g id="node1" class="node">
<title>Node3</title>
<g id="a_node1"><a xlink:title="Receiver data using UDP.">
<polygon fill="#bfbfbf" stroke="#000000" points="1237.5,-201.5 1237.5,-231.5 1441.5,-231.5 1441.5,-201.5 1237.5,-201.5"/>
<text text-anchor="start" x="1245.5" y="-219.5" font-family="Fira Code" font-size="10.00" fill="#000000">include/travesim_adapters</text>
<text text-anchor="middle" x="1339.5" y="-208.5" font-family="Fira Code" font-size="10.00" fill="#000000">/udp/receiver.hpp</text>
</a>
</g>
</g>
<!-- Node4 -->
<g id="node2" class="node">
<title>Node4</title>
<g id="a_node2"><a xlink:href="../../d2/d4b/multicast__receiver_8hpp.html" target="_top" xlink:title="Receiver data using UDP in multicast mode.">
<polygon fill="none" stroke="#000000" points="520,-134.5 520,-164.5 739,-164.5 739,-134.5 520,-134.5"/>
<text text-anchor="start" x="528" y="-152.5" font-family="Fira Code" font-size="10.00" fill="#000000">include/travesim_adapters</text>
<text text-anchor="middle" x="629.5" y="-141.5" font-family="Fira Code" font-size="10.00" fill="#000000">/udp/multicast_receiver.hpp</text>
</a>
</g>
</g>
<!-- Node3&#45;&gt;Node4 -->
<g id="edge1" class="edge">
<title>Node3&#45;&gt;Node4</title>
<path fill="none" stroke="#191970" d="M1227.1266,-205.8958C1093.3901,-193.2755 871.5703,-172.3433 739.0763,-159.8403"/>
<polygon fill="#191970" stroke="#191970" points="1227.1119,-209.4098 1237.3965,-206.8649 1227.7696,-202.4408 1227.1119,-209.4098"/>
</g>
<!-- Node10 -->
<g id="node8" class="node">
<title>Node10</title>
<g id="a_node8"><a xlink:href="../../de/d4a/unicast__receiver_8hpp.html" target="_top" xlink:title="Receiver data using UDP in unicast mode.">
<polygon fill="none" stroke="#000000" points="1237.5,-134.5 1237.5,-164.5 1441.5,-164.5 1441.5,-134.5 1237.5,-134.5"/>
<text text-anchor="start" x="1245.5" y="-152.5" font-family="Fira Code" font-size="10.00" fill="#000000">include/travesim_adapters</text>
<text text-anchor="middle" x="1339.5" y="-141.5" font-family="Fira Code" font-size="10.00" fill="#000000">/udp/unicast_receiver.hpp</text>
</a>
</g>
</g>
<!-- Node3&#45;&gt;Node10 -->
<g id="edge7" class="edge">
<title>Node3&#45;&gt;Node10</title>
<path fill="none" stroke="#191970" d="M1339.5,-191.0249C1339.5,-182.128 1339.5,-172.4287 1339.5,-164.6432"/>
<polygon fill="#191970" stroke="#191970" points="1336.0001,-191.2966 1339.5,-201.2967 1343.0001,-191.2967 1336.0001,-191.2966"/>
</g>
<!-- Node21 -->
<g id="node19" class="node">
<title>Node21</title>
<g id="a_node19"><a xlink:href="../../d9/d77/receiver_8cpp.html" target="_top" xlink:title="Receiver data using UDP.">
<polygon fill="none" stroke="#000000" points="1460,-140 1460,-159 1657,-159 1657,-140 1460,-140"/>
<text text-anchor="middle" x="1558.5" y="-147" font-family="Fira Code" font-size="10.00" fill="#000000">src/lib/udp/receiver.cpp</text>
</a>
</g>
</g>
<!-- Node3&#45;&gt;Node21 -->
<g id="edge18" class="edge">
<title>Node3&#45;&gt;Node21</title>
<path fill="none" stroke="#191970" d="M1398.3851,-198.4849C1439.9417,-185.7713 1493.968,-169.2427 1527.4305,-159.0053"/>
<polygon fill="#191970" stroke="#191970" points="1397.1864,-195.1914 1388.6479,-201.4639 1399.2343,-201.8852 1397.1864,-195.1914"/>
</g>
<!-- Node5 -->
<g id="node3" class="node">
<title>Node5</title>
<g id="a_node3"><a xlink:href="../../d7/df5/vision__receiver__example_8cpp.html" target="_top" xlink:title="Example to read data published from vision adapter.">
<polygon fill="none" stroke="#000000" points="0,-67.5 0,-97.5 197,-97.5 197,-67.5 0,-67.5"/>
<text text-anchor="start" x="8" y="-85.5" font-family="Fira Code" font-size="10.00" fill="#000000">examples/protobuf/vision</text>
<text text-anchor="middle" x="98.5" y="-74.5" font-family="Fira Code" font-size="10.00" fill="#000000">_receiver_example.cpp</text>
</a>
</g>
</g>
<!-- Node4&#45;&gt;Node5 -->
<g id="edge2" class="edge">
<title>Node4&#45;&gt;Node5</title>
<path fill="none" stroke="#191970" d="M509.6886,-135.605C424.9462,-125.608 308.6857,-111.5517 206.5,-98 203.4017,-97.5891 200.2541,-97.1668 197.0765,-96.7362"/>
<polygon fill="#191970" stroke="#191970" points="509.5229,-139.1096 519.8637,-136.8037 510.3419,-132.1577 509.5229,-139.1096"/>
</g>
<!-- Node6 -->
<g id="node4" class="node">
<title>Node6</title>
<g id="a_node4"><a xlink:href="../../d0/d9c/multicast__receiver__example_8cpp.html" target="_top" xlink:title="Example on how to use the MulticastReceiver.">
<polygon fill="none" stroke="#000000" points="215.5,-67.5 215.5,-97.5 397.5,-97.5 397.5,-67.5 215.5,-67.5"/>
<text text-anchor="start" x="223.5" y="-85.5" font-family="Fira Code" font-size="10.00" fill="#000000">examples/udp/multicast</text>
<text text-anchor="middle" x="306.5" y="-74.5" font-family="Fira Code" font-size="10.00" fill="#000000">_receiver_example.cpp</text>
</a>
</g>
</g>
<!-- Node4&#45;&gt;Node6 -->
<g id="edge3" class="edge">
<title>Node4&#45;&gt;Node6</title>
<path fill="none" stroke="#191970" d="M547.1699,-132.4222C495.287,-121.6601 428.9199,-107.8936 379.0244,-97.5438"/>
<polygon fill="#191970" stroke="#191970" points="546.51,-135.8598 557.0125,-134.4639 547.9318,-129.0057 546.51,-135.8598"/>
</g>
<!-- Node7 -->
<g id="node5" class="node">
<title>Node7</title>
<g id="a_node5"><a xlink:href="../../d4/dfc/multicast__receiver__reset__example_8cpp.html" target="_top" xlink:title=" ">
<polygon fill="none" stroke="#000000" points="416,-67.5 416,-97.5 635,-97.5 635,-67.5 416,-67.5"/>
<text text-anchor="start" x="424" y="-85.5" font-family="Fira Code" font-size="10.00" fill="#000000">examples/udp/multicast</text>
<text text-anchor="middle" x="525.5" y="-74.5" font-family="Fira Code" font-size="10.00" fill="#000000">_receiver_reset_example.cpp</text>
</a>
</g>
</g>
<!-- Node4&#45;&gt;Node7 -->
<g id="edge4" class="edge">
<title>Node4&#45;&gt;Node7</title>
<path fill="none" stroke="#191970" d="M597.361,-128.7951C581.7777,-118.7558 563.3939,-106.9124 549.1216,-97.7177"/>
<polygon fill="#191970" stroke="#191970" points="595.8583,-131.9904 606.1604,-134.4639 599.6494,-126.1058 595.8583,-131.9904"/>
</g>
<!-- Node8 -->
<g id="node6" class="node">
<title>Node8</title>
<g id="a_node6"><a xlink:href="../../d7/d29/vision__adapter_8test_8cpp.html" target="_top" xlink:title=" ">
<polygon fill="none" stroke="#000000" points="653,-67.5 653,-97.5 812,-97.5 812,-67.5 653,-67.5"/>
<text text-anchor="start" x="661" y="-85.5" font-family="Fira Code" font-size="10.00" fill="#000000">src/bin/test/vision</text>
<text text-anchor="middle" x="732.5" y="-74.5" font-family="Fira Code" font-size="10.00" fill="#000000">_adapter.test.cpp</text>
</a>
</g>
</g>
<!-- Node4&#45;&gt;Node8 -->
<g id="edge5" class="edge">
<title>Node4&#45;&gt;Node8</title>
<path fill="none" stroke="#191970" d="M661.3299,-128.7951C676.7634,-118.7558 694.9705,-106.9124 709.1056,-97.7177"/>
<polygon fill="#191970" stroke="#191970" points="659.0893,-126.0772 652.6152,-134.4639 662.9063,-131.945 659.0893,-126.0772"/>
</g>
<!-- Node9 -->
<g id="node7" class="node">
<title>Node9</title>
<g id="a_node7"><a xlink:href="../../df/dda/multicast__receiver_8cpp.html" target="_top" xlink:title="Receiver data using UDP in multicast mode.">
<polygon fill="none" stroke="#000000" points="830.5,-67.5 830.5,-97.5 1004.5,-97.5 1004.5,-67.5 830.5,-67.5"/>
<text text-anchor="start" x="838.5" y="-85.5" font-family="Fira Code" font-size="10.00" fill="#000000">src/lib/udp/multicast</text>
<text text-anchor="middle" x="917.5" y="-74.5" font-family="Fira Code" font-size="10.00" fill="#000000">_receiver.cpp</text>
</a>
</g>
</g>
<!-- Node4&#45;&gt;Node9 -->
<g id="edge6" class="edge">
<title>Node4&#45;&gt;Node9</title>
<path fill="none" stroke="#191970" d="M704.0479,-132.1573C750.0513,-121.4551 808.4896,-107.8601 852.5853,-97.6017"/>
<polygon fill="#191970" stroke="#191970" points="703.0796,-128.789 694.1328,-134.4639 704.6658,-135.6069 703.0796,-128.789"/>
</g>
<!-- Node11 -->
<g id="node9" class="node">
<title>Node11</title>
<g id="a_node9"><a xlink:href="../../dc/dfa/unicast__receiver__example_8cpp.html" target="_top" xlink:title="Example on how to use the UnicastReceiver.">
<polygon fill="none" stroke="#000000" points="1022.5,-67.5 1022.5,-97.5 1196.5,-97.5 1196.5,-67.5 1022.5,-67.5"/>
<text text-anchor="start" x="1030.5" y="-85.5" font-family="Fira Code" font-size="10.00" fill="#000000">examples/udp/unicast</text>
<text text-anchor="middle" x="1109.5" y="-74.5" font-family="Fira Code" font-size="10.00" fill="#000000">_receiver_example.cpp</text>
</a>
</g>
</g>
<!-- Node10&#45;&gt;Node11 -->
<g id="edge8" class="edge">
<title>Node10&#45;&gt;Node11</title>
<path fill="none" stroke="#191970" d="M1277.8752,-131.5484C1241.4693,-120.9432 1195.8925,-107.6665 1161.3416,-97.6017"/>
<polygon fill="#191970" stroke="#191970" points="1277.3037,-135.0274 1287.8835,-134.4639 1279.2615,-128.3067 1277.3037,-135.0274"/>
</g>
<!-- Node12 -->
<g id="node10" class="node">
<title>Node12</title>
<g id="a_node10"><a xlink:href="../../d4/d4c/replacer__receiver_8hpp.html" target="_top" xlink:title="Replacer receiver with UDP and protobuf.">
<polygon fill="none" stroke="#000000" points="1215,-67.5 1215,-97.5 1464,-97.5 1464,-67.5 1215,-67.5"/>
<text text-anchor="start" x="1223" y="-85.5" font-family="Fira Code" font-size="10.00" fill="#000000">include/travesim_adapters</text>
<text text-anchor="middle" x="1339.5" y="-74.5" font-family="Fira Code" font-size="10.00" fill="#000000">/protobuf/replacer_receiver.hpp</text>
</a>
</g>
</g>
<!-- Node10&#45;&gt;Node12 -->
<g id="edge9" class="edge">
<title>Node10&#45;&gt;Node12</title>
<path fill="none" stroke="#191970" d="M1339.5,-124.0249C1339.5,-115.128 1339.5,-105.4287 1339.5,-97.6432"/>
<polygon fill="#191970" stroke="#191970" points="1336.0001,-124.2966 1339.5,-134.2967 1343.0001,-124.2967 1336.0001,-124.2966"/>
</g>
<!-- Node16 -->
<g id="node14" class="node">
<title>Node16</title>
<g id="a_node14"><a xlink:href="../../de/db1/team__receiver_8hpp.html" target="_top" xlink:title="Team control data receiver with UDP and protobuf.">
<polygon fill="none" stroke="#000000" points="1482,-67.5 1482,-97.5 1701,-97.5 1701,-67.5 1482,-67.5"/>
<text text-anchor="start" x="1490" y="-85.5" font-family="Fira Code" font-size="10.00" fill="#000000">include/travesim_adapters</text>
<text text-anchor="middle" x="1591.5" y="-74.5" font-family="Fira Code" font-size="10.00" fill="#000000">/protobuf/team_receiver.hpp</text>
</a>
</g>
</g>
<!-- Node10&#45;&gt;Node16 -->
<g id="edge13" class="edge">
<title>Node10&#45;&gt;Node16</title>
<path fill="none" stroke="#191970" d="M1405.7444,-131.8874C1445.8391,-121.2273 1496.4394,-107.774 1534.6996,-97.6017"/>
<polygon fill="#191970" stroke="#191970" points="1404.8186,-128.5119 1396.0537,-134.4639 1406.6173,-135.2768 1404.8186,-128.5119"/>
</g>
<!-- Node20 -->
<g id="node18" class="node">
<title>Node20</title>
<g id="a_node18"><a xlink:href="../../db/dae/unicast__receiver_8cpp.html" target="_top" xlink:title="Receiver data using UDP in unicast mode.">
<polygon fill="none" stroke="#000000" points="1719,-67.5 1719,-97.5 1878,-97.5 1878,-67.5 1719,-67.5"/>
<text text-anchor="start" x="1727" y="-85.5" font-family="Fira Code" font-size="10.00" fill="#000000">src/lib/udp/unicast</text>
<text text-anchor="middle" x="1798.5" y="-74.5" font-family="Fira Code" font-size="10.00" fill="#000000">_receiver.cpp</text>
</a>
</g>
</g>
<!-- Node10&#45;&gt;Node20 -->
<g id="edge17" class="edge">
<title>Node10&#45;&gt;Node20</title>
<path fill="none" stroke="#191970" d="M1452.0739,-133.9228C1558.865,-119.1383 1704.034,-99.0179 1710.5,-98 1713.2584,-97.5658 1716.0639,-97.116 1718.8963,-96.655"/>
<polygon fill="#191970" stroke="#191970" points="1451.2905,-130.4978 1441.865,-135.3361 1452.2505,-137.4317 1451.2905,-130.4978"/>
</g>
<!-- Node13 -->
<g id="node11" class="node">
<title>Node13</title>
<g id="a_node11"><a xlink:href="../../d8/d50/replacer__receiver__example_8cpp.html" target="_top" xlink:title="Example to read data published from VSSReplacer.">
<polygon fill="none" stroke="#000000" points="781.5,-.5 781.5,-30.5 993.5,-30.5 993.5,-.5 781.5,-.5"/>
<text text-anchor="start" x="789.5" y="-18.5" font-family="Fira Code" font-size="10.00" fill="#000000">examples/protobuf/replacer</text>
<text text-anchor="middle" x="887.5" y="-7.5" font-family="Fira Code" font-size="10.00" fill="#000000">_receiver_example.cpp</text>
</a>
</g>
</g>
<!-- Node12&#45;&gt;Node13 -->
<g id="edge10" class="edge">
<title>Node12&#45;&gt;Node13</title>
<path fill="none" stroke="#191970" d="M1227.8944,-65.9567C1154.7806,-55.119 1059.9734,-41.0657 988.9893,-30.5438"/>
<polygon fill="#191970" stroke="#191970" points="1227.6572,-69.4597 1238.0624,-67.4639 1228.6837,-62.5354 1227.6572,-69.4597"/>
</g>
<!-- Node14 -->
<g id="node12" class="node">
<title>Node14</title>
<g id="a_node12"><a xlink:href="../../da/d85/replacer__adapter_8cpp.html" target="_top" xlink:title="Replacer adapter execution file.">
<polygon fill="none" stroke="#000000" points="1012,-6 1012,-25 1239,-25 1239,-6 1012,-6"/>
<text text-anchor="middle" x="1125.5" y="-13" font-family="Fira Code" font-size="10.00" fill="#000000">src/bin/replacer_adapter.cpp</text>
</a>
</g>
</g>
<!-- Node12&#45;&gt;Node14 -->
<g id="edge11" class="edge">
<title>Node12&#45;&gt;Node14</title>
<path fill="none" stroke="#191970" d="M1281.7022,-64.4044C1241.1289,-51.7016 1188.4897,-35.2211 1155.8602,-25.0053"/>
<polygon fill="#191970" stroke="#191970" points="1280.8852,-67.8161 1291.4742,-67.4639 1282.9768,-61.1359 1280.8852,-67.8161"/>
</g>
<!-- Node15 -->
<g id="node13" class="node">
<title>Node15</title>
<g id="a_node13"><a xlink:href="../../d2/d5a/replacer__receiver_8cpp.html" target="_top" xlink:title="Replacer receiver with UDP and protobuf.">
<polygon fill="none" stroke="#000000" points="1257.5,-.5 1257.5,-30.5 1461.5,-30.5 1461.5,-.5 1257.5,-.5"/>
<text text-anchor="start" x="1265.5" y="-18.5" font-family="Fira Code" font-size="10.00" fill="#000000">src/lib/protobuf/replacer</text>
<text text-anchor="middle" x="1359.5" y="-7.5" font-family="Fira Code" font-size="10.00" fill="#000000">_receiver.cpp</text>
</a>
</g>
</g>
<!-- Node12&#45;&gt;Node15 -->
<g id="edge12" class="edge">
<title>Node12&#45;&gt;Node15</title>
<path fill="none" stroke="#191970" d="M1346.9298,-57.6103C1349.6328,-48.5553 1352.6045,-38.5998 1354.9797,-30.6432"/>
<polygon fill="#191970" stroke="#191970" points="1343.545,-56.7133 1344.0383,-67.2967 1350.2525,-58.7156 1343.545,-56.7133"/>
</g>
<!-- Node17 -->
<g id="node15" class="node">
<title>Node17</title>
<g id="a_node15"><a xlink:href="../../da/d15/team__receiver__example_8cpp.html" target="_top" xlink:title="Example to read data published from a team.">
<polygon fill="none" stroke="#000000" points="1479.5,-.5 1479.5,-30.5 1661.5,-30.5 1661.5,-.5 1479.5,-.5"/>
<text text-anchor="start" x="1487.5" y="-18.5" font-family="Fira Code" font-size="10.00" fill="#000000">examples/protobuf/team</text>
<text text-anchor="middle" x="1570.5" y="-7.5" font-family="Fira Code" font-size="10.00" fill="#000000">_receiver_example.cpp</text>
</a>
</g>
</g>
<!-- Node16&#45;&gt;Node17 -->
<g id="edge14" class="edge">
<title>Node16&#45;&gt;Node17</title>
<path fill="none" stroke="#191970" d="M1583.6988,-57.6103C1580.8606,-48.5553 1577.7403,-38.5998 1575.2464,-30.6432"/>
<polygon fill="#191970" stroke="#191970" points="1580.4041,-58.8012 1586.7348,-67.2967 1587.0836,-56.7076 1580.4041,-58.8012"/>
</g>
<!-- Node18 -->
<g id="node16" class="node">
<title>Node18</title>
<g id="a_node16"><a xlink:href="../../dd/dcd/teams__adapter_8cpp.html" target="_top" xlink:title="Teams commands adapter execution file.">
<polygon fill="none" stroke="#000000" points="1679.5,-6 1679.5,-25 1883.5,-25 1883.5,-6 1679.5,-6"/>
<text text-anchor="middle" x="1781.5" y="-13" font-family="Fira Code" font-size="10.00" fill="#000000">src/bin/teams_adapter.cpp</text>
</a>
</g>
</g>
<!-- Node16&#45;&gt;Node18 -->
<g id="edge15" class="edge">
<title>Node16&#45;&gt;Node18</title>
<path fill="none" stroke="#191970" d="M1643.9618,-64.0003C1679.8249,-51.3538 1725.8808,-35.1131 1754.5447,-25.0053"/>
<polygon fill="#191970" stroke="#191970" points="1642.4065,-60.8374 1634.1397,-67.4639 1644.7345,-67.439 1642.4065,-60.8374"/>
</g>
<!-- Node19 -->
<g id="node17" class="node">
<title>Node19</title>
<g id="a_node17"><a xlink:href="../../d6/d4c/team__receiver_8cpp.html" target="_top" xlink:title="Team control data receiver with UDP and protobuf.">
<polygon fill="none" stroke="#000000" points="1901.5,-.5 1901.5,-30.5 2075.5,-30.5 2075.5,-.5 1901.5,-.5"/>
<text text-anchor="start" x="1909.5" y="-18.5" font-family="Fira Code" font-size="10.00" fill="#000000">src/lib/protobuf/team</text>
<text text-anchor="middle" x="1988.5" y="-7.5" font-family="Fira Code" font-size="10.00" fill="#000000">_receiver.cpp</text>
</a>
</g>
</g>
<!-- Node16&#45;&gt;Node19 -->
<g id="edge16" class="edge">
<title>Node16&#45;&gt;Node19</title>
<path fill="none" stroke="#191970" d="M1690.8174,-65.7386C1755.5657,-54.8113 1839.2623,-40.6862 1901.4102,-30.1978"/>
<polygon fill="#191970" stroke="#191970" points="1689.8726,-62.3485 1680.5945,-67.4639 1691.0376,-69.2509 1689.8726,-62.3485"/>
</g>
</g>
</svg>
