<?xml version="1.0" encoding="UTF-8" standalone="no"?>
<!DOCTYPE svg PUBLIC "-//W3C//DTD SVG 1.1//EN"
 "http://www.w3.org/Graphics/SVG/1.1/DTD/svg11.dtd">
<!-- Generated by graphviz version 2.40.1 (0)
 -->
<!-- Title: src/lib/protobuf/replacer_receiver.cpp Pages: 1 -->
<!--zoomable 296 -->
<svg id="main" version="1.1" xmlns="http://www.w3.org/2000/svg" xmlns:xlink="http://www.w3.org/1999/xlink" xml:space="preserve" onload="init(evt)">
<style type="text/css"><![CDATA[
.edge:hover path { stroke: red; }
.edge:hover polygon { stroke: red; fill: red; }
]]></style>
<script type="text/javascript"><![CDATA[
var edges = document.getElementsByTagName('g');
if (edges && edges.length) {
  for (var i=0;i<edges.length;i++) {
    if (edges[i].id.substr(0,4)=='edge') {
      edges[i].setAttribute('class','edge');
    }
  }
}
]]></script>
        <defs>
                <circle id="rim" cx="0" cy="0" r="7"/>
                <circle id="rim2" cx="0" cy="0" r="3.5"/>
                <g id="zoomPlus">
                        <use xlink:href="#rim" fill="#404040">
                                <set attributeName="fill" to="#808080" begin="zoomplus.mouseover" end="zoomplus.mouseout"/>
                        </use>
                        <path d="M-4,0h8M0,-4v8" fill="none" stroke="white" stroke-width="1.5" pointer-events="none"/>
                </g>
                <g id="zoomMin">
                        <use xlink:href="#rim" fill="#404040">
                                <set attributeName="fill" to="#808080" begin="zoomminus.mouseover" end="zoomminus.mouseout"/>
                        </use>
                        <path d="M-4,0h8" fill="none" stroke="white" stroke-width="1.5" pointer-events="none"/>
                </g>
                <g id="dirArrow">
                        <path fill="none" stroke="white" stroke-width="1.5" d="M0,-3.0v7 M-2.5,-0.5L0,-3.0L2.5,-0.5"/>
                </g>
               <g id="resetDef">
                       <use xlink:href="#rim2" fill="#404040">
                               <set attributeName="fill" to="#808080" begin="reset.mouseover" end="reset.mouseout"/>
                       </use>
               </g>
        </defs>

<script type="text/javascript">
var viewWidth = 690;
var viewHeight = 296;
var sectionId = 'dynsection-0';
</script>
<script xlink:href="../../svgpan.js"/>
<svg id="graph" class="graph">
<g id="viewport">
<title>src/lib/protobuf/replacer_receiver.cpp</title>
<!-- Node0 -->
<g id="node1" class="node">
<title>Node0</title>
<g id="a_node1"><a xlink:title="Replacer receiver with UDP and protobuf.">
<polygon fill="#bfbfbf" stroke="#000000" points="104,-257.5 104,-287.5 308,-287.5 308,-257.5 104,-257.5"/>
<text text-anchor="start" x="112" y="-275.5" font-family="Fira Code" font-size="10.00" fill="#000000">src/lib/protobuf/replacer</text>
<text text-anchor="middle" x="206" y="-264.5" font-family="Fira Code" font-size="10.00" fill="#000000">_receiver.cpp</text>
</a>
</g>
</g>
<!-- Node1 -->
<g id="node2" class="node">
<title>Node1</title>
<g id="a_node2"><a xlink:title=" ">
<polygon fill="none" stroke="#bfbfbf" points="59,-196 59,-215 173,-215 173,-196 59,-196"/>
<text text-anchor="middle" x="116" y="-203" font-family="Fira Code" font-size="10.00" fill="#000000">ros/console.h</text>
</a>
</g>
</g>
<!-- Node0&#45;&gt;Node1 -->
<g id="edge1" class="edge">
<title>Node0&#45;&gt;Node1</title>
<path fill="none" stroke="#191970" d="M185.5776,-257.2967C171.1468,-246.5537 151.8516,-232.1895 137.2412,-221.3129"/>
<polygon fill="#191970" stroke="#191970" points="138.9464,-218.219 128.835,-215.055 134.7664,-223.8339 138.9464,-218.219"/>
</g>
<!-- Node2 -->
<g id="node3" class="node">
<title>Node2</title>
<g id="a_node3"><a xlink:href="../../d4/d4c/replacer__receiver_8hpp.html" target="_top" xlink:title="Replacer receiver with UDP and protobuf.">
<polygon fill="none" stroke="#000000" points="191,-190.5 191,-220.5 403,-220.5 403,-190.5 191,-190.5"/>
<text text-anchor="start" x="199" y="-208.5" font-family="Fira Code" font-size="10.00" fill="#000000">travesim_adapters/protobuf</text>
<text text-anchor="middle" x="297" y="-197.5" font-family="Fira Code" font-size="10.00" fill="#000000">/replacer_receiver.hpp</text>
</a>
</g>
</g>
<!-- Node0&#45;&gt;Node2 -->
<g id="edge2" class="edge">
<title>Node0&#45;&gt;Node2</title>
<path fill="none" stroke="#191970" d="M226.6493,-257.2967C238.9823,-248.2163 254.8292,-236.5488 268.3594,-226.587"/>
<polygon fill="#191970" stroke="#191970" points="270.4548,-229.3907 276.4324,-220.6432 266.3045,-223.7537 270.4548,-229.3907"/>
</g>
<!-- Node3 -->
<g id="node4" class="node">
<title>Node3</title>
<g id="a_node4"><a xlink:title=" ">
<polygon fill="none" stroke="#bfbfbf" points="0,-129 0,-148 54,-148 54,-129 0,-129"/>
<text text-anchor="middle" x="27" y="-136" font-family="Fira Code" font-size="10.00" fill="#000000">queue</text>
</a>
</g>
</g>
<!-- Node2&#45;&gt;Node3 -->
<g id="edge3" class="edge">
<title>Node2&#45;&gt;Node3</title>
<path fill="none" stroke="#191970" d="M210.1046,-190.4594C165.5786,-181.7292 110.8099,-169.3992 63,-154 60.895,-153.322 58.7442,-152.5663 56.5932,-151.7636"/>
<polygon fill="#191970" stroke="#191970" points="57.8873,-148.5117 47.303,-148.0385 55.2821,-155.0088 57.8873,-148.5117"/>
</g>
<!-- Node4 -->
<g id="node5" class="node">
<title>Node4</title>
<g id="a_node5"><a xlink:title=" ">
<polygon fill="none" stroke="#bfbfbf" points="72,-129 72,-148 134,-148 134,-129 72,-129"/>
<text text-anchor="middle" x="103" y="-136" font-family="Fira Code" font-size="10.00" fill="#000000">memory</text>
</a>
</g>
</g>
<!-- Node2&#45;&gt;Node4 -->
<g id="edge4" class="edge">
<title>Node2&#45;&gt;Node4</title>
<path fill="none" stroke="#191970" d="M249.9632,-190.4045C219.366,-180.429 178.6678,-166.8666 143,-154 140.8939,-153.2403 138.7309,-152.4452 136.5533,-151.6336"/>
<polygon fill="#191970" stroke="#191970" points="137.6359,-148.301 127.0446,-148.0277 135.1538,-154.8462 137.6359,-148.301"/>
</g>
<!-- Node5 -->
<g id="node6" class="node">
<title>Node5</title>
<g id="a_node6"><a xlink:href="../../de/d4a/unicast__receiver_8hpp.html" target="_top" xlink:title="Receiver data using UDP in unicast mode.">
<polygon fill="none" stroke="#000000" points="152,-123.5 152,-153.5 326,-153.5 326,-123.5 152,-123.5"/>
<text text-anchor="start" x="160" y="-141.5" font-family="Fira Code" font-size="10.00" fill="#000000">travesim_adapters/udp</text>
<text text-anchor="middle" x="239" y="-130.5" font-family="Fira Code" font-size="10.00" fill="#000000">/unicast_receiver.hpp</text>
</a>
</g>
</g>
<!-- Node2&#45;&gt;Node5 -->
<g id="edge5" class="edge">
<title>Node2&#45;&gt;Node5</title>
<path fill="none" stroke="#191970" d="M283.8389,-190.2967C276.4232,-181.7303 267.0143,-170.8614 258.7323,-161.2943"/>
<polygon fill="#191970" stroke="#191970" points="261.3003,-158.913 252.109,-153.6432 256.0078,-163.4946 261.3003,-158.913"/>
</g>
<!-- Node9 -->
<g id="node10" class="node">
<title>Node9</title>
<g id="a_node10"><a xlink:href="../../de/d28/entity__state_8hpp.html" target="_top" xlink:title="Entity state data structure.">
<polygon fill="none" stroke="#000000" points="303,-56.5 303,-86.5 485,-86.5 485,-56.5 303,-56.5"/>
<text text-anchor="start" x="311" y="-74.5" font-family="Fira Code" font-size="10.00" fill="#000000">travesim_adapters/data</text>
<text text-anchor="middle" x="394" y="-63.5" font-family="Fira Code" font-size="10.00" fill="#000000">/entity_state.hpp</text>
</a>
</g>
</g>
<!-- Node2&#45;&gt;Node9 -->
<g id="edge9" class="edge">
<title>Node2&#45;&gt;Node9</title>
<path fill="none" stroke="#191970" d="M308.3665,-190.2201C315.9489,-179.9966 326.1184,-166.2261 335,-154 349.3208,-134.2866 365.398,-111.7804 377.1488,-95.2603"/>
<polygon fill="#191970" stroke="#191970" points="380.2538,-96.933 383.1933,-86.7541 374.5478,-92.8783 380.2538,-96.933"/>
</g>
<!-- Node11 -->
<g id="node12" class="node">
<title>Node11</title>
<g id="a_node12"><a xlink:href="../../dc/d09/robot__state_8hpp.html" target="_top" xlink:title="Robot state data structure.">
<polygon fill="none" stroke="#000000" points="382,-123.5 382,-153.5 564,-153.5 564,-123.5 382,-123.5"/>
<text text-anchor="start" x="390" y="-141.5" font-family="Fira Code" font-size="10.00" fill="#000000">travesim_adapters/data</text>
<text text-anchor="middle" x="473" y="-130.5" font-family="Fira Code" font-size="10.00" fill="#000000">/robot_state.hpp</text>
</a>
</g>
</g>
<!-- Node2&#45;&gt;Node11 -->
<g id="edge11" class="edge">
<title>Node2&#45;&gt;Node11</title>
<path fill="none" stroke="#191970" d="M336.4978,-190.4639C362.3359,-180.6278 396.2866,-167.7034 423.8647,-157.2049"/>
<polygon fill="#191970" stroke="#191970" points="425.2294,-160.4305 433.3299,-153.6017 422.7389,-153.8885 425.2294,-160.4305"/>
</g>
<!-- Node12 -->
<g id="node13" class="node">
<title>Node12</title>
<g id="a_node13"><a xlink:title=" ">
<polygon fill="none" stroke="#bfbfbf" points="582.5,-129 582.5,-148 681.5,-148 681.5,-129 582.5,-129"/>
<text text-anchor="middle" x="632" y="-136" font-family="Fira Code" font-size="10.00" fill="#000000">packet.pb.h</text>
</a>
</g>
</g>
<!-- Node2&#45;&gt;Node12 -->
<g id="edge14" class="edge">
<title>Node2&#45;&gt;Node12</title>
<path fill="none" stroke="#191970" d="M386.5191,-190.489C440.693,-180.9852 511.0511,-167.8978 573,-154 577.7245,-152.9401 582.6432,-151.7644 587.5362,-150.5481"/>
<polygon fill="#191970" stroke="#191970" points="588.6454,-153.8774 597.4728,-148.0185 586.9184,-147.0938 588.6454,-153.8774"/>
</g>
<!-- Node6 -->
<g id="node7" class="node">
<title>Node6</title>
<g id="a_node7"><a xlink:href="../../df/d3c/receiver_8hpp.html" target="_top" xlink:title="Receiver data using UDP.">
<polygon fill="none" stroke="#000000" points="111,-56.5 111,-86.5 285,-86.5 285,-56.5 111,-56.5"/>
<text text-anchor="start" x="119" y="-74.5" font-family="Fira Code" font-size="10.00" fill="#000000">travesim_adapters/udp</text>
<text text-anchor="middle" x="198" y="-63.5" font-family="Fira Code" font-size="10.00" fill="#000000">/receiver.hpp</text>
</a>
</g>
</g>
<!-- Node5&#45;&gt;Node6 -->
<g id="edge6" class="edge">
<title>Node5&#45;&gt;Node6</title>
<path fill="none" stroke="#191970" d="M229.6965,-123.2967C224.664,-115.0729 218.3331,-104.7272 212.655,-95.4483"/>
<polygon fill="#191970" stroke="#191970" points="215.4718,-93.346 207.2667,-86.6432 209.501,-96.9997 215.4718,-93.346"/>
</g>
<!-- Node7 -->
<g id="node8" class="node">
<title>Node7</title>
<g id="a_node8"><a xlink:title=" ">
<polygon fill="none" stroke="#bfbfbf" points="136,-.5 136,-19.5 258,-19.5 258,-.5 136,-.5"/>
<text text-anchor="middle" x="197" y="-7.5" font-family="Fira Code" font-size="10.00" fill="#000000">boost/asio.hpp</text>
</a>
</g>
</g>
<!-- Node6&#45;&gt;Node7 -->
<g id="edge7" class="edge">
<title>Node6&#45;&gt;Node7</title>
<path fill="none" stroke="#191970" d="M197.7528,-56.2977C197.6241,-48.3834 197.4651,-38.6043 197.3264,-30.0759"/>
<polygon fill="#191970" stroke="#191970" points="200.8223,-29.7887 197.1601,-19.8469 193.8233,-29.9025 200.8223,-29.7887"/>
</g>
<!-- Node8 -->
<g id="node9" class="node">
<title>Node8</title>
<g id="a_node9"><a xlink:title=" ">
<polygon fill="none" stroke="#bfbfbf" points="276,-.5 276,-19.5 338,-19.5 338,-.5 276,-.5"/>
<text text-anchor="middle" x="307" y="-7.5" font-family="Fira Code" font-size="10.00" fill="#000000">string</text>
</a>
</g>
</g>
<!-- Node6&#45;&gt;Node8 -->
<g id="edge8" class="edge">
<title>Node6&#45;&gt;Node8</title>
<path fill="none" stroke="#191970" d="M224.6644,-56.4554C241.8941,-46.734 264.1975,-34.15 281.2446,-24.5317"/>
<polygon fill="#191970" stroke="#191970" points="283.1194,-27.4926 290.1089,-19.5303 279.6796,-21.3961 283.1194,-27.4926"/>
</g>
<!-- Node10 -->
<g id="node11" class="node">
<title>Node10</title>
<g id="a_node11"><a xlink:title=" ">
<polygon fill="none" stroke="#bfbfbf" points="415.5,-.5 415.5,-19.5 492.5,-19.5 492.5,-.5 415.5,-.5"/>
<text text-anchor="middle" x="454" y="-7.5" font-family="Fira Code" font-size="10.00" fill="#000000">iostream</text>
</a>
</g>
</g>
<!-- Node9&#45;&gt;Node10 -->
<g id="edge10" class="edge">
<title>Node9&#45;&gt;Node10</title>
<path fill="none" stroke="#191970" d="M408.8315,-56.2977C417.4204,-47.4941 428.2602,-36.3833 437.1679,-27.2529"/>
<polygon fill="#191970" stroke="#191970" points="439.9152,-29.4489 444.3932,-19.8469 434.9047,-24.5606 439.9152,-29.4489"/>
</g>
<!-- Node11&#45;&gt;Node9 -->
<g id="edge13" class="edge">
<title>Node11&#45;&gt;Node9</title>
<path fill="none" stroke="#191970" d="M455.0737,-123.2967C444.569,-114.3876 431.1279,-102.9882 419.5308,-93.1527"/>
<polygon fill="#191970" stroke="#191970" points="421.7458,-90.442 411.8554,-86.6432 417.2181,-95.7806 421.7458,-90.442"/>
</g>
<!-- Node11&#45;&gt;Node10 -->
<g id="edge12" class="edge">
<title>Node11&#45;&gt;Node10</title>
<path fill="none" stroke="#191970" d="M482.3122,-123.2962C491.3491,-106.511 502.5421,-78.8414 494,-56 489.8851,-44.9969 481.8185,-34.8874 474.0006,-26.9652"/>
<polygon fill="#191970" stroke="#191970" points="476.0985,-24.1329 466.4212,-19.82 471.2968,-29.2264 476.0985,-24.1329"/>
</g>
</g>
</svg>
        <g id="navigator" transform="translate(0 0)" fill="#404254">
                <rect fill="#f2f5e9" fill-opacity="0.5" stroke="#606060" stroke-width=".5" x="0" y="0" width="60" height="60"/>
                <use id="zoomplus" xlink:href="#zoomPlus" x="17" y="9" onmousedown="handleZoom(evt,'in')"/>
                <use id="zoomminus" xlink:href="#zoomMin" x="42" y="9" onmousedown="handleZoom(evt,'out')"/>
                <use id="reset" xlink:href="#resetDef" x="30" y="36" onmousedown="handleReset()"/>
                <g id="arrowUp" xlink:href="#dirArrow" transform="translate(30 24)" onmousedown="handlePan(0,-1)">
                  <use xlink:href="#rim" fill="#404040">
                        <set attributeName="fill" to="#808080" begin="arrowUp.mouseover" end="arrowUp.mouseout"/>
                  </use>
                  <path fill="none" stroke="white" stroke-width="1.5" d="M0,-3.0v7 M-2.5,-0.5L0,-3.0L2.5,-0.5"/>
                </g>
                <g id="arrowRight" xlink:href="#dirArrow" transform="rotate(90) translate(36 -43)" onmousedown="handlePan(1,0)">
                  <use xlink:href="#rim" fill="#404040">
                        <set attributeName="fill" to="#808080" begin="arrowRight.mouseover" end="arrowRight.mouseout"/>
                  </use>
                  <path fill="none" stroke="white" stroke-width="1.5" d="M0,-3.0v7 M-2.5,-0.5L0,-3.0L2.5,-0.5"/>
                </g>
                <g id="arrowDown" xlink:href="#dirArrow" transform="rotate(180) translate(-30 -48)" onmousedown="handlePan(0,1)">
                  <use xlink:href="#rim" fill="#404040">
                        <set attributeName="fill" to="#808080" begin="arrowDown.mouseover" end="arrowDown.mouseout"/>
                  </use>
                  <path fill="none" stroke="white" stroke-width="1.5" d="M0,-3.0v7 M-2.5,-0.5L0,-3.0L2.5,-0.5"/>
                </g>
                <g id="arrowLeft" xlink:href="#dirArrow" transform="rotate(270) translate(-36 17)" onmousedown="handlePan(-1,0)">
                  <use xlink:href="#rim" fill="#404040">
                        <set attributeName="fill" to="#808080" begin="arrowLeft.mouseover" end="arrowLeft.mouseout"/>
                  </use>
                  <path fill="none" stroke="white" stroke-width="1.5" d="M0,-3.0v7 M-2.5,-0.5L0,-3.0L2.5,-0.5"/>
                </g>
        </g>
        <svg viewBox="0 0 15 15" width="100%" height="30px" preserveAspectRatio="xMaxYMin meet">
         <g id="arrow_out" transform="scale(0.3 0.3)">
          <a xlink:href="replacer__receiver_8cpp__incl_org.svg" target="_base">
           <rect id="button" ry="5" rx="5" y="6" x="6" height="38" width="38"
                fill="#f2f5e9" fill-opacity="0.5" stroke="#606060" stroke-width="1.0"/>
           <path id="arrow"
             d="M 11.500037,31.436501 C 11.940474,20.09759 22.043105,11.32322 32.158766,21.979434 L 37.068811,17.246167 C 37.068811,17.246167 37.088388,32 37.088388,32 L 22.160133,31.978069 C 22.160133,31.978069 26.997745,27.140456 26.997745,27.140456 C 18.528582,18.264221 13.291696,25.230495 11.500037,31.436501 z"
             style="fill:#404040;"/>
          </a>
         </g>
        </svg>
</svg>
