<?xml version="1.0" encoding="UTF-8" standalone="no"?>
<!DOCTYPE svg PUBLIC "-//W3C//DTD SVG 1.1//EN"
 "http://www.w3.org/Graphics/SVG/1.1/DTD/svg11.dtd">
<!-- Generated by graphviz version 2.40.1 (0)
 -->
<!-- Title: include/travesim_adapters/ros/replacer_sender.hpp Pages: 1 -->
<svg width="642pt" height="106pt"
 viewBox="0.00 0.00 641.50 106.00" xmlns="http://www.w3.org/2000/svg" xmlns:xlink="http://www.w3.org/1999/xlink">
<g id="graph0" class="graph" transform="scale(1 1) rotate(0) translate(4 102)">
<title>include/travesim_adapters/ros/replacer_sender.hpp</title>
<!-- Node3 -->
<g id="node1" class="node">
<title>Node3</title>
<g id="a_node1"><a xlink:title=" ">
<polygon fill="#bfbfbf" stroke="#000000" points="226.5,-67.5 226.5,-97.5 430.5,-97.5 430.5,-67.5 226.5,-67.5"/>
<text text-anchor="start" x="234.5" y="-85.5" font-family="Fira Code" font-size="10.00" fill="#000000">include/travesim_adapters</text>
<text text-anchor="middle" x="328.5" y="-74.5" font-family="Fira Code" font-size="10.00" fill="#000000">/ros/replacer_sender.hpp</text>
</a>
</g>
</g>
<!-- Node4 -->
<g id="node2" class="node">
<title>Node4</title>
<g id="a_node2"><a xlink:href="../../da/d85/replacer__adapter_8cpp.html" target="_top" xlink:title="Replacer adapter execution file.">
<polygon fill="none" stroke="#000000" points="0,-6 0,-25 227,-25 227,-6 0,-6"/>
<text text-anchor="middle" x="113.5" y="-13" font-family="Fira Code" font-size="10.00" fill="#000000">src/bin/replacer_adapter.cpp</text>
</a>
</g>
</g>
<!-- Node3&#45;&gt;Node4 -->
<g id="edge1" class="edge">
<title>Node3&#45;&gt;Node4</title>
<path fill="none" stroke="#191970" d="M270.6905,-64.4849C229.8929,-51.7713 176.8534,-35.2427 144.002,-25.0053"/>
<polygon fill="#191970" stroke="#191970" points="269.6613,-67.8302 280.2498,-67.4639 271.744,-61.1471 269.6613,-67.8302"/>
</g>
<!-- Node5 -->
<g id="node3" class="node">
<title>Node5</title>
<g id="a_node3"><a xlink:href="../../db/d63/replacer__sender_8cpp.html" target="_top" xlink:title="ROS replacer sender for gazebo.">
<polygon fill="none" stroke="#000000" points="245,-.5 245,-30.5 412,-30.5 412,-.5 245,-.5"/>
<text text-anchor="start" x="253" y="-18.5" font-family="Fira Code" font-size="10.00" fill="#000000">src/lib/ros/replacer</text>
<text text-anchor="middle" x="328.5" y="-7.5" font-family="Fira Code" font-size="10.00" fill="#000000">_sender.cpp</text>
</a>
</g>
</g>
<!-- Node3&#45;&gt;Node5 -->
<g id="edge2" class="edge">
<title>Node3&#45;&gt;Node5</title>
<path fill="none" stroke="#191970" d="M328.5,-57.0249C328.5,-48.128 328.5,-38.4287 328.5,-30.6432"/>
<polygon fill="#191970" stroke="#191970" points="325.0001,-57.2966 328.5,-67.2967 332.0001,-57.2967 325.0001,-57.2966"/>
</g>
<!-- Node6 -->
<g id="node4" class="node">
<title>Node6</title>
<g id="a_node4"><a xlink:href="../../d5/d78/replacer__sender_8test_8cpp.html" target="_top" xlink:title=" ">
<polygon fill="none" stroke="#000000" points="429.5,-.5 429.5,-30.5 633.5,-30.5 633.5,-.5 429.5,-.5"/>
<text text-anchor="start" x="437.5" y="-18.5" font-family="Fira Code" font-size="10.00" fill="#000000">src/lib/ros/test/replacer</text>
<text text-anchor="middle" x="531.5" y="-7.5" font-family="Fira Code" font-size="10.00" fill="#000000">_sender.test.cpp</text>
</a>
</g>
</g>
<!-- Node3&#45;&gt;Node6 -->
<g id="edge3" class="edge">
<title>Node3&#45;&gt;Node6</title>
<path fill="none" stroke="#191970" d="M383.7163,-64.2759C415.7096,-53.7165 455.5099,-40.5805 485.7441,-30.6017"/>
<polygon fill="#191970" stroke="#191970" points="382.4563,-61.006 374.0572,-67.4639 384.6503,-67.6533 382.4563,-61.006"/>
</g>
</g>
</svg>
