<?xml version="1.0" encoding="UTF-8" standalone="no"?>
<!DOCTYPE svg PUBLIC "-//W3C//DTD SVG 1.1//EN"
 "http://www.w3.org/Graphics/SVG/1.1/DTD/svg11.dtd">
<!-- Generated by graphviz version 2.40.1 (0)
 -->
<!-- Title: src/lib/protobuf/vision_sender.cpp Pages: 1 -->
<svg width="780pt" height="296pt"
 viewBox="0.00 0.00 780.00 296.00" xmlns="http://www.w3.org/2000/svg" xmlns:xlink="http://www.w3.org/1999/xlink">
<g id="graph0" class="graph" transform="scale(1 1) rotate(0) translate(4 292)">
<title>src/lib/protobuf/vision_sender.cpp</title>
<!-- Node0 -->
<g id="node1" class="node">
<title>Node0</title>
<g id="a_node1"><a xlink:title="Vision data sender with UDP and protobuf.">
<polygon fill="#bfbfbf" stroke="#000000" points="79.5,-257.5 79.5,-287.5 268.5,-287.5 268.5,-257.5 79.5,-257.5"/>
<text text-anchor="start" x="87.5" y="-275.5" font-family="Fira Code" font-size="10.00" fill="#000000">src/lib/protobuf/vision</text>
<text text-anchor="middle" x="174" y="-264.5" font-family="Fira Code" font-size="10.00" fill="#000000">_sender.cpp</text>
</a>
</g>
</g>
<!-- Node1 -->
<g id="node2" class="node">
<title>Node1</title>
<g id="a_node2"><a xlink:title=" ">
<polygon fill="none" stroke="#bfbfbf" points="27,-196 27,-215 141,-215 141,-196 27,-196"/>
<text text-anchor="middle" x="84" y="-203" font-family="Fira Code" font-size="10.00" fill="#000000">ros/console.h</text>
</a>
</g>
</g>
<!-- Node0&#45;&gt;Node1 -->
<g id="edge1" class="edge">
<title>Node0&#45;&gt;Node1</title>
<path fill="none" stroke="#191970" d="M153.5776,-257.2967C139.1468,-246.5537 119.8516,-232.1895 105.2412,-221.3129"/>
<polygon fill="#191970" stroke="#191970" points="106.9464,-218.219 96.835,-215.055 102.7664,-223.8339 106.9464,-218.219"/>
</g>
<!-- Node2 -->
<g id="node3" class="node">
<title>Node2</title>
<g id="a_node3"><a xlink:href="../../db/da8/vision__sender_8hpp.html" target="_top" xlink:title="Vision data sender with UDP and protobuf.">
<polygon fill="none" stroke="#000000" points="159,-190.5 159,-220.5 371,-220.5 371,-190.5 159,-190.5"/>
<text text-anchor="start" x="167" y="-208.5" font-family="Fira Code" font-size="10.00" fill="#000000">travesim_adapters/protobuf</text>
<text text-anchor="middle" x="265" y="-197.5" font-family="Fira Code" font-size="10.00" fill="#000000">/vision_sender.hpp</text>
</a>
</g>
</g>
<!-- Node0&#45;&gt;Node2 -->
<g id="edge2" class="edge">
<title>Node0&#45;&gt;Node2</title>
<path fill="none" stroke="#191970" d="M194.6493,-257.2967C206.9823,-248.2163 222.8292,-236.5488 236.3594,-226.587"/>
<polygon fill="#191970" stroke="#191970" points="238.4548,-229.3907 244.4324,-220.6432 234.3045,-223.7537 238.4548,-229.3907"/>
</g>
<!-- Node3 -->
<g id="node4" class="node">
<title>Node3</title>
<g id="a_node4"><a xlink:title=" ">
<polygon fill="none" stroke="#bfbfbf" points="0,-129 0,-148 62,-148 62,-129 0,-129"/>
<text text-anchor="middle" x="31" y="-136" font-family="Fira Code" font-size="10.00" fill="#000000">memory</text>
</a>
</g>
</g>
<!-- Node2&#45;&gt;Node3 -->
<g id="edge3" class="edge">
<title>Node2&#45;&gt;Node3</title>
<path fill="none" stroke="#191970" d="M201.1394,-190.431C163.0529,-180.978 113.9124,-167.9631 71,-154 68.7293,-153.2611 66.3999,-152.4642 64.0622,-151.6354"/>
<polygon fill="#191970" stroke="#191970" points="65.1274,-148.2977 54.5341,-148.1153 62.7015,-154.864 65.1274,-148.2977"/>
</g>
<!-- Node4 -->
<g id="node5" class="node">
<title>Node4</title>
<g id="a_node5"><a xlink:href="../../df/de3/multicast__sender_8hpp.html" target="_top" xlink:title="Send data using UDP in multicast mode.">
<polygon fill="none" stroke="#000000" points="80,-123.5 80,-153.5 254,-153.5 254,-123.5 80,-123.5"/>
<text text-anchor="start" x="88" y="-141.5" font-family="Fira Code" font-size="10.00" fill="#000000">travesim_adapters/udp</text>
<text text-anchor="middle" x="167" y="-130.5" font-family="Fira Code" font-size="10.00" fill="#000000">/multicast_sender.hpp</text>
</a>
</g>
</g>
<!-- Node2&#45;&gt;Node4 -->
<g id="edge4" class="edge">
<title>Node2&#45;&gt;Node4</title>
<path fill="none" stroke="#191970" d="M242.7623,-190.2967C229.3553,-181.1306 212.0924,-169.3285 197.432,-159.3055"/>
<polygon fill="#191970" stroke="#191970" points="199.3802,-156.3977 189.1497,-153.6432 195.4295,-162.1763 199.3802,-156.3977"/>
</g>
<!-- Node8 -->
<g id="node9" class="node">
<title>Node8</title>
<g id="a_node9"><a xlink:href="../../de/d1e/field__state_8hpp.html" target="_top" xlink:title=" ">
<polygon fill="none" stroke="#000000" points="272,-123.5 272,-153.5 454,-153.5 454,-123.5 272,-123.5"/>
<text text-anchor="start" x="280" y="-141.5" font-family="Fira Code" font-size="10.00" fill="#000000">travesim_adapters/data</text>
<text text-anchor="middle" x="363" y="-130.5" font-family="Fira Code" font-size="10.00" fill="#000000">/field_state.hpp</text>
</a>
</g>
</g>
<!-- Node2&#45;&gt;Node8 -->
<g id="edge8" class="edge">
<title>Node2&#45;&gt;Node8</title>
<path fill="none" stroke="#191970" d="M287.2377,-190.2967C300.6447,-181.1306 317.9076,-169.3285 332.568,-159.3055"/>
<polygon fill="#191970" stroke="#191970" points="334.5705,-162.1763 340.8503,-153.6432 330.6198,-156.3977 334.5705,-162.1763"/>
</g>
<!-- Node13 -->
<g id="node14" class="node">
<title>Node13</title>
<g id="a_node14"><a xlink:title=" ">
<polygon fill="none" stroke="#bfbfbf" points="472.5,-129 472.5,-148 571.5,-148 571.5,-129 472.5,-129"/>
<text text-anchor="middle" x="522" y="-136" font-family="Fira Code" font-size="10.00" fill="#000000">packet.pb.h</text>
</a>
</g>
</g>
<!-- Node2&#45;&gt;Node13 -->
<g id="edge14" class="edge">
<title>Node2&#45;&gt;Node13</title>
<path fill="none" stroke="#191970" d="M323.0575,-190.439C362.5258,-180.1906 415.9213,-166.3067 463,-154 467.1498,-152.9152 471.4632,-151.7857 475.7846,-150.6528"/>
<polygon fill="#191970" stroke="#191970" points="477.0249,-153.946 485.8093,-148.0227 475.2484,-147.1751 477.0249,-153.946"/>
</g>
<!-- Node5 -->
<g id="node6" class="node">
<title>Node5</title>
<g id="a_node6"><a xlink:href="../../db/d61/sender_8hpp.html" target="_top" xlink:title="Send data using UDP.">
<polygon fill="none" stroke="#000000" points="80,-56.5 80,-86.5 254,-86.5 254,-56.5 80,-56.5"/>
<text text-anchor="start" x="88" y="-74.5" font-family="Fira Code" font-size="10.00" fill="#000000">travesim_adapters/udp</text>
<text text-anchor="middle" x="167" y="-63.5" font-family="Fira Code" font-size="10.00" fill="#000000">/sender.hpp</text>
</a>
</g>
</g>
<!-- Node4&#45;&gt;Node5 -->
<g id="edge5" class="edge">
<title>Node4&#45;&gt;Node5</title>
<path fill="none" stroke="#191970" d="M167,-123.2967C167,-115.5013 167,-105.7991 167,-96.9064"/>
<polygon fill="#191970" stroke="#191970" points="170.5001,-96.6431 167,-86.6432 163.5001,-96.6432 170.5001,-96.6431"/>
</g>
<!-- Node6 -->
<g id="node7" class="node">
<title>Node6</title>
<g id="a_node7"><a xlink:title=" ">
<polygon fill="none" stroke="#bfbfbf" points="105,-.5 105,-19.5 227,-19.5 227,-.5 105,-.5"/>
<text text-anchor="middle" x="166" y="-7.5" font-family="Fira Code" font-size="10.00" fill="#000000">boost/asio.hpp</text>
</a>
</g>
</g>
<!-- Node5&#45;&gt;Node6 -->
<g id="edge6" class="edge">
<title>Node5&#45;&gt;Node6</title>
<path fill="none" stroke="#191970" d="M166.7528,-56.2977C166.6241,-48.3834 166.4651,-38.6043 166.3264,-30.0759"/>
<polygon fill="#191970" stroke="#191970" points="169.8223,-29.7887 166.1601,-19.8469 162.8233,-29.9025 169.8223,-29.7887"/>
</g>
<!-- Node7 -->
<g id="node8" class="node">
<title>Node7</title>
<g id="a_node8"><a xlink:title=" ">
<polygon fill="none" stroke="#bfbfbf" points="245,-.5 245,-19.5 307,-19.5 307,-.5 245,-.5"/>
<text text-anchor="middle" x="276" y="-7.5" font-family="Fira Code" font-size="10.00" fill="#000000">string</text>
</a>
</g>
</g>
<!-- Node5&#45;&gt;Node7 -->
<g id="edge7" class="edge">
<title>Node5&#45;&gt;Node7</title>
<path fill="none" stroke="#191970" d="M193.6644,-56.4554C210.8941,-46.734 233.1975,-34.15 250.2446,-24.5317"/>
<polygon fill="#191970" stroke="#191970" points="252.1194,-27.4926 259.1089,-19.5303 248.6796,-21.3961 252.1194,-27.4926"/>
</g>
<!-- Node9 -->
<g id="node10" class="node">
<title>Node9</title>
<g id="a_node10"><a xlink:title=" ">
<polygon fill="none" stroke="#bfbfbf" points="272,-62 272,-81 334,-81 334,-62 272,-62"/>
<text text-anchor="middle" x="303" y="-69" font-family="Fira Code" font-size="10.00" fill="#000000">vector</text>
</a>
</g>
</g>
<!-- Node8&#45;&gt;Node9 -->
<g id="edge9" class="edge">
<title>Node8&#45;&gt;Node9</title>
<path fill="none" stroke="#191970" d="M349.3851,-123.2967C340.1276,-112.9591 327.8673,-99.2684 318.2765,-88.5588"/>
<polygon fill="#191970" stroke="#191970" points="320.8353,-86.1696 311.5567,-81.055 315.6206,-90.8394 320.8353,-86.1696"/>
</g>
<!-- Node10 -->
<g id="node11" class="node">
<title>Node10</title>
<g id="a_node11"><a xlink:title=" ">
<polygon fill="none" stroke="#bfbfbf" points="483.5,-.5 483.5,-19.5 560.5,-19.5 560.5,-.5 483.5,-.5"/>
<text text-anchor="middle" x="522" y="-7.5" font-family="Fira Code" font-size="10.00" fill="#000000">iostream</text>
</a>
</g>
</g>
<!-- Node8&#45;&gt;Node10 -->
<g id="edge10" class="edge">
<title>Node8&#45;&gt;Node10</title>
<path fill="none" stroke="#191970" d="M362.0748,-123.404C361.8039,-105.1578 364.1871,-74.5943 381,-56 393.6282,-42.0338 437.8461,-29.012 473.4384,-20.4137"/>
<polygon fill="#191970" stroke="#191970" points="474.2851,-23.8101 483.2151,-18.1087 472.6788,-16.9969 474.2851,-23.8101"/>
</g>
<!-- Node11 -->
<g id="node12" class="node">
<title>Node11</title>
<g id="a_node12"><a xlink:href="../../d9/d46/data__common_8hpp.html" target="_top" xlink:title="Common constants and types for the data structures.">
<polygon fill="none" stroke="#000000" points="390,-56.5 390,-86.5 572,-86.5 572,-56.5 390,-56.5"/>
<text text-anchor="start" x="398" y="-74.5" font-family="Fira Code" font-size="10.00" fill="#000000">travesim_adapters/data</text>
<text text-anchor="middle" x="481" y="-63.5" font-family="Fira Code" font-size="10.00" fill="#000000">/data_common.hpp</text>
</a>
</g>
</g>
<!-- Node8&#45;&gt;Node11 -->
<g id="edge11" class="edge">
<title>Node8&#45;&gt;Node11</title>
<path fill="none" stroke="#191970" d="M389.4815,-123.4639C405.9148,-114.1332 427.2427,-102.0232 445.1747,-91.8415"/>
<polygon fill="#191970" stroke="#191970" points="447.2308,-94.699 454.1986,-86.7177 443.7744,-88.6117 447.2308,-94.699"/>
</g>
<!-- Node12 -->
<g id="node13" class="node">
<title>Node12</title>
<g id="a_node13"><a xlink:href="../../de/d28/entity__state_8hpp.html" target="_top" xlink:title="Entity state data structure.">
<polygon fill="none" stroke="#000000" points="590,-56.5 590,-86.5 772,-86.5 772,-56.5 590,-56.5"/>
<text text-anchor="start" x="598" y="-74.5" font-family="Fira Code" font-size="10.00" fill="#000000">travesim_adapters/data</text>
<text text-anchor="middle" x="681" y="-63.5" font-family="Fira Code" font-size="10.00" fill="#000000">/entity_state.hpp</text>
</a>
</g>
</g>
<!-- Node8&#45;&gt;Node12 -->
<g id="edge12" class="edge">
<title>Node8&#45;&gt;Node12</title>
<path fill="none" stroke="#191970" d="M434.3654,-123.4639C483.3784,-113.1373 548.5481,-99.4065 599.5877,-88.6529"/>
<polygon fill="#191970" stroke="#191970" points="600.5347,-92.0303 609.5982,-86.5438 599.0914,-85.1807 600.5347,-92.0303"/>
</g>
<!-- Node12&#45;&gt;Node10 -->
<g id="edge13" class="edge">
<title>Node12&#45;&gt;Node10</title>
<path fill="none" stroke="#191970" d="M642.1042,-56.4554C615.8074,-46.284 581.4083,-32.9787 556.1668,-23.2155"/>
<polygon fill="#191970" stroke="#191970" points="557.2286,-19.8735 546.6394,-19.5303 554.7034,-26.4022 557.2286,-19.8735"/>
</g>
</g>
</svg>
