<?xml version="1.0" encoding="UTF-8" standalone="no"?>
<!DOCTYPE svg PUBLIC "-//W3C//DTD SVG 1.1//EN"
 "http://www.w3.org/Graphics/SVG/1.1/DTD/svg11.dtd">
<!-- Generated by graphviz version 2.40.1 (0)
 -->
<!-- Title: travesim::udp::Sender Pages: 1 -->
<svg width="450pt" height="226pt"
 viewBox="0.00 0.00 450.00 226.00" xmlns="http://www.w3.org/2000/svg" xmlns:xlink="http://www.w3.org/1999/xlink">
<g id="graph0" class="graph" transform="scale(1 1) rotate(0) translate(4 222)">
<title>travesim::udp::Sender</title>
<!-- Node0 -->
<g id="node1" class="node">
<title>Node0</title>
<g id="a_node1"><a xlink:title="Sender class using UDP.">
<polygon fill="#bfbfbf" stroke="#000000" points="111.5,-105.5 111.5,-217.5 315.5,-217.5 315.5,-105.5 111.5,-105.5"/>
<text text-anchor="middle" x="213.5" y="-205.5" font-family="Fira Code" font-size="10.00" fill="#000000">travesim::udp::Sender</text>
<polyline fill="none" stroke="#000000" points="111.5,-198.5 315.5,-198.5 "/>
<text text-anchor="start" x="119.5" y="-186.5" font-family="Fira Code" font-size="10.00" fill="#000000"># socket</text>
<text text-anchor="start" x="119.5" y="-175.5" font-family="Fira Code" font-size="10.00" fill="#000000"># endpoint</text>
<text text-anchor="start" x="119.5" y="-164.5" font-family="Fira Code" font-size="10.00" fill="#000000">&#45; io_context</text>
<polyline fill="none" stroke="#000000" points="111.5,-157.5 315.5,-157.5 "/>
<text text-anchor="start" x="119.5" y="-145.5" font-family="Fira Code" font-size="10.00" fill="#000000">+ Sender()</text>
<text text-anchor="start" x="119.5" y="-134.5" font-family="Fira Code" font-size="10.00" fill="#000000">+ ~Sender()</text>
<text text-anchor="start" x="119.5" y="-123.5" font-family="Fira Code" font-size="10.00" fill="#000000">+ send()</text>
<text text-anchor="start" x="119.5" y="-112.5" font-family="Fira Code" font-size="10.00" fill="#000000">+ set_receiver_endpoint()</text>
</a>
</g>
</g>
<!-- Node1 -->
<g id="node2" class="node">
<title>Node1</title>
<g id="a_node2"><a xlink:href="../../d8/dbb/classtravesim_1_1udp_1_1MulticastSender.html" target="_top" xlink:title="Sender class using UDP in multicast mode.">
<polygon fill="none" stroke="#000000" points="0,-.5 0,-68.5 197,-68.5 197,-.5 0,-.5"/>
<text text-anchor="start" x="8" y="-56.5" font-family="Fira Code" font-size="10.00" fill="#000000">travesim::udp::Multicast</text>
<text text-anchor="middle" x="98.5" y="-45.5" font-family="Fira Code" font-size="10.00" fill="#000000">Sender</text>
<polyline fill="none" stroke="#000000" points="0,-38.5 197,-38.5 "/>
<text text-anchor="middle" x="98.5" y="-26.5" font-family="Fira Code" font-size="10.00" fill="#000000"> </text>
<polyline fill="none" stroke="#000000" points="0,-19.5 197,-19.5 "/>
<text text-anchor="start" x="8" y="-7.5" font-family="Fira Code" font-size="10.00" fill="#000000">+ MulticastSender()</text>
</a>
</g>
</g>
<!-- Node0&#45;&gt;Node1 -->
<g id="edge1" class="edge">
<title>Node0&#45;&gt;Node1</title>
<path fill="none" stroke="#191970" d="M155.8028,-97.7822C146.7333,-87.7663 137.6703,-77.7577 129.5165,-68.753"/>
<polygon fill="none" stroke="#191970" points="153.4179,-100.3629 162.7246,-105.4263 158.6068,-95.6644 153.4179,-100.3629"/>
</g>
<!-- Node2 -->
<g id="node3" class="node">
<title>Node2</title>
<g id="a_node3"><a xlink:href="../../d6/d3a/classtravesim_1_1udp_1_1UnicastSender.html" target="_top" xlink:title="Sender class using UDP in unicast mode.">
<polygon fill="none" stroke="#000000" points="215,-6 215,-63 442,-63 442,-6 215,-6"/>
<text text-anchor="middle" x="328.5" y="-51" font-family="Fira Code" font-size="10.00" fill="#000000">travesim::udp::UnicastSender</text>
<polyline fill="none" stroke="#000000" points="215,-44 442,-44 "/>
<text text-anchor="middle" x="328.5" y="-32" font-family="Fira Code" font-size="10.00" fill="#000000"> </text>
<polyline fill="none" stroke="#000000" points="215,-25 442,-25 "/>
<text text-anchor="start" x="223" y="-13" font-family="Fira Code" font-size="10.00" fill="#000000">+ UnicastSender()</text>
</a>
</g>
</g>
<!-- Node0&#45;&gt;Node2 -->
<g id="edge2" class="edge">
<title>Node0&#45;&gt;Node2</title>
<path fill="none" stroke="#191970" d="M271.1291,-97.8574C282.1586,-85.677 293.1817,-73.5036 302.5753,-63.1299"/>
<polygon fill="none" stroke="#191970" points="268.3932,-95.6644 264.2754,-105.4263 273.5821,-100.3629 268.3932,-95.6644"/>
</g>
</g>
</svg>
