<?xml version="1.0" encoding="UTF-8" standalone="no"?>
<!DOCTYPE svg PUBLIC "-//W3C//DTD SVG 1.1//EN"
 "http://www.w3.org/Graphics/SVG/1.1/DTD/svg11.dtd">
<!-- Generated by graphviz version 2.40.1 (0)
 -->
<!-- Title: include/travesim_adapters/data/field_state.hpp Pages: 1 -->
<!--zoomable 173 -->
<svg id="main" version="1.1" xmlns="http://www.w3.org/2000/svg" xmlns:xlink="http://www.w3.org/1999/xlink" xml:space="preserve" onload="init(evt)">
<style type="text/css"><![CDATA[
.edge:hover path { stroke: red; }
.edge:hover polygon { stroke: red; fill: red; }
]]></style>
<script type="text/javascript"><![CDATA[
var edges = document.getElementsByTagName('g');
if (edges && edges.length) {
  for (var i=0;i<edges.length;i++) {
    if (edges[i].id.substr(0,4)=='edge') {
      edges[i].setAttribute('class','edge');
    }
  }
}
]]></script>
        <defs>
                <circle id="rim" cx="0" cy="0" r="7"/>
                <circle id="rim2" cx="0" cy="0" r="3.5"/>
                <g id="zoomPlus">
                        <use xlink:href="#rim" fill="#404040">
                                <set attributeName="fill" to="#808080" begin="zoomplus.mouseover" end="zoomplus.mouseout"/>
                        </use>
                        <path d="M-4,0h8M0,-4v8" fill="none" stroke="white" stroke-width="1.5" pointer-events="none"/>
                </g>
                <g id="zoomMin">
                        <use xlink:href="#rim" fill="#404040">
                                <set attributeName="fill" to="#808080" begin="zoomminus.mouseover" end="zoomminus.mouseout"/>
                        </use>
                        <path d="M-4,0h8" fill="none" stroke="white" stroke-width="1.5" pointer-events="none"/>
                </g>
                <g id="dirArrow">
                        <path fill="none" stroke="white" stroke-width="1.5" d="M0,-3.0v7 M-2.5,-0.5L0,-3.0L2.5,-0.5"/>
                </g>
               <g id="resetDef">
                       <use xlink:href="#rim2" fill="#404040">
                               <set attributeName="fill" to="#808080" begin="reset.mouseover" end="reset.mouseout"/>
                       </use>
               </g>
        </defs>

<script type="text/javascript">
var viewWidth = 1489;
var viewHeight = 173;
var sectionId = 'dynsection-1';
</script>
<script xlink:href="../../svgpan.js"/>
<svg id="graph" class="graph">
<g id="viewport">
<title>include/travesim_adapters/data/field_state.hpp</title>
<!-- Node5 -->
<g id="node1" class="node">
<title>Node5</title>
<g id="a_node1"><a xlink:title=" ">
<polygon fill="#bfbfbf" stroke="#000000" points="919,-134.5 919,-164.5 1123,-164.5 1123,-134.5 919,-134.5"/>
<text text-anchor="start" x="927" y="-152.5" font-family="Fira Code" font-size="10.00" fill="#000000">include/travesim_adapters</text>
<text text-anchor="middle" x="1021" y="-141.5" font-family="Fira Code" font-size="10.00" fill="#000000">/data/field_state.hpp</text>
</a>
</g>
</g>
<!-- Node6 -->
<g id="node2" class="node">
<title>Node6</title>
<g id="a_node2"><a xlink:href="../../d2/d46/ros__side_8hpp.html" target="_top" xlink:title="Collection of data converters between ROS and local formats.">
<polygon fill="none" stroke="#000000" points="491.5,-67.5 491.5,-97.5 718.5,-97.5 718.5,-67.5 491.5,-67.5"/>
<text text-anchor="start" x="499.5" y="-85.5" font-family="Fira Code" font-size="10.00" fill="#000000">include/travesim_adapters</text>
<text text-anchor="middle" x="605" y="-74.5" font-family="Fira Code" font-size="10.00" fill="#000000">/data/converter/ros_side.hpp</text>
</a>
</g>
</g>
<!-- Node5&#45;&gt;Node6 -->
<g id="edge1" class="edge">
<title>Node5&#45;&gt;Node6</title>
<path fill="none" stroke="#191970" d="M917.4567,-132.8236C850.2793,-122.0041 763.4693,-108.0227 698.4061,-97.5438"/>
<polygon fill="#191970" stroke="#191970" points="917.2121,-136.3292 927.6415,-134.4639 918.3253,-129.4183 917.2121,-136.3292"/>
</g>
<!-- Node8 -->
<g id="node4" class="node">
<title>Node8</title>
<g id="a_node4"><a xlink:href="../../df/ddf/vision__adapter_8cpp.html" target="_top" xlink:title="Vision adapter executable file.">
<polygon fill="none" stroke="#000000" points="846,-6 846,-25 1058,-25 1058,-6 846,-6"/>
<text text-anchor="middle" x="952" y="-13" font-family="Fira Code" font-size="10.00" fill="#000000">src/bin/vision_adapter.cpp</text>
</a>
</g>
</g>
<!-- Node5&#45;&gt;Node8 -->
<g id="edge11" class="edge">
<title>Node5&#45;&gt;Node8</title>
<path fill="none" stroke="#191970" d="M994.3046,-127.3751C985.7122,-118.9926 976.8983,-108.8357 971,-98 957.9297,-73.9889 953.8222,-41.3177 952.5532,-25.246"/>
<polygon fill="#191970" stroke="#191970" points="992.0091,-130.0198 1001.7196,-134.2573 996.7711,-124.8891 992.0091,-130.0198"/>
</g>
<!-- Node12 -->
<g id="node8" class="node">
<title>Node12</title>
<g id="a_node8"><a xlink:href="../../db/da8/vision__sender_8hpp.html" target="_top" xlink:title="Vision data sender with UDP and protobuf.">
<polygon fill="none" stroke="#000000" points="980.5,-67.5 980.5,-97.5 1199.5,-97.5 1199.5,-67.5 980.5,-67.5"/>
<text text-anchor="start" x="988.5" y="-85.5" font-family="Fira Code" font-size="10.00" fill="#000000">include/travesim_adapters</text>
<text text-anchor="middle" x="1090" y="-74.5" font-family="Fira Code" font-size="10.00" fill="#000000">/protobuf/vision_sender.hpp</text>
</a>
</g>
</g>
<!-- Node5&#45;&gt;Node12 -->
<g id="edge7" class="edge">
<title>Node5&#45;&gt;Node12</title>
<path fill="none" stroke="#191970" d="M1043.954,-127.2113C1053.9543,-117.5009 1065.4176,-106.3698 1074.4048,-97.6432"/>
<polygon fill="#191970" stroke="#191970" points="1041.3932,-124.8193 1036.6572,-134.2967 1046.2697,-129.8413 1041.3932,-124.8193"/>
</g>
<!-- Node15 -->
<g id="node11" class="node">
<title>Node15</title>
<g id="a_node11"><a xlink:href="../../d2/dbb/field__state_8cpp.html" target="_top" xlink:title=" ">
<polygon fill="none" stroke="#000000" points="1218,-67.5 1218,-97.5 1370,-97.5 1370,-67.5 1218,-67.5"/>
<text text-anchor="start" x="1226" y="-85.5" font-family="Fira Code" font-size="10.00" fill="#000000">src/lib/data/field</text>
<text text-anchor="middle" x="1294" y="-74.5" font-family="Fira Code" font-size="10.00" fill="#000000">_state.cpp</text>
</a>
</g>
</g>
<!-- Node5&#45;&gt;Node15 -->
<g id="edge12" class="edge">
<title>Node5&#45;&gt;Node15</title>
<path fill="none" stroke="#191970" d="M1092.2144,-132.0225C1135.7369,-121.3411 1190.8425,-107.8171 1232.4663,-97.6017"/>
<polygon fill="#191970" stroke="#191970" points="1091.1441,-128.6812 1082.2665,-134.4639 1092.8126,-135.4795 1091.1441,-128.6812"/>
</g>
<!-- Node7 -->
<g id="node3" class="node">
<title>Node7</title>
<g id="a_node3"><a xlink:href="../../da/d85/replacer__adapter_8cpp.html" target="_top" xlink:title="Replacer adapter execution file.">
<polygon fill="none" stroke="#000000" points="600.5,-6 600.5,-25 827.5,-25 827.5,-6 600.5,-6"/>
<text text-anchor="middle" x="714" y="-13" font-family="Fira Code" font-size="10.00" fill="#000000">src/bin/replacer_adapter.cpp</text>
</a>
</g>
</g>
<!-- Node6&#45;&gt;Node7 -->
<g id="edge2" class="edge">
<title>Node6&#45;&gt;Node7</title>
<path fill="none" stroke="#191970" d="M638.0086,-62.2103C658.0425,-49.8959 682.6898,-34.7457 698.3757,-25.1039"/>
<polygon fill="#191970" stroke="#191970" points="636.1482,-59.2455 629.4617,-67.4639 639.8138,-65.209 636.1482,-59.2455"/>
</g>
<!-- Node6&#45;&gt;Node8 -->
<g id="edge3" class="edge">
<title>Node6&#45;&gt;Node8</title>
<path fill="none" stroke="#191970" d="M692.9299,-65.5222C759.4272,-52.6826 848.2965,-35.5235 902.7711,-25.0053"/>
<polygon fill="#191970" stroke="#191970" points="692.0287,-62.1315 682.8736,-67.4639 693.3558,-69.0045 692.0287,-62.1315"/>
</g>
<!-- Node9 -->
<g id="node5" class="node">
<title>Node9</title>
<g id="a_node5"><a xlink:href="../../de/d8d/ros__side_8cpp.html" target="_top" xlink:title="Collection of data converters between ROS and local formats.">
<polygon fill="none" stroke="#000000" points="0,-.5 0,-30.5 182,-30.5 182,-.5 0,-.5"/>
<text text-anchor="start" x="8" y="-18.5" font-family="Fira Code" font-size="10.00" fill="#000000">src/lib/data/converter</text>
<text text-anchor="middle" x="91" y="-7.5" font-family="Fira Code" font-size="10.00" fill="#000000">/ros_side.cpp</text>
</a>
</g>
</g>
<!-- Node6&#45;&gt;Node9 -->
<g id="edge4" class="edge">
<title>Node6&#45;&gt;Node9</title>
<path fill="none" stroke="#191970" d="M480.9505,-68.0544C398.6407,-58.2268 288.2656,-44.5847 191,-31 188.0421,-30.5869 185.036,-30.1603 182.0013,-29.7238"/>
<polygon fill="#191970" stroke="#191970" points="480.7563,-71.5559 491.1003,-69.2639 481.5847,-64.6051 480.7563,-71.5559"/>
</g>
<!-- Node10 -->
<g id="node6" class="node">
<title>Node10</title>
<g id="a_node6"><a xlink:href="../../d3/d2c/ros__side_8test_8cpp.html" target="_top" xlink:title=" ">
<polygon fill="none" stroke="#000000" points="200.5,-.5 200.5,-30.5 389.5,-30.5 389.5,-.5 200.5,-.5"/>
<text text-anchor="start" x="208.5" y="-18.5" font-family="Fira Code" font-size="10.00" fill="#000000">src/lib/data/converter</text>
<text text-anchor="middle" x="295" y="-7.5" font-family="Fira Code" font-size="10.00" fill="#000000">/test/ros_side.test.cpp</text>
</a>
</g>
</g>
<!-- Node6&#45;&gt;Node10 -->
<g id="edge5" class="edge">
<title>Node6&#45;&gt;Node10</title>
<path fill="none" stroke="#191970" d="M525.3616,-65.2878C475.6593,-54.5457 412.2937,-40.8506 364.6055,-30.5438"/>
<polygon fill="#191970" stroke="#191970" points="524.9162,-68.7723 535.4299,-67.4639 526.395,-61.9303 524.9162,-68.7723"/>
</g>
<!-- Node11 -->
<g id="node7" class="node">
<title>Node11</title>
<g id="a_node7"><a xlink:href="../../da/db5/gazebo__services_8mock_8cpp.html" target="_top" xlink:title=" ">
<polygon fill="none" stroke="#000000" points="408,-.5 408,-30.5 582,-30.5 582,-.5 408,-.5"/>
<text text-anchor="start" x="416" y="-18.5" font-family="Fira Code" font-size="10.00" fill="#000000">test/mocks/bin/gazebo</text>
<text text-anchor="middle" x="495" y="-7.5" font-family="Fira Code" font-size="10.00" fill="#000000">_services.mock.cpp</text>
</a>
</g>
</g>
<!-- Node6&#45;&gt;Node11 -->
<g id="edge6" class="edge">
<title>Node6&#45;&gt;Node11</title>
<path fill="none" stroke="#191970" d="M571.4682,-62.0761C554.8883,-51.9774 535.2212,-39.9983 519.9843,-30.7177"/>
<polygon fill="#191970" stroke="#191970" points="569.9527,-65.2511 580.3139,-67.4639 573.594,-59.2727 569.9527,-65.2511"/>
</g>
<!-- Node12&#45;&gt;Node8 -->
<g id="edge9" class="edge">
<title>Node12&#45;&gt;Node8</title>
<path fill="none" stroke="#191970" d="M1049.9064,-63.0343C1024.2503,-50.5781 992.0857,-34.9619 971.7812,-25.1039"/>
<polygon fill="#191970" stroke="#191970" points="1048.5056,-66.2448 1059.0301,-67.4639 1051.5629,-59.9478 1048.5056,-66.2448"/>
</g>
<!-- Node13 -->
<g id="node9" class="node">
<title>Node13</title>
<g id="a_node9"><a xlink:href="../../de/d50/vision__sender__example_8cpp.html" target="_top" xlink:title="Example on how to use the VisionSender with protobuf.">
<polygon fill="none" stroke="#000000" points="1283.5,-.5 1283.5,-30.5 1480.5,-30.5 1480.5,-.5 1283.5,-.5"/>
<text text-anchor="start" x="1291.5" y="-18.5" font-family="Fira Code" font-size="10.00" fill="#000000">examples/protobuf/vision</text>
<text text-anchor="middle" x="1382" y="-7.5" font-family="Fira Code" font-size="10.00" fill="#000000">_sender_example.cpp</text>
</a>
</g>
</g>
<!-- Node12&#45;&gt;Node13 -->
<g id="edge8" class="edge">
<title>Node12&#45;&gt;Node13</title>
<path fill="none" stroke="#191970" d="M1165.3076,-65.2205C1212.0797,-54.4886 1271.6107,-40.8291 1316.4361,-30.5438"/>
<polygon fill="#191970" stroke="#191970" points="1164.4945,-61.8161 1155.5305,-67.4639 1166.06,-68.6388 1164.4945,-61.8161"/>
</g>
<!-- Node14 -->
<g id="node10" class="node">
<title>Node14</title>
<g id="a_node10"><a xlink:href="../../d0/d19/vision__sender_8cpp.html" target="_top" xlink:title="Vision data sender with UDP and protobuf.">
<polygon fill="none" stroke="#000000" points="1076.5,-.5 1076.5,-30.5 1265.5,-30.5 1265.5,-.5 1076.5,-.5"/>
<text text-anchor="start" x="1084.5" y="-18.5" font-family="Fira Code" font-size="10.00" fill="#000000">src/lib/protobuf/vision</text>
<text text-anchor="middle" x="1171" y="-7.5" font-family="Fira Code" font-size="10.00" fill="#000000">_sender.cpp</text>
</a>
</g>
</g>
<!-- Node12&#45;&gt;Node14 -->
<g id="edge10" class="edge">
<title>Node12&#45;&gt;Node14</title>
<path fill="none" stroke="#191970" d="M1116.2575,-60.7808C1128.1567,-50.9383 1141.9356,-39.541 1152.6926,-30.6432"/>
<polygon fill="#191970" stroke="#191970" points="1113.8549,-58.2259 1108.3802,-67.2967 1118.3165,-63.6198 1113.8549,-58.2259"/>
</g>
</g>
</svg>
        <g id="navigator" transform="translate(0 0)" fill="#404254">
                <rect fill="#f2f5e9" fill-opacity="0.5" stroke="#606060" stroke-width=".5" x="0" y="0" width="60" height="60"/>
                <use id="zoomplus" xlink:href="#zoomPlus" x="17" y="9" onmousedown="handleZoom(evt,'in')"/>
                <use id="zoomminus" xlink:href="#zoomMin" x="42" y="9" onmousedown="handleZoom(evt,'out')"/>
                <use id="reset" xlink:href="#resetDef" x="30" y="36" onmousedown="handleReset()"/>
                <g id="arrowUp" xlink:href="#dirArrow" transform="translate(30 24)" onmousedown="handlePan(0,-1)">
                  <use xlink:href="#rim" fill="#404040">
                        <set attributeName="fill" to="#808080" begin="arrowUp.mouseover" end="arrowUp.mouseout"/>
                  </use>
                  <path fill="none" stroke="white" stroke-width="1.5" d="M0,-3.0v7 M-2.5,-0.5L0,-3.0L2.5,-0.5"/>
                </g>
                <g id="arrowRight" xlink:href="#dirArrow" transform="rotate(90) translate(36 -43)" onmousedown="handlePan(1,0)">
                  <use xlink:href="#rim" fill="#404040">
                        <set attributeName="fill" to="#808080" begin="arrowRight.mouseover" end="arrowRight.mouseout"/>
                  </use>
                  <path fill="none" stroke="white" stroke-width="1.5" d="M0,-3.0v7 M-2.5,-0.5L0,-3.0L2.5,-0.5"/>
                </g>
                <g id="arrowDown" xlink:href="#dirArrow" transform="rotate(180) translate(-30 -48)" onmousedown="handlePan(0,1)">
                  <use xlink:href="#rim" fill="#404040">
                        <set attributeName="fill" to="#808080" begin="arrowDown.mouseover" end="arrowDown.mouseout"/>
                  </use>
                  <path fill="none" stroke="white" stroke-width="1.5" d="M0,-3.0v7 M-2.5,-0.5L0,-3.0L2.5,-0.5"/>
                </g>
                <g id="arrowLeft" xlink:href="#dirArrow" transform="rotate(270) translate(-36 17)" onmousedown="handlePan(-1,0)">
                  <use xlink:href="#rim" fill="#404040">
                        <set attributeName="fill" to="#808080" begin="arrowLeft.mouseover" end="arrowLeft.mouseout"/>
                  </use>
                  <path fill="none" stroke="white" stroke-width="1.5" d="M0,-3.0v7 M-2.5,-0.5L0,-3.0L2.5,-0.5"/>
                </g>
        </g>
        <svg viewBox="0 0 15 15" width="100%" height="30px" preserveAspectRatio="xMaxYMin meet">
         <g id="arrow_out" transform="scale(0.3 0.3)">
          <a xlink:href="field__state_8hpp__dep__incl_org.svg" target="_base">
           <rect id="button" ry="5" rx="5" y="6" x="6" height="38" width="38"
                fill="#f2f5e9" fill-opacity="0.5" stroke="#606060" stroke-width="1.0"/>
           <path id="arrow"
             d="M 11.500037,31.436501 C 11.940474,20.09759 22.043105,11.32322 32.158766,21.979434 L 37.068811,17.246167 C 37.068811,17.246167 37.088388,32 37.088388,32 L 22.160133,31.978069 C 22.160133,31.978069 26.997745,27.140456 26.997745,27.140456 C 18.528582,18.264221 13.291696,25.230495 11.500037,31.436501 z"
             style="fill:#404040;"/>
          </a>
         </g>
        </svg>
</svg>
