<?xml version="1.0" encoding="UTF-8" standalone="no"?>
<!DOCTYPE svg PUBLIC "-//W3C//DTD SVG 1.1//EN"
 "http://www.w3.org/Graphics/SVG/1.1/DTD/svg11.dtd">
<!-- Generated by graphviz version 2.40.1 (0)
 -->
<!-- Title: travesim::VisionConfigurer::get_address Pages: 1 -->
<svg width="663pt" height="72pt"
 viewBox="0.00 0.00 663.00 71.50" xmlns="http://www.w3.org/2000/svg" xmlns:xlink="http://www.w3.org/1999/xlink">
<g id="graph0" class="graph" transform="scale(1 1) rotate(0) translate(4 67.5)">
<title>travesim::VisionConfigurer::get_address</title>
<!-- Node2 -->
<g id="node1" class="node">
<title>Node2</title>
<g id="a_node1"><a xlink:title="Get the vision configured address.">
<polygon fill="#bfbfbf" stroke="#000000" points="0,-14 0,-44 212,-44 212,-14 0,-14"/>
<text text-anchor="start" x="8" y="-32" font-family="Fira Code" font-size="10.00" fill="#000000">travesim::VisionConfigurer</text>
<text text-anchor="middle" x="106" y="-21" font-family="Fira Code" font-size="10.00" fill="#000000">::get_address</text>
</a>
</g>
</g>
<!-- Node3 -->
<g id="node2" class="node">
<title>Node3</title>
<g id="a_node2"><a xlink:href="../../d1/d4b/namespacetravesim.html#a05f869547c07b49b722c2afb6c1967ef" target="_top" xlink:title="Checks if a IP is valid and is in the specified range.">
<polygon fill="none" stroke="#000000" points="248,-38.5 248,-57.5 445,-57.5 445,-38.5 248,-38.5"/>
<text text-anchor="middle" x="346.5" y="-45.5" font-family="Fira Code" font-size="10.00" fill="#000000">travesim::check_valid_ip</text>
</a>
</g>
</g>
<!-- Node2&#45;&gt;Node3 -->
<g id="edge1" class="edge">
<title>Node2&#45;&gt;Node3</title>
<path fill="none" stroke="#191970" d="M212.1869,-37.389C220.5961,-38.0533 229.0983,-38.725 237.526,-39.3908"/>
<polygon fill="#191970" stroke="#191970" points="237.5131,-42.9006 247.7577,-40.1992 238.0644,-35.9224 237.5131,-42.9006"/>
</g>
<!-- Node5 -->
<g id="node4" class="node">
<title>Node5</title>
<g id="a_node4"><a xlink:href="../../d1/d4b/namespacetravesim.html#a32624f8212a09572f8587ea017f67d30" target="_top" xlink:title="Get the error msg based on the validation type.">
<polygon fill="none" stroke="#000000" points="252,-.5 252,-19.5 441,-19.5 441,-.5 252,-.5"/>
<text text-anchor="middle" x="346.5" y="-7.5" font-family="Fira Code" font-size="10.00" fill="#000000">travesim::get_error_msg</text>
</a>
</g>
</g>
<!-- Node2&#45;&gt;Node5 -->
<g id="edge3" class="edge">
<title>Node2&#45;&gt;Node5</title>
<path fill="none" stroke="#191970" d="M212.1869,-20.611C221.993,-19.8363 231.9257,-19.0516 241.7191,-18.2779"/>
<polygon fill="#191970" stroke="#191970" points="242.1701,-21.7533 251.8634,-17.4765 241.6187,-14.775 242.1701,-21.7533"/>
</g>
<!-- Node4 -->
<g id="node3" class="node">
<title>Node4</title>
<g id="a_node3"><a xlink:href="../../d1/d4b/namespacetravesim.html#ad051590d1f7aa8c749f82ed36c4b2cba" target="_top" xlink:title="Converts a IPv4 in a string to a array of unsigned integers, where the most significant byte of the I...">
<polygon fill="none" stroke="#000000" points="481,-33 481,-63 655,-63 655,-33 481,-33"/>
<text text-anchor="start" x="489" y="-51" font-family="Fira Code" font-size="10.00" fill="#000000">travesim::ipv4_string</text>
<text text-anchor="middle" x="568" y="-40" font-family="Fira Code" font-size="10.00" fill="#000000">_to_uint</text>
</a>
</g>
</g>
<!-- Node3&#45;&gt;Node4 -->
<g id="edge2" class="edge">
<title>Node3&#45;&gt;Node4</title>
<path fill="none" stroke="#191970" d="M445.2658,-48C453.7135,-48 462.2554,-48 470.6916,-48"/>
<polygon fill="#191970" stroke="#191970" points="470.9162,-51.5001 480.9162,-48 470.9162,-44.5001 470.9162,-51.5001"/>
</g>
</g>
</svg>
