<?xml version="1.0" encoding="UTF-8" standalone="no"?>
<!DOCTYPE svg PUBLIC "-//W3C//DTD SVG 1.1//EN"
 "http://www.w3.org/Graphics/SVG/1.1/DTD/svg11.dtd">
<!-- Generated by graphviz version 2.40.1 (0)
 -->
<!-- Title: travesim::RobotState Pages: 1 -->
<svg width="182pt" height="248pt"
 viewBox="0.00 0.00 182.00 248.00" xmlns="http://www.w3.org/2000/svg" xmlns:xlink="http://www.w3.org/1999/xlink">
<g id="graph0" class="graph" transform="scale(1 1) rotate(0) translate(4 244)">
<title>travesim::RobotState</title>
<!-- Node0 -->
<g id="node1" class="node">
<title>Node0</title>
<g id="a_node1"><a xlink:title="Data structure to hold the state of a robot in the simulation.">
<polygon fill="#bfbfbf" stroke="#000000" points="3.5,-.5 3.5,-90.5 170.5,-90.5 170.5,-.5 3.5,-.5"/>
<text text-anchor="middle" x="87" y="-78.5" font-family="Fira Code" font-size="10.00" fill="#000000">travesim::RobotState</text>
<polyline fill="none" stroke="#000000" points="3.5,-71.5 170.5,-71.5 "/>
<text text-anchor="start" x="11.5" y="-59.5" font-family="Fira Code" font-size="10.00" fill="#000000">+ is_yellow</text>
<text text-anchor="start" x="11.5" y="-48.5" font-family="Fira Code" font-size="10.00" fill="#000000">+ id</text>
<polyline fill="none" stroke="#000000" points="3.5,-41.5 170.5,-41.5 "/>
<text text-anchor="start" x="11.5" y="-29.5" font-family="Fira Code" font-size="10.00" fill="#000000">+ RobotState()</text>
<text text-anchor="start" x="11.5" y="-18.5" font-family="Fira Code" font-size="10.00" fill="#000000">+ RobotState()</text>
<text text-anchor="start" x="11.5" y="-7.5" font-family="Fira Code" font-size="10.00" fill="#000000">+ RobotState()</text>
</a>
</g>
</g>
<!-- Node1 -->
<g id="node2" class="node">
<title>Node1</title>
<g id="a_node2"><a xlink:href="../../d9/d12/classtravesim_1_1EntityState.html" target="_top" xlink:title="Data structure to hold the state of a entity in the simulation.">
<polygon fill="none" stroke="#000000" points="0,-127.5 0,-239.5 174,-239.5 174,-127.5 0,-127.5"/>
<text text-anchor="middle" x="87" y="-227.5" font-family="Fira Code" font-size="10.00" fill="#000000">travesim::EntityState</text>
<polyline fill="none" stroke="#000000" points="0,-220.5 174,-220.5 "/>
<text text-anchor="start" x="8" y="-208.5" font-family="Fira Code" font-size="10.00" fill="#000000">+ position</text>
<text text-anchor="start" x="8" y="-197.5" font-family="Fira Code" font-size="10.00" fill="#000000">+ velocity</text>
<text text-anchor="start" x="8" y="-186.5" font-family="Fira Code" font-size="10.00" fill="#000000">+ angular_position</text>
<text text-anchor="start" x="8" y="-175.5" font-family="Fira Code" font-size="10.00" fill="#000000">+ angular_velocity</text>
<polyline fill="none" stroke="#000000" points="0,-168.5 174,-168.5 "/>
<text text-anchor="start" x="8" y="-156.5" font-family="Fira Code" font-size="10.00" fill="#000000">+ EntityState()</text>
<text text-anchor="start" x="8" y="-145.5" font-family="Fira Code" font-size="10.00" fill="#000000">+ EntityState()</text>
<text text-anchor="start" x="8" y="-134.5" font-family="Fira Code" font-size="10.00" fill="#000000">+ ~EntityState()</text>
</a>
</g>
</g>
<!-- Node1&#45;&gt;Node0 -->
<g id="edge1" class="edge">
<title>Node1&#45;&gt;Node0</title>
<path fill="none" stroke="#191970" d="M87,-117.2386C87,-108.2122 87,-99.1233 87,-90.5909"/>
<polygon fill="none" stroke="#191970" points="83.5001,-117.3701 87,-127.3701 90.5001,-117.3702 83.5001,-117.3701"/>
</g>
</g>
</svg>
