<?xml version="1.0" encoding="UTF-8" standalone="no"?>
<!DOCTYPE svg PUBLIC "-//W3C//DTD SVG 1.1//EN"
 "http://www.w3.org/Graphics/SVG/1.1/DTD/svg11.dtd">
<!-- Generated by graphviz version 2.40.1 (0)
 -->
<!-- Title: include/travesim_adapters/udp/multicast_receiver.hpp Pages: 1 -->
<svg width="1013pt" height="106pt"
 viewBox="0.00 0.00 1012.50 106.00" xmlns="http://www.w3.org/2000/svg" xmlns:xlink="http://www.w3.org/1999/xlink">
<g id="graph0" class="graph" transform="scale(1 1) rotate(0) translate(4 102)">
<title>include/travesim_adapters/udp/multicast_receiver.hpp</title>
<!-- Node4 -->
<g id="node1" class="node">
<title>Node4</title>
<g id="a_node1"><a xlink:title="Receiver data using UDP in multicast mode.">
<polygon fill="#bfbfbf" stroke="#000000" points="416,-67.5 416,-97.5 635,-97.5 635,-67.5 416,-67.5"/>
<text text-anchor="start" x="424" y="-85.5" font-family="Fira Code" font-size="10.00" fill="#000000">include/travesim_adapters</text>
<text text-anchor="middle" x="525.5" y="-74.5" font-family="Fira Code" font-size="10.00" fill="#000000">/udp/multicast_receiver.hpp</text>
</a>
</g>
</g>
<!-- Node5 -->
<g id="node2" class="node">
<title>Node5</title>
<g id="a_node2"><a xlink:href="../../d7/df5/vision__receiver__example_8cpp.html" target="_top" xlink:title="Example to read data published from vision adapter.">
<polygon fill="none" stroke="#000000" points="0,-.5 0,-30.5 197,-30.5 197,-.5 0,-.5"/>
<text text-anchor="start" x="8" y="-18.5" font-family="Fira Code" font-size="10.00" fill="#000000">examples/protobuf/vision</text>
<text text-anchor="middle" x="98.5" y="-7.5" font-family="Fira Code" font-size="10.00" fill="#000000">_receiver_example.cpp</text>
</a>
</g>
</g>
<!-- Node4&#45;&gt;Node5 -->
<g id="edge1" class="edge">
<title>Node4&#45;&gt;Node5</title>
<path fill="none" stroke="#191970" d="M419.6433,-65.8902C350.6311,-55.0616 261.2968,-41.0442 194.376,-30.5438"/>
<polygon fill="#191970" stroke="#191970" points="419.2512,-69.3714 429.6729,-67.4639 420.3363,-62.456 419.2512,-69.3714"/>
</g>
<!-- Node6 -->
<g id="node3" class="node">
<title>Node6</title>
<g id="a_node3"><a xlink:href="../../d0/d9c/multicast__receiver__example_8cpp.html" target="_top" xlink:title="Example on how to use the MulticastReceiver.">
<polygon fill="none" stroke="#000000" points="215.5,-.5 215.5,-30.5 397.5,-30.5 397.5,-.5 215.5,-.5"/>
<text text-anchor="start" x="223.5" y="-18.5" font-family="Fira Code" font-size="10.00" fill="#000000">examples/udp/multicast</text>
<text text-anchor="middle" x="306.5" y="-7.5" font-family="Fira Code" font-size="10.00" fill="#000000">_receiver_example.cpp</text>
</a>
</g>
</g>
<!-- Node4&#45;&gt;Node6 -->
<g id="edge2" class="edge">
<title>Node4&#45;&gt;Node6</title>
<path fill="none" stroke="#191970" d="M466.3776,-64.4123C431.787,-53.8298 388.6201,-40.6235 355.8622,-30.6017"/>
<polygon fill="#191970" stroke="#191970" points="465.7657,-67.8852 476.3521,-67.4639 467.8136,-61.1914 465.7657,-67.8852"/>
</g>
<!-- Node7 -->
<g id="node4" class="node">
<title>Node7</title>
<g id="a_node4"><a xlink:href="../../d4/dfc/multicast__receiver__reset__example_8cpp.html" target="_top" xlink:title=" ">
<polygon fill="none" stroke="#000000" points="416,-.5 416,-30.5 635,-30.5 635,-.5 416,-.5"/>
<text text-anchor="start" x="424" y="-18.5" font-family="Fira Code" font-size="10.00" fill="#000000">examples/udp/multicast</text>
<text text-anchor="middle" x="525.5" y="-7.5" font-family="Fira Code" font-size="10.00" fill="#000000">_receiver_reset_example.cpp</text>
</a>
</g>
</g>
<!-- Node4&#45;&gt;Node7 -->
<g id="edge3" class="edge">
<title>Node4&#45;&gt;Node7</title>
<path fill="none" stroke="#191970" d="M525.5,-57.0249C525.5,-48.128 525.5,-38.4287 525.5,-30.6432"/>
<polygon fill="#191970" stroke="#191970" points="522.0001,-57.2966 525.5,-67.2967 529.0001,-57.2967 522.0001,-57.2966"/>
</g>
<!-- Node8 -->
<g id="node5" class="node">
<title>Node8</title>
<g id="a_node5"><a xlink:href="../../d7/d29/vision__adapter_8test_8cpp.html" target="_top" xlink:title=" ">
<polygon fill="none" stroke="#000000" points="653,-.5 653,-30.5 812,-30.5 812,-.5 653,-.5"/>
<text text-anchor="start" x="661" y="-18.5" font-family="Fira Code" font-size="10.00" fill="#000000">src/bin/test/vision</text>
<text text-anchor="middle" x="732.5" y="-7.5" font-family="Fira Code" font-size="10.00" fill="#000000">_adapter.test.cpp</text>
</a>
</g>
</g>
<!-- Node4&#45;&gt;Node8 -->
<g id="edge4" class="edge">
<title>Node4&#45;&gt;Node8</title>
<path fill="none" stroke="#191970" d="M581.8043,-64.2759C614.4281,-53.7165 655.0125,-40.5805 685.8425,-30.6017"/>
<polygon fill="#191970" stroke="#191970" points="580.3911,-61.0545 571.9548,-67.4639 582.5467,-67.7143 580.3911,-61.0545"/>
</g>
<!-- Node9 -->
<g id="node6" class="node">
<title>Node9</title>
<g id="a_node6"><a xlink:href="../../df/dda/multicast__receiver_8cpp.html" target="_top" xlink:title="Receiver data using UDP in multicast mode.">
<polygon fill="none" stroke="#000000" points="830.5,-.5 830.5,-30.5 1004.5,-30.5 1004.5,-.5 830.5,-.5"/>
<text text-anchor="start" x="838.5" y="-18.5" font-family="Fira Code" font-size="10.00" fill="#000000">src/lib/udp/multicast</text>
<text text-anchor="middle" x="917.5" y="-7.5" font-family="Fira Code" font-size="10.00" fill="#000000">_receiver.cpp</text>
</a>
</g>
</g>
<!-- Node4&#45;&gt;Node9 -->
<g id="edge5" class="edge">
<title>Node4&#45;&gt;Node9</title>
<path fill="none" stroke="#191970" d="M623.5132,-65.7477C687.1032,-54.879 769.2199,-40.8438 830.4968,-30.3704"/>
<polygon fill="#191970" stroke="#191970" points="622.7398,-62.3291 613.4725,-67.4639 623.9192,-69.229 622.7398,-62.3291"/>
</g>
</g>
</svg>
