<?xml version="1.0" encoding="UTF-8" standalone="no"?>
<!DOCTYPE svg PUBLIC "-//W3C//DTD SVG 1.1//EN"
 "http://www.w3.org/Graphics/SVG/1.1/DTD/svg11.dtd">
<!-- Generated by graphviz version 2.40.1 (0)
 -->
<!-- Title: travesim::converter::ModelStates_to_FieldState Pages: 1 -->
<svg width="692pt" height="88pt"
 viewBox="0.00 0.00 692.00 88.00" xmlns="http://www.w3.org/2000/svg" xmlns:xlink="http://www.w3.org/1999/xlink">
<g id="graph0" class="graph" transform="scale(1 1) rotate(0) translate(4 84)">
<title>travesim::converter::ModelStates_to_FieldState</title>
<!-- Node21 -->
<g id="node1" class="node">
<title>Node21</title>
<g id="a_node1"><a xlink:title="Function to convert gazebo_msgs::ModelStates to travesim::FieldState.">
<polygon fill="#bfbfbf" stroke="#000000" points="0,-24.5 0,-54.5 219,-54.5 219,-24.5 0,-24.5"/>
<text text-anchor="start" x="8" y="-42.5" font-family="Fira Code" font-size="10.00" fill="#000000">travesim::converter</text>
<text text-anchor="middle" x="109.5" y="-31.5" font-family="Fira Code" font-size="10.00" fill="#000000">::ModelStates_to_FieldState</text>
</a>
</g>
</g>
<!-- Node22 -->
<g id="node2" class="node">
<title>Node22</title>
<g id="a_node2"><a xlink:href="../../d6/d3d/namespacetravesim_1_1converter.html#aedf89b45b5636a0f772c62a984478c57" target="_top" xlink:title="Function to convert gazebo_msgs::ModelState to travesim::EntityState.">
<polygon fill="none" stroke="#000000" points="255,-24.5 255,-54.5 474,-54.5 474,-24.5 255,-24.5"/>
<text text-anchor="start" x="263" y="-42.5" font-family="Fira Code" font-size="10.00" fill="#000000">travesim::converter</text>
<text text-anchor="middle" x="364.5" y="-31.5" font-family="Fira Code" font-size="10.00" fill="#000000">::ModelState_to_EntityState</text>
</a>
</g>
</g>
<!-- Node21&#45;&gt;Node22 -->
<g id="edge1" class="edge">
<title>Node21&#45;&gt;Node22</title>
<path fill="none" stroke="#191970" d="M219.1228,-39.5C227.6608,-39.5 236.3079,-39.5 244.9068,-39.5"/>
<polygon fill="#191970" stroke="#191970" points="244.9698,-43.0001 254.9697,-39.5 244.9697,-36.0001 244.9698,-43.0001"/>
</g>
<!-- Node23 -->
<g id="node3" class="node">
<title>Node23</title>
<g id="a_node3"><a xlink:href="../../d6/d3d/namespacetravesim_1_1converter.html#a8b5c76ee2a1ed97cdf46ec41c5f54b68" target="_top" xlink:title="Function to convert geometry_msgs::Point to travesim::Vector2D.">
<polygon fill="none" stroke="#000000" points="517.5,-49.5 517.5,-79.5 676.5,-79.5 676.5,-49.5 517.5,-49.5"/>
<text text-anchor="start" x="525.5" y="-67.5" font-family="Fira Code" font-size="10.00" fill="#000000">travesim::converter</text>
<text text-anchor="middle" x="597" y="-56.5" font-family="Fira Code" font-size="10.00" fill="#000000">::Point_to_Vector2D</text>
</a>
</g>
</g>
<!-- Node22&#45;&gt;Node23 -->
<g id="edge2" class="edge">
<title>Node22&#45;&gt;Node23</title>
<path fill="none" stroke="#191970" d="M474.282,-51.3045C485.2414,-52.4829 496.2777,-53.6696 506.9996,-54.8225"/>
<polygon fill="#191970" stroke="#191970" points="506.8534,-58.3269 517.1703,-55.9162 507.6019,-51.367 506.8534,-58.3269"/>
</g>
<!-- Node24 -->
<g id="node4" class="node">
<title>Node24</title>
<g id="a_node4"><a xlink:href="../../d6/d3d/namespacetravesim_1_1converter.html#a6e075638ef35b4c6d5926d65bc5d79e6" target="_top" xlink:title="Function to convert geometry_msgs::Vector3 to travesim::Vector2D.">
<polygon fill="none" stroke="#000000" points="510,-.5 510,-30.5 684,-30.5 684,-.5 510,-.5"/>
<text text-anchor="start" x="518" y="-18.5" font-family="Fira Code" font-size="10.00" fill="#000000">travesim::converter</text>
<text text-anchor="middle" x="597" y="-7.5" font-family="Fira Code" font-size="10.00" fill="#000000">::Vector3_to_Vector2D</text>
</a>
</g>
</g>
<!-- Node22&#45;&gt;Node24 -->
<g id="edge3" class="edge">
<title>Node22&#45;&gt;Node24</title>
<path fill="none" stroke="#191970" d="M474.282,-28.1677C482.7245,-27.2962 491.2127,-26.42 499.5676,-25.5575"/>
<polygon fill="#191970" stroke="#191970" points="500.093,-29.022 509.6807,-24.5136 499.3741,-22.059 500.093,-29.022"/>
</g>
</g>
</svg>
