<?xml version="1.0" encoding="UTF-8" standalone="no"?>
<!DOCTYPE svg PUBLIC "-//W3C//DTD SVG 1.1//EN"
 "http://www.w3.org/Graphics/SVG/1.1/DTD/svg11.dtd">
<!-- Generated by graphviz version 2.40.1 (0)
 -->
<!-- Title: travesim::converter::Point_to_Vector2D Pages: 1 -->
<svg width="760pt" height="88pt"
 viewBox="0.00 0.00 760.00 88.00" xmlns="http://www.w3.org/2000/svg" xmlns:xlink="http://www.w3.org/1999/xlink">
<g id="graph0" class="graph" transform="scale(1 1) rotate(0) translate(4 84)">
<title>travesim::converter::Point_to_Vector2D</title>
<!-- Node28 -->
<g id="node1" class="node">
<title>Node28</title>
<g id="a_node1"><a xlink:title="Function to convert geometry_msgs::Point to travesim::Vector2D.">
<polygon fill="#bfbfbf" stroke="#000000" points="593,-24.5 593,-54.5 752,-54.5 752,-24.5 593,-24.5"/>
<text text-anchor="start" x="601" y="-42.5" font-family="Fira Code" font-size="10.00" fill="#000000">travesim::converter</text>
<text text-anchor="middle" x="672.5" y="-31.5" font-family="Fira Code" font-size="10.00" fill="#000000">::Point_to_Vector2D</text>
</a>
</g>
</g>
<!-- Node29 -->
<g id="node2" class="node">
<title>Node29</title>
<g id="a_node2"><a xlink:href="../../d6/d3d/namespacetravesim_1_1converter.html#aedf89b45b5636a0f772c62a984478c57" target="_top" xlink:title="Function to convert gazebo_msgs::ModelState to travesim::EntityState.">
<polygon fill="none" stroke="#000000" points="338,-24.5 338,-54.5 557,-54.5 557,-24.5 338,-24.5"/>
<text text-anchor="start" x="346" y="-42.5" font-family="Fira Code" font-size="10.00" fill="#000000">travesim::converter</text>
<text text-anchor="middle" x="447.5" y="-31.5" font-family="Fira Code" font-size="10.00" fill="#000000">::ModelState_to_EntityState</text>
</a>
</g>
</g>
<!-- Node28&#45;&gt;Node29 -->
<g id="edge1" class="edge">
<title>Node28&#45;&gt;Node29</title>
<path fill="none" stroke="#191970" d="M582.7678,-39.5C574.4149,-39.5 565.8873,-39.5 557.3796,-39.5"/>
<polygon fill="#191970" stroke="#191970" points="582.8568,-43.0001 592.8568,-39.5 582.8567,-36.0001 582.8568,-43.0001"/>
</g>
<!-- Node30 -->
<g id="node3" class="node">
<title>Node30</title>
<g id="a_node3"><a xlink:href="../../d6/d3d/namespacetravesim_1_1converter.html#ad069caedbbdc9fa3d8f6ab368f4037f2" target="_top" xlink:title="Function to convert gazebo_msgs::ModelState to travesim::RobotState.">
<polygon fill="none" stroke="#000000" points="86.5,-49.5 86.5,-79.5 298.5,-79.5 298.5,-49.5 86.5,-49.5"/>
<text text-anchor="start" x="94.5" y="-67.5" font-family="Fira Code" font-size="10.00" fill="#000000">travesim::converter</text>
<text text-anchor="middle" x="192.5" y="-56.5" font-family="Fira Code" font-size="10.00" fill="#000000">::ModelState_to_RobotState</text>
</a>
</g>
</g>
<!-- Node29&#45;&gt;Node30 -->
<g id="edge2" class="edge">
<title>Node29&#45;&gt;Node30</title>
<path fill="none" stroke="#191970" d="M327.8136,-51.234C318.1267,-52.1837 308.3794,-53.1393 298.7965,-54.0788"/>
<polygon fill="#191970" stroke="#191970" points="328.2664,-54.7064 337.8772,-50.2473 327.5833,-47.7398 328.2664,-54.7064"/>
</g>
<!-- Node32 -->
<g id="node5" class="node">
<title>Node32</title>
<g id="a_node5"><a xlink:href="../../d6/d3d/namespacetravesim_1_1converter.html#a3fb6e91bc430b97fd2d0333591a997c9" target="_top" xlink:title="Function to convert gazebo_msgs::ModelStates to travesim::FieldState.">
<polygon fill="none" stroke="#000000" points="83,-.5 83,-30.5 302,-30.5 302,-.5 83,-.5"/>
<text text-anchor="start" x="91" y="-18.5" font-family="Fira Code" font-size="10.00" fill="#000000">travesim::converter</text>
<text text-anchor="middle" x="192.5" y="-7.5" font-family="Fira Code" font-size="10.00" fill="#000000">::ModelStates_to_FieldState</text>
</a>
</g>
</g>
<!-- Node29&#45;&gt;Node32 -->
<g id="edge4" class="edge">
<title>Node29&#45;&gt;Node32</title>
<path fill="none" stroke="#191970" d="M327.8136,-28.2354C319.2143,-27.4261 310.5675,-26.6122 302.0303,-25.8087"/>
<polygon fill="#191970" stroke="#191970" points="327.5932,-31.73 337.8772,-29.1826 328.2492,-24.7608 327.5932,-31.73"/>
</g>
<!-- Node31 -->
<g id="node4" class="node">
<title>Node31</title>
<g id="a_node4"><a xlink:href="../../d3/d2c/ros__side_8test_8cpp.html#ad457804bfed4a722d3cb3aa29aa5d1c0" target="_top" xlink:title=" ">
<polygon fill="none" stroke="#000000" points="0,-55 0,-74 47,-74 47,-55 0,-55"/>
<text text-anchor="middle" x="23.5" y="-62" font-family="Fira Code" font-size="10.00" fill="#000000">TEST</text>
</a>
</g>
</g>
<!-- Node30&#45;&gt;Node31 -->
<g id="edge3" class="edge">
<title>Node30&#45;&gt;Node31</title>
<path fill="none" stroke="#191970" d="M76.257,-64.5C65.4034,-64.5 55.3672,-64.5 47.0265,-64.5"/>
<polygon fill="#191970" stroke="#191970" points="76.4294,-68.0001 86.4294,-64.5 76.4293,-61.0001 76.4294,-68.0001"/>
</g>
<!-- Node33 -->
<g id="node6" class="node">
<title>Node33</title>
<g id="a_node6"><a xlink:href="../../df/ddf/vision__adapter_8cpp.html#a3c04138a5bfe5d72780bb7e82a18e627" target="_top" xlink:title=" ">
<polygon fill="none" stroke="#000000" points="0,-6 0,-25 47,-25 47,-6 0,-6"/>
<text text-anchor="middle" x="23.5" y="-13" font-family="Fira Code" font-size="10.00" fill="#000000">main</text>
</a>
</g>
</g>
<!-- Node32&#45;&gt;Node33 -->
<g id="edge5" class="edge">
<title>Node32&#45;&gt;Node33</title>
<path fill="none" stroke="#191970" d="M72.5763,-15.5C63.1738,-15.5 54.4858,-15.5 47.1154,-15.5"/>
<polygon fill="#191970" stroke="#191970" points="72.608,-19.0001 82.608,-15.5 72.608,-12.0001 72.608,-19.0001"/>
</g>
</g>
</svg>
