<?xml version="1.0" encoding="UTF-8" standalone="no"?>
<!DOCTYPE svg PUBLIC "-//W3C//DTD SVG 1.1//EN"
 "http://www.w3.org/Graphics/SVG/1.1/DTD/svg11.dtd">
<!-- Generated by graphviz version 2.40.1 (0)
 -->
<!-- Title: travesim::converter::Vector3_to_Vector2D Pages: 1 -->
<svg width="775pt" height="102pt"
 viewBox="0.00 0.00 775.00 101.50" xmlns="http://www.w3.org/2000/svg" xmlns:xlink="http://www.w3.org/1999/xlink">
<g id="graph0" class="graph" transform="scale(1 1) rotate(0) translate(4 97.5)">
<title>travesim::converter::Vector3_to_Vector2D</title>
<!-- Node55 -->
<g id="node1" class="node">
<title>Node55</title>
<g id="a_node1"><a xlink:title="Function to convert geometry_msgs::Vector3 to travesim::Vector2D.">
<polygon fill="#bfbfbf" stroke="#000000" points="593,-17 593,-47 767,-47 767,-17 593,-17"/>
<text text-anchor="start" x="601" y="-35" font-family="Fira Code" font-size="10.00" fill="#000000">travesim::converter</text>
<text text-anchor="middle" x="680" y="-24" font-family="Fira Code" font-size="10.00" fill="#000000">::Vector3_to_Vector2D</text>
</a>
</g>
</g>
<!-- Node56 -->
<g id="node2" class="node">
<title>Node56</title>
<g id="a_node2"><a xlink:href="../../d6/d3d/namespacetravesim_1_1converter.html#aedf89b45b5636a0f772c62a984478c57" target="_top" xlink:title="Function to convert gazebo_msgs::ModelState to travesim::EntityState.">
<polygon fill="none" stroke="#000000" points="338,-39 338,-69 557,-69 557,-39 338,-39"/>
<text text-anchor="start" x="346" y="-57" font-family="Fira Code" font-size="10.00" fill="#000000">travesim::converter</text>
<text text-anchor="middle" x="447.5" y="-46" font-family="Fira Code" font-size="10.00" fill="#000000">::ModelState_to_EntityState</text>
</a>
</g>
</g>
<!-- Node55&#45;&gt;Node56 -->
<g id="edge1" class="edge">
<title>Node55&#45;&gt;Node56</title>
<path fill="none" stroke="#191970" d="M582.6165,-41.2148C574.2327,-42.0081 565.7143,-42.8141 557.2422,-43.6158"/>
<polygon fill="#191970" stroke="#191970" points="583.1383,-44.6811 592.7641,-40.2546 582.4788,-37.7123 583.1383,-44.6811"/>
</g>
<!-- Node61 -->
<g id="node7" class="node">
<title>Node61</title>
<g id="a_node7"><a xlink:href="../../d3/d2c/ros__side_8test_8cpp.html#acda46ba2eb140948a6422f997098f954" target="_top" xlink:title=" ">
<polygon fill="none" stroke="#000000" points="424,-.5 424,-19.5 471,-19.5 471,-.5 424,-.5"/>
<text text-anchor="middle" x="447.5" y="-7.5" font-family="Fira Code" font-size="10.00" fill="#000000">TEST</text>
</a>
</g>
</g>
<!-- Node55&#45;&gt;Node61 -->
<g id="edge6" class="edge">
<title>Node55&#45;&gt;Node61</title>
<path fill="none" stroke="#191970" d="M582.6925,-22.7924C541.6609,-18.9099 497.3938,-14.7211 471.0855,-12.2317"/>
<polygon fill="#191970" stroke="#191970" points="582.4788,-26.2877 592.7641,-23.7454 583.1383,-19.3189 582.4788,-26.2877"/>
</g>
<!-- Node57 -->
<g id="node3" class="node">
<title>Node57</title>
<g id="a_node3"><a xlink:href="../../d6/d3d/namespacetravesim_1_1converter.html#ad069caedbbdc9fa3d8f6ab368f4037f2" target="_top" xlink:title="Function to convert gazebo_msgs::ModelState to travesim::RobotState.">
<polygon fill="none" stroke="#000000" points="86.5,-63 86.5,-93 298.5,-93 298.5,-63 86.5,-63"/>
<text text-anchor="start" x="94.5" y="-81" font-family="Fira Code" font-size="10.00" fill="#000000">travesim::converter</text>
<text text-anchor="middle" x="192.5" y="-70" font-family="Fira Code" font-size="10.00" fill="#000000">::ModelState_to_RobotState</text>
</a>
</g>
</g>
<!-- Node56&#45;&gt;Node57 -->
<g id="edge2" class="edge">
<title>Node56&#45;&gt;Node57</title>
<path fill="none" stroke="#191970" d="M327.8136,-65.2646C318.1267,-66.1763 308.3794,-67.0937 298.7965,-67.9956"/>
<polygon fill="#191970" stroke="#191970" points="328.2492,-68.7392 337.8772,-64.3174 327.5932,-61.77 328.2492,-68.7392"/>
</g>
<!-- Node59 -->
<g id="node5" class="node">
<title>Node59</title>
<g id="a_node5"><a xlink:href="../../d6/d3d/namespacetravesim_1_1converter.html#a3fb6e91bc430b97fd2d0333591a997c9" target="_top" xlink:title="Function to convert gazebo_msgs::ModelStates to travesim::FieldState.">
<polygon fill="none" stroke="#000000" points="83,-14 83,-44 302,-44 302,-14 83,-14"/>
<text text-anchor="start" x="91" y="-32" font-family="Fira Code" font-size="10.00" fill="#000000">travesim::converter</text>
<text text-anchor="middle" x="192.5" y="-21" font-family="Fira Code" font-size="10.00" fill="#000000">::ModelStates_to_FieldState</text>
</a>
</g>
</g>
<!-- Node56&#45;&gt;Node59 -->
<g id="edge4" class="edge">
<title>Node56&#45;&gt;Node59</title>
<path fill="none" stroke="#191970" d="M327.8136,-42.266C319.2143,-41.423 310.5675,-40.5752 302.0303,-39.7383"/>
<polygon fill="#191970" stroke="#191970" points="327.5833,-45.7602 337.8772,-43.2527 328.2664,-38.7936 327.5833,-45.7602"/>
</g>
<!-- Node58 -->
<g id="node4" class="node">
<title>Node58</title>
<g id="a_node4"><a xlink:href="../../d3/d2c/ros__side_8test_8cpp.html#ad457804bfed4a722d3cb3aa29aa5d1c0" target="_top" xlink:title=" ">
<polygon fill="none" stroke="#000000" points="0,-68.5 0,-87.5 47,-87.5 47,-68.5 0,-68.5"/>
<text text-anchor="middle" x="23.5" y="-75.5" font-family="Fira Code" font-size="10.00" fill="#000000">TEST</text>
</a>
</g>
</g>
<!-- Node57&#45;&gt;Node58 -->
<g id="edge3" class="edge">
<title>Node57&#45;&gt;Node58</title>
<path fill="none" stroke="#191970" d="M76.257,-78C65.4034,-78 55.3672,-78 47.0265,-78"/>
<polygon fill="#191970" stroke="#191970" points="76.4294,-81.5001 86.4294,-78 76.4293,-74.5001 76.4294,-81.5001"/>
</g>
<!-- Node60 -->
<g id="node6" class="node">
<title>Node60</title>
<g id="a_node6"><a xlink:href="../../df/ddf/vision__adapter_8cpp.html#a3c04138a5bfe5d72780bb7e82a18e627" target="_top" xlink:title=" ">
<polygon fill="none" stroke="#000000" points="0,-19.5 0,-38.5 47,-38.5 47,-19.5 0,-19.5"/>
<text text-anchor="middle" x="23.5" y="-26.5" font-family="Fira Code" font-size="10.00" fill="#000000">main</text>
</a>
</g>
</g>
<!-- Node59&#45;&gt;Node60 -->
<g id="edge5" class="edge">
<title>Node59&#45;&gt;Node60</title>
<path fill="none" stroke="#191970" d="M72.5763,-29C63.1738,-29 54.4858,-29 47.1154,-29"/>
<polygon fill="#191970" stroke="#191970" points="72.608,-32.5001 82.608,-29 72.608,-25.5001 72.608,-32.5001"/>
</g>
</g>
</svg>
