<?xml version="1.0" encoding="UTF-8" standalone="no"?>
<!DOCTYPE svg PUBLIC "-//W3C//DTD SVG 1.1//EN"
 "http://www.w3.org/Graphics/SVG/1.1/DTD/svg11.dtd">
<!-- Generated by graphviz version 2.40.1 (0)
 -->
<!-- Title: travesim::converter::Vector2D_to_Point Pages: 1 -->
<!--zoomable 75 -->
<svg id="main" version="1.1" xmlns="http://www.w3.org/2000/svg" xmlns:xlink="http://www.w3.org/1999/xlink" xml:space="preserve" onload="init(evt)">
<style type="text/css"><![CDATA[
.edge:hover path { stroke: red; }
.edge:hover polygon { stroke: red; fill: red; }
]]></style>
<script type="text/javascript"><![CDATA[
var edges = document.getElementsByTagName('g');
if (edges && edges.length) {
  for (var i=0;i<edges.length;i++) {
    if (edges[i].id.substr(0,4)=='edge') {
      edges[i].setAttribute('class','edge');
    }
  }
}
]]></script>
        <defs>
                <circle id="rim" cx="0" cy="0" r="7"/>
                <circle id="rim2" cx="0" cy="0" r="3.5"/>
                <g id="zoomPlus">
                        <use xlink:href="#rim" fill="#404040">
                                <set attributeName="fill" to="#808080" begin="zoomplus.mouseover" end="zoomplus.mouseout"/>
                        </use>
                        <path d="M-4,0h8M0,-4v8" fill="none" stroke="white" stroke-width="1.5" pointer-events="none"/>
                </g>
                <g id="zoomMin">
                        <use xlink:href="#rim" fill="#404040">
                                <set attributeName="fill" to="#808080" begin="zoomminus.mouseover" end="zoomminus.mouseout"/>
                        </use>
                        <path d="M-4,0h8" fill="none" stroke="white" stroke-width="1.5" pointer-events="none"/>
                </g>
                <g id="dirArrow">
                        <path fill="none" stroke="white" stroke-width="1.5" d="M0,-3.0v7 M-2.5,-0.5L0,-3.0L2.5,-0.5"/>
                </g>
               <g id="resetDef">
                       <use xlink:href="#rim2" fill="#404040">
                               <set attributeName="fill" to="#808080" begin="reset.mouseover" end="reset.mouseout"/>
                       </use>
               </g>
        </defs>

<script type="text/javascript">
var viewWidth = 753;
var viewHeight = 75;
var sectionId = 'dynsection-11';
</script>
<script xlink:href="../../svgpan.js"/>
<svg id="graph" class="graph">
<g id="viewport">
<title>travesim::converter::Vector2D_to_Point</title>
<!-- Node42 -->
<g id="node1" class="node">
<title>Node42</title>
<g id="a_node1"><a xlink:title="Function to convert travesim::Vector2D to geometry_msgs::Point.">
<polygon fill="#bfbfbf" stroke="#000000" points="586,-22.5 586,-52.5 745,-52.5 745,-22.5 586,-22.5"/>
<text text-anchor="start" x="594" y="-40.5" font-family="Fira Code" font-size="10.00" fill="#000000">travesim::converter</text>
<text text-anchor="middle" x="665.5" y="-29.5" font-family="Fira Code" font-size="10.00" fill="#000000">::Vector2D_to_Point</text>
</a>
</g>
</g>
<!-- Node43 -->
<g id="node2" class="node">
<title>Node43</title>
<g id="a_node2"><a xlink:href="../../d6/d3d/namespacetravesim_1_1converter.html#a6d486910a036b99f60fc65798e1f9422" target="_top" xlink:title="Function to convert travesim::EntityState to gazebo_msgs::ModelState.">
<polygon fill="none" stroke="#000000" points="331,-22.5 331,-52.5 550,-52.5 550,-22.5 331,-22.5"/>
<text text-anchor="start" x="339" y="-40.5" font-family="Fira Code" font-size="10.00" fill="#000000">travesim::converter</text>
<text text-anchor="middle" x="440.5" y="-29.5" font-family="Fira Code" font-size="10.00" fill="#000000">::EntityState_to_ModelState</text>
</a>
</g>
</g>
<!-- Node42&#45;&gt;Node43 -->
<g id="edge1" class="edge">
<title>Node42&#45;&gt;Node43</title>
<path fill="none" stroke="#191970" d="M575.7678,-37.5C567.4149,-37.5 558.8873,-37.5 550.3796,-37.5"/>
<polygon fill="#191970" stroke="#191970" points="575.8568,-41.0001 585.8568,-37.5 575.8567,-34.0001 575.8568,-41.0001"/>
</g>
<!-- Node44 -->
<g id="node3" class="node">
<title>Node44</title>
<g id="a_node3"><a xlink:href="../../da/d85/replacer__adapter_8cpp.html#a3c04138a5bfe5d72780bb7e82a18e627" target="_top" xlink:title=" ">
<polygon fill="none" stroke="#000000" points="0,-47 0,-66 47,-66 47,-47 0,-47"/>
<text text-anchor="middle" x="23.5" y="-54" font-family="Fira Code" font-size="10.00" fill="#000000">main</text>
</a>
</g>
</g>
<!-- Node43&#45;&gt;Node44 -->
<g id="edge2" class="edge">
<title>Node43&#45;&gt;Node44</title>
<path fill="none" stroke="#191970" d="M320.9163,-42.9487C225.392,-47.3011 99.2276,-53.0496 47.3416,-55.4137"/>
<polygon fill="#191970" stroke="#191970" points="321.1079,-46.4437 330.9382,-42.492 320.7892,-39.4509 321.1079,-46.4437"/>
</g>
<!-- Node45 -->
<g id="node4" class="node">
<title>Node45</title>
<g id="a_node4"><a xlink:href="../../d6/d3d/namespacetravesim_1_1converter.html#ac5627853c78581bcfe89dea3d7c32cca" target="_top" xlink:title="Function to convert travesim::RobotState to gazebo_msgs::ModelState.">
<polygon fill="none" stroke="#000000" points="83,-.5 83,-30.5 295,-30.5 295,-.5 83,-.5"/>
<text text-anchor="start" x="91" y="-18.5" font-family="Fira Code" font-size="10.00" fill="#000000">travesim::converter</text>
<text text-anchor="middle" x="189" y="-7.5" font-family="Fira Code" font-size="10.00" fill="#000000">::RobotState_to_ModelState</text>
</a>
</g>
</g>
<!-- Node43&#45;&gt;Node45 -->
<g id="edge3" class="edge">
<title>Node43&#45;&gt;Node45</title>
<path fill="none" stroke="#191970" d="M320.8311,-27.0319C312.2136,-26.2781 303.558,-25.521 295.0265,-24.7747"/>
<polygon fill="#191970" stroke="#191970" points="320.6531,-30.5296 330.9201,-27.9145 321.2631,-23.5563 320.6531,-30.5296"/>
</g>
<!-- Node45&#45;&gt;Node44 -->
<g id="edge4" class="edge">
<title>Node45&#45;&gt;Node44</title>
<path fill="none" stroke="#191970" d="M118.5989,-32.9408C92.9898,-39.285 65.7666,-46.0291 47.0391,-50.6686"/>
<polygon fill="#191970" stroke="#191970" points="119.4487,-36.3361 128.3137,-30.5341 117.7654,-29.5415 119.4487,-36.3361"/>
</g>
<!-- Node46 -->
<g id="node5" class="node">
<title>Node46</title>
<g id="a_node5"><a xlink:href="../../d3/d2c/ros__side_8test_8cpp.html#a66871950e45ea719d29caf28b40b0fda" target="_top" xlink:title=" ">
<polygon fill="none" stroke="#000000" points="0,-6 0,-25 47,-25 47,-6 0,-6"/>
<text text-anchor="middle" x="23.5" y="-13" font-family="Fira Code" font-size="10.00" fill="#000000">TEST</text>
</a>
</g>
</g>
<!-- Node45&#45;&gt;Node46 -->
<g id="edge5" class="edge">
<title>Node45&#45;&gt;Node46</title>
<path fill="none" stroke="#191970" d="M72.7571,-15.5C63.3537,-15.5 54.6445,-15.5 47.2465,-15.5"/>
<polygon fill="#191970" stroke="#191970" points="72.7819,-19.0001 82.7818,-15.5 72.7818,-12.0001 72.7819,-19.0001"/>
</g>
</g>
</svg>
        <g id="navigator" transform="translate(0 0)" fill="#404254">
                <rect fill="#f2f5e9" fill-opacity="0.5" stroke="#606060" stroke-width=".5" x="0" y="0" width="60" height="60"/>
                <use id="zoomplus" xlink:href="#zoomPlus" x="17" y="9" onmousedown="handleZoom(evt,'in')"/>
                <use id="zoomminus" xlink:href="#zoomMin" x="42" y="9" onmousedown="handleZoom(evt,'out')"/>
                <use id="reset" xlink:href="#resetDef" x="30" y="36" onmousedown="handleReset()"/>
                <g id="arrowUp" xlink:href="#dirArrow" transform="translate(30 24)" onmousedown="handlePan(0,-1)">
                  <use xlink:href="#rim" fill="#404040">
                        <set attributeName="fill" to="#808080" begin="arrowUp.mouseover" end="arrowUp.mouseout"/>
                  </use>
                  <path fill="none" stroke="white" stroke-width="1.5" d="M0,-3.0v7 M-2.5,-0.5L0,-3.0L2.5,-0.5"/>
                </g>
                <g id="arrowRight" xlink:href="#dirArrow" transform="rotate(90) translate(36 -43)" onmousedown="handlePan(1,0)">
                  <use xlink:href="#rim" fill="#404040">
                        <set attributeName="fill" to="#808080" begin="arrowRight.mouseover" end="arrowRight.mouseout"/>
                  </use>
                  <path fill="none" stroke="white" stroke-width="1.5" d="M0,-3.0v7 M-2.5,-0.5L0,-3.0L2.5,-0.5"/>
                </g>
                <g id="arrowDown" xlink:href="#dirArrow" transform="rotate(180) translate(-30 -48)" onmousedown="handlePan(0,1)">
                  <use xlink:href="#rim" fill="#404040">
                        <set attributeName="fill" to="#808080" begin="arrowDown.mouseover" end="arrowDown.mouseout"/>
                  </use>
                  <path fill="none" stroke="white" stroke-width="1.5" d="M0,-3.0v7 M-2.5,-0.5L0,-3.0L2.5,-0.5"/>
                </g>
                <g id="arrowLeft" xlink:href="#dirArrow" transform="rotate(270) translate(-36 17)" onmousedown="handlePan(-1,0)">
                  <use xlink:href="#rim" fill="#404040">
                        <set attributeName="fill" to="#808080" begin="arrowLeft.mouseover" end="arrowLeft.mouseout"/>
                  </use>
                  <path fill="none" stroke="white" stroke-width="1.5" d="M0,-3.0v7 M-2.5,-0.5L0,-3.0L2.5,-0.5"/>
                </g>
        </g>
        <svg viewBox="0 0 15 15" width="100%" height="30px" preserveAspectRatio="xMaxYMin meet">
         <g id="arrow_out" transform="scale(0.3 0.3)">
          <a xlink:href="namespacetravesim_1_1converter_a389749796334ec513d508de7b81da2d6_icgraph_org.svg" target="_base">
           <rect id="button" ry="5" rx="5" y="6" x="6" height="38" width="38"
                fill="#f2f5e9" fill-opacity="0.5" stroke="#606060" stroke-width="1.0"/>
           <path id="arrow"
             d="M 11.500037,31.436501 C 11.940474,20.09759 22.043105,11.32322 32.158766,21.979434 L 37.068811,17.246167 C 37.068811,17.246167 37.088388,32 37.088388,32 L 22.160133,31.978069 C 22.160133,31.978069 26.997745,27.140456 26.997745,27.140456 C 18.528582,18.264221 13.291696,25.230495 11.500037,31.436501 z"
             style="fill:#404040;"/>
          </a>
         </g>
        </svg>
</svg>
