<?xml version="1.0" encoding="UTF-8" standalone="no"?>
<!DOCTYPE svg PUBLIC "-//W3C//DTD SVG 1.1//EN"
 "http://www.w3.org/Graphics/SVG/1.1/DTD/svg11.dtd">
<!-- Generated by graphviz version 2.40.1 (0)
 -->
<!-- Title: travesim::converter::ModelState_to_RobotState Pages: 1 -->
<svg width="685pt" height="88pt"
 viewBox="0.00 0.00 685.00 88.00" xmlns="http://www.w3.org/2000/svg" xmlns:xlink="http://www.w3.org/1999/xlink">
<g id="graph0" class="graph" transform="scale(1 1) rotate(0) translate(4 84)">
<title>travesim::converter::ModelState_to_RobotState</title>
<!-- Node15 -->
<g id="node1" class="node">
<title>Node15</title>
<g id="a_node1"><a xlink:title="Function to convert gazebo_msgs::ModelState to travesim::RobotState.">
<polygon fill="#bfbfbf" stroke="#000000" points="0,-24.5 0,-54.5 212,-54.5 212,-24.5 0,-24.5"/>
<text text-anchor="start" x="8" y="-42.5" font-family="Fira Code" font-size="10.00" fill="#000000">travesim::converter</text>
<text text-anchor="middle" x="106" y="-31.5" font-family="Fira Code" font-size="10.00" fill="#000000">::ModelState_to_RobotState</text>
</a>
</g>
</g>
<!-- Node16 -->
<g id="node2" class="node">
<title>Node16</title>
<g id="a_node2"><a xlink:href="../../d6/d3d/namespacetravesim_1_1converter.html#aedf89b45b5636a0f772c62a984478c57" target="_top" xlink:title="Function to convert gazebo_msgs::ModelState to travesim::EntityState.">
<polygon fill="none" stroke="#000000" points="248,-24.5 248,-54.5 467,-54.5 467,-24.5 248,-24.5"/>
<text text-anchor="start" x="256" y="-42.5" font-family="Fira Code" font-size="10.00" fill="#000000">travesim::converter</text>
<text text-anchor="middle" x="357.5" y="-31.5" font-family="Fira Code" font-size="10.00" fill="#000000">::ModelState_to_EntityState</text>
</a>
</g>
</g>
<!-- Node15&#45;&gt;Node16 -->
<g id="edge1" class="edge">
<title>Node15&#45;&gt;Node16</title>
<path fill="none" stroke="#191970" d="M212.2941,-39.5C220.7736,-39.5 229.374,-39.5 237.9361,-39.5"/>
<polygon fill="#191970" stroke="#191970" points="237.9601,-43.0001 247.9601,-39.5 237.96,-36.0001 237.9601,-43.0001"/>
</g>
<!-- Node17 -->
<g id="node3" class="node">
<title>Node17</title>
<g id="a_node3"><a xlink:href="../../d6/d3d/namespacetravesim_1_1converter.html#a8b5c76ee2a1ed97cdf46ec41c5f54b68" target="_top" xlink:title="Function to convert geometry_msgs::Point to travesim::Vector2D.">
<polygon fill="none" stroke="#000000" points="510.5,-49.5 510.5,-79.5 669.5,-79.5 669.5,-49.5 510.5,-49.5"/>
<text text-anchor="start" x="518.5" y="-67.5" font-family="Fira Code" font-size="10.00" fill="#000000">travesim::converter</text>
<text text-anchor="middle" x="590" y="-56.5" font-family="Fira Code" font-size="10.00" fill="#000000">::Point_to_Vector2D</text>
</a>
</g>
</g>
<!-- Node16&#45;&gt;Node17 -->
<g id="edge2" class="edge">
<title>Node16&#45;&gt;Node17</title>
<path fill="none" stroke="#191970" d="M467.282,-51.3045C478.2414,-52.4829 489.2777,-53.6696 499.9996,-54.8225"/>
<polygon fill="#191970" stroke="#191970" points="499.8534,-58.3269 510.1703,-55.9162 500.6019,-51.367 499.8534,-58.3269"/>
</g>
<!-- Node18 -->
<g id="node4" class="node">
<title>Node18</title>
<g id="a_node4"><a xlink:href="../../d6/d3d/namespacetravesim_1_1converter.html#a6e075638ef35b4c6d5926d65bc5d79e6" target="_top" xlink:title="Function to convert geometry_msgs::Vector3 to travesim::Vector2D.">
<polygon fill="none" stroke="#000000" points="503,-.5 503,-30.5 677,-30.5 677,-.5 503,-.5"/>
<text text-anchor="start" x="511" y="-18.5" font-family="Fira Code" font-size="10.00" fill="#000000">travesim::converter</text>
<text text-anchor="middle" x="590" y="-7.5" font-family="Fira Code" font-size="10.00" fill="#000000">::Vector3_to_Vector2D</text>
</a>
</g>
</g>
<!-- Node16&#45;&gt;Node18 -->
<g id="edge3" class="edge">
<title>Node16&#45;&gt;Node18</title>
<path fill="none" stroke="#191970" d="M467.282,-28.1677C475.7245,-27.2962 484.2127,-26.42 492.5676,-25.5575"/>
<polygon fill="#191970" stroke="#191970" points="493.093,-29.022 502.6807,-24.5136 492.3741,-22.059 493.093,-29.022"/>
</g>
</g>
</svg>
