<?xml version="1.0" encoding="UTF-8" standalone="no"?>
<!DOCTYPE svg PUBLIC "-//W3C//DTD SVG 1.1//EN"
 "http://www.w3.org/Graphics/SVG/1.1/DTD/svg11.dtd">
<!-- Generated by graphviz version 2.40.1 (0)
 -->
<!-- Title: travesim::converter::RobotState_to_ModelState Pages: 1 -->
<svg width="685pt" height="88pt"
 viewBox="0.00 0.00 685.00 88.00" xmlns="http://www.w3.org/2000/svg" xmlns:xlink="http://www.w3.org/1999/xlink">
<g id="graph0" class="graph" transform="scale(1 1) rotate(0) translate(4 84)">
<title>travesim::converter::RobotState_to_ModelState</title>
<!-- Node34 -->
<g id="node1" class="node">
<title>Node34</title>
<g id="a_node1"><a xlink:title="Function to convert travesim::RobotState to gazebo_msgs::ModelState.">
<polygon fill="#bfbfbf" stroke="#000000" points="0,-24.5 0,-54.5 212,-54.5 212,-24.5 0,-24.5"/>
<text text-anchor="start" x="8" y="-42.5" font-family="Fira Code" font-size="10.00" fill="#000000">travesim::converter</text>
<text text-anchor="middle" x="106" y="-31.5" font-family="Fira Code" font-size="10.00" fill="#000000">::RobotState_to_ModelState</text>
</a>
</g>
</g>
<!-- Node35 -->
<g id="node2" class="node">
<title>Node35</title>
<g id="a_node2"><a xlink:href="../../d6/d3d/namespacetravesim_1_1converter.html#a6d486910a036b99f60fc65798e1f9422" target="_top" xlink:title="Function to convert travesim::EntityState to gazebo_msgs::ModelState.">
<polygon fill="none" stroke="#000000" points="248,-24.5 248,-54.5 467,-54.5 467,-24.5 248,-24.5"/>
<text text-anchor="start" x="256" y="-42.5" font-family="Fira Code" font-size="10.00" fill="#000000">travesim::converter</text>
<text text-anchor="middle" x="357.5" y="-31.5" font-family="Fira Code" font-size="10.00" fill="#000000">::EntityState_to_ModelState</text>
</a>
</g>
</g>
<!-- Node34&#45;&gt;Node35 -->
<g id="edge1" class="edge">
<title>Node34&#45;&gt;Node35</title>
<path fill="none" stroke="#191970" d="M212.2941,-39.5C220.7736,-39.5 229.374,-39.5 237.9361,-39.5"/>
<polygon fill="#191970" stroke="#191970" points="237.9601,-43.0001 247.9601,-39.5 237.96,-36.0001 237.9601,-43.0001"/>
</g>
<!-- Node36 -->
<g id="node3" class="node">
<title>Node36</title>
<g id="a_node3"><a xlink:href="../../d6/d3d/namespacetravesim_1_1converter.html#a389749796334ec513d508de7b81da2d6" target="_top" xlink:title="Function to convert travesim::Vector2D to geometry_msgs::Point.">
<polygon fill="none" stroke="#000000" points="510.5,-49.5 510.5,-79.5 669.5,-79.5 669.5,-49.5 510.5,-49.5"/>
<text text-anchor="start" x="518.5" y="-67.5" font-family="Fira Code" font-size="10.00" fill="#000000">travesim::converter</text>
<text text-anchor="middle" x="590" y="-56.5" font-family="Fira Code" font-size="10.00" fill="#000000">::Vector2D_to_Point</text>
</a>
</g>
</g>
<!-- Node35&#45;&gt;Node36 -->
<g id="edge2" class="edge">
<title>Node35&#45;&gt;Node36</title>
<path fill="none" stroke="#191970" d="M467.282,-51.3045C478.2414,-52.4829 489.2777,-53.6696 499.9996,-54.8225"/>
<polygon fill="#191970" stroke="#191970" points="499.8534,-58.3269 510.1703,-55.9162 500.6019,-51.367 499.8534,-58.3269"/>
</g>
<!-- Node37 -->
<g id="node4" class="node">
<title>Node37</title>
<g id="a_node4"><a xlink:href="../../d6/d3d/namespacetravesim_1_1converter.html#aef469dc9282ff1263bba64c66c2bc3a1" target="_top" xlink:title="Function to convert travesim::Vector2D to geometry_msgs::Vector3.">
<polygon fill="none" stroke="#000000" points="503,-.5 503,-30.5 677,-30.5 677,-.5 503,-.5"/>
<text text-anchor="start" x="511" y="-18.5" font-family="Fira Code" font-size="10.00" fill="#000000">travesim::converter</text>
<text text-anchor="middle" x="590" y="-7.5" font-family="Fira Code" font-size="10.00" fill="#000000">::Vector2D_to_Vector3</text>
</a>
</g>
</g>
<!-- Node35&#45;&gt;Node37 -->
<g id="edge3" class="edge">
<title>Node35&#45;&gt;Node37</title>
<path fill="none" stroke="#191970" d="M467.282,-28.1677C475.7245,-27.2962 484.2127,-26.42 492.5676,-25.5575"/>
<polygon fill="#191970" stroke="#191970" points="493.093,-29.022 502.6807,-24.5136 492.3741,-22.059 493.093,-29.022"/>
</g>
</g>
</svg>
