<?xml version="1.0" encoding="UTF-8" standalone="no"?>
<!DOCTYPE svg PUBLIC "-//W3C//DTD SVG 1.1//EN"
 "http://www.w3.org/Graphics/SVG/1.1/DTD/svg11.dtd">
<!-- Generated by graphviz version 2.40.1 (0)
 -->
<!-- Title: travesim::converter::EntityState_to_ModelState Pages: 1 -->
<svg width="558pt" height="75pt"
 viewBox="0.00 0.00 558.00 74.50" xmlns="http://www.w3.org/2000/svg" xmlns:xlink="http://www.w3.org/1999/xlink">
<g id="graph0" class="graph" transform="scale(1 1) rotate(0) translate(4 70.5)">
<title>travesim::converter::EntityState_to_ModelState</title>
<!-- Node3 -->
<g id="node1" class="node">
<title>Node3</title>
<g id="a_node1"><a xlink:title="Function to convert travesim::EntityState to gazebo_msgs::ModelState.">
<polygon fill="#bfbfbf" stroke="#000000" points="331,-22.5 331,-52.5 550,-52.5 550,-22.5 331,-22.5"/>
<text text-anchor="start" x="339" y="-40.5" font-family="Fira Code" font-size="10.00" fill="#000000">travesim::converter</text>
<text text-anchor="middle" x="440.5" y="-29.5" font-family="Fira Code" font-size="10.00" fill="#000000">::EntityState_to_ModelState</text>
</a>
</g>
</g>
<!-- Node4 -->
<g id="node2" class="node">
<title>Node4</title>
<g id="a_node2"><a xlink:href="../../da/d85/replacer__adapter_8cpp.html#a3c04138a5bfe5d72780bb7e82a18e627" target="_top" xlink:title=" ">
<polygon fill="none" stroke="#000000" points="0,-47 0,-66 47,-66 47,-47 0,-47"/>
<text text-anchor="middle" x="23.5" y="-54" font-family="Fira Code" font-size="10.00" fill="#000000">main</text>
</a>
</g>
</g>
<!-- Node3&#45;&gt;Node4 -->
<g id="edge1" class="edge">
<title>Node3&#45;&gt;Node4</title>
<path fill="none" stroke="#191970" d="M320.9163,-42.9487C225.392,-47.3011 99.2276,-53.0496 47.3416,-55.4137"/>
<polygon fill="#191970" stroke="#191970" points="321.1079,-46.4437 330.9382,-42.492 320.7892,-39.4509 321.1079,-46.4437"/>
</g>
<!-- Node5 -->
<g id="node3" class="node">
<title>Node5</title>
<g id="a_node3"><a xlink:href="../../d6/d3d/namespacetravesim_1_1converter.html#ac5627853c78581bcfe89dea3d7c32cca" target="_top" xlink:title="Function to convert travesim::RobotState to gazebo_msgs::ModelState.">
<polygon fill="none" stroke="#000000" points="83,-.5 83,-30.5 295,-30.5 295,-.5 83,-.5"/>
<text text-anchor="start" x="91" y="-18.5" font-family="Fira Code" font-size="10.00" fill="#000000">travesim::converter</text>
<text text-anchor="middle" x="189" y="-7.5" font-family="Fira Code" font-size="10.00" fill="#000000">::RobotState_to_ModelState</text>
</a>
</g>
</g>
<!-- Node3&#45;&gt;Node5 -->
<g id="edge2" class="edge">
<title>Node3&#45;&gt;Node5</title>
<path fill="none" stroke="#191970" d="M320.8311,-27.0319C312.2136,-26.2781 303.558,-25.521 295.0265,-24.7747"/>
<polygon fill="#191970" stroke="#191970" points="320.6531,-30.5296 330.9201,-27.9145 321.2631,-23.5563 320.6531,-30.5296"/>
</g>
<!-- Node5&#45;&gt;Node4 -->
<g id="edge3" class="edge">
<title>Node5&#45;&gt;Node4</title>
<path fill="none" stroke="#191970" d="M118.5989,-32.9408C92.9898,-39.285 65.7666,-46.0291 47.0391,-50.6686"/>
<polygon fill="#191970" stroke="#191970" points="119.4487,-36.3361 128.3137,-30.5341 117.7654,-29.5415 119.4487,-36.3361"/>
</g>
<!-- Node6 -->
<g id="node4" class="node">
<title>Node6</title>
<g id="a_node4"><a xlink:href="../../d3/d2c/ros__side_8test_8cpp.html#a66871950e45ea719d29caf28b40b0fda" target="_top" xlink:title=" ">
<polygon fill="none" stroke="#000000" points="0,-6 0,-25 47,-25 47,-6 0,-6"/>
<text text-anchor="middle" x="23.5" y="-13" font-family="Fira Code" font-size="10.00" fill="#000000">TEST</text>
</a>
</g>
</g>
<!-- Node5&#45;&gt;Node6 -->
<g id="edge4" class="edge">
<title>Node5&#45;&gt;Node6</title>
<path fill="none" stroke="#191970" d="M72.7571,-15.5C63.3537,-15.5 54.6445,-15.5 47.2465,-15.5"/>
<polygon fill="#191970" stroke="#191970" points="72.7819,-19.0001 82.7818,-15.5 72.7818,-12.0001 72.7819,-19.0001"/>
</g>
</g>
</svg>
