<?xml version="1.0" encoding="UTF-8" standalone="no"?>
<!DOCTYPE svg PUBLIC "-//W3C//DTD SVG 1.1//EN"
 "http://www.w3.org/Graphics/SVG/1.1/DTD/svg11.dtd">
<!-- Generated by graphviz version 2.40.1 (0)
 -->
<!-- Title: travesim::converter::Vector2D_to_Vector3 Pages: 1 -->
<svg width="768pt" height="91pt"
 viewBox="0.00 0.00 768.00 91.00" xmlns="http://www.w3.org/2000/svg" xmlns:xlink="http://www.w3.org/1999/xlink">
<g id="graph0" class="graph" transform="scale(1 1) rotate(0) translate(4 87)">
<title>travesim::converter::Vector2D_to_Vector3</title>
<!-- Node48 -->
<g id="node1" class="node">
<title>Node48</title>
<g id="a_node1"><a xlink:title="Function to convert travesim::Vector2D to geometry_msgs::Vector3.">
<polygon fill="#bfbfbf" stroke="#000000" points="586,-17 586,-47 760,-47 760,-17 586,-17"/>
<text text-anchor="start" x="594" y="-35" font-family="Fira Code" font-size="10.00" fill="#000000">travesim::converter</text>
<text text-anchor="middle" x="673" y="-24" font-family="Fira Code" font-size="10.00" fill="#000000">::Vector2D_to_Vector3</text>
</a>
</g>
</g>
<!-- Node49 -->
<g id="node2" class="node">
<title>Node49</title>
<g id="a_node2"><a xlink:href="../../d6/d3d/namespacetravesim_1_1converter.html#a6d486910a036b99f60fc65798e1f9422" target="_top" xlink:title="Function to convert travesim::EntityState to gazebo_msgs::ModelState.">
<polygon fill="none" stroke="#000000" points="331,-39 331,-69 550,-69 550,-39 331,-39"/>
<text text-anchor="start" x="339" y="-57" font-family="Fira Code" font-size="10.00" fill="#000000">travesim::converter</text>
<text text-anchor="middle" x="440.5" y="-46" font-family="Fira Code" font-size="10.00" fill="#000000">::EntityState_to_ModelState</text>
</a>
</g>
</g>
<!-- Node48&#45;&gt;Node49 -->
<g id="edge1" class="edge">
<title>Node48&#45;&gt;Node49</title>
<path fill="none" stroke="#191970" d="M575.6165,-41.2148C567.2327,-42.0081 558.7143,-42.8141 550.2422,-43.6158"/>
<polygon fill="#191970" stroke="#191970" points="576.1383,-44.6811 585.7641,-40.2546 575.4788,-37.7123 576.1383,-44.6811"/>
</g>
<!-- Node53 -->
<g id="node6" class="node">
<title>Node53</title>
<g id="a_node6"><a xlink:href="../../d3/d2c/ros__side_8test_8cpp.html#ace370f7d79bc596b39d39c8a6253dca3" target="_top" xlink:title=" ">
<polygon fill="none" stroke="#000000" points="417,-.5 417,-19.5 464,-19.5 464,-.5 417,-.5"/>
<text text-anchor="middle" x="440.5" y="-7.5" font-family="Fira Code" font-size="10.00" fill="#000000">TEST</text>
</a>
</g>
</g>
<!-- Node48&#45;&gt;Node53 -->
<g id="edge6" class="edge">
<title>Node48&#45;&gt;Node53</title>
<path fill="none" stroke="#191970" d="M575.6925,-22.7924C534.6609,-18.9099 490.3938,-14.7211 464.0855,-12.2317"/>
<polygon fill="#191970" stroke="#191970" points="575.4788,-26.2877 585.7641,-23.7454 576.1383,-19.3189 575.4788,-26.2877"/>
</g>
<!-- Node50 -->
<g id="node3" class="node">
<title>Node50</title>
<g id="a_node3"><a xlink:href="../../da/d85/replacer__adapter_8cpp.html#a3c04138a5bfe5d72780bb7e82a18e627" target="_top" xlink:title=" ">
<polygon fill="none" stroke="#000000" points="0,-63.5 0,-82.5 47,-82.5 47,-63.5 0,-63.5"/>
<text text-anchor="middle" x="23.5" y="-70.5" font-family="Fira Code" font-size="10.00" fill="#000000">main</text>
</a>
</g>
</g>
<!-- Node49&#45;&gt;Node50 -->
<g id="edge2" class="edge">
<title>Node49&#45;&gt;Node50</title>
<path fill="none" stroke="#191970" d="M320.9163,-59.4487C225.392,-63.8011 99.2276,-69.5496 47.3416,-71.9137"/>
<polygon fill="#191970" stroke="#191970" points="321.1079,-62.9437 330.9382,-58.992 320.7892,-55.9509 321.1079,-62.9437"/>
</g>
<!-- Node51 -->
<g id="node4" class="node">
<title>Node51</title>
<g id="a_node4"><a xlink:href="../../d6/d3d/namespacetravesim_1_1converter.html#ac5627853c78581bcfe89dea3d7c32cca" target="_top" xlink:title="Function to convert travesim::RobotState to gazebo_msgs::ModelState.">
<polygon fill="none" stroke="#000000" points="83,-17 83,-47 295,-47 295,-17 83,-17"/>
<text text-anchor="start" x="91" y="-35" font-family="Fira Code" font-size="10.00" fill="#000000">travesim::converter</text>
<text text-anchor="middle" x="189" y="-24" font-family="Fira Code" font-size="10.00" fill="#000000">::RobotState_to_ModelState</text>
</a>
</g>
</g>
<!-- Node49&#45;&gt;Node51 -->
<g id="edge3" class="edge">
<title>Node49&#45;&gt;Node51</title>
<path fill="none" stroke="#191970" d="M320.8311,-43.5319C312.2136,-42.7781 303.558,-42.021 295.0265,-41.2747"/>
<polygon fill="#191970" stroke="#191970" points="320.6531,-47.0296 330.9201,-44.4145 321.2631,-40.0563 320.6531,-47.0296"/>
</g>
<!-- Node51&#45;&gt;Node50 -->
<g id="edge4" class="edge">
<title>Node51&#45;&gt;Node50</title>
<path fill="none" stroke="#191970" d="M118.5989,-49.4408C92.9898,-55.785 65.7666,-62.5291 47.0391,-67.1686"/>
<polygon fill="#191970" stroke="#191970" points="119.4487,-52.8361 128.3137,-47.0341 117.7654,-46.0415 119.4487,-52.8361"/>
</g>
<!-- Node52 -->
<g id="node5" class="node">
<title>Node52</title>
<g id="a_node5"><a xlink:href="../../d3/d2c/ros__side_8test_8cpp.html#a66871950e45ea719d29caf28b40b0fda" target="_top" xlink:title=" ">
<polygon fill="none" stroke="#000000" points="0,-22.5 0,-41.5 47,-41.5 47,-22.5 0,-22.5"/>
<text text-anchor="middle" x="23.5" y="-29.5" font-family="Fira Code" font-size="10.00" fill="#000000">TEST</text>
</a>
</g>
</g>
<!-- Node51&#45;&gt;Node52 -->
<g id="edge5" class="edge">
<title>Node51&#45;&gt;Node52</title>
<path fill="none" stroke="#191970" d="M72.7571,-32C63.3537,-32 54.6445,-32 47.2465,-32"/>
<polygon fill="#191970" stroke="#191970" points="72.7819,-35.5001 82.7818,-32 72.7818,-28.5001 72.7819,-35.5001"/>
</g>
</g>
</svg>
