<?xml version="1.0" encoding="UTF-8" standalone="no"?>
<!DOCTYPE svg PUBLIC "-//W3C//DTD SVG 1.1//EN"
 "http://www.w3.org/Graphics/SVG/1.1/DTD/svg11.dtd">
<!-- Generated by graphviz version 2.40.1 (0)
 -->
<!-- Title: travesim::converter::ModelState_to_EntityState Pages: 1 -->
<svg width="437pt" height="88pt"
 viewBox="0.00 0.00 437.00 88.00" xmlns="http://www.w3.org/2000/svg" xmlns:xlink="http://www.w3.org/1999/xlink">
<g id="graph0" class="graph" transform="scale(1 1) rotate(0) translate(4 84)">
<title>travesim::converter::ModelState_to_EntityState</title>
<!-- Node7 -->
<g id="node1" class="node">
<title>Node7</title>
<g id="a_node1"><a xlink:title="Function to convert gazebo_msgs::ModelState to travesim::EntityState.">
<polygon fill="#bfbfbf" stroke="#000000" points="0,-24.5 0,-54.5 219,-54.5 219,-24.5 0,-24.5"/>
<text text-anchor="start" x="8" y="-42.5" font-family="Fira Code" font-size="10.00" fill="#000000">travesim::converter</text>
<text text-anchor="middle" x="109.5" y="-31.5" font-family="Fira Code" font-size="10.00" fill="#000000">::ModelState_to_EntityState</text>
</a>
</g>
</g>
<!-- Node8 -->
<g id="node2" class="node">
<title>Node8</title>
<g id="a_node2"><a xlink:href="../../d6/d3d/namespacetravesim_1_1converter.html#a8b5c76ee2a1ed97cdf46ec41c5f54b68" target="_top" xlink:title="Function to convert geometry_msgs::Point to travesim::Vector2D.">
<polygon fill="none" stroke="#000000" points="262.5,-49.5 262.5,-79.5 421.5,-79.5 421.5,-49.5 262.5,-49.5"/>
<text text-anchor="start" x="270.5" y="-67.5" font-family="Fira Code" font-size="10.00" fill="#000000">travesim::converter</text>
<text text-anchor="middle" x="342" y="-56.5" font-family="Fira Code" font-size="10.00" fill="#000000">::Point_to_Vector2D</text>
</a>
</g>
</g>
<!-- Node7&#45;&gt;Node8 -->
<g id="edge1" class="edge">
<title>Node7&#45;&gt;Node8</title>
<path fill="none" stroke="#191970" d="M219.282,-51.3045C230.2414,-52.4829 241.2777,-53.6696 251.9996,-54.8225"/>
<polygon fill="#191970" stroke="#191970" points="251.8534,-58.3269 262.1703,-55.9162 252.6019,-51.367 251.8534,-58.3269"/>
</g>
<!-- Node9 -->
<g id="node3" class="node">
<title>Node9</title>
<g id="a_node3"><a xlink:href="../../d6/d3d/namespacetravesim_1_1converter.html#a6e075638ef35b4c6d5926d65bc5d79e6" target="_top" xlink:title="Function to convert geometry_msgs::Vector3 to travesim::Vector2D.">
<polygon fill="none" stroke="#000000" points="255,-.5 255,-30.5 429,-30.5 429,-.5 255,-.5"/>
<text text-anchor="start" x="263" y="-18.5" font-family="Fira Code" font-size="10.00" fill="#000000">travesim::converter</text>
<text text-anchor="middle" x="342" y="-7.5" font-family="Fira Code" font-size="10.00" fill="#000000">::Vector3_to_Vector2D</text>
</a>
</g>
</g>
<!-- Node7&#45;&gt;Node9 -->
<g id="edge2" class="edge">
<title>Node7&#45;&gt;Node9</title>
<path fill="none" stroke="#191970" d="M219.282,-28.1677C227.7245,-27.2962 236.2127,-26.42 244.5676,-25.5575"/>
<polygon fill="#191970" stroke="#191970" points="245.093,-29.022 254.6807,-24.5136 244.3741,-22.059 245.093,-29.022"/>
</g>
</g>
</svg>
