<?xml version="1.0" encoding="UTF-8" standalone="no"?>
<!DOCTYPE svg PUBLIC "-//W3C//DTD SVG 1.1//EN"
 "http://www.w3.org/Graphics/SVG/1.1/DTD/svg11.dtd">
<!-- Generated by graphviz version 2.40.1 (0)
 -->
<!-- Title: include/travesim_adapters/data/converter/ros_side.hpp Pages: 1 -->
<svg width="1066pt" height="106pt"
 viewBox="0.00 0.00 1065.50 106.00" xmlns="http://www.w3.org/2000/svg" xmlns:xlink="http://www.w3.org/1999/xlink">
<g id="graph0" class="graph" transform="scale(1 1) rotate(0) translate(4 102)">
<title>include/travesim_adapters/data/converter/ros_side.hpp</title>
<!-- Node11 -->
<g id="node1" class="node">
<title>Node11</title>
<g id="a_node1"><a xlink:title="Collection of data converters between ROS and local formats.">
<polygon fill="#bfbfbf" stroke="#000000" points="453,-67.5 453,-97.5 680,-97.5 680,-67.5 453,-67.5"/>
<text text-anchor="start" x="461" y="-85.5" font-family="Fira Code" font-size="10.00" fill="#000000">include/travesim_adapters</text>
<text text-anchor="middle" x="566.5" y="-74.5" font-family="Fira Code" font-size="10.00" fill="#000000">/data/converter/ros_side.hpp</text>
</a>
</g>
</g>
<!-- Node12 -->
<g id="node2" class="node">
<title>Node12</title>
<g id="a_node2"><a xlink:href="../../da/d85/replacer__adapter_8cpp.html" target="_top" xlink:title="Replacer adapter execution file.">
<polygon fill="none" stroke="#000000" points="0,-6 0,-25 227,-25 227,-6 0,-6"/>
<text text-anchor="middle" x="113.5" y="-13" font-family="Fira Code" font-size="10.00" fill="#000000">src/bin/replacer_adapter.cpp</text>
</a>
</g>
</g>
<!-- Node11&#45;&gt;Node12 -->
<g id="edge1" class="edge">
<title>Node11&#45;&gt;Node12</title>
<path fill="none" stroke="#191970" d="M454.9048,-65.9948C367.7646,-53.1065 249.7586,-35.653 177.7671,-25.0053"/>
<polygon fill="#191970" stroke="#191970" points="454.4335,-69.463 464.838,-67.4639 455.4577,-62.5384 454.4335,-69.463"/>
</g>
<!-- Node13 -->
<g id="node3" class="node">
<title>Node13</title>
<g id="a_node3"><a xlink:href="../../df/ddf/vision__adapter_8cpp.html" target="_top" xlink:title="Vision adapter executable file.">
<polygon fill="none" stroke="#000000" points="245.5,-6 245.5,-25 457.5,-25 457.5,-6 245.5,-6"/>
<text text-anchor="middle" x="351.5" y="-13" font-family="Fira Code" font-size="10.00" fill="#000000">src/bin/vision_adapter.cpp</text>
</a>
</g>
</g>
<!-- Node11&#45;&gt;Node13 -->
<g id="edge2" class="edge">
<title>Node11&#45;&gt;Node13</title>
<path fill="none" stroke="#191970" d="M508.6905,-64.4849C467.8929,-51.7713 414.8534,-35.2427 382.002,-25.0053"/>
<polygon fill="#191970" stroke="#191970" points="507.6613,-67.8302 518.2498,-67.4639 509.744,-61.1471 507.6613,-67.8302"/>
</g>
<!-- Node14 -->
<g id="node4" class="node">
<title>Node14</title>
<g id="a_node4"><a xlink:href="../../de/d8d/ros__side_8cpp.html" target="_top" xlink:title="Collection of data converters between ROS and local formats.">
<polygon fill="none" stroke="#000000" points="475.5,-.5 475.5,-30.5 657.5,-30.5 657.5,-.5 475.5,-.5"/>
<text text-anchor="start" x="483.5" y="-18.5" font-family="Fira Code" font-size="10.00" fill="#000000">src/lib/data/converter</text>
<text text-anchor="middle" x="566.5" y="-7.5" font-family="Fira Code" font-size="10.00" fill="#000000">/ros_side.cpp</text>
</a>
</g>
</g>
<!-- Node11&#45;&gt;Node14 -->
<g id="edge3" class="edge">
<title>Node11&#45;&gt;Node14</title>
<path fill="none" stroke="#191970" d="M566.5,-57.0249C566.5,-48.128 566.5,-38.4287 566.5,-30.6432"/>
<polygon fill="#191970" stroke="#191970" points="563.0001,-57.2966 566.5,-67.2967 570.0001,-57.2967 563.0001,-57.2966"/>
</g>
<!-- Node15 -->
<g id="node5" class="node">
<title>Node15</title>
<g id="a_node5"><a xlink:href="../../d3/d2c/ros__side_8test_8cpp.html" target="_top" xlink:title=" ">
<polygon fill="none" stroke="#000000" points="676,-.5 676,-30.5 865,-30.5 865,-.5 676,-.5"/>
<text text-anchor="start" x="684" y="-18.5" font-family="Fira Code" font-size="10.00" fill="#000000">src/lib/data/converter</text>
<text text-anchor="middle" x="770.5" y="-7.5" font-family="Fira Code" font-size="10.00" fill="#000000">/test/ros_side.test.cpp</text>
</a>
</g>
</g>
<!-- Node11&#45;&gt;Node15 -->
<g id="edge4" class="edge">
<title>Node11&#45;&gt;Node15</title>
<path fill="none" stroke="#191970" d="M621.9883,-64.2759C654.1392,-53.7165 694.1355,-40.5805 724.5187,-30.6017"/>
<polygon fill="#191970" stroke="#191970" points="620.6902,-61.0182 612.2816,-67.4639 622.8744,-67.6687 620.6902,-61.0182"/>
</g>
<!-- Node16 -->
<g id="node6" class="node">
<title>Node16</title>
<g id="a_node6"><a xlink:href="../../da/db5/gazebo__services_8mock_8cpp.html" target="_top" xlink:title=" ">
<polygon fill="none" stroke="#000000" points="883.5,-.5 883.5,-30.5 1057.5,-30.5 1057.5,-.5 883.5,-.5"/>
<text text-anchor="start" x="891.5" y="-18.5" font-family="Fira Code" font-size="10.00" fill="#000000">test/mocks/bin/gazebo</text>
<text text-anchor="middle" x="970.5" y="-7.5" font-family="Fira Code" font-size="10.00" fill="#000000">_services.mock.cpp</text>
</a>
</g>
</g>
<!-- Node11&#45;&gt;Node16 -->
<g id="edge5" class="edge">
<title>Node11&#45;&gt;Node16</title>
<path fill="none" stroke="#191970" d="M667.2325,-65.7944C733.6494,-54.7797 819.769,-40.4975 883.2568,-29.9686"/>
<polygon fill="#191970" stroke="#191970" points="666.4581,-62.3749 657.1655,-67.4639 667.6034,-69.2806 666.4581,-62.3749"/>
</g>
</g>
</svg>
