<?xml version="1.0" encoding="UTF-8" standalone="no"?>
<!DOCTYPE svg PUBLIC "-//W3C//DTD SVG 1.1//EN"
 "http://www.w3.org/Graphics/SVG/1.1/DTD/svg11.dtd">
<!-- Generated by graphviz version 2.40.1 (0)
 -->
<!-- Title: include/travesim_adapters/configurers/replacer_configurer.hpp Pages: 1 -->
<svg width="800pt" height="173pt"
 viewBox="0.00 0.00 799.50 173.00" xmlns="http://www.w3.org/2000/svg" xmlns:xlink="http://www.w3.org/1999/xlink">
<g id="graph0" class="graph" transform="scale(1 1) rotate(0) translate(4 169)">
<title>include/travesim_adapters/configurers/replacer_configurer.hpp</title>
<!-- Node0 -->
<g id="node1" class="node">
<title>Node0</title>
<g id="a_node1"><a xlink:title="Configurer for the Replacer.">
<polygon fill="#bfbfbf" stroke="#000000" points="58,-134.5 58,-164.5 345,-164.5 345,-134.5 58,-134.5"/>
<text text-anchor="start" x="66" y="-152.5" font-family="Fira Code" font-size="10.00" fill="#000000">include/travesim_adapters</text>
<text text-anchor="middle" x="201.5" y="-141.5" font-family="Fira Code" font-size="10.00" fill="#000000">/configurers/replacer_configurer.hpp</text>
</a>
</g>
</g>
<!-- Node1 -->
<g id="node2" class="node">
<title>Node1</title>
<g id="a_node2"><a xlink:title=" ">
<polygon fill="none" stroke="#bfbfbf" points="0,-73 0,-92 77,-92 77,-73 0,-73"/>
<text text-anchor="middle" x="38.5" y="-80" font-family="Fira Code" font-size="10.00" fill="#000000">iostream</text>
</a>
</g>
</g>
<!-- Node0&#45;&gt;Node1 -->
<g id="edge1" class="edge">
<title>Node0&#45;&gt;Node1</title>
<path fill="none" stroke="#191970" d="M164.9196,-134.4639C136.8311,-122.9183 98.3906,-107.1176 71.2942,-95.9798"/>
<polygon fill="#191970" stroke="#191970" points="72.4445,-92.6686 61.8648,-92.1039 69.7833,-99.143 72.4445,-92.6686"/>
</g>
<!-- Node2 -->
<g id="node3" class="node">
<title>Node2</title>
<g id="a_node3"><a xlink:title=" ">
<polygon fill="none" stroke="#bfbfbf" points="95.5,-67.5 95.5,-97.5 307.5,-97.5 307.5,-67.5 95.5,-67.5"/>
<text text-anchor="start" x="103.5" y="-85.5" font-family="Fira Code" font-size="10.00" fill="#000000">travesim_adapters/Replacer</text>
<text text-anchor="middle" x="201.5" y="-74.5" font-family="Fira Code" font-size="10.00" fill="#000000">Config.h</text>
</a>
</g>
</g>
<!-- Node0&#45;&gt;Node2 -->
<g id="edge2" class="edge">
<title>Node0&#45;&gt;Node2</title>
<path fill="none" stroke="#191970" d="M201.5,-134.2967C201.5,-126.5013 201.5,-116.7991 201.5,-107.9064"/>
<polygon fill="#191970" stroke="#191970" points="205.0001,-107.6431 201.5,-97.6432 198.0001,-107.6432 205.0001,-107.6431"/>
</g>
<!-- Node3 -->
<g id="node4" class="node">
<title>Node3</title>
<g id="a_node4"><a xlink:href="../../d1/d79/adapter__configurer_8hpp.html" target="_top" xlink:title="Template configurer for an adapter.">
<polygon fill="none" stroke="#000000" points="325.5,-67.5 325.5,-97.5 559.5,-97.5 559.5,-67.5 325.5,-67.5"/>
<text text-anchor="start" x="333.5" y="-85.5" font-family="Fira Code" font-size="10.00" fill="#000000">travesim_adapters/configurers</text>
<text text-anchor="middle" x="442.5" y="-74.5" font-family="Fira Code" font-size="10.00" fill="#000000">/adapter_configurer.hpp</text>
</a>
</g>
</g>
<!-- Node0&#45;&gt;Node3 -->
<g id="edge3" class="edge">
<title>Node0&#45;&gt;Node3</title>
<path fill="none" stroke="#191970" d="M255.5851,-134.4639C291.8926,-124.3701 339.8987,-111.024 378.1681,-100.3848"/>
<polygon fill="#191970" stroke="#191970" points="379.4819,-103.6524 388.179,-97.6017 377.6069,-96.9081 379.4819,-103.6524"/>
</g>
<!-- Node4 -->
<g id="node5" class="node">
<title>Node4</title>
<g id="a_node5"><a xlink:title=" ">
<polygon fill="none" stroke="#bfbfbf" points="250.5,-6 250.5,-25 312.5,-25 312.5,-6 250.5,-6"/>
<text text-anchor="middle" x="281.5" y="-13" font-family="Fira Code" font-size="10.00" fill="#000000">memory</text>
</a>
</g>
</g>
<!-- Node3&#45;&gt;Node4 -->
<g id="edge4" class="edge">
<title>Node3&#45;&gt;Node4</title>
<path fill="none" stroke="#191970" d="M406.3685,-67.4639C378.6246,-55.9183 340.6557,-40.1176 313.8918,-28.9798"/>
<polygon fill="#191970" stroke="#191970" points="315.1553,-25.7147 304.5781,-25.1039 312.4658,-32.1774 315.1553,-25.7147"/>
</g>
<!-- Node5 -->
<g id="node6" class="node">
<title>Node5</title>
<g id="a_node6"><a xlink:title=" ">
<polygon fill="none" stroke="#bfbfbf" points="330.5,-6 330.5,-25 414.5,-25 414.5,-6 330.5,-6"/>
<text text-anchor="middle" x="372.5" y="-13" font-family="Fira Code" font-size="10.00" fill="#000000">ros/ros.h</text>
</a>
</g>
</g>
<!-- Node3&#45;&gt;Node5 -->
<g id="edge5" class="edge">
<title>Node3&#45;&gt;Node5</title>
<path fill="none" stroke="#191970" d="M426.6159,-67.2967C415.7096,-56.8578 401.231,-42.9997 389.9944,-32.2446"/>
<polygon fill="#191970" stroke="#191970" points="392.1271,-29.4411 382.4828,-25.055 387.2869,-34.498 392.1271,-29.4411"/>
</g>
<!-- Node6 -->
<g id="node7" class="node">
<title>Node6</title>
<g id="a_node7"><a xlink:title=" ">
<polygon fill="none" stroke="#bfbfbf" points="432,-.5 432,-30.5 591,-30.5 591,-.5 432,-.5"/>
<text text-anchor="start" x="440" y="-18.5" font-family="Fira Code" font-size="10.00" fill="#000000">dynamic_reconfigure</text>
<text text-anchor="middle" x="511.5" y="-7.5" font-family="Fira Code" font-size="10.00" fill="#000000">/server.h</text>
</a>
</g>
</g>
<!-- Node3&#45;&gt;Node6 -->
<g id="edge6" class="edge">
<title>Node3&#45;&gt;Node6</title>
<path fill="none" stroke="#191970" d="M458.1572,-67.2967C467.1557,-58.559 478.6213,-47.4257 488.6148,-37.7218"/>
<polygon fill="#191970" stroke="#191970" points="491.1687,-40.1205 495.9048,-30.6432 486.2923,-35.0985 491.1687,-40.1205"/>
</g>
<!-- Node7 -->
<g id="node8" class="node">
<title>Node7</title>
<g id="a_node8"><a xlink:title=" ">
<polygon fill="none" stroke="#bfbfbf" points="609.5,-.5 609.5,-30.5 791.5,-30.5 791.5,-.5 609.5,-.5"/>
<text text-anchor="start" x="617.5" y="-18.5" font-family="Fira Code" font-size="10.00" fill="#000000">boost/thread/recursive</text>
<text text-anchor="middle" x="700.5" y="-7.5" font-family="Fira Code" font-size="10.00" fill="#000000">_mutex.hpp</text>
</a>
</g>
</g>
<!-- Node3&#45;&gt;Node7 -->
<g id="edge7" class="edge">
<title>Node3&#45;&gt;Node7</title>
<path fill="none" stroke="#191970" d="M500.4002,-67.4639C539.5169,-57.3057 591.3179,-43.8535 632.4134,-33.1814"/>
<polygon fill="#191970" stroke="#191970" points="633.548,-36.5029 642.3472,-30.6017 631.7885,-29.7277 633.548,-36.5029"/>
</g>
</g>
</svg>
