<?xml version="1.0" encoding="UTF-8" standalone="no"?>
<!DOCTYPE svg PUBLIC "-//W3C//DTD SVG 1.1//EN"
 "http://www.w3.org/Graphics/SVG/1.1/DTD/svg11.dtd">
<!-- Generated by graphviz version 2.40.1 (0)
 -->
<!-- Title: travesim::AdapterConfigurer&lt; AdapterConfigType &gt; Pages: 1 -->
<svg width="227pt" height="248pt"
 viewBox="0.00 0.00 227.00 248.00" xmlns="http://www.w3.org/2000/svg" xmlns:xlink="http://www.w3.org/1999/xlink">
<g id="graph0" class="graph" transform="scale(1 1) rotate(0) translate(4 244)">
<title>travesim::AdapterConfigurer&lt; AdapterConfigType &gt;</title>
<!-- Node7 -->
<g id="node1" class="node">
<title>Node7</title>
<g id="a_node1"><a xlink:title=" ">
<polygon fill="#bfbfbf" stroke="#000000" points="0,-.5 0,-134.5 219,-134.5 219,-.5 0,-.5"/>
<text text-anchor="start" x="8" y="-122.5" font-family="Fira Code" font-size="10.00" fill="#000000">travesim::AdapterConfigurer</text>
<text text-anchor="middle" x="109.5" y="-111.5" font-family="Fira Code" font-size="10.00" fill="#000000">&lt; AdapterConfigType &gt;</text>
<polyline fill="none" stroke="#000000" points="0,-104.5 219,-104.5 "/>
<text text-anchor="start" x="8" y="-92.5" font-family="Fira Code" font-size="10.00" fill="#000000"># reconfigured</text>
<text text-anchor="start" x="8" y="-81.5" font-family="Fira Code" font-size="10.00" fill="#000000"># mutex</text>
<text text-anchor="start" x="8" y="-70.5" font-family="Fira Code" font-size="10.00" fill="#000000">&#45; node_handle</text>
<text text-anchor="start" x="8" y="-59.5" font-family="Fira Code" font-size="10.00" fill="#000000">&#45; server</text>
<polyline fill="none" stroke="#000000" points="0,-52.5 219,-52.5 "/>
<text text-anchor="start" x="8" y="-40.5" font-family="Fira Code" font-size="10.00" fill="#000000">+ AdapterConfigurer()</text>
<text text-anchor="start" x="8" y="-29.5" font-family="Fira Code" font-size="10.00" fill="#000000">+ AdapterConfigurer()</text>
<text text-anchor="start" x="8" y="-18.5" font-family="Fira Code" font-size="10.00" fill="#000000">+ get_reset()</text>
<text text-anchor="start" x="8" y="-7.5" font-family="Fira Code" font-size="10.00" fill="#000000">&#45; callback()</text>
</a>
</g>
</g>
<!-- Node8 -->
<g id="node2" class="node">
<title>Node8</title>
<g id="a_node2"><a xlink:title=" ">
<polygon fill="none" stroke="#bfbfbf" points="37.5,-182.5 37.5,-239.5 181.5,-239.5 181.5,-182.5 37.5,-182.5"/>
<text text-anchor="middle" x="109.5" y="-227.5" font-family="Fira Code" font-size="10.00" fill="#000000">AdapterConfigType</text>
<polyline fill="none" stroke="#bfbfbf" points="37.5,-220.5 181.5,-220.5 "/>
<text text-anchor="middle" x="109.5" y="-208.5" font-family="Fira Code" font-size="10.00" fill="#000000"> </text>
<polyline fill="none" stroke="#bfbfbf" points="37.5,-201.5 181.5,-201.5 "/>
<text text-anchor="middle" x="109.5" y="-189.5" font-family="Fira Code" font-size="10.00" fill="#000000"> </text>
</a>
</g>
</g>
<!-- Node8&#45;&gt;Node7 -->
<g id="edge1" class="edge">
<title>Node8&#45;&gt;Node7</title>
<path fill="none" stroke="#404040" d="M109.5,-182.3055C109.5,-171.8925 109.5,-159.5596 109.5,-146.9054"/>
<polygon fill="none" stroke="#404040" points="109.5001,-146.7267 105.5,-140.7267 109.5,-134.7267 113.5,-140.7267 109.5001,-146.7267"/>
<text text-anchor="middle" x="140" y="-156" font-family="Fira Code" font-size="10.00" fill="#000000"> #config</text>
</g>
</g>
</svg>
