<?xml version="1.0" encoding="UTF-8" standalone="no"?>
<!DOCTYPE svg PUBLIC "-//W3C//DTD SVG 1.1//EN"
 "http://www.w3.org/Graphics/SVG/1.1/DTD/svg11.dtd">
<!-- Generated by graphviz version 2.40.1 (0)
 -->
<!-- Title: main Pages: 1 -->
<svg width="528pt" height="39pt"
 viewBox="0.00 0.00 528.00 39.00" xmlns="http://www.w3.org/2000/svg" xmlns:xlink="http://www.w3.org/1999/xlink">
<g id="graph0" class="graph" transform="scale(1 1) rotate(0) translate(4 35)">
<title>main</title>
<!-- Node0 -->
<g id="node1" class="node">
<title>Node0</title>
<g id="a_node1"><a xlink:title=" ">
<polygon fill="#bfbfbf" stroke="#000000" points="0,-6 0,-25 47,-25 47,-6 0,-6"/>
<text text-anchor="middle" x="23.5" y="-13" font-family="Fira Code" font-size="10.00" fill="#000000">main</text>
</a>
</g>
</g>
<!-- Node1 -->
<g id="node2" class="node">
<title>Node1</title>
<g id="a_node2"><a xlink:href="../../d2/db9/classtravesim_1_1udp_1_1Receiver.html#a1f3f4304856a1b7ce6e754fbc7ca1042" target="_top" xlink:title="Receive data using UDP.">
<polygon fill="none" stroke="#000000" points="83,-.5 83,-30.5 272,-30.5 272,-.5 83,-.5"/>
<text text-anchor="start" x="91" y="-18.5" font-family="Fira Code" font-size="10.00" fill="#000000">travesim::udp::Receiver</text>
<text text-anchor="middle" x="177.5" y="-7.5" font-family="Fira Code" font-size="10.00" fill="#000000">::receive</text>
</a>
</g>
</g>
<!-- Node0&#45;&gt;Node1 -->
<g id="edge1" class="edge">
<title>Node0&#45;&gt;Node1</title>
<path fill="none" stroke="#191970" d="M47.225,-15.5C54.5983,-15.5 63.2499,-15.5 72.5286,-15.5"/>
<polygon fill="#191970" stroke="#191970" points="72.8124,-19.0001 82.8124,-15.5 72.8124,-12.0001 72.8124,-19.0001"/>
</g>
<!-- Node2 -->
<g id="node3" class="node">
<title>Node2</title>
<g id="a_node3"><a xlink:href="../../d2/db9/classtravesim_1_1udp_1_1Receiver.html#a32838d397abca3db4ebb73dffea971b7" target="_top" xlink:title="Validate whether the current sender endpoint matches the first sender endpoint when using specific so...">
<polygon fill="none" stroke="#000000" points="308,-.5 308,-30.5 520,-30.5 520,-.5 308,-.5"/>
<text text-anchor="start" x="316" y="-18.5" font-family="Fira Code" font-size="10.00" fill="#000000">travesim::udp::Receiver</text>
<text text-anchor="middle" x="414" y="-7.5" font-family="Fira Code" font-size="10.00" fill="#000000">::validate_sender_endpoint</text>
</a>
</g>
</g>
<!-- Node1&#45;&gt;Node2 -->
<g id="edge2" class="edge">
<title>Node1&#45;&gt;Node2</title>
<path fill="none" stroke="#191970" d="M272.3309,-15.5C280.7361,-15.5 289.3058,-15.5 297.8607,-15.5"/>
<polygon fill="#191970" stroke="#191970" points="297.886,-19.0001 307.886,-15.5 297.886,-12.0001 297.886,-19.0001"/>
</g>
</g>
</svg>
