<?xml version="1.0" encoding="UTF-8" standalone="no"?>
<!DOCTYPE svg PUBLIC "-//W3C//DTD SVG 1.1//EN"
 "http://www.w3.org/Graphics/SVG/1.1/DTD/svg11.dtd">
<!-- Generated by graphviz version 2.40.1 (0)
 -->
<!-- Title: travesim::ros_side::ReplacerSender::set_models_state Pages: 1 -->
<svg width="647pt" height="50pt"
 viewBox="0.00 0.00 647.00 50.00" xmlns="http://www.w3.org/2000/svg" xmlns:xlink="http://www.w3.org/1999/xlink">
<g id="graph0" class="graph" transform="scale(1 1) rotate(0) translate(4 46)">
<title>travesim::ros_side::ReplacerSender::set_models_state</title>
<!-- Node19 -->
<g id="node1" class="node">
<title>Node19</title>
<g id="a_node1"><a xlink:title="Set state of multiple entities.">
<polygon fill="#bfbfbf" stroke="#000000" points="0,-.5 0,-41.5 174,-41.5 174,-.5 0,-.5"/>
<text text-anchor="start" x="8" y="-29.5" font-family="Fira Code" font-size="10.00" fill="#000000">travesim::ros_side</text>
<text text-anchor="start" x="8" y="-18.5" font-family="Fira Code" font-size="10.00" fill="#000000">::ReplacerSender::set</text>
<text text-anchor="middle" x="87" y="-7.5" font-family="Fira Code" font-size="10.00" fill="#000000">_models_state</text>
</a>
</g>
</g>
<!-- Node20 -->
<g id="node2" class="node">
<title>Node20</title>
<g id="a_node2"><a xlink:href="../../d8/d44/classtravesim_1_1ros__side_1_1ReplacerSender.html#a8362945aa7722d4b8bbff20402128b48" target="_top" xlink:title="Set the state of one entity.">
<polygon fill="none" stroke="#000000" points="210,-.5 210,-41.5 384,-41.5 384,-.5 210,-.5"/>
<text text-anchor="start" x="218" y="-29.5" font-family="Fira Code" font-size="10.00" fill="#000000">travesim::ros_side</text>
<text text-anchor="start" x="218" y="-18.5" font-family="Fira Code" font-size="10.00" fill="#000000">::ReplacerSender::set</text>
<text text-anchor="middle" x="297" y="-7.5" font-family="Fira Code" font-size="10.00" fill="#000000">_model_state</text>
</a>
</g>
</g>
<!-- Node19&#45;&gt;Node20 -->
<g id="edge1" class="edge">
<title>Node19&#45;&gt;Node20</title>
<path fill="none" stroke="#191970" d="M174.2345,-21C182.5665,-21 191.0523,-21 199.4735,-21"/>
<polygon fill="#191970" stroke="#191970" points="199.6991,-24.5001 209.699,-21 199.699,-17.5001 199.6991,-24.5001"/>
</g>
<!-- Node21 -->
<g id="node3" class="node">
<title>Node21</title>
<g id="a_node3"><a xlink:href="../../d8/d44/classtravesim_1_1ros__side_1_1ReplacerSender.html#aa78948b06021a691d891535377b5a833" target="_top" xlink:title="Attempts to reconnect gz_service ServiceClient if connection dropped.">
<polygon fill="none" stroke="#000000" points="420,-.5 420,-41.5 639,-41.5 639,-.5 420,-.5"/>
<text text-anchor="start" x="428" y="-29.5" font-family="Fira Code" font-size="10.00" fill="#000000">travesim::ros_side</text>
<text text-anchor="start" x="428" y="-18.5" font-family="Fira Code" font-size="10.00" fill="#000000">::ReplacerSender::reconnect</text>
<text text-anchor="middle" x="529.5" y="-7.5" font-family="Fira Code" font-size="10.00" fill="#000000">_service_client</text>
</a>
</g>
</g>
<!-- Node20&#45;&gt;Node21 -->
<g id="edge2" class="edge">
<title>Node20&#45;&gt;Node21</title>
<path fill="none" stroke="#191970" d="M384.2359,-21C392.5711,-21 401.1189,-21 409.6925,-21"/>
<polygon fill="#191970" stroke="#191970" points="409.7579,-24.5001 419.7578,-21 409.7578,-17.5001 409.7579,-24.5001"/>
</g>
</g>
</svg>
