<?xml version="1.0" encoding="UTF-8" standalone="no"?>
<!DOCTYPE svg PUBLIC "-//W3C//DTD SVG 1.1//EN"
 "http://www.w3.org/Graphics/SVG/1.1/DTD/svg11.dtd">
<!-- Generated by graphviz version 2.40.1 (0)
 -->
<!-- Title: travesim::ros_side::ReplacerSender::reconnect_service_client Pages: 1 -->
<svg width="768pt" height="118pt"
 viewBox="0.00 0.00 768.00 118.00" xmlns="http://www.w3.org/2000/svg" xmlns:xlink="http://www.w3.org/1999/xlink">
<g id="graph0" class="graph" transform="scale(1 1) rotate(0) translate(4 114)">
<title>travesim::ros_side::ReplacerSender::reconnect_service_client</title>
<!-- Node4 -->
<g id="node1" class="node">
<title>Node4</title>
<g id="a_node1"><a xlink:title="Attempts to reconnect gz_service ServiceClient if connection dropped.">
<polygon fill="#bfbfbf" stroke="#000000" points="541,-38.5 541,-79.5 760,-79.5 760,-38.5 541,-38.5"/>
<text text-anchor="start" x="549" y="-67.5" font-family="Fira Code" font-size="10.00" fill="#000000">travesim::ros_side</text>
<text text-anchor="start" x="549" y="-56.5" font-family="Fira Code" font-size="10.00" fill="#000000">::ReplacerSender::reconnect</text>
<text text-anchor="middle" x="650.5" y="-45.5" font-family="Fira Code" font-size="10.00" fill="#000000">_service_client</text>
</a>
</g>
</g>
<!-- Node5 -->
<g id="node2" class="node">
<title>Node5</title>
<g id="a_node2"><a xlink:href="../../d8/d44/classtravesim_1_1ros__side_1_1ReplacerSender.html#a43d534e9a2b377102287dc34a73a1716" target="_top" xlink:title="Construct a new Replacer Sender object.">
<polygon fill="none" stroke="#000000" points="293,-68.5 293,-109.5 505,-109.5 505,-68.5 293,-68.5"/>
<text text-anchor="start" x="301" y="-97.5" font-family="Fira Code" font-size="10.00" fill="#000000">travesim::ros_side</text>
<text text-anchor="start" x="301" y="-86.5" font-family="Fira Code" font-size="10.00" fill="#000000">::ReplacerSender::Replacer</text>
<text text-anchor="middle" x="399" y="-75.5" font-family="Fira Code" font-size="10.00" fill="#000000">Sender</text>
</a>
</g>
</g>
<!-- Node4&#45;&gt;Node5 -->
<g id="edge1" class="edge">
<title>Node4&#45;&gt;Node5</title>
<path fill="none" stroke="#191970" d="M530.8311,-73.2746C522.2136,-74.3025 513.558,-75.335 505.0265,-76.3527"/>
<polygon fill="#191970" stroke="#191970" points="531.405,-76.7311 540.9201,-72.0712 530.5759,-69.7803 531.405,-76.7311"/>
</g>
<!-- Node6 -->
<g id="node3" class="node">
<title>Node6</title>
<g id="a_node3"><a xlink:href="../../d8/d44/classtravesim_1_1ros__side_1_1ReplacerSender.html#a8362945aa7722d4b8bbff20402128b48" target="_top" xlink:title="Set the state of one entity.">
<polygon fill="none" stroke="#000000" points="312,-8.5 312,-49.5 486,-49.5 486,-8.5 312,-8.5"/>
<text text-anchor="start" x="320" y="-37.5" font-family="Fira Code" font-size="10.00" fill="#000000">travesim::ros_side</text>
<text text-anchor="start" x="320" y="-26.5" font-family="Fira Code" font-size="10.00" fill="#000000">::ReplacerSender::set</text>
<text text-anchor="middle" x="399" y="-15.5" font-family="Fira Code" font-size="10.00" fill="#000000">_model_state</text>
</a>
</g>
</g>
<!-- Node4&#45;&gt;Node6 -->
<g id="edge2" class="edge">
<title>Node4&#45;&gt;Node6</title>
<path fill="none" stroke="#191970" d="M530.6063,-44.6986C515.6682,-42.9167 500.6196,-41.1216 486.3063,-39.4143"/>
<polygon fill="#191970" stroke="#191970" points="530.5759,-48.2197 540.9201,-45.9288 531.405,-41.2689 530.5759,-48.2197"/>
</g>
<!-- Node7 -->
<g id="node4" class="node">
<title>Node7</title>
<g id="a_node4"><a xlink:href="../../d8/d44/classtravesim_1_1ros__side_1_1ReplacerSender.html#a177b69b64b3139faeae4551b3cd6d2e6" target="_top" xlink:title="Set state of multiple entities.">
<polygon fill="none" stroke="#000000" points="83,-8.5 83,-49.5 257,-49.5 257,-8.5 83,-8.5"/>
<text text-anchor="start" x="91" y="-37.5" font-family="Fira Code" font-size="10.00" fill="#000000">travesim::ros_side</text>
<text text-anchor="start" x="91" y="-26.5" font-family="Fira Code" font-size="10.00" fill="#000000">::ReplacerSender::set</text>
<text text-anchor="middle" x="170" y="-15.5" font-family="Fira Code" font-size="10.00" fill="#000000">_models_state</text>
</a>
</g>
</g>
<!-- Node6&#45;&gt;Node7 -->
<g id="edge3" class="edge">
<title>Node6&#45;&gt;Node7</title>
<path fill="none" stroke="#191970" d="M301.6604,-29C286.9482,-29 271.8492,-29 257.365,-29"/>
<polygon fill="#191970" stroke="#191970" points="301.7717,-32.5001 311.7717,-29 301.7716,-25.5001 301.7717,-32.5001"/>
</g>
<!-- Node8 -->
<g id="node5" class="node">
<title>Node8</title>
<g id="a_node5"><a xlink:href="../../da/d85/replacer__adapter_8cpp.html#a3c04138a5bfe5d72780bb7e82a18e627" target="_top" xlink:title=" ">
<polygon fill="none" stroke="#000000" points="0,-38.5 0,-57.5 47,-57.5 47,-38.5 0,-38.5"/>
<text text-anchor="middle" x="23.5" y="-45.5" font-family="Fira Code" font-size="10.00" fill="#000000">main</text>
</a>
</g>
</g>
<!-- Node7&#45;&gt;Node8 -->
<g id="edge4" class="edge">
<title>Node7&#45;&gt;Node8</title>
<path fill="none" stroke="#191970" d="M72.4752,-41.6483C63.2638,-42.8429 54.6299,-43.9627 47.2541,-44.9193"/>
<polygon fill="#191970" stroke="#191970" points="73.1981,-45.0839 82.6649,-40.3267 72.2977,-38.142 73.1981,-45.0839"/>
</g>
<!-- Node9 -->
<g id="node6" class="node">
<title>Node9</title>
<g id="a_node6"><a xlink:href="../../d5/d78/replacer__sender_8test_8cpp.html#a4b5237914b519d98599c7d1ba1a45ebb" target="_top" xlink:title=" ">
<polygon fill="none" stroke="#000000" points="0,-.5 0,-19.5 47,-19.5 47,-.5 0,-.5"/>
<text text-anchor="middle" x="23.5" y="-7.5" font-family="Fira Code" font-size="10.00" fill="#000000">TEST</text>
</a>
</g>
</g>
<!-- Node7&#45;&gt;Node9 -->
<g id="edge5" class="edge">
<title>Node7&#45;&gt;Node9</title>
<path fill="none" stroke="#191970" d="M72.4752,-16.3517C63.2638,-15.1571 54.6299,-14.0373 47.2541,-13.0807"/>
<polygon fill="#191970" stroke="#191970" points="72.2977,-19.858 82.6649,-17.6733 73.1981,-12.9161 72.2977,-19.858"/>
</g>
</g>
</svg>
