<?xml version="1.0" encoding="UTF-8" standalone="no"?>
<!DOCTYPE svg PUBLIC "-//W3C//DTD SVG 1.1//EN"
 "http://www.w3.org/Graphics/SVG/1.1/DTD/svg11.dtd">
<!-- Generated by graphviz version 2.40.1 (0)
 -->
<!-- Title: travesim::ros_side::ReplacerSender::set_models_state Pages: 1 -->
<svg width="265pt" height="66pt"
 viewBox="0.00 0.00 265.00 66.00" xmlns="http://www.w3.org/2000/svg" xmlns:xlink="http://www.w3.org/1999/xlink">
<g id="graph0" class="graph" transform="scale(1 1) rotate(0) translate(4 62)">
<title>travesim::ros_side::ReplacerSender::set_models_state</title>
<!-- Node22 -->
<g id="node1" class="node">
<title>Node22</title>
<g id="a_node1"><a xlink:title="Set state of multiple entities.">
<polygon fill="#bfbfbf" stroke="#000000" points="83,-8.5 83,-49.5 257,-49.5 257,-8.5 83,-8.5"/>
<text text-anchor="start" x="91" y="-37.5" font-family="Fira Code" font-size="10.00" fill="#000000">travesim::ros_side</text>
<text text-anchor="start" x="91" y="-26.5" font-family="Fira Code" font-size="10.00" fill="#000000">::ReplacerSender::set</text>
<text text-anchor="middle" x="170" y="-15.5" font-family="Fira Code" font-size="10.00" fill="#000000">_models_state</text>
</a>
</g>
</g>
<!-- Node23 -->
<g id="node2" class="node">
<title>Node23</title>
<g id="a_node2"><a xlink:href="../../da/d85/replacer__adapter_8cpp.html#a3c04138a5bfe5d72780bb7e82a18e627" target="_top" xlink:title=" ">
<polygon fill="none" stroke="#000000" points="0,-38.5 0,-57.5 47,-57.5 47,-38.5 0,-38.5"/>
<text text-anchor="middle" x="23.5" y="-45.5" font-family="Fira Code" font-size="10.00" fill="#000000">main</text>
</a>
</g>
</g>
<!-- Node22&#45;&gt;Node23 -->
<g id="edge1" class="edge">
<title>Node22&#45;&gt;Node23</title>
<path fill="none" stroke="#191970" d="M72.4752,-41.6483C63.2638,-42.8429 54.6299,-43.9627 47.2541,-44.9193"/>
<polygon fill="#191970" stroke="#191970" points="73.1981,-45.0839 82.6649,-40.3267 72.2977,-38.142 73.1981,-45.0839"/>
</g>
<!-- Node24 -->
<g id="node3" class="node">
<title>Node24</title>
<g id="a_node3"><a xlink:href="../../d5/d78/replacer__sender_8test_8cpp.html#a4b5237914b519d98599c7d1ba1a45ebb" target="_top" xlink:title=" ">
<polygon fill="none" stroke="#000000" points="0,-.5 0,-19.5 47,-19.5 47,-.5 0,-.5"/>
<text text-anchor="middle" x="23.5" y="-7.5" font-family="Fira Code" font-size="10.00" fill="#000000">TEST</text>
</a>
</g>
</g>
<!-- Node22&#45;&gt;Node24 -->
<g id="edge2" class="edge">
<title>Node22&#45;&gt;Node24</title>
<path fill="none" stroke="#191970" d="M72.4752,-16.3517C63.2638,-15.1571 54.6299,-14.0373 47.2541,-13.0807"/>
<polygon fill="#191970" stroke="#191970" points="72.2977,-19.858 82.6649,-17.6733 73.1981,-12.9161 72.2977,-19.858"/>
</g>
</g>
</svg>
