<?xml version="1.0" encoding="UTF-8" standalone="no"?>
<!DOCTYPE svg PUBLIC "-//W3C//DTD SVG 1.1//EN"
 "http://www.w3.org/Graphics/SVG/1.1/DTD/svg11.dtd">
<!-- Generated by graphviz version 2.40.1 (0)
 -->
<!-- Title: include/travesim_adapters/data/converter/ros_side.hpp Pages: 1 -->
<svg width="1323pt" height="229pt"
 viewBox="0.00 0.00 1323.18 229.00" xmlns="http://www.w3.org/2000/svg" xmlns:xlink="http://www.w3.org/1999/xlink">
<g id="graph0" class="graph" transform="scale(1 1) rotate(0) translate(4 225)">
<title>include/travesim_adapters/data/converter/ros_side.hpp</title>
<!-- Node0 -->
<g id="node1" class="node">
<title>Node0</title>
<g id="a_node1"><a xlink:title="Collection of data converters between ROS and local formats.">
<polygon fill="#bfbfbf" stroke="#000000" points="354.6845,-190.5 354.6845,-220.5 581.6845,-220.5 581.6845,-190.5 354.6845,-190.5"/>
<text text-anchor="start" x="362.6845" y="-208.5" font-family="Fira Code" font-size="10.00" fill="#000000">include/travesim_adapters</text>
<text text-anchor="middle" x="468.1845" y="-197.5" font-family="Fira Code" font-size="10.00" fill="#000000">/data/converter/ros_side.hpp</text>
</a>
</g>
</g>
<!-- Node1 -->
<g id="node2" class="node">
<title>Node1</title>
<g id="a_node2"><a xlink:title=" ">
<polygon fill="none" stroke="#bfbfbf" points="72.6845,-.5 72.6845,-19.5 149.6845,-19.5 149.6845,-.5 72.6845,-.5"/>
<text text-anchor="middle" x="111.1845" y="-7.5" font-family="Fira Code" font-size="10.00" fill="#000000">iostream</text>
</a>
</g>
</g>
<!-- Node0&#45;&gt;Node1 -->
<g id="edge1" class="edge">
<title>Node0&#45;&gt;Node1</title>
<path fill="none" stroke="#191970" d="M354.6384,-200.4749C226.7633,-193.6254 33.729,-179.2277 11.1845,-154 -27.3746,-110.8515 46.4934,-52.37 87.0653,-25.1282"/>
<polygon fill="#191970" stroke="#191970" points="89.196,-27.9163 95.6362,-19.5035 85.3554,-22.0639 89.196,-27.9163"/>
</g>
<!-- Node2 -->
<g id="node3" class="node">
<title>Node2</title>
<g id="a_node3"><a xlink:title=" ">
<polygon fill="none" stroke="#bfbfbf" points="496.1845,-129 496.1845,-148 670.1845,-148 670.1845,-129 496.1845,-129"/>
<text text-anchor="middle" x="583.1845" y="-136" font-family="Fira Code" font-size="10.00" fill="#000000">geometry_msgs/Point.h</text>
</a>
</g>
</g>
<!-- Node0&#45;&gt;Node2 -->
<g id="edge2" class="edge">
<title>Node0&#45;&gt;Node2</title>
<path fill="none" stroke="#191970" d="M493.9928,-190.4639C513.1145,-179.3234 539.0362,-164.2212 558.0063,-153.1691"/>
<polygon fill="#191970" stroke="#191970" points="559.8216,-156.1622 566.7002,-148.1039 556.2977,-150.1138 559.8216,-156.1622"/>
</g>
<!-- Node3 -->
<g id="node4" class="node">
<title>Node3</title>
<g id="a_node4"><a xlink:title=" ">
<polygon fill="none" stroke="#bfbfbf" points="688.6845,-129 688.6845,-148 877.6845,-148 877.6845,-129 688.6845,-129"/>
<text text-anchor="middle" x="783.1845" y="-136" font-family="Fira Code" font-size="10.00" fill="#000000">geometry_msgs/Vector3.h</text>
</a>
</g>
</g>
<!-- Node0&#45;&gt;Node3 -->
<g id="edge3" class="edge">
<title>Node0&#45;&gt;Node3</title>
<path fill="none" stroke="#191970" d="M538.8767,-190.4639C596.3045,-178.2491 676.1242,-161.2716 728.6858,-150.0918"/>
<polygon fill="#191970" stroke="#191970" points="729.4425,-153.5092 738.4955,-148.0053 727.9861,-146.6624 729.4425,-153.5092"/>
</g>
<!-- Node4 -->
<g id="node5" class="node">
<title>Node4</title>
<g id="a_node5"><a xlink:title=" ">
<polygon fill="none" stroke="#bfbfbf" points="895.6845,-129 895.6845,-148 1092.6845,-148 1092.6845,-129 895.6845,-129"/>
<text text-anchor="middle" x="994.1845" y="-136" font-family="Fira Code" font-size="10.00" fill="#000000">gazebo_msgs/ModelState.h</text>
</a>
</g>
</g>
<!-- Node0&#45;&gt;Node4 -->
<g id="edge4" class="edge">
<title>Node0&#45;&gt;Node4</title>
<path fill="none" stroke="#191970" d="M582.0842,-192.1729C666.3974,-182.1441 784.0323,-167.809 887.1845,-154 897.7963,-152.5794 908.9911,-151.0224 919.9824,-149.4602"/>
<polygon fill="#191970" stroke="#191970" points="920.593,-152.9086 929.9967,-148.0279 919.6018,-145.9791 920.593,-152.9086"/>
</g>
<!-- Node5 -->
<g id="node6" class="node">
<title>Node5</title>
<g id="a_node6"><a xlink:title=" ">
<polygon fill="none" stroke="#bfbfbf" points="1111.1845,-129 1111.1845,-148 1315.1845,-148 1315.1845,-129 1111.1845,-129"/>
<text text-anchor="middle" x="1213.1845" y="-136" font-family="Fira Code" font-size="10.00" fill="#000000">gazebo_msgs/ModelStates.h</text>
</a>
</g>
</g>
<!-- Node0&#45;&gt;Node5 -->
<g id="edge5" class="edge">
<title>Node0&#45;&gt;Node5</title>
<path fill="none" stroke="#191970" d="M581.7546,-198.2574C708.7683,-189.6964 920.5221,-174.045 1102.1845,-154 1114.3169,-152.6613 1127.1684,-151.048 1139.6581,-149.375"/>
<polygon fill="#191970" stroke="#191970" points="1140.14,-152.8418 1149.5764,-148.0246 1139.1956,-145.9057 1140.14,-152.8418"/>
</g>
<!-- Node6 -->
<g id="node7" class="node">
<title>Node6</title>
<g id="a_node7"><a xlink:href="../../d9/d46/data__common_8hpp.html" target="_top" xlink:title="Common constants and types for the data structures.">
<polygon fill="none" stroke="#000000" points="398.1845,-56.5 398.1845,-86.5 580.1845,-86.5 580.1845,-56.5 398.1845,-56.5"/>
<text text-anchor="start" x="406.1845" y="-74.5" font-family="Fira Code" font-size="10.00" fill="#000000">travesim_adapters/data</text>
<text text-anchor="middle" x="489.1845" y="-63.5" font-family="Fira Code" font-size="10.00" fill="#000000">/data_common.hpp</text>
</a>
</g>
</g>
<!-- Node0&#45;&gt;Node6 -->
<g id="edge6" class="edge">
<title>Node0&#45;&gt;Node6</title>
<path fill="none" stroke="#191970" d="M470.5527,-190.389C474.1132,-167.6691 480.8883,-124.438 485.2132,-96.8405"/>
<polygon fill="#191970" stroke="#191970" points="488.7023,-97.1827 486.7928,-86.7614 481.7867,-96.0989 488.7023,-97.1827"/>
</g>
<!-- Node7 -->
<g id="node8" class="node">
<title>Node7</title>
<g id="a_node8"><a xlink:href="../../dc/d09/robot__state_8hpp.html" target="_top" xlink:title="Robot state data structure.">
<polygon fill="none" stroke="#000000" points="20.1845,-123.5 20.1845,-153.5 202.1845,-153.5 202.1845,-123.5 20.1845,-123.5"/>
<text text-anchor="start" x="28.1845" y="-141.5" font-family="Fira Code" font-size="10.00" fill="#000000">travesim_adapters/data</text>
<text text-anchor="middle" x="111.1845" y="-130.5" font-family="Fira Code" font-size="10.00" fill="#000000">/robot_state.hpp</text>
</a>
</g>
</g>
<!-- Node0&#45;&gt;Node7 -->
<g id="edge7" class="edge">
<title>Node0&#45;&gt;Node7</title>
<path fill="none" stroke="#191970" d="M388.0668,-190.4639C332.6989,-180.0727 258.9653,-166.2348 201.5089,-155.4516"/>
<polygon fill="#191970" stroke="#191970" points="201.8172,-151.9485 191.3431,-153.5438 200.5259,-158.8283 201.8172,-151.9485"/>
</g>
<!-- Node8 -->
<g id="node9" class="node">
<title>Node8</title>
<g id="a_node9"><a xlink:href="../../de/d28/entity__state_8hpp.html" target="_top" xlink:title="Entity state data structure.">
<polygon fill="none" stroke="#000000" points="80.1845,-56.5 80.1845,-86.5 262.1845,-86.5 262.1845,-56.5 80.1845,-56.5"/>
<text text-anchor="start" x="88.1845" y="-74.5" font-family="Fira Code" font-size="10.00" fill="#000000">travesim_adapters/data</text>
<text text-anchor="middle" x="171.1845" y="-63.5" font-family="Fira Code" font-size="10.00" fill="#000000">/entity_state.hpp</text>
</a>
</g>
</g>
<!-- Node0&#45;&gt;Node8 -->
<g id="edge11" class="edge">
<title>Node0&#45;&gt;Node8</title>
<path fill="none" stroke="#191970" d="M354.5923,-191.7921C319.1876,-184.1832 281.0906,-172.3613 249.1845,-154 235.5507,-146.154 208.5974,-116.0221 190.233,-94.4437"/>
<polygon fill="#191970" stroke="#191970" points="192.7854,-92.0413 183.6609,-86.6566 187.436,-96.5561 192.7854,-92.0413"/>
</g>
<!-- Node9 -->
<g id="node10" class="node">
<title>Node9</title>
<g id="a_node10"><a xlink:href="../../de/d1e/field__state_8hpp.html" target="_top" xlink:title=" ">
<polygon fill="none" stroke="#000000" points="258.1845,-123.5 258.1845,-153.5 440.1845,-153.5 440.1845,-123.5 258.1845,-123.5"/>
<text text-anchor="start" x="266.1845" y="-141.5" font-family="Fira Code" font-size="10.00" fill="#000000">travesim_adapters/data</text>
<text text-anchor="middle" x="349.1845" y="-130.5" font-family="Fira Code" font-size="10.00" fill="#000000">/field_state.hpp</text>
</a>
</g>
</g>
<!-- Node0&#45;&gt;Node9 -->
<g id="edge12" class="edge">
<title>Node0&#45;&gt;Node9</title>
<path fill="none" stroke="#191970" d="M441.4786,-190.4639C424.9061,-181.1332 403.3974,-169.0232 385.3134,-158.8415"/>
<polygon fill="#191970" stroke="#191970" points="386.644,-155.574 376.213,-153.7177 383.2097,-161.6737 386.644,-155.574"/>
</g>
<!-- Node7&#45;&gt;Node1 -->
<g id="edge8" class="edge">
<title>Node7&#45;&gt;Node1</title>
<path fill="none" stroke="#191970" d="M95.121,-123.4715C86.1966,-113.9853 75.9562,-100.9224 71.1845,-87 66.7175,-73.9665 66.3584,-68.9049 71.1845,-56 75.2994,-44.9969 83.366,-34.8874 91.1839,-26.9652"/>
<polygon fill="#191970" stroke="#191970" points="93.8877,-29.2264 98.7633,-19.82 89.086,-24.1329 93.8877,-29.2264"/>
</g>
<!-- Node7&#45;&gt;Node8 -->
<g id="edge9" class="edge">
<title>Node7&#45;&gt;Node8</title>
<path fill="none" stroke="#191970" d="M124.7995,-123.2967C132.4708,-114.7303 142.2042,-103.8614 150.7718,-94.2943"/>
<polygon fill="#191970" stroke="#191970" points="153.5596,-96.4276 157.6235,-86.6432 148.3449,-91.7578 153.5596,-96.4276"/>
</g>
<!-- Node8&#45;&gt;Node1 -->
<g id="edge10" class="edge">
<title>Node8&#45;&gt;Node1</title>
<path fill="none" stroke="#191970" d="M156.3531,-56.2977C147.7642,-47.4941 136.9243,-36.3833 128.0166,-27.2529"/>
<polygon fill="#191970" stroke="#191970" points="130.2798,-24.5606 120.7913,-19.8469 125.2693,-29.4489 130.2798,-24.5606"/>
</g>
<!-- Node9&#45;&gt;Node1 -->
<g id="edge14" class="edge">
<title>Node9&#45;&gt;Node1</title>
<path fill="none" stroke="#191970" d="M338.8564,-123.3745C325.401,-104.8081 300.1461,-73.6248 271.1845,-56 236.9498,-35.1661 192.8625,-23.4061 159.6385,-17.0024"/>
<polygon fill="#191970" stroke="#191970" points="160.1661,-13.5409 149.6993,-15.1829 158.9056,-20.4265 160.1661,-13.5409"/>
</g>
<!-- Node9&#45;&gt;Node6 -->
<g id="edge15" class="edge">
<title>Node9&#45;&gt;Node6</title>
<path fill="none" stroke="#191970" d="M380.6033,-123.4639C400.5475,-113.9191 426.5684,-101.4663 448.1374,-91.144"/>
<polygon fill="#191970" stroke="#191970" points="449.8769,-94.1917 457.3863,-86.7177 446.8551,-87.8775 449.8769,-94.1917"/>
</g>
<!-- Node9&#45;&gt;Node8 -->
<g id="edge16" class="edge">
<title>Node9&#45;&gt;Node8</title>
<path fill="none" stroke="#191970" d="M309.2379,-123.4639C283.1062,-113.6278 248.7697,-100.7034 220.8782,-90.2049"/>
<polygon fill="#191970" stroke="#191970" points="221.8974,-86.8489 211.3054,-86.6017 219.4314,-93.4001 221.8974,-86.8489"/>
</g>
<!-- Node10 -->
<g id="node11" class="node">
<title>Node10</title>
<g id="a_node11"><a xlink:title=" ">
<polygon fill="none" stroke="#bfbfbf" points="318.1845,-62 318.1845,-81 380.1845,-81 380.1845,-62 318.1845,-62"/>
<text text-anchor="middle" x="349.1845" y="-69" font-family="Fira Code" font-size="10.00" fill="#000000">vector</text>
</a>
</g>
</g>
<!-- Node9&#45;&gt;Node10 -->
<g id="edge13" class="edge">
<title>Node9&#45;&gt;Node10</title>
<path fill="none" stroke="#191970" d="M349.1845,-123.2967C349.1845,-113.7699 349.1845,-101.3954 349.1845,-91.1306"/>
<polygon fill="#191970" stroke="#191970" points="352.6846,-91.0549 349.1845,-81.055 345.6846,-91.055 352.6846,-91.0549"/>
</g>
</g>
</svg>
