<?xml version="1.0" encoding="UTF-8" standalone="no"?>
<!DOCTYPE svg PUBLIC "-//W3C//DTD SVG 1.1//EN"
 "http://www.w3.org/Graphics/SVG/1.1/DTD/svg11.dtd">
<!-- Generated by graphviz version 2.40.1 (0)
 -->
<!-- Title: travesim::udp::MulticastReceiver::MulticastReceiver Pages: 1 -->
<svg width="460pt" height="99pt"
 viewBox="0.00 0.00 460.00 98.50" xmlns="http://www.w3.org/2000/svg" xmlns:xlink="http://www.w3.org/1999/xlink">
<g id="graph0" class="graph" transform="scale(1 1) rotate(0) translate(4 94.5)">
<title>travesim::udp::MulticastReceiver::MulticastReceiver</title>
<!-- Node0 -->
<g id="node1" class="node">
<title>Node0</title>
<g id="a_node1"><a xlink:title="Construct a new Multicast Receiver object.">
<polygon fill="#bfbfbf" stroke="#000000" points="0,-33 0,-63 219,-63 219,-33 0,-33"/>
<text text-anchor="start" x="8" y="-51" font-family="Fira Code" font-size="10.00" fill="#000000">travesim::udp::Multicast</text>
<text text-anchor="middle" x="109.5" y="-40" font-family="Fira Code" font-size="10.00" fill="#000000">Receiver::MulticastReceiver</text>
</a>
</g>
</g>
<!-- Node1 -->
<g id="node2" class="node">
<title>Node1</title>
<g id="a_node2"><a xlink:href="../../d2/d4f/classtravesim_1_1udp_1_1MulticastReceiver.html#a9dc613eb2505f3fc852915dcc5f6db80" target="_top" xlink:title="Open the socket with the desired options.">
<polygon fill="none" stroke="#000000" points="255,-60 255,-90 452,-90 452,-60 255,-60"/>
<text text-anchor="start" x="263" y="-78" font-family="Fira Code" font-size="10.00" fill="#000000">travesim::udp::Multicast</text>
<text text-anchor="middle" x="353.5" y="-67" font-family="Fira Code" font-size="10.00" fill="#000000">Receiver::open_socket</text>
</a>
</g>
</g>
<!-- Node0&#45;&gt;Node1 -->
<g id="edge1" class="edge">
<title>Node0&#45;&gt;Node1</title>
<path fill="none" stroke="#191970" d="M219.0097,-60.1179C227.5692,-61.065 236.2116,-62.0214 244.766,-62.968"/>
<polygon fill="#191970" stroke="#191970" points="244.433,-66.4524 254.7573,-64.0736 245.203,-59.4949 244.433,-66.4524"/>
</g>
<!-- Node2 -->
<g id="node3" class="node">
<title>Node2</title>
<g id="a_node3"><a xlink:href="../../d2/d4f/classtravesim_1_1udp_1_1MulticastReceiver.html#aeff90445faee48d0d379ffa328057685" target="_top" xlink:title="Set the multicast address.">
<polygon fill="none" stroke="#000000" points="255,-.5 255,-41.5 452,-41.5 452,-.5 255,-.5"/>
<text text-anchor="start" x="263" y="-29.5" font-family="Fira Code" font-size="10.00" fill="#000000">travesim::udp::Multicast</text>
<text text-anchor="start" x="263" y="-18.5" font-family="Fira Code" font-size="10.00" fill="#000000">Receiver::set_multicast</text>
<text text-anchor="middle" x="353.5" y="-7.5" font-family="Fira Code" font-size="10.00" fill="#000000">_address</text>
</a>
</g>
</g>
<!-- Node0&#45;&gt;Node2 -->
<g id="edge2" class="edge">
<title>Node0&#45;&gt;Node2</title>
<path fill="none" stroke="#191970" d="M219.0097,-35.8821C227.5692,-34.935 236.2116,-33.9786 244.766,-33.032"/>
<polygon fill="#191970" stroke="#191970" points="245.203,-36.5051 254.7573,-31.9264 244.433,-29.5476 245.203,-36.5051"/>
</g>
</g>
</svg>
