<?xml version="1.0" encoding="UTF-8" standalone="no"?>
<!DOCTYPE svg PUBLIC "-//W3C//DTD SVG 1.1//EN"
 "http://www.w3.org/Graphics/SVG/1.1/DTD/svg11.dtd">
<!-- Generated by graphviz version 2.40.1 (0)
 -->
<!-- Title: main Pages: 1 -->
<svg width="850pt" height="620pt"
 viewBox="0.00 0.00 850.00 619.50" xmlns="http://www.w3.org/2000/svg" xmlns:xlink="http://www.w3.org/1999/xlink">
<g id="graph0" class="graph" transform="scale(1 1) rotate(0) translate(4 615.5)">
<title>main</title>
<!-- Node0 -->
<g id="node1" class="node">
<title>Node0</title>
<g id="a_node1"><a xlink:title=" ">
<polygon fill="#bfbfbf" stroke="#000000" points="0,-300.5 0,-319.5 47,-319.5 47,-300.5 0,-300.5"/>
<text text-anchor="middle" x="23.5" y="-307.5" font-family="Fira Code" font-size="10.00" fill="#000000">main</text>
</a>
</g>
</g>
<!-- Node1 -->
<g id="node2" class="node">
<title>Node1</title>
<g id="a_node2"><a xlink:href="../../d6/d3d/namespacetravesim_1_1converter.html#a6d486910a036b99f60fc65798e1f9422" target="_top" xlink:title="Function to convert travesim::EntityState to gazebo_msgs::ModelState.">
<polygon fill="none" stroke="#000000" points="368,-379 368,-409 587,-409 587,-379 368,-379"/>
<text text-anchor="start" x="376" y="-397" font-family="Fira Code" font-size="10.00" fill="#000000">travesim::converter</text>
<text text-anchor="middle" x="477.5" y="-386" font-family="Fira Code" font-size="10.00" fill="#000000">::EntityState_to_ModelState</text>
</a>
</g>
</g>
<!-- Node0&#45;&gt;Node1 -->
<g id="edge1" class="edge">
<title>Node0&#45;&gt;Node1</title>
<path fill="none" stroke="#191970" d="M47.281,-305.5657C99.802,-296.6898 229.1895,-279.8879 332,-308 377.6578,-320.4845 423.5474,-351.3825 451.2478,-372.5313"/>
<polygon fill="#191970" stroke="#191970" points="449.1986,-375.3714 459.2401,-378.7505 453.4974,-369.847 449.1986,-375.3714"/>
</g>
<!-- Node4 -->
<g id="node5" class="node">
<title>Node4</title>
<g id="a_node5"><a xlink:href="../../d5/d4a/classtravesim_1_1proto_1_1ReplacerReceiver.html#a3496b698ccf155a90282c89faa413ba2" target="_top" xlink:title="Set wheter to enable any source or source specific multicast. True for specific source,...">
<polygon fill="none" stroke="#000000" points="83,-513 83,-543 332,-543 332,-513 83,-513"/>
<text text-anchor="start" x="91" y="-531" font-family="Fira Code" font-size="10.00" fill="#000000">travesim::proto::Replacer</text>
<text text-anchor="middle" x="207.5" y="-520" font-family="Fira Code" font-size="10.00" fill="#000000">Receiver::force_specific_source</text>
</a>
</g>
</g>
<!-- Node0&#45;&gt;Node4 -->
<g id="edge4" class="edge">
<title>Node0&#45;&gt;Node4</title>
<path fill="none" stroke="#191970" d="M25.1554,-319.8585C31.372,-355.7015 54.4322,-478.3404 83,-504 84.1771,-505.0572 85.3862,-506.074 86.6246,-507.0518"/>
<polygon fill="#191970" stroke="#191970" points="84.9737,-510.1646 95.1948,-512.954 88.9441,-504.3995 84.9737,-510.1646"/>
</g>
<!-- Node5 -->
<g id="node6" class="node">
<title>Node5</title>
<g id="a_node6"><a xlink:href="../../d3/df0/classtravesim_1_1ReplacerConfigurer.html#aeaaa46b3e10fba23cb2dd2efc0c4c6fb" target="_top" xlink:title="Get the replacer configured address.">
<polygon fill="none" stroke="#000000" points="94,-562 94,-592 321,-592 321,-562 94,-562"/>
<text text-anchor="start" x="102" y="-580" font-family="Fira Code" font-size="10.00" fill="#000000">travesim::ReplacerConfigurer</text>
<text text-anchor="middle" x="207.5" y="-569" font-family="Fira Code" font-size="10.00" fill="#000000">::get_address</text>
</a>
</g>
</g>
<!-- Node0&#45;&gt;Node5 -->
<g id="edge5" class="edge">
<title>Node0&#45;&gt;Node5</title>
<path fill="none" stroke="#191970" d="M24.4917,-319.6834C28.8917,-360.7192 47.9942,-519.692 83,-553 83.9867,-553.9389 84.9985,-554.8464 86.0335,-555.7235"/>
<polygon fill="#191970" stroke="#191970" points="84.2637,-558.7664 94.3942,-561.8686 88.4094,-553.126 84.2637,-558.7664"/>
</g>
<!-- Node9 -->
<g id="node10" class="node">
<title>Node9</title>
<g id="a_node10"><a xlink:href="../../d3/df0/classtravesim_1_1ReplacerConfigurer.html#a62b3b192d5b77c9f3aeac513e454f99e" target="_top" xlink:title="Get the replacer configured port.">
<polygon fill="none" stroke="#000000" points="94,-415 94,-445 321,-445 321,-415 94,-415"/>
<text text-anchor="start" x="102" y="-433" font-family="Fira Code" font-size="10.00" fill="#000000">travesim::ReplacerConfigurer</text>
<text text-anchor="middle" x="207.5" y="-422" font-family="Fira Code" font-size="10.00" fill="#000000">::get_port</text>
</a>
</g>
</g>
<!-- Node0&#45;&gt;Node9 -->
<g id="edge9" class="edge">
<title>Node0&#45;&gt;Node9</title>
<path fill="none" stroke="#191970" d="M26.5575,-319.7556C33.2863,-339.5071 51.35,-384.1984 83,-406 85.181,-407.5024 87.432,-408.9165 89.7416,-410.2474"/>
<polygon fill="#191970" stroke="#191970" points="88.4244,-413.5061 98.9164,-414.9788 91.6328,-407.2847 88.4244,-413.5061"/>
</g>
<!-- Node10 -->
<g id="node11" class="node">
<title>Node10</title>
<g id="a_node11"><a xlink:href="../../dd/d5b/classtravesim_1_1AdapterConfigurer.html#a036c5ec113755fcbb96bfed6943ab174" target="_top" xlink:title="Get the reset config.">
<polygon fill="none" stroke="#000000" points="98,-366 98,-396 317,-396 317,-366 98,-366"/>
<text text-anchor="start" x="106" y="-384" font-family="Fira Code" font-size="10.00" fill="#000000">travesim::AdapterConfigurer</text>
<text text-anchor="middle" x="207.5" y="-373" font-family="Fira Code" font-size="10.00" fill="#000000">::get_reset</text>
</a>
</g>
</g>
<!-- Node0&#45;&gt;Node10 -->
<g id="edge10" class="edge">
<title>Node0&#45;&gt;Node10</title>
<path fill="none" stroke="#191970" d="M32.631,-319.5784C43.5522,-330.4275 62.8933,-347.7909 83,-357 87.4561,-359.0409 92.0788,-360.9084 96.8055,-362.6172"/>
<polygon fill="#191970" stroke="#191970" points="96.0398,-366.0516 106.6336,-365.9064 98.2614,-359.4135 96.0398,-366.0516"/>
</g>
<!-- Node11 -->
<g id="node12" class="node">
<title>Node11</title>
<g id="a_node12"><a xlink:href="../../d3/df0/classtravesim_1_1ReplacerConfigurer.html#a1b4d2a6f7ed4da42b69f1ddfbc9df133" target="_top" xlink:title="Get the specific_source config.">
<polygon fill="none" stroke="#000000" points="94,-317 94,-347 321,-347 321,-317 94,-317"/>
<text text-anchor="start" x="102" y="-335" font-family="Fira Code" font-size="10.00" fill="#000000">travesim::ReplacerConfigurer</text>
<text text-anchor="middle" x="207.5" y="-324" font-family="Fira Code" font-size="10.00" fill="#000000">::get_specific_source</text>
</a>
</g>
</g>
<!-- Node0&#45;&gt;Node11 -->
<g id="edge11" class="edge">
<title>Node0&#45;&gt;Node11</title>
<path fill="none" stroke="#191970" d="M47.1781,-312.8311C57.2535,-314.0357 69.8335,-315.5399 83.4884,-317.1725"/>
<polygon fill="#191970" stroke="#191970" points="83.2559,-320.6696 93.6007,-318.3816 84.087,-313.7191 83.2559,-320.6696"/>
</g>
<!-- Node12 -->
<g id="node13" class="node">
<title>Node12</title>
<g id="a_node13"><a xlink:href="../../d5/d4a/classtravesim_1_1proto_1_1ReplacerReceiver.html#abacb36956126510b9bae3d305e1ed1ad" target="_top" xlink:title="Receive the replacement commands.">
<polygon fill="none" stroke="#000000" points="105.5,-180 105.5,-210 309.5,-210 309.5,-180 105.5,-180"/>
<text text-anchor="start" x="113.5" y="-198" font-family="Fira Code" font-size="10.00" fill="#000000">travesim::proto::Replacer</text>
<text text-anchor="middle" x="207.5" y="-187" font-family="Fira Code" font-size="10.00" fill="#000000">Receiver::receive</text>
</a>
</g>
</g>
<!-- Node0&#45;&gt;Node12 -->
<g id="edge12" class="edge">
<title>Node0&#45;&gt;Node12</title>
<path fill="none" stroke="#191970" d="M26.9748,-300.2905C34.2284,-281.513 52.8541,-240.2897 83,-220 87.0722,-217.2592 91.3779,-214.806 95.8456,-212.6112"/>
<polygon fill="#191970" stroke="#191970" points="97.4945,-215.7089 105.2208,-208.4595 94.6601,-209.3084 97.4945,-215.7089"/>
</g>
<!-- Node15 -->
<g id="node16" class="node">
<title>Node15</title>
<g id="a_node16"><a xlink:href="../../d5/d4a/classtravesim_1_1proto_1_1ReplacerReceiver.html#a831338c749514a764aa44def5ca12f39" target="_top" xlink:title="Reset the receiver.">
<polygon fill="none" stroke="#000000" points="105.5,-229 105.5,-259 309.5,-259 309.5,-229 105.5,-229"/>
<text text-anchor="start" x="113.5" y="-247" font-family="Fira Code" font-size="10.00" fill="#000000">travesim::proto::Replacer</text>
<text text-anchor="middle" x="207.5" y="-236" font-family="Fira Code" font-size="10.00" fill="#000000">Receiver::reset</text>
</a>
</g>
</g>
<!-- Node0&#45;&gt;Node15 -->
<g id="edge15" class="edge">
<title>Node0&#45;&gt;Node15</title>
<path fill="none" stroke="#191970" d="M36.5779,-300.4601C48.2345,-292.3643 66.0284,-280.982 83,-274 94.438,-269.2945 106.7839,-265.2174 119.103,-261.7179"/>
<polygon fill="#191970" stroke="#191970" points="120.2299,-265.0385 128.959,-259.0341 118.3907,-258.2844 120.2299,-265.0385"/>
</g>
<!-- Node16 -->
<g id="node17" class="node">
<title>Node16</title>
<g id="a_node17"><a xlink:href="../../d6/d3d/namespacetravesim_1_1converter.html#ac5627853c78581bcfe89dea3d7c32cca" target="_top" xlink:title="Function to convert travesim::RobotState to gazebo_msgs::ModelState.">
<polygon fill="none" stroke="#000000" points="101.5,-464 101.5,-494 313.5,-494 313.5,-464 101.5,-464"/>
<text text-anchor="start" x="109.5" y="-482" font-family="Fira Code" font-size="10.00" fill="#000000">travesim::converter</text>
<text text-anchor="middle" x="207.5" y="-471" font-family="Fira Code" font-size="10.00" fill="#000000">::RobotState_to_ModelState</text>
</a>
</g>
</g>
<!-- Node0&#45;&gt;Node16 -->
<g id="edge16" class="edge">
<title>Node0&#45;&gt;Node16</title>
<path fill="none" stroke="#191970" d="M24.3717,-319.6005C27.2966,-345.8342 39.2023,-419.1517 83,-455 85.9863,-457.4443 89.1474,-459.6663 92.4455,-461.6851"/>
<polygon fill="#191970" stroke="#191970" points="91.0086,-464.8871 101.4693,-466.5674 94.3396,-458.7304 91.0086,-464.8871"/>
</g>
<!-- Node17 -->
<g id="node18" class="node">
<title>Node17</title>
<g id="a_node18"><a xlink:href="../../d8/d44/classtravesim_1_1ros__side_1_1ReplacerSender.html#af334c7464ba9b8647792b4640c70b297" target="_top" xlink:title="Send command to gazebo.">
<polygon fill="none" stroke="#000000" points="116.5,-120.5 116.5,-161.5 298.5,-161.5 298.5,-120.5 116.5,-120.5"/>
<text text-anchor="start" x="124.5" y="-149.5" font-family="Fira Code" font-size="10.00" fill="#000000">travesim::ros_side</text>
<text text-anchor="start" x="124.5" y="-138.5" font-family="Fira Code" font-size="10.00" fill="#000000">::ReplacerSender::send</text>
<text text-anchor="middle" x="207.5" y="-127.5" font-family="Fira Code" font-size="10.00" fill="#000000">_command</text>
</a>
</g>
</g>
<!-- Node0&#45;&gt;Node17 -->
<g id="edge18" class="edge">
<title>Node0&#45;&gt;Node17</title>
<path fill="none" stroke="#191970" d="M24.6951,-300.1572C28.3357,-274.6359 41.6901,-205.8937 83,-171 90.1098,-164.9945 98.2232,-160.1509 106.8219,-156.2497"/>
<polygon fill="#191970" stroke="#191970" points="108.381,-159.3938 116.3183,-152.3761 105.7371,-152.9123 108.381,-159.3938"/>
</g>
<!-- Node18 -->
<g id="node19" class="node">
<title>Node18</title>
<g id="a_node19"><a xlink:href="../../d8/d44/classtravesim_1_1ros__side_1_1ReplacerSender.html#a177b69b64b3139faeae4551b3cd6d2e6" target="_top" xlink:title="Set state of multiple entities.">
<polygon fill="none" stroke="#000000" points="120.5,-60.5 120.5,-101.5 294.5,-101.5 294.5,-60.5 120.5,-60.5"/>
<text text-anchor="start" x="128.5" y="-89.5" font-family="Fira Code" font-size="10.00" fill="#000000">travesim::ros_side</text>
<text text-anchor="start" x="128.5" y="-78.5" font-family="Fira Code" font-size="10.00" fill="#000000">::ReplacerSender::set</text>
<text text-anchor="middle" x="207.5" y="-67.5" font-family="Fira Code" font-size="10.00" fill="#000000">_models_state</text>
</a>
</g>
</g>
<!-- Node0&#45;&gt;Node18 -->
<g id="edge19" class="edge">
<title>Node0&#45;&gt;Node18</title>
<path fill="none" stroke="#191970" d="M25.0731,-300.4325C31.1703,-264.4831 54.3349,-138.1554 83,-111 90.9707,-103.4491 100.499,-97.6951 110.6874,-93.3256"/>
<polygon fill="#191970" stroke="#191970" points="112.1114,-96.5284 120.204,-89.6902 109.6134,-89.9893 112.1114,-96.5284"/>
</g>
<!-- Node21 -->
<g id="node22" class="node">
<title>Node21</title>
<g id="a_node22"><a xlink:href="../../d5/d4a/classtravesim_1_1proto_1_1ReplacerReceiver.html#a665d968c88b28f196bb3e4a6d7cf94db" target="_top" xlink:title="Set the receiver endpoint.">
<polygon fill="none" stroke="#000000" points="105.5,-.5 105.5,-41.5 309.5,-41.5 309.5,-.5 105.5,-.5"/>
<text text-anchor="start" x="113.5" y="-29.5" font-family="Fira Code" font-size="10.00" fill="#000000">travesim::proto::Replacer</text>
<text text-anchor="start" x="113.5" y="-18.5" font-family="Fira Code" font-size="10.00" fill="#000000">Receiver::set_receiver</text>
<text text-anchor="middle" x="207.5" y="-7.5" font-family="Fira Code" font-size="10.00" fill="#000000">_endpoint</text>
</a>
</g>
</g>
<!-- Node0&#45;&gt;Node21 -->
<g id="edge22" class="edge">
<title>Node0&#45;&gt;Node21</title>
<path fill="none" stroke="#191970" d="M24.3801,-300.309C28.4413,-257.7183 46.7378,-87.6502 83,-51 87.0559,-46.9006 91.5681,-43.324 96.4022,-40.2063"/>
<polygon fill="#191970" stroke="#191970" points="98.4605,-43.0622 105.4227,-35.0761 94.9998,-36.9774 98.4605,-43.0622"/>
</g>
<!-- Node2 -->
<g id="node3" class="node">
<title>Node2</title>
<g id="a_node3"><a xlink:href="../../d6/d3d/namespacetravesim_1_1converter.html#a389749796334ec513d508de7b81da2d6" target="_top" xlink:title="Function to convert travesim::Vector2D to geometry_msgs::Point.">
<polygon fill="none" stroke="#000000" points="653,-354 653,-384 812,-384 812,-354 653,-354"/>
<text text-anchor="start" x="661" y="-372" font-family="Fira Code" font-size="10.00" fill="#000000">travesim::converter</text>
<text text-anchor="middle" x="732.5" y="-361" font-family="Fira Code" font-size="10.00" fill="#000000">::Vector2D_to_Point</text>
</a>
</g>
</g>
<!-- Node1&#45;&gt;Node2 -->
<g id="edge2" class="edge">
<title>Node1&#45;&gt;Node2</title>
<path fill="none" stroke="#191970" d="M587.1228,-383.2527C605.7153,-381.4299 624.8252,-379.5564 642.8286,-377.7913"/>
<polygon fill="#191970" stroke="#191970" points="643.3854,-381.2536 652.9962,-376.7945 642.7024,-374.287 643.3854,-381.2536"/>
</g>
<!-- Node3 -->
<g id="node4" class="node">
<title>Node3</title>
<g id="a_node4"><a xlink:href="../../d6/d3d/namespacetravesim_1_1converter.html#aef469dc9282ff1263bba64c66c2bc3a1" target="_top" xlink:title="Function to convert travesim::Vector2D to geometry_msgs::Vector3.">
<polygon fill="none" stroke="#000000" points="645.5,-403 645.5,-433 819.5,-433 819.5,-403 645.5,-403"/>
<text text-anchor="start" x="653.5" y="-421" font-family="Fira Code" font-size="10.00" fill="#000000">travesim::converter</text>
<text text-anchor="middle" x="732.5" y="-410" font-family="Fira Code" font-size="10.00" fill="#000000">::Vector2D_to_Vector3</text>
</a>
</g>
</g>
<!-- Node1&#45;&gt;Node3 -->
<g id="edge3" class="edge">
<title>Node1&#45;&gt;Node3</title>
<path fill="none" stroke="#191970" d="M587.1228,-404.3174C603.0683,-405.8182 619.3943,-407.3548 635.0765,-408.8307"/>
<polygon fill="#191970" stroke="#191970" points="634.9945,-412.3384 645.2785,-409.7909 635.6505,-405.3692 634.9945,-412.3384"/>
</g>
<!-- Node6 -->
<g id="node7" class="node">
<title>Node6</title>
<g id="a_node7"><a xlink:href="../../d1/d4b/namespacetravesim.html#a05f869547c07b49b722c2afb6c1967ef" target="_top" xlink:title="Checks if a IP is valid and is in the specified range.">
<polygon fill="none" stroke="#000000" points="379,-586.5 379,-605.5 576,-605.5 576,-586.5 379,-586.5"/>
<text text-anchor="middle" x="477.5" y="-593.5" font-family="Fira Code" font-size="10.00" fill="#000000">travesim::check_valid_ip</text>
</a>
</g>
</g>
<!-- Node5&#45;&gt;Node6 -->
<g id="edge6" class="edge">
<title>Node5&#45;&gt;Node6</title>
<path fill="none" stroke="#191970" d="M321.2218,-585.0026C336.9454,-586.1091 353.0641,-587.2434 368.6955,-588.3434"/>
<polygon fill="#191970" stroke="#191970" points="368.6671,-591.85 378.8882,-589.0606 369.1586,-584.8672 368.6671,-591.85"/>
</g>
<!-- Node8 -->
<g id="node9" class="node">
<title>Node8</title>
<g id="a_node9"><a xlink:href="../../d1/d4b/namespacetravesim.html#a32624f8212a09572f8587ea017f67d30" target="_top" xlink:title="Get the error msg based on the validation type.">
<polygon fill="none" stroke="#000000" points="383,-548.5 383,-567.5 572,-567.5 572,-548.5 383,-548.5"/>
<text text-anchor="middle" x="477.5" y="-555.5" font-family="Fira Code" font-size="10.00" fill="#000000">travesim::get_error_msg</text>
</a>
</g>
</g>
<!-- Node5&#45;&gt;Node8 -->
<g id="edge8" class="edge">
<title>Node5&#45;&gt;Node8</title>
<path fill="none" stroke="#191970" d="M321.2218,-568.9974C338.1693,-567.8048 355.5758,-566.5799 372.3364,-565.4004"/>
<polygon fill="#191970" stroke="#191970" points="372.9493,-568.866 382.6789,-564.6726 372.4578,-561.8833 372.9493,-568.866"/>
</g>
<!-- Node7 -->
<g id="node8" class="node">
<title>Node7</title>
<g id="a_node8"><a xlink:href="../../d1/d4b/namespacetravesim.html#ad051590d1f7aa8c749f82ed36c4b2cba" target="_top" xlink:title="Converts a IPv4 in a string to a array of unsigned integers, where the most significant byte of the I...">
<polygon fill="none" stroke="#000000" points="645.5,-581 645.5,-611 819.5,-611 819.5,-581 645.5,-581"/>
<text text-anchor="start" x="653.5" y="-599" font-family="Fira Code" font-size="10.00" fill="#000000">travesim::ipv4_string</text>
<text text-anchor="middle" x="732.5" y="-588" font-family="Fira Code" font-size="10.00" fill="#000000">_to_uint</text>
</a>
</g>
</g>
<!-- Node6&#45;&gt;Node7 -->
<g id="edge7" class="edge">
<title>Node6&#45;&gt;Node7</title>
<path fill="none" stroke="#191970" d="M576.0897,-596C595.5432,-596 615.9445,-596 635.3501,-596"/>
<polygon fill="#191970" stroke="#191970" points="635.3969,-599.5001 645.3968,-596 635.3968,-592.5001 635.3969,-599.5001"/>
</g>
<!-- Node13 -->
<g id="node14" class="node">
<title>Node13</title>
<g id="a_node14"><a xlink:href="../../d5/d4a/classtravesim_1_1proto_1_1ReplacerReceiver.html#a95c3ca946b4aedf5c98803e7c832cf1c" target="_top" xlink:title="Convert a RobotReplacement protobuf message to a RobotState.">
<polygon fill="none" stroke="#000000" points="375.5,-207.5 375.5,-248.5 579.5,-248.5 579.5,-207.5 375.5,-207.5"/>
<text text-anchor="start" x="383.5" y="-236.5" font-family="Fira Code" font-size="10.00" fill="#000000">travesim::proto::Replacer</text>
<text text-anchor="start" x="383.5" y="-225.5" font-family="Fira Code" font-size="10.00" fill="#000000">Receiver::robot_rplcmt</text>
<text text-anchor="middle" x="477.5" y="-214.5" font-family="Fira Code" font-size="10.00" fill="#000000">_pb_to_robot_state</text>
</a>
</g>
</g>
<!-- Node12&#45;&gt;Node13 -->
<g id="edge13" class="edge">
<title>Node12&#45;&gt;Node13</title>
<path fill="none" stroke="#191970" d="M309.5754,-207.4759C327.7196,-209.6935 346.7088,-212.0144 365.1202,-214.2647"/>
<polygon fill="#191970" stroke="#191970" points="364.9295,-217.7673 375.2802,-215.5065 365.7787,-210.819 364.9295,-217.7673"/>
</g>
<!-- Node14 -->
<g id="node15" class="node">
<title>Node14</title>
<g id="a_node15"><a xlink:href="../../d5/d4a/classtravesim_1_1proto_1_1ReplacerReceiver.html#a92a11afe21eaf8c2d3ed511007b82953" target="_top" xlink:title="Convert a BallReplacement protobuf message to a EntityState.">
<polygon fill="none" stroke="#000000" points="375.5,-147.5 375.5,-188.5 579.5,-188.5 579.5,-147.5 375.5,-147.5"/>
<text text-anchor="start" x="383.5" y="-176.5" font-family="Fira Code" font-size="10.00" fill="#000000">travesim::proto::Replacer</text>
<text text-anchor="start" x="383.5" y="-165.5" font-family="Fira Code" font-size="10.00" fill="#000000">Receiver::ball_rplcmt_pb</text>
<text text-anchor="middle" x="477.5" y="-154.5" font-family="Fira Code" font-size="10.00" fill="#000000">_to_entity_state</text>
</a>
</g>
</g>
<!-- Node12&#45;&gt;Node14 -->
<g id="edge14" class="edge">
<title>Node12&#45;&gt;Node14</title>
<path fill="none" stroke="#191970" d="M309.5754,-184.7925C327.7196,-182.978 346.7088,-181.0791 365.1202,-179.238"/>
<polygon fill="#191970" stroke="#191970" points="365.6782,-182.6997 375.2802,-178.222 364.9816,-175.7345 365.6782,-182.6997"/>
</g>
<!-- Node16&#45;&gt;Node1 -->
<g id="edge17" class="edge">
<title>Node16&#45;&gt;Node1</title>
<path fill="none" stroke="#191970" d="M297.4697,-463.9565C309.1776,-461.3285 320.9383,-458.3457 332,-455 368.6278,-443.9216 408.6109,-426.7677 437.3785,-413.4689"/>
<polygon fill="#191970" stroke="#191970" points="439.1054,-416.5253 446.6835,-409.121 436.142,-410.1835 439.1054,-416.5253"/>
</g>
<!-- Node19 -->
<g id="node20" class="node">
<title>Node19</title>
<g id="a_node20"><a xlink:href="../../d8/d44/classtravesim_1_1ros__side_1_1ReplacerSender.html#a8362945aa7722d4b8bbff20402128b48" target="_top" xlink:title="Set the state of one entity.">
<polygon fill="none" stroke="#000000" points="390.5,-60.5 390.5,-101.5 564.5,-101.5 564.5,-60.5 390.5,-60.5"/>
<text text-anchor="start" x="398.5" y="-89.5" font-family="Fira Code" font-size="10.00" fill="#000000">travesim::ros_side</text>
<text text-anchor="start" x="398.5" y="-78.5" font-family="Fira Code" font-size="10.00" fill="#000000">::ReplacerSender::set</text>
<text text-anchor="middle" x="477.5" y="-67.5" font-family="Fira Code" font-size="10.00" fill="#000000">_model_state</text>
</a>
</g>
</g>
<!-- Node18&#45;&gt;Node19 -->
<g id="edge20" class="edge">
<title>Node18&#45;&gt;Node19</title>
<path fill="none" stroke="#191970" d="M294.7884,-81C321.9579,-81 352.0862,-81 379.9122,-81"/>
<polygon fill="#191970" stroke="#191970" points="380.05,-84.5001 390.05,-81 380.0499,-77.5001 380.05,-84.5001"/>
</g>
<!-- Node20 -->
<g id="node21" class="node">
<title>Node20</title>
<g id="a_node21"><a xlink:href="../../d8/d44/classtravesim_1_1ros__side_1_1ReplacerSender.html#aa78948b06021a691d891535377b5a833" target="_top" xlink:title="Attempts to reconnect gz_service ServiceClient if connection dropped.">
<polygon fill="none" stroke="#000000" points="623,-60.5 623,-101.5 842,-101.5 842,-60.5 623,-60.5"/>
<text text-anchor="start" x="631" y="-89.5" font-family="Fira Code" font-size="10.00" fill="#000000">travesim::ros_side</text>
<text text-anchor="start" x="631" y="-78.5" font-family="Fira Code" font-size="10.00" fill="#000000">::ReplacerSender::reconnect</text>
<text text-anchor="middle" x="732.5" y="-67.5" font-family="Fira Code" font-size="10.00" fill="#000000">_service_client</text>
</a>
</g>
</g>
<!-- Node19&#45;&gt;Node20 -->
<g id="edge21" class="edge">
<title>Node19&#45;&gt;Node20</title>
<path fill="none" stroke="#191970" d="M564.5433,-81C580.076,-81 596.5024,-81 612.7599,-81"/>
<polygon fill="#191970" stroke="#191970" points="612.8512,-84.5001 622.8511,-81 612.8511,-77.5001 612.8512,-84.5001"/>
</g>
</g>
</svg>
