<?xml version="1.0" encoding="UTF-8" standalone="no"?>
<!DOCTYPE svg PUBLIC "-//W3C//DTD SVG 1.1//EN"
 "http://www.w3.org/Graphics/SVG/1.1/DTD/svg11.dtd">
<!-- Generated by graphviz version 2.40.1 (0)
 -->
<!-- Title: include/travesim_adapters/configurers/vision_configurer.hpp Pages: 1 -->
<svg width="680pt" height="106pt"
 viewBox="0.00 0.00 680.00 106.00" xmlns="http://www.w3.org/2000/svg" xmlns:xlink="http://www.w3.org/1999/xlink">
<g id="graph0" class="graph" transform="scale(1 1) rotate(0) translate(4 102)">
<title>include/travesim_adapters/configurers/vision_configurer.hpp</title>
<!-- Node8 -->
<g id="node1" class="node">
<title>Node8</title>
<g id="a_node1"><a xlink:title="Configurer for the vision.">
<polygon fill="#bfbfbf" stroke="#000000" points="230,-67.5 230,-97.5 502,-97.5 502,-67.5 230,-67.5"/>
<text text-anchor="start" x="238" y="-85.5" font-family="Fira Code" font-size="10.00" fill="#000000">include/travesim_adapters</text>
<text text-anchor="middle" x="366" y="-74.5" font-family="Fira Code" font-size="10.00" fill="#000000">/configurers/vision_configurer.hpp</text>
</a>
</g>
</g>
<!-- Node9 -->
<g id="node2" class="node">
<title>Node9</title>
<g id="a_node2"><a xlink:href="../../df/dfd/vision__configurer__example_8cpp.html" target="_top" xlink:title="Example on how to use the VisionConfigurer.">
<polygon fill="none" stroke="#000000" points="0,-.5 0,-30.5 242,-30.5 242,-.5 0,-.5"/>
<text text-anchor="start" x="8" y="-18.5" font-family="Fira Code" font-size="10.00" fill="#000000">examples/configurers</text>
<text text-anchor="middle" x="121" y="-7.5" font-family="Fira Code" font-size="10.00" fill="#000000">/vision_configurer_example.cpp</text>
</a>
</g>
</g>
<!-- Node8&#45;&gt;Node9 -->
<g id="edge1" class="edge">
<title>Node8&#45;&gt;Node9</title>
<path fill="none" stroke="#191970" d="M301.3484,-64.8198C262.4068,-54.1704 213.3414,-40.7525 176.2226,-30.6017"/>
<polygon fill="#191970" stroke="#191970" points="300.4481,-68.202 311.0172,-67.4639 302.2947,-61.4499 300.4481,-68.202"/>
</g>
<!-- Node10 -->
<g id="node3" class="node">
<title>Node10</title>
<g id="a_node3"><a xlink:href="../../df/ddf/vision__adapter_8cpp.html" target="_top" xlink:title="Vision adapter executable file.">
<polygon fill="none" stroke="#000000" points="260,-6 260,-25 472,-25 472,-6 260,-6"/>
<text text-anchor="middle" x="366" y="-13" font-family="Fira Code" font-size="10.00" fill="#000000">src/bin/vision_adapter.cpp</text>
</a>
</g>
</g>
<!-- Node8&#45;&gt;Node10 -->
<g id="edge2" class="edge">
<title>Node8&#45;&gt;Node10</title>
<path fill="none" stroke="#191970" d="M366,-57.1199C366,-45.9072 366,-33.4031 366,-25.055"/>
<polygon fill="#191970" stroke="#191970" points="362.5001,-57.2966 366,-67.2967 369.5001,-57.2967 362.5001,-57.2966"/>
</g>
<!-- Node11 -->
<g id="node4" class="node">
<title>Node11</title>
<g id="a_node4"><a xlink:href="../../d7/d1a/vision__configurer_8cpp.html" target="_top" xlink:title="Configurer for the vision.">
<polygon fill="none" stroke="#000000" points="490,-.5 490,-30.5 672,-30.5 672,-.5 490,-.5"/>
<text text-anchor="start" x="498" y="-18.5" font-family="Fira Code" font-size="10.00" fill="#000000">src/lib/configurers</text>
<text text-anchor="middle" x="581" y="-7.5" font-family="Fira Code" font-size="10.00" fill="#000000">/vision_configurer.cpp</text>
</a>
</g>
</g>
<!-- Node8&#45;&gt;Node11 -->
<g id="edge3" class="edge">
<title>Node8&#45;&gt;Node11</title>
<path fill="none" stroke="#191970" d="M424.0426,-64.4123C458.0013,-53.8298 500.3798,-40.6235 532.5394,-30.6017"/>
<polygon fill="#191970" stroke="#191970" points="422.756,-61.1471 414.2502,-67.4639 424.8387,-67.8302 422.756,-61.1471"/>
</g>
</g>
</svg>
