<?xml version="1.0" encoding="UTF-8" standalone="no"?>
<!DOCTYPE svg PUBLIC "-//W3C//DTD SVG 1.1//EN"
 "http://www.w3.org/Graphics/SVG/1.1/DTD/svg11.dtd">
<!-- Generated by graphviz version 2.40.1 (0)
 -->
<!-- Title: include/travesim_adapters/protobuf/vision_sender.hpp Pages: 1 -->
<svg width="643pt" height="106pt"
 viewBox="0.00 0.00 643.00 106.00" xmlns="http://www.w3.org/2000/svg" xmlns:xlink="http://www.w3.org/1999/xlink">
<g id="graph0" class="graph" transform="scale(1 1) rotate(0) translate(4 102)">
<title>include/travesim_adapters/protobuf/vision_sender.hpp</title>
<!-- Node12 -->
<g id="node1" class="node">
<title>Node12</title>
<g id="a_node1"><a xlink:title="Vision data sender with UDP and protobuf.">
<polygon fill="#bfbfbf" stroke="#000000" points="212,-67.5 212,-97.5 431,-97.5 431,-67.5 212,-67.5"/>
<text text-anchor="start" x="220" y="-85.5" font-family="Fira Code" font-size="10.00" fill="#000000">include/travesim_adapters</text>
<text text-anchor="middle" x="321.5" y="-74.5" font-family="Fira Code" font-size="10.00" fill="#000000">/protobuf/vision_sender.hpp</text>
</a>
</g>
</g>
<!-- Node13 -->
<g id="node2" class="node">
<title>Node13</title>
<g id="a_node2"><a xlink:href="../../de/d50/vision__sender__example_8cpp.html" target="_top" xlink:title="Example on how to use the VisionSender with protobuf.">
<polygon fill="none" stroke="#000000" points="0,-.5 0,-30.5 197,-30.5 197,-.5 0,-.5"/>
<text text-anchor="start" x="8" y="-18.5" font-family="Fira Code" font-size="10.00" fill="#000000">examples/protobuf/vision</text>
<text text-anchor="middle" x="98.5" y="-7.5" font-family="Fira Code" font-size="10.00" fill="#000000">_sender_example.cpp</text>
</a>
</g>
</g>
<!-- Node12&#45;&gt;Node13 -->
<g id="edge1" class="edge">
<title>Node12&#45;&gt;Node13</title>
<path fill="none" stroke="#191970" d="M261.7507,-64.5484C226.4529,-53.9432 182.2632,-40.6665 148.7638,-30.6017"/>
<polygon fill="#191970" stroke="#191970" points="260.8702,-67.9384 271.4544,-67.4639 262.8845,-61.2344 260.8702,-67.9384"/>
</g>
<!-- Node14 -->
<g id="node3" class="node">
<title>Node14</title>
<g id="a_node3"><a xlink:href="../../df/ddf/vision__adapter_8cpp.html" target="_top" xlink:title="Vision adapter executable file.">
<polygon fill="none" stroke="#000000" points="215.5,-6 215.5,-25 427.5,-25 427.5,-6 215.5,-6"/>
<text text-anchor="middle" x="321.5" y="-13" font-family="Fira Code" font-size="10.00" fill="#000000">src/bin/vision_adapter.cpp</text>
</a>
</g>
</g>
<!-- Node12&#45;&gt;Node14 -->
<g id="edge2" class="edge">
<title>Node12&#45;&gt;Node14</title>
<path fill="none" stroke="#191970" d="M321.5,-57.1199C321.5,-45.9072 321.5,-33.4031 321.5,-25.055"/>
<polygon fill="#191970" stroke="#191970" points="318.0001,-57.2966 321.5,-67.2967 325.0001,-57.2967 318.0001,-57.2966"/>
</g>
<!-- Node15 -->
<g id="node4" class="node">
<title>Node15</title>
<g id="a_node4"><a xlink:href="../../d0/d19/vision__sender_8cpp.html" target="_top" xlink:title="Vision data sender with UDP and protobuf.">
<polygon fill="none" stroke="#000000" points="446,-.5 446,-30.5 635,-30.5 635,-.5 446,-.5"/>
<text text-anchor="start" x="454" y="-18.5" font-family="Fira Code" font-size="10.00" fill="#000000">src/lib/protobuf/vision</text>
<text text-anchor="middle" x="540.5" y="-7.5" font-family="Fira Code" font-size="10.00" fill="#000000">_sender.cpp</text>
</a>
</g>
</g>
<!-- Node12&#45;&gt;Node15 -->
<g id="edge3" class="edge">
<title>Node12&#45;&gt;Node15</title>
<path fill="none" stroke="#191970" d="M380.6224,-64.4123C415.213,-53.8298 458.3799,-40.6235 491.1378,-30.6017"/>
<polygon fill="#191970" stroke="#191970" points="379.1864,-61.1914 370.6479,-67.4639 381.2343,-67.8852 379.1864,-61.1914"/>
</g>
</g>
</svg>
