<?xml version="1.0" encoding="UTF-8" standalone="no"?>
<!DOCTYPE svg PUBLIC "-//W3C//DTD SVG 1.1//EN"
 "http://www.w3.org/Graphics/SVG/1.1/DTD/svg11.dtd">
<!-- Generated by graphviz version 2.40.1 (0)
 -->
<!-- Title: travesim::FieldState Pages: 1 -->
<svg width="182pt" height="375pt"
 viewBox="0.00 0.00 182.00 375.00" xmlns="http://www.w3.org/2000/svg" xmlns:xlink="http://www.w3.org/1999/xlink">
<g id="graph0" class="graph" transform="scale(1 1) rotate(0) translate(4 371)">
<title>travesim::FieldState</title>
<!-- Node1 -->
<g id="node1" class="node">
<title>Node1</title>
<g id="a_node1"><a xlink:title="Data structure to hold the field state.">
<polygon fill="#bfbfbf" stroke="#000000" points="3.5,-.5 3.5,-90.5 170.5,-90.5 170.5,-.5 3.5,-.5"/>
<text text-anchor="middle" x="87" y="-78.5" font-family="Fira Code" font-size="10.00" fill="#000000">travesim::FieldState</text>
<polyline fill="none" stroke="#000000" points="3.5,-71.5 170.5,-71.5 "/>
<text text-anchor="start" x="11.5" y="-59.5" font-family="Fira Code" font-size="10.00" fill="#000000">+ time_step</text>
<text text-anchor="start" x="11.5" y="-48.5" font-family="Fira Code" font-size="10.00" fill="#000000">+ robots_per_team</text>
<text text-anchor="start" x="11.5" y="-37.5" font-family="Fira Code" font-size="10.00" fill="#000000">+ yellow_team</text>
<text text-anchor="start" x="11.5" y="-26.5" font-family="Fira Code" font-size="10.00" fill="#000000">+ blue_team</text>
<polyline fill="none" stroke="#000000" points="3.5,-19.5 170.5,-19.5 "/>
<text text-anchor="start" x="11.5" y="-7.5" font-family="Fira Code" font-size="10.00" fill="#000000">+ FieldState()</text>
</a>
</g>
</g>
<!-- Node2 -->
<g id="node2" class="node">
<title>Node2</title>
<g id="a_node2"><a xlink:href="../../d9/d12/classtravesim_1_1EntityState.html" target="_top" xlink:title="Data structure to hold the state of a entity in the simulation.">
<polygon fill="none" stroke="#000000" points="0,-138.5 0,-228.5 174,-228.5 174,-138.5 0,-138.5"/>
<text text-anchor="middle" x="87" y="-216.5" font-family="Fira Code" font-size="10.00" fill="#000000">travesim::EntityState</text>
<polyline fill="none" stroke="#000000" points="0,-209.5 174,-209.5 "/>
<text text-anchor="start" x="8" y="-197.5" font-family="Fira Code" font-size="10.00" fill="#000000">+ angular_position</text>
<text text-anchor="start" x="8" y="-186.5" font-family="Fira Code" font-size="10.00" fill="#000000">+ angular_velocity</text>
<polyline fill="none" stroke="#000000" points="0,-179.5 174,-179.5 "/>
<text text-anchor="start" x="8" y="-167.5" font-family="Fira Code" font-size="10.00" fill="#000000">+ EntityState()</text>
<text text-anchor="start" x="8" y="-156.5" font-family="Fira Code" font-size="10.00" fill="#000000">+ EntityState()</text>
<text text-anchor="start" x="8" y="-145.5" font-family="Fira Code" font-size="10.00" fill="#000000">+ ~EntityState()</text>
</a>
</g>
</g>
<!-- Node2&#45;&gt;Node1 -->
<g id="edge1" class="edge">
<title>Node2&#45;&gt;Node1</title>
<path fill="none" stroke="#404040" d="M87,-138.3136C87,-126.9955 87,-114.703 87,-102.8793"/>
<polygon fill="none" stroke="#404040" points="87.0001,-102.7879 83,-96.7879 87,-90.7879 91,-96.7878 87.0001,-102.7879"/>
<text text-anchor="middle" x="110" y="-112" font-family="Fira Code" font-size="10.00" fill="#000000"> +ball</text>
</g>
<!-- Node3 -->
<g id="node3" class="node">
<title>Node3</title>
<g id="a_node3"><a xlink:href="../../d9/d2b/classtravesim_1_1Vector2D.html" target="_top" xlink:title="Data structure to hold a two dimensional vector.">
<polygon fill="none" stroke="#000000" points="11,-287.5 11,-366.5 163,-366.5 163,-287.5 11,-287.5"/>
<text text-anchor="middle" x="87" y="-354.5" font-family="Fira Code" font-size="10.00" fill="#000000">travesim::Vector2D</text>
<polyline fill="none" stroke="#000000" points="11,-347.5 163,-347.5 "/>
<text text-anchor="start" x="19" y="-335.5" font-family="Fira Code" font-size="10.00" fill="#000000">+ x</text>
<text text-anchor="start" x="19" y="-324.5" font-family="Fira Code" font-size="10.00" fill="#000000">+ y</text>
<polyline fill="none" stroke="#000000" points="11,-317.5 163,-317.5 "/>
<text text-anchor="start" x="19" y="-305.5" font-family="Fira Code" font-size="10.00" fill="#000000">+ Vector2D()</text>
<text text-anchor="start" x="19" y="-294.5" font-family="Fira Code" font-size="10.00" fill="#000000">+ rotate()</text>
</a>
</g>
</g>
<!-- Node3&#45;&gt;Node2 -->
<g id="edge2" class="edge">
<title>Node3&#45;&gt;Node2</title>
<path fill="none" stroke="#404040" d="M87,-287.4081C87,-273.0069 87,-256.4264 87,-240.7999"/>
<polygon fill="none" stroke="#404040" points="87.0001,-240.5321 83,-234.5321 87,-228.5321 91,-234.5321 87.0001,-240.5321"/>
<text text-anchor="middle" x="125" y="-261" font-family="Fira Code" font-size="10.00" fill="#000000"> +velocity</text>
<text text-anchor="middle" x="125" y="-250" font-family="Fira Code" font-size="10.00" fill="#000000">+position</text>
</g>
</g>
</svg>
