<?xml version="1.0" encoding="UTF-8" standalone="no"?>
<!DOCTYPE svg PUBLIC "-//W3C//DTD SVG 1.1//EN"
 "http://www.w3.org/Graphics/SVG/1.1/DTD/svg11.dtd">
<!-- Generated by graphviz version 2.40.1 (0)
 -->
<!-- Title: include/travesim_adapters/ros/teams_sender.hpp Pages: 1 -->
<svg width="616pt" height="173pt"
 viewBox="0.00 0.00 616.00 173.00" xmlns="http://www.w3.org/2000/svg" xmlns:xlink="http://www.w3.org/1999/xlink">
<g id="graph0" class="graph" transform="scale(1 1) rotate(0) translate(4 169)">
<title>include/travesim_adapters/ros/teams_sender.hpp</title>
<!-- Node0 -->
<g id="node1" class="node">
<title>Node0</title>
<g id="a_node1"><a xlink:title="ROS teams commands sender class definition.">
<polygon fill="#bfbfbf" stroke="#000000" points="201,-134.5 201,-164.5 405,-164.5 405,-134.5 201,-134.5"/>
<text text-anchor="start" x="209" y="-152.5" font-family="Fira Code" font-size="10.00" fill="#000000">include/travesim_adapters</text>
<text text-anchor="middle" x="303" y="-141.5" font-family="Fira Code" font-size="10.00" fill="#000000">/ros/teams_sender.hpp</text>
</a>
</g>
</g>
<!-- Node1 -->
<g id="node2" class="node">
<title>Node1</title>
<g id="a_node2"><a xlink:title=" ">
<polygon fill="none" stroke="#bfbfbf" points="0,-73 0,-92 84,-92 84,-73 0,-73"/>
<text text-anchor="middle" x="42" y="-80" font-family="Fira Code" font-size="10.00" fill="#000000">ros/ros.h</text>
</a>
</g>
</g>
<!-- Node0&#45;&gt;Node1 -->
<g id="edge1" class="edge">
<title>Node0&#45;&gt;Node1</title>
<path fill="none" stroke="#191970" d="M237.4936,-134.4064C195.9481,-124.5942 141.1472,-111.2097 93,-98 89.4442,-97.0244 85.7599,-95.9771 82.0731,-94.9039"/>
<polygon fill="#191970" stroke="#191970" points="82.9775,-91.5215 72.3951,-92.0345 80.9876,-98.2327 82.9775,-91.5215"/>
</g>
<!-- Node2 -->
<g id="node3" class="node">
<title>Node2</title>
<g id="a_node3"><a xlink:title=" ">
<polygon fill="none" stroke="#bfbfbf" points="102,-73 102,-92 216,-92 216,-73 102,-73"/>
<text text-anchor="middle" x="159" y="-80" font-family="Fira Code" font-size="10.00" fill="#000000">ros/console.h</text>
</a>
</g>
</g>
<!-- Node0&#45;&gt;Node2 -->
<g id="edge2" class="edge">
<title>Node0&#45;&gt;Node2</title>
<path fill="none" stroke="#191970" d="M270.6836,-134.4639C246.1957,-123.0702 212.8016,-107.5327 188.9216,-96.4219"/>
<polygon fill="#191970" stroke="#191970" points="190.1844,-93.1492 179.6413,-92.1039 187.2314,-99.4958 190.1844,-93.1492"/>
</g>
<!-- Node3 -->
<g id="node4" class="node">
<title>Node3</title>
<g id="a_node4"><a xlink:href="../../d7/d05/team__command_8hpp.html" target="_top" xlink:title="Team command data structure.">
<polygon fill="none" stroke="#000000" points="272,-67.5 272,-97.5 454,-97.5 454,-67.5 272,-67.5"/>
<text text-anchor="start" x="280" y="-85.5" font-family="Fira Code" font-size="10.00" fill="#000000">travesim_adapters/data</text>
<text text-anchor="middle" x="363" y="-74.5" font-family="Fira Code" font-size="10.00" fill="#000000">/team_command.hpp</text>
</a>
</g>
</g>
<!-- Node0&#45;&gt;Node3 -->
<g id="edge3" class="edge">
<title>Node0&#45;&gt;Node3</title>
<path fill="none" stroke="#191970" d="M316.6149,-134.2967C324.2863,-125.7303 334.0196,-114.8614 342.5872,-105.2943"/>
<polygon fill="#191970" stroke="#191970" points="345.3751,-107.4276 349.439,-97.6432 340.1604,-102.7578 345.3751,-107.4276"/>
</g>
<!-- Node4 -->
<g id="node5" class="node">
<title>Node4</title>
<g id="a_node5"><a xlink:title=" ">
<polygon fill="none" stroke="#bfbfbf" points="231,-6 231,-25 293,-25 293,-6 231,-6"/>
<text text-anchor="middle" x="262" y="-13" font-family="Fira Code" font-size="10.00" fill="#000000">vector</text>
</a>
</g>
</g>
<!-- Node0&#45;&gt;Node4 -->
<g id="edge8" class="edge">
<title>Node0&#45;&gt;Node4</title>
<path fill="none" stroke="#191970" d="M286.9977,-134.4503C278.095,-124.9566 267.8559,-111.8932 263,-98 255.8277,-77.4796 256.8075,-52.2965 258.7947,-35.19"/>
<polygon fill="#191970" stroke="#191970" points="262.267,-35.6304 260.1705,-25.2451 255.3331,-34.6711 262.267,-35.6304"/>
</g>
<!-- Node5 -->
<g id="node6" class="node">
<title>Node5</title>
<g id="a_node6"><a xlink:title=" ">
<polygon fill="none" stroke="#bfbfbf" points="326.5,-6 326.5,-25 403.5,-25 403.5,-6 326.5,-6"/>
<text text-anchor="middle" x="365" y="-13" font-family="Fira Code" font-size="10.00" fill="#000000">iostream</text>
</a>
</g>
</g>
<!-- Node0&#45;&gt;Node5 -->
<g id="edge9" class="edge">
<title>Node0&#45;&gt;Node5</title>
<path fill="none" stroke="#191970" d="M377.3746,-134.4244C413.8608,-125.3643 452.2595,-112.7403 463,-98 471.1137,-86.8647 470.1247,-78.7926 463,-67 455.6851,-54.8926 424.3829,-39.6821 399.0962,-28.9398"/>
<polygon fill="#191970" stroke="#191970" points="400.3393,-25.6662 389.762,-25.0573 397.6509,-32.1294 400.3393,-25.6662"/>
</g>
<!-- Node6 -->
<g id="node7" class="node">
<title>Node6</title>
<g id="a_node7"><a xlink:href="../../d9/d46/data__common_8hpp.html" target="_top" xlink:title="Common constants and types for the data structures.">
<polygon fill="none" stroke="#000000" points="426,-.5 426,-30.5 608,-30.5 608,-.5 426,-.5"/>
<text text-anchor="start" x="434" y="-18.5" font-family="Fira Code" font-size="10.00" fill="#000000">travesim_adapters/data</text>
<text text-anchor="middle" x="517" y="-7.5" font-family="Fira Code" font-size="10.00" fill="#000000">/data_common.hpp</text>
</a>
</g>
</g>
<!-- Node0&#45;&gt;Node6 -->
<g id="edge7" class="edge">
<title>Node0&#45;&gt;Node6</title>
<path fill="none" stroke="#191970" d="M376.6142,-134.399C417.4952,-124.7893 463.2118,-111.623 479,-98 496.2464,-83.1188 506.1288,-58.7635 511.4665,-40.3643"/>
<polygon fill="#191970" stroke="#191970" points="514.877,-41.157 514.0439,-30.595 508.1086,-39.3713 514.877,-41.157"/>
</g>
<!-- Node3&#45;&gt;Node4 -->
<g id="edge4" class="edge">
<title>Node3&#45;&gt;Node4</title>
<path fill="none" stroke="#191970" d="M340.3336,-67.4639C323.8451,-56.526 301.5996,-41.769 285.0278,-30.7759"/>
<polygon fill="#191970" stroke="#191970" points="286.7455,-27.7153 276.4776,-25.1039 282.8759,-33.5485 286.7455,-27.7153"/>
</g>
<!-- Node3&#45;&gt;Node5 -->
<g id="edge5" class="edge">
<title>Node3&#45;&gt;Node5</title>
<path fill="none" stroke="#191970" d="M363.4538,-67.2967C363.7382,-57.7699 364.1076,-45.3954 364.414,-35.1306"/>
<polygon fill="#191970" stroke="#191970" points="367.9147,-35.155 364.7148,-25.055 360.9179,-34.9461 367.9147,-35.155"/>
</g>
<!-- Node3&#45;&gt;Node6 -->
<g id="edge6" class="edge">
<title>Node3&#45;&gt;Node6</title>
<path fill="none" stroke="#191970" d="M397.5606,-67.4639C419.8727,-57.7567 449.0987,-45.0415 473.0554,-34.6188"/>
<polygon fill="#191970" stroke="#191970" points="474.5152,-37.8006 482.2887,-30.6017 471.7226,-31.3818 474.5152,-37.8006"/>
</g>
</g>
</svg>
