<?xml version="1.0" encoding="UTF-8" standalone="no"?>
<!DOCTYPE svg PUBLIC "-//W3C//DTD SVG 1.1//EN"
 "http://www.w3.org/Graphics/SVG/1.1/DTD/svg11.dtd">
<!-- Generated by graphviz version 2.40.1 (0)
 -->
<!-- Title: test/mocks/bin/gazebo_services.mock.cpp Pages: 1 -->
<!--zoomable 296 -->
<svg id="main" version="1.1" xmlns="http://www.w3.org/2000/svg" xmlns:xlink="http://www.w3.org/1999/xlink" xml:space="preserve" onload="init(evt)">
<style type="text/css"><![CDATA[
.edge:hover path { stroke: red; }
.edge:hover polygon { stroke: red; fill: red; }
]]></style>
<script type="text/javascript"><![CDATA[
var edges = document.getElementsByTagName('g');
if (edges && edges.length) {
  for (var i=0;i<edges.length;i++) {
    if (edges[i].id.substr(0,4)=='edge') {
      edges[i].setAttribute('class','edge');
    }
  }
}
]]></script>
        <defs>
                <circle id="rim" cx="0" cy="0" r="7"/>
                <circle id="rim2" cx="0" cy="0" r="3.5"/>
                <g id="zoomPlus">
                        <use xlink:href="#rim" fill="#404040">
                                <set attributeName="fill" to="#808080" begin="zoomplus.mouseover" end="zoomplus.mouseout"/>
                        </use>
                        <path d="M-4,0h8M0,-4v8" fill="none" stroke="white" stroke-width="1.5" pointer-events="none"/>
                </g>
                <g id="zoomMin">
                        <use xlink:href="#rim" fill="#404040">
                                <set attributeName="fill" to="#808080" begin="zoomminus.mouseover" end="zoomminus.mouseout"/>
                        </use>
                        <path d="M-4,0h8" fill="none" stroke="white" stroke-width="1.5" pointer-events="none"/>
                </g>
                <g id="dirArrow">
                        <path fill="none" stroke="white" stroke-width="1.5" d="M0,-3.0v7 M-2.5,-0.5L0,-3.0L2.5,-0.5"/>
                </g>
               <g id="resetDef">
                       <use xlink:href="#rim2" fill="#404040">
                               <set attributeName="fill" to="#808080" begin="reset.mouseover" end="reset.mouseout"/>
                       </use>
               </g>
        </defs>

<script type="text/javascript">
var viewWidth = 1512;
var viewHeight = 296;
var sectionId = 'dynsection-0';
</script>
<script xlink:href="../../svgpan.js"/>
<svg id="graph" class="graph">
<g id="viewport">
<title>test/mocks/bin/gazebo_services.mock.cpp</title>
<!-- Node0 -->
<g id="node1" class="node">
<title>Node0</title>
<g id="a_node1"><a xlink:title=" ">
<polygon fill="#bfbfbf" stroke="#000000" points="339.5,-257.5 339.5,-287.5 513.5,-287.5 513.5,-257.5 339.5,-257.5"/>
<text text-anchor="start" x="347.5" y="-275.5" font-family="Fira Code" font-size="10.00" fill="#000000">test/mocks/bin/gazebo</text>
<text text-anchor="middle" x="426.5" y="-264.5" font-family="Fira Code" font-size="10.00" fill="#000000">_services.mock.cpp</text>
</a>
</g>
</g>
<!-- Node1 -->
<g id="node2" class="node">
<title>Node1</title>
<g id="a_node2"><a xlink:title=" ">
<polygon fill="none" stroke="#bfbfbf" points="6.5,-196 6.5,-215 90.5,-215 90.5,-196 6.5,-196"/>
<text text-anchor="middle" x="48.5" y="-203" font-family="Fira Code" font-size="10.00" fill="#000000">ros/ros.h</text>
</a>
</g>
</g>
<!-- Node0&#45;&gt;Node1 -->
<g id="edge1" class="edge">
<title>Node0&#45;&gt;Node1</title>
<path fill="none" stroke="#191970" d="M339.4677,-262.1391C273.2182,-253.4466 180.02,-239.4824 99.5,-221 95.4412,-220.0684 91.2335,-218.9853 87.0546,-217.8329"/>
<polygon fill="#191970" stroke="#191970" points="88.0184,-214.4682 77.4399,-215.0565 86.0763,-221.1935 88.0184,-214.4682"/>
</g>
<!-- Node2 -->
<g id="node3" class="node">
<title>Node2</title>
<g id="a_node3"><a xlink:title=" ">
<polygon fill="none" stroke="#bfbfbf" points="108.5,-196 108.5,-215 222.5,-215 222.5,-196 108.5,-196"/>
<text text-anchor="middle" x="165.5" y="-203" font-family="Fira Code" font-size="10.00" fill="#000000">ros/console.h</text>
</a>
</g>
</g>
<!-- Node0&#45;&gt;Node2 -->
<g id="edge2" class="edge">
<title>Node0&#45;&gt;Node2</title>
<path fill="none" stroke="#191970" d="M367.9265,-257.4639C320.937,-245.4015 255.8542,-228.6944 212.2963,-217.5128"/>
<polygon fill="#191970" stroke="#191970" points="213.0843,-214.1017 202.5281,-215.0053 211.3437,-220.8819 213.0843,-214.1017"/>
</g>
<!-- Node3 -->
<g id="node4" class="node">
<title>Node3</title>
<g id="a_node4"><a xlink:title=" ">
<polygon fill="none" stroke="#bfbfbf" points="0,-129 0,-148 197,-148 197,-129 0,-129"/>
<text text-anchor="middle" x="98.5" y="-136" font-family="Fira Code" font-size="10.00" fill="#000000">gazebo_msgs/ModelState.h</text>
</a>
</g>
</g>
<!-- Node0&#45;&gt;Node3 -->
<g id="edge3" class="edge">
<title>Node0&#45;&gt;Node3</title>
<path fill="none" stroke="#191970" d="M387.0147,-257.4358C361.3505,-247.473 327.2528,-233.9129 297.5,-221 267.7713,-208.0975 261.2954,-202.7477 231.5,-190 198.8573,-176.0341 161.0556,-161.556 134.1154,-151.5211"/>
<polygon fill="#191970" stroke="#191970" points="135.3042,-148.2291 124.7111,-148.0343 132.8706,-154.7925 135.3042,-148.2291"/>
</g>
<!-- Node4 -->
<g id="node5" class="node">
<title>Node4</title>
<g id="a_node5"><a xlink:title=" ">
<polygon fill="none" stroke="#bfbfbf" points="215.5,-129 215.5,-148 419.5,-148 419.5,-129 215.5,-129"/>
<text text-anchor="middle" x="317.5" y="-136" font-family="Fira Code" font-size="10.00" fill="#000000">gazebo_msgs/ModelStates.h</text>
</a>
</g>
</g>
<!-- Node0&#45;&gt;Node4 -->
<g id="edge4" class="edge">
<title>Node0&#45;&gt;Node4</title>
<path fill="none" stroke="#191970" d="M356.5594,-257.4855C337.4371,-249.8299 318.8703,-238.3102 307.5,-221 295.0517,-202.0486 301.6558,-175.2742 308.6114,-157.4239"/>
<polygon fill="#191970" stroke="#191970" points="311.8967,-158.6427 312.6061,-148.0717 305.4593,-155.8931 311.8967,-158.6427"/>
</g>
<!-- Node5 -->
<g id="node6" class="node">
<title>Node5</title>
<g id="a_node6"><a xlink:title=" ">
<polygon fill="none" stroke="#bfbfbf" points="317,-196 317,-215 536,-215 536,-196 317,-196"/>
<text text-anchor="middle" x="426.5" y="-203" font-family="Fira Code" font-size="10.00" fill="#000000">gazebo_msgs/SetModelState.h</text>
</a>
</g>
</g>
<!-- Node0&#45;&gt;Node5 -->
<g id="edge5" class="edge">
<title>Node0&#45;&gt;Node5</title>
<path fill="none" stroke="#191970" d="M426.5,-257.2967C426.5,-247.7699 426.5,-235.3954 426.5,-225.1306"/>
<polygon fill="#191970" stroke="#191970" points="430.0001,-225.0549 426.5,-215.055 423.0001,-225.055 430.0001,-225.0549"/>
</g>
<!-- Node6 -->
<g id="node7" class="node">
<title>Node6</title>
<g id="a_node7"><a xlink:title=" ">
<polygon fill="none" stroke="#bfbfbf" points="554,-196 554,-215 773,-215 773,-196 554,-196"/>
<text text-anchor="middle" x="663.5" y="-203" font-family="Fira Code" font-size="10.00" fill="#000000">gazebo_msgs/GetModelState.h</text>
</a>
</g>
</g>
<!-- Node0&#45;&gt;Node6 -->
<g id="edge6" class="edge">
<title>Node0&#45;&gt;Node6</title>
<path fill="none" stroke="#191970" d="M479.6874,-257.4639C521.9967,-245.503 580.4601,-228.9754 620.0034,-217.7965"/>
<polygon fill="#191970" stroke="#191970" points="621.2061,-221.0937 629.8768,-215.0053 619.3018,-214.3577 621.2061,-221.0937"/>
</g>
<!-- Node7 -->
<g id="node8" class="node">
<title>Node7</title>
<g id="a_node8"><a xlink:href="../../d2/d46/ros__side_8hpp.html" target="_top" xlink:title="Collection of data converters between ROS and local formats.">
<polygon fill="none" stroke="#000000" points="791,-190.5 791,-220.5 980,-220.5 980,-190.5 791,-190.5"/>
<text text-anchor="start" x="799" y="-208.5" font-family="Fira Code" font-size="10.00" fill="#000000">travesim_adapters/data</text>
<text text-anchor="middle" x="885.5" y="-197.5" font-family="Fira Code" font-size="10.00" fill="#000000">/converter/ros_side.hpp</text>
</a>
</g>
</g>
<!-- Node0&#45;&gt;Node7 -->
<g id="edge7" class="edge">
<title>Node0&#45;&gt;Node7</title>
<path fill="none" stroke="#191970" d="M513.5715,-260.0452C583.266,-250.0432 683.8142,-235.5403 780.9359,-221.2268"/>
<polygon fill="#191970" stroke="#191970" points="781.5466,-224.6747 790.9288,-219.753 780.5251,-217.7496 781.5466,-224.6747"/>
</g>
<!-- Node8 -->
<g id="node9" class="node">
<title>Node8</title>
<g id="a_node9"><a xlink:title=" ">
<polygon fill="none" stroke="#bfbfbf" points="1135,-.5 1135,-19.5 1212,-19.5 1212,-.5 1135,-.5"/>
<text text-anchor="middle" x="1173.5" y="-7.5" font-family="Fira Code" font-size="10.00" fill="#000000">iostream</text>
</a>
</g>
</g>
<!-- Node0&#45;&gt;Node8 -->
<g id="edge24" class="edge">
<title>Node0&#45;&gt;Node8</title>
<path fill="none" stroke="#191970" d="M513.6368,-267.87C732.1957,-255.3468 1289.9908,-217.413 1342.5,-154 1375.4722,-114.1809 1301.1489,-64.6647 1289.5,-56 1269.2094,-40.9074 1243.3056,-30.0146 1221.126,-22.6295"/>
<polygon fill="#191970" stroke="#191970" points="1222.1449,-19.2809 1211.5543,-19.5791 1220.0194,-25.9504 1222.1449,-19.2809"/>
</g>
<!-- Node16 -->
<g id="node17" class="node">
<title>Node16</title>
<g id="a_node17"><a xlink:title=" ">
<polygon fill="none" stroke="#bfbfbf" points="1389.5,-196 1389.5,-215 1503.5,-215 1503.5,-196 1389.5,-196"/>
<text text-anchor="middle" x="1446.5" y="-203" font-family="Fira Code" font-size="10.00" fill="#000000">unordered_map</text>
</a>
</g>
</g>
<!-- Node0&#45;&gt;Node16 -->
<g id="edge25" class="edge">
<title>Node0&#45;&gt;Node16</title>
<path fill="none" stroke="#191970" d="M513.6932,-269.5638C715.5774,-262.4741 1210.4596,-243.3455 1375.5,-221 1382.9762,-219.9878 1390.8335,-218.6027 1398.4861,-217.0743"/>
<polygon fill="#191970" stroke="#191970" points="1399.3092,-220.4779 1408.379,-215.0016 1397.8737,-213.6266 1399.3092,-220.4779"/>
</g>
<!-- Node7&#45;&gt;Node3 -->
<g id="edge11" class="edge">
<title>Node7&#45;&gt;Node3</title>
<path fill="none" stroke="#191970" d="M790.9668,-190.948C788.1145,-190.6134 785.2872,-190.2963 782.5,-190 527.4372,-162.8896 461.6537,-180.2406 206.5,-154 194.2338,-152.7385 181.2224,-151.1163 168.6379,-149.3985"/>
<polygon fill="#191970" stroke="#191970" points="169.0472,-145.9217 158.6593,-148.0053 168.0793,-152.8545 169.0472,-145.9217"/>
</g>
<!-- Node7&#45;&gt;Node4 -->
<g id="edge12" class="edge">
<title>Node7&#45;&gt;Node4</title>
<path fill="none" stroke="#191970" d="M790.9495,-191.0968C788.1022,-190.719 785.2807,-190.3524 782.5,-190 627.8035,-170.3924 588.3533,-172.3283 433.5,-154 421.4001,-152.5679 408.6036,-150.9561 396.1009,-149.3275"/>
<polygon fill="#191970" stroke="#191970" points="396.5266,-145.8535 386.1559,-148.0209 395.6147,-152.7938 396.5266,-145.8535"/>
</g>
<!-- Node7&#45;&gt;Node8 -->
<g id="edge8" class="edge">
<title>Node7&#45;&gt;Node8</title>
<path fill="none" stroke="#191970" d="M790.9444,-191.1359C788.0986,-190.7468 785.2787,-190.3672 782.5,-190 712.4328,-180.7398 513.5625,-206.7284 466.5,-154 457.3256,-143.721 457.9281,-133.7865 466.5,-123 507.7479,-71.0954 971.2839,-27.2215 1124.5981,-14.0426"/>
<polygon fill="#191970" stroke="#191970" points="1125,-17.5211 1134.666,-13.183 1124.4045,-10.5465 1125,-17.5211"/>
</g>
<!-- Node9 -->
<g id="node10" class="node">
<title>Node9</title>
<g id="a_node10"><a xlink:title=" ">
<polygon fill="none" stroke="#bfbfbf" points="475.5,-129 475.5,-148 649.5,-148 649.5,-129 475.5,-129"/>
<text text-anchor="middle" x="562.5" y="-136" font-family="Fira Code" font-size="10.00" fill="#000000">geometry_msgs/Point.h</text>
</a>
</g>
</g>
<!-- Node7&#45;&gt;Node9 -->
<g id="edge9" class="edge">
<title>Node7&#45;&gt;Node9</title>
<path fill="none" stroke="#191970" d="M813.0125,-190.4639C754.1262,-178.2491 672.2793,-161.2716 618.3828,-150.0918"/>
<polygon fill="#191970" stroke="#191970" points="618.8265,-146.6094 608.324,-148.0053 617.4047,-153.4635 618.8265,-146.6094"/>
</g>
<!-- Node10 -->
<g id="node11" class="node">
<title>Node10</title>
<g id="a_node11"><a xlink:title=" ">
<polygon fill="none" stroke="#bfbfbf" points="668,-129 668,-148 857,-148 857,-129 668,-129"/>
<text text-anchor="middle" x="762.5" y="-136" font-family="Fira Code" font-size="10.00" fill="#000000">geometry_msgs/Vector3.h</text>
</a>
</g>
</g>
<!-- Node7&#45;&gt;Node10 -->
<g id="edge10" class="edge">
<title>Node7&#45;&gt;Node10</title>
<path fill="none" stroke="#191970" d="M857.8964,-190.4639C837.3515,-179.2728 809.4673,-164.0838 789.1535,-153.0186"/>
<polygon fill="#191970" stroke="#191970" points="790.587,-149.8139 780.1311,-148.1039 787.2385,-155.9611 790.587,-149.8139"/>
</g>
<!-- Node11 -->
<g id="node12" class="node">
<title>Node11</title>
<g id="a_node12"><a xlink:href="../../d9/d46/data__common_8hpp.html" target="_top" xlink:title="Common constants and types for the data structures.">
<polygon fill="none" stroke="#000000" points="764.5,-56.5 764.5,-86.5 946.5,-86.5 946.5,-56.5 764.5,-56.5"/>
<text text-anchor="start" x="772.5" y="-74.5" font-family="Fira Code" font-size="10.00" fill="#000000">travesim_adapters/data</text>
<text text-anchor="middle" x="855.5" y="-63.5" font-family="Fira Code" font-size="10.00" fill="#000000">/data_common.hpp</text>
</a>
</g>
</g>
<!-- Node7&#45;&gt;Node11 -->
<g id="edge13" class="edge">
<title>Node7&#45;&gt;Node11</title>
<path fill="none" stroke="#191970" d="M882.1169,-190.389C877.0304,-167.6691 867.3518,-124.438 861.1733,-96.8405"/>
<polygon fill="#191970" stroke="#191970" points="864.517,-95.7552 858.9167,-86.7614 857.6861,-97.2845 864.517,-95.7552"/>
</g>
<!-- Node12 -->
<g id="node13" class="node">
<title>Node12</title>
<g id="a_node13"><a xlink:href="../../dc/d09/robot__state_8hpp.html" target="_top" xlink:title="Robot state data structure.">
<polygon fill="none" stroke="#000000" points="1151.5,-123.5 1151.5,-153.5 1333.5,-153.5 1333.5,-123.5 1151.5,-123.5"/>
<text text-anchor="start" x="1159.5" y="-141.5" font-family="Fira Code" font-size="10.00" fill="#000000">travesim_adapters/data</text>
<text text-anchor="middle" x="1242.5" y="-130.5" font-family="Fira Code" font-size="10.00" fill="#000000">/robot_state.hpp</text>
</a>
</g>
</g>
<!-- Node7&#45;&gt;Node12 -->
<g id="edge14" class="edge">
<title>Node7&#45;&gt;Node12</title>
<path fill="none" stroke="#191970" d="M965.6178,-190.4639C1020.9857,-180.0727 1094.7192,-166.2348 1152.1756,-155.4516"/>
<polygon fill="#191970" stroke="#191970" points="1153.1586,-158.8283 1162.3414,-153.5438 1151.8674,-151.9485 1153.1586,-158.8283"/>
</g>
<!-- Node13 -->
<g id="node14" class="node">
<title>Node13</title>
<g id="a_node14"><a xlink:href="../../de/d28/entity__state_8hpp.html" target="_top" xlink:title="Entity state data structure.">
<polygon fill="none" stroke="#000000" points="1082.5,-56.5 1082.5,-86.5 1264.5,-86.5 1264.5,-56.5 1082.5,-56.5"/>
<text text-anchor="start" x="1090.5" y="-74.5" font-family="Fira Code" font-size="10.00" fill="#000000">travesim_adapters/data</text>
<text text-anchor="middle" x="1173.5" y="-63.5" font-family="Fira Code" font-size="10.00" fill="#000000">/entity_state.hpp</text>
</a>
</g>
</g>
<!-- Node7&#45;&gt;Node13 -->
<g id="edge18" class="edge">
<title>Node7&#45;&gt;Node13</title>
<path fill="none" stroke="#191970" d="M974.4253,-190.4809C1025.0191,-180.8009 1082.5588,-167.5315 1104.5,-154 1128.1281,-139.4282 1147.5838,-113.9568 1159.7443,-95.1602"/>
<polygon fill="#191970" stroke="#191970" points="1162.7943,-96.8838 1165.1143,-86.5461 1156.854,-93.1806 1162.7943,-96.8838"/>
</g>
<!-- Node14 -->
<g id="node15" class="node">
<title>Node14</title>
<g id="a_node15"><a xlink:href="../../de/d1e/field__state_8hpp.html" target="_top" xlink:title=" ">
<polygon fill="none" stroke="#000000" points="913.5,-123.5 913.5,-153.5 1095.5,-153.5 1095.5,-123.5 913.5,-123.5"/>
<text text-anchor="start" x="921.5" y="-141.5" font-family="Fira Code" font-size="10.00" fill="#000000">travesim_adapters/data</text>
<text text-anchor="middle" x="1004.5" y="-130.5" font-family="Fira Code" font-size="10.00" fill="#000000">/field_state.hpp</text>
</a>
</g>
</g>
<!-- Node7&#45;&gt;Node14 -->
<g id="edge19" class="edge">
<title>Node7&#45;&gt;Node14</title>
<path fill="none" stroke="#191970" d="M912.2059,-190.4639C928.7784,-181.1332 950.2871,-169.0232 968.3711,-158.8415"/>
<polygon fill="#191970" stroke="#191970" points="970.4748,-161.6737 977.4715,-153.7177 967.0405,-155.574 970.4748,-161.6737"/>
</g>
<!-- Node12&#45;&gt;Node8 -->
<g id="edge15" class="edge">
<title>Node12&#45;&gt;Node8</title>
<path fill="none" stroke="#191970" d="M1256.1336,-123.3203C1269.8928,-106.0675 1287.2851,-77.5147 1273.5,-56 1261.9465,-37.9681 1241.345,-26.9083 1221.8312,-20.172"/>
<polygon fill="#191970" stroke="#191970" points="1222.6718,-16.7676 1212.0826,-17.1151 1220.5773,-23.4469 1222.6718,-16.7676"/>
</g>
<!-- Node12&#45;&gt;Node13 -->
<g id="edge16" class="edge">
<title>Node12&#45;&gt;Node13</title>
<path fill="none" stroke="#191970" d="M1226.8428,-123.2967C1217.8443,-114.559 1206.3787,-103.4257 1196.3852,-93.7218"/>
<polygon fill="#191970" stroke="#191970" points="1198.7077,-91.0985 1189.0952,-86.6432 1193.8313,-96.1205 1198.7077,-91.0985"/>
</g>
<!-- Node13&#45;&gt;Node8 -->
<g id="edge17" class="edge">
<title>Node13&#45;&gt;Node8</title>
<path fill="none" stroke="#191970" d="M1173.5,-56.2977C1173.5,-48.3834 1173.5,-38.6043 1173.5,-30.0759"/>
<polygon fill="#191970" stroke="#191970" points="1177.0001,-29.8469 1173.5,-19.8469 1170.0001,-29.847 1177.0001,-29.8469"/>
</g>
<!-- Node14&#45;&gt;Node8 -->
<g id="edge21" class="edge">
<title>Node14&#45;&gt;Node8</title>
<path fill="none" stroke="#191970" d="M996.5089,-123.3926C988.2279,-105.416 978.4333,-75.4012 993.5,-56 1009.4888,-35.4113 1077.0478,-22.4833 1124.6793,-15.7501"/>
<polygon fill="#191970" stroke="#191970" points="1125.379,-19.1872 1134.8141,-14.3675 1124.4328,-12.2514 1125.379,-19.1872"/>
</g>
<!-- Node14&#45;&gt;Node11 -->
<g id="edge22" class="edge">
<title>Node14&#45;&gt;Node11</title>
<path fill="none" stroke="#191970" d="M971.0615,-123.4639C949.5693,-113.7996 921.4469,-101.154 898.3258,-90.7572"/>
<polygon fill="#191970" stroke="#191970" points="899.6401,-87.5107 889.0844,-86.6017 896.7693,-93.895 899.6401,-87.5107"/>
</g>
<!-- Node14&#45;&gt;Node13 -->
<g id="edge23" class="edge">
<title>Node14&#45;&gt;Node13</title>
<path fill="none" stroke="#191970" d="M1042.4269,-123.4639C1067.1289,-113.6708 1099.5531,-100.8162 1125.9717,-90.3426"/>
<polygon fill="#191970" stroke="#191970" points="1127.4015,-93.5408 1135.4077,-86.6017 1124.8216,-87.0335 1127.4015,-93.5408"/>
</g>
<!-- Node15 -->
<g id="node16" class="node">
<title>Node15</title>
<g id="a_node16"><a xlink:title=" ">
<polygon fill="none" stroke="#bfbfbf" points="1002.5,-62 1002.5,-81 1064.5,-81 1064.5,-62 1002.5,-62"/>
<text text-anchor="middle" x="1033.5" y="-69" font-family="Fira Code" font-size="10.00" fill="#000000">vector</text>
</a>
</g>
</g>
<!-- Node14&#45;&gt;Node15 -->
<g id="edge20" class="edge">
<title>Node14&#45;&gt;Node15</title>
<path fill="none" stroke="#191970" d="M1011.0805,-123.2967C1015.2918,-113.5672 1020.7887,-100.8675 1025.2855,-90.4784"/>
<polygon fill="#191970" stroke="#191970" points="1028.604,-91.6225 1029.3643,-81.055 1022.1799,-88.8419 1028.604,-91.6225"/>
</g>
</g>
</svg>
        <g id="navigator" transform="translate(0 0)" fill="#404254">
                <rect fill="#f2f5e9" fill-opacity="0.5" stroke="#606060" stroke-width=".5" x="0" y="0" width="60" height="60"/>
                <use id="zoomplus" xlink:href="#zoomPlus" x="17" y="9" onmousedown="handleZoom(evt,'in')"/>
                <use id="zoomminus" xlink:href="#zoomMin" x="42" y="9" onmousedown="handleZoom(evt,'out')"/>
                <use id="reset" xlink:href="#resetDef" x="30" y="36" onmousedown="handleReset()"/>
                <g id="arrowUp" xlink:href="#dirArrow" transform="translate(30 24)" onmousedown="handlePan(0,-1)">
                  <use xlink:href="#rim" fill="#404040">
                        <set attributeName="fill" to="#808080" begin="arrowUp.mouseover" end="arrowUp.mouseout"/>
                  </use>
                  <path fill="none" stroke="white" stroke-width="1.5" d="M0,-3.0v7 M-2.5,-0.5L0,-3.0L2.5,-0.5"/>
                </g>
                <g id="arrowRight" xlink:href="#dirArrow" transform="rotate(90) translate(36 -43)" onmousedown="handlePan(1,0)">
                  <use xlink:href="#rim" fill="#404040">
                        <set attributeName="fill" to="#808080" begin="arrowRight.mouseover" end="arrowRight.mouseout"/>
                  </use>
                  <path fill="none" stroke="white" stroke-width="1.5" d="M0,-3.0v7 M-2.5,-0.5L0,-3.0L2.5,-0.5"/>
                </g>
                <g id="arrowDown" xlink:href="#dirArrow" transform="rotate(180) translate(-30 -48)" onmousedown="handlePan(0,1)">
                  <use xlink:href="#rim" fill="#404040">
                        <set attributeName="fill" to="#808080" begin="arrowDown.mouseover" end="arrowDown.mouseout"/>
                  </use>
                  <path fill="none" stroke="white" stroke-width="1.5" d="M0,-3.0v7 M-2.5,-0.5L0,-3.0L2.5,-0.5"/>
                </g>
                <g id="arrowLeft" xlink:href="#dirArrow" transform="rotate(270) translate(-36 17)" onmousedown="handlePan(-1,0)">
                  <use xlink:href="#rim" fill="#404040">
                        <set attributeName="fill" to="#808080" begin="arrowLeft.mouseover" end="arrowLeft.mouseout"/>
                  </use>
                  <path fill="none" stroke="white" stroke-width="1.5" d="M0,-3.0v7 M-2.5,-0.5L0,-3.0L2.5,-0.5"/>
                </g>
        </g>
        <svg viewBox="0 0 15 15" width="100%" height="30px" preserveAspectRatio="xMaxYMin meet">
         <g id="arrow_out" transform="scale(0.3 0.3)">
          <a xlink:href="gazebo__services_8mock_8cpp__incl_org.svg" target="_base">
           <rect id="button" ry="5" rx="5" y="6" x="6" height="38" width="38"
                fill="#f2f5e9" fill-opacity="0.5" stroke="#606060" stroke-width="1.0"/>
           <path id="arrow"
             d="M 11.500037,31.436501 C 11.940474,20.09759 22.043105,11.32322 32.158766,21.979434 L 37.068811,17.246167 C 37.068811,17.246167 37.088388,32 37.088388,32 L 22.160133,31.978069 C 22.160133,31.978069 26.997745,27.140456 26.997745,27.140456 C 18.528582,18.264221 13.291696,25.230495 11.500037,31.436501 z"
             style="fill:#404040;"/>
          </a>
         </g>
        </svg>
</svg>
