<?xml version="1.0" encoding="UTF-8" standalone="no"?>
<!DOCTYPE svg PUBLIC "-//W3C//DTD SVG 1.1//EN"
 "http://www.w3.org/Graphics/SVG/1.1/DTD/svg11.dtd">
<!-- Generated by graphviz version 2.40.1 (0)
 -->
<!-- Title: src/lib/ros/vision_receiver.cpp Pages: 1 -->
<svg width="446pt" height="162pt"
 viewBox="0.00 0.00 446.00 162.00" xmlns="http://www.w3.org/2000/svg" xmlns:xlink="http://www.w3.org/1999/xlink">
<g id="graph0" class="graph" transform="scale(1 1) rotate(0) translate(4 158)">
<title>src/lib/ros/vision_receiver.cpp</title>
<!-- Node0 -->
<g id="node1" class="node">
<title>Node0</title>
<g id="a_node1"><a xlink:title="ROS vision receiver class definition.">
<polygon fill="#bfbfbf" stroke="#000000" points="98,-123.5 98,-153.5 250,-153.5 250,-123.5 98,-123.5"/>
<text text-anchor="start" x="106" y="-141.5" font-family="Fira Code" font-size="10.00" fill="#000000">src/lib/ros/vision</text>
<text text-anchor="middle" x="174" y="-130.5" font-family="Fira Code" font-size="10.00" fill="#000000">_receiver.cpp</text>
</a>
</g>
</g>
<!-- Node1 -->
<g id="node2" class="node">
<title>Node1</title>
<g id="a_node2"><a xlink:title=" ">
<polygon fill="none" stroke="#bfbfbf" points="0,-.5 0,-19.5 114,-19.5 114,-.5 0,-.5"/>
<text text-anchor="middle" x="57" y="-7.5" font-family="Fira Code" font-size="10.00" fill="#000000">ros/console.h</text>
</a>
</g>
</g>
<!-- Node0&#45;&gt;Node1 -->
<g id="edge1" class="edge">
<title>Node0&#45;&gt;Node1</title>
<path fill="none" stroke="#191970" d="M129.078,-123.4586C110.8602,-115.2887 91.0753,-103.4251 78,-87 64.9581,-70.6169 59.996,-46.7428 58.1191,-29.9315"/>
<polygon fill="#191970" stroke="#191970" points="61.5762,-29.2721 57.2513,-19.6001 54.6007,-29.8581 61.5762,-29.2721"/>
</g>
<!-- Node2 -->
<g id="node3" class="node">
<title>Node2</title>
<g id="a_node3"><a xlink:title=" ">
<polygon fill="none" stroke="#bfbfbf" points="234,-.5 234,-19.5 438,-19.5 438,-.5 234,-.5"/>
<text text-anchor="middle" x="336" y="-7.5" font-family="Fira Code" font-size="10.00" fill="#000000">gazebo_msgs/ModelStates.h</text>
</a>
</g>
</g>
<!-- Node0&#45;&gt;Node2 -->
<g id="edge2" class="edge">
<title>Node0&#45;&gt;Node2</title>
<path fill="none" stroke="#191970" d="M209.2142,-123.4837C228.2564,-114.4415 251.5764,-101.8157 270,-87 291.5328,-69.684 311.4685,-44.661 323.673,-27.8879"/>
<polygon fill="#191970" stroke="#191970" points="326.6799,-29.6987 329.6189,-19.5197 320.9736,-25.6442 326.6799,-29.6987"/>
</g>
<!-- Node3 -->
<g id="node4" class="node">
<title>Node3</title>
<g id="a_node4"><a xlink:href="../../dc/d02/vision__receiver_8hpp.html" target="_top" xlink:title="ROS vision receiver class definition.">
<polygon fill="none" stroke="#000000" points="87,-56.5 87,-86.5 261,-86.5 261,-56.5 87,-56.5"/>
<text text-anchor="start" x="95" y="-74.5" font-family="Fira Code" font-size="10.00" fill="#000000">travesim_adapters/ros</text>
<text text-anchor="middle" x="174" y="-63.5" font-family="Fira Code" font-size="10.00" fill="#000000">/vision_receiver.hpp</text>
</a>
</g>
</g>
<!-- Node0&#45;&gt;Node3 -->
<g id="edge3" class="edge">
<title>Node0&#45;&gt;Node3</title>
<path fill="none" stroke="#191970" d="M174,-123.2967C174,-115.5013 174,-105.7991 174,-96.9064"/>
<polygon fill="#191970" stroke="#191970" points="177.5001,-96.6431 174,-86.6432 170.5001,-96.6432 177.5001,-96.6431"/>
</g>
<!-- Node3&#45;&gt;Node1 -->
<g id="edge5" class="edge">
<title>Node3&#45;&gt;Node1</title>
<path fill="none" stroke="#191970" d="M145.3786,-56.4554C126.713,-46.644 102.5001,-33.9167 84.1388,-24.2653"/>
<polygon fill="#191970" stroke="#191970" points="85.611,-21.0851 75.1308,-19.5303 82.354,-27.2812 85.611,-21.0851"/>
</g>
<!-- Node3&#45;&gt;Node2 -->
<g id="edge6" class="edge">
<title>Node3&#45;&gt;Node2</title>
<path fill="none" stroke="#191970" d="M213.6297,-56.4554C240.5412,-46.239 275.7811,-32.8609 301.5294,-23.0861"/>
<polygon fill="#191970" stroke="#191970" points="302.789,-26.3517 310.8957,-19.5303 300.3045,-19.8074 302.789,-26.3517"/>
</g>
<!-- Node4 -->
<g id="node5" class="node">
<title>Node4</title>
<g id="a_node5"><a xlink:title=" ">
<polygon fill="none" stroke="#bfbfbf" points="132,-.5 132,-19.5 216,-19.5 216,-.5 132,-.5"/>
<text text-anchor="middle" x="174" y="-7.5" font-family="Fira Code" font-size="10.00" fill="#000000">ros/ros.h</text>
</a>
</g>
</g>
<!-- Node3&#45;&gt;Node4 -->
<g id="edge4" class="edge">
<title>Node3&#45;&gt;Node4</title>
<path fill="none" stroke="#191970" d="M174,-56.2977C174,-48.3834 174,-38.6043 174,-30.0759"/>
<polygon fill="#191970" stroke="#191970" points="177.5001,-29.8469 174,-19.8469 170.5001,-29.847 177.5001,-29.8469"/>
</g>
</g>
</svg>
