<?xml version="1.0" encoding="UTF-8" standalone="no"?>
<!DOCTYPE svg PUBLIC "-//W3C//DTD SVG 1.1//EN"
 "http://www.w3.org/Graphics/SVG/1.1/DTD/svg11.dtd">
<!-- Generated by graphviz version 2.40.1 (0)
 -->
<!-- Title: include/travesim_adapters/udp/unicast_receiver.hpp Pages: 1 -->
<svg width="1302pt" height="173pt"
 viewBox="0.00 0.00 1302.00 173.00" xmlns="http://www.w3.org/2000/svg" xmlns:xlink="http://www.w3.org/1999/xlink">
<g id="graph0" class="graph" transform="scale(1 1) rotate(0) translate(4 169)">
<title>include/travesim_adapters/udp/unicast_receiver.hpp</title>
<!-- Node4 -->
<g id="node1" class="node">
<title>Node4</title>
<g id="a_node1"><a xlink:title="Receiver data using UDP in unicast mode.">
<polygon fill="#bfbfbf" stroke="#000000" points="581,-134.5 581,-164.5 785,-164.5 785,-134.5 581,-134.5"/>
<text text-anchor="start" x="589" y="-152.5" font-family="Fira Code" font-size="10.00" fill="#000000">include/travesim_adapters</text>
<text text-anchor="middle" x="683" y="-141.5" font-family="Fira Code" font-size="10.00" fill="#000000">/udp/unicast_receiver.hpp</text>
</a>
</g>
</g>
<!-- Node5 -->
<g id="node2" class="node">
<title>Node5</title>
<g id="a_node2"><a xlink:href="../../dc/dfa/unicast__receiver__example_8cpp.html" target="_top" xlink:title="Example on how to use the UnicastReceiver.">
<polygon fill="none" stroke="#000000" points="240,-67.5 240,-97.5 414,-97.5 414,-67.5 240,-67.5"/>
<text text-anchor="start" x="248" y="-85.5" font-family="Fira Code" font-size="10.00" fill="#000000">examples/udp/unicast</text>
<text text-anchor="middle" x="327" y="-74.5" font-family="Fira Code" font-size="10.00" fill="#000000">_receiver_example.cpp</text>
</a>
</g>
</g>
<!-- Node4&#45;&gt;Node5 -->
<g id="edge1" class="edge">
<title>Node4&#45;&gt;Node5</title>
<path fill="none" stroke="#191970" d="M592.9709,-132.5563C535.6834,-121.7747 462.1559,-107.9366 406.9341,-97.5438"/>
<polygon fill="#191970" stroke="#191970" points="592.6318,-136.0539 603.1067,-134.4639 593.9266,-129.1746 592.6318,-136.0539"/>
</g>
<!-- Node6 -->
<g id="node3" class="node">
<title>Node6</title>
<g id="a_node3"><a xlink:href="../../d4/d4c/replacer__receiver_8hpp.html" target="_top" xlink:title="Replacer receiver with UDP and protobuf.">
<polygon fill="none" stroke="#000000" points="432.5,-67.5 432.5,-97.5 681.5,-97.5 681.5,-67.5 432.5,-67.5"/>
<text text-anchor="start" x="440.5" y="-85.5" font-family="Fira Code" font-size="10.00" fill="#000000">include/travesim_adapters</text>
<text text-anchor="middle" x="557" y="-74.5" font-family="Fira Code" font-size="10.00" fill="#000000">/protobuf/replacer_receiver.hpp</text>
</a>
</g>
</g>
<!-- Node4&#45;&gt;Node6 -->
<g id="edge2" class="edge">
<title>Node4&#45;&gt;Node6</title>
<path fill="none" stroke="#191970" d="M645.6422,-129.6352C626.4355,-119.422 603.3947,-107.1702 585.6184,-97.7177"/>
<polygon fill="#191970" stroke="#191970" points="644.2505,-132.8591 654.7231,-134.4639 647.537,-126.6786 644.2505,-132.8591"/>
</g>
<!-- Node10 -->
<g id="node7" class="node">
<title>Node10</title>
<g id="a_node7"><a xlink:href="../../de/db1/team__receiver_8hpp.html" target="_top" xlink:title="Team control data receiver with UDP and protobuf.">
<polygon fill="none" stroke="#000000" points="699.5,-67.5 699.5,-97.5 918.5,-97.5 918.5,-67.5 699.5,-67.5"/>
<text text-anchor="start" x="707.5" y="-85.5" font-family="Fira Code" font-size="10.00" fill="#000000">include/travesim_adapters</text>
<text text-anchor="middle" x="809" y="-74.5" font-family="Fira Code" font-size="10.00" fill="#000000">/protobuf/team_receiver.hpp</text>
</a>
</g>
</g>
<!-- Node4&#45;&gt;Node10 -->
<g id="edge6" class="edge">
<title>Node4&#45;&gt;Node10</title>
<path fill="none" stroke="#191970" d="M720.3578,-129.6352C739.5645,-119.422 762.6053,-107.1702 780.3816,-97.7177"/>
<polygon fill="#191970" stroke="#191970" points="718.463,-126.6786 711.2769,-134.4639 721.7495,-132.8591 718.463,-126.6786"/>
</g>
<!-- Node14 -->
<g id="node11" class="node">
<title>Node14</title>
<g id="a_node11"><a xlink:href="../../db/dae/unicast__receiver_8cpp.html" target="_top" xlink:title="Receiver data using UDP in unicast mode.">
<polygon fill="none" stroke="#000000" points="936.5,-67.5 936.5,-97.5 1095.5,-97.5 1095.5,-67.5 936.5,-67.5"/>
<text text-anchor="start" x="944.5" y="-85.5" font-family="Fira Code" font-size="10.00" fill="#000000">src/lib/udp/unicast</text>
<text text-anchor="middle" x="1016" y="-74.5" font-family="Fira Code" font-size="10.00" fill="#000000">_receiver.cpp</text>
</a>
</g>
</g>
<!-- Node4&#45;&gt;Node14 -->
<g id="edge10" class="edge">
<title>Node4&#45;&gt;Node14</title>
<path fill="none" stroke="#191970" d="M767.5456,-132.4893C821.0837,-121.7174 889.6831,-107.9151 941.2302,-97.5438"/>
<polygon fill="#191970" stroke="#191970" points="766.8448,-129.0601 757.7317,-134.4639 768.2256,-135.9226 766.8448,-129.0601"/>
</g>
<!-- Node7 -->
<g id="node4" class="node">
<title>Node7</title>
<g id="a_node4"><a xlink:href="../../d8/d50/replacer__receiver__example_8cpp.html" target="_top" xlink:title="Example to read data published from VSSReplacer.">
<polygon fill="none" stroke="#000000" points="0,-.5 0,-30.5 212,-30.5 212,-.5 0,-.5"/>
<text text-anchor="start" x="8" y="-18.5" font-family="Fira Code" font-size="10.00" fill="#000000">examples/protobuf/replacer</text>
<text text-anchor="middle" x="106" y="-7.5" font-family="Fira Code" font-size="10.00" fill="#000000">_receiver_example.cpp</text>
</a>
</g>
</g>
<!-- Node6&#45;&gt;Node7 -->
<g id="edge3" class="edge">
<title>Node6&#45;&gt;Node7</title>
<path fill="none" stroke="#191970" d="M445.6413,-65.9567C372.6892,-55.119 278.0918,-41.0657 207.2648,-30.5438"/>
<polygon fill="#191970" stroke="#191970" points="445.381,-69.4564 455.7868,-67.4639 446.4097,-62.5323 445.381,-69.4564"/>
</g>
<!-- Node8 -->
<g id="node5" class="node">
<title>Node8</title>
<g id="a_node5"><a xlink:href="../../da/d85/replacer__adapter_8cpp.html" target="_top" xlink:title="Replacer adapter execution file.">
<polygon fill="none" stroke="#000000" points="230.5,-6 230.5,-25 457.5,-25 457.5,-6 230.5,-6"/>
<text text-anchor="middle" x="344" y="-13" font-family="Fira Code" font-size="10.00" fill="#000000">src/bin/replacer_adapter.cpp</text>
</a>
</g>
</g>
<!-- Node6&#45;&gt;Node8 -->
<g id="edge4" class="edge">
<title>Node6&#45;&gt;Node8</title>
<path fill="none" stroke="#191970" d="M499.4723,-64.4044C459.0885,-51.7016 406.6954,-35.2211 374.2183,-25.0053"/>
<polygon fill="#191970" stroke="#191970" points="498.6092,-67.802 509.1986,-67.4639 500.7097,-61.1245 498.6092,-67.802"/>
</g>
<!-- Node9 -->
<g id="node6" class="node">
<title>Node9</title>
<g id="a_node6"><a xlink:href="../../d2/d5a/replacer__receiver_8cpp.html" target="_top" xlink:title="Replacer receiver with UDP and protobuf.">
<polygon fill="none" stroke="#000000" points="476,-.5 476,-30.5 680,-30.5 680,-.5 476,-.5"/>
<text text-anchor="start" x="484" y="-18.5" font-family="Fira Code" font-size="10.00" fill="#000000">src/lib/protobuf/replacer</text>
<text text-anchor="middle" x="578" y="-7.5" font-family="Fira Code" font-size="10.00" fill="#000000">_receiver.cpp</text>
</a>
</g>
</g>
<!-- Node6&#45;&gt;Node9 -->
<g id="edge5" class="edge">
<title>Node6&#45;&gt;Node9</title>
<path fill="none" stroke="#191970" d="M564.8012,-57.6103C567.6394,-48.5553 570.7597,-38.5998 573.2536,-30.6432"/>
<polygon fill="#191970" stroke="#191970" points="561.4164,-56.7076 561.7652,-67.2967 568.0959,-58.8012 561.4164,-56.7076"/>
</g>
<!-- Node11 -->
<g id="node8" class="node">
<title>Node11</title>
<g id="a_node8"><a xlink:href="../../da/d15/team__receiver__example_8cpp.html" target="_top" xlink:title="Example to read data published from a team.">
<polygon fill="none" stroke="#000000" points="698,-.5 698,-30.5 880,-30.5 880,-.5 698,-.5"/>
<text text-anchor="start" x="706" y="-18.5" font-family="Fira Code" font-size="10.00" fill="#000000">examples/protobuf/team</text>
<text text-anchor="middle" x="789" y="-7.5" font-family="Fira Code" font-size="10.00" fill="#000000">_receiver_example.cpp</text>
</a>
</g>
</g>
<!-- Node10&#45;&gt;Node11 -->
<g id="edge7" class="edge">
<title>Node10&#45;&gt;Node11</title>
<path fill="none" stroke="#191970" d="M801.5702,-57.6103C798.8672,-48.5553 795.8955,-38.5998 793.5203,-30.6432"/>
<polygon fill="#191970" stroke="#191970" points="798.2475,-58.7156 804.4617,-67.2967 804.955,-56.7133 798.2475,-58.7156"/>
</g>
<!-- Node12 -->
<g id="node9" class="node">
<title>Node12</title>
<g id="a_node9"><a xlink:href="../../dd/dcd/teams__adapter_8cpp.html" target="_top" xlink:title="Teams commands adapter execution file.">
<polygon fill="none" stroke="#000000" points="898,-6 898,-25 1102,-25 1102,-6 898,-6"/>
<text text-anchor="middle" x="1000" y="-13" font-family="Fira Code" font-size="10.00" fill="#000000">src/bin/teams_adapter.cpp</text>
</a>
</g>
</g>
<!-- Node10&#45;&gt;Node12 -->
<g id="edge8" class="edge">
<title>Node10&#45;&gt;Node12</title>
<path fill="none" stroke="#191970" d="M861.7379,-64.0003C897.7898,-51.3538 944.0881,-35.1131 972.9028,-25.0053"/>
<polygon fill="#191970" stroke="#191970" points="860.1418,-60.851 851.8641,-67.4639 862.459,-67.4564 860.1418,-60.851"/>
</g>
<!-- Node13 -->
<g id="node10" class="node">
<title>Node13</title>
<g id="a_node10"><a xlink:href="../../d6/d4c/team__receiver_8cpp.html" target="_top" xlink:title="Team control data receiver with UDP and protobuf.">
<polygon fill="none" stroke="#000000" points="1120,-.5 1120,-30.5 1294,-30.5 1294,-.5 1120,-.5"/>
<text text-anchor="start" x="1128" y="-18.5" font-family="Fira Code" font-size="10.00" fill="#000000">src/lib/protobuf/team</text>
<text text-anchor="middle" x="1207" y="-7.5" font-family="Fira Code" font-size="10.00" fill="#000000">_receiver.cpp</text>
</a>
</g>
</g>
<!-- Node10&#45;&gt;Node13 -->
<g id="edge9" class="edge">
<title>Node10&#45;&gt;Node13</title>
<path fill="none" stroke="#191970" d="M908.5675,-65.7386C973.4789,-54.8113 1057.3864,-40.6862 1119.6909,-30.1978"/>
<polygon fill="#191970" stroke="#191970" points="907.5992,-62.3523 898.319,-67.4639 908.7613,-69.2552 907.5992,-62.3523"/>
</g>
</g>
</svg>
