<?xml version="1.0" encoding="UTF-8" standalone="no"?>
<!DOCTYPE svg PUBLIC "-//W3C//DTD SVG 1.1//EN"
 "http://www.w3.org/Graphics/SVG/1.1/DTD/svg11.dtd">
<!-- Generated by graphviz version 2.40.1 (0)
 -->
<!-- Title: include/travesim_adapters/data/team_command.hpp Pages: 1 -->
<!--zoomable 173 -->
<svg id="main" version="1.1" xmlns="http://www.w3.org/2000/svg" xmlns:xlink="http://www.w3.org/1999/xlink" xml:space="preserve" onload="init(evt)">
<style type="text/css"><![CDATA[
.edge:hover path { stroke: red; }
.edge:hover polygon { stroke: red; fill: red; }
]]></style>
<script type="text/javascript"><![CDATA[
var edges = document.getElementsByTagName('g');
if (edges && edges.length) {
  for (var i=0;i<edges.length;i++) {
    if (edges[i].id.substr(0,4)=='edge') {
      edges[i].setAttribute('class','edge');
    }
  }
}
]]></script>
        <defs>
                <circle id="rim" cx="0" cy="0" r="7"/>
                <circle id="rim2" cx="0" cy="0" r="3.5"/>
                <g id="zoomPlus">
                        <use xlink:href="#rim" fill="#404040">
                                <set attributeName="fill" to="#808080" begin="zoomplus.mouseover" end="zoomplus.mouseout"/>
                        </use>
                        <path d="M-4,0h8M0,-4v8" fill="none" stroke="white" stroke-width="1.5" pointer-events="none"/>
                </g>
                <g id="zoomMin">
                        <use xlink:href="#rim" fill="#404040">
                                <set attributeName="fill" to="#808080" begin="zoomminus.mouseover" end="zoomminus.mouseout"/>
                        </use>
                        <path d="M-4,0h8" fill="none" stroke="white" stroke-width="1.5" pointer-events="none"/>
                </g>
                <g id="dirArrow">
                        <path fill="none" stroke="white" stroke-width="1.5" d="M0,-3.0v7 M-2.5,-0.5L0,-3.0L2.5,-0.5"/>
                </g>
               <g id="resetDef">
                       <use xlink:href="#rim2" fill="#404040">
                               <set attributeName="fill" to="#808080" begin="reset.mouseover" end="reset.mouseout"/>
                       </use>
               </g>
        </defs>

<script type="text/javascript">
var viewWidth = 968;
var viewHeight = 173;
var sectionId = 'dynsection-1';
</script>
<script xlink:href="../../svgpan.js"/>
<svg id="graph" class="graph">
<g id="viewport">
<title>include/travesim_adapters/data/team_command.hpp</title>
<!-- Node4 -->
<g id="node1" class="node">
<title>Node4</title>
<g id="a_node1"><a xlink:title="Team command data structure.">
<polygon fill="#bfbfbf" stroke="#000000" points="439,-134.5 439,-164.5 643,-164.5 643,-134.5 439,-134.5"/>
<text text-anchor="start" x="447" y="-152.5" font-family="Fira Code" font-size="10.00" fill="#000000">include/travesim_adapters</text>
<text text-anchor="middle" x="541" y="-141.5" font-family="Fira Code" font-size="10.00" fill="#000000">/data/team_command.hpp</text>
</a>
</g>
</g>
<!-- Node5 -->
<g id="node2" class="node">
<title>Node5</title>
<g id="a_node2"><a xlink:href="../../de/db1/team__receiver_8hpp.html" target="_top" xlink:title="Team control data receiver with UDP and protobuf.">
<polygon fill="none" stroke="#000000" points="211.5,-67.5 211.5,-97.5 430.5,-97.5 430.5,-67.5 211.5,-67.5"/>
<text text-anchor="start" x="219.5" y="-85.5" font-family="Fira Code" font-size="10.00" fill="#000000">include/travesim_adapters</text>
<text text-anchor="middle" x="321" y="-74.5" font-family="Fira Code" font-size="10.00" fill="#000000">/protobuf/team_receiver.hpp</text>
</a>
</g>
</g>
<!-- Node4&#45;&gt;Node5 -->
<g id="edge1" class="edge">
<title>Node4&#45;&gt;Node5</title>
<path fill="none" stroke="#191970" d="M482.0545,-131.5484C447.2315,-120.9432 403.6363,-107.6665 370.5876,-97.6017"/>
<polygon fill="#191970" stroke="#191970" points="481.0418,-134.8987 491.6277,-134.4639 483.0812,-128.2023 481.0418,-134.8987"/>
</g>
<!-- Node7 -->
<g id="node4" class="node">
<title>Node7</title>
<g id="a_node4"><a xlink:href="../../dd/dcd/teams__adapter_8cpp.html" target="_top" xlink:title="Teams commands adapter execution file.">
<polygon fill="none" stroke="#000000" points="392,-6 392,-25 596,-25 596,-6 392,-6"/>
<text text-anchor="middle" x="494" y="-13" font-family="Fira Code" font-size="10.00" fill="#000000">src/bin/teams_adapter.cpp</text>
</a>
</g>
</g>
<!-- Node4&#45;&gt;Node7 -->
<g id="edge8" class="edge">
<title>Node4&#45;&gt;Node7</title>
<path fill="none" stroke="#191970" d="M514.9244,-127.3774C506.9932,-119.0647 499.2548,-108.951 495,-98 485.3511,-73.166 489.1954,-40.8677 492.0191,-25.0614"/>
<polygon fill="#191970" stroke="#191970" points="512.5765,-129.977 522.168,-134.4775 517.4765,-124.978 512.5765,-129.977"/>
</g>
<!-- Node9 -->
<g id="node6" class="node">
<title>Node9</title>
<g id="a_node6"><a xlink:href="../../d3/d35/teams__sender_8hpp.html" target="_top" xlink:title="ROS teams commands sender class definition.">
<polygon fill="none" stroke="#000000" points="504,-67.5 504,-97.5 708,-97.5 708,-67.5 504,-67.5"/>
<text text-anchor="start" x="512" y="-85.5" font-family="Fira Code" font-size="10.00" fill="#000000">include/travesim_adapters</text>
<text text-anchor="middle" x="606" y="-74.5" font-family="Fira Code" font-size="10.00" fill="#000000">/ros/teams_sender.hpp</text>
</a>
</g>
</g>
<!-- Node4&#45;&gt;Node9 -->
<g id="edge5" class="edge">
<title>Node4&#45;&gt;Node9</title>
<path fill="none" stroke="#191970" d="M562.9008,-126.9253C572.2555,-117.2828 582.9257,-106.2843 591.3089,-97.6432"/>
<polygon fill="#191970" stroke="#191970" points="560.2006,-124.6821 555.7495,-134.2967 565.2248,-129.5564 560.2006,-124.6821"/>
</g>
<!-- Node11 -->
<g id="node8" class="node">
<title>Node11</title>
<g id="a_node8"><a xlink:href="../../dd/dc9/team__command_8cpp.html" target="_top" xlink:title="Team command data structure.">
<polygon fill="none" stroke="#000000" points="726,-73 726,-92 960,-92 960,-73 726,-73"/>
<text text-anchor="middle" x="843" y="-80" font-family="Fira Code" font-size="10.00" fill="#000000">src/lib/data/team_command.cpp</text>
</a>
</g>
</g>
<!-- Node4&#45;&gt;Node11 -->
<g id="edge9" class="edge">
<title>Node4&#45;&gt;Node11</title>
<path fill="none" stroke="#191970" d="M618.5986,-132.2844C676.3524,-119.4715 753.0371,-102.4587 800.1553,-92.0053"/>
<polygon fill="#191970" stroke="#191970" points="617.7792,-128.881 608.7747,-134.4639 619.2954,-135.7149 617.7792,-128.881"/>
</g>
<!-- Node6 -->
<g id="node3" class="node">
<title>Node6</title>
<g id="a_node3"><a xlink:href="../../da/d15/team__receiver__example_8cpp.html" target="_top" xlink:title="Example to read data published from a team.">
<polygon fill="none" stroke="#000000" points="0,-.5 0,-30.5 182,-30.5 182,-.5 0,-.5"/>
<text text-anchor="start" x="8" y="-18.5" font-family="Fira Code" font-size="10.00" fill="#000000">examples/protobuf/team</text>
<text text-anchor="middle" x="91" y="-7.5" font-family="Fira Code" font-size="10.00" fill="#000000">_receiver_example.cpp</text>
</a>
</g>
</g>
<!-- Node5&#45;&gt;Node6 -->
<g id="edge2" class="edge">
<title>Node5&#45;&gt;Node6</title>
<path fill="none" stroke="#191970" d="M259.3752,-64.5484C222.9693,-53.9432 177.3925,-40.6665 142.8416,-30.6017"/>
<polygon fill="#191970" stroke="#191970" points="258.8037,-68.0274 269.3835,-67.4639 260.7615,-61.3067 258.8037,-68.0274"/>
</g>
<!-- Node5&#45;&gt;Node7 -->
<g id="edge3" class="edge">
<title>Node5&#45;&gt;Node7</title>
<path fill="none" stroke="#191970" d="M369.187,-63.838C401.7803,-51.2151 443.4688,-35.0699 469.4565,-25.0053"/>
<polygon fill="#191970" stroke="#191970" points="367.8856,-60.5886 359.8246,-67.4639 370.4137,-67.1162 367.8856,-60.5886"/>
</g>
<!-- Node8 -->
<g id="node5" class="node">
<title>Node8</title>
<g id="a_node5"><a xlink:href="../../d6/d4c/team__receiver_8cpp.html" target="_top" xlink:title="Team control data receiver with UDP and protobuf.">
<polygon fill="none" stroke="#000000" points="200,-.5 200,-30.5 374,-30.5 374,-.5 200,-.5"/>
<text text-anchor="start" x="208" y="-18.5" font-family="Fira Code" font-size="10.00" fill="#000000">src/lib/protobuf/team</text>
<text text-anchor="middle" x="287" y="-7.5" font-family="Fira Code" font-size="10.00" fill="#000000">_receiver.cpp</text>
</a>
</g>
</g>
<!-- Node5&#45;&gt;Node8 -->
<g id="edge4" class="edge">
<title>Node5&#45;&gt;Node8</title>
<path fill="none" stroke="#191970" d="M308.6652,-58.1932C303.9921,-48.9844 298.8091,-38.771 294.6846,-30.6432"/>
<polygon fill="#191970" stroke="#191970" points="305.6384,-59.963 313.2849,-67.2967 311.8807,-56.7953 305.6384,-59.963"/>
</g>
<!-- Node9&#45;&gt;Node7 -->
<g id="edge6" class="edge">
<title>Node9&#45;&gt;Node7</title>
<path fill="none" stroke="#191970" d="M572.0829,-62.2103C551.4976,-49.8959 526.172,-34.7457 510.0543,-25.1039"/>
<polygon fill="#191970" stroke="#191970" points="570.4865,-65.3338 580.865,-67.4639 574.0801,-59.3266 570.4865,-65.3338"/>
</g>
<!-- Node10 -->
<g id="node7" class="node">
<title>Node10</title>
<g id="a_node7"><a xlink:href="../../d1/d4e/teams__sender_8cpp.html" target="_top" xlink:title="ROS teams commands sender class definition.">
<polygon fill="none" stroke="#000000" points="614.5,-6 614.5,-25 841.5,-25 841.5,-6 614.5,-6"/>
<text text-anchor="middle" x="728" y="-13" font-family="Fira Code" font-size="10.00" fill="#000000">src/lib/ros/teams_sender.cpp</text>
</a>
</g>
</g>
<!-- Node9&#45;&gt;Node10 -->
<g id="edge7" class="edge">
<title>Node9&#45;&gt;Node10</title>
<path fill="none" stroke="#191970" d="M642.3434,-62.5409C664.873,-50.1681 692.7981,-34.8322 710.5123,-25.1039"/>
<polygon fill="#191970" stroke="#191970" points="640.4596,-59.5823 633.3792,-67.4639 643.8292,-65.718 640.4596,-59.5823"/>
</g>
</g>
</svg>
        <g id="navigator" transform="translate(0 0)" fill="#404254">
                <rect fill="#f2f5e9" fill-opacity="0.5" stroke="#606060" stroke-width=".5" x="0" y="0" width="60" height="60"/>
                <use id="zoomplus" xlink:href="#zoomPlus" x="17" y="9" onmousedown="handleZoom(evt,'in')"/>
                <use id="zoomminus" xlink:href="#zoomMin" x="42" y="9" onmousedown="handleZoom(evt,'out')"/>
                <use id="reset" xlink:href="#resetDef" x="30" y="36" onmousedown="handleReset()"/>
                <g id="arrowUp" xlink:href="#dirArrow" transform="translate(30 24)" onmousedown="handlePan(0,-1)">
                  <use xlink:href="#rim" fill="#404040">
                        <set attributeName="fill" to="#808080" begin="arrowUp.mouseover" end="arrowUp.mouseout"/>
                  </use>
                  <path fill="none" stroke="white" stroke-width="1.5" d="M0,-3.0v7 M-2.5,-0.5L0,-3.0L2.5,-0.5"/>
                </g>
                <g id="arrowRight" xlink:href="#dirArrow" transform="rotate(90) translate(36 -43)" onmousedown="handlePan(1,0)">
                  <use xlink:href="#rim" fill="#404040">
                        <set attributeName="fill" to="#808080" begin="arrowRight.mouseover" end="arrowRight.mouseout"/>
                  </use>
                  <path fill="none" stroke="white" stroke-width="1.5" d="M0,-3.0v7 M-2.5,-0.5L0,-3.0L2.5,-0.5"/>
                </g>
                <g id="arrowDown" xlink:href="#dirArrow" transform="rotate(180) translate(-30 -48)" onmousedown="handlePan(0,1)">
                  <use xlink:href="#rim" fill="#404040">
                        <set attributeName="fill" to="#808080" begin="arrowDown.mouseover" end="arrowDown.mouseout"/>
                  </use>
                  <path fill="none" stroke="white" stroke-width="1.5" d="M0,-3.0v7 M-2.5,-0.5L0,-3.0L2.5,-0.5"/>
                </g>
                <g id="arrowLeft" xlink:href="#dirArrow" transform="rotate(270) translate(-36 17)" onmousedown="handlePan(-1,0)">
                  <use xlink:href="#rim" fill="#404040">
                        <set attributeName="fill" to="#808080" begin="arrowLeft.mouseover" end="arrowLeft.mouseout"/>
                  </use>
                  <path fill="none" stroke="white" stroke-width="1.5" d="M0,-3.0v7 M-2.5,-0.5L0,-3.0L2.5,-0.5"/>
                </g>
        </g>
        <svg viewBox="0 0 15 15" width="100%" height="30px" preserveAspectRatio="xMaxYMin meet">
         <g id="arrow_out" transform="scale(0.3 0.3)">
          <a xlink:href="team__command_8hpp__dep__incl_org.svg" target="_base">
           <rect id="button" ry="5" rx="5" y="6" x="6" height="38" width="38"
                fill="#f2f5e9" fill-opacity="0.5" stroke="#606060" stroke-width="1.0"/>
           <path id="arrow"
             d="M 11.500037,31.436501 C 11.940474,20.09759 22.043105,11.32322 32.158766,21.979434 L 37.068811,17.246167 C 37.068811,17.246167 37.088388,32 37.088388,32 L 22.160133,31.978069 C 22.160133,31.978069 26.997745,27.140456 26.997745,27.140456 C 18.528582,18.264221 13.291696,25.230495 11.500037,31.436501 z"
             style="fill:#404040;"/>
          </a>
         </g>
        </svg>
</svg>
