<?xml version="1.0" encoding="UTF-8" standalone="no"?>
<!DOCTYPE svg PUBLIC "-//W3C//DTD SVG 1.1//EN"
 "http://www.w3.org/Graphics/SVG/1.1/DTD/svg11.dtd">
<!-- Generated by graphviz version 2.40.1 (0)
 -->
<!-- Title: examples/udp/multicast_receiver_example.cpp Pages: 1 -->
<svg width="492pt" height="229pt"
 viewBox="0.00 0.00 491.62 229.00" xmlns="http://www.w3.org/2000/svg" xmlns:xlink="http://www.w3.org/1999/xlink">
<g id="graph0" class="graph" transform="scale(1 1) rotate(0) translate(4 225)">
<title>examples/udp/multicast_receiver_example.cpp</title>
<!-- Node0 -->
<g id="node1" class="node">
<title>Node0</title>
<g id="a_node1"><a xlink:title="Example on how to use the MulticastReceiver.">
<polygon fill="#bfbfbf" stroke="#000000" points="137.5,-190.5 137.5,-220.5 319.5,-220.5 319.5,-190.5 137.5,-190.5"/>
<text text-anchor="start" x="145.5" y="-208.5" font-family="Fira Code" font-size="10.00" fill="#000000">examples/udp/multicast</text>
<text text-anchor="middle" x="228.5" y="-197.5" font-family="Fira Code" font-size="10.00" fill="#000000">_receiver_example.cpp</text>
</a>
</g>
</g>
<!-- Node1 -->
<g id="node2" class="node">
<title>Node1</title>
<g id="a_node2"><a xlink:title=" ">
<polygon fill="none" stroke="#bfbfbf" points="0,-129 0,-148 77,-148 77,-129 0,-129"/>
<text text-anchor="middle" x="38.5" y="-136" font-family="Fira Code" font-size="10.00" fill="#000000">iostream</text>
</a>
</g>
</g>
<!-- Node0&#45;&gt;Node1 -->
<g id="edge1" class="edge">
<title>Node0&#45;&gt;Node1</title>
<path fill="none" stroke="#191970" d="M185.8603,-190.4639C152.5896,-178.7316 106.8585,-162.6054 75.2044,-151.4431"/>
<polygon fill="#191970" stroke="#191970" points="76.0501,-148.0302 65.4553,-148.0053 73.7221,-154.6317 76.0501,-148.0302"/>
</g>
<!-- Node2 -->
<g id="node3" class="node">
<title>Node2</title>
<g id="a_node3"><a xlink:title=" ">
<polygon fill="none" stroke="#bfbfbf" points="139.5,-.5 139.5,-19.5 201.5,-19.5 201.5,-.5 139.5,-.5"/>
<text text-anchor="middle" x="170.5" y="-7.5" font-family="Fira Code" font-size="10.00" fill="#000000">string</text>
</a>
</g>
</g>
<!-- Node0&#45;&gt;Node2 -->
<g id="edge2" class="edge">
<title>Node0&#45;&gt;Node2</title>
<path fill="none" stroke="#191970" d="M171.2732,-190.3888C153.1372,-182.6053 135.0723,-171.0329 124.5,-154 115.0752,-138.8159 124.2858,-75.1796 132.5,-56 137.0879,-45.2876 144.9819,-35.107 152.3904,-27.0594"/>
<polygon fill="#191970" stroke="#191970" points="155.0141,-29.3822 159.4965,-19.7823 150.0059,-24.4917 155.0141,-29.3822"/>
</g>
<!-- Node3 -->
<g id="node4" class="node">
<title>Node3</title>
<g id="a_node4"><a xlink:title=" ">
<polygon fill="none" stroke="#bfbfbf" points="225.5,-.5 225.5,-19.5 347.5,-19.5 347.5,-.5 225.5,-.5"/>
<text text-anchor="middle" x="286.5" y="-7.5" font-family="Fira Code" font-size="10.00" fill="#000000">boost/asio.hpp</text>
</a>
</g>
</g>
<!-- Node0&#45;&gt;Node3 -->
<g id="edge3" class="edge">
<title>Node0&#45;&gt;Node3</title>
<path fill="none" stroke="#191970" d="M319.692,-198.0864C380.6956,-191.0157 453.2064,-177.7908 472.5,-154 520.7375,-94.5185 398.497,-44.9107 329.6544,-22.6287"/>
<polygon fill="#191970" stroke="#191970" points="330.5015,-19.2256 319.9114,-19.5415 328.3871,-25.8987 330.5015,-19.2256"/>
</g>
<!-- Node4 -->
<g id="node5" class="node">
<title>Node4</title>
<g id="a_node5"><a xlink:title=" ">
<polygon fill="none" stroke="#bfbfbf" points="341.5,-129 341.5,-148 463.5,-148 463.5,-129 341.5,-129"/>
<text text-anchor="middle" x="402.5" y="-136" font-family="Fira Code" font-size="10.00" fill="#000000">boost/bind.hpp</text>
</a>
</g>
</g>
<!-- Node0&#45;&gt;Node4 -->
<g id="edge4" class="edge">
<title>Node0&#45;&gt;Node4</title>
<path fill="none" stroke="#191970" d="M267.549,-190.4639C297.7542,-178.8332 339.1736,-162.8843 368.1307,-151.7342"/>
<polygon fill="#191970" stroke="#191970" points="369.7403,-154.865 377.8146,-148.0053 367.2248,-148.3325 369.7403,-154.865"/>
</g>
<!-- Node5 -->
<g id="node6" class="node">
<title>Node5</title>
<g id="a_node6"><a xlink:href="../../d2/d4b/multicast__receiver_8hpp.html" target="_top" xlink:title="Receiver data using UDP in multicast mode.">
<polygon fill="none" stroke="#000000" points="134,-123.5 134,-153.5 323,-153.5 323,-123.5 134,-123.5"/>
<text text-anchor="start" x="142" y="-141.5" font-family="Fira Code" font-size="10.00" fill="#000000">travesim_adapters/udp</text>
<text text-anchor="middle" x="228.5" y="-130.5" font-family="Fira Code" font-size="10.00" fill="#000000">/multicast_receiver.hpp</text>
</a>
</g>
</g>
<!-- Node0&#45;&gt;Node5 -->
<g id="edge5" class="edge">
<title>Node0&#45;&gt;Node5</title>
<path fill="none" stroke="#191970" d="M228.5,-190.2967C228.5,-182.5013 228.5,-172.7991 228.5,-163.9064"/>
<polygon fill="#191970" stroke="#191970" points="232.0001,-163.6431 228.5,-153.6432 225.0001,-163.6432 232.0001,-163.6431"/>
</g>
<!-- Node6 -->
<g id="node7" class="node">
<title>Node6</title>
<g id="a_node7"><a xlink:href="../../df/d3c/receiver_8hpp.html" target="_top" xlink:title="Receiver data using UDP.">
<polygon fill="none" stroke="#000000" points="141.5,-56.5 141.5,-86.5 315.5,-86.5 315.5,-56.5 141.5,-56.5"/>
<text text-anchor="start" x="149.5" y="-74.5" font-family="Fira Code" font-size="10.00" fill="#000000">travesim_adapters/udp</text>
<text text-anchor="middle" x="228.5" y="-63.5" font-family="Fira Code" font-size="10.00" fill="#000000">/receiver.hpp</text>
</a>
</g>
</g>
<!-- Node5&#45;&gt;Node6 -->
<g id="edge6" class="edge">
<title>Node5&#45;&gt;Node6</title>
<path fill="none" stroke="#191970" d="M228.5,-123.2967C228.5,-115.5013 228.5,-105.7991 228.5,-96.9064"/>
<polygon fill="#191970" stroke="#191970" points="232.0001,-96.6431 228.5,-86.6432 225.0001,-96.6432 232.0001,-96.6431"/>
</g>
<!-- Node6&#45;&gt;Node2 -->
<g id="edge8" class="edge">
<title>Node6&#45;&gt;Node2</title>
<path fill="none" stroke="#191970" d="M214.1629,-56.2977C205.8603,-47.4941 195.3818,-36.3833 186.7711,-27.2529"/>
<polygon fill="#191970" stroke="#191970" points="189.1939,-24.7206 179.7865,-19.8469 184.1013,-29.5234 189.1939,-24.7206"/>
</g>
<!-- Node6&#45;&gt;Node3 -->
<g id="edge7" class="edge">
<title>Node6&#45;&gt;Node3</title>
<path fill="none" stroke="#191970" d="M242.8371,-56.2977C251.1397,-47.4941 261.6182,-36.3833 270.2289,-27.2529"/>
<polygon fill="#191970" stroke="#191970" points="272.8987,-29.5234 277.2135,-19.8469 267.8061,-24.7206 272.8987,-29.5234"/>
</g>
</g>
</svg>
