<?xml version="1.0" encoding="UTF-8" standalone="no"?>
<!DOCTYPE svg PUBLIC "-//W3C//DTD SVG 1.1//EN"
 "http://www.w3.org/Graphics/SVG/1.1/DTD/svg11.dtd">
<!-- Generated by graphviz version 2.40.1 (0)
 -->
<!-- Title: src/lib/configurers/vision_configurer.cpp Pages: 1 -->
<svg width="785pt" height="240pt"
 viewBox="0.00 0.00 784.50 240.00" xmlns="http://www.w3.org/2000/svg" xmlns:xlink="http://www.w3.org/1999/xlink">
<g id="graph0" class="graph" transform="scale(1 1) rotate(0) translate(4 236)">
<title>src/lib/configurers/vision_configurer.cpp</title>
<!-- Node0 -->
<g id="node1" class="node">
<title>Node0</title>
<g id="a_node1"><a xlink:title="Configurer for the vision.">
<polygon fill="#bfbfbf" stroke="#000000" points="302.5,-201.5 302.5,-231.5 484.5,-231.5 484.5,-201.5 302.5,-201.5"/>
<text text-anchor="start" x="310.5" y="-219.5" font-family="Fira Code" font-size="10.00" fill="#000000">src/lib/configurers</text>
<text text-anchor="middle" x="393.5" y="-208.5" font-family="Fira Code" font-size="10.00" fill="#000000">/vision_configurer.cpp</text>
</a>
</g>
</g>
<!-- Node1 -->
<g id="node2" class="node">
<title>Node1</title>
<g id="a_node2"><a xlink:href="../../d0/d78/vision__configurer_8hpp.html" target="_top" xlink:title="Configurer for the vision.">
<polygon fill="none" stroke="#000000" points="150.5,-134.5 150.5,-164.5 384.5,-164.5 384.5,-134.5 150.5,-134.5"/>
<text text-anchor="start" x="158.5" y="-152.5" font-family="Fira Code" font-size="10.00" fill="#000000">travesim_adapters/configurers</text>
<text text-anchor="middle" x="267.5" y="-141.5" font-family="Fira Code" font-size="10.00" fill="#000000">/vision_configurer.hpp</text>
</a>
</g>
</g>
<!-- Node0&#45;&gt;Node1 -->
<g id="edge1" class="edge">
<title>Node0&#45;&gt;Node1</title>
<path fill="none" stroke="#191970" d="M365.2231,-201.4639C347.4343,-192.0047 324.2741,-179.6894 304.9657,-169.4222"/>
<polygon fill="#191970" stroke="#191970" points="306.591,-166.3225 296.1184,-164.7177 303.3045,-172.503 306.591,-166.3225"/>
</g>
<!-- Node9 -->
<g id="node10" class="node">
<title>Node9</title>
<g id="a_node10"><a xlink:href="../../d4/d00/configurers__utils_8hpp.html" target="_top" xlink:title="Configurers utilitary funtions.">
<polygon fill="none" stroke="#000000" points="476.5,-134.5 476.5,-164.5 710.5,-164.5 710.5,-134.5 476.5,-134.5"/>
<text text-anchor="start" x="484.5" y="-152.5" font-family="Fira Code" font-size="10.00" fill="#000000">travesim_adapters/configurers</text>
<text text-anchor="middle" x="593.5" y="-141.5" font-family="Fira Code" font-size="10.00" fill="#000000">/configurers_utils.hpp</text>
</a>
</g>
</g>
<!-- Node0&#45;&gt;Node9 -->
<g id="edge9" class="edge">
<title>Node0&#45;&gt;Node9</title>
<path fill="none" stroke="#191970" d="M438.3839,-201.4639C468.13,-191.499 507.3381,-178.3642 538.8923,-167.7936"/>
<polygon fill="#191970" stroke="#191970" points="540.05,-171.097 548.4203,-164.6017 537.8265,-164.4595 540.05,-171.097"/>
</g>
<!-- Node2 -->
<g id="node3" class="node">
<title>Node2</title>
<g id="a_node3"><a xlink:title=" ">
<polygon fill="none" stroke="#bfbfbf" points="0,-73 0,-92 77,-92 77,-73 0,-73"/>
<text text-anchor="middle" x="38.5" y="-80" font-family="Fira Code" font-size="10.00" fill="#000000">iostream</text>
</a>
</g>
</g>
<!-- Node1&#45;&gt;Node2 -->
<g id="edge2" class="edge">
<title>Node1&#45;&gt;Node2</title>
<path fill="none" stroke="#191970" d="M211.9639,-134.4488C175.8251,-124.4913 127.7312,-110.9322 85.5,-98 82.5553,-97.0983 79.5138,-96.1452 76.4603,-95.1728"/>
<polygon fill="#191970" stroke="#191970" points="77.3624,-91.7861 66.7706,-92.0405 75.2093,-98.4468 77.3624,-91.7861"/>
</g>
<!-- Node3 -->
<g id="node4" class="node">
<title>Node3</title>
<g id="a_node4"><a xlink:title=" ">
<polygon fill="none" stroke="#bfbfbf" points="95,-67.5 95,-97.5 292,-97.5 292,-67.5 95,-67.5"/>
<text text-anchor="start" x="103" y="-85.5" font-family="Fira Code" font-size="10.00" fill="#000000">travesim_adapters/Vision</text>
<text text-anchor="middle" x="193.5" y="-74.5" font-family="Fira Code" font-size="10.00" fill="#000000">Config.h</text>
</a>
</g>
</g>
<!-- Node1&#45;&gt;Node3 -->
<g id="edge3" class="edge">
<title>Node1&#45;&gt;Node3</title>
<path fill="none" stroke="#191970" d="M250.7083,-134.2967C240.963,-125.4733 228.5199,-114.2072 217.7287,-104.4368"/>
<polygon fill="#191970" stroke="#191970" points="219.9874,-101.7604 210.2253,-97.6432 215.2892,-106.9495 219.9874,-101.7604"/>
</g>
<!-- Node4 -->
<g id="node5" class="node">
<title>Node4</title>
<g id="a_node5"><a xlink:href="../../d1/d79/adapter__configurer_8hpp.html" target="_top" xlink:title="Template configurer for an adapter.">
<polygon fill="none" stroke="#000000" points="310.5,-67.5 310.5,-97.5 544.5,-97.5 544.5,-67.5 310.5,-67.5"/>
<text text-anchor="start" x="318.5" y="-85.5" font-family="Fira Code" font-size="10.00" fill="#000000">travesim_adapters/configurers</text>
<text text-anchor="middle" x="427.5" y="-74.5" font-family="Fira Code" font-size="10.00" fill="#000000">/adapter_configurer.hpp</text>
</a>
</g>
</g>
<!-- Node1&#45;&gt;Node4 -->
<g id="edge4" class="edge">
<title>Node1&#45;&gt;Node4</title>
<path fill="none" stroke="#191970" d="M303.4071,-134.4639C326.6911,-124.7137 357.222,-111.9289 382.1734,-101.4805"/>
<polygon fill="#191970" stroke="#191970" points="383.5642,-104.6926 391.4363,-97.6017 380.8604,-98.2359 383.5642,-104.6926"/>
</g>
<!-- Node5 -->
<g id="node6" class="node">
<title>Node5</title>
<g id="a_node6"><a xlink:title=" ">
<polygon fill="none" stroke="#bfbfbf" points="235.5,-6 235.5,-25 297.5,-25 297.5,-6 235.5,-6"/>
<text text-anchor="middle" x="266.5" y="-13" font-family="Fira Code" font-size="10.00" fill="#000000">memory</text>
</a>
</g>
</g>
<!-- Node4&#45;&gt;Node5 -->
<g id="edge5" class="edge">
<title>Node4&#45;&gt;Node5</title>
<path fill="none" stroke="#191970" d="M391.3685,-67.4639C363.6246,-55.9183 325.6557,-40.1176 298.8918,-28.9798"/>
<polygon fill="#191970" stroke="#191970" points="300.1553,-25.7147 289.5781,-25.1039 297.4658,-32.1774 300.1553,-25.7147"/>
</g>
<!-- Node6 -->
<g id="node7" class="node">
<title>Node6</title>
<g id="a_node7"><a xlink:title=" ">
<polygon fill="none" stroke="#bfbfbf" points="315.5,-6 315.5,-25 399.5,-25 399.5,-6 315.5,-6"/>
<text text-anchor="middle" x="357.5" y="-13" font-family="Fira Code" font-size="10.00" fill="#000000">ros/ros.h</text>
</a>
</g>
</g>
<!-- Node4&#45;&gt;Node6 -->
<g id="edge6" class="edge">
<title>Node4&#45;&gt;Node6</title>
<path fill="none" stroke="#191970" d="M411.6159,-67.2967C400.7096,-56.8578 386.231,-42.9997 374.9944,-32.2446"/>
<polygon fill="#191970" stroke="#191970" points="377.1271,-29.4411 367.4828,-25.055 372.2869,-34.498 377.1271,-29.4411"/>
</g>
<!-- Node7 -->
<g id="node8" class="node">
<title>Node7</title>
<g id="a_node8"><a xlink:title=" ">
<polygon fill="none" stroke="#bfbfbf" points="417,-.5 417,-30.5 576,-30.5 576,-.5 417,-.5"/>
<text text-anchor="start" x="425" y="-18.5" font-family="Fira Code" font-size="10.00" fill="#000000">dynamic_reconfigure</text>
<text text-anchor="middle" x="496.5" y="-7.5" font-family="Fira Code" font-size="10.00" fill="#000000">/server.h</text>
</a>
</g>
</g>
<!-- Node4&#45;&gt;Node7 -->
<g id="edge7" class="edge">
<title>Node4&#45;&gt;Node7</title>
<path fill="none" stroke="#191970" d="M443.1572,-67.2967C452.1557,-58.559 463.6213,-47.4257 473.6148,-37.7218"/>
<polygon fill="#191970" stroke="#191970" points="476.1687,-40.1205 480.9048,-30.6432 471.2923,-35.0985 476.1687,-40.1205"/>
</g>
<!-- Node8 -->
<g id="node9" class="node">
<title>Node8</title>
<g id="a_node9"><a xlink:title=" ">
<polygon fill="none" stroke="#bfbfbf" points="594.5,-.5 594.5,-30.5 776.5,-30.5 776.5,-.5 594.5,-.5"/>
<text text-anchor="start" x="602.5" y="-18.5" font-family="Fira Code" font-size="10.00" fill="#000000">boost/thread/recursive</text>
<text text-anchor="middle" x="685.5" y="-7.5" font-family="Fira Code" font-size="10.00" fill="#000000">_mutex.hpp</text>
</a>
</g>
</g>
<!-- Node4&#45;&gt;Node8 -->
<g id="edge8" class="edge">
<title>Node4&#45;&gt;Node8</title>
<path fill="none" stroke="#191970" d="M485.4002,-67.4639C524.5169,-57.3057 576.3179,-43.8535 617.4134,-33.1814"/>
<polygon fill="#191970" stroke="#191970" points="618.548,-36.5029 627.3472,-30.6017 616.7885,-29.7277 618.548,-36.5029"/>
</g>
<!-- Node10 -->
<g id="node11" class="node">
<title>Node10</title>
<g id="a_node11"><a xlink:title=" ">
<polygon fill="none" stroke="#bfbfbf" points="562.5,-73 562.5,-92 624.5,-92 624.5,-73 562.5,-73"/>
<text text-anchor="middle" x="593.5" y="-80" font-family="Fira Code" font-size="10.00" fill="#000000">string</text>
</a>
</g>
</g>
<!-- Node9&#45;&gt;Node10 -->
<g id="edge10" class="edge">
<title>Node9&#45;&gt;Node10</title>
<path fill="none" stroke="#191970" d="M593.5,-134.2967C593.5,-124.7699 593.5,-112.3954 593.5,-102.1306"/>
<polygon fill="#191970" stroke="#191970" points="597.0001,-102.0549 593.5,-92.055 590.0001,-102.055 597.0001,-102.0549"/>
</g>
<!-- Node11 -->
<g id="node12" class="node">
<title>Node11</title>
<g id="a_node12"><a xlink:title=" ">
<polygon fill="none" stroke="#bfbfbf" points="643,-73 643,-92 712,-92 712,-73 643,-73"/>
<text text-anchor="middle" x="677.5" y="-80" font-family="Fira Code" font-size="10.00" fill="#000000">sstream</text>
</a>
</g>
</g>
<!-- Node9&#45;&gt;Node11 -->
<g id="edge11" class="edge">
<title>Node9&#45;&gt;Node11</title>
<path fill="none" stroke="#191970" d="M612.5609,-134.2967C626.0297,-123.5537 644.0385,-109.1895 657.6748,-98.3129"/>
<polygon fill="#191970" stroke="#191970" points="659.8853,-101.0268 665.5206,-92.055 655.5204,-95.5544 659.8853,-101.0268"/>
</g>
</g>
</svg>
