<?xml version="1.0" encoding="UTF-8" standalone="no"?>
<!DOCTYPE svg PUBLIC "-//W3C//DTD SVG 1.1//EN"
 "http://www.w3.org/Graphics/SVG/1.1/DTD/svg11.dtd">
<!-- Generated by graphviz version 2.40.1 (0)
 -->
<!-- Title: src/lib/data/entity_state.cpp Pages: 1 -->
<svg width="550pt" height="162pt"
 viewBox="0.00 0.00 550.00 162.00" xmlns="http://www.w3.org/2000/svg" xmlns:xlink="http://www.w3.org/1999/xlink">
<g id="graph0" class="graph" transform="scale(1 1) rotate(0) translate(4 158)">
<title>src/lib/data/entity_state.cpp</title>
<!-- Node0 -->
<g id="node1" class="node">
<title>Node0</title>
<g id="a_node1"><a xlink:title="Entity state data structure.">
<polygon fill="#bfbfbf" stroke="#000000" points="99.5,-123.5 99.5,-153.5 258.5,-153.5 258.5,-123.5 99.5,-123.5"/>
<text text-anchor="start" x="107.5" y="-141.5" font-family="Fira Code" font-size="10.00" fill="#000000">src/lib/data/entity</text>
<text text-anchor="middle" x="179" y="-130.5" font-family="Fira Code" font-size="10.00" fill="#000000">_state.cpp</text>
</a>
</g>
</g>
<!-- Node1 -->
<g id="node2" class="node">
<title>Node1</title>
<g id="a_node2"><a xlink:title=" ">
<polygon fill="none" stroke="#bfbfbf" points="0,-62 0,-81 54,-81 54,-62 0,-62"/>
<text text-anchor="middle" x="27" y="-69" font-family="Fira Code" font-size="10.00" fill="#000000">cmath</text>
</a>
</g>
</g>
<!-- Node0&#45;&gt;Node1 -->
<g id="edge1" class="edge">
<title>Node0&#45;&gt;Node1</title>
<path fill="none" stroke="#191970" d="M144.8882,-123.4639C118.9251,-112.0196 83.477,-96.3945 58.2485,-85.274"/>
<polygon fill="#191970" stroke="#191970" points="59.3502,-81.9347 48.788,-81.1039 56.5268,-88.3401 59.3502,-81.9347"/>
</g>
<!-- Node2 -->
<g id="node3" class="node">
<title>Node2</title>
<g id="a_node3"><a xlink:title=" ">
<polygon fill="none" stroke="#bfbfbf" points="72.5,-62 72.5,-81 141.5,-81 141.5,-62 72.5,-62"/>
<text text-anchor="middle" x="107" y="-69" font-family="Fira Code" font-size="10.00" fill="#000000">iomanip</text>
</a>
</g>
</g>
<!-- Node0&#45;&gt;Node2 -->
<g id="edge2" class="edge">
<title>Node0&#45;&gt;Node2</title>
<path fill="none" stroke="#191970" d="M162.6621,-123.2967C151.3352,-112.7564 136.2624,-98.7303 124.6586,-87.9323"/>
<polygon fill="#191970" stroke="#191970" points="126.9731,-85.3051 117.268,-81.055 122.2044,-90.4296 126.9731,-85.3051"/>
</g>
<!-- Node3 -->
<g id="node4" class="node">
<title>Node3</title>
<g id="a_node4"><a xlink:href="../../de/d28/entity__state_8hpp.html" target="_top" xlink:title="Entity state data structure.">
<polygon fill="none" stroke="#000000" points="160,-56.5 160,-86.5 342,-86.5 342,-56.5 160,-56.5"/>
<text text-anchor="start" x="168" y="-74.5" font-family="Fira Code" font-size="10.00" fill="#000000">travesim_adapters/data</text>
<text text-anchor="middle" x="251" y="-63.5" font-family="Fira Code" font-size="10.00" fill="#000000">/entity_state.hpp</text>
</a>
</g>
</g>
<!-- Node0&#45;&gt;Node3 -->
<g id="edge3" class="edge">
<title>Node0&#45;&gt;Node3</title>
<path fill="none" stroke="#191970" d="M195.3379,-123.2967C204.7277,-114.559 216.6918,-103.4257 227.1198,-93.7218"/>
<polygon fill="#191970" stroke="#191970" points="229.7903,-96.0178 234.7267,-86.6432 225.0217,-90.8933 229.7903,-96.0178"/>
</g>
<!-- Node5 -->
<g id="node6" class="node">
<title>Node5</title>
<g id="a_node6"><a xlink:href="../../d9/d46/data__common_8hpp.html" target="_top" xlink:title="Common constants and types for the data structures.">
<polygon fill="none" stroke="#000000" points="360,-56.5 360,-86.5 542,-86.5 542,-56.5 360,-56.5"/>
<text text-anchor="start" x="368" y="-74.5" font-family="Fira Code" font-size="10.00" fill="#000000">travesim_adapters/data</text>
<text text-anchor="middle" x="451" y="-63.5" font-family="Fira Code" font-size="10.00" fill="#000000">/data_common.hpp</text>
</a>
</g>
</g>
<!-- Node0&#45;&gt;Node5 -->
<g id="edge5" class="edge">
<title>Node0&#45;&gt;Node5</title>
<path fill="none" stroke="#191970" d="M240.0421,-123.4639C281.4558,-113.2627 336.3553,-99.7397 379.7678,-89.0462"/>
<polygon fill="#191970" stroke="#191970" points="380.819,-92.3919 389.6917,-86.6017 379.1447,-85.5951 380.819,-92.3919"/>
</g>
<!-- Node4 -->
<g id="node5" class="node">
<title>Node4</title>
<g id="a_node5"><a xlink:title=" ">
<polygon fill="none" stroke="#bfbfbf" points="212.5,-.5 212.5,-19.5 289.5,-19.5 289.5,-.5 212.5,-.5"/>
<text text-anchor="middle" x="251" y="-7.5" font-family="Fira Code" font-size="10.00" fill="#000000">iostream</text>
</a>
</g>
</g>
<!-- Node3&#45;&gt;Node4 -->
<g id="edge4" class="edge">
<title>Node3&#45;&gt;Node4</title>
<path fill="none" stroke="#191970" d="M251,-56.2977C251,-48.3834 251,-38.6043 251,-30.0759"/>
<polygon fill="#191970" stroke="#191970" points="254.5001,-29.8469 251,-19.8469 247.5001,-29.847 254.5001,-29.8469"/>
</g>
</g>
</svg>
