<?xml version="1.0" encoding="UTF-8" standalone="no"?>
<!DOCTYPE svg PUBLIC "-//W3C//DTD SVG 1.1//EN"
 "http://www.w3.org/Graphics/SVG/1.1/DTD/svg11.dtd">
<!-- Generated by graphviz version 2.40.1 (0)
 -->
<!-- Title: src/lib/data/field_state.cpp Pages: 1 -->
<svg width="538pt" height="229pt"
 viewBox="0.00 0.00 537.50 229.00" xmlns="http://www.w3.org/2000/svg" xmlns:xlink="http://www.w3.org/1999/xlink">
<g id="graph0" class="graph" transform="scale(1 1) rotate(0) translate(4 225)">
<title>src/lib/data/field_state.cpp</title>
<!-- Node0 -->
<g id="node1" class="node">
<title>Node0</title>
<g id="a_node1"><a xlink:title=" ">
<polygon fill="#bfbfbf" stroke="#000000" points="30.5,-190.5 30.5,-220.5 182.5,-220.5 182.5,-190.5 30.5,-190.5"/>
<text text-anchor="start" x="38.5" y="-208.5" font-family="Fira Code" font-size="10.00" fill="#000000">src/lib/data/field</text>
<text text-anchor="middle" x="106.5" y="-197.5" font-family="Fira Code" font-size="10.00" fill="#000000">_state.cpp</text>
</a>
</g>
</g>
<!-- Node1 -->
<g id="node2" class="node">
<title>Node1</title>
<g id="a_node2"><a xlink:title=" ">
<polygon fill="none" stroke="#bfbfbf" points="0,-129 0,-148 69,-148 69,-129 0,-129"/>
<text text-anchor="middle" x="34.5" y="-136" font-family="Fira Code" font-size="10.00" fill="#000000">iomanip</text>
</a>
</g>
</g>
<!-- Node0&#45;&gt;Node1 -->
<g id="edge1" class="edge">
<title>Node0&#45;&gt;Node1</title>
<path fill="none" stroke="#191970" d="M90.1621,-190.2967C78.8352,-179.7564 63.7624,-165.7303 52.1586,-154.9323"/>
<polygon fill="#191970" stroke="#191970" points="54.4731,-152.3051 44.768,-148.055 49.7044,-157.4296 54.4731,-152.3051"/>
</g>
<!-- Node2 -->
<g id="node3" class="node">
<title>Node2</title>
<g id="a_node3"><a xlink:href="../../de/d1e/field__state_8hpp.html" target="_top" xlink:title=" ">
<polygon fill="none" stroke="#000000" points="87.5,-123.5 87.5,-153.5 269.5,-153.5 269.5,-123.5 87.5,-123.5"/>
<text text-anchor="start" x="95.5" y="-141.5" font-family="Fira Code" font-size="10.00" fill="#000000">travesim_adapters/data</text>
<text text-anchor="middle" x="178.5" y="-130.5" font-family="Fira Code" font-size="10.00" fill="#000000">/field_state.hpp</text>
</a>
</g>
</g>
<!-- Node0&#45;&gt;Node2 -->
<g id="edge2" class="edge">
<title>Node0&#45;&gt;Node2</title>
<path fill="none" stroke="#191970" d="M122.8379,-190.2967C132.2277,-181.559 144.1918,-170.4257 154.6198,-160.7218"/>
<polygon fill="#191970" stroke="#191970" points="157.2903,-163.0178 162.2267,-153.6432 152.5217,-157.8933 157.2903,-163.0178"/>
</g>
<!-- Node3 -->
<g id="node4" class="node">
<title>Node3</title>
<g id="a_node4"><a xlink:title=" ">
<polygon fill="none" stroke="#bfbfbf" points="29.5,-62 29.5,-81 91.5,-81 91.5,-62 29.5,-62"/>
<text text-anchor="middle" x="60.5" y="-69" font-family="Fira Code" font-size="10.00" fill="#000000">vector</text>
</a>
</g>
</g>
<!-- Node2&#45;&gt;Node3 -->
<g id="edge3" class="edge">
<title>Node2&#45;&gt;Node3</title>
<path fill="none" stroke="#191970" d="M152.0185,-123.4639C132.398,-112.3234 105.8,-97.2212 86.3351,-86.1691"/>
<polygon fill="#191970" stroke="#191970" points="87.8385,-82.9979 77.4144,-81.1039 84.3822,-89.0851 87.8385,-82.9979"/>
</g>
<!-- Node4 -->
<g id="node5" class="node">
<title>Node4</title>
<g id="a_node5"><a xlink:title=" ">
<polygon fill="none" stroke="#bfbfbf" points="240,-.5 240,-19.5 317,-19.5 317,-.5 240,-.5"/>
<text text-anchor="middle" x="278.5" y="-7.5" font-family="Fira Code" font-size="10.00" fill="#000000">iostream</text>
</a>
</g>
</g>
<!-- Node2&#45;&gt;Node4 -->
<g id="edge4" class="edge">
<title>Node2&#45;&gt;Node4</title>
<path fill="none" stroke="#191970" d="M161.7052,-123.3263C144.6827,-106.0791 122.9107,-77.5314 138.5,-56 149.54,-40.7519 194.152,-27.8335 230.0893,-19.6052"/>
<polygon fill="#191970" stroke="#191970" points="230.9582,-22.9976 239.9603,-17.4108 229.4391,-16.1644 230.9582,-22.9976"/>
</g>
<!-- Node5 -->
<g id="node6" class="node">
<title>Node5</title>
<g id="a_node6"><a xlink:href="../../d9/d46/data__common_8hpp.html" target="_top" xlink:title="Common constants and types for the data structures.">
<polygon fill="none" stroke="#000000" points="147.5,-56.5 147.5,-86.5 329.5,-86.5 329.5,-56.5 147.5,-56.5"/>
<text text-anchor="start" x="155.5" y="-74.5" font-family="Fira Code" font-size="10.00" fill="#000000">travesim_adapters/data</text>
<text text-anchor="middle" x="238.5" y="-63.5" font-family="Fira Code" font-size="10.00" fill="#000000">/data_common.hpp</text>
</a>
</g>
</g>
<!-- Node2&#45;&gt;Node5 -->
<g id="edge5" class="edge">
<title>Node2&#45;&gt;Node5</title>
<path fill="none" stroke="#191970" d="M192.1149,-123.2967C199.7863,-114.7303 209.5196,-103.8614 218.0872,-94.2943"/>
<polygon fill="#191970" stroke="#191970" points="220.8751,-96.4276 224.939,-86.6432 215.6604,-91.7578 220.8751,-96.4276"/>
</g>
<!-- Node6 -->
<g id="node7" class="node">
<title>Node6</title>
<g id="a_node7"><a xlink:href="../../de/d28/entity__state_8hpp.html" target="_top" xlink:title="Entity state data structure.">
<polygon fill="none" stroke="#000000" points="347.5,-56.5 347.5,-86.5 529.5,-86.5 529.5,-56.5 347.5,-56.5"/>
<text text-anchor="start" x="355.5" y="-74.5" font-family="Fira Code" font-size="10.00" fill="#000000">travesim_adapters/data</text>
<text text-anchor="middle" x="438.5" y="-63.5" font-family="Fira Code" font-size="10.00" fill="#000000">/entity_state.hpp</text>
</a>
</g>
</g>
<!-- Node2&#45;&gt;Node6 -->
<g id="edge6" class="edge">
<title>Node2&#45;&gt;Node6</title>
<path fill="none" stroke="#191970" d="M236.8491,-123.4639C276.3523,-113.2842 328.6923,-99.7966 370.1481,-89.1138"/>
<polygon fill="#191970" stroke="#191970" points="371.0862,-92.4864 379.8964,-86.6017 369.3394,-85.7079 371.0862,-92.4864"/>
</g>
<!-- Node6&#45;&gt;Node4 -->
<g id="edge7" class="edge">
<title>Node6&#45;&gt;Node4</title>
<path fill="none" stroke="#191970" d="M399.3596,-56.4554C372.8974,-46.284 338.2819,-32.9787 312.8817,-23.2155"/>
<polygon fill="#191970" stroke="#191970" points="313.8843,-19.8512 303.2943,-19.5303 311.3728,-26.3852 313.8843,-19.8512"/>
</g>
</g>
</svg>
