<?xml version="1.0" encoding="UTF-8" standalone="no"?>
<!DOCTYPE svg PUBLIC "-//W3C//DTD SVG 1.1//EN"
 "http://www.w3.org/Graphics/SVG/1.1/DTD/svg11.dtd">
<!-- Generated by graphviz version 2.40.1 (0)
 -->
<!-- Title: include/travesim_adapters/data/team_command.hpp Pages: 1 -->
<svg width="366pt" height="106pt"
 viewBox="0.00 0.00 366.00 106.00" xmlns="http://www.w3.org/2000/svg" xmlns:xlink="http://www.w3.org/1999/xlink">
<g id="graph0" class="graph" transform="scale(1 1) rotate(0) translate(4 102)">
<title>include/travesim_adapters/data/team_command.hpp</title>
<!-- Node0 -->
<g id="node1" class="node">
<title>Node0</title>
<g id="a_node1"><a xlink:title="Team command data structure.">
<polygon fill="#bfbfbf" stroke="#000000" points="17,-67.5 17,-97.5 221,-97.5 221,-67.5 17,-67.5"/>
<text text-anchor="start" x="25" y="-85.5" font-family="Fira Code" font-size="10.00" fill="#000000">include/travesim_adapters</text>
<text text-anchor="middle" x="119" y="-74.5" font-family="Fira Code" font-size="10.00" fill="#000000">/data/team_command.hpp</text>
</a>
</g>
</g>
<!-- Node1 -->
<g id="node2" class="node">
<title>Node1</title>
<g id="a_node2"><a xlink:title=" ">
<polygon fill="none" stroke="#bfbfbf" points="0,-6 0,-25 62,-25 62,-6 0,-6"/>
<text text-anchor="middle" x="31" y="-13" font-family="Fira Code" font-size="10.00" fill="#000000">vector</text>
</a>
</g>
</g>
<!-- Node0&#45;&gt;Node1 -->
<g id="edge1" class="edge">
<title>Node0&#45;&gt;Node1</title>
<path fill="none" stroke="#191970" d="M99.0314,-67.2967C84.9213,-56.5537 66.0549,-42.1895 51.7692,-31.3129"/>
<polygon fill="#191970" stroke="#191970" points="53.6264,-28.328 43.5498,-25.055 49.386,-33.8975 53.6264,-28.328"/>
</g>
<!-- Node2 -->
<g id="node3" class="node">
<title>Node2</title>
<g id="a_node3"><a xlink:title=" ">
<polygon fill="none" stroke="#bfbfbf" points="80.5,-6 80.5,-25 157.5,-25 157.5,-6 80.5,-6"/>
<text text-anchor="middle" x="119" y="-13" font-family="Fira Code" font-size="10.00" fill="#000000">iostream</text>
</a>
</g>
</g>
<!-- Node0&#45;&gt;Node2 -->
<g id="edge2" class="edge">
<title>Node0&#45;&gt;Node2</title>
<path fill="none" stroke="#191970" d="M119,-67.2967C119,-57.7699 119,-45.3954 119,-35.1306"/>
<polygon fill="#191970" stroke="#191970" points="122.5001,-35.0549 119,-25.055 115.5001,-35.055 122.5001,-35.0549"/>
</g>
<!-- Node3 -->
<g id="node4" class="node">
<title>Node3</title>
<g id="a_node4"><a xlink:href="../../d9/d46/data__common_8hpp.html" target="_top" xlink:title="Common constants and types for the data structures.">
<polygon fill="none" stroke="#000000" points="176,-.5 176,-30.5 358,-30.5 358,-.5 176,-.5"/>
<text text-anchor="start" x="184" y="-18.5" font-family="Fira Code" font-size="10.00" fill="#000000">travesim_adapters/data</text>
<text text-anchor="middle" x="267" y="-7.5" font-family="Fira Code" font-size="10.00" fill="#000000">/data_common.hpp</text>
</a>
</g>
</g>
<!-- Node0&#45;&gt;Node3 -->
<g id="edge3" class="edge">
<title>Node0&#45;&gt;Node3</title>
<path fill="none" stroke="#191970" d="M152.2141,-67.4639C173.562,-57.7996 201.4957,-45.154 224.4616,-34.7572"/>
<polygon fill="#191970" stroke="#191970" points="225.9745,-37.9144 233.641,-30.6017 223.0876,-31.5374 225.9745,-37.9144"/>
</g>
</g>
</svg>
