<?xml version="1.0" encoding="UTF-8" standalone="no"?>
<!DOCTYPE svg PUBLIC "-//W3C//DTD SVG 1.1//EN"
 "http://www.w3.org/Graphics/SVG/1.1/DTD/svg11.dtd">
<!-- Generated by graphviz version 2.40.1 (0)
 -->
<!-- Title: travesim::EntityState Pages: 1 -->
<svg width="182pt" height="237pt"
 viewBox="0.00 0.00 182.00 237.00" xmlns="http://www.w3.org/2000/svg" xmlns:xlink="http://www.w3.org/1999/xlink">
<g id="graph0" class="graph" transform="scale(1 1) rotate(0) translate(4 233)">
<title>travesim::EntityState</title>
<!-- Node2 -->
<g id="node1" class="node">
<title>Node2</title>
<g id="a_node1"><a xlink:title="Data structure to hold the state of a entity in the simulation.">
<polygon fill="#bfbfbf" stroke="#000000" points="0,-.5 0,-90.5 174,-90.5 174,-.5 0,-.5"/>
<text text-anchor="middle" x="87" y="-78.5" font-family="Fira Code" font-size="10.00" fill="#000000">travesim::EntityState</text>
<polyline fill="none" stroke="#000000" points="0,-71.5 174,-71.5 "/>
<text text-anchor="start" x="8" y="-59.5" font-family="Fira Code" font-size="10.00" fill="#000000">+ angular_position</text>
<text text-anchor="start" x="8" y="-48.5" font-family="Fira Code" font-size="10.00" fill="#000000">+ angular_velocity</text>
<polyline fill="none" stroke="#000000" points="0,-41.5 174,-41.5 "/>
<text text-anchor="start" x="8" y="-29.5" font-family="Fira Code" font-size="10.00" fill="#000000">+ EntityState()</text>
<text text-anchor="start" x="8" y="-18.5" font-family="Fira Code" font-size="10.00" fill="#000000">+ EntityState()</text>
<text text-anchor="start" x="8" y="-7.5" font-family="Fira Code" font-size="10.00" fill="#000000">+ ~EntityState()</text>
</a>
</g>
</g>
<!-- Node3 -->
<g id="node2" class="node">
<title>Node3</title>
<g id="a_node2"><a xlink:href="../../d9/d2b/classtravesim_1_1Vector2D.html" target="_top" xlink:title="Data structure to hold a two dimensional vector.">
<polygon fill="none" stroke="#000000" points="11,-149.5 11,-228.5 163,-228.5 163,-149.5 11,-149.5"/>
<text text-anchor="middle" x="87" y="-216.5" font-family="Fira Code" font-size="10.00" fill="#000000">travesim::Vector2D</text>
<polyline fill="none" stroke="#000000" points="11,-209.5 163,-209.5 "/>
<text text-anchor="start" x="19" y="-197.5" font-family="Fira Code" font-size="10.00" fill="#000000">+ x</text>
<text text-anchor="start" x="19" y="-186.5" font-family="Fira Code" font-size="10.00" fill="#000000">+ y</text>
<polyline fill="none" stroke="#000000" points="11,-179.5 163,-179.5 "/>
<text text-anchor="start" x="19" y="-167.5" font-family="Fira Code" font-size="10.00" fill="#000000">+ Vector2D()</text>
<text text-anchor="start" x="19" y="-156.5" font-family="Fira Code" font-size="10.00" fill="#000000">+ rotate()</text>
</a>
</g>
</g>
<!-- Node3&#45;&gt;Node2 -->
<g id="edge1" class="edge">
<title>Node3&#45;&gt;Node2</title>
<path fill="none" stroke="#404040" d="M87,-149.4081C87,-135.0069 87,-118.4264 87,-102.7999"/>
<polygon fill="none" stroke="#404040" points="87.0001,-102.5321 83,-96.5321 87,-90.5321 91,-96.5321 87.0001,-102.5321"/>
<text text-anchor="middle" x="125" y="-123" font-family="Fira Code" font-size="10.00" fill="#000000"> +velocity</text>
<text text-anchor="middle" x="125" y="-112" font-family="Fira Code" font-size="10.00" fill="#000000">+position</text>
</g>
</g>
</svg>
