<?xml version="1.0" encoding="UTF-8" standalone="no"?>
<!DOCTYPE svg PUBLIC "-//W3C//DTD SVG 1.1//EN"
 "http://www.w3.org/Graphics/SVG/1.1/DTD/svg11.dtd">
<!-- Generated by graphviz version 2.40.1 (0)
 -->
<!-- Title: include/travesim_adapters/data/field_state.hpp Pages: 1 -->
<svg width="508pt" height="162pt"
 viewBox="0.00 0.00 508.00 162.00" xmlns="http://www.w3.org/2000/svg" xmlns:xlink="http://www.w3.org/1999/xlink">
<g id="graph0" class="graph" transform="scale(1 1) rotate(0) translate(4 158)">
<title>include/travesim_adapters/data/field_state.hpp</title>
<!-- Node0 -->
<g id="node1" class="node">
<title>Node0</title>
<g id="a_node1"><a xlink:title=" ">
<polygon fill="#bfbfbf" stroke="#000000" points="47,-123.5 47,-153.5 251,-153.5 251,-123.5 47,-123.5"/>
<text text-anchor="start" x="55" y="-141.5" font-family="Fira Code" font-size="10.00" fill="#000000">include/travesim_adapters</text>
<text text-anchor="middle" x="149" y="-130.5" font-family="Fira Code" font-size="10.00" fill="#000000">/data/field_state.hpp</text>
</a>
</g>
</g>
<!-- Node1 -->
<g id="node2" class="node">
<title>Node1</title>
<g id="a_node2"><a xlink:title=" ">
<polygon fill="none" stroke="#bfbfbf" points="0,-62 0,-81 62,-81 62,-62 0,-62"/>
<text text-anchor="middle" x="31" y="-69" font-family="Fira Code" font-size="10.00" fill="#000000">vector</text>
</a>
</g>
</g>
<!-- Node0&#45;&gt;Node1 -->
<g id="edge1" class="edge">
<title>Node0&#45;&gt;Node1</title>
<path fill="none" stroke="#191970" d="M122.5185,-123.4639C102.898,-112.3234 76.3,-97.2212 56.8351,-86.1691"/>
<polygon fill="#191970" stroke="#191970" points="58.3385,-82.9979 47.9144,-81.1039 54.8822,-89.0851 58.3385,-82.9979"/>
</g>
<!-- Node2 -->
<g id="node3" class="node">
<title>Node2</title>
<g id="a_node3"><a xlink:title=" ">
<polygon fill="none" stroke="#bfbfbf" points="210.5,-.5 210.5,-19.5 287.5,-19.5 287.5,-.5 210.5,-.5"/>
<text text-anchor="middle" x="249" y="-7.5" font-family="Fira Code" font-size="10.00" fill="#000000">iostream</text>
</a>
</g>
</g>
<!-- Node0&#45;&gt;Node2 -->
<g id="edge2" class="edge">
<title>Node0&#45;&gt;Node2</title>
<path fill="none" stroke="#191970" d="M132.2052,-123.3263C115.1827,-106.0791 93.4107,-77.5314 109,-56 120.04,-40.7519 164.652,-27.8335 200.5893,-19.6052"/>
<polygon fill="#191970" stroke="#191970" points="201.4582,-22.9976 210.4603,-17.4108 199.9391,-16.1644 201.4582,-22.9976"/>
</g>
<!-- Node3 -->
<g id="node4" class="node">
<title>Node3</title>
<g id="a_node4"><a xlink:href="../../d9/d46/data__common_8hpp.html" target="_top" xlink:title="Common constants and types for the data structures.">
<polygon fill="none" stroke="#000000" points="118,-56.5 118,-86.5 300,-86.5 300,-56.5 118,-56.5"/>
<text text-anchor="start" x="126" y="-74.5" font-family="Fira Code" font-size="10.00" fill="#000000">travesim_adapters/data</text>
<text text-anchor="middle" x="209" y="-63.5" font-family="Fira Code" font-size="10.00" fill="#000000">/data_common.hpp</text>
</a>
</g>
</g>
<!-- Node0&#45;&gt;Node3 -->
<g id="edge3" class="edge">
<title>Node0&#45;&gt;Node3</title>
<path fill="none" stroke="#191970" d="M162.6149,-123.2967C170.2863,-114.7303 180.0196,-103.8614 188.5872,-94.2943"/>
<polygon fill="#191970" stroke="#191970" points="191.3751,-96.4276 195.439,-86.6432 186.1604,-91.7578 191.3751,-96.4276"/>
</g>
<!-- Node4 -->
<g id="node5" class="node">
<title>Node4</title>
<g id="a_node5"><a xlink:href="../../de/d28/entity__state_8hpp.html" target="_top" xlink:title="Entity state data structure.">
<polygon fill="none" stroke="#000000" points="318,-56.5 318,-86.5 500,-86.5 500,-56.5 318,-56.5"/>
<text text-anchor="start" x="326" y="-74.5" font-family="Fira Code" font-size="10.00" fill="#000000">travesim_adapters/data</text>
<text text-anchor="middle" x="409" y="-63.5" font-family="Fira Code" font-size="10.00" fill="#000000">/entity_state.hpp</text>
</a>
</g>
</g>
<!-- Node0&#45;&gt;Node4 -->
<g id="edge4" class="edge">
<title>Node0&#45;&gt;Node4</title>
<path fill="none" stroke="#191970" d="M207.3491,-123.4639C246.8523,-113.2842 299.1923,-99.7966 340.6481,-89.1138"/>
<polygon fill="#191970" stroke="#191970" points="341.5862,-92.4864 350.3964,-86.6017 339.8394,-85.7079 341.5862,-92.4864"/>
</g>
<!-- Node4&#45;&gt;Node2 -->
<g id="edge5" class="edge">
<title>Node4&#45;&gt;Node2</title>
<path fill="none" stroke="#191970" d="M369.8596,-56.4554C343.3974,-46.284 308.7819,-32.9787 283.3817,-23.2155"/>
<polygon fill="#191970" stroke="#191970" points="284.3843,-19.8512 273.7943,-19.5303 281.8728,-26.3852 284.3843,-19.8512"/>
</g>
</g>
</svg>
