<?xml version="1.0" encoding="UTF-8" standalone="no"?>
<!DOCTYPE svg PUBLIC "-//W3C//DTD SVG 1.1//EN"
 "http://www.w3.org/Graphics/SVG/1.1/DTD/svg11.dtd">
<!-- Generated by graphviz version 2.40.1 (0)
 -->
<!-- Title: main Pages: 1 -->
<svg width="761pt" height="107pt"
 viewBox="0.00 0.00 761.00 107.00" xmlns="http://www.w3.org/2000/svg" xmlns:xlink="http://www.w3.org/1999/xlink">
<g id="graph0" class="graph" transform="scale(1 1) rotate(0) translate(4 103)">
<title>main</title>
<!-- Node0 -->
<g id="node1" class="node">
<title>Node0</title>
<g id="a_node1"><a xlink:title=" ">
<polygon fill="#bfbfbf" stroke="#000000" points="0,-30 0,-49 47,-49 47,-30 0,-30"/>
<text text-anchor="middle" x="23.5" y="-37" font-family="Fira Code" font-size="10.00" fill="#000000">main</text>
</a>
</g>
</g>
<!-- Node1 -->
<g id="node2" class="node">
<title>Node1</title>
<g id="a_node2"><a xlink:href="../../d3/df0/classtravesim_1_1ReplacerConfigurer.html#aeaaa46b3e10fba23cb2dd2efc0c4c6fb" target="_top" xlink:title="Get the replacer configured address.">
<polygon fill="none" stroke="#000000" points="83,-49.5 83,-79.5 310,-79.5 310,-49.5 83,-49.5"/>
<text text-anchor="start" x="91" y="-67.5" font-family="Fira Code" font-size="10.00" fill="#000000">travesim::ReplacerConfigurer</text>
<text text-anchor="middle" x="196.5" y="-56.5" font-family="Fira Code" font-size="10.00" fill="#000000">::get_address</text>
</a>
</g>
</g>
<!-- Node0&#45;&gt;Node1 -->
<g id="edge1" class="edge">
<title>Node0&#45;&gt;Node1</title>
<path fill="none" stroke="#191970" d="M47.1922,-42.9237C56.9999,-44.341 69.145,-46.0961 82.2395,-47.9884"/>
<polygon fill="#191970" stroke="#191970" points="82.0172,-51.4925 92.415,-49.4588 83.0184,-44.5645 82.0172,-51.4925"/>
</g>
<!-- Node5 -->
<g id="node6" class="node">
<title>Node5</title>
<g id="a_node6"><a xlink:href="../../dd/d5b/classtravesim_1_1AdapterConfigurer.html#a036c5ec113755fcbb96bfed6943ab174" target="_top" xlink:title="Get the reset config.">
<polygon fill="none" stroke="#000000" points="87,-.5 87,-30.5 306,-30.5 306,-.5 87,-.5"/>
<text text-anchor="start" x="95" y="-18.5" font-family="Fira Code" font-size="10.00" fill="#000000">travesim::AdapterConfigurer</text>
<text text-anchor="middle" x="196.5" y="-7.5" font-family="Fira Code" font-size="10.00" fill="#000000">::get_reset</text>
</a>
</g>
</g>
<!-- Node0&#45;&gt;Node5 -->
<g id="edge5" class="edge">
<title>Node0&#45;&gt;Node5</title>
<path fill="none" stroke="#191970" d="M47.1922,-36.2132C56.0124,-34.9896 66.7229,-33.5038 78.3142,-31.8957"/>
<polygon fill="#191970" stroke="#191970" points="78.8118,-35.3603 88.236,-30.5193 77.8499,-28.4267 78.8118,-35.3603"/>
</g>
<!-- Node2 -->
<g id="node3" class="node">
<title>Node2</title>
<g id="a_node3"><a xlink:href="../../d1/d4b/namespacetravesim.html#a05f869547c07b49b722c2afb6c1967ef" target="_top" xlink:title="Checks if a IP is valid and is in the specified range.">
<polygon fill="none" stroke="#000000" points="346,-74 346,-93 543,-93 543,-74 346,-74"/>
<text text-anchor="middle" x="444.5" y="-81" font-family="Fira Code" font-size="10.00" fill="#000000">travesim::check_valid_ip</text>
</a>
</g>
</g>
<!-- Node1&#45;&gt;Node2 -->
<g id="edge2" class="edge">
<title>Node1&#45;&gt;Node2</title>
<path fill="none" stroke="#191970" d="M310.3383,-73.2215C318.7572,-73.8665 327.2391,-74.5163 335.6272,-75.1589"/>
<polygon fill="#191970" stroke="#191970" points="335.5637,-78.6642 345.8019,-75.9385 336.0985,-71.6847 335.5637,-78.6642"/>
</g>
<!-- Node4 -->
<g id="node5" class="node">
<title>Node4</title>
<g id="a_node5"><a xlink:href="../../d1/d4b/namespacetravesim.html#a32624f8212a09572f8587ea017f67d30" target="_top" xlink:title="Get the error msg based on the validation type.">
<polygon fill="none" stroke="#000000" points="350,-36 350,-55 539,-55 539,-36 350,-36"/>
<text text-anchor="middle" x="444.5" y="-43" font-family="Fira Code" font-size="10.00" fill="#000000">travesim::get_error_msg</text>
</a>
</g>
</g>
<!-- Node1&#45;&gt;Node4 -->
<g id="edge4" class="edge">
<title>Node1&#45;&gt;Node4</title>
<path fill="none" stroke="#191970" d="M310.3383,-55.7785C320.1669,-55.0255 330.0812,-54.266 339.832,-53.5189"/>
<polygon fill="#191970" stroke="#191970" points="340.2204,-56.9995 349.9237,-52.7458 339.6856,-50.02 340.2204,-56.9995"/>
</g>
<!-- Node3 -->
<g id="node4" class="node">
<title>Node3</title>
<g id="a_node4"><a xlink:href="../../d1/d4b/namespacetravesim.html#ad051590d1f7aa8c749f82ed36c4b2cba" target="_top" xlink:title="Converts a IPv4 in a string to a array of unsigned integers, where the most significant byte of the I...">
<polygon fill="none" stroke="#000000" points="579,-68.5 579,-98.5 753,-98.5 753,-68.5 579,-68.5"/>
<text text-anchor="start" x="587" y="-86.5" font-family="Fira Code" font-size="10.00" fill="#000000">travesim::ipv4_string</text>
<text text-anchor="middle" x="666" y="-75.5" font-family="Fira Code" font-size="10.00" fill="#000000">_to_uint</text>
</a>
</g>
</g>
<!-- Node2&#45;&gt;Node3 -->
<g id="edge3" class="edge">
<title>Node2&#45;&gt;Node3</title>
<path fill="none" stroke="#191970" d="M543.2658,-83.5C551.7135,-83.5 560.2554,-83.5 568.6916,-83.5"/>
<polygon fill="#191970" stroke="#191970" points="568.9162,-87.0001 578.9162,-83.5 568.9162,-80.0001 568.9162,-87.0001"/>
</g>
</g>
</svg>
