<?xml version="1.0" encoding="UTF-8" standalone="no"?>
<!DOCTYPE svg PUBLIC "-//W3C//DTD SVG 1.1//EN"
 "http://www.w3.org/Graphics/SVG/1.1/DTD/svg11.dtd">
<!-- Generated by graphviz version 2.40.1 (0)
 -->
<!-- Title: include/travesim_adapters/data/robot_state.hpp Pages: 1 -->
<svg width="1518pt" height="173pt"
 viewBox="0.00 0.00 1517.50 173.00" xmlns="http://www.w3.org/2000/svg" xmlns:xlink="http://www.w3.org/1999/xlink">
<g id="graph0" class="graph" transform="scale(1 1) rotate(0) translate(4 169)">
<title>include/travesim_adapters/data/robot_state.hpp</title>
<!-- Node3 -->
<g id="node1" class="node">
<title>Node3</title>
<g id="a_node1"><a xlink:title="Robot state data structure.">
<polygon fill="#bfbfbf" stroke="#000000" points="895,-134.5 895,-164.5 1099,-164.5 1099,-134.5 895,-134.5"/>
<text text-anchor="start" x="903" y="-152.5" font-family="Fira Code" font-size="10.00" fill="#000000">include/travesim_adapters</text>
<text text-anchor="middle" x="997" y="-141.5" font-family="Fira Code" font-size="10.00" fill="#000000">/data/robot_state.hpp</text>
</a>
</g>
</g>
<!-- Node4 -->
<g id="node2" class="node">
<title>Node4</title>
<g id="a_node2"><a xlink:href="../../d2/d46/ros__side_8hpp.html" target="_top" xlink:title="Collection of data converters between ROS and local formats.">
<polygon fill="none" stroke="#000000" points="883.5,-67.5 883.5,-97.5 1110.5,-97.5 1110.5,-67.5 883.5,-67.5"/>
<text text-anchor="start" x="891.5" y="-85.5" font-family="Fira Code" font-size="10.00" fill="#000000">include/travesim_adapters</text>
<text text-anchor="middle" x="997" y="-74.5" font-family="Fira Code" font-size="10.00" fill="#000000">/data/converter/ros_side.hpp</text>
</a>
</g>
</g>
<!-- Node3&#45;&gt;Node4 -->
<g id="edge1" class="edge">
<title>Node3&#45;&gt;Node4</title>
<path fill="none" stroke="#191970" d="M997,-124.0249C997,-115.128 997,-105.4287 997,-97.6432"/>
<polygon fill="#191970" stroke="#191970" points="993.5001,-124.2966 997,-134.2967 1000.5001,-124.2967 993.5001,-124.2966"/>
</g>
<!-- Node6 -->
<g id="node4" class="node">
<title>Node6</title>
<g id="a_node4"><a xlink:href="../../df/ddf/vision__adapter_8cpp.html" target="_top" xlink:title="Vision adapter executable file.">
<polygon fill="none" stroke="#000000" points="698,-6 698,-25 910,-25 910,-6 698,-6"/>
<text text-anchor="middle" x="804" y="-13" font-family="Fira Code" font-size="10.00" fill="#000000">src/bin/vision_adapter.cpp</text>
</a>
</g>
</g>
<!-- Node3&#45;&gt;Node6 -->
<g id="edge11" class="edge">
<title>Node3&#45;&gt;Node6</title>
<path fill="none" stroke="#191970" d="M937.9092,-130.8764C916.923,-122.677 893.8509,-111.7389 875,-98 846.1374,-76.9644 821.193,-42.0218 810.1132,-25.1724"/>
<polygon fill="#191970" stroke="#191970" points="936.7904,-134.195 947.3821,-134.4512 939.2619,-127.6458 936.7904,-134.195"/>
</g>
<!-- Node8 -->
<g id="node6" class="node">
<title>Node8</title>
<g id="a_node6"><a xlink:href="../../d3/d2c/ros__side_8test_8cpp.html" target="_top" xlink:title=" ">
<polygon fill="none" stroke="#000000" points="1320.5,-.5 1320.5,-30.5 1509.5,-30.5 1509.5,-.5 1320.5,-.5"/>
<text text-anchor="start" x="1328.5" y="-18.5" font-family="Fira Code" font-size="10.00" fill="#000000">src/lib/data/converter</text>
<text text-anchor="middle" x="1415" y="-7.5" font-family="Fira Code" font-size="10.00" fill="#000000">/test/ros_side.test.cpp</text>
</a>
</g>
</g>
<!-- Node3&#45;&gt;Node8 -->
<g id="edge12" class="edge">
<title>Node3&#45;&gt;Node8</title>
<path fill="none" stroke="#191970" d="M1051.0238,-130.7698C1073.1082,-122.1326 1098.4709,-110.9171 1120,-98 1138.69,-86.7863 1138.2897,-76.3041 1158,-67 1186.4969,-53.5483 1259.3826,-39.5778 1320.2861,-29.5872"/>
<polygon fill="#191970" stroke="#191970" points="1049.5455,-127.588 1041.458,-134.4321 1052.0484,-134.1253 1049.5455,-127.588"/>
</g>
<!-- Node10 -->
<g id="node8" class="node">
<title>Node10</title>
<g id="a_node8"><a xlink:href="../../d4/d4c/replacer__receiver_8hpp.html" target="_top" xlink:title="Replacer receiver with UDP and protobuf.">
<polygon fill="none" stroke="#000000" points="322.5,-67.5 322.5,-97.5 571.5,-97.5 571.5,-67.5 322.5,-67.5"/>
<text text-anchor="start" x="330.5" y="-85.5" font-family="Fira Code" font-size="10.00" fill="#000000">include/travesim_adapters</text>
<text text-anchor="middle" x="447" y="-74.5" font-family="Fira Code" font-size="10.00" fill="#000000">/protobuf/replacer_receiver.hpp</text>
</a>
</g>
</g>
<!-- Node3&#45;&gt;Node10 -->
<g id="edge7" class="edge">
<title>Node3&#45;&gt;Node10</title>
<path fill="none" stroke="#191970" d="M884.7219,-135.8225C793.3313,-124.6895 664.496,-108.995 570.2635,-97.5157"/>
<polygon fill="#191970" stroke="#191970" points="884.4883,-139.3198 894.8382,-137.0548 885.3348,-132.3712 884.4883,-139.3198"/>
</g>
<!-- Node13 -->
<g id="node11" class="node">
<title>Node13</title>
<g id="a_node11"><a xlink:href="../../da/dc2/robot__state_8cpp.html" target="_top" xlink:title="Robot state data structure.">
<polygon fill="none" stroke="#000000" points="1167,-67.5 1167,-97.5 1319,-97.5 1319,-67.5 1167,-67.5"/>
<text text-anchor="start" x="1175" y="-85.5" font-family="Fira Code" font-size="10.00" fill="#000000">src/lib/data/robot</text>
<text text-anchor="middle" x="1243" y="-74.5" font-family="Fira Code" font-size="10.00" fill="#000000">_state.cpp</text>
</a>
</g>
</g>
<!-- Node3&#45;&gt;Node13 -->
<g id="edge13" class="edge">
<title>Node3&#45;&gt;Node13</title>
<path fill="none" stroke="#191970" d="M1061.9155,-131.8198C1101.016,-121.1704 1150.2817,-107.7525 1187.552,-97.6017"/>
<polygon fill="#191970" stroke="#191970" points="1060.936,-128.459 1052.2072,-134.4639 1062.7755,-135.213 1060.936,-128.459"/>
</g>
<!-- Node5 -->
<g id="node3" class="node">
<title>Node5</title>
<g id="a_node3"><a xlink:href="../../da/d85/replacer__adapter_8cpp.html" target="_top" xlink:title="Replacer adapter execution file.">
<polygon fill="none" stroke="#000000" points="452.5,-6 452.5,-25 679.5,-25 679.5,-6 452.5,-6"/>
<text text-anchor="middle" x="566" y="-13" font-family="Fira Code" font-size="10.00" fill="#000000">src/bin/replacer_adapter.cpp</text>
</a>
</g>
</g>
<!-- Node4&#45;&gt;Node5 -->
<g id="edge2" class="edge">
<title>Node4&#45;&gt;Node5</title>
<path fill="none" stroke="#191970" d="M890.3196,-65.9163C807.4609,-53.0357 695.5022,-35.6314 627.1459,-25.0053"/>
<polygon fill="#191970" stroke="#191970" points="889.8562,-69.3862 900.2752,-67.4639 890.9315,-62.4693 889.8562,-69.3862"/>
</g>
<!-- Node4&#45;&gt;Node6 -->
<g id="edge3" class="edge">
<title>Node4&#45;&gt;Node6</title>
<path fill="none" stroke="#191970" d="M944.1764,-64.1623C907.6806,-51.4928 860.6218,-35.1563 831.3809,-25.0053"/>
<polygon fill="#191970" stroke="#191970" points="943.0922,-67.4907 953.687,-67.4639 945.3879,-60.8779 943.0922,-67.4907"/>
</g>
<!-- Node7 -->
<g id="node5" class="node">
<title>Node7</title>
<g id="a_node5"><a xlink:href="../../de/d8d/ros__side_8cpp.html" target="_top" xlink:title="Collection of data converters between ROS and local formats.">
<polygon fill="none" stroke="#000000" points="1120,-.5 1120,-30.5 1302,-30.5 1302,-.5 1120,-.5"/>
<text text-anchor="start" x="1128" y="-18.5" font-family="Fira Code" font-size="10.00" fill="#000000">src/lib/data/converter</text>
<text text-anchor="middle" x="1211" y="-7.5" font-family="Fira Code" font-size="10.00" fill="#000000">/ros_side.cpp</text>
</a>
</g>
</g>
<!-- Node4&#45;&gt;Node7 -->
<g id="edge4" class="edge">
<title>Node4&#45;&gt;Node7</title>
<path fill="none" stroke="#191970" d="M1054.7726,-64.4123C1088.5734,-53.8298 1130.7548,-40.6235 1162.7648,-30.6017"/>
<polygon fill="#191970" stroke="#191970" points="1053.5232,-61.1359 1045.0258,-67.4639 1055.6148,-67.8161 1053.5232,-61.1359"/>
</g>
<!-- Node4&#45;&gt;Node8 -->
<g id="edge5" class="edge">
<title>Node4&#45;&gt;Node8</title>
<path fill="none" stroke="#191970" d="M1101.0411,-65.8236C1168.5414,-55.0041 1255.7688,-41.0227 1321.1448,-30.5438"/>
<polygon fill="#191970" stroke="#191970" points="1100.1274,-62.4253 1090.8074,-67.4639 1101.2353,-69.337 1100.1274,-62.4253"/>
</g>
<!-- Node9 -->
<g id="node7" class="node">
<title>Node9</title>
<g id="a_node7"><a xlink:href="../../da/db5/gazebo__services_8mock_8cpp.html" target="_top" xlink:title=" ">
<polygon fill="none" stroke="#000000" points="928,-.5 928,-30.5 1102,-30.5 1102,-.5 928,-.5"/>
<text text-anchor="start" x="936" y="-18.5" font-family="Fira Code" font-size="10.00" fill="#000000">test/mocks/bin/gazebo</text>
<text text-anchor="middle" x="1015" y="-7.5" font-family="Fira Code" font-size="10.00" fill="#000000">_services.mock.cpp</text>
</a>
</g>
</g>
<!-- Node4&#45;&gt;Node9 -->
<g id="edge6" class="edge">
<title>Node4&#45;&gt;Node9</title>
<path fill="none" stroke="#191970" d="M1003.6868,-57.6103C1006.1195,-48.5553 1008.7941,-38.5998 1010.9317,-30.6432"/>
<polygon fill="#191970" stroke="#191970" points="1000.299,-56.731 1001.0845,-67.2967 1007.0593,-58.5472 1000.299,-56.731"/>
</g>
<!-- Node10&#45;&gt;Node5 -->
<g id="edge9" class="edge">
<title>Node10&#45;&gt;Node5</title>
<path fill="none" stroke="#191970" d="M482.4497,-62.5409C504.4253,-50.1681 531.6637,-34.8322 548.9423,-25.1039"/>
<polygon fill="#191970" stroke="#191970" points="480.7026,-59.5079 473.7059,-67.4639 484.1369,-65.6076 480.7026,-59.5079"/>
</g>
<!-- Node11 -->
<g id="node9" class="node">
<title>Node11</title>
<g id="a_node9"><a xlink:href="../../d8/d50/replacer__receiver__example_8cpp.html" target="_top" xlink:title="Example to read data published from VSSReplacer.">
<polygon fill="none" stroke="#000000" points="222,-.5 222,-30.5 434,-30.5 434,-.5 222,-.5"/>
<text text-anchor="start" x="230" y="-18.5" font-family="Fira Code" font-size="10.00" fill="#000000">examples/protobuf/replacer</text>
<text text-anchor="middle" x="328" y="-7.5" font-family="Fira Code" font-size="10.00" fill="#000000">_receiver_example.cpp</text>
</a>
</g>
</g>
<!-- Node10&#45;&gt;Node11 -->
<g id="edge8" class="edge">
<title>Node10&#45;&gt;Node11</title>
<path fill="none" stroke="#191970" d="M411.222,-62.3561C393.1827,-52.1995 371.6646,-40.0843 355.0285,-30.7177"/>
<polygon fill="#191970" stroke="#191970" points="409.8631,-65.6076 420.2941,-67.4639 413.2974,-59.5079 409.8631,-65.6076"/>
</g>
<!-- Node12 -->
<g id="node10" class="node">
<title>Node12</title>
<g id="a_node10"><a xlink:href="../../d2/d5a/replacer__receiver_8cpp.html" target="_top" xlink:title="Replacer receiver with UDP and protobuf.">
<polygon fill="none" stroke="#000000" points="0,-.5 0,-30.5 204,-30.5 204,-.5 0,-.5"/>
<text text-anchor="start" x="8" y="-18.5" font-family="Fira Code" font-size="10.00" fill="#000000">src/lib/protobuf/replacer</text>
<text text-anchor="middle" x="102" y="-7.5" font-family="Fira Code" font-size="10.00" fill="#000000">_receiver.cpp</text>
</a>
</g>
</g>
<!-- Node10&#45;&gt;Node12 -->
<g id="edge10" class="edge">
<title>Node10&#45;&gt;Node12</title>
<path fill="none" stroke="#191970" d="M359.7527,-65.5563C304.2353,-54.7747 232.9797,-40.9366 179.4642,-30.5438"/>
<polygon fill="#191970" stroke="#191970" points="359.0914,-68.9932 369.5753,-67.4639 360.4259,-62.1216 359.0914,-68.9932"/>
</g>
</g>
</svg>
