<?xml version="1.0" encoding="UTF-8" standalone="no"?>
<!DOCTYPE svg PUBLIC "-//W3C//DTD SVG 1.1//EN"
 "http://www.w3.org/Graphics/SVG/1.1/DTD/svg11.dtd">
<!-- Generated by graphviz version 2.40.1 (0)
 -->
<!-- Title: include/travesim_adapters/data/robot_state.hpp Pages: 1 -->
<svg width="261pt" height="162pt"
 viewBox="0.00 0.00 261.00 162.00" xmlns="http://www.w3.org/2000/svg" xmlns:xlink="http://www.w3.org/1999/xlink">
<g id="graph0" class="graph" transform="scale(1 1) rotate(0) translate(4 158)">
<title>include/travesim_adapters/data/robot_state.hpp</title>
<!-- Node0 -->
<g id="node1" class="node">
<title>Node0</title>
<g id="a_node1"><a xlink:title="Robot state data structure.">
<polygon fill="#bfbfbf" stroke="#000000" points="0,-123.5 0,-153.5 204,-153.5 204,-123.5 0,-123.5"/>
<text text-anchor="start" x="8" y="-141.5" font-family="Fira Code" font-size="10.00" fill="#000000">include/travesim_adapters</text>
<text text-anchor="middle" x="102" y="-130.5" font-family="Fira Code" font-size="10.00" fill="#000000">/data/robot_state.hpp</text>
</a>
</g>
</g>
<!-- Node1 -->
<g id="node2" class="node">
<title>Node1</title>
<g id="a_node2"><a xlink:title=" ">
<polygon fill="none" stroke="#bfbfbf" points="63.5,-.5 63.5,-19.5 140.5,-19.5 140.5,-.5 63.5,-.5"/>
<text text-anchor="middle" x="102" y="-7.5" font-family="Fira Code" font-size="10.00" fill="#000000">iostream</text>
</a>
</g>
</g>
<!-- Node0&#45;&gt;Node1 -->
<g id="edge1" class="edge">
<title>Node0&#45;&gt;Node1</title>
<path fill="none" stroke="#191970" d="M85.9365,-123.4715C77.012,-113.9853 66.7716,-100.9224 62,-87 57.533,-73.9665 57.1739,-68.9049 62,-56 66.1149,-44.9969 74.1815,-34.8874 81.9994,-26.9652"/>
<polygon fill="#191970" stroke="#191970" points="84.7032,-29.2264 89.5788,-19.82 79.9015,-24.1329 84.7032,-29.2264"/>
</g>
<!-- Node2 -->
<g id="node3" class="node">
<title>Node2</title>
<g id="a_node3"><a xlink:href="../../de/d28/entity__state_8hpp.html" target="_top" xlink:title="Entity state data structure.">
<polygon fill="none" stroke="#000000" points="71,-56.5 71,-86.5 253,-86.5 253,-56.5 71,-56.5"/>
<text text-anchor="start" x="79" y="-74.5" font-family="Fira Code" font-size="10.00" fill="#000000">travesim_adapters/data</text>
<text text-anchor="middle" x="162" y="-63.5" font-family="Fira Code" font-size="10.00" fill="#000000">/entity_state.hpp</text>
</a>
</g>
</g>
<!-- Node0&#45;&gt;Node2 -->
<g id="edge2" class="edge">
<title>Node0&#45;&gt;Node2</title>
<path fill="none" stroke="#191970" d="M115.6149,-123.2967C123.2863,-114.7303 133.0196,-103.8614 141.5872,-94.2943"/>
<polygon fill="#191970" stroke="#191970" points="144.3751,-96.4276 148.439,-86.6432 139.1604,-91.7578 144.3751,-96.4276"/>
</g>
<!-- Node2&#45;&gt;Node1 -->
<g id="edge3" class="edge">
<title>Node2&#45;&gt;Node1</title>
<path fill="none" stroke="#191970" d="M147.1685,-56.2977C138.5796,-47.4941 127.7398,-36.3833 118.8321,-27.2529"/>
<polygon fill="#191970" stroke="#191970" points="121.0953,-24.5606 111.6068,-19.8469 116.0848,-29.4489 121.0953,-24.5606"/>
</g>
</g>
</svg>
