<?xml version="1.0" encoding="UTF-8" standalone="no"?>
<!DOCTYPE svg PUBLIC "-//W3C//DTD SVG 1.1//EN"
 "http://www.w3.org/Graphics/SVG/1.1/DTD/svg11.dtd">
<!-- Generated by graphviz version 2.40.1 (0)
 -->
<!-- Title: examples/configurers/vision_configurer_example.cpp Pages: 1 -->
<!--zoomable 240 -->
<svg id="main" version="1.1" xmlns="http://www.w3.org/2000/svg" xmlns:xlink="http://www.w3.org/1999/xlink" xml:space="preserve" onload="init(evt)">
<style type="text/css"><![CDATA[
.edge:hover path { stroke: red; }
.edge:hover polygon { stroke: red; fill: red; }
]]></style>
<script type="text/javascript"><![CDATA[
var edges = document.getElementsByTagName('g');
if (edges && edges.length) {
  for (var i=0;i<edges.length;i++) {
    if (edges[i].id.substr(0,4)=='edge') {
      edges[i].setAttribute('class','edge');
    }
  }
}
]]></script>
        <defs>
                <circle id="rim" cx="0" cy="0" r="7"/>
                <circle id="rim2" cx="0" cy="0" r="3.5"/>
                <g id="zoomPlus">
                        <use xlink:href="#rim" fill="#404040">
                                <set attributeName="fill" to="#808080" begin="zoomplus.mouseover" end="zoomplus.mouseout"/>
                        </use>
                        <path d="M-4,0h8M0,-4v8" fill="none" stroke="white" stroke-width="1.5" pointer-events="none"/>
                </g>
                <g id="zoomMin">
                        <use xlink:href="#rim" fill="#404040">
                                <set attributeName="fill" to="#808080" begin="zoomminus.mouseover" end="zoomminus.mouseout"/>
                        </use>
                        <path d="M-4,0h8" fill="none" stroke="white" stroke-width="1.5" pointer-events="none"/>
                </g>
                <g id="dirArrow">
                        <path fill="none" stroke="white" stroke-width="1.5" d="M0,-3.0v7 M-2.5,-0.5L0,-3.0L2.5,-0.5"/>
                </g>
               <g id="resetDef">
                       <use xlink:href="#rim2" fill="#404040">
                               <set attributeName="fill" to="#808080" begin="reset.mouseover" end="reset.mouseout"/>
                       </use>
               </g>
        </defs>

<script type="text/javascript">
var viewWidth = 793;
var viewHeight = 240;
var sectionId = 'dynsection-0';
</script>
<script xlink:href="../../svgpan.js"/>
<svg id="graph" class="graph">
<g id="viewport">
<title>examples/configurers/vision_configurer_example.cpp</title>
<!-- Node0 -->
<g id="node1" class="node">
<title>Node0</title>
<g id="a_node1"><a xlink:title="Example on how to use the VisionConfigurer.">
<polygon fill="#bfbfbf" stroke="#000000" points="0,-201.5 0,-231.5 242,-231.5 242,-201.5 0,-201.5"/>
<text text-anchor="start" x="8" y="-219.5" font-family="Fira Code" font-size="10.00" fill="#000000">examples/configurers</text>
<text text-anchor="middle" x="121" y="-208.5" font-family="Fira Code" font-size="10.00" fill="#000000">/vision_configurer_example.cpp</text>
</a>
</g>
</g>
<!-- Node1 -->
<g id="node2" class="node">
<title>Node1</title>
<g id="a_node2"><a xlink:title=" ">
<polygon fill="none" stroke="#bfbfbf" points="125,-6 125,-25 209,-25 209,-6 125,-6"/>
<text text-anchor="middle" x="167" y="-13" font-family="Fira Code" font-size="10.00" fill="#000000">ros/ros.h</text>
</a>
</g>
</g>
<!-- Node0&#45;&gt;Node1 -->
<g id="edge1" class="edge">
<title>Node0&#45;&gt;Node1</title>
<path fill="none" stroke="#191970" d="M107.2062,-201.1761C83.6434,-173.0522 40.7077,-111.9618 68,-67 79.1371,-48.6525 99.1749,-36.5403 118.3241,-28.7026"/>
<polygon fill="#191970" stroke="#191970" points="119.7863,-31.8919 127.9066,-25.0867 117.3149,-25.3426 119.7863,-31.8919"/>
</g>
<!-- Node2 -->
<g id="node3" class="node">
<title>Node2</title>
<g id="a_node3"><a xlink:href="../../d0/d78/vision__configurer_8hpp.html" target="_top" xlink:title="Configurer for the vision.">
<polygon fill="none" stroke="#000000" points="115,-134.5 115,-164.5 349,-164.5 349,-134.5 115,-134.5"/>
<text text-anchor="start" x="123" y="-152.5" font-family="Fira Code" font-size="10.00" fill="#000000">travesim_adapters/configurers</text>
<text text-anchor="middle" x="232" y="-141.5" font-family="Fira Code" font-size="10.00" fill="#000000">/vision_configurer.hpp</text>
</a>
</g>
</g>
<!-- Node0&#45;&gt;Node2 -->
<g id="edge2" class="edge">
<title>Node0&#45;&gt;Node2</title>
<path fill="none" stroke="#191970" d="M145.9106,-201.4639C161.2271,-192.2188 181.0639,-180.2452 197.8349,-170.1222"/>
<polygon fill="#191970" stroke="#191970" points="200.0359,-172.8819 206.7885,-164.7177 196.4185,-166.889 200.0359,-172.8819"/>
</g>
<!-- Node3 -->
<g id="node4" class="node">
<title>Node3</title>
<g id="a_node4"><a xlink:title=" ">
<polygon fill="none" stroke="#bfbfbf" points="77.5,-73 77.5,-92 154.5,-92 154.5,-73 77.5,-73"/>
<text text-anchor="middle" x="116" y="-80" font-family="Fira Code" font-size="10.00" fill="#000000">iostream</text>
</a>
</g>
</g>
<!-- Node2&#45;&gt;Node3 -->
<g id="edge3" class="edge">
<title>Node2&#45;&gt;Node3</title>
<path fill="none" stroke="#191970" d="M205.9673,-134.4639C186.6794,-123.3234 160.5322,-108.2212 141.3972,-97.1691"/>
<polygon fill="#191970" stroke="#191970" points="143.0376,-94.0747 132.6277,-92.1039 139.5365,-100.1363 143.0376,-94.0747"/>
</g>
<!-- Node4 -->
<g id="node5" class="node">
<title>Node4</title>
<g id="a_node5"><a xlink:title=" ">
<polygon fill="none" stroke="#bfbfbf" points="172.5,-67.5 172.5,-97.5 369.5,-97.5 369.5,-67.5 172.5,-67.5"/>
<text text-anchor="start" x="180.5" y="-85.5" font-family="Fira Code" font-size="10.00" fill="#000000">travesim_adapters/Vision</text>
<text text-anchor="middle" x="271" y="-74.5" font-family="Fira Code" font-size="10.00" fill="#000000">Config.h</text>
</a>
</g>
</g>
<!-- Node2&#45;&gt;Node4 -->
<g id="edge4" class="edge">
<title>Node2&#45;&gt;Node4</title>
<path fill="none" stroke="#191970" d="M240.8497,-134.2967C245.6366,-126.0729 251.6588,-115.7272 257.0599,-106.4483"/>
<polygon fill="#191970" stroke="#191970" points="260.1794,-108.0464 262.1853,-97.6432 254.1297,-104.5249 260.1794,-108.0464"/>
</g>
<!-- Node5 -->
<g id="node6" class="node">
<title>Node5</title>
<g id="a_node6"><a xlink:href="../../d1/d79/adapter__configurer_8hpp.html" target="_top" xlink:title="Template configurer for an adapter.">
<polygon fill="none" stroke="#000000" points="388,-67.5 388,-97.5 622,-97.5 622,-67.5 388,-67.5"/>
<text text-anchor="start" x="396" y="-85.5" font-family="Fira Code" font-size="10.00" fill="#000000">travesim_adapters/configurers</text>
<text text-anchor="middle" x="505" y="-74.5" font-family="Fira Code" font-size="10.00" fill="#000000">/adapter_configurer.hpp</text>
</a>
</g>
</g>
<!-- Node2&#45;&gt;Node5 -->
<g id="edge5" class="edge">
<title>Node2&#45;&gt;Node5</title>
<path fill="none" stroke="#191970" d="M293.2665,-134.4639C334.8325,-124.2627 389.9338,-110.7397 433.5059,-100.0462"/>
<polygon fill="#191970" stroke="#191970" points="434.5887,-103.3844 443.4663,-97.6017 432.9202,-96.5861 434.5887,-103.3844"/>
</g>
<!-- Node5&#45;&gt;Node1 -->
<g id="edge7" class="edge">
<title>Node5&#45;&gt;Node1</title>
<path fill="none" stroke="#191970" d="M429.1462,-67.4639C365.1984,-54.7878 275.3748,-36.9826 219.2168,-25.8507"/>
<polygon fill="#191970" stroke="#191970" points="219.6262,-22.3638 209.1365,-23.8525 218.2651,-29.2302 219.6262,-22.3638"/>
</g>
<!-- Node6 -->
<g id="node7" class="node">
<title>Node6</title>
<g id="a_node7"><a xlink:title=" ">
<polygon fill="none" stroke="#bfbfbf" points="345,-6 345,-25 407,-25 407,-6 345,-6"/>
<text text-anchor="middle" x="376" y="-13" font-family="Fira Code" font-size="10.00" fill="#000000">memory</text>
</a>
</g>
</g>
<!-- Node5&#45;&gt;Node6 -->
<g id="edge6" class="edge">
<title>Node5&#45;&gt;Node6</title>
<path fill="none" stroke="#191970" d="M476.0499,-67.4639C454.3078,-56.1715 424.7284,-40.8086 403.3773,-29.7192"/>
<polygon fill="#191970" stroke="#191970" points="404.9788,-26.6071 394.4911,-25.1039 401.7523,-32.8192 404.9788,-26.6071"/>
</g>
<!-- Node7 -->
<g id="node8" class="node">
<title>Node7</title>
<g id="a_node8"><a xlink:title=" ">
<polygon fill="none" stroke="#bfbfbf" points="425.5,-.5 425.5,-30.5 584.5,-30.5 584.5,-.5 425.5,-.5"/>
<text text-anchor="start" x="433.5" y="-18.5" font-family="Fira Code" font-size="10.00" fill="#000000">dynamic_reconfigure</text>
<text text-anchor="middle" x="505" y="-7.5" font-family="Fira Code" font-size="10.00" fill="#000000">/server.h</text>
</a>
</g>
</g>
<!-- Node5&#45;&gt;Node7 -->
<g id="edge8" class="edge">
<title>Node5&#45;&gt;Node7</title>
<path fill="none" stroke="#191970" d="M505,-67.2967C505,-59.5013 505,-49.7991 505,-40.9064"/>
<polygon fill="#191970" stroke="#191970" points="508.5001,-40.6431 505,-30.6432 501.5001,-40.6432 508.5001,-40.6431"/>
</g>
<!-- Node8 -->
<g id="node9" class="node">
<title>Node8</title>
<g id="a_node9"><a xlink:title=" ">
<polygon fill="none" stroke="#bfbfbf" points="603,-.5 603,-30.5 785,-30.5 785,-.5 603,-.5"/>
<text text-anchor="start" x="611" y="-18.5" font-family="Fira Code" font-size="10.00" fill="#000000">boost/thread/recursive</text>
<text text-anchor="middle" x="694" y="-7.5" font-family="Fira Code" font-size="10.00" fill="#000000">_mutex.hpp</text>
</a>
</g>
</g>
<!-- Node5&#45;&gt;Node8 -->
<g id="edge9" class="edge">
<title>Node5&#45;&gt;Node8</title>
<path fill="none" stroke="#191970" d="M547.4153,-67.4639C575.283,-57.5849 611.9389,-44.5905 641.623,-34.0675"/>
<polygon fill="#191970" stroke="#191970" points="643.1439,-37.2418 651.3997,-30.6017 640.805,-30.6441 643.1439,-37.2418"/>
</g>
</g>
</svg>
        <g id="navigator" transform="translate(0 0)" fill="#404254">
                <rect fill="#f2f5e9" fill-opacity="0.5" stroke="#606060" stroke-width=".5" x="0" y="0" width="60" height="60"/>
                <use id="zoomplus" xlink:href="#zoomPlus" x="17" y="9" onmousedown="handleZoom(evt,'in')"/>
                <use id="zoomminus" xlink:href="#zoomMin" x="42" y="9" onmousedown="handleZoom(evt,'out')"/>
                <use id="reset" xlink:href="#resetDef" x="30" y="36" onmousedown="handleReset()"/>
                <g id="arrowUp" xlink:href="#dirArrow" transform="translate(30 24)" onmousedown="handlePan(0,-1)">
                  <use xlink:href="#rim" fill="#404040">
                        <set attributeName="fill" to="#808080" begin="arrowUp.mouseover" end="arrowUp.mouseout"/>
                  </use>
                  <path fill="none" stroke="white" stroke-width="1.5" d="M0,-3.0v7 M-2.5,-0.5L0,-3.0L2.5,-0.5"/>
                </g>
                <g id="arrowRight" xlink:href="#dirArrow" transform="rotate(90) translate(36 -43)" onmousedown="handlePan(1,0)">
                  <use xlink:href="#rim" fill="#404040">
                        <set attributeName="fill" to="#808080" begin="arrowRight.mouseover" end="arrowRight.mouseout"/>
                  </use>
                  <path fill="none" stroke="white" stroke-width="1.5" d="M0,-3.0v7 M-2.5,-0.5L0,-3.0L2.5,-0.5"/>
                </g>
                <g id="arrowDown" xlink:href="#dirArrow" transform="rotate(180) translate(-30 -48)" onmousedown="handlePan(0,1)">
                  <use xlink:href="#rim" fill="#404040">
                        <set attributeName="fill" to="#808080" begin="arrowDown.mouseover" end="arrowDown.mouseout"/>
                  </use>
                  <path fill="none" stroke="white" stroke-width="1.5" d="M0,-3.0v7 M-2.5,-0.5L0,-3.0L2.5,-0.5"/>
                </g>
                <g id="arrowLeft" xlink:href="#dirArrow" transform="rotate(270) translate(-36 17)" onmousedown="handlePan(-1,0)">
                  <use xlink:href="#rim" fill="#404040">
                        <set attributeName="fill" to="#808080" begin="arrowLeft.mouseover" end="arrowLeft.mouseout"/>
                  </use>
                  <path fill="none" stroke="white" stroke-width="1.5" d="M0,-3.0v7 M-2.5,-0.5L0,-3.0L2.5,-0.5"/>
                </g>
        </g>
        <svg viewBox="0 0 15 15" width="100%" height="30px" preserveAspectRatio="xMaxYMin meet">
         <g id="arrow_out" transform="scale(0.3 0.3)">
          <a xlink:href="vision__configurer__example_8cpp__incl_org.svg" target="_base">
           <rect id="button" ry="5" rx="5" y="6" x="6" height="38" width="38"
                fill="#f2f5e9" fill-opacity="0.5" stroke="#606060" stroke-width="1.0"/>
           <path id="arrow"
             d="M 11.500037,31.436501 C 11.940474,20.09759 22.043105,11.32322 32.158766,21.979434 L 37.068811,17.246167 C 37.068811,17.246167 37.088388,32 37.088388,32 L 22.160133,31.978069 C 22.160133,31.978069 26.997745,27.140456 26.997745,27.140456 C 18.528582,18.264221 13.291696,25.230495 11.500037,31.436501 z"
             style="fill:#404040;"/>
          </a>
         </g>
        </svg>
</svg>
