<?xml version="1.0" encoding="UTF-8" standalone="no"?>
<!DOCTYPE svg PUBLIC "-//W3C//DTD SVG 1.1//EN"
 "http://www.w3.org/Graphics/SVG/1.1/DTD/svg11.dtd">
<!-- Generated by graphviz version 2.40.1 (0)
 -->
<!-- Title: include/travesim_adapters/configurers/adapter_configurer.hpp Pages: 1 -->
<svg width="549pt" height="106pt"
 viewBox="0.00 0.00 549.00 106.00" xmlns="http://www.w3.org/2000/svg" xmlns:xlink="http://www.w3.org/1999/xlink">
<g id="graph0" class="graph" transform="scale(1 1) rotate(0) translate(4 102)">
<title>include/travesim_adapters/configurers/adapter_configurer.hpp</title>
<!-- Node0 -->
<g id="node1" class="node">
<title>Node0</title>
<g id="a_node1"><a xlink:title="Template configurer for an adapter.">
<polygon fill="#bfbfbf" stroke="#000000" points="51.5,-67.5 51.5,-97.5 330.5,-97.5 330.5,-67.5 51.5,-67.5"/>
<text text-anchor="start" x="59.5" y="-85.5" font-family="Fira Code" font-size="10.00" fill="#000000">include/travesim_adapters</text>
<text text-anchor="middle" x="191" y="-74.5" font-family="Fira Code" font-size="10.00" fill="#000000">/configurers/adapter_configurer.hpp</text>
</a>
</g>
</g>
<!-- Node1 -->
<g id="node2" class="node">
<title>Node1</title>
<g id="a_node2"><a xlink:title=" ">
<polygon fill="none" stroke="#bfbfbf" points="0,-6 0,-25 62,-25 62,-6 0,-6"/>
<text text-anchor="middle" x="31" y="-13" font-family="Fira Code" font-size="10.00" fill="#000000">memory</text>
</a>
</g>
</g>
<!-- Node0&#45;&gt;Node1 -->
<g id="edge1" class="edge">
<title>Node0&#45;&gt;Node1</title>
<path fill="none" stroke="#191970" d="M155.0929,-67.4639C127.5214,-55.9183 89.7883,-40.1176 63.1906,-28.9798"/>
<polygon fill="#191970" stroke="#191970" points="64.5106,-25.7381 53.9347,-25.1039 61.8068,-32.1949 64.5106,-25.7381"/>
</g>
<!-- Node2 -->
<g id="node3" class="node">
<title>Node2</title>
<g id="a_node3"><a xlink:title=" ">
<polygon fill="none" stroke="#bfbfbf" points="80,-6 80,-25 164,-25 164,-6 80,-6"/>
<text text-anchor="middle" x="122" y="-13" font-family="Fira Code" font-size="10.00" fill="#000000">ros/ros.h</text>
</a>
</g>
</g>
<!-- Node0&#45;&gt;Node2 -->
<g id="edge2" class="edge">
<title>Node0&#45;&gt;Node2</title>
<path fill="none" stroke="#191970" d="M175.3428,-67.2967C164.5923,-56.8578 150.3206,-42.9997 139.2445,-32.2446"/>
<polygon fill="#191970" stroke="#191970" points="141.4527,-29.5103 131.8402,-25.055 136.5763,-34.5323 141.4527,-29.5103"/>
</g>
<!-- Node3 -->
<g id="node4" class="node">
<title>Node3</title>
<g id="a_node4"><a xlink:title=" ">
<polygon fill="none" stroke="#bfbfbf" points="181.5,-.5 181.5,-30.5 340.5,-30.5 340.5,-.5 181.5,-.5"/>
<text text-anchor="start" x="189.5" y="-18.5" font-family="Fira Code" font-size="10.00" fill="#000000">dynamic_reconfigure</text>
<text text-anchor="middle" x="261" y="-7.5" font-family="Fira Code" font-size="10.00" fill="#000000">/server.h</text>
</a>
</g>
</g>
<!-- Node0&#45;&gt;Node3 -->
<g id="edge3" class="edge">
<title>Node0&#45;&gt;Node3</title>
<path fill="none" stroke="#191970" d="M206.8841,-67.2967C216.013,-58.559 227.6448,-47.4257 237.7832,-37.7218"/>
<polygon fill="#191970" stroke="#191970" points="240.3747,-40.0862 245.1788,-30.6432 235.5345,-35.0293 240.3747,-40.0862"/>
</g>
<!-- Node4 -->
<g id="node5" class="node">
<title>Node4</title>
<g id="a_node5"><a xlink:title=" ">
<polygon fill="none" stroke="#bfbfbf" points="359,-.5 359,-30.5 541,-30.5 541,-.5 359,-.5"/>
<text text-anchor="start" x="367" y="-18.5" font-family="Fira Code" font-size="10.00" fill="#000000">boost/thread/recursive</text>
<text text-anchor="middle" x="450" y="-7.5" font-family="Fira Code" font-size="10.00" fill="#000000">_mutex.hpp</text>
</a>
</g>
</g>
<!-- Node0&#45;&gt;Node4 -->
<g id="edge4" class="edge">
<title>Node0&#45;&gt;Node4</title>
<path fill="none" stroke="#191970" d="M249.1247,-67.4639C288.476,-57.2842 340.6146,-43.7966 381.911,-33.1138"/>
<polygon fill="#191970" stroke="#191970" points="382.8171,-36.4947 391.6218,-30.6017 381.0639,-29.7177 382.8171,-36.4947"/>
</g>
</g>
</svg>
