<?xml version="1.0" encoding="UTF-8" standalone="no"?>
<!DOCTYPE svg PUBLIC "-//W3C//DTD SVG 1.1//EN"
 "http://www.w3.org/Graphics/SVG/1.1/DTD/svg11.dtd">
<!-- Generated by graphviz version 2.40.1 (0)
 -->
<!-- Title: include/travesim_adapters/ros/vision_receiver.hpp Pages: 1 -->
<svg width="598pt" height="106pt"
 viewBox="0.00 0.00 598.00 106.00" xmlns="http://www.w3.org/2000/svg" xmlns:xlink="http://www.w3.org/1999/xlink">
<g id="graph0" class="graph" transform="scale(1 1) rotate(0) translate(4 102)">
<title>include/travesim_adapters/ros/vision_receiver.hpp</title>
<!-- Node4 -->
<g id="node1" class="node">
<title>Node4</title>
<g id="a_node1"><a xlink:title="ROS vision receiver class definition.">
<polygon fill="#bfbfbf" stroke="#000000" points="223,-67.5 223,-97.5 427,-97.5 427,-67.5 223,-67.5"/>
<text text-anchor="start" x="231" y="-85.5" font-family="Fira Code" font-size="10.00" fill="#000000">include/travesim_adapters</text>
<text text-anchor="middle" x="325" y="-74.5" font-family="Fira Code" font-size="10.00" fill="#000000">/ros/vision_receiver.hpp</text>
</a>
</g>
</g>
<!-- Node5 -->
<g id="node2" class="node">
<title>Node5</title>
<g id="a_node2"><a xlink:href="../../df/ddf/vision__adapter_8cpp.html" target="_top" xlink:title="Vision adapter executable file.">
<polygon fill="none" stroke="#000000" points="0,-6 0,-25 212,-25 212,-6 0,-6"/>
<text text-anchor="middle" x="106" y="-13" font-family="Fira Code" font-size="10.00" fill="#000000">src/bin/vision_adapter.cpp</text>
</a>
</g>
</g>
<!-- Node4&#45;&gt;Node5 -->
<g id="edge1" class="edge">
<title>Node4&#45;&gt;Node5</title>
<path fill="none" stroke="#191970" d="M266.1149,-64.4849C224.5583,-51.7713 170.532,-35.2427 137.0695,-25.0053"/>
<polygon fill="#191970" stroke="#191970" points="265.2657,-67.8852 275.8521,-67.4639 267.3136,-61.1914 265.2657,-67.8852"/>
</g>
<!-- Node6 -->
<g id="node3" class="node">
<title>Node6</title>
<g id="a_node3"><a xlink:href="../../d3/d2c/ros__side_8test_8cpp.html" target="_top" xlink:title=" ">
<polygon fill="none" stroke="#000000" points="230.5,-.5 230.5,-30.5 419.5,-30.5 419.5,-.5 230.5,-.5"/>
<text text-anchor="start" x="238.5" y="-18.5" font-family="Fira Code" font-size="10.00" fill="#000000">src/lib/data/converter</text>
<text text-anchor="middle" x="325" y="-7.5" font-family="Fira Code" font-size="10.00" fill="#000000">/test/ros_side.test.cpp</text>
</a>
</g>
</g>
<!-- Node4&#45;&gt;Node6 -->
<g id="edge2" class="edge">
<title>Node4&#45;&gt;Node6</title>
<path fill="none" stroke="#191970" d="M325,-57.0249C325,-48.128 325,-38.4287 325,-30.6432"/>
<polygon fill="#191970" stroke="#191970" points="321.5001,-57.2966 325,-67.2967 328.5001,-57.2967 321.5001,-57.2966"/>
</g>
<!-- Node7 -->
<g id="node4" class="node">
<title>Node7</title>
<g id="a_node4"><a xlink:href="../../d5/d77/vision__receiver_8cpp.html" target="_top" xlink:title="ROS vision receiver class definition.">
<polygon fill="none" stroke="#000000" points="438,-.5 438,-30.5 590,-30.5 590,-.5 438,-.5"/>
<text text-anchor="start" x="446" y="-18.5" font-family="Fira Code" font-size="10.00" fill="#000000">src/lib/ros/vision</text>
<text text-anchor="middle" x="514" y="-7.5" font-family="Fira Code" font-size="10.00" fill="#000000">_receiver.cpp</text>
</a>
</g>
</g>
<!-- Node4&#45;&gt;Node7 -->
<g id="edge3" class="edge">
<title>Node4&#45;&gt;Node7</title>
<path fill="none" stroke="#191970" d="M377.1802,-64.0023C406.8334,-53.4903 443.4932,-40.4945 471.3997,-30.6017"/>
<polygon fill="#191970" stroke="#191970" points="375.6711,-60.8237 367.4153,-67.4639 378.01,-67.4214 375.6711,-60.8237"/>
</g>
</g>
</svg>
