<?xml version="1.0" encoding="UTF-8" standalone="no"?>
<!DOCTYPE svg PUBLIC "-//W3C//DTD SVG 1.1//EN"
 "http://www.w3.org/Graphics/SVG/1.1/DTD/svg11.dtd">
<!-- Generated by graphviz version 2.40.1 (0)
 -->
<!-- Title: include/travesim_adapters/protobuf/replacer_receiver.hpp Pages: 1 -->
<svg width="690pt" height="229pt"
 viewBox="0.00 0.00 689.50 229.00" xmlns="http://www.w3.org/2000/svg" xmlns:xlink="http://www.w3.org/1999/xlink">
<g id="graph0" class="graph" transform="scale(1 1) rotate(0) translate(4 225)">
<title>include/travesim_adapters/protobuf/replacer_receiver.hpp</title>
<!-- Node0 -->
<g id="node1" class="node">
<title>Node0</title>
<g id="a_node1"><a xlink:title="Replacer receiver with UDP and protobuf.">
<polygon fill="#bfbfbf" stroke="#000000" points="171.5,-190.5 171.5,-220.5 420.5,-220.5 420.5,-190.5 171.5,-190.5"/>
<text text-anchor="start" x="179.5" y="-208.5" font-family="Fira Code" font-size="10.00" fill="#000000">include/travesim_adapters</text>
<text text-anchor="middle" x="296" y="-197.5" font-family="Fira Code" font-size="10.00" fill="#000000">/protobuf/replacer_receiver.hpp</text>
</a>
</g>
</g>
<!-- Node1 -->
<g id="node2" class="node">
<title>Node1</title>
<g id="a_node2"><a xlink:title=" ">
<polygon fill="none" stroke="#bfbfbf" points="0,-129 0,-148 54,-148 54,-129 0,-129"/>
<text text-anchor="middle" x="27" y="-136" font-family="Fira Code" font-size="10.00" fill="#000000">queue</text>
</a>
</g>
</g>
<!-- Node0&#45;&gt;Node1 -->
<g id="edge1" class="edge">
<title>Node0&#45;&gt;Node1</title>
<path fill="none" stroke="#191970" d="M209.7534,-190.479C165.3688,-181.7366 110.7067,-169.3897 63,-154 60.8953,-153.321 58.7447,-152.5647 56.5939,-151.7615"/>
<polygon fill="#191970" stroke="#191970" points="57.8883,-148.5096 47.3041,-148.0352 55.2823,-155.0065 57.8883,-148.5096"/>
</g>
<!-- Node2 -->
<g id="node3" class="node">
<title>Node2</title>
<g id="a_node3"><a xlink:title=" ">
<polygon fill="none" stroke="#bfbfbf" points="72,-129 72,-148 134,-148 134,-129 72,-129"/>
<text text-anchor="middle" x="103" y="-136" font-family="Fira Code" font-size="10.00" fill="#000000">memory</text>
</a>
</g>
</g>
<!-- Node0&#45;&gt;Node2 -->
<g id="edge2" class="edge">
<title>Node0&#45;&gt;Node2</title>
<path fill="none" stroke="#191970" d="M249.6144,-190.4885C219.181,-180.4916 178.5788,-166.8739 143,-154 140.8947,-153.2382 138.7322,-152.4416 136.555,-151.6288"/>
<polygon fill="#191970" stroke="#191970" points="137.6386,-148.2965 127.0474,-148.02 135.1545,-154.8409 137.6386,-148.2965"/>
</g>
<!-- Node3 -->
<g id="node4" class="node">
<title>Node3</title>
<g id="a_node4"><a xlink:href="../../de/d4a/unicast__receiver_8hpp.html" target="_top" xlink:title="Receiver data using UDP in unicast mode.">
<polygon fill="none" stroke="#000000" points="152,-123.5 152,-153.5 326,-153.5 326,-123.5 152,-123.5"/>
<text text-anchor="start" x="160" y="-141.5" font-family="Fira Code" font-size="10.00" fill="#000000">travesim_adapters/udp</text>
<text text-anchor="middle" x="239" y="-130.5" font-family="Fira Code" font-size="10.00" fill="#000000">/unicast_receiver.hpp</text>
</a>
</g>
</g>
<!-- Node0&#45;&gt;Node3 -->
<g id="edge3" class="edge">
<title>Node0&#45;&gt;Node3</title>
<path fill="none" stroke="#191970" d="M283.0658,-190.2967C275.778,-181.7303 266.5313,-170.8614 258.3921,-161.2943"/>
<polygon fill="#191970" stroke="#191970" points="261.0286,-158.9918 251.883,-153.6432 255.697,-163.5277 261.0286,-158.9918"/>
</g>
<!-- Node7 -->
<g id="node8" class="node">
<title>Node7</title>
<g id="a_node8"><a xlink:href="../../de/d28/entity__state_8hpp.html" target="_top" xlink:title="Entity state data structure.">
<polygon fill="none" stroke="#000000" points="303,-56.5 303,-86.5 485,-86.5 485,-56.5 303,-56.5"/>
<text text-anchor="start" x="311" y="-74.5" font-family="Fira Code" font-size="10.00" fill="#000000">travesim_adapters/data</text>
<text text-anchor="middle" x="394" y="-63.5" font-family="Fira Code" font-size="10.00" fill="#000000">/entity_state.hpp</text>
</a>
</g>
</g>
<!-- Node0&#45;&gt;Node7 -->
<g id="edge7" class="edge">
<title>Node0&#45;&gt;Node7</title>
<path fill="none" stroke="#191970" d="M307.7144,-190.2585C315.5169,-180.0513 325.9586,-166.2844 335,-154 349.4433,-134.3761 365.5106,-111.8627 377.2264,-95.317"/>
<polygon fill="#191970" stroke="#191970" points="380.3359,-96.9815 383.2495,-86.7952 374.6195,-92.9413 380.3359,-96.9815"/>
</g>
<!-- Node9 -->
<g id="node10" class="node">
<title>Node9</title>
<g id="a_node10"><a xlink:href="../../dc/d09/robot__state_8hpp.html" target="_top" xlink:title="Robot state data structure.">
<polygon fill="none" stroke="#000000" points="382,-123.5 382,-153.5 564,-153.5 564,-123.5 382,-123.5"/>
<text text-anchor="start" x="390" y="-141.5" font-family="Fira Code" font-size="10.00" fill="#000000">travesim_adapters/data</text>
<text text-anchor="middle" x="473" y="-130.5" font-family="Fira Code" font-size="10.00" fill="#000000">/robot_state.hpp</text>
</a>
</g>
</g>
<!-- Node0&#45;&gt;Node9 -->
<g id="edge9" class="edge">
<title>Node0&#45;&gt;Node9</title>
<path fill="none" stroke="#191970" d="M335.7223,-190.4639C361.7071,-180.6278 395.8507,-167.7034 423.5855,-157.2049"/>
<polygon fill="#191970" stroke="#191970" points="424.9912,-160.4153 433.1045,-153.6017 422.513,-153.8686 424.9912,-160.4153"/>
</g>
<!-- Node10 -->
<g id="node11" class="node">
<title>Node10</title>
<g id="a_node11"><a xlink:title=" ">
<polygon fill="none" stroke="#bfbfbf" points="582.5,-129 582.5,-148 681.5,-148 681.5,-129 582.5,-129"/>
<text text-anchor="middle" x="632" y="-136" font-family="Fira Code" font-size="10.00" fill="#000000">packet.pb.h</text>
</a>
</g>
</g>
<!-- Node0&#45;&gt;Node10 -->
<g id="edge12" class="edge">
<title>Node0&#45;&gt;Node10</title>
<path fill="none" stroke="#191970" d="M386.1589,-190.4549C440.4876,-180.9628 510.949,-167.8995 573,-154 577.7248,-152.9416 582.6438,-151.7669 587.5369,-150.5512"/>
<polygon fill="#191970" stroke="#191970" points="588.6459,-153.8806 597.4737,-148.0223 586.9193,-147.0969 588.6459,-153.8806"/>
</g>
<!-- Node4 -->
<g id="node5" class="node">
<title>Node4</title>
<g id="a_node5"><a xlink:href="../../df/d3c/receiver_8hpp.html" target="_top" xlink:title="Receiver data using UDP.">
<polygon fill="none" stroke="#000000" points="111,-56.5 111,-86.5 285,-86.5 285,-56.5 111,-56.5"/>
<text text-anchor="start" x="119" y="-74.5" font-family="Fira Code" font-size="10.00" fill="#000000">travesim_adapters/udp</text>
<text text-anchor="middle" x="198" y="-63.5" font-family="Fira Code" font-size="10.00" fill="#000000">/receiver.hpp</text>
</a>
</g>
</g>
<!-- Node3&#45;&gt;Node4 -->
<g id="edge4" class="edge">
<title>Node3&#45;&gt;Node4</title>
<path fill="none" stroke="#191970" d="M229.6965,-123.2967C224.664,-115.0729 218.3331,-104.7272 212.655,-95.4483"/>
<polygon fill="#191970" stroke="#191970" points="215.4718,-93.346 207.2667,-86.6432 209.501,-96.9997 215.4718,-93.346"/>
</g>
<!-- Node5 -->
<g id="node6" class="node">
<title>Node5</title>
<g id="a_node6"><a xlink:title=" ">
<polygon fill="none" stroke="#bfbfbf" points="136,-.5 136,-19.5 258,-19.5 258,-.5 136,-.5"/>
<text text-anchor="middle" x="197" y="-7.5" font-family="Fira Code" font-size="10.00" fill="#000000">boost/asio.hpp</text>
</a>
</g>
</g>
<!-- Node4&#45;&gt;Node5 -->
<g id="edge5" class="edge">
<title>Node4&#45;&gt;Node5</title>
<path fill="none" stroke="#191970" d="M197.7528,-56.2977C197.6241,-48.3834 197.4651,-38.6043 197.3264,-30.0759"/>
<polygon fill="#191970" stroke="#191970" points="200.8223,-29.7887 197.1601,-19.8469 193.8233,-29.9025 200.8223,-29.7887"/>
</g>
<!-- Node6 -->
<g id="node7" class="node">
<title>Node6</title>
<g id="a_node7"><a xlink:title=" ">
<polygon fill="none" stroke="#bfbfbf" points="276,-.5 276,-19.5 338,-19.5 338,-.5 276,-.5"/>
<text text-anchor="middle" x="307" y="-7.5" font-family="Fira Code" font-size="10.00" fill="#000000">string</text>
</a>
</g>
</g>
<!-- Node4&#45;&gt;Node6 -->
<g id="edge6" class="edge">
<title>Node4&#45;&gt;Node6</title>
<path fill="none" stroke="#191970" d="M224.6644,-56.4554C241.8941,-46.734 264.1975,-34.15 281.2446,-24.5317"/>
<polygon fill="#191970" stroke="#191970" points="283.1194,-27.4926 290.1089,-19.5303 279.6796,-21.3961 283.1194,-27.4926"/>
</g>
<!-- Node8 -->
<g id="node9" class="node">
<title>Node8</title>
<g id="a_node9"><a xlink:title=" ">
<polygon fill="none" stroke="#bfbfbf" points="415.5,-.5 415.5,-19.5 492.5,-19.5 492.5,-.5 415.5,-.5"/>
<text text-anchor="middle" x="454" y="-7.5" font-family="Fira Code" font-size="10.00" fill="#000000">iostream</text>
</a>
</g>
</g>
<!-- Node7&#45;&gt;Node8 -->
<g id="edge8" class="edge">
<title>Node7&#45;&gt;Node8</title>
<path fill="none" stroke="#191970" d="M408.8315,-56.2977C417.4204,-47.4941 428.2602,-36.3833 437.1679,-27.2529"/>
<polygon fill="#191970" stroke="#191970" points="439.9152,-29.4489 444.3932,-19.8469 434.9047,-24.5606 439.9152,-29.4489"/>
</g>
<!-- Node9&#45;&gt;Node7 -->
<g id="edge11" class="edge">
<title>Node9&#45;&gt;Node7</title>
<path fill="none" stroke="#191970" d="M455.0737,-123.2967C444.569,-114.3876 431.1279,-102.9882 419.5308,-93.1527"/>
<polygon fill="#191970" stroke="#191970" points="421.7458,-90.442 411.8554,-86.6432 417.2181,-95.7806 421.7458,-90.442"/>
</g>
<!-- Node9&#45;&gt;Node8 -->
<g id="edge10" class="edge">
<title>Node9&#45;&gt;Node8</title>
<path fill="none" stroke="#191970" d="M482.3122,-123.2962C491.3491,-106.511 502.5421,-78.8414 494,-56 489.8851,-44.9969 481.8185,-34.8874 474.0006,-26.9652"/>
<polygon fill="#191970" stroke="#191970" points="476.0985,-24.1329 466.4212,-19.82 471.2968,-29.2264 476.0985,-24.1329"/>
</g>
</g>
</svg>
