<?xml version="1.0" encoding="UTF-8" standalone="no"?>
<!DOCTYPE svg PUBLIC "-//W3C//DTD SVG 1.1//EN"
 "http://www.w3.org/Graphics/SVG/1.1/DTD/svg11.dtd">
<!-- Generated by graphviz version 2.40.1 (0)
 -->
<!-- Title: examples/udp/multicast_sender_example.cpp Pages: 1 -->
<svg width="320pt" height="229pt"
 viewBox="0.00 0.00 320.44 229.00" xmlns="http://www.w3.org/2000/svg" xmlns:xlink="http://www.w3.org/1999/xlink">
<g id="graph0" class="graph" transform="scale(1 1) rotate(0) translate(4 225)">
<title>examples/udp/multicast_sender_example.cpp</title>
<!-- Node0 -->
<g id="node1" class="node">
<title>Node0</title>
<g id="a_node1"><a xlink:title="Example on how to use the MulticastSender.">
<polygon fill="#bfbfbf" stroke="#000000" points="37.4212,-190.5 37.4212,-220.5 219.4212,-220.5 219.4212,-190.5 37.4212,-190.5"/>
<text text-anchor="start" x="45.4212" y="-208.5" font-family="Fira Code" font-size="10.00" fill="#000000">examples/udp/multicast</text>
<text text-anchor="middle" x="128.4212" y="-197.5" font-family="Fira Code" font-size="10.00" fill="#000000">_sender_example.cpp</text>
</a>
</g>
</g>
<!-- Node1 -->
<g id="node2" class="node">
<title>Node1</title>
<g id="a_node2"><a xlink:title=" ">
<polygon fill="none" stroke="#bfbfbf" points="36.4212,-.5 36.4212,-19.5 158.4212,-19.5 158.4212,-.5 36.4212,-.5"/>
<text text-anchor="middle" x="97.4212" y="-7.5" font-family="Fira Code" font-size="10.00" fill="#000000">boost/asio.hpp</text>
</a>
</g>
</g>
<!-- Node0&#45;&gt;Node1 -->
<g id="edge1" class="edge">
<title>Node0&#45;&gt;Node1</title>
<path fill="none" stroke="#191970" d="M57.5927,-190.4899C38.4213,-182.8389 19.8362,-171.3207 8.4212,-154 -21.8441,-108.0763 39.7,-52.3429 74.9983,-25.683"/>
<polygon fill="#191970" stroke="#191970" points="77.3505,-28.2979 83.3351,-19.5551 73.2047,-22.6576 77.3505,-28.2979"/>
</g>
<!-- Node2 -->
<g id="node3" class="node">
<title>Node2</title>
<g id="a_node3"><a xlink:title=" ">
<polygon fill="none" stroke="#bfbfbf" points="17.9212,-129 17.9212,-148 94.9212,-148 94.9212,-129 17.9212,-129"/>
<text text-anchor="middle" x="56.4212" y="-136" font-family="Fira Code" font-size="10.00" fill="#000000">iostream</text>
</a>
</g>
</g>
<!-- Node0&#45;&gt;Node2 -->
<g id="edge2" class="edge">
<title>Node0&#45;&gt;Node2</title>
<path fill="none" stroke="#191970" d="M112.0833,-190.2967C100.7564,-179.7564 85.6836,-165.7303 74.0798,-154.9323"/>
<polygon fill="#191970" stroke="#191970" points="76.3943,-152.3051 66.6892,-148.055 71.6256,-157.4296 76.3943,-152.3051"/>
</g>
<!-- Node3 -->
<g id="node4" class="node">
<title>Node3</title>
<g id="a_node4"><a xlink:title=" ">
<polygon fill="none" stroke="#bfbfbf" points="226.4212,-.5 226.4212,-19.5 288.4212,-19.5 288.4212,-.5 226.4212,-.5"/>
<text text-anchor="middle" x="257.4212" y="-7.5" font-family="Fira Code" font-size="10.00" fill="#000000">string</text>
</a>
</g>
</g>
<!-- Node0&#45;&gt;Node3 -->
<g id="edge3" class="edge">
<title>Node0&#45;&gt;Node3</title>
<path fill="none" stroke="#191970" d="M208.3087,-190.4574C246.0486,-181.5637 285.2671,-169.0856 296.4212,-154 322.316,-118.9779 311.4224,-96.8907 296.4212,-56 292.3644,-44.9418 284.3415,-34.7193 276.6218,-26.7335"/>
<polygon fill="#191970" stroke="#191970" points="278.791,-23.9632 269.1613,-19.5451 273.934,-29.0041 278.791,-23.9632"/>
</g>
<!-- Node4 -->
<g id="node5" class="node">
<title>Node4</title>
<g id="a_node5"><a xlink:href="../../df/de3/multicast__sender_8hpp.html" target="_top" xlink:title="Send data using UDP in multicast mode.">
<polygon fill="none" stroke="#000000" points="113.4212,-123.5 113.4212,-153.5 287.4212,-153.5 287.4212,-123.5 113.4212,-123.5"/>
<text text-anchor="start" x="121.4212" y="-141.5" font-family="Fira Code" font-size="10.00" fill="#000000">travesim_adapters/udp</text>
<text text-anchor="middle" x="200.4212" y="-130.5" font-family="Fira Code" font-size="10.00" fill="#000000">/multicast_sender.hpp</text>
</a>
</g>
</g>
<!-- Node0&#45;&gt;Node4 -->
<g id="edge4" class="edge">
<title>Node0&#45;&gt;Node4</title>
<path fill="none" stroke="#191970" d="M144.7591,-190.2967C154.1489,-181.559 166.113,-170.4257 176.541,-160.7218"/>
<polygon fill="#191970" stroke="#191970" points="179.2116,-163.0178 184.1479,-153.6432 174.4429,-157.8933 179.2116,-163.0178"/>
</g>
<!-- Node5 -->
<g id="node6" class="node">
<title>Node5</title>
<g id="a_node6"><a xlink:href="../../db/d61/sender_8hpp.html" target="_top" xlink:title="Send data using UDP.">
<polygon fill="none" stroke="#000000" points="113.4212,-56.5 113.4212,-86.5 287.4212,-86.5 287.4212,-56.5 113.4212,-56.5"/>
<text text-anchor="start" x="121.4212" y="-74.5" font-family="Fira Code" font-size="10.00" fill="#000000">travesim_adapters/udp</text>
<text text-anchor="middle" x="200.4212" y="-63.5" font-family="Fira Code" font-size="10.00" fill="#000000">/sender.hpp</text>
</a>
</g>
</g>
<!-- Node4&#45;&gt;Node5 -->
<g id="edge5" class="edge">
<title>Node4&#45;&gt;Node5</title>
<path fill="none" stroke="#191970" d="M200.4212,-123.2967C200.4212,-115.5013 200.4212,-105.7991 200.4212,-96.9064"/>
<polygon fill="#191970" stroke="#191970" points="203.9213,-96.6431 200.4212,-86.6432 196.9213,-96.6432 203.9213,-96.6431"/>
</g>
<!-- Node5&#45;&gt;Node1 -->
<g id="edge6" class="edge">
<title>Node5&#45;&gt;Node1</title>
<path fill="none" stroke="#191970" d="M175.2246,-56.4554C159.094,-46.8241 138.2574,-34.3828 122.2076,-24.7996"/>
<polygon fill="#191970" stroke="#191970" points="123.7628,-21.6518 113.3826,-19.5303 120.1742,-27.662 123.7628,-21.6518"/>
</g>
<!-- Node5&#45;&gt;Node3 -->
<g id="edge7" class="edge">
<title>Node5&#45;&gt;Node3</title>
<path fill="none" stroke="#191970" d="M214.5111,-56.2977C222.6705,-47.4941 232.9684,-36.3833 241.4307,-27.2529"/>
<polygon fill="#191970" stroke="#191970" points="244.0641,-29.5604 248.2948,-19.8469 238.9301,-24.8021 244.0641,-29.5604"/>
</g>
</g>
</svg>
