<?xml version="1.0" encoding="UTF-8" standalone="no"?>
<!DOCTYPE svg PUBLIC "-//W3C//DTD SVG 1.1//EN"
 "http://www.w3.org/Graphics/SVG/1.1/DTD/svg11.dtd">
<!-- Generated by graphviz version 2.40.1 (0)
 -->
<!-- Title: travesim::proto::VisionSender::field_state_to_env_pb_msg Pages: 1 -->
<svg width="595pt" height="78pt"
 viewBox="0.00 0.00 595.00 77.50" xmlns="http://www.w3.org/2000/svg" xmlns:xlink="http://www.w3.org/1999/xlink">
<g id="graph0" class="graph" transform="scale(1 1) rotate(0) translate(4 73.5)">
<title>travesim::proto::VisionSender::field_state_to_env_pb_msg</title>
<!-- Node3 -->
<g id="node1" class="node">
<title>Node3</title>
<g id="a_node1"><a xlink:title="Convert a FieldState object to a Environment protobuf message object.">
<polygon fill="#bfbfbf" stroke="#000000" points="353,-22.5 353,-52.5 587,-52.5 587,-22.5 353,-22.5"/>
<text text-anchor="start" x="361" y="-40.5" font-family="Fira Code" font-size="10.00" fill="#000000">travesim::proto::VisionSender</text>
<text text-anchor="middle" x="470" y="-29.5" font-family="Fira Code" font-size="10.00" fill="#000000">::field_state_to_env_pb_msg</text>
</a>
</g>
</g>
<!-- Node4 -->
<g id="node2" class="node">
<title>Node4</title>
<g id="a_node2"><a xlink:href="../../de/d50/vision__sender__example_8cpp.html#ae66f6b31b5ad750f1fe042a706a4e3d4" target="_top" xlink:title=" ">
<polygon fill="none" stroke="#000000" points="176.5,-50 176.5,-69 223.5,-69 223.5,-50 176.5,-50"/>
<text text-anchor="middle" x="200" y="-57" font-family="Fira Code" font-size="10.00" fill="#000000">main</text>
</a>
</g>
</g>
<!-- Node3&#45;&gt;Node4 -->
<g id="edge1" class="edge">
<title>Node3&#45;&gt;Node4</title>
<path fill="none" stroke="#191970" d="M342.5083,-47.8882C297.2355,-51.5771 250.8333,-55.358 223.7517,-57.5647"/>
<polygon fill="#191970" stroke="#191970" points="343.0693,-51.3542 352.752,-47.0535 342.5008,-44.3773 343.0693,-51.3542"/>
</g>
<!-- Node5 -->
<g id="node3" class="node">
<title>Node5</title>
<g id="a_node3"><a xlink:href="../../d2/d61/classtravesim_1_1proto_1_1VisionSender.html#a00c7138b541042be8da8dfff0a8e53b9" target="_top" xlink:title="Send vision data with UDP and protobuf.">
<polygon fill="none" stroke="#000000" points="83,-.5 83,-30.5 317,-30.5 317,-.5 83,-.5"/>
<text text-anchor="start" x="91" y="-18.5" font-family="Fira Code" font-size="10.00" fill="#000000">travesim::proto::VisionSender</text>
<text text-anchor="middle" x="200" y="-7.5" font-family="Fira Code" font-size="10.00" fill="#000000">::send</text>
</a>
</g>
</g>
<!-- Node3&#45;&gt;Node5 -->
<g id="edge2" class="edge">
<title>Node3&#45;&gt;Node5</title>
<path fill="none" stroke="#191970" d="M342.75,-27.1315C334.2064,-26.4353 325.6214,-25.7358 317.1322,-25.0441"/>
<polygon fill="#191970" stroke="#191970" points="342.5008,-30.6227 352.752,-27.9465 343.0693,-23.6458 342.5008,-30.6227"/>
</g>
<!-- Node6 -->
<g id="node4" class="node">
<title>Node6</title>
<g id="a_node4"><a xlink:href="../../df/ddf/vision__adapter_8cpp.html#a3c04138a5bfe5d72780bb7e82a18e627" target="_top" xlink:title=" ">
<polygon fill="none" stroke="#000000" points="0,-6 0,-25 47,-25 47,-6 0,-6"/>
<text text-anchor="middle" x="23.5" y="-13" font-family="Fira Code" font-size="10.00" fill="#000000">main</text>
</a>
</g>
</g>
<!-- Node5&#45;&gt;Node6 -->
<g id="edge3" class="edge">
<title>Node5&#45;&gt;Node6</title>
<path fill="none" stroke="#191970" d="M72.6449,-15.5C63.1739,-15.5 54.4561,-15.5 47.0762,-15.5"/>
<polygon fill="#191970" stroke="#191970" points="72.763,-19.0001 82.7629,-15.5 72.7629,-12.0001 72.763,-19.0001"/>
</g>
</g>
</svg>
