<?xml version="1.0" encoding="UTF-8" standalone="no"?>
<!DOCTYPE svg PUBLIC "-//W3C//DTD SVG 1.1//EN"
 "http://www.w3.org/Graphics/SVG/1.1/DTD/svg11.dtd">
<!-- Generated by graphviz version 2.40.1 (0)
 -->
<!-- Title: include/travesim_adapters/udp/sender.hpp Pages: 1 -->
<!--zoomable 240 -->
<svg id="main" version="1.1" xmlns="http://www.w3.org/2000/svg" xmlns:xlink="http://www.w3.org/1999/xlink" xml:space="preserve" onload="init(evt)">
<style type="text/css"><![CDATA[
.edge:hover path { stroke: red; }
.edge:hover polygon { stroke: red; fill: red; }
]]></style>
<script type="text/javascript"><![CDATA[
var edges = document.getElementsByTagName('g');
if (edges && edges.length) {
  for (var i=0;i<edges.length;i++) {
    if (edges[i].id.substr(0,4)=='edge') {
      edges[i].setAttribute('class','edge');
    }
  }
}
]]></script>
        <defs>
                <circle id="rim" cx="0" cy="0" r="7"/>
                <circle id="rim2" cx="0" cy="0" r="3.5"/>
                <g id="zoomPlus">
                        <use xlink:href="#rim" fill="#404040">
                                <set attributeName="fill" to="#808080" begin="zoomplus.mouseover" end="zoomplus.mouseout"/>
                        </use>
                        <path d="M-4,0h8M0,-4v8" fill="none" stroke="white" stroke-width="1.5" pointer-events="none"/>
                </g>
                <g id="zoomMin">
                        <use xlink:href="#rim" fill="#404040">
                                <set attributeName="fill" to="#808080" begin="zoomminus.mouseover" end="zoomminus.mouseout"/>
                        </use>
                        <path d="M-4,0h8" fill="none" stroke="white" stroke-width="1.5" pointer-events="none"/>
                </g>
                <g id="dirArrow">
                        <path fill="none" stroke="white" stroke-width="1.5" d="M0,-3.0v7 M-2.5,-0.5L0,-3.0L2.5,-0.5"/>
                </g>
               <g id="resetDef">
                       <use xlink:href="#rim2" fill="#404040">
                               <set attributeName="fill" to="#808080" begin="reset.mouseover" end="reset.mouseout"/>
                       </use>
               </g>
        </defs>

<script type="text/javascript">
var viewWidth = 1036;
var viewHeight = 240;
var sectionId = 'dynsection-1';
</script>
<script xlink:href="../../svgpan.js"/>
<svg id="graph" class="graph">
<g id="viewport">
<title>include/travesim_adapters/udp/sender.hpp</title>
<!-- Node3 -->
<g id="node1" class="node">
<title>Node3</title>
<g id="a_node1"><a xlink:title="Send data using UDP.">
<polygon fill="#bfbfbf" stroke="#000000" points="623.5,-201.5 623.5,-231.5 827.5,-231.5 827.5,-201.5 623.5,-201.5"/>
<text text-anchor="start" x="631.5" y="-219.5" font-family="Fira Code" font-size="10.00" fill="#000000">include/travesim_adapters</text>
<text text-anchor="middle" x="725.5" y="-208.5" font-family="Fira Code" font-size="10.00" fill="#000000">/udp/sender.hpp</text>
</a>
</g>
</g>
<!-- Node4 -->
<g id="node2" class="node">
<title>Node4</title>
<g id="a_node2"><a xlink:href="../../df/de3/multicast__sender_8hpp.html" target="_top" xlink:title="Send data using UDP in multicast mode.">
<polygon fill="none" stroke="#000000" points="310.5,-134.5 310.5,-164.5 514.5,-164.5 514.5,-134.5 310.5,-134.5"/>
<text text-anchor="start" x="318.5" y="-152.5" font-family="Fira Code" font-size="10.00" fill="#000000">include/travesim_adapters</text>
<text text-anchor="middle" x="412.5" y="-141.5" font-family="Fira Code" font-size="10.00" fill="#000000">/udp/multicast_sender.hpp</text>
</a>
</g>
</g>
<!-- Node3&#45;&gt;Node4 -->
<g id="edge1" class="edge">
<title>Node3&#45;&gt;Node4</title>
<path fill="none" stroke="#191970" d="M645.405,-199.3551C595.1748,-188.6029 531.0293,-174.8721 482.7791,-164.5438"/>
<polygon fill="#191970" stroke="#191970" points="644.7456,-202.7931 655.2567,-201.4639 646.2108,-195.9482 644.7456,-202.7931"/>
</g>
<!-- Node11 -->
<g id="node9" class="node">
<title>Node11</title>
<g id="a_node9"><a xlink:href="../../d1/dca/unicast__sender_8hpp.html" target="_top" xlink:title="Send data using UDP in unicast mode.">
<polygon fill="none" stroke="#000000" points="623.5,-134.5 623.5,-164.5 827.5,-164.5 827.5,-134.5 623.5,-134.5"/>
<text text-anchor="start" x="631.5" y="-152.5" font-family="Fira Code" font-size="10.00" fill="#000000">include/travesim_adapters</text>
<text text-anchor="middle" x="725.5" y="-141.5" font-family="Fira Code" font-size="10.00" fill="#000000">/udp/unicast_sender.hpp</text>
</a>
</g>
</g>
<!-- Node3&#45;&gt;Node11 -->
<g id="edge8" class="edge">
<title>Node3&#45;&gt;Node11</title>
<path fill="none" stroke="#191970" d="M725.5,-191.0249C725.5,-182.128 725.5,-172.4287 725.5,-164.6432"/>
<polygon fill="#191970" stroke="#191970" points="722.0001,-191.2966 725.5,-201.2967 729.0001,-191.2967 722.0001,-191.2966"/>
</g>
<!-- Node14 -->
<g id="node12" class="node">
<title>Node14</title>
<g id="a_node12"><a xlink:href="../../d3/df1/sender_8cpp.html" target="_top" xlink:title="Send data using UDP.">
<polygon fill="none" stroke="#000000" points="845.5,-140 845.5,-159 1027.5,-159 1027.5,-140 845.5,-140"/>
<text text-anchor="middle" x="936.5" y="-147" font-family="Fira Code" font-size="10.00" fill="#000000">src/lib/udp/sender.cpp</text>
</a>
</g>
</g>
<!-- Node3&#45;&gt;Node14 -->
<g id="edge11" class="edge">
<title>Node3&#45;&gt;Node14</title>
<path fill="none" stroke="#191970" d="M782.4876,-198.4044C822.4921,-185.7016 874.3933,-169.2211 906.5654,-159.0053"/>
<polygon fill="#191970" stroke="#191970" points="781.3243,-195.1015 772.8525,-201.4639 783.4428,-201.7732 781.3243,-195.1015"/>
</g>
<!-- Node5 -->
<g id="node3" class="node">
<title>Node5</title>
<g id="a_node3"><a xlink:href="../../d1/d23/multicast__sender__example_8cpp.html" target="_top" xlink:title="Example on how to use the MulticastSender.">
<polygon fill="none" stroke="#000000" points="11.5,-67.5 11.5,-97.5 193.5,-97.5 193.5,-67.5 11.5,-67.5"/>
<text text-anchor="start" x="19.5" y="-85.5" font-family="Fira Code" font-size="10.00" fill="#000000">examples/udp/multicast</text>
<text text-anchor="middle" x="102.5" y="-74.5" font-family="Fira Code" font-size="10.00" fill="#000000">_sender_example.cpp</text>
</a>
</g>
</g>
<!-- Node4&#45;&gt;Node5 -->
<g id="edge2" class="edge">
<title>Node4&#45;&gt;Node5</title>
<path fill="none" stroke="#191970" d="M332.8616,-132.2878C283.1593,-121.5457 219.7937,-107.8506 172.1055,-97.5438"/>
<polygon fill="#191970" stroke="#191970" points="332.4162,-135.7723 342.9299,-134.4639 333.895,-128.9303 332.4162,-135.7723"/>
</g>
<!-- Node6 -->
<g id="node4" class="node">
<title>Node6</title>
<g id="a_node4"><a xlink:href="../../db/da8/vision__sender_8hpp.html" target="_top" xlink:title="Vision data sender with UDP and protobuf.">
<polygon fill="none" stroke="#000000" points="212,-67.5 212,-97.5 431,-97.5 431,-67.5 212,-67.5"/>
<text text-anchor="start" x="220" y="-85.5" font-family="Fira Code" font-size="10.00" fill="#000000">include/travesim_adapters</text>
<text text-anchor="middle" x="321.5" y="-74.5" font-family="Fira Code" font-size="10.00" fill="#000000">/protobuf/vision_sender.hpp</text>
</a>
</g>
</g>
<!-- Node4&#45;&gt;Node6 -->
<g id="edge3" class="edge">
<title>Node4&#45;&gt;Node6</title>
<path fill="none" stroke="#191970" d="M383.7697,-128.3469C370.2292,-118.3776 354.385,-106.7121 342.0676,-97.6432"/>
<polygon fill="#191970" stroke="#191970" points="381.7227,-131.1861 391.8507,-134.2967 385.873,-125.5492 381.7227,-131.1861"/>
</g>
<!-- Node10 -->
<g id="node8" class="node">
<title>Node10</title>
<g id="a_node8"><a xlink:href="../../de/d82/multicast__sender_8cpp.html" target="_top" xlink:title="Send data using UDP in multicast mode.">
<polygon fill="none" stroke="#000000" points="449.5,-67.5 449.5,-97.5 623.5,-97.5 623.5,-67.5 449.5,-67.5"/>
<text text-anchor="start" x="457.5" y="-85.5" font-family="Fira Code" font-size="10.00" fill="#000000">src/lib/udp/multicast</text>
<text text-anchor="middle" x="536.5" y="-74.5" font-family="Fira Code" font-size="10.00" fill="#000000">_sender.cpp</text>
</a>
</g>
</g>
<!-- Node4&#45;&gt;Node10 -->
<g id="edge7" class="edge">
<title>Node4&#45;&gt;Node10</title>
<path fill="none" stroke="#191970" d="M449.2648,-129.6352C468.1667,-119.422 490.8417,-107.1702 508.3358,-97.7177"/>
<polygon fill="#191970" stroke="#191970" points="447.4621,-126.6309 440.328,-134.4639 450.7897,-132.7894 447.4621,-126.6309"/>
</g>
<!-- Node7 -->
<g id="node5" class="node">
<title>Node7</title>
<g id="a_node5"><a xlink:href="../../de/d50/vision__sender__example_8cpp.html" target="_top" xlink:title="Example on how to use the VisionSender with protobuf.">
<polygon fill="none" stroke="#000000" points="0,-.5 0,-30.5 197,-30.5 197,-.5 0,-.5"/>
<text text-anchor="start" x="8" y="-18.5" font-family="Fira Code" font-size="10.00" fill="#000000">examples/protobuf/vision</text>
<text text-anchor="middle" x="98.5" y="-7.5" font-family="Fira Code" font-size="10.00" fill="#000000">_sender_example.cpp</text>
</a>
</g>
</g>
<!-- Node6&#45;&gt;Node7 -->
<g id="edge4" class="edge">
<title>Node6&#45;&gt;Node7</title>
<path fill="none" stroke="#191970" d="M261.7507,-64.5484C226.4529,-53.9432 182.2632,-40.6665 148.7638,-30.6017"/>
<polygon fill="#191970" stroke="#191970" points="260.8702,-67.9384 271.4544,-67.4639 262.8845,-61.2344 260.8702,-67.9384"/>
</g>
<!-- Node8 -->
<g id="node6" class="node">
<title>Node8</title>
<g id="a_node6"><a xlink:href="../../df/ddf/vision__adapter_8cpp.html" target="_top" xlink:title="Vision adapter executable file.">
<polygon fill="none" stroke="#000000" points="215.5,-6 215.5,-25 427.5,-25 427.5,-6 215.5,-6"/>
<text text-anchor="middle" x="321.5" y="-13" font-family="Fira Code" font-size="10.00" fill="#000000">src/bin/vision_adapter.cpp</text>
</a>
</g>
</g>
<!-- Node6&#45;&gt;Node8 -->
<g id="edge5" class="edge">
<title>Node6&#45;&gt;Node8</title>
<path fill="none" stroke="#191970" d="M321.5,-57.1199C321.5,-45.9072 321.5,-33.4031 321.5,-25.055"/>
<polygon fill="#191970" stroke="#191970" points="318.0001,-57.2966 321.5,-67.2967 325.0001,-57.2967 318.0001,-57.2966"/>
</g>
<!-- Node9 -->
<g id="node7" class="node">
<title>Node9</title>
<g id="a_node7"><a xlink:href="../../d0/d19/vision__sender_8cpp.html" target="_top" xlink:title="Vision data sender with UDP and protobuf.">
<polygon fill="none" stroke="#000000" points="446,-.5 446,-30.5 635,-30.5 635,-.5 446,-.5"/>
<text text-anchor="start" x="454" y="-18.5" font-family="Fira Code" font-size="10.00" fill="#000000">src/lib/protobuf/vision</text>
<text text-anchor="middle" x="540.5" y="-7.5" font-family="Fira Code" font-size="10.00" fill="#000000">_sender.cpp</text>
</a>
</g>
</g>
<!-- Node6&#45;&gt;Node9 -->
<g id="edge6" class="edge">
<title>Node6&#45;&gt;Node9</title>
<path fill="none" stroke="#191970" d="M380.6224,-64.4123C415.213,-53.8298 458.3799,-40.6235 491.1378,-30.6017"/>
<polygon fill="#191970" stroke="#191970" points="379.1864,-61.1914 370.6479,-67.4639 381.2343,-67.8852 379.1864,-61.1914"/>
</g>
<!-- Node12 -->
<g id="node10" class="node">
<title>Node12</title>
<g id="a_node10"><a xlink:href="../../de/d05/unicast__sender__example_8cpp.html" target="_top" xlink:title="Example on how to use the UnicastSender.">
<polygon fill="none" stroke="#000000" points="642,-67.5 642,-97.5 809,-97.5 809,-67.5 642,-67.5"/>
<text text-anchor="start" x="650" y="-85.5" font-family="Fira Code" font-size="10.00" fill="#000000">examples/udp/unicast</text>
<text text-anchor="middle" x="725.5" y="-74.5" font-family="Fira Code" font-size="10.00" fill="#000000">_sender_example.cpp</text>
</a>
</g>
</g>
<!-- Node11&#45;&gt;Node12 -->
<g id="edge9" class="edge">
<title>Node11&#45;&gt;Node12</title>
<path fill="none" stroke="#191970" d="M725.5,-124.0249C725.5,-115.128 725.5,-105.4287 725.5,-97.6432"/>
<polygon fill="#191970" stroke="#191970" points="722.0001,-124.2966 725.5,-134.2967 729.0001,-124.2967 722.0001,-124.2966"/>
</g>
<!-- Node13 -->
<g id="node11" class="node">
<title>Node13</title>
<g id="a_node11"><a xlink:href="../../d6/d70/unicast__sender_8cpp.html" target="_top" xlink:title="Send data using UDP in unicast mode.">
<polygon fill="none" stroke="#000000" points="827,-67.5 827,-97.5 986,-97.5 986,-67.5 827,-67.5"/>
<text text-anchor="start" x="835" y="-85.5" font-family="Fira Code" font-size="10.00" fill="#000000">src/lib/udp/unicast</text>
<text text-anchor="middle" x="906.5" y="-74.5" font-family="Fira Code" font-size="10.00" fill="#000000">_sender.cpp</text>
</a>
</g>
</g>
<!-- Node11&#45;&gt;Node13 -->
<g id="edge10" class="edge">
<title>Node11&#45;&gt;Node13</title>
<path fill="none" stroke="#191970" d="M775.8423,-130.865C804.1747,-120.3773 839.0938,-107.4515 865.7029,-97.6017"/>
<polygon fill="#191970" stroke="#191970" points="774.283,-127.71 766.1199,-134.4639 776.7131,-134.2747 774.283,-127.71"/>
</g>
</g>
</svg>
        <g id="navigator" transform="translate(0 0)" fill="#404254">
                <rect fill="#f2f5e9" fill-opacity="0.5" stroke="#606060" stroke-width=".5" x="0" y="0" width="60" height="60"/>
                <use id="zoomplus" xlink:href="#zoomPlus" x="17" y="9" onmousedown="handleZoom(evt,'in')"/>
                <use id="zoomminus" xlink:href="#zoomMin" x="42" y="9" onmousedown="handleZoom(evt,'out')"/>
                <use id="reset" xlink:href="#resetDef" x="30" y="36" onmousedown="handleReset()"/>
                <g id="arrowUp" xlink:href="#dirArrow" transform="translate(30 24)" onmousedown="handlePan(0,-1)">
                  <use xlink:href="#rim" fill="#404040">
                        <set attributeName="fill" to="#808080" begin="arrowUp.mouseover" end="arrowUp.mouseout"/>
                  </use>
                  <path fill="none" stroke="white" stroke-width="1.5" d="M0,-3.0v7 M-2.5,-0.5L0,-3.0L2.5,-0.5"/>
                </g>
                <g id="arrowRight" xlink:href="#dirArrow" transform="rotate(90) translate(36 -43)" onmousedown="handlePan(1,0)">
                  <use xlink:href="#rim" fill="#404040">
                        <set attributeName="fill" to="#808080" begin="arrowRight.mouseover" end="arrowRight.mouseout"/>
                  </use>
                  <path fill="none" stroke="white" stroke-width="1.5" d="M0,-3.0v7 M-2.5,-0.5L0,-3.0L2.5,-0.5"/>
                </g>
                <g id="arrowDown" xlink:href="#dirArrow" transform="rotate(180) translate(-30 -48)" onmousedown="handlePan(0,1)">
                  <use xlink:href="#rim" fill="#404040">
                        <set attributeName="fill" to="#808080" begin="arrowDown.mouseover" end="arrowDown.mouseout"/>
                  </use>
                  <path fill="none" stroke="white" stroke-width="1.5" d="M0,-3.0v7 M-2.5,-0.5L0,-3.0L2.5,-0.5"/>
                </g>
                <g id="arrowLeft" xlink:href="#dirArrow" transform="rotate(270) translate(-36 17)" onmousedown="handlePan(-1,0)">
                  <use xlink:href="#rim" fill="#404040">
                        <set attributeName="fill" to="#808080" begin="arrowLeft.mouseover" end="arrowLeft.mouseout"/>
                  </use>
                  <path fill="none" stroke="white" stroke-width="1.5" d="M0,-3.0v7 M-2.5,-0.5L0,-3.0L2.5,-0.5"/>
                </g>
        </g>
        <svg viewBox="0 0 15 15" width="100%" height="30px" preserveAspectRatio="xMaxYMin meet">
         <g id="arrow_out" transform="scale(0.3 0.3)">
          <a xlink:href="sender_8hpp__dep__incl_org.svg" target="_base">
           <rect id="button" ry="5" rx="5" y="6" x="6" height="38" width="38"
                fill="#f2f5e9" fill-opacity="0.5" stroke="#606060" stroke-width="1.0"/>
           <path id="arrow"
             d="M 11.500037,31.436501 C 11.940474,20.09759 22.043105,11.32322 32.158766,21.979434 L 37.068811,17.246167 C 37.068811,17.246167 37.088388,32 37.088388,32 L 22.160133,31.978069 C 22.160133,31.978069 26.997745,27.140456 26.997745,27.140456 C 18.528582,18.264221 13.291696,25.230495 11.500037,31.436501 z"
             style="fill:#404040;"/>
          </a>
         </g>
        </svg>
</svg>
