<?xml version="1.0" encoding="UTF-8" standalone="no"?>
<!DOCTYPE svg PUBLIC "-//W3C//DTD SVG 1.1//EN"
 "http://www.w3.org/Graphics/SVG/1.1/DTD/svg11.dtd">
<!-- Generated by graphviz version 2.40.1 (0)
 -->
<!-- Title: main Pages: 1 -->
<svg width="820pt" height="431pt"
 viewBox="0.00 0.00 820.00 431.00" xmlns="http://www.w3.org/2000/svg" xmlns:xlink="http://www.w3.org/1999/xlink">
<g id="graph0" class="graph" transform="scale(1 1) rotate(0) translate(4 427)">
<title>main</title>
<!-- Node0 -->
<g id="node1" class="node">
<title>Node0</title>
<g id="a_node1"><a xlink:title=" ">
<polygon fill="#bfbfbf" stroke="#000000" points="0,-202 0,-221 47,-221 47,-202 0,-202"/>
<text text-anchor="middle" x="23.5" y="-209" font-family="Fira Code" font-size="10.00" fill="#000000">main</text>
</a>
</g>
</g>
<!-- Node1 -->
<g id="node2" class="node">
<title>Node1</title>
<g id="a_node2"><a xlink:href="../../d7/daa/classtravesim_1_1proto_1_1TeamReceiver.html#a26b3de09af4cf21b85ecada5d6bffcea" target="_top" xlink:title="Set wheter to enable any source or source specific multicast. True for specific source,...">
<polygon fill="none" stroke="#000000" points="83,-392.5 83,-422.5 317,-422.5 317,-392.5 83,-392.5"/>
<text text-anchor="start" x="91" y="-410.5" font-family="Fira Code" font-size="10.00" fill="#000000">travesim::proto::TeamReceiver</text>
<text text-anchor="middle" x="200" y="-399.5" font-family="Fira Code" font-size="10.00" fill="#000000">::force_specific_source</text>
</a>
</g>
</g>
<!-- Node0&#45;&gt;Node1 -->
<g id="edge1" class="edge">
<title>Node0&#45;&gt;Node1</title>
<path fill="none" stroke="#191970" d="M25.525,-221.1373C32.624,-254.0187 57.3454,-360.9975 83,-383.5 84.3396,-384.675 85.7212,-385.7982 87.1403,-386.8717"/>
<polygon fill="#191970" stroke="#191970" points="85.3757,-389.9008 95.6489,-392.4917 89.2337,-384.0599 85.3757,-389.9008"/>
</g>
<!-- Node2 -->
<g id="node3" class="node">
<title>Node2</title>
<g id="a_node3"><a xlink:href="../../de/d8e/classtravesim_1_1TeamsConfigurer.html#a037f5024d67489ba12a3509f8735b55c" target="_top" xlink:title="Get the configured address of a team.">
<polygon fill="none" stroke="#000000" points="98,-343.5 98,-373.5 302,-373.5 302,-343.5 98,-343.5"/>
<text text-anchor="start" x="106" y="-361.5" font-family="Fira Code" font-size="10.00" fill="#000000">travesim::TeamsConfigurer</text>
<text text-anchor="middle" x="200" y="-350.5" font-family="Fira Code" font-size="10.00" fill="#000000">::get_address</text>
</a>
</g>
</g>
<!-- Node0&#45;&gt;Node2 -->
<g id="edge2" class="edge">
<title>Node0&#45;&gt;Node2</title>
<path fill="none" stroke="#191970" d="M25.2081,-221.3304C29.8505,-244.9126 44.9962,-304.9269 83,-334.5 84.8615,-335.9485 86.7885,-337.3157 88.7716,-338.6059"/>
<polygon fill="#191970" stroke="#191970" points="87.3808,-341.843 97.7965,-343.7833 90.8641,-335.7712 87.3808,-341.843"/>
</g>
<!-- Node6 -->
<g id="node7" class="node">
<title>Node6</title>
<g id="a_node7"><a xlink:href="../../de/d8e/classtravesim_1_1TeamsConfigurer.html#a7e0c2f6304d7e43d30e07f9871392845" target="_top" xlink:title="Get the configured port of a team.">
<polygon fill="none" stroke="#000000" points="98,-294.5 98,-324.5 302,-324.5 302,-294.5 98,-294.5"/>
<text text-anchor="start" x="106" y="-312.5" font-family="Fira Code" font-size="10.00" fill="#000000">travesim::TeamsConfigurer</text>
<text text-anchor="middle" x="200" y="-301.5" font-family="Fira Code" font-size="10.00" fill="#000000">::get_port</text>
</a>
</g>
</g>
<!-- Node0&#45;&gt;Node6 -->
<g id="edge6" class="edge">
<title>Node0&#45;&gt;Node6</title>
<path fill="none" stroke="#191970" d="M28.4026,-221.2298C37.067,-237.3579 56.6863,-269.4409 83,-285.5 85.8319,-287.2283 88.7669,-288.8343 91.781,-290.3266"/>
<polygon fill="#191970" stroke="#191970" points="90.4793,-293.5786 101.0366,-294.4707 93.3399,-287.1897 90.4793,-293.5786"/>
</g>
<!-- Node7 -->
<g id="node8" class="node">
<title>Node7</title>
<g id="a_node8"><a xlink:href="../../dd/d5b/classtravesim_1_1AdapterConfigurer.html#a036c5ec113755fcbb96bfed6943ab174" target="_top" xlink:title="Get the reset config.">
<polygon fill="none" stroke="#000000" points="90.5,-245.5 90.5,-275.5 309.5,-275.5 309.5,-245.5 90.5,-245.5"/>
<text text-anchor="start" x="98.5" y="-263.5" font-family="Fira Code" font-size="10.00" fill="#000000">travesim::AdapterConfigurer</text>
<text text-anchor="middle" x="200" y="-252.5" font-family="Fira Code" font-size="10.00" fill="#000000">::get_reset</text>
</a>
</g>
</g>
<!-- Node0&#45;&gt;Node7 -->
<g id="edge7" class="edge">
<title>Node0&#45;&gt;Node7</title>
<path fill="none" stroke="#191970" d="M44.6595,-221.0748C55.8835,-225.8866 70.0057,-231.5237 83,-235.5 91.9185,-238.2291 101.3079,-240.7699 110.7286,-243.1046"/>
<polygon fill="#191970" stroke="#191970" points="109.9979,-246.5286 120.5389,-245.4622 111.6336,-239.7224 109.9979,-246.5286"/>
</g>
<!-- Node8 -->
<g id="node9" class="node">
<title>Node8</title>
<g id="a_node9"><a xlink:href="../../de/d8e/classtravesim_1_1TeamsConfigurer.html#ace26a78093bb6ec71922bdabf5ac9770" target="_top" xlink:title="Get the specific_source config.">
<polygon fill="none" stroke="#000000" points="98,-196.5 98,-226.5 302,-226.5 302,-196.5 98,-196.5"/>
<text text-anchor="start" x="106" y="-214.5" font-family="Fira Code" font-size="10.00" fill="#000000">travesim::TeamsConfigurer</text>
<text text-anchor="middle" x="200" y="-203.5" font-family="Fira Code" font-size="10.00" fill="#000000">::get_specific_source</text>
</a>
</g>
</g>
<!-- Node0&#45;&gt;Node8 -->
<g id="edge8" class="edge">
<title>Node0&#45;&gt;Node8</title>
<path fill="none" stroke="#191970" d="M47.3036,-211.5C58.4186,-211.5 72.5327,-211.5 87.6703,-211.5"/>
<polygon fill="#191970" stroke="#191970" points="87.7445,-215.0001 97.7445,-211.5 87.7444,-208.0001 87.7445,-215.0001"/>
</g>
<!-- Node9 -->
<g id="node10" class="node">
<title>Node9</title>
<g id="a_node10"><a xlink:href="../../d7/daa/classtravesim_1_1proto_1_1TeamReceiver.html#a0ef34f431d230fc004421d94aacb0ec5" target="_top" xlink:title="Receive the command from a team.">
<polygon fill="none" stroke="#000000" points="83,-147.5 83,-177.5 317,-177.5 317,-147.5 83,-147.5"/>
<text text-anchor="start" x="91" y="-165.5" font-family="Fira Code" font-size="10.00" fill="#000000">travesim::proto::TeamReceiver</text>
<text text-anchor="middle" x="200" y="-154.5" font-family="Fira Code" font-size="10.00" fill="#000000">::receive</text>
</a>
</g>
</g>
<!-- Node0&#45;&gt;Node9 -->
<g id="edge9" class="edge">
<title>Node0&#45;&gt;Node9</title>
<path fill="none" stroke="#191970" d="M43.5133,-201.9352C54.8884,-196.7941 69.5129,-190.6727 83,-186.5 90.6048,-184.1472 98.56,-181.9603 106.5893,-179.9425"/>
<polygon fill="#191970" stroke="#191970" points="107.5069,-183.3215 116.4017,-177.5653 105.8587,-176.5183 107.5069,-183.3215"/>
</g>
<!-- Node11 -->
<g id="node12" class="node">
<title>Node11</title>
<g id="a_node12"><a xlink:href="../../d7/daa/classtravesim_1_1proto_1_1TeamReceiver.html#af22d702092439ef6ee775a3481021012" target="_top" xlink:title="Reset the receiver.">
<polygon fill="none" stroke="#000000" points="83,-98.5 83,-128.5 317,-128.5 317,-98.5 83,-98.5"/>
<text text-anchor="start" x="91" y="-116.5" font-family="Fira Code" font-size="10.00" fill="#000000">travesim::proto::TeamReceiver</text>
<text text-anchor="middle" x="200" y="-105.5" font-family="Fira Code" font-size="10.00" fill="#000000">::reset</text>
</a>
</g>
</g>
<!-- Node0&#45;&gt;Node11 -->
<g id="edge11" class="edge">
<title>Node0&#45;&gt;Node11</title>
<path fill="none" stroke="#191970" d="M28.4026,-201.7702C37.067,-185.6421 56.6863,-153.5591 83,-137.5 85.8319,-135.7717 88.7669,-134.1657 91.781,-132.6734"/>
<polygon fill="#191970" stroke="#191970" points="93.3399,-135.8103 101.0366,-128.5293 90.4793,-129.4214 93.3399,-135.8103"/>
</g>
<!-- Node12 -->
<g id="node13" class="node">
<title>Node12</title>
<g id="a_node13"><a xlink:href="../../d1/daf/classtravesim_1_1ros__side_1_1TeamsSender.html#a7f4cb683f4bb6d40f984ed4ef7d9ce0c" target="_top" xlink:title="Send the stored commands to Gazebo controllers.">
<polygon fill="none" stroke="#000000" points="120.5,-49.5 120.5,-79.5 279.5,-79.5 279.5,-49.5 120.5,-49.5"/>
<text text-anchor="start" x="128.5" y="-67.5" font-family="Fira Code" font-size="10.00" fill="#000000">travesim::ros_side</text>
<text text-anchor="middle" x="200" y="-56.5" font-family="Fira Code" font-size="10.00" fill="#000000">::TeamsSender::send</text>
</a>
</g>
</g>
<!-- Node0&#45;&gt;Node12 -->
<g id="edge12" class="edge">
<title>Node0&#45;&gt;Node12</title>
<path fill="none" stroke="#191970" d="M25.2081,-201.6696C29.8505,-178.0874 44.9962,-118.0731 83,-88.5 91.2468,-82.0826 100.7807,-77.2618 110.7754,-73.6576"/>
<polygon fill="#191970" stroke="#191970" points="112.01,-76.9376 120.4721,-70.5625 109.8814,-70.2691 112.01,-76.9376"/>
</g>
<!-- Node13 -->
<g id="node14" class="node">
<title>Node13</title>
<g id="a_node14"><a xlink:href="../../d7/daa/classtravesim_1_1proto_1_1TeamReceiver.html#a73f8e5ef9dc4257ca34b36bffd4bcbea" target="_top" xlink:title="Set the receiver endpoint.">
<polygon fill="none" stroke="#000000" points="83,-.5 83,-30.5 317,-30.5 317,-.5 83,-.5"/>
<text text-anchor="start" x="91" y="-18.5" font-family="Fira Code" font-size="10.00" fill="#000000">travesim::proto::TeamReceiver</text>
<text text-anchor="middle" x="200" y="-7.5" font-family="Fira Code" font-size="10.00" fill="#000000">::set_receiver_endpoint</text>
</a>
</g>
</g>
<!-- Node0&#45;&gt;Node13 -->
<g id="edge13" class="edge">
<title>Node0&#45;&gt;Node13</title>
<path fill="none" stroke="#191970" d="M25.525,-201.8627C32.624,-168.9813 57.3454,-62.0025 83,-39.5 84.3396,-38.325 85.7212,-37.2018 87.1403,-36.1283"/>
<polygon fill="#191970" stroke="#191970" points="89.2337,-38.9401 95.6489,-30.5083 85.3757,-33.0992 89.2337,-38.9401"/>
</g>
<!-- Node3 -->
<g id="node4" class="node">
<title>Node3</title>
<g id="a_node4"><a xlink:href="../../d1/d4b/namespacetravesim.html#a05f869547c07b49b722c2afb6c1967ef" target="_top" xlink:title="Checks if a IP is valid and is in the specified range.">
<polygon fill="none" stroke="#000000" points="379,-368 379,-387 576,-387 576,-368 379,-368"/>
<text text-anchor="middle" x="477.5" y="-375" font-family="Fira Code" font-size="10.00" fill="#000000">travesim::check_valid_ip</text>
</a>
</g>
</g>
<!-- Node2&#45;&gt;Node3 -->
<g id="edge3" class="edge">
<title>Node2&#45;&gt;Node3</title>
<path fill="none" stroke="#191970" d="M302.1485,-365.494C323.8589,-366.9804 346.857,-368.5551 368.8015,-370.0576"/>
<polygon fill="#191970" stroke="#191970" points="368.5858,-373.5509 378.8016,-370.7423 369.064,-366.5673 368.5858,-373.5509"/>
</g>
<!-- Node5 -->
<g id="node6" class="node">
<title>Node5</title>
<g id="a_node6"><a xlink:href="../../d1/d4b/namespacetravesim.html#a32624f8212a09572f8587ea017f67d30" target="_top" xlink:title="Get the error msg based on the validation type.">
<polygon fill="none" stroke="#000000" points="383,-330 383,-349 572,-349 572,-330 383,-330"/>
<text text-anchor="middle" x="477.5" y="-337" font-family="Fira Code" font-size="10.00" fill="#000000">travesim::get_error_msg</text>
</a>
</g>
</g>
<!-- Node2&#45;&gt;Node5 -->
<g id="edge5" class="edge">
<title>Node2&#45;&gt;Node5</title>
<path fill="none" stroke="#191970" d="M302.1485,-351.506C325.1683,-349.9299 349.6357,-348.2547 372.7599,-346.6714"/>
<polygon fill="#191970" stroke="#191970" points="373.191,-350.1502 382.9286,-345.9752 372.7128,-343.1665 373.191,-350.1502"/>
</g>
<!-- Node4 -->
<g id="node5" class="node">
<title>Node4</title>
<g id="a_node5"><a xlink:href="../../d1/d4b/namespacetravesim.html#ad051590d1f7aa8c749f82ed36c4b2cba" target="_top" xlink:title="Converts a IPv4 in a string to a array of unsigned integers, where the most significant byte of the I...">
<polygon fill="none" stroke="#000000" points="638,-362.5 638,-392.5 812,-392.5 812,-362.5 638,-362.5"/>
<text text-anchor="start" x="646" y="-380.5" font-family="Fira Code" font-size="10.00" fill="#000000">travesim::ipv4_string</text>
<text text-anchor="middle" x="725" y="-369.5" font-family="Fira Code" font-size="10.00" fill="#000000">_to_uint</text>
</a>
</g>
</g>
<!-- Node3&#45;&gt;Node4 -->
<g id="edge4" class="edge">
<title>Node3&#45;&gt;Node4</title>
<path fill="none" stroke="#191970" d="M576.0297,-377.5C592.8866,-377.5 610.3954,-377.5 627.2323,-377.5"/>
<polygon fill="#191970" stroke="#191970" points="627.617,-381.0001 637.617,-377.5 627.6169,-374.0001 627.617,-381.0001"/>
</g>
<!-- Node10 -->
<g id="node11" class="node">
<title>Node10</title>
<g id="a_node11"><a xlink:href="../../d7/daa/classtravesim_1_1proto_1_1TeamReceiver.html#a2b3893a4e168f65c3b2007094fb9e082" target="_top" xlink:title="Update a TeamCommand object from a Packet protobuf message.">
<polygon fill="none" stroke="#000000" points="353,-147.5 353,-177.5 602,-177.5 602,-147.5 353,-147.5"/>
<text text-anchor="start" x="361" y="-165.5" font-family="Fira Code" font-size="10.00" fill="#000000">travesim::proto::TeamReceiver</text>
<text text-anchor="middle" x="477.5" y="-154.5" font-family="Fira Code" font-size="10.00" fill="#000000">::packet_pb_msg_to_team_command</text>
</a>
</g>
</g>
<!-- Node9&#45;&gt;Node10 -->
<g id="edge10" class="edge">
<title>Node9&#45;&gt;Node10</title>
<path fill="none" stroke="#191970" d="M317.2828,-162.5C325.5907,-162.5 334.0038,-162.5 342.3991,-162.5"/>
<polygon fill="#191970" stroke="#191970" points="342.6224,-166.0001 352.6224,-162.5 342.6224,-159.0001 342.6224,-166.0001"/>
</g>
</g>
</svg>
