<?xml version="1.0" encoding="UTF-8" standalone="no"?>
<!DOCTYPE svg PUBLIC "-//W3C//DTD SVG 1.1//EN"
 "http://www.w3.org/Graphics/SVG/1.1/DTD/svg11.dtd">
<!-- Generated by graphviz version 2.40.1 (0)
 -->
<!-- Title: src/lib/data/robot_state.cpp Pages: 1 -->
<svg width="478pt" height="229pt"
 viewBox="0.00 0.00 477.50 229.00" xmlns="http://www.w3.org/2000/svg" xmlns:xlink="http://www.w3.org/1999/xlink">
<g id="graph0" class="graph" transform="scale(1 1) rotate(0) translate(4 225)">
<title>src/lib/data/robot_state.cpp</title>
<!-- Node0 -->
<g id="node1" class="node">
<title>Node0</title>
<g id="a_node1"><a xlink:title="Robot state data structure.">
<polygon fill="#bfbfbf" stroke="#000000" points="102.5,-190.5 102.5,-220.5 254.5,-220.5 254.5,-190.5 102.5,-190.5"/>
<text text-anchor="start" x="110.5" y="-208.5" font-family="Fira Code" font-size="10.00" fill="#000000">src/lib/data/robot</text>
<text text-anchor="middle" x="178.5" y="-197.5" font-family="Fira Code" font-size="10.00" fill="#000000">_state.cpp</text>
</a>
</g>
</g>
<!-- Node1 -->
<g id="node2" class="node">
<title>Node1</title>
<g id="a_node2"><a xlink:title=" ">
<polygon fill="none" stroke="#bfbfbf" points="0,-129 0,-148 69,-148 69,-129 0,-129"/>
<text text-anchor="middle" x="34.5" y="-136" font-family="Fira Code" font-size="10.00" fill="#000000">iomanip</text>
</a>
</g>
</g>
<!-- Node0&#45;&gt;Node1 -->
<g id="edge1" class="edge">
<title>Node0&#45;&gt;Node1</title>
<path fill="none" stroke="#191970" d="M146.1836,-190.4639C121.6957,-179.0702 88.3016,-163.5327 64.4216,-152.4219"/>
<polygon fill="#191970" stroke="#191970" points="65.6844,-149.1492 55.1413,-148.1039 62.7314,-155.4958 65.6844,-149.1492"/>
</g>
<!-- Node2 -->
<g id="node3" class="node">
<title>Node2</title>
<g id="a_node3"><a xlink:href="../../dc/d09/robot__state_8hpp.html" target="_top" xlink:title="Robot state data structure.">
<polygon fill="none" stroke="#000000" points="87.5,-123.5 87.5,-153.5 269.5,-153.5 269.5,-123.5 87.5,-123.5"/>
<text text-anchor="start" x="95.5" y="-141.5" font-family="Fira Code" font-size="10.00" fill="#000000">travesim_adapters/data</text>
<text text-anchor="middle" x="178.5" y="-130.5" font-family="Fira Code" font-size="10.00" fill="#000000">/robot_state.hpp</text>
</a>
</g>
</g>
<!-- Node0&#45;&gt;Node2 -->
<g id="edge2" class="edge">
<title>Node0&#45;&gt;Node2</title>
<path fill="none" stroke="#191970" d="M178.5,-190.2967C178.5,-182.5013 178.5,-172.7991 178.5,-163.9064"/>
<polygon fill="#191970" stroke="#191970" points="182.0001,-163.6431 178.5,-153.6432 175.0001,-163.6432 182.0001,-163.6431"/>
</g>
<!-- Node5 -->
<g id="node6" class="node">
<title>Node5</title>
<g id="a_node6"><a xlink:href="../../d9/d46/data__common_8hpp.html" target="_top" xlink:title="Common constants and types for the data structures.">
<polygon fill="none" stroke="#000000" points="287.5,-123.5 287.5,-153.5 469.5,-153.5 469.5,-123.5 287.5,-123.5"/>
<text text-anchor="start" x="295.5" y="-141.5" font-family="Fira Code" font-size="10.00" fill="#000000">travesim_adapters/data</text>
<text text-anchor="middle" x="378.5" y="-130.5" font-family="Fira Code" font-size="10.00" fill="#000000">/data_common.hpp</text>
</a>
</g>
</g>
<!-- Node0&#45;&gt;Node5 -->
<g id="edge6" class="edge">
<title>Node0&#45;&gt;Node5</title>
<path fill="none" stroke="#191970" d="M223.3839,-190.4639C253.13,-180.499 292.3381,-167.3642 323.8923,-156.7936"/>
<polygon fill="#191970" stroke="#191970" points="325.05,-160.097 333.4203,-153.6017 322.8265,-153.4595 325.05,-160.097"/>
</g>
<!-- Node3 -->
<g id="node4" class="node">
<title>Node3</title>
<g id="a_node4"><a xlink:title=" ">
<polygon fill="none" stroke="#bfbfbf" points="139,-.5 139,-19.5 216,-19.5 216,-.5 139,-.5"/>
<text text-anchor="middle" x="177.5" y="-7.5" font-family="Fira Code" font-size="10.00" fill="#000000">iostream</text>
</a>
</g>
</g>
<!-- Node2&#45;&gt;Node3 -->
<g id="edge3" class="edge">
<title>Node2&#45;&gt;Node3</title>
<path fill="none" stroke="#191970" d="M161.6193,-123.1071C152.5757,-113.6844 142.3257,-100.8094 137.5,-87 132.9549,-73.9935 132.6739,-68.9049 137.5,-56 141.6149,-44.9969 149.6815,-34.8874 157.4994,-26.9652"/>
<polygon fill="#191970" stroke="#191970" points="160.2032,-29.2264 165.0788,-19.82 155.4015,-24.1329 160.2032,-29.2264"/>
</g>
<!-- Node4 -->
<g id="node5" class="node">
<title>Node4</title>
<g id="a_node5"><a xlink:href="../../de/d28/entity__state_8hpp.html" target="_top" xlink:title="Entity state data structure.">
<polygon fill="none" stroke="#000000" points="146.5,-56.5 146.5,-86.5 328.5,-86.5 328.5,-56.5 146.5,-56.5"/>
<text text-anchor="start" x="154.5" y="-74.5" font-family="Fira Code" font-size="10.00" fill="#000000">travesim_adapters/data</text>
<text text-anchor="middle" x="237.5" y="-63.5" font-family="Fira Code" font-size="10.00" fill="#000000">/entity_state.hpp</text>
</a>
</g>
</g>
<!-- Node2&#45;&gt;Node4 -->
<g id="edge4" class="edge">
<title>Node2&#45;&gt;Node4</title>
<path fill="none" stroke="#191970" d="M191.888,-123.2967C199.4315,-114.7303 209.0027,-103.8614 217.4274,-94.2943"/>
<polygon fill="#191970" stroke="#191970" points="220.1829,-96.4612 224.165,-86.6432 214.9294,-91.835 220.1829,-96.4612"/>
</g>
<!-- Node4&#45;&gt;Node3 -->
<g id="edge5" class="edge">
<title>Node4&#45;&gt;Node3</title>
<path fill="none" stroke="#191970" d="M222.6685,-56.2977C214.0796,-47.4941 203.2398,-36.3833 194.3321,-27.2529"/>
<polygon fill="#191970" stroke="#191970" points="196.5953,-24.5606 187.1068,-19.8469 191.5848,-29.4489 196.5953,-24.5606"/>
</g>
</g>
</svg>
