<?xml version="1.0" encoding="UTF-8" standalone="no"?>
<!DOCTYPE svg PUBLIC "-//W3C//DTD SVG 1.1//EN"
 "http://www.w3.org/Graphics/SVG/1.1/DTD/svg11.dtd">
<!-- Generated by graphviz version 2.40.1 (0)
 -->
<!-- Title: travesim::udp::UnicastSender Pages: 1 -->
<svg width="235pt" height="215pt"
 viewBox="0.00 0.00 235.00 215.00" xmlns="http://www.w3.org/2000/svg" xmlns:xlink="http://www.w3.org/1999/xlink">
<g id="graph0" class="graph" transform="scale(1 1) rotate(0) translate(4 211)">
<title>travesim::udp::UnicastSender</title>
<!-- Node2 -->
<g id="node1" class="node">
<title>Node2</title>
<g id="a_node1"><a xlink:title="Sender class using UDP in unicast mode.">
<polygon fill="#bfbfbf" stroke="#000000" points="0,-.5 0,-57.5 227,-57.5 227,-.5 0,-.5"/>
<text text-anchor="middle" x="113.5" y="-45.5" font-family="Fira Code" font-size="10.00" fill="#000000">travesim::udp::UnicastSender</text>
<polyline fill="none" stroke="#000000" points="0,-38.5 227,-38.5 "/>
<text text-anchor="middle" x="113.5" y="-26.5" font-family="Fira Code" font-size="10.00" fill="#000000"> </text>
<polyline fill="none" stroke="#000000" points="0,-19.5 227,-19.5 "/>
<text text-anchor="start" x="8" y="-7.5" font-family="Fira Code" font-size="10.00" fill="#000000">+ UnicastSender()</text>
</a>
</g>
</g>
<!-- Node3 -->
<g id="node2" class="node">
<title>Node3</title>
<g id="a_node2"><a xlink:href="../../d9/ddb/classtravesim_1_1udp_1_1Sender.html" target="_top" xlink:title="Sender class using UDP.">
<polygon fill="none" stroke="#000000" points="11.5,-94.5 11.5,-206.5 215.5,-206.5 215.5,-94.5 11.5,-94.5"/>
<text text-anchor="middle" x="113.5" y="-194.5" font-family="Fira Code" font-size="10.00" fill="#000000">travesim::udp::Sender</text>
<polyline fill="none" stroke="#000000" points="11.5,-187.5 215.5,-187.5 "/>
<text text-anchor="start" x="19.5" y="-175.5" font-family="Fira Code" font-size="10.00" fill="#000000"># socket</text>
<text text-anchor="start" x="19.5" y="-164.5" font-family="Fira Code" font-size="10.00" fill="#000000"># endpoint</text>
<text text-anchor="start" x="19.5" y="-153.5" font-family="Fira Code" font-size="10.00" fill="#000000">&#45; io_context</text>
<polyline fill="none" stroke="#000000" points="11.5,-146.5 215.5,-146.5 "/>
<text text-anchor="start" x="19.5" y="-134.5" font-family="Fira Code" font-size="10.00" fill="#000000">+ Sender()</text>
<text text-anchor="start" x="19.5" y="-123.5" font-family="Fira Code" font-size="10.00" fill="#000000">+ ~Sender()</text>
<text text-anchor="start" x="19.5" y="-112.5" font-family="Fira Code" font-size="10.00" fill="#000000">+ send()</text>
<text text-anchor="start" x="19.5" y="-101.5" font-family="Fira Code" font-size="10.00" fill="#000000">+ set_receiver_endpoint()</text>
</a>
</g>
</g>
<!-- Node3&#45;&gt;Node2 -->
<g id="edge1" class="edge">
<title>Node3&#45;&gt;Node2</title>
<path fill="none" stroke="#191970" d="M113.5,-84.2502C113.5,-74.9452 113.5,-65.8136 113.5,-57.7385"/>
<polygon fill="none" stroke="#191970" points="110.0001,-84.3734 113.5,-94.3735 117.0001,-84.3735 110.0001,-84.3734"/>
</g>
</g>
</svg>
