<?xml version="1.0" encoding="UTF-8" standalone="no"?>
<!DOCTYPE svg PUBLIC "-//W3C//DTD SVG 1.1//EN"
 "http://www.w3.org/Graphics/SVG/1.1/DTD/svg11.dtd">
<!-- Generated by graphviz version 2.40.1 (0)
 -->
<!-- Title: main Pages: 1 -->
<!--zoomable 186 -->
<svg id="main" version="1.1" xmlns="http://www.w3.org/2000/svg" xmlns:xlink="http://www.w3.org/1999/xlink" xml:space="preserve" onload="init(evt)">
<style type="text/css"><![CDATA[
.edge:hover path { stroke: red; }
.edge:hover polygon { stroke: red; fill: red; }
]]></style>
<script type="text/javascript"><![CDATA[
var edges = document.getElementsByTagName('g');
if (edges && edges.length) {
  for (var i=0;i<edges.length;i++) {
    if (edges[i].id.substr(0,4)=='edge') {
      edges[i].setAttribute('class','edge');
    }
  }
}
]]></script>
        <defs>
                <circle id="rim" cx="0" cy="0" r="7"/>
                <circle id="rim2" cx="0" cy="0" r="3.5"/>
                <g id="zoomPlus">
                        <use xlink:href="#rim" fill="#404040">
                                <set attributeName="fill" to="#808080" begin="zoomplus.mouseover" end="zoomplus.mouseout"/>
                        </use>
                        <path d="M-4,0h8M0,-4v8" fill="none" stroke="white" stroke-width="1.5" pointer-events="none"/>
                </g>
                <g id="zoomMin">
                        <use xlink:href="#rim" fill="#404040">
                                <set attributeName="fill" to="#808080" begin="zoomminus.mouseover" end="zoomminus.mouseout"/>
                        </use>
                        <path d="M-4,0h8" fill="none" stroke="white" stroke-width="1.5" pointer-events="none"/>
                </g>
                <g id="dirArrow">
                        <path fill="none" stroke="white" stroke-width="1.5" d="M0,-3.0v7 M-2.5,-0.5L0,-3.0L2.5,-0.5"/>
                </g>
               <g id="resetDef">
                       <use xlink:href="#rim2" fill="#404040">
                               <set attributeName="fill" to="#808080" begin="reset.mouseover" end="reset.mouseout"/>
                       </use>
               </g>
        </defs>

<script type="text/javascript">
var viewWidth = 528;
var viewHeight = 186;
var sectionId = 'dynsection-1';
</script>
<script xlink:href="../../svgpan.js"/>
<svg id="graph" class="graph">
<g id="viewport">
<title>main</title>
<!-- Node0 -->
<g id="node1" class="node">
<title>Node0</title>
<g id="a_node1"><a xlink:title=" ">
<polygon fill="#bfbfbf" stroke="#000000" points="0,-104 0,-123 47,-123 47,-104 0,-104"/>
<text text-anchor="middle" x="23.5" y="-111" font-family="Fira Code" font-size="10.00" fill="#000000">main</text>
</a>
</g>
</g>
<!-- Node1 -->
<g id="node2" class="node">
<title>Node1</title>
<g id="a_node2"><a xlink:href="../../d2/db9/classtravesim_1_1udp_1_1Receiver.html#adc2e4ae64cc3d39424781c9ba4700267" target="_top" xlink:title="Set wheter to enable any source or source specific. True for specific source, false for any source,...">
<polygon fill="none" stroke="#000000" points="83,-147.5 83,-177.5 272,-177.5 272,-147.5 83,-147.5"/>
<text text-anchor="start" x="91" y="-165.5" font-family="Fira Code" font-size="10.00" fill="#000000">travesim::udp::Receiver</text>
<text text-anchor="middle" x="177.5" y="-154.5" font-family="Fira Code" font-size="10.00" fill="#000000">::force_specific_source</text>
</a>
</g>
</g>
<!-- Node0&#45;&gt;Node1 -->
<g id="edge1" class="edge">
<title>Node0&#45;&gt;Node1</title>
<path fill="none" stroke="#191970" d="M44.1362,-123.0657C55.4543,-128.0834 69.8258,-134.0868 83,-138.5 89.4164,-140.6494 96.1333,-142.7128 102.9004,-144.6646"/>
<polygon fill="#191970" stroke="#191970" points="102.2483,-148.1165 112.8216,-147.4414 104.135,-141.3756 102.2483,-148.1165"/>
</g>
<!-- Node2 -->
<g id="node3" class="node">
<title>Node2</title>
<g id="a_node3"><a xlink:href="../../d2/db9/classtravesim_1_1udp_1_1Receiver.html#a1f3f4304856a1b7ce6e754fbc7ca1042" target="_top" xlink:title="Receive data using UDP.">
<polygon fill="none" stroke="#000000" points="83,-98.5 83,-128.5 272,-128.5 272,-98.5 83,-98.5"/>
<text text-anchor="start" x="91" y="-116.5" font-family="Fira Code" font-size="10.00" fill="#000000">travesim::udp::Receiver</text>
<text text-anchor="middle" x="177.5" y="-105.5" font-family="Fira Code" font-size="10.00" fill="#000000">::receive</text>
</a>
</g>
</g>
<!-- Node0&#45;&gt;Node2 -->
<g id="edge2" class="edge">
<title>Node0&#45;&gt;Node2</title>
<path fill="none" stroke="#191970" d="M47.225,-113.5C54.5983,-113.5 63.2499,-113.5 72.5286,-113.5"/>
<polygon fill="#191970" stroke="#191970" points="72.8124,-117.0001 82.8124,-113.5 72.8124,-110.0001 72.8124,-117.0001"/>
</g>
<!-- Node4 -->
<g id="node5" class="node">
<title>Node4</title>
<g id="a_node5"><a xlink:href="../../d2/db9/classtravesim_1_1udp_1_1Receiver.html#af527c0a1a7c9b711972ac02a10d762a8" target="_top" xlink:title="Reset the receiver.">
<polygon fill="none" stroke="#000000" points="83,-49.5 83,-79.5 272,-79.5 272,-49.5 83,-49.5"/>
<text text-anchor="start" x="91" y="-67.5" font-family="Fira Code" font-size="10.00" fill="#000000">travesim::udp::Receiver</text>
<text text-anchor="middle" x="177.5" y="-56.5" font-family="Fira Code" font-size="10.00" fill="#000000">::reset</text>
</a>
</g>
</g>
<!-- Node0&#45;&gt;Node4 -->
<g id="edge4" class="edge">
<title>Node0&#45;&gt;Node4</title>
<path fill="none" stroke="#191970" d="M45.2966,-103.9473C56.4501,-99.2545 70.3165,-93.7174 83,-89.5 90.5562,-86.9875 98.5171,-84.5561 106.4806,-82.2606"/>
<polygon fill="#191970" stroke="#191970" points="107.4922,-85.6119 116.1686,-79.5315 105.5942,-78.8741 107.4922,-85.6119"/>
</g>
<!-- Node3 -->
<g id="node4" class="node">
<title>Node3</title>
<g id="a_node4"><a xlink:href="../../d2/db9/classtravesim_1_1udp_1_1Receiver.html#a32838d397abca3db4ebb73dffea971b7" target="_top" xlink:title="Validate whether the current sender endpoint matches the first sender endpoint when using specific so...">
<polygon fill="none" stroke="#000000" points="308,-98.5 308,-128.5 520,-128.5 520,-98.5 308,-98.5"/>
<text text-anchor="start" x="316" y="-116.5" font-family="Fira Code" font-size="10.00" fill="#000000">travesim::udp::Receiver</text>
<text text-anchor="middle" x="414" y="-105.5" font-family="Fira Code" font-size="10.00" fill="#000000">::validate_sender_endpoint</text>
</a>
</g>
</g>
<!-- Node2&#45;&gt;Node3 -->
<g id="edge3" class="edge">
<title>Node2&#45;&gt;Node3</title>
<path fill="none" stroke="#191970" d="M272.3309,-113.5C280.7361,-113.5 289.3058,-113.5 297.8607,-113.5"/>
<polygon fill="#191970" stroke="#191970" points="297.886,-117.0001 307.886,-113.5 297.886,-110.0001 297.886,-117.0001"/>
</g>
<!-- Node5 -->
<g id="node6" class="node">
<title>Node5</title>
<g id="a_node6"><a xlink:href="../../d2/db9/classtravesim_1_1udp_1_1Receiver.html#a15c10e73545ef7c20a1e70f72c8c9b4e" target="_top" xlink:title="Close the socket.">
<polygon fill="none" stroke="#000000" points="319.5,-49.5 319.5,-79.5 508.5,-79.5 508.5,-49.5 319.5,-49.5"/>
<text text-anchor="start" x="327.5" y="-67.5" font-family="Fira Code" font-size="10.00" fill="#000000">travesim::udp::Receiver</text>
<text text-anchor="middle" x="414" y="-56.5" font-family="Fira Code" font-size="10.00" fill="#000000">::close_socket</text>
</a>
</g>
</g>
<!-- Node4&#45;&gt;Node5 -->
<g id="edge5" class="edge">
<title>Node4&#45;&gt;Node5</title>
<path fill="none" stroke="#191970" d="M272.3309,-64.5C284.3785,-64.5 296.764,-64.5 308.9597,-64.5"/>
<polygon fill="#191970" stroke="#191970" points="309.1479,-68.0001 319.1478,-64.5 309.1478,-61.0001 309.1479,-68.0001"/>
</g>
<!-- Node6 -->
<g id="node7" class="node">
<title>Node6</title>
<g id="a_node7"><a xlink:href="../../d2/db9/classtravesim_1_1udp_1_1Receiver.html#a357feeaa2341049285fd36bedd74f73f" target="_top" xlink:title="Open the socket with the desired options.">
<polygon fill="none" stroke="#000000" points="319.5,-.5 319.5,-30.5 508.5,-30.5 508.5,-.5 319.5,-.5"/>
<text text-anchor="start" x="327.5" y="-18.5" font-family="Fira Code" font-size="10.00" fill="#000000">travesim::udp::Receiver</text>
<text text-anchor="middle" x="414" y="-7.5" font-family="Fira Code" font-size="10.00" fill="#000000">::open_socket</text>
</a>
</g>
</g>
<!-- Node4&#45;&gt;Node6 -->
<g id="edge6" class="edge">
<title>Node4&#45;&gt;Node6</title>
<path fill="none" stroke="#191970" d="M250.065,-49.4654C275.8307,-44.127 305.0158,-38.0802 331.5466,-32.5834"/>
<polygon fill="#191970" stroke="#191970" points="332.4902,-35.9623 341.5722,-30.5062 331.07,-29.1078 332.4902,-35.9623"/>
</g>
</g>
</svg>
        <g id="navigator" transform="translate(0 0)" fill="#404254">
                <rect fill="#f2f5e9" fill-opacity="0.5" stroke="#606060" stroke-width=".5" x="0" y="0" width="60" height="60"/>
                <use id="zoomplus" xlink:href="#zoomPlus" x="17" y="9" onmousedown="handleZoom(evt,'in')"/>
                <use id="zoomminus" xlink:href="#zoomMin" x="42" y="9" onmousedown="handleZoom(evt,'out')"/>
                <use id="reset" xlink:href="#resetDef" x="30" y="36" onmousedown="handleReset()"/>
                <g id="arrowUp" xlink:href="#dirArrow" transform="translate(30 24)" onmousedown="handlePan(0,-1)">
                  <use xlink:href="#rim" fill="#404040">
                        <set attributeName="fill" to="#808080" begin="arrowUp.mouseover" end="arrowUp.mouseout"/>
                  </use>
                  <path fill="none" stroke="white" stroke-width="1.5" d="M0,-3.0v7 M-2.5,-0.5L0,-3.0L2.5,-0.5"/>
                </g>
                <g id="arrowRight" xlink:href="#dirArrow" transform="rotate(90) translate(36 -43)" onmousedown="handlePan(1,0)">
                  <use xlink:href="#rim" fill="#404040">
                        <set attributeName="fill" to="#808080" begin="arrowRight.mouseover" end="arrowRight.mouseout"/>
                  </use>
                  <path fill="none" stroke="white" stroke-width="1.5" d="M0,-3.0v7 M-2.5,-0.5L0,-3.0L2.5,-0.5"/>
                </g>
                <g id="arrowDown" xlink:href="#dirArrow" transform="rotate(180) translate(-30 -48)" onmousedown="handlePan(0,1)">
                  <use xlink:href="#rim" fill="#404040">
                        <set attributeName="fill" to="#808080" begin="arrowDown.mouseover" end="arrowDown.mouseout"/>
                  </use>
                  <path fill="none" stroke="white" stroke-width="1.5" d="M0,-3.0v7 M-2.5,-0.5L0,-3.0L2.5,-0.5"/>
                </g>
                <g id="arrowLeft" xlink:href="#dirArrow" transform="rotate(270) translate(-36 17)" onmousedown="handlePan(-1,0)">
                  <use xlink:href="#rim" fill="#404040">
                        <set attributeName="fill" to="#808080" begin="arrowLeft.mouseover" end="arrowLeft.mouseout"/>
                  </use>
                  <path fill="none" stroke="white" stroke-width="1.5" d="M0,-3.0v7 M-2.5,-0.5L0,-3.0L2.5,-0.5"/>
                </g>
        </g>
        <svg viewBox="0 0 15 15" width="100%" height="30px" preserveAspectRatio="xMaxYMin meet">
         <g id="arrow_out" transform="scale(0.3 0.3)">
          <a xlink:href="multicast__receiver__reset__example_8cpp_a0ddf1224851353fc92bfbff6f499fa97_cgraph_org.svg" target="_base">
           <rect id="button" ry="5" rx="5" y="6" x="6" height="38" width="38"
                fill="#f2f5e9" fill-opacity="0.5" stroke="#606060" stroke-width="1.0"/>
           <path id="arrow"
             d="M 11.500037,31.436501 C 11.940474,20.09759 22.043105,11.32322 32.158766,21.979434 L 37.068811,17.246167 C 37.068811,17.246167 37.088388,32 37.088388,32 L 22.160133,31.978069 C 22.160133,31.978069 26.997745,27.140456 26.997745,27.140456 C 18.528582,18.264221 13.291696,25.230495 11.500037,31.436501 z"
             style="fill:#404040;"/>
          </a>
         </g>
        </svg>
</svg>
