<?xml version="1.0" encoding="UTF-8" standalone="no"?>
<!DOCTYPE svg PUBLIC "-//W3C//DTD SVG 1.1//EN"
 "http://www.w3.org/Graphics/SVG/1.1/DTD/svg11.dtd">
<!-- Generated by graphviz version 2.40.1 (0)
 -->
<!-- Title: src/lib/ros/replacer_sender.cpp Pages: 1 -->
<svg width="710pt" height="162pt"
 viewBox="0.00 0.00 709.50 162.00" xmlns="http://www.w3.org/2000/svg" xmlns:xlink="http://www.w3.org/1999/xlink">
<g id="graph0" class="graph" transform="scale(1 1) rotate(0) translate(4 158)">
<title>src/lib/ros/replacer_sender.cpp</title>
<!-- Node0 -->
<g id="node1" class="node">
<title>Node0</title>
<g id="a_node1"><a xlink:title="ROS replacer sender for gazebo.">
<polygon fill="#bfbfbf" stroke="#000000" points="189.5,-123.5 189.5,-153.5 356.5,-153.5 356.5,-123.5 189.5,-123.5"/>
<text text-anchor="start" x="197.5" y="-141.5" font-family="Fira Code" font-size="10.00" fill="#000000">src/lib/ros/replacer</text>
<text text-anchor="middle" x="273" y="-130.5" font-family="Fira Code" font-size="10.00" fill="#000000">_sender.cpp</text>
</a>
</g>
</g>
<!-- Node1 -->
<g id="node2" class="node">
<title>Node1</title>
<g id="a_node2"><a xlink:title=" ">
<polygon fill="none" stroke="#bfbfbf" points="0,-62 0,-81 114,-81 114,-62 0,-62"/>
<text text-anchor="middle" x="57" y="-69" font-family="Fira Code" font-size="10.00" fill="#000000">ros/console.h</text>
</a>
</g>
</g>
<!-- Node0&#45;&gt;Node1 -->
<g id="edge1" class="edge">
<title>Node0&#45;&gt;Node1</title>
<path fill="none" stroke="#191970" d="M224.5254,-123.4639C186.2106,-111.5792 133.3601,-95.1858 97.3332,-84.0108"/>
<polygon fill="#191970" stroke="#191970" points="98.2319,-80.6251 87.6439,-81.0053 96.1581,-87.3108 98.2319,-80.6251"/>
</g>
<!-- Node2 -->
<g id="node3" class="node">
<title>Node2</title>
<g id="a_node3"><a xlink:title=" ">
<polygon fill="none" stroke="#bfbfbf" points="132.5,-62 132.5,-81 269.5,-81 269.5,-62 132.5,-62"/>
<text text-anchor="middle" x="201" y="-69" font-family="Fira Code" font-size="10.00" fill="#000000">std_srvs/Empty.h</text>
</a>
</g>
</g>
<!-- Node0&#45;&gt;Node2 -->
<g id="edge2" class="edge">
<title>Node0&#45;&gt;Node2</title>
<path fill="none" stroke="#191970" d="M256.6621,-123.2967C245.3352,-112.7564 230.2624,-98.7303 218.6586,-87.9323"/>
<polygon fill="#191970" stroke="#191970" points="220.9731,-85.3051 211.268,-81.055 216.2044,-90.4296 220.9731,-85.3051"/>
</g>
<!-- Node3 -->
<g id="node4" class="node">
<title>Node3</title>
<g id="a_node4"><a xlink:title=" ">
<polygon fill="none" stroke="#bfbfbf" points="288,-62 288,-81 402,-81 402,-62 288,-62"/>
<text text-anchor="middle" x="345" y="-69" font-family="Fira Code" font-size="10.00" fill="#000000">unordered_map</text>
</a>
</g>
</g>
<!-- Node0&#45;&gt;Node3 -->
<g id="edge3" class="edge">
<title>Node0&#45;&gt;Node3</title>
<path fill="none" stroke="#191970" d="M289.3379,-123.2967C300.6648,-112.7564 315.7376,-98.7303 327.3414,-87.9323"/>
<polygon fill="#191970" stroke="#191970" points="329.7956,-90.4296 334.732,-81.055 325.0269,-85.3051 329.7956,-90.4296"/>
</g>
<!-- Node4 -->
<g id="node5" class="node">
<title>Node4</title>
<g id="a_node5"><a xlink:href="../../d9/d9f/replacer__sender_8hpp.html" target="_top" xlink:title=" ">
<polygon fill="none" stroke="#000000" points="420,-56.5 420,-86.5 594,-86.5 594,-56.5 420,-56.5"/>
<text text-anchor="start" x="428" y="-74.5" font-family="Fira Code" font-size="10.00" fill="#000000">travesim_adapters/ros</text>
<text text-anchor="middle" x="507" y="-63.5" font-family="Fira Code" font-size="10.00" fill="#000000">/replacer_sender.hpp</text>
</a>
</g>
</g>
<!-- Node0&#45;&gt;Node4 -->
<g id="edge4" class="edge">
<title>Node0&#45;&gt;Node4</title>
<path fill="none" stroke="#191970" d="M325.5142,-123.4639C360.7671,-113.3701 407.3788,-100.024 444.5367,-89.3848"/>
<polygon fill="#191970" stroke="#191970" points="445.6065,-92.7192 454.2568,-86.6017 443.6797,-85.9896 445.6065,-92.7192"/>
</g>
<!-- Node5 -->
<g id="node6" class="node">
<title>Node5</title>
<g id="a_node6"><a xlink:title=" ">
<polygon fill="none" stroke="#bfbfbf" points="380,-.5 380,-19.5 464,-19.5 464,-.5 380,-.5"/>
<text text-anchor="middle" x="422" y="-7.5" font-family="Fira Code" font-size="10.00" fill="#000000">ros/ros.h</text>
</a>
</g>
</g>
<!-- Node4&#45;&gt;Node5 -->
<g id="edge5" class="edge">
<title>Node4&#45;&gt;Node5</title>
<path fill="none" stroke="#191970" d="M485.9888,-56.2977C473.2066,-47.0495 456.9054,-35.2551 443.9552,-25.8853"/>
<polygon fill="#191970" stroke="#191970" points="445.763,-22.8732 435.6096,-19.8469 441.6597,-28.5445 445.763,-22.8732"/>
</g>
<!-- Node6 -->
<g id="node7" class="node">
<title>Node6</title>
<g id="a_node7"><a xlink:title=" ">
<polygon fill="none" stroke="#bfbfbf" points="482.5,-.5 482.5,-19.5 701.5,-19.5 701.5,-.5 482.5,-.5"/>
<text text-anchor="middle" x="592" y="-7.5" font-family="Fira Code" font-size="10.00" fill="#000000">gazebo_msgs/SetModelState.h</text>
</a>
</g>
</g>
<!-- Node4&#45;&gt;Node6 -->
<g id="edge6" class="edge">
<title>Node4&#45;&gt;Node6</title>
<path fill="none" stroke="#191970" d="M528.0112,-56.2977C540.7934,-47.0495 557.0946,-35.2551 570.0448,-25.8853"/>
<polygon fill="#191970" stroke="#191970" points="572.3403,-28.5445 578.3904,-19.8469 568.237,-22.8732 572.3403,-28.5445"/>
</g>
</g>
</svg>
