<?xml version="1.0" encoding="UTF-8" standalone="no"?>
<!DOCTYPE svg PUBLIC "-//W3C//DTD SVG 1.1//EN"
 "http://www.w3.org/Graphics/SVG/1.1/DTD/svg11.dtd">
<!-- Generated by graphviz version 2.40.1 (0)
 -->
<!-- Title: include/travesim_adapters/configurers/configurers_utils.hpp Pages: 1 -->
<svg width="212pt" height="106pt"
 viewBox="0.00 0.00 212.00 106.00" xmlns="http://www.w3.org/2000/svg" xmlns:xlink="http://www.w3.org/1999/xlink">
<g id="graph0" class="graph" transform="scale(1 1) rotate(0) translate(4 102)">
<title>include/travesim_adapters/configurers/configurers_utils.hpp</title>
<!-- Node0 -->
<g id="node1" class="node">
<title>Node0</title>
<g id="a_node1"><a xlink:title="Configurers utilitary funtions.">
<polygon fill="#bfbfbf" stroke="#000000" points="0,-56.5 0,-97.5 204,-97.5 204,-56.5 0,-56.5"/>
<text text-anchor="start" x="8" y="-85.5" font-family="Fira Code" font-size="10.00" fill="#000000">include/travesim_adapters</text>
<text text-anchor="start" x="8" y="-74.5" font-family="Fira Code" font-size="10.00" fill="#000000">/configurers/configurers</text>
<text text-anchor="middle" x="102" y="-63.5" font-family="Fira Code" font-size="10.00" fill="#000000">_utils.hpp</text>
</a>
</g>
</g>
<!-- Node1 -->
<g id="node2" class="node">
<title>Node1</title>
<g id="a_node2"><a xlink:title=" ">
<polygon fill="none" stroke="#bfbfbf" points="29,-.5 29,-19.5 91,-19.5 91,-.5 29,-.5"/>
<text text-anchor="middle" x="60" y="-7.5" font-family="Fira Code" font-size="10.00" fill="#000000">string</text>
</a>
</g>
</g>
<!-- Node0&#45;&gt;Node1 -->
<g id="edge1" class="edge">
<title>Node0&#45;&gt;Node1</title>
<path fill="none" stroke="#191970" d="M88.9412,-56.168C83.353,-47.2536 76.885,-36.9356 71.4827,-28.3177"/>
<polygon fill="#191970" stroke="#191970" points="74.4079,-26.3944 66.131,-19.7805 68.4769,-30.1123 74.4079,-26.3944"/>
</g>
<!-- Node2 -->
<g id="node3" class="node">
<title>Node2</title>
<g id="a_node3"><a xlink:title=" ">
<polygon fill="none" stroke="#bfbfbf" points="109.5,-.5 109.5,-19.5 178.5,-19.5 178.5,-.5 109.5,-.5"/>
<text text-anchor="middle" x="144" y="-7.5" font-family="Fira Code" font-size="10.00" fill="#000000">sstream</text>
</a>
</g>
</g>
<!-- Node0&#45;&gt;Node2 -->
<g id="edge2" class="edge">
<title>Node0&#45;&gt;Node2</title>
<path fill="none" stroke="#191970" d="M115.0588,-56.168C120.647,-47.2536 127.115,-36.9356 132.5173,-28.3177"/>
<polygon fill="#191970" stroke="#191970" points="135.5231,-30.1123 137.869,-19.7805 129.5921,-26.3944 135.5231,-30.1123"/>
</g>
</g>
</svg>
