<?xml version="1.0" encoding="UTF-8" standalone="no"?>
<!DOCTYPE svg PUBLIC "-//W3C//DTD SVG 1.1//EN"
 "http://www.w3.org/Graphics/SVG/1.1/DTD/svg11.dtd">
<!-- Generated by graphviz version 2.40.1 (0)
 -->
<!-- Title: examples/protobuf/replacer_receiver_example.cpp Pages: 1 -->
<svg width="710pt" height="296pt"
 viewBox="0.00 0.00 709.73 296.00" xmlns="http://www.w3.org/2000/svg" xmlns:xlink="http://www.w3.org/1999/xlink">
<g id="graph0" class="graph" transform="scale(1 1) rotate(0) translate(4 292)">
<title>examples/protobuf/replacer_receiver_example.cpp</title>
<!-- Node0 -->
<g id="node1" class="node">
<title>Node0</title>
<g id="a_node1"><a xlink:title="Example to read data published from VSSReplacer.">
<polygon fill="#bfbfbf" stroke="#000000" points="66,-257.5 66,-287.5 278,-287.5 278,-257.5 66,-257.5"/>
<text text-anchor="start" x="74" y="-275.5" font-family="Fira Code" font-size="10.00" fill="#000000">examples/protobuf/replacer</text>
<text text-anchor="middle" x="172" y="-264.5" font-family="Fira Code" font-size="10.00" fill="#000000">_receiver_example.cpp</text>
</a>
</g>
</g>
<!-- Node1 -->
<g id="node2" class="node">
<title>Node1</title>
<g id="a_node2"><a xlink:title=" ">
<polygon fill="none" stroke="#bfbfbf" points="0,-129 0,-148 54,-148 54,-129 0,-129"/>
<text text-anchor="middle" x="27" y="-136" font-family="Fira Code" font-size="10.00" fill="#000000">queue</text>
</a>
</g>
</g>
<!-- Node0&#45;&gt;Node1 -->
<g id="edge1" class="edge">
<title>Node0&#45;&gt;Node1</title>
<path fill="none" stroke="#191970" d="M152.5473,-257.4492C139.8712,-247.4363 123.1238,-233.8154 109,-221 85.3516,-199.5424 59.6324,-173.1168 43.4229,-156.047"/>
<polygon fill="#191970" stroke="#191970" points="45.6903,-153.3501 36.2802,-148.4816 40.6003,-158.1557 45.6903,-153.3501"/>
</g>
<!-- Node2 -->
<g id="node3" class="node">
<title>Node2</title>
<g id="a_node3"><a xlink:title=" ">
<polygon fill="none" stroke="#bfbfbf" points="72,-129 72,-148 134,-148 134,-129 72,-129"/>
<text text-anchor="middle" x="103" y="-136" font-family="Fira Code" font-size="10.00" fill="#000000">memory</text>
</a>
</g>
</g>
<!-- Node0&#45;&gt;Node2 -->
<g id="edge2" class="edge">
<title>Node0&#45;&gt;Node2</title>
<path fill="none" stroke="#191970" d="M154.0959,-257.4886C143.873,-248.0085 131.614,-234.9459 124,-221 113.1938,-201.2073 107.809,-175.7017 105.2219,-158.3239"/>
<polygon fill="#191970" stroke="#191970" points="108.6675,-157.6797 103.8969,-148.2197 101.7269,-158.5899 108.6675,-157.6797"/>
</g>
<!-- Node3 -->
<g id="node4" class="node">
<title>Node3</title>
<g id="a_node4"><a xlink:title=" ">
<polygon fill="none" stroke="#bfbfbf" points="592.5,-.5 592.5,-19.5 669.5,-19.5 669.5,-.5 592.5,-.5"/>
<text text-anchor="middle" x="631" y="-7.5" font-family="Fira Code" font-size="10.00" fill="#000000">iostream</text>
</a>
</g>
</g>
<!-- Node0&#45;&gt;Node3 -->
<g id="edge3" class="edge">
<title>Node0&#45;&gt;Node3</title>
<path fill="none" stroke="#191970" d="M278.1,-263.5864C414.6418,-249.6621 640.3646,-217.4997 691,-154 722.6403,-114.3212 675.8152,-55.5782 648.4404,-26.9384"/>
<polygon fill="#191970" stroke="#191970" points="650.8254,-24.372 641.3165,-19.6997 645.8362,-29.2821 650.8254,-24.372"/>
</g>
<!-- Node4 -->
<g id="node5" class="node">
<title>Node4</title>
<g id="a_node5"><a xlink:href="../../d4/d4c/replacer__receiver_8hpp.html" target="_top" xlink:title="Replacer receiver with UDP and protobuf.">
<polygon fill="none" stroke="#000000" points="133,-190.5 133,-220.5 345,-220.5 345,-190.5 133,-190.5"/>
<text text-anchor="start" x="141" y="-208.5" font-family="Fira Code" font-size="10.00" fill="#000000">travesim_adapters/protobuf</text>
<text text-anchor="middle" x="239" y="-197.5" font-family="Fira Code" font-size="10.00" fill="#000000">/replacer_receiver.hpp</text>
</a>
</g>
</g>
<!-- Node0&#45;&gt;Node4 -->
<g id="edge4" class="edge">
<title>Node0&#45;&gt;Node4</title>
<path fill="none" stroke="#191970" d="M187.2033,-257.2967C195.941,-248.559 207.0743,-237.4257 216.7782,-227.7218"/>
<polygon fill="#191970" stroke="#191970" points="219.2606,-230.1892 223.8568,-220.6432 214.3108,-225.2394 219.2606,-230.1892"/>
</g>
<!-- Node4&#45;&gt;Node1 -->
<g id="edge5" class="edge">
<title>Node4&#45;&gt;Node1</title>
<path fill="none" stroke="#191970" d="M180.962,-190.434C146.3734,-180.9822 101.7907,-167.9673 63,-154 61.1753,-153.343 59.3108,-152.6402 57.4378,-151.9099"/>
<polygon fill="#191970" stroke="#191970" points="58.7296,-148.6569 48.1487,-148.1144 56.0819,-155.1368 58.7296,-148.6569"/>
</g>
<!-- Node4&#45;&gt;Node2 -->
<g id="edge6" class="edge">
<title>Node4&#45;&gt;Node2</title>
<path fill="none" stroke="#191970" d="M208.4789,-190.4639C185.4543,-179.1209 154.0928,-163.6707 131.5606,-152.5703"/>
<polygon fill="#191970" stroke="#191970" points="133.0118,-149.3836 122.4945,-148.1039 129.9183,-155.6629 133.0118,-149.3836"/>
</g>
<!-- Node5 -->
<g id="node6" class="node">
<title>Node5</title>
<g id="a_node6"><a xlink:href="../../de/d4a/unicast__receiver_8hpp.html" target="_top" xlink:title="Receiver data using UDP in unicast mode.">
<polygon fill="none" stroke="#000000" points="152,-123.5 152,-153.5 326,-153.5 326,-123.5 152,-123.5"/>
<text text-anchor="start" x="160" y="-141.5" font-family="Fira Code" font-size="10.00" fill="#000000">travesim_adapters/udp</text>
<text text-anchor="middle" x="239" y="-130.5" font-family="Fira Code" font-size="10.00" fill="#000000">/unicast_receiver.hpp</text>
</a>
</g>
</g>
<!-- Node4&#45;&gt;Node5 -->
<g id="edge7" class="edge">
<title>Node4&#45;&gt;Node5</title>
<path fill="none" stroke="#191970" d="M239,-190.2967C239,-182.5013 239,-172.7991 239,-163.9064"/>
<polygon fill="#191970" stroke="#191970" points="242.5001,-163.6431 239,-153.6432 235.5001,-163.6432 242.5001,-163.6431"/>
</g>
<!-- Node9 -->
<g id="node10" class="node">
<title>Node9</title>
<g id="a_node10"><a xlink:href="../../de/d28/entity__state_8hpp.html" target="_top" xlink:title="Entity state data structure.">
<polygon fill="none" stroke="#000000" points="421,-56.5 421,-86.5 603,-86.5 603,-56.5 421,-56.5"/>
<text text-anchor="start" x="429" y="-74.5" font-family="Fira Code" font-size="10.00" fill="#000000">travesim_adapters/data</text>
<text text-anchor="middle" x="512" y="-63.5" font-family="Fira Code" font-size="10.00" fill="#000000">/entity_state.hpp</text>
</a>
</g>
</g>
<!-- Node4&#45;&gt;Node9 -->
<g id="edge11" class="edge">
<title>Node4&#45;&gt;Node9</title>
<path fill="none" stroke="#191970" d="M270.5709,-190.4903C289.7341,-180.9139 314.3893,-167.7506 335,-154 353.1312,-141.9037 354.0803,-133.8216 373,-123 396.764,-109.4076 424.78,-98.2188 449.4108,-89.7832"/>
<polygon fill="#191970" stroke="#191970" points="450.6481,-93.06 459.0227,-86.5702 448.4289,-86.4211 450.6481,-93.06"/>
</g>
<!-- Node10 -->
<g id="node11" class="node">
<title>Node10</title>
<g id="a_node11"><a xlink:href="../../dc/d09/robot__state_8hpp.html" target="_top" xlink:title="Robot state data structure.">
<polygon fill="none" stroke="#000000" points="500,-123.5 500,-153.5 682,-153.5 682,-123.5 500,-123.5"/>
<text text-anchor="start" x="508" y="-141.5" font-family="Fira Code" font-size="10.00" fill="#000000">travesim_adapters/data</text>
<text text-anchor="middle" x="591" y="-130.5" font-family="Fira Code" font-size="10.00" fill="#000000">/robot_state.hpp</text>
</a>
</g>
</g>
<!-- Node4&#45;&gt;Node10 -->
<g id="edge13" class="edge">
<title>Node4&#45;&gt;Node10</title>
<path fill="none" stroke="#191970" d="M317.9957,-190.4639C372.5881,-180.0727 445.289,-166.2348 501.9407,-155.4516"/>
<polygon fill="#191970" stroke="#191970" points="502.7949,-158.852 511.9641,-153.5438 501.486,-151.9754 502.7949,-158.852"/>
</g>
<!-- Node11 -->
<g id="node12" class="node">
<title>Node11</title>
<g id="a_node12"><a xlink:title=" ">
<polygon fill="none" stroke="#bfbfbf" points="382.5,-129 382.5,-148 481.5,-148 481.5,-129 382.5,-129"/>
<text text-anchor="middle" x="432" y="-136" font-family="Fira Code" font-size="10.00" fill="#000000">packet.pb.h</text>
</a>
</g>
</g>
<!-- Node4&#45;&gt;Node11 -->
<g id="edge16" class="edge">
<title>Node4&#45;&gt;Node11</title>
<path fill="none" stroke="#191970" d="M282.313,-190.4639C316.2553,-178.6808 362.9645,-162.4657 395.1329,-151.2984"/>
<polygon fill="#191970" stroke="#191970" points="396.32,-154.5913 404.6191,-148.0053 394.0243,-147.9784 396.32,-154.5913"/>
</g>
<!-- Node6 -->
<g id="node7" class="node">
<title>Node6</title>
<g id="a_node7"><a xlink:href="../../df/d3c/receiver_8hpp.html" target="_top" xlink:title="Receiver data using UDP.">
<polygon fill="none" stroke="#000000" points="152,-56.5 152,-86.5 326,-86.5 326,-56.5 152,-56.5"/>
<text text-anchor="start" x="160" y="-74.5" font-family="Fira Code" font-size="10.00" fill="#000000">travesim_adapters/udp</text>
<text text-anchor="middle" x="239" y="-63.5" font-family="Fira Code" font-size="10.00" fill="#000000">/receiver.hpp</text>
</a>
</g>
</g>
<!-- Node5&#45;&gt;Node6 -->
<g id="edge8" class="edge">
<title>Node5&#45;&gt;Node6</title>
<path fill="none" stroke="#191970" d="M239,-123.2967C239,-115.5013 239,-105.7991 239,-96.9064"/>
<polygon fill="#191970" stroke="#191970" points="242.5001,-96.6431 239,-86.6432 235.5001,-96.6432 242.5001,-96.6431"/>
</g>
<!-- Node7 -->
<g id="node8" class="node">
<title>Node7</title>
<g id="a_node8"><a xlink:title=" ">
<polygon fill="none" stroke="#bfbfbf" points="233,-.5 233,-19.5 355,-19.5 355,-.5 233,-.5"/>
<text text-anchor="middle" x="294" y="-7.5" font-family="Fira Code" font-size="10.00" fill="#000000">boost/asio.hpp</text>
</a>
</g>
</g>
<!-- Node6&#45;&gt;Node7 -->
<g id="edge9" class="edge">
<title>Node6&#45;&gt;Node7</title>
<path fill="none" stroke="#191970" d="M252.5955,-56.2977C260.3891,-47.5831 270.2047,-36.6075 278.3226,-27.5302"/>
<polygon fill="#191970" stroke="#191970" points="281.1365,-29.6341 285.1938,-19.8469 275.9187,-24.9678 281.1365,-29.6341"/>
</g>
<!-- Node8 -->
<g id="node9" class="node">
<title>Node8</title>
<g id="a_node9"><a xlink:title=" ">
<polygon fill="none" stroke="#bfbfbf" points="153,-.5 153,-19.5 215,-19.5 215,-.5 153,-.5"/>
<text text-anchor="middle" x="184" y="-7.5" font-family="Fira Code" font-size="10.00" fill="#000000">string</text>
</a>
</g>
</g>
<!-- Node6&#45;&gt;Node8 -->
<g id="edge10" class="edge">
<title>Node6&#45;&gt;Node8</title>
<path fill="none" stroke="#191970" d="M225.4045,-56.2977C217.6109,-47.5831 207.7953,-36.6075 199.6774,-27.5302"/>
<polygon fill="#191970" stroke="#191970" points="202.0813,-24.9678 192.8062,-19.8469 196.8635,-29.6341 202.0813,-24.9678"/>
</g>
<!-- Node9&#45;&gt;Node3 -->
<g id="edge12" class="edge">
<title>Node9&#45;&gt;Node3</title>
<path fill="none" stroke="#191970" d="M541.1107,-56.4554C560.1824,-46.599 584.9482,-33.7999 603.6539,-24.1327"/>
<polygon fill="#191970" stroke="#191970" points="605.2824,-27.2309 612.5592,-19.5303 602.0685,-21.0122 605.2824,-27.2309"/>
</g>
<!-- Node10&#45;&gt;Node3 -->
<g id="edge14" class="edge">
<title>Node10&#45;&gt;Node3</title>
<path fill="none" stroke="#191970" d="M597.8388,-123.3924C602.2643,-113.2417 607.9371,-99.4875 612,-87 618.2389,-67.8243 623.5578,-45.3883 626.9674,-29.6981"/>
<polygon fill="#191970" stroke="#191970" points="630.4563,-30.1161 629.0986,-19.6086 623.6074,-28.6693 630.4563,-30.1161"/>
</g>
<!-- Node10&#45;&gt;Node9 -->
<g id="edge15" class="edge">
<title>Node10&#45;&gt;Node9</title>
<path fill="none" stroke="#191970" d="M573.0737,-123.2967C562.569,-114.3876 549.1279,-102.9882 537.5308,-93.1527"/>
<polygon fill="#191970" stroke="#191970" points="539.7458,-90.442 529.8554,-86.6432 535.2181,-95.7806 539.7458,-90.442"/>
</g>
</g>
</svg>
