<?xml version="1.0" encoding="UTF-8" standalone="no"?>
<!DOCTYPE svg PUBLIC "-//W3C//DTD SVG 1.1//EN"
 "http://www.w3.org/Graphics/SVG/1.1/DTD/svg11.dtd">
<!-- Generated by graphviz version 2.40.1 (0)
 -->
<!-- Title: main Pages: 1 -->
<svg width="610pt" height="39pt"
 viewBox="0.00 0.00 610.00 39.00" xmlns="http://www.w3.org/2000/svg" xmlns:xlink="http://www.w3.org/1999/xlink">
<g id="graph0" class="graph" transform="scale(1 1) rotate(0) translate(4 35)">
<title>main</title>
<!-- Node0 -->
<g id="node1" class="node">
<title>Node0</title>
<g id="a_node1"><a xlink:title=" ">
<polygon fill="#bfbfbf" stroke="#000000" points="0,-6 0,-25 47,-25 47,-6 0,-6"/>
<text text-anchor="middle" x="23.5" y="-13" font-family="Fira Code" font-size="10.00" fill="#000000">main</text>
</a>
</g>
</g>
<!-- Node1 -->
<g id="node2" class="node">
<title>Node1</title>
<g id="a_node2"><a xlink:href="../../d7/daa/classtravesim_1_1proto_1_1TeamReceiver.html#a0ef34f431d230fc004421d94aacb0ec5" target="_top" xlink:title="Receive the command from a team.">
<polygon fill="none" stroke="#000000" points="83,-.5 83,-30.5 317,-30.5 317,-.5 83,-.5"/>
<text text-anchor="start" x="91" y="-18.5" font-family="Fira Code" font-size="10.00" fill="#000000">travesim::proto::TeamReceiver</text>
<text text-anchor="middle" x="200" y="-7.5" font-family="Fira Code" font-size="10.00" fill="#000000">::receive</text>
</a>
</g>
</g>
<!-- Node0&#45;&gt;Node1 -->
<g id="edge1" class="edge">
<title>Node0&#45;&gt;Node1</title>
<path fill="none" stroke="#191970" d="M47.3036,-15.5C54.6364,-15.5 63.2745,-15.5 72.6507,-15.5"/>
<polygon fill="#191970" stroke="#191970" points="72.6651,-19.0001 82.6651,-15.5 72.665,-12.0001 72.6651,-19.0001"/>
</g>
<!-- Node2 -->
<g id="node3" class="node">
<title>Node2</title>
<g id="a_node3"><a xlink:href="../../d7/daa/classtravesim_1_1proto_1_1TeamReceiver.html#a2b3893a4e168f65c3b2007094fb9e082" target="_top" xlink:title="Update a TeamCommand object from a Packet protobuf message.">
<polygon fill="none" stroke="#000000" points="353,-.5 353,-30.5 602,-30.5 602,-.5 353,-.5"/>
<text text-anchor="start" x="361" y="-18.5" font-family="Fira Code" font-size="10.00" fill="#000000">travesim::proto::TeamReceiver</text>
<text text-anchor="middle" x="477.5" y="-7.5" font-family="Fira Code" font-size="10.00" fill="#000000">::packet_pb_msg_to_team_command</text>
</a>
</g>
</g>
<!-- Node1&#45;&gt;Node2 -->
<g id="edge2" class="edge">
<title>Node1&#45;&gt;Node2</title>
<path fill="none" stroke="#191970" d="M317.2828,-15.5C325.5907,-15.5 334.0038,-15.5 342.3991,-15.5"/>
<polygon fill="#191970" stroke="#191970" points="342.6224,-19.0001 352.6224,-15.5 342.6224,-12.0001 342.6224,-19.0001"/>
</g>
</g>
</svg>
