<?xml version="1.0" encoding="UTF-8" standalone="no"?>
<!DOCTYPE svg PUBLIC "-//W3C//DTD SVG 1.1//EN"
 "http://www.w3.org/Graphics/SVG/1.1/DTD/svg11.dtd">
<!-- Generated by graphviz version 2.40.1 (0)
 -->
<!-- Title: src/lib/udp/receiver.cpp Pages: 1 -->
<svg width="284pt" height="151pt"
 viewBox="0.00 0.00 284.00 151.00" xmlns="http://www.w3.org/2000/svg" xmlns:xlink="http://www.w3.org/1999/xlink">
<g id="graph0" class="graph" transform="scale(1 1) rotate(0) translate(4 147)">
<title>src/lib/udp/receiver.cpp</title>
<!-- Node0 -->
<g id="node1" class="node">
<title>Node0</title>
<g id="a_node1"><a xlink:title="Receiver data using UDP.">
<polygon fill="#bfbfbf" stroke="#000000" points="16.5,-123.5 16.5,-142.5 213.5,-142.5 213.5,-123.5 16.5,-123.5"/>
<text text-anchor="middle" x="115" y="-130.5" font-family="Fira Code" font-size="10.00" fill="#000000">src/lib/udp/receiver.cpp</text>
</a>
</g>
</g>
<!-- Node1 -->
<g id="node2" class="node">
<title>Node1</title>
<g id="a_node2"><a xlink:title=" ">
<polygon fill="none" stroke="#bfbfbf" points="0,-62 0,-81 84,-81 84,-62 0,-62"/>
<text text-anchor="middle" x="42" y="-69" font-family="Fira Code" font-size="10.00" fill="#000000">exception</text>
</a>
</g>
</g>
<!-- Node0&#45;&gt;Node1 -->
<g id="edge1" class="edge">
<title>Node0&#45;&gt;Node1</title>
<path fill="none" stroke="#191970" d="M103.5938,-123.3906C92.3031,-113.8786 74.8033,-99.1357 61.3381,-87.7917"/>
<polygon fill="#191970" stroke="#191970" points="63.4699,-85.0111 53.5671,-81.2449 58.9598,-90.3646 63.4699,-85.0111"/>
</g>
<!-- Node2 -->
<g id="node3" class="node">
<title>Node2</title>
<g id="a_node3"><a xlink:href="../../df/d3c/receiver_8hpp.html" target="_top" xlink:title="Receiver data using UDP.">
<polygon fill="none" stroke="#000000" points="102,-56.5 102,-86.5 276,-86.5 276,-56.5 102,-56.5"/>
<text text-anchor="start" x="110" y="-74.5" font-family="Fira Code" font-size="10.00" fill="#000000">travesim_adapters/udp</text>
<text text-anchor="middle" x="189" y="-63.5" font-family="Fira Code" font-size="10.00" fill="#000000">/receiver.hpp</text>
</a>
</g>
</g>
<!-- Node0&#45;&gt;Node2 -->
<g id="edge2" class="edge">
<title>Node0&#45;&gt;Node2</title>
<path fill="none" stroke="#191970" d="M126.5625,-123.3906C136.2993,-115.2986 150.5913,-103.4207 163.0453,-93.0705"/>
<polygon fill="#191970" stroke="#191970" points="165.4439,-95.628 170.8976,-86.5446 160.9697,-90.2445 165.4439,-95.628"/>
</g>
<!-- Node3 -->
<g id="node4" class="node">
<title>Node3</title>
<g id="a_node4"><a xlink:title=" ">
<polygon fill="none" stroke="#bfbfbf" points="73,-.5 73,-19.5 195,-19.5 195,-.5 73,-.5"/>
<text text-anchor="middle" x="134" y="-7.5" font-family="Fira Code" font-size="10.00" fill="#000000">boost/asio.hpp</text>
</a>
</g>
</g>
<!-- Node2&#45;&gt;Node3 -->
<g id="edge3" class="edge">
<title>Node2&#45;&gt;Node3</title>
<path fill="none" stroke="#191970" d="M175.4045,-56.2977C167.6109,-47.5831 157.7953,-36.6075 149.6774,-27.5302"/>
<polygon fill="#191970" stroke="#191970" points="152.0813,-24.9678 142.8062,-19.8469 146.8635,-29.6341 152.0813,-24.9678"/>
</g>
<!-- Node4 -->
<g id="node5" class="node">
<title>Node4</title>
<g id="a_node5"><a xlink:title=" ">
<polygon fill="none" stroke="#bfbfbf" points="213,-.5 213,-19.5 275,-19.5 275,-.5 213,-.5"/>
<text text-anchor="middle" x="244" y="-7.5" font-family="Fira Code" font-size="10.00" fill="#000000">string</text>
</a>
</g>
</g>
<!-- Node2&#45;&gt;Node4 -->
<g id="edge4" class="edge">
<title>Node2&#45;&gt;Node4</title>
<path fill="none" stroke="#191970" d="M202.5955,-56.2977C210.3891,-47.5831 220.2047,-36.6075 228.3226,-27.5302"/>
<polygon fill="#191970" stroke="#191970" points="231.1365,-29.6341 235.1938,-19.8469 225.9187,-24.9678 231.1365,-29.6341"/>
</g>
</g>
</svg>
