<?xml version="1.0" encoding="UTF-8" standalone="no"?>
<!DOCTYPE svg PUBLIC "-//W3C//DTD SVG 1.1//EN"
 "http://www.w3.org/Graphics/SVG/1.1/DTD/svg11.dtd">
<!-- Generated by graphviz version 2.40.1 (0)
 -->
<!-- Title: include/travesim_adapters/configurers/adapter_configurer.hpp Pages: 1 -->
<!--zoomable 184 -->
<svg id="main" version="1.1" xmlns="http://www.w3.org/2000/svg" xmlns:xlink="http://www.w3.org/1999/xlink" xml:space="preserve" onload="init(evt)">
<style type="text/css"><![CDATA[
.edge:hover path { stroke: red; }
.edge:hover polygon { stroke: red; fill: red; }
]]></style>
<script type="text/javascript"><![CDATA[
var edges = document.getElementsByTagName('g');
if (edges && edges.length) {
  for (var i=0;i<edges.length;i++) {
    if (edges[i].id.substr(0,4)=='edge') {
      edges[i].setAttribute('class','edge');
    }
  }
}
]]></script>
        <defs>
                <circle id="rim" cx="0" cy="0" r="7"/>
                <circle id="rim2" cx="0" cy="0" r="3.5"/>
                <g id="zoomPlus">
                        <use xlink:href="#rim" fill="#404040">
                                <set attributeName="fill" to="#808080" begin="zoomplus.mouseover" end="zoomplus.mouseout"/>
                        </use>
                        <path d="M-4,0h8M0,-4v8" fill="none" stroke="white" stroke-width="1.5" pointer-events="none"/>
                </g>
                <g id="zoomMin">
                        <use xlink:href="#rim" fill="#404040">
                                <set attributeName="fill" to="#808080" begin="zoomminus.mouseover" end="zoomminus.mouseout"/>
                        </use>
                        <path d="M-4,0h8" fill="none" stroke="white" stroke-width="1.5" pointer-events="none"/>
                </g>
                <g id="dirArrow">
                        <path fill="none" stroke="white" stroke-width="1.5" d="M0,-3.0v7 M-2.5,-0.5L0,-3.0L2.5,-0.5"/>
                </g>
               <g id="resetDef">
                       <use xlink:href="#rim2" fill="#404040">
                               <set attributeName="fill" to="#808080" begin="reset.mouseover" end="reset.mouseout"/>
                       </use>
               </g>
        </defs>

<script type="text/javascript">
var viewWidth = 1992;
var viewHeight = 184;
var sectionId = 'dynsection-1';
</script>
<script xlink:href="../../svgpan.js"/>
<svg id="graph" class="graph">
<g id="viewport">
<title>include/travesim_adapters/configurers/adapter_configurer.hpp</title>
<!-- Node5 -->
<g id="node1" class="node">
<title>Node5</title>
<g id="a_node1"><a xlink:title="Template configurer for an adapter.">
<polygon fill="#bfbfbf" stroke="#000000" points="860,-145.5 860,-175.5 1139,-175.5 1139,-145.5 860,-145.5"/>
<text text-anchor="start" x="868" y="-163.5" font-family="Fira Code" font-size="10.00" fill="#000000">include/travesim_adapters</text>
<text text-anchor="middle" x="999.5" y="-152.5" font-family="Fira Code" font-size="10.00" fill="#000000">/configurers/adapter_configurer.hpp</text>
</a>
</g>
</g>
<!-- Node6 -->
<g id="node2" class="node">
<title>Node6</title>
<g id="a_node2"><a xlink:href="../../d0/d46/replacer__configurer_8hpp.html" target="_top" xlink:title="Configurer for the Replacer.">
<polygon fill="none" stroke="#000000" points="270,-78.5 270,-108.5 557,-108.5 557,-78.5 270,-78.5"/>
<text text-anchor="start" x="278" y="-96.5" font-family="Fira Code" font-size="10.00" fill="#000000">include/travesim_adapters</text>
<text text-anchor="middle" x="413.5" y="-85.5" font-family="Fira Code" font-size="10.00" fill="#000000">/configurers/replacer_configurer.hpp</text>
</a>
</g>
</g>
<!-- Node5&#45;&gt;Node6 -->
<g id="edge1" class="edge">
<title>Node5&#45;&gt;Node6</title>
<path fill="none" stroke="#191970" d="M857.9866,-144.3201C762.6934,-133.4248 637.911,-119.1579 544.8238,-108.5148"/>
<polygon fill="#191970" stroke="#191970" points="857.6573,-147.8052 867.9902,-145.4639 858.4525,-140.8505 857.6573,-147.8052"/>
</g>
<!-- Node10 -->
<g id="node6" class="node">
<title>Node10</title>
<g id="a_node6"><a xlink:href="../../d0/d61/teams__configurer_8hpp.html" target="_top" xlink:title="Configurer for the teams.">
<polygon fill="none" stroke="#000000" points="867.5,-78.5 867.5,-108.5 1131.5,-108.5 1131.5,-78.5 867.5,-78.5"/>
<text text-anchor="start" x="875.5" y="-96.5" font-family="Fira Code" font-size="10.00" fill="#000000">include/travesim_adapters</text>
<text text-anchor="middle" x="999.5" y="-85.5" font-family="Fira Code" font-size="10.00" fill="#000000">/configurers/teams_configurer.hpp</text>
</a>
</g>
</g>
<!-- Node5&#45;&gt;Node10 -->
<g id="edge5" class="edge">
<title>Node5&#45;&gt;Node10</title>
<path fill="none" stroke="#191970" d="M999.5,-135.0249C999.5,-126.128 999.5,-116.4287 999.5,-108.6432"/>
<polygon fill="#191970" stroke="#191970" points="996.0001,-135.2966 999.5,-145.2967 1003.0001,-135.2967 996.0001,-135.2966"/>
</g>
<!-- Node14 -->
<g id="node10" class="node">
<title>Node14</title>
<g id="a_node10"><a xlink:href="../../d0/d78/vision__configurer_8hpp.html" target="_top" xlink:title="Configurer for the vision.">
<polygon fill="none" stroke="#000000" points="1418.5,-78.5 1418.5,-108.5 1690.5,-108.5 1690.5,-78.5 1418.5,-78.5"/>
<text text-anchor="start" x="1426.5" y="-96.5" font-family="Fira Code" font-size="10.00" fill="#000000">include/travesim_adapters</text>
<text text-anchor="middle" x="1554.5" y="-85.5" font-family="Fira Code" font-size="10.00" fill="#000000">/configurers/vision_configurer.hpp</text>
</a>
</g>
</g>
<!-- Node5&#45;&gt;Node14 -->
<g id="edge9" class="edge">
<title>Node5&#45;&gt;Node14</title>
<path fill="none" stroke="#191970" d="M1134.0662,-144.2551C1224.1676,-133.378 1341.922,-119.1626 1429.8837,-108.5438"/>
<polygon fill="#191970" stroke="#191970" points="1133.5612,-140.7905 1124.0528,-145.4639 1134.4003,-147.7401 1133.5612,-140.7905"/>
</g>
<!-- Node7 -->
<g id="node3" class="node">
<title>Node7</title>
<g id="a_node3"><a xlink:href="../../dd/d3a/replacer__configurer__example_8cpp.html" target="_top" xlink:title="Example on how to use the ReplacerConfigurer.">
<polygon fill="none" stroke="#000000" points="0,-.5 0,-41.5 167,-41.5 167,-.5 0,-.5"/>
<text text-anchor="start" x="8" y="-29.5" font-family="Fira Code" font-size="10.00" fill="#000000">examples/configurers</text>
<text text-anchor="start" x="8" y="-18.5" font-family="Fira Code" font-size="10.00" fill="#000000">/replacer_configurer</text>
<text text-anchor="middle" x="83.5" y="-7.5" font-family="Fira Code" font-size="10.00" fill="#000000">_example.cpp</text>
</a>
</g>
</g>
<!-- Node6&#45;&gt;Node7 -->
<g id="edge2" class="edge">
<title>Node6&#45;&gt;Node7</title>
<path fill="none" stroke="#191970" d="M333.2141,-76.3636C287.051,-66.4513 227.9803,-53.6672 175.5,-42 172.7813,-41.3956 170.0179,-40.7788 167.2278,-40.154"/>
<polygon fill="#191970" stroke="#191970" points="332.6478,-79.8217 343.1596,-78.4976 334.1165,-72.9775 332.6478,-79.8217"/>
</g>
<!-- Node8 -->
<g id="node4" class="node">
<title>Node8</title>
<g id="a_node4"><a xlink:href="../../da/d85/replacer__adapter_8cpp.html" target="_top" xlink:title="Replacer adapter execution file.">
<polygon fill="none" stroke="#000000" points="185,-11.5 185,-30.5 412,-30.5 412,-11.5 185,-11.5"/>
<text text-anchor="middle" x="298.5" y="-18.5" font-family="Fira Code" font-size="10.00" fill="#000000">src/bin/replacer_adapter.cpp</text>
</a>
</g>
</g>
<!-- Node6&#45;&gt;Node8 -->
<g id="edge3" class="edge">
<title>Node6&#45;&gt;Node8</title>
<path fill="none" stroke="#191970" d="M380.9688,-72.9912C358.9716,-59.1234 330.9238,-41.4411 313.8584,-30.6825"/>
<polygon fill="#191970" stroke="#191970" points="379.3461,-76.1056 389.6719,-78.478 383.0792,-70.1842 379.3461,-76.1056"/>
</g>
<!-- Node9 -->
<g id="node5" class="node">
<title>Node9</title>
<g id="a_node5"><a xlink:href="../../d2/d15/replacer__configurer_8cpp.html" target="_top" xlink:title="Configurer for the Replacer.">
<polygon fill="none" stroke="#000000" points="430,-6 430,-36 627,-36 627,-6 430,-6"/>
<text text-anchor="start" x="438" y="-24" font-family="Fira Code" font-size="10.00" fill="#000000">src/lib/configurers</text>
<text text-anchor="middle" x="528.5" y="-13" font-family="Fira Code" font-size="10.00" fill="#000000">/replacer_configurer.cpp</text>
</a>
</g>
</g>
<!-- Node6&#45;&gt;Node9 -->
<g id="edge4" class="edge">
<title>Node6&#45;&gt;Node9</title>
<path fill="none" stroke="#191970" d="M445.8397,-73.1119C464.5434,-61.3205 487.6713,-46.7398 504.7025,-36.0028"/>
<polygon fill="#191970" stroke="#191970" points="443.9208,-70.1842 437.3281,-78.478 447.6539,-76.1056 443.9208,-70.1842"/>
</g>
<!-- Node11 -->
<g id="node7" class="node">
<title>Node11</title>
<g id="a_node7"><a xlink:href="../../de/d50/teams__configurer__example_8cpp.html" target="_top" xlink:title="Example on how to use the TeamsConfigurer.">
<polygon fill="none" stroke="#000000" points="645.5,-6 645.5,-36 879.5,-36 879.5,-6 645.5,-6"/>
<text text-anchor="start" x="653.5" y="-24" font-family="Fira Code" font-size="10.00" fill="#000000">examples/configurers</text>
<text text-anchor="middle" x="762.5" y="-13" font-family="Fira Code" font-size="10.00" fill="#000000">/teams_configurer_example.cpp</text>
</a>
</g>
</g>
<!-- Node10&#45;&gt;Node11 -->
<g id="edge6" class="edge">
<title>Node10&#45;&gt;Node11</title>
<path fill="none" stroke="#191970" d="M940.8203,-75.5495C901.0538,-63.3846 849.1043,-47.4929 811.5436,-36.0028"/>
<polygon fill="#191970" stroke="#191970" points="939.807,-78.8995 950.3934,-78.478 941.8547,-72.2057 939.807,-78.8995"/>
</g>
<!-- Node12 -->
<g id="node8" class="node">
<title>Node12</title>
<g id="a_node8"><a xlink:href="../../dd/dcd/teams__adapter_8cpp.html" target="_top" xlink:title="Teams commands adapter execution file.">
<polygon fill="none" stroke="#000000" points="897.5,-11.5 897.5,-30.5 1101.5,-30.5 1101.5,-11.5 897.5,-11.5"/>
<text text-anchor="middle" x="999.5" y="-18.5" font-family="Fira Code" font-size="10.00" fill="#000000">src/bin/teams_adapter.cpp</text>
</a>
</g>
</g>
<!-- Node10&#45;&gt;Node12 -->
<g id="edge7" class="edge">
<title>Node10&#45;&gt;Node12</title>
<path fill="none" stroke="#191970" d="M999.5,-68.305C999.5,-55.424 999.5,-40.4836 999.5,-30.8957"/>
<polygon fill="#191970" stroke="#191970" points="996.0001,-68.4779 999.5,-78.478 1003.0001,-68.478 996.0001,-68.4779"/>
</g>
<!-- Node13 -->
<g id="node9" class="node">
<title>Node13</title>
<g id="a_node9"><a xlink:href="../../db/da2/teams__configurer_8cpp.html" target="_top" xlink:title="Configurer for the teams.">
<polygon fill="none" stroke="#000000" points="1119.5,-6 1119.5,-36 1293.5,-36 1293.5,-6 1119.5,-6"/>
<text text-anchor="start" x="1127.5" y="-24" font-family="Fira Code" font-size="10.00" fill="#000000">src/lib/configurers</text>
<text text-anchor="middle" x="1206.5" y="-13" font-family="Fira Code" font-size="10.00" fill="#000000">/teams_configurer.cpp</text>
</a>
</g>
</g>
<!-- Node10&#45;&gt;Node13 -->
<g id="edge8" class="edge">
<title>Node10&#45;&gt;Node13</title>
<path fill="none" stroke="#191970" d="M1051.8569,-75.1624C1086.4425,-63.0491 1131.205,-47.3714 1163.6644,-36.0028"/>
<polygon fill="#191970" stroke="#191970" points="1050.6715,-71.8691 1042.3905,-78.478 1052.9854,-78.4756 1050.6715,-71.8691"/>
</g>
<!-- Node15 -->
<g id="node11" class="node">
<title>Node15</title>
<g id="a_node11"><a xlink:href="../../df/dfd/vision__configurer__example_8cpp.html" target="_top" xlink:title="Example on how to use the VisionConfigurer.">
<polygon fill="none" stroke="#000000" points="1311.5,-6 1311.5,-36 1553.5,-36 1553.5,-6 1311.5,-6"/>
<text text-anchor="start" x="1319.5" y="-24" font-family="Fira Code" font-size="10.00" fill="#000000">examples/configurers</text>
<text text-anchor="middle" x="1432.5" y="-13" font-family="Fira Code" font-size="10.00" fill="#000000">/vision_configurer_example.cpp</text>
</a>
</g>
</g>
<!-- Node14&#45;&gt;Node15 -->
<g id="edge10" class="edge">
<title>Node14&#45;&gt;Node15</title>
<path fill="none" stroke="#191970" d="M1520.4608,-73.2718C1500.5718,-61.4525 1475.8957,-46.7884 1457.7461,-36.0028"/>
<polygon fill="#191970" stroke="#191970" points="1518.8369,-76.3781 1529.2215,-78.478 1522.4129,-70.3604 1518.8369,-76.3781"/>
</g>
<!-- Node16 -->
<g id="node12" class="node">
<title>Node16</title>
<g id="a_node12"><a xlink:href="../../df/ddf/vision__adapter_8cpp.html" target="_top" xlink:title="Vision adapter executable file.">
<polygon fill="none" stroke="#000000" points="1571.5,-11.5 1571.5,-30.5 1783.5,-30.5 1783.5,-11.5 1571.5,-11.5"/>
<text text-anchor="middle" x="1677.5" y="-18.5" font-family="Fira Code" font-size="10.00" fill="#000000">src/bin/vision_adapter.cpp</text>
</a>
</g>
</g>
<!-- Node14&#45;&gt;Node16 -->
<g id="edge11" class="edge">
<title>Node14&#45;&gt;Node16</title>
<path fill="none" stroke="#191970" d="M1588.6683,-73.3601C1612.2875,-59.4383 1642.6584,-41.5367 1661.0731,-30.6825"/>
<polygon fill="#191970" stroke="#191970" points="1586.8233,-70.3849 1579.9857,-78.478 1590.3778,-76.4153 1586.8233,-70.3849"/>
</g>
<!-- Node17 -->
<g id="node13" class="node">
<title>Node17</title>
<g id="a_node13"><a xlink:href="../../d7/d1a/vision__configurer_8cpp.html" target="_top" xlink:title="Configurer for the vision.">
<polygon fill="none" stroke="#000000" points="1801.5,-6 1801.5,-36 1983.5,-36 1983.5,-6 1801.5,-6"/>
<text text-anchor="start" x="1809.5" y="-24" font-family="Fira Code" font-size="10.00" fill="#000000">src/lib/configurers</text>
<text text-anchor="middle" x="1892.5" y="-13" font-family="Fira Code" font-size="10.00" fill="#000000">/vision_configurer.cpp</text>
</a>
</g>
</g>
<!-- Node14&#45;&gt;Node17 -->
<g id="edge12" class="edge">
<title>Node14&#45;&gt;Node17</title>
<path fill="none" stroke="#191970" d="M1634.6133,-76.3159C1691.7581,-64.0585 1767.8558,-47.7358 1822.5559,-36.0028"/>
<polygon fill="#191970" stroke="#191970" points="1633.5774,-72.9584 1624.5338,-78.478 1635.0455,-79.8028 1633.5774,-72.9584"/>
</g>
</g>
</svg>
        <g id="navigator" transform="translate(0 0)" fill="#404254">
                <rect fill="#f2f5e9" fill-opacity="0.5" stroke="#606060" stroke-width=".5" x="0" y="0" width="60" height="60"/>
                <use id="zoomplus" xlink:href="#zoomPlus" x="17" y="9" onmousedown="handleZoom(evt,'in')"/>
                <use id="zoomminus" xlink:href="#zoomMin" x="42" y="9" onmousedown="handleZoom(evt,'out')"/>
                <use id="reset" xlink:href="#resetDef" x="30" y="36" onmousedown="handleReset()"/>
                <g id="arrowUp" xlink:href="#dirArrow" transform="translate(30 24)" onmousedown="handlePan(0,-1)">
                  <use xlink:href="#rim" fill="#404040">
                        <set attributeName="fill" to="#808080" begin="arrowUp.mouseover" end="arrowUp.mouseout"/>
                  </use>
                  <path fill="none" stroke="white" stroke-width="1.5" d="M0,-3.0v7 M-2.5,-0.5L0,-3.0L2.5,-0.5"/>
                </g>
                <g id="arrowRight" xlink:href="#dirArrow" transform="rotate(90) translate(36 -43)" onmousedown="handlePan(1,0)">
                  <use xlink:href="#rim" fill="#404040">
                        <set attributeName="fill" to="#808080" begin="arrowRight.mouseover" end="arrowRight.mouseout"/>
                  </use>
                  <path fill="none" stroke="white" stroke-width="1.5" d="M0,-3.0v7 M-2.5,-0.5L0,-3.0L2.5,-0.5"/>
                </g>
                <g id="arrowDown" xlink:href="#dirArrow" transform="rotate(180) translate(-30 -48)" onmousedown="handlePan(0,1)">
                  <use xlink:href="#rim" fill="#404040">
                        <set attributeName="fill" to="#808080" begin="arrowDown.mouseover" end="arrowDown.mouseout"/>
                  </use>
                  <path fill="none" stroke="white" stroke-width="1.5" d="M0,-3.0v7 M-2.5,-0.5L0,-3.0L2.5,-0.5"/>
                </g>
                <g id="arrowLeft" xlink:href="#dirArrow" transform="rotate(270) translate(-36 17)" onmousedown="handlePan(-1,0)">
                  <use xlink:href="#rim" fill="#404040">
                        <set attributeName="fill" to="#808080" begin="arrowLeft.mouseover" end="arrowLeft.mouseout"/>
                  </use>
                  <path fill="none" stroke="white" stroke-width="1.5" d="M0,-3.0v7 M-2.5,-0.5L0,-3.0L2.5,-0.5"/>
                </g>
        </g>
        <svg viewBox="0 0 15 15" width="100%" height="30px" preserveAspectRatio="xMaxYMin meet">
         <g id="arrow_out" transform="scale(0.3 0.3)">
          <a xlink:href="adapter__configurer_8hpp__dep__incl_org.svg" target="_base">
           <rect id="button" ry="5" rx="5" y="6" x="6" height="38" width="38"
                fill="#f2f5e9" fill-opacity="0.5" stroke="#606060" stroke-width="1.0"/>
           <path id="arrow"
             d="M 11.500037,31.436501 C 11.940474,20.09759 22.043105,11.32322 32.158766,21.979434 L 37.068811,17.246167 C 37.068811,17.246167 37.088388,32 37.088388,32 L 22.160133,31.978069 C 22.160133,31.978069 26.997745,27.140456 26.997745,27.140456 C 18.528582,18.264221 13.291696,25.230495 11.500037,31.436501 z"
             style="fill:#404040;"/>
          </a>
         </g>
        </svg>
</svg>
