<?xml version="1.0" encoding="UTF-8" standalone="no"?>
<!DOCTYPE svg PUBLIC "-//W3C//DTD SVG 1.1//EN"
 "http://www.w3.org/Graphics/SVG/1.1/DTD/svg11.dtd">
<!-- Generated by graphviz version 2.40.1 (0)
 -->
<!-- Title: main Pages: 1 -->
<svg width="528pt" height="88pt"
 viewBox="0.00 0.00 528.00 88.00" xmlns="http://www.w3.org/2000/svg" xmlns:xlink="http://www.w3.org/1999/xlink">
<g id="graph0" class="graph" transform="scale(1 1) rotate(0) translate(4 84)">
<title>main</title>
<!-- Node0 -->
<g id="node1" class="node">
<title>Node0</title>
<g id="a_node1"><a xlink:title=" ">
<polygon fill="#bfbfbf" stroke="#000000" points="0,-30 0,-49 47,-49 47,-30 0,-30"/>
<text text-anchor="middle" x="23.5" y="-37" font-family="Fira Code" font-size="10.00" fill="#000000">main</text>
</a>
</g>
</g>
<!-- Node1 -->
<g id="node2" class="node">
<title>Node1</title>
<g id="a_node2"><a xlink:href="../../d2/db9/classtravesim_1_1udp_1_1Receiver.html#adc2e4ae64cc3d39424781c9ba4700267" target="_top" xlink:title="Set wheter to enable any source or source specific. True for specific source, false for any source,...">
<polygon fill="none" stroke="#000000" points="83,-49.5 83,-79.5 272,-79.5 272,-49.5 83,-49.5"/>
<text text-anchor="start" x="91" y="-67.5" font-family="Fira Code" font-size="10.00" fill="#000000">travesim::udp::Receiver</text>
<text text-anchor="middle" x="177.5" y="-56.5" font-family="Fira Code" font-size="10.00" fill="#000000">::force_specific_source</text>
</a>
</g>
</g>
<!-- Node0&#45;&gt;Node1 -->
<g id="edge1" class="edge">
<title>Node0&#45;&gt;Node1</title>
<path fill="none" stroke="#191970" d="M47.225,-43.3515C55.2172,-44.6489 64.7114,-46.1902 74.8782,-47.8406"/>
<polygon fill="#191970" stroke="#191970" points="74.3731,-51.3044 84.8048,-49.4521 75.4949,-44.3948 74.3731,-51.3044"/>
</g>
<!-- Node2 -->
<g id="node3" class="node">
<title>Node2</title>
<g id="a_node3"><a xlink:href="../../d2/db9/classtravesim_1_1udp_1_1Receiver.html#a1f3f4304856a1b7ce6e754fbc7ca1042" target="_top" xlink:title="Receive data using UDP.">
<polygon fill="none" stroke="#000000" points="83,-.5 83,-30.5 272,-30.5 272,-.5 83,-.5"/>
<text text-anchor="start" x="91" y="-18.5" font-family="Fira Code" font-size="10.00" fill="#000000">travesim::udp::Receiver</text>
<text text-anchor="middle" x="177.5" y="-7.5" font-family="Fira Code" font-size="10.00" fill="#000000">::receive</text>
</a>
</g>
</g>
<!-- Node0&#45;&gt;Node2 -->
<g id="edge2" class="edge">
<title>Node0&#45;&gt;Node2</title>
<path fill="none" stroke="#191970" d="M47.225,-35.8026C54.6767,-34.6413 63.4341,-33.2765 72.825,-31.813"/>
<polygon fill="#191970" stroke="#191970" points="73.4706,-35.2547 82.8124,-30.2565 72.3927,-28.3382 73.4706,-35.2547"/>
</g>
<!-- Node3 -->
<g id="node4" class="node">
<title>Node3</title>
<g id="a_node4"><a xlink:href="../../d2/db9/classtravesim_1_1udp_1_1Receiver.html#a32838d397abca3db4ebb73dffea971b7" target="_top" xlink:title="Validate whether the current sender endpoint matches the first sender endpoint when using specific so...">
<polygon fill="none" stroke="#000000" points="308,-.5 308,-30.5 520,-30.5 520,-.5 308,-.5"/>
<text text-anchor="start" x="316" y="-18.5" font-family="Fira Code" font-size="10.00" fill="#000000">travesim::udp::Receiver</text>
<text text-anchor="middle" x="414" y="-7.5" font-family="Fira Code" font-size="10.00" fill="#000000">::validate_sender_endpoint</text>
</a>
</g>
</g>
<!-- Node2&#45;&gt;Node3 -->
<g id="edge3" class="edge">
<title>Node2&#45;&gt;Node3</title>
<path fill="none" stroke="#191970" d="M272.3309,-15.5C280.7361,-15.5 289.3058,-15.5 297.8607,-15.5"/>
<polygon fill="#191970" stroke="#191970" points="297.886,-19.0001 307.886,-15.5 297.886,-12.0001 297.886,-19.0001"/>
</g>
</g>
</svg>
