<?xml version="1.0" encoding="UTF-8" standalone="no"?>
<!DOCTYPE svg PUBLIC "-//W3C//DTD SVG 1.1//EN"
 "http://www.w3.org/Graphics/SVG/1.1/DTD/svg11.dtd">
<!-- Generated by graphviz version 2.40.1 (0)
 -->
<!-- Title: include/travesim_adapters/ros/replacer_sender.hpp Pages: 1 -->
<svg width="330pt" height="95pt"
 viewBox="0.00 0.00 329.50 95.00" xmlns="http://www.w3.org/2000/svg" xmlns:xlink="http://www.w3.org/1999/xlink">
<g id="graph0" class="graph" transform="scale(1 1) rotate(0) translate(4 91)">
<title>include/travesim_adapters/ros/replacer_sender.hpp</title>
<!-- Node0 -->
<g id="node1" class="node">
<title>Node0</title>
<g id="a_node1"><a xlink:title=" ">
<polygon fill="#bfbfbf" stroke="#000000" points="25,-56.5 25,-86.5 229,-86.5 229,-56.5 25,-56.5"/>
<text text-anchor="start" x="33" y="-74.5" font-family="Fira Code" font-size="10.00" fill="#000000">include/travesim_adapters</text>
<text text-anchor="middle" x="127" y="-63.5" font-family="Fira Code" font-size="10.00" fill="#000000">/ros/replacer_sender.hpp</text>
</a>
</g>
</g>
<!-- Node1 -->
<g id="node2" class="node">
<title>Node1</title>
<g id="a_node2"><a xlink:title=" ">
<polygon fill="none" stroke="#bfbfbf" points="0,-.5 0,-19.5 84,-19.5 84,-.5 0,-.5"/>
<text text-anchor="middle" x="42" y="-7.5" font-family="Fira Code" font-size="10.00" fill="#000000">ros/ros.h</text>
</a>
</g>
</g>
<!-- Node0&#45;&gt;Node1 -->
<g id="edge1" class="edge">
<title>Node0&#45;&gt;Node1</title>
<path fill="none" stroke="#191970" d="M105.9888,-56.2977C93.2066,-47.0495 76.9054,-35.2551 63.9552,-25.8853"/>
<polygon fill="#191970" stroke="#191970" points="65.763,-22.8732 55.6096,-19.8469 61.6597,-28.5445 65.763,-22.8732"/>
</g>
<!-- Node2 -->
<g id="node3" class="node">
<title>Node2</title>
<g id="a_node3"><a xlink:title=" ">
<polygon fill="none" stroke="#bfbfbf" points="102.5,-.5 102.5,-19.5 321.5,-19.5 321.5,-.5 102.5,-.5"/>
<text text-anchor="middle" x="212" y="-7.5" font-family="Fira Code" font-size="10.00" fill="#000000">gazebo_msgs/SetModelState.h</text>
</a>
</g>
</g>
<!-- Node0&#45;&gt;Node2 -->
<g id="edge2" class="edge">
<title>Node0&#45;&gt;Node2</title>
<path fill="none" stroke="#191970" d="M148.0112,-56.2977C160.7934,-47.0495 177.0946,-35.2551 190.0448,-25.8853"/>
<polygon fill="#191970" stroke="#191970" points="192.3403,-28.5445 198.3904,-19.8469 188.237,-22.8732 192.3403,-28.5445"/>
</g>
</g>
</svg>
