<?xml version="1.0" encoding="UTF-8" standalone="no"?>
<!DOCTYPE svg PUBLIC "-//W3C//DTD SVG 1.1//EN"
 "http://www.w3.org/Graphics/SVG/1.1/DTD/svg11.dtd">
<!-- Generated by graphviz version 2.40.1 (0)
 -->
<!-- Title: main Pages: 1 -->
<svg width="753pt" height="107pt"
 viewBox="0.00 0.00 753.00 107.00" xmlns="http://www.w3.org/2000/svg" xmlns:xlink="http://www.w3.org/1999/xlink">
<g id="graph0" class="graph" transform="scale(1 1) rotate(0) translate(4 103)">
<title>main</title>
<!-- Node0 -->
<g id="node1" class="node">
<title>Node0</title>
<g id="a_node1"><a xlink:title=" ">
<polygon fill="#bfbfbf" stroke="#000000" points="0,-30 0,-49 47,-49 47,-30 0,-30"/>
<text text-anchor="middle" x="23.5" y="-37" font-family="Fira Code" font-size="10.00" fill="#000000">main</text>
</a>
</g>
</g>
<!-- Node1 -->
<g id="node2" class="node">
<title>Node1</title>
<g id="a_node2"><a xlink:href="../../d1/d51/classtravesim_1_1VisionConfigurer.html#a03e304ac5b9b5867eb5c4a03730fef07" target="_top" xlink:title="Get the vision configured address.">
<polygon fill="none" stroke="#000000" points="86.5,-49.5 86.5,-79.5 298.5,-79.5 298.5,-49.5 86.5,-49.5"/>
<text text-anchor="start" x="94.5" y="-67.5" font-family="Fira Code" font-size="10.00" fill="#000000">travesim::VisionConfigurer</text>
<text text-anchor="middle" x="192.5" y="-56.5" font-family="Fira Code" font-size="10.00" fill="#000000">::get_address</text>
</a>
</g>
</g>
<!-- Node0&#45;&gt;Node1 -->
<g id="edge1" class="edge">
<title>Node0&#45;&gt;Node1</title>
<path fill="none" stroke="#191970" d="M47.3551,-43.0289C56.7601,-44.4201 68.2836,-46.1248 80.6868,-47.9596"/>
<polygon fill="#191970" stroke="#191970" points="80.3942,-51.4543 90.7988,-49.4554 81.4187,-44.5297 80.3942,-51.4543"/>
</g>
<!-- Node5 -->
<g id="node6" class="node">
<title>Node5</title>
<g id="a_node6"><a xlink:href="../../dd/d5b/classtravesim_1_1AdapterConfigurer.html#a036c5ec113755fcbb96bfed6943ab174" target="_top" xlink:title="Get the reset config.">
<polygon fill="none" stroke="#000000" points="83,-.5 83,-30.5 302,-30.5 302,-.5 83,-.5"/>
<text text-anchor="start" x="91" y="-18.5" font-family="Fira Code" font-size="10.00" fill="#000000">travesim::AdapterConfigurer</text>
<text text-anchor="middle" x="192.5" y="-7.5" font-family="Fira Code" font-size="10.00" fill="#000000">::get_reset</text>
</a>
</g>
</g>
<!-- Node0&#45;&gt;Node5 -->
<g id="edge5" class="edge">
<title>Node0&#45;&gt;Node5</title>
<path fill="none" stroke="#191970" d="M47.3551,-36.1123C55.7145,-34.9252 65.7474,-33.5004 76.5842,-31.9614"/>
<polygon fill="#191970" stroke="#191970" points="77.3288,-35.3909 86.7373,-30.5196 76.3445,-28.4604 77.3288,-35.3909"/>
</g>
<!-- Node2 -->
<g id="node3" class="node">
<title>Node2</title>
<g id="a_node3"><a xlink:href="../../d1/d4b/namespacetravesim.html#a05f869547c07b49b722c2afb6c1967ef" target="_top" xlink:title="Checks if a IP is valid and is in the specified range.">
<polygon fill="none" stroke="#000000" points="338,-74 338,-93 535,-93 535,-74 338,-74"/>
<text text-anchor="middle" x="436.5" y="-81" font-family="Fira Code" font-size="10.00" fill="#000000">travesim::check_valid_ip</text>
</a>
</g>
</g>
<!-- Node1&#45;&gt;Node2 -->
<g id="edge2" class="edge">
<title>Node1&#45;&gt;Node2</title>
<path fill="none" stroke="#191970" d="M298.8122,-72.7784C308.4389,-73.528 318.1982,-74.288 327.8448,-75.0391"/>
<polygon fill="#191970" stroke="#191970" points="327.605,-78.531 337.8466,-75.818 328.1485,-71.5521 327.605,-78.531"/>
</g>
<!-- Node4 -->
<g id="node5" class="node">
<title>Node4</title>
<g id="a_node5"><a xlink:href="../../d1/d4b/namespacetravesim.html#a32624f8212a09572f8587ea017f67d30" target="_top" xlink:title="Get the error msg based on the validation type.">
<polygon fill="none" stroke="#000000" points="342,-36 342,-55 531,-55 531,-36 342,-36"/>
<text text-anchor="middle" x="436.5" y="-43" font-family="Fira Code" font-size="10.00" fill="#000000">travesim::get_error_msg</text>
</a>
</g>
</g>
<!-- Node1&#45;&gt;Node4 -->
<g id="edge4" class="edge">
<title>Node1&#45;&gt;Node4</title>
<path fill="none" stroke="#191970" d="M298.8122,-56.2216C309.6148,-55.3804 320.5843,-54.5262 331.3743,-53.686"/>
<polygon fill="#191970" stroke="#191970" points="331.9549,-57.1515 341.653,-52.8856 331.4114,-50.1726 331.9549,-57.1515"/>
</g>
<!-- Node3 -->
<g id="node4" class="node">
<title>Node3</title>
<g id="a_node4"><a xlink:href="../../d1/d4b/namespacetravesim.html#ad051590d1f7aa8c749f82ed36c4b2cba" target="_top" xlink:title="Converts a IPv4 in a string to a array of unsigned integers, where the most significant byte of the I...">
<polygon fill="none" stroke="#000000" points="571,-68.5 571,-98.5 745,-98.5 745,-68.5 571,-68.5"/>
<text text-anchor="start" x="579" y="-86.5" font-family="Fira Code" font-size="10.00" fill="#000000">travesim::ipv4_string</text>
<text text-anchor="middle" x="658" y="-75.5" font-family="Fira Code" font-size="10.00" fill="#000000">_to_uint</text>
</a>
</g>
</g>
<!-- Node2&#45;&gt;Node3 -->
<g id="edge3" class="edge">
<title>Node2&#45;&gt;Node3</title>
<path fill="none" stroke="#191970" d="M535.2658,-83.5C543.7135,-83.5 552.2554,-83.5 560.6916,-83.5"/>
<polygon fill="#191970" stroke="#191970" points="560.9162,-87.0001 570.9162,-83.5 560.9162,-80.0001 560.9162,-87.0001"/>
</g>
</g>
</svg>
