<?xml version="1.0" encoding="UTF-8" standalone="no"?>
<!DOCTYPE svg PUBLIC "-//W3C//DTD SVG 1.1//EN"
 "http://www.w3.org/Graphics/SVG/1.1/DTD/svg11.dtd">
<!-- Generated by graphviz version 2.40.1 (0)
 -->
<!-- Title: include/travesim_adapters/ros/vision_receiver.hpp Pages: 1 -->
<svg width="446pt" height="95pt"
 viewBox="0.00 0.00 446.00 95.00" xmlns="http://www.w3.org/2000/svg" xmlns:xlink="http://www.w3.org/1999/xlink">
<g id="graph0" class="graph" transform="scale(1 1) rotate(0) translate(4 91)">
<title>include/travesim_adapters/ros/vision_receiver.hpp</title>
<!-- Node0 -->
<g id="node1" class="node">
<title>Node0</title>
<g id="a_node1"><a xlink:title="ROS vision receiver class definition.">
<polygon fill="#bfbfbf" stroke="#000000" points="57,-56.5 57,-86.5 261,-86.5 261,-56.5 57,-56.5"/>
<text text-anchor="start" x="65" y="-74.5" font-family="Fira Code" font-size="10.00" fill="#000000">include/travesim_adapters</text>
<text text-anchor="middle" x="159" y="-63.5" font-family="Fira Code" font-size="10.00" fill="#000000">/ros/vision_receiver.hpp</text>
</a>
</g>
</g>
<!-- Node1 -->
<g id="node2" class="node">
<title>Node1</title>
<g id="a_node2"><a xlink:title=" ">
<polygon fill="none" stroke="#bfbfbf" points="0,-.5 0,-19.5 84,-19.5 84,-.5 0,-.5"/>
<text text-anchor="middle" x="42" y="-7.5" font-family="Fira Code" font-size="10.00" fill="#000000">ros/ros.h</text>
</a>
</g>
</g>
<!-- Node0&#45;&gt;Node1 -->
<g id="edge1" class="edge">
<title>Node0&#45;&gt;Node1</title>
<path fill="none" stroke="#191970" d="M130.3786,-56.4554C111.713,-46.644 87.5001,-33.9167 69.1388,-24.2653"/>
<polygon fill="#191970" stroke="#191970" points="70.611,-21.0851 60.1308,-19.5303 67.354,-27.2812 70.611,-21.0851"/>
</g>
<!-- Node2 -->
<g id="node3" class="node">
<title>Node2</title>
<g id="a_node3"><a xlink:title=" ">
<polygon fill="none" stroke="#bfbfbf" points="102,-.5 102,-19.5 216,-19.5 216,-.5 102,-.5"/>
<text text-anchor="middle" x="159" y="-7.5" font-family="Fira Code" font-size="10.00" fill="#000000">ros/console.h</text>
</a>
</g>
</g>
<!-- Node0&#45;&gt;Node2 -->
<g id="edge2" class="edge">
<title>Node0&#45;&gt;Node2</title>
<path fill="none" stroke="#191970" d="M159,-56.2977C159,-48.3834 159,-38.6043 159,-30.0759"/>
<polygon fill="#191970" stroke="#191970" points="162.5001,-29.8469 159,-19.8469 155.5001,-29.847 162.5001,-29.8469"/>
</g>
<!-- Node3 -->
<g id="node4" class="node">
<title>Node3</title>
<g id="a_node4"><a xlink:title=" ">
<polygon fill="none" stroke="#bfbfbf" points="234,-.5 234,-19.5 438,-19.5 438,-.5 234,-.5"/>
<text text-anchor="middle" x="336" y="-7.5" font-family="Fira Code" font-size="10.00" fill="#000000">gazebo_msgs/ModelStates.h</text>
</a>
</g>
</g>
<!-- Node0&#45;&gt;Node3 -->
<g id="edge3" class="edge">
<title>Node0&#45;&gt;Node3</title>
<path fill="none" stroke="#191970" d="M202.2991,-56.4554C231.9615,-46.149 270.8845,-32.6249 299.0788,-22.8286"/>
<polygon fill="#191970" stroke="#191970" points="300.274,-26.1186 308.5713,-19.5303 297.9765,-19.5064 300.274,-26.1186"/>
</g>
</g>
</svg>
