<?xml version="1.0" encoding="UTF-8" standalone="no"?>
<!DOCTYPE svg PUBLIC "-//W3C//DTD SVG 1.1//EN"
 "http://www.w3.org/Graphics/SVG/1.1/DTD/svg11.dtd">
<!-- Generated by graphviz version 2.40.1 (0)
 -->
<!-- Title: examples/protobuf/vision_receiver_example.cpp Pages: 1 -->
<svg width="817pt" height="229pt"
 viewBox="0.00 0.00 817.00 229.00" xmlns="http://www.w3.org/2000/svg" xmlns:xlink="http://www.w3.org/1999/xlink">
<g id="graph0" class="graph" transform="scale(1 1) rotate(0) translate(4 225)">
<title>examples/protobuf/vision_receiver_example.cpp</title>
<!-- Node0 -->
<g id="node1" class="node">
<title>Node0</title>
<g id="a_node1"><a xlink:title="Example to read data published from vision adapter.">
<polygon fill="#bfbfbf" stroke="#000000" points="210,-190.5 210,-220.5 407,-220.5 407,-190.5 210,-190.5"/>
<text text-anchor="start" x="218" y="-208.5" font-family="Fira Code" font-size="10.00" fill="#000000">examples/protobuf/vision</text>
<text text-anchor="middle" x="308.5" y="-197.5" font-family="Fira Code" font-size="10.00" fill="#000000">_receiver_example.cpp</text>
</a>
</g>
</g>
<!-- Node1 -->
<g id="node2" class="node">
<title>Node1</title>
<g id="a_node2"><a xlink:title=" ">
<polygon fill="none" stroke="#bfbfbf" points="0,-129 0,-148 77,-148 77,-129 0,-129"/>
<text text-anchor="middle" x="38.5" y="-136" font-family="Fira Code" font-size="10.00" fill="#000000">iostream</text>
</a>
</g>
</g>
<!-- Node0&#45;&gt;Node1 -->
<g id="edge1" class="edge">
<title>Node0&#45;&gt;Node1</title>
<path fill="none" stroke="#191970" d="M241.315,-190.4949C198.3354,-180.6641 141.4703,-167.2272 91.5,-154 87.6988,-152.9938 83.7552,-151.9122 79.8123,-150.8051"/>
<polygon fill="#191970" stroke="#191970" points="80.6713,-147.4105 70.0945,-148.0292 78.7486,-154.1413 80.6713,-147.4105"/>
</g>
<!-- Node2 -->
<g id="node3" class="node">
<title>Node2</title>
<g id="a_node3"><a xlink:title=" ">
<polygon fill="none" stroke="#bfbfbf" points="200.5,-.5 200.5,-19.5 262.5,-19.5 262.5,-.5 200.5,-.5"/>
<text text-anchor="middle" x="231.5" y="-7.5" font-family="Fira Code" font-size="10.00" fill="#000000">string</text>
</a>
</g>
</g>
<!-- Node0&#45;&gt;Node2 -->
<g id="edge2" class="edge">
<title>Node0&#45;&gt;Node2</title>
<path fill="none" stroke="#191970" d="M215.8087,-190.4477C175.8045,-181.8804 135.4238,-169.6965 123.5,-154 87.8376,-107.0539 163.3905,-51.0969 205.6079,-24.9056"/>
<polygon fill="#191970" stroke="#191970" points="207.5662,-27.8115 214.3055,-19.6363 203.9391,-21.8245 207.5662,-27.8115"/>
</g>
<!-- Node3 -->
<g id="node4" class="node">
<title>Node3</title>
<g id="a_node4"><a xlink:title=" ">
<polygon fill="none" stroke="#bfbfbf" points="133,-123.5 133,-153.5 300,-153.5 300,-123.5 133,-123.5"/>
<text text-anchor="start" x="141" y="-141.5" font-family="Fira Code" font-size="10.00" fill="#000000">google/protobuf/util</text>
<text text-anchor="middle" x="216.5" y="-130.5" font-family="Fira Code" font-size="10.00" fill="#000000">/json_util.h</text>
</a>
</g>
</g>
<!-- Node0&#45;&gt;Node3 -->
<g id="edge3" class="edge">
<title>Node0&#45;&gt;Node3</title>
<path fill="none" stroke="#191970" d="M287.6238,-190.2967C275.1552,-181.2163 259.1342,-169.5488 245.4553,-159.587"/>
<polygon fill="#191970" stroke="#191970" points="247.4376,-156.7009 237.2936,-153.6432 243.3167,-162.3594 247.4376,-156.7009"/>
</g>
<!-- Node4 -->
<g id="node5" class="node">
<title>Node4</title>
<g id="a_node5"><a xlink:title=" ">
<polygon fill="none" stroke="#bfbfbf" points="318,-123.5 318,-153.5 485,-153.5 485,-123.5 318,-123.5"/>
<text text-anchor="start" x="326" y="-141.5" font-family="Fira Code" font-size="10.00" fill="#000000">google/protobuf/text</text>
<text text-anchor="middle" x="401.5" y="-130.5" font-family="Fira Code" font-size="10.00" fill="#000000">_format.h</text>
</a>
</g>
</g>
<!-- Node0&#45;&gt;Node4 -->
<g id="edge4" class="edge">
<title>Node0&#45;&gt;Node4</title>
<path fill="none" stroke="#191970" d="M329.6031,-190.2967C342.2072,-181.2163 358.4024,-169.5488 372.23,-159.587"/>
<polygon fill="#191970" stroke="#191970" points="374.4126,-162.3284 380.4804,-153.6432 370.3208,-156.6488 374.4126,-162.3284"/>
</g>
<!-- Node5 -->
<g id="node6" class="node">
<title>Node5</title>
<g id="a_node6"><a xlink:title=" ">
<polygon fill="none" stroke="#bfbfbf" points="503,-129 503,-148 602,-148 602,-129 503,-129"/>
<text text-anchor="middle" x="552.5" y="-136" font-family="Fira Code" font-size="10.00" fill="#000000">packet.pb.h</text>
</a>
</g>
</g>
<!-- Node0&#45;&gt;Node5 -->
<g id="edge5" class="edge">
<title>Node0&#45;&gt;Node5</title>
<path fill="none" stroke="#191970" d="M363.2584,-190.4639C407.0023,-178.4522 467.5189,-161.835 508.2363,-150.6544"/>
<polygon fill="#191970" stroke="#191970" points="509.1675,-154.0283 517.8837,-148.0053 507.3139,-147.2782 509.1675,-154.0283"/>
</g>
<!-- Node6 -->
<g id="node7" class="node">
<title>Node6</title>
<g id="a_node7"><a xlink:href="../../d2/d4b/multicast__receiver_8hpp.html" target="_top" xlink:title="Receiver data using UDP in multicast mode.">
<polygon fill="none" stroke="#000000" points="620,-123.5 620,-153.5 809,-153.5 809,-123.5 620,-123.5"/>
<text text-anchor="start" x="628" y="-141.5" font-family="Fira Code" font-size="10.00" fill="#000000">travesim_adapters/udp</text>
<text text-anchor="middle" x="714.5" y="-130.5" font-family="Fira Code" font-size="10.00" fill="#000000">/multicast_receiver.hpp</text>
</a>
</g>
</g>
<!-- Node0&#45;&gt;Node6 -->
<g id="edge6" class="edge">
<title>Node0&#45;&gt;Node6</title>
<path fill="none" stroke="#191970" d="M399.6143,-190.4639C463.1032,-179.9867 547.8259,-166.0053 613.3978,-155.1844"/>
<polygon fill="#191970" stroke="#191970" points="614.0426,-158.6254 623.3392,-153.5438 612.9028,-151.7188 614.0426,-158.6254"/>
</g>
<!-- Node7 -->
<g id="node8" class="node">
<title>Node7</title>
<g id="a_node8"><a xlink:href="../../df/d3c/receiver_8hpp.html" target="_top" xlink:title="Receiver data using UDP.">
<polygon fill="none" stroke="#000000" points="380.5,-56.5 380.5,-86.5 554.5,-86.5 554.5,-56.5 380.5,-56.5"/>
<text text-anchor="start" x="388.5" y="-74.5" font-family="Fira Code" font-size="10.00" fill="#000000">travesim_adapters/udp</text>
<text text-anchor="middle" x="467.5" y="-63.5" font-family="Fira Code" font-size="10.00" fill="#000000">/receiver.hpp</text>
</a>
</g>
</g>
<!-- Node6&#45;&gt;Node7 -->
<g id="edge7" class="edge">
<title>Node6&#45;&gt;Node7</title>
<path fill="none" stroke="#191970" d="M659.0684,-123.4639C621.6986,-113.3272 572.2367,-99.9104 532.9334,-89.2491"/>
<polygon fill="#191970" stroke="#191970" points="533.7409,-85.8418 523.1734,-86.6017 531.9083,-92.5976 533.7409,-85.8418"/>
</g>
<!-- Node7&#45;&gt;Node2 -->
<g id="edge9" class="edge">
<title>Node7&#45;&gt;Node2</title>
<path fill="none" stroke="#191970" d="M409.7679,-56.4554C367.1775,-45.3566 310.2683,-30.5265 272.324,-20.6384"/>
<polygon fill="#191970" stroke="#191970" points="273.1892,-17.2471 262.6297,-18.1122 271.4239,-24.0209 273.1892,-17.2471"/>
</g>
<!-- Node8 -->
<g id="node9" class="node">
<title>Node8</title>
<g id="a_node9"><a xlink:title=" ">
<polygon fill="none" stroke="#bfbfbf" points="406.5,-.5 406.5,-19.5 528.5,-19.5 528.5,-.5 406.5,-.5"/>
<text text-anchor="middle" x="467.5" y="-7.5" font-family="Fira Code" font-size="10.00" fill="#000000">boost/asio.hpp</text>
</a>
</g>
</g>
<!-- Node7&#45;&gt;Node8 -->
<g id="edge8" class="edge">
<title>Node7&#45;&gt;Node8</title>
<path fill="none" stroke="#191970" d="M467.5,-56.2977C467.5,-48.3834 467.5,-38.6043 467.5,-30.0759"/>
<polygon fill="#191970" stroke="#191970" points="471.0001,-29.8469 467.5,-19.8469 464.0001,-29.847 471.0001,-29.8469"/>
</g>
</g>
</svg>
