<?xml version="1.0" encoding="UTF-8" standalone="no"?>
<!DOCTYPE svg PUBLIC "-//W3C//DTD SVG 1.1//EN"
 "http://www.w3.org/Graphics/SVG/1.1/DTD/svg11.dtd">
<!-- Generated by graphviz version 2.40.1 (0)
 -->
<!-- Title: examples/udp/unicast_receiver_example.cpp Pages: 1 -->
<svg width="278pt" height="229pt"
 viewBox="0.00 0.00 277.50 229.00" xmlns="http://www.w3.org/2000/svg" xmlns:xlink="http://www.w3.org/1999/xlink">
<g id="graph0" class="graph" transform="scale(1 1) rotate(0) translate(4 225)">
<title>examples/udp/unicast_receiver_example.cpp</title>
<!-- Node0 -->
<g id="node1" class="node">
<title>Node0</title>
<g id="a_node1"><a xlink:title="Example on how to use the UnicastReceiver.">
<polygon fill="#bfbfbf" stroke="#000000" points="23.5,-190.5 23.5,-220.5 197.5,-220.5 197.5,-190.5 23.5,-190.5"/>
<text text-anchor="start" x="31.5" y="-208.5" font-family="Fira Code" font-size="10.00" fill="#000000">examples/udp/unicast</text>
<text text-anchor="middle" x="110.5" y="-197.5" font-family="Fira Code" font-size="10.00" fill="#000000">_receiver_example.cpp</text>
</a>
</g>
</g>
<!-- Node1 -->
<g id="node2" class="node">
<title>Node1</title>
<g id="a_node2"><a xlink:title=" ">
<polygon fill="none" stroke="#bfbfbf" points="0,-129 0,-148 77,-148 77,-129 0,-129"/>
<text text-anchor="middle" x="38.5" y="-136" font-family="Fira Code" font-size="10.00" fill="#000000">iostream</text>
</a>
</g>
</g>
<!-- Node0&#45;&gt;Node1 -->
<g id="edge1" class="edge">
<title>Node0&#45;&gt;Node1</title>
<path fill="none" stroke="#191970" d="M94.1621,-190.2967C82.8352,-179.7564 67.7624,-165.7303 56.1586,-154.9323"/>
<polygon fill="#191970" stroke="#191970" points="58.4731,-152.3051 48.768,-148.055 53.7044,-157.4296 58.4731,-152.3051"/>
</g>
<!-- Node2 -->
<g id="node3" class="node">
<title>Node2</title>
<g id="a_node3"><a xlink:href="../../de/d4a/unicast__receiver_8hpp.html" target="_top" xlink:title="Receiver data using UDP in unicast mode.">
<polygon fill="none" stroke="#000000" points="95.5,-123.5 95.5,-153.5 269.5,-153.5 269.5,-123.5 95.5,-123.5"/>
<text text-anchor="start" x="103.5" y="-141.5" font-family="Fira Code" font-size="10.00" fill="#000000">travesim_adapters/udp</text>
<text text-anchor="middle" x="182.5" y="-130.5" font-family="Fira Code" font-size="10.00" fill="#000000">/unicast_receiver.hpp</text>
</a>
</g>
</g>
<!-- Node0&#45;&gt;Node2 -->
<g id="edge2" class="edge">
<title>Node0&#45;&gt;Node2</title>
<path fill="none" stroke="#191970" d="M126.8379,-190.2967C136.2277,-181.559 148.1918,-170.4257 158.6198,-160.7218"/>
<polygon fill="#191970" stroke="#191970" points="161.2903,-163.0178 166.2267,-153.6432 156.5217,-157.8933 161.2903,-163.0178"/>
</g>
<!-- Node3 -->
<g id="node4" class="node">
<title>Node3</title>
<g id="a_node4"><a xlink:href="../../df/d3c/receiver_8hpp.html" target="_top" xlink:title="Receiver data using UDP.">
<polygon fill="none" stroke="#000000" points="95.5,-56.5 95.5,-86.5 269.5,-86.5 269.5,-56.5 95.5,-56.5"/>
<text text-anchor="start" x="103.5" y="-74.5" font-family="Fira Code" font-size="10.00" fill="#000000">travesim_adapters/udp</text>
<text text-anchor="middle" x="182.5" y="-63.5" font-family="Fira Code" font-size="10.00" fill="#000000">/receiver.hpp</text>
</a>
</g>
</g>
<!-- Node2&#45;&gt;Node3 -->
<g id="edge3" class="edge">
<title>Node2&#45;&gt;Node3</title>
<path fill="none" stroke="#191970" d="M182.5,-123.2967C182.5,-115.5013 182.5,-105.7991 182.5,-96.9064"/>
<polygon fill="#191970" stroke="#191970" points="186.0001,-96.6431 182.5,-86.6432 179.0001,-96.6432 186.0001,-96.6431"/>
</g>
<!-- Node4 -->
<g id="node5" class="node">
<title>Node4</title>
<g id="a_node5"><a xlink:title=" ">
<polygon fill="none" stroke="#bfbfbf" points="66.5,-.5 66.5,-19.5 188.5,-19.5 188.5,-.5 66.5,-.5"/>
<text text-anchor="middle" x="127.5" y="-7.5" font-family="Fira Code" font-size="10.00" fill="#000000">boost/asio.hpp</text>
</a>
</g>
</g>
<!-- Node3&#45;&gt;Node4 -->
<g id="edge4" class="edge">
<title>Node3&#45;&gt;Node4</title>
<path fill="none" stroke="#191970" d="M168.9045,-56.2977C161.1109,-47.5831 151.2953,-36.6075 143.1774,-27.5302"/>
<polygon fill="#191970" stroke="#191970" points="145.5813,-24.9678 136.3062,-19.8469 140.3635,-29.6341 145.5813,-24.9678"/>
</g>
<!-- Node5 -->
<g id="node6" class="node">
<title>Node5</title>
<g id="a_node6"><a xlink:title=" ">
<polygon fill="none" stroke="#bfbfbf" points="206.5,-.5 206.5,-19.5 268.5,-19.5 268.5,-.5 206.5,-.5"/>
<text text-anchor="middle" x="237.5" y="-7.5" font-family="Fira Code" font-size="10.00" fill="#000000">string</text>
</a>
</g>
</g>
<!-- Node3&#45;&gt;Node5 -->
<g id="edge5" class="edge">
<title>Node3&#45;&gt;Node5</title>
<path fill="none" stroke="#191970" d="M196.0955,-56.2977C203.8891,-47.5831 213.7047,-36.6075 221.8226,-27.5302"/>
<polygon fill="#191970" stroke="#191970" points="224.6365,-29.6341 228.6938,-19.8469 219.4187,-24.9678 224.6365,-29.6341"/>
</g>
</g>
</svg>
